<svg width="85" height="88" viewBox="0 0 85 88" fill="none" xmlns="http://www.w3.org/2000/svg">
<g clip-path="url(#clip0_3029_1586)">
<path fill-rule="evenodd" clip-rule="evenodd" d="M16.1759 8.69851C23.8878 9.02669 31.6131 8.74637 39.2827 7.86006C39.3966 7.87852 39.513 7.87117 39.6237 7.83855C39.7345 7.80592 39.8368 7.74881 39.9235 7.67127C40.0102 7.59373 40.0791 7.49766 40.1254 7.38988C40.1717 7.28209 40.1941 7.16523 40.1912 7.04758C40.1883 6.92993 40.1601 6.81438 40.1085 6.70912C40.057 6.60386 39.9834 6.51148 39.8929 6.43852C39.8025 6.36556 39.6974 6.31382 39.5852 6.28696C39.473 6.2601 39.3564 6.25879 39.2436 6.28311C25.5443 5.19326 29.4812 5.51934 16.0261 6.88372C15.7904 6.904 15.5723 7.01905 15.4197 7.20357C15.267 7.38808 15.1925 7.62694 15.2123 7.86759C15.2322 8.10825 15.3449 8.33099 15.5256 8.48682C15.7063 8.64265 15.9402 8.71879 16.1759 8.69851Z" fill="#3E66F3"/>
<path fill-rule="evenodd" clip-rule="evenodd" d="M27.3488 26.1948C22.7238 25.5643 18.0249 25.8037 13.4844 26.9011C12.7902 21.0886 12.9429 21.9673 13.2843 9.33473C13.437 9.18891 13.5267 8.98714 13.5337 8.77379C13.5407 8.56044 13.4644 8.353 13.3216 8.1971C13.1788 8.04119 12.9812 7.9496 12.7723 7.94246C12.5633 7.93533 12.3602 8.01324 12.2075 8.15905C11.3871 8.87565 11.5409 10.8508 11.3762 11.6039C10.3008 16.9401 10.0303 22.4127 10.574 27.8322C10.7474 29.9152 11.2309 31.9589 12.0078 33.893C13.5528 35.9927 19.9121 35.7747 22.529 35.6802C21.9548 36.4588 21.5488 37.3529 21.3376 38.3034C21.1264 39.2539 21.1149 40.2393 21.3038 41.1947C20.3589 41.3272 19.4388 41.6034 18.574 42.0141C18.3944 42.0529 18.2337 42.1546 18.12 42.3017C18.0062 42.4488 17.9464 42.6319 17.951 42.8192C17.9557 43.0066 18.0245 43.1864 18.1454 43.3274C18.2663 43.4684 18.4318 43.5617 18.6131 43.5911C19.6003 44.0103 20.6628 44.2126 21.7316 44.185C22.8004 44.1573 23.8515 43.9003 24.8167 43.4306C25.0527 43.4245 25.2767 43.3229 25.4394 43.1482C25.602 42.9734 25.6901 42.7399 25.6841 42.4988C25.6781 42.2578 25.5786 42.0291 25.4075 41.863C25.2363 41.6969 25.0076 41.607 24.7716 41.6131L23.5085 41.3783C24.37 39.6193 24.66 37.6257 24.3364 35.687C24.3364 35.687 24.0485 35.6944 26.2701 35.5032C26.5061 35.4971 26.7301 35.3955 26.8928 35.2208C27.0555 35.046 27.1435 34.8125 27.1375 34.5714C27.1315 34.3304 27.032 34.1017 26.8609 33.9356C26.6898 33.7695 26.461 33.6796 26.225 33.6857C22.4291 33.78 18.6364 33.393 14.9338 32.5336C14.1412 32.2599 14.3539 32.3881 14.1462 31.4039C13.9384 30.4197 13.844 29.7803 13.7134 28.7406C19.4369 29.2879 19.2759 29.1316 27.4462 28.0109C27.563 28.0044 27.6774 27.9744 27.7828 27.9227C27.8883 27.8711 27.9827 27.7987 28.0608 27.7098C28.1388 27.6208 28.1989 27.517 28.2377 27.4044C28.2765 27.2917 28.2932 27.1723 28.2868 27.0531C28.2804 26.9338 28.251 26.817 28.2004 26.7094C28.1498 26.6017 28.079 26.5052 27.9919 26.4255C27.9047 26.3458 27.8031 26.2844 27.6928 26.2448C27.5824 26.2052 27.4655 26.1882 27.3488 26.1948Z" fill="#3E66F3"/>
<path fill-rule="evenodd" clip-rule="evenodd" d="M62.1163 27.6758C59.6379 28.2988 57.0969 28.6248 54.5447 28.6473C52.5338 28.7153 50.5212 28.5792 48.5366 28.2411C47.536 28.0263 47.1185 28.0905 47.1099 27.7431C47.1012 27.3956 45.6811 7.10607 46.7526 3.84219C47.4879 3.38968 48.3136 3.11235 49.1684 3.03083C49.1332 4.40927 49.4468 5.77366 50.0786 6.99231C51.1844 8.16774 52.6379 8.93944 54.2153 9.18859C55.7928 9.43775 57.4067 9.15054 58.8086 8.37118C60.1217 6.88692 60.8648 4.96787 60.9009 2.96803C61.2652 3.02575 61.6258 3.10573 61.9807 3.20755C62.197 3.25418 62.4226 3.21696 62.6135 3.10314C62.8044 2.98932 62.947 2.80703 63.0136 2.59176C63.0801 2.37649 63.0658 2.14364 62.9735 1.93852C62.8812 1.7334 62.7174 1.57069 62.5141 1.48206C59.0069 0.529732 46.0392 -0.632535 44.6046 2.77446C43.2902 5.75043 43.435 26.3672 44.4456 29.0958C45.8734 32.8031 58.0532 31.766 61.845 30.4643C62.8695 30.2174 63.7796 29.6177 64.4221 28.7662C65.2494 27.2738 63.873 6.63546 63.8412 5.35252C63.8359 5.13986 63.7481 4.93805 63.5971 4.79149C63.4461 4.64492 63.2443 4.56561 63.036 4.571C62.8278 4.57638 62.6301 4.66603 62.4866 4.82021C62.3431 4.9744 62.2654 5.18049 62.2707 5.39315C62.4683 13.3581 62.4586 27.7472 62.1163 27.6758ZM59.2257 3.01137C58.9436 4.24118 58.3482 5.37301 57.4998 6.29217C56.5799 6.50334 55.6283 6.52796 54.699 6.36463C51.4394 5.8873 51.6067 5.24109 50.9281 3.22602L50.9181 2.8251C53.6864 2.60288 56.4696 2.66528 59.2257 3.01137Z" fill="#3E66F3"/>
<path fill-rule="evenodd" clip-rule="evenodd" d="M72.29 51.3495C69.9066 47.132 64.5301 46.8431 60.2354 48.9869C57.4068 29.9908 48.6503 31.7685 48.5471 40.2761C48.5222 44.161 48.8641 48.0392 49.5678 51.8571C46.1381 49.8062 41.0107 51.1156 41.3276 55.4402C41.5294 58.2967 46.3567 63.8952 51.2485 64.7048C51.3396 64.7431 51.4374 64.7616 51.5359 64.759C51.6343 64.7565 51.7311 64.7329 51.8202 64.69C51.9092 64.647 51.9884 64.5855 52.0528 64.5094C52.1172 64.4334 52.1653 64.3444 52.1941 64.2482C52.2228 64.1521 52.2316 64.0508 52.2198 63.951C52.2081 63.8512 52.176 63.755 52.1257 63.6685C52.0754 63.5821 52.0079 63.5074 51.9277 63.4491C51.8474 63.3908 51.7562 63.3503 51.6597 63.3301C50.7578 62.8721 44.1108 57.8287 43.9418 55.2388C43.8954 53.3678 46.5116 53.2467 48.2362 54.1381C49.1414 54.7497 50.0918 55.2884 51.0787 55.7495C51.2739 55.8035 51.4787 55.8097 51.6766 55.7675C51.8745 55.7253 52.0598 55.6359 52.2175 55.5067C52.3751 55.3775 52.5007 55.2121 52.5838 55.0239C52.667 54.8357 52.7054 54.6302 52.6959 54.4239C52.4799 52.9552 52.1902 51.4987 51.8281 50.0602C51.5401 47.9548 50.1762 37.3188 52.1824 36.8924C52.9892 36.6844 53.6668 37.6029 54.1042 38.3404C56.6761 42.7671 56.9018 50.8115 57.5403 52.266C57.6356 52.4998 57.782 52.7081 57.9683 52.8752C58.1547 53.0422 58.376 53.1634 58.6153 53.2295C58.8547 53.2956 59.1057 53.3048 59.349 53.2565C59.5924 53.2082 59.8217 53.1036 60.0194 52.9507C61.1651 52.0046 62.5125 51.3468 63.953 51.0303C65.1973 50.7688 66.4925 50.9929 67.5831 51.6585C70.2517 53.6489 69.5324 57.385 69.0795 61.3015C69.0677 61.7937 69.2411 62.2718 69.5639 62.6375C69.8867 63.0032 70.3344 63.2287 70.8151 63.2677C71.2957 63.3066 71.7727 63.156 72.1479 62.8469C72.5232 62.5377 72.7682 62.0936 72.8325 61.6056C73.414 58.6486 73.8221 53.9844 72.29 51.3495Z" fill="#3E66F3"/>
<path fill-rule="evenodd" clip-rule="evenodd" d="M43.0113 47.2929C42.9774 45.9298 41.2489 46.9908 36.4677 46.4191C36.0489 46.4299 34.1537 46.051 34.0135 45.6802C33.0582 39.6578 32.8185 33.5396 33.2995 27.4585C33.2869 26.9507 33.7723 26.4567 33.6113 26.3004C35.1786 25.7911 36.7946 25.4534 38.4319 25.2931C38.2563 26.6617 38.3461 29.2269 37.8455 33.3318C37.6849 37.2593 37.879 41.1936 38.4252 45.0847C38.4511 46.1271 40.2048 46.0817 40.179 45.0393C40.33 42.6818 40.6388 40.347 40.7375 37.9909C40.8181 33.6522 40.5791 29.3134 40.0226 25.0113L41.7763 24.9659C42.0124 24.9598 42.2364 24.8582 42.399 24.6835C42.5617 24.5087 42.6497 24.2751 42.6437 24.0341C42.6378 23.7931 42.5383 23.5644 42.3671 23.3983C42.196 23.2322 41.9673 23.1423 41.7312 23.1484C38.5739 23.069 35.4204 23.4204 32.3542 24.1933C29.1678 25.613 29.8238 42.5524 31.8132 46.7267C33.1359 49.367 39.2685 48.4595 42.3257 48.1665C42.529 48.1408 42.7144 48.0351 42.8424 47.872C42.9705 47.7088 43.0311 47.501 43.0113 47.2929Z" fill="#3E66F3"/>
<path fill-rule="evenodd" clip-rule="evenodd" d="M61.903 33.8595C61.2976 36.3431 61.3622 38.9477 62.09 41.3968C62.096 41.6378 62.1955 41.8665 62.3666 42.0326C62.5378 42.1987 62.7665 42.2886 63.0025 42.2825C63.2386 42.2764 63.4626 42.1748 63.6252 42.0001C63.7879 41.8253 63.8759 41.5918 63.87 41.3508C64.7814 36.9142 64.7618 37.1822 63.3891 33.5804C63.3133 33.424 63.1897 33.2971 63.037 33.219C62.8843 33.1408 62.7108 33.1156 62.5428 33.1471C62.3748 33.1787 62.2215 33.2653 62.106 33.3939C61.9906 33.5224 61.9193 33.6859 61.903 33.8595Z" fill="#3E66F3"/>
</g>
<ellipse cx="35.1921" cy="26.2106" rx="35.1921" ry="26.2106" transform="matrix(0.950339 -0.311218 0.339199 0.940715 0 37.9467)" fill="#3E66F3" fill-opacity="0.15"/>
<ellipse cx="35.1921" cy="26.2106" rx="35.1921" ry="26.2106" transform="matrix(0.950339 -0.311218 0.339199 0.940715 0 37.9467)" fill="#3E66F3" fill-opacity="0.25"/>
<defs>
<clipPath id="clip0_3029_1586">
<rect width="62.8419" height="64.1668" fill="white" transform="matrix(0.999666 -0.0258601 0.0248025 0.999692 9.42616 1.62512)"/>
</clipPath>
</defs>
</svg>
