<svg width="85" height="88" viewBox="0 0 85 88" fill="none" xmlns="http://www.w3.org/2000/svg">
<ellipse cx="35.4106" cy="27.6619" rx="35.4106" ry="27.6619" transform="matrix(0.944474 -0.328585 0.321402 0.946943 0 34.8715)" fill="#3E66F3" fill-opacity="0.15"/>
<ellipse cx="35.4106" cy="27.6619" rx="35.4106" ry="27.6619" transform="matrix(0.944474 -0.328585 0.321402 0.946943 0 34.8715)" fill="#3E66F3" fill-opacity="0.25"/>
<path d="M54.0688 34.9276C54.2995 35.3721 54.477 35.8428 54.5977 36.33C54.6982 36.8223 54.7501 37.3235 54.7525 37.8261C54.7377 38.0608 54.636 38.2801 54.4692 38.4404C54.3004 38.6025 54.0781 38.6921 53.848 38.6926C53.3138 38.684 52.785 38.5814 52.2854 38.3892C51.9455 38.2514 51.5667 38.0715 51.1616 37.8755C51.1012 37.8462 51.0402 37.8167 50.9788 37.7868C50.6435 37.6242 50.2948 37.455 49.9536 37.3017C49.371 36.9316 48.6758 36.7833 47.9933 36.8855L47.9495 36.892L47.9075 36.9062C47.6279 37.0005 47.5049 37.2253 47.4592 37.3949C47.4243 37.5244 47.4238 37.6594 47.4241 37.7248C47.402 38.0328 47.4024 38.342 47.4255 38.6499L47.4277 38.6793L47.4333 38.7082C47.546 39.2862 47.7497 39.8423 48.0369 40.3552L48.0368 40.3553L48.0425 40.3649C48.7675 41.5944 49.8516 42.5672 51.1465 43.1485C52.1266 43.6432 53.1706 43.9738 54.1957 44.2983C54.2361 44.3111 54.2765 44.3239 54.3168 44.3367C55.3964 44.6788 56.4631 45.0244 57.5074 45.5589L57.5516 45.5815L57.5994 45.595C57.6357 45.6052 57.6699 45.6235 57.6993 45.6489C57.7287 45.6744 57.7527 45.7064 57.7692 45.7431C57.7858 45.7798 57.7943 45.8199 57.794 45.8607C57.7937 45.9015 57.7846 45.9415 57.7676 45.9779C57.7506 46.0143 57.7261 46.046 57.6964 46.071C57.6667 46.096 57.6323 46.1138 57.5959 46.1235C57.5595 46.1332 57.5215 46.1347 57.4846 46.128C57.4476 46.1213 57.4121 46.1064 57.3807 46.084L57.3338 46.0507L57.2805 46.0288C56.0706 45.5322 54.855 45.2405 53.7162 44.9673C53.5671 44.9315 53.4193 44.8961 53.273 44.8605C51.9932 44.5494 50.8241 44.2299 49.7678 43.6383L49.7649 43.6367C48.7082 43.054 47.8033 42.2243 47.1259 41.2159C46.4089 40.0766 46.0458 38.7453 46.0838 37.3941C46.1308 37.0302 46.2694 36.6851 46.4858 36.3918C46.7046 36.0952 46.9954 35.8621 47.3289 35.7147C47.8579 35.5065 48.4328 35.4494 48.9913 35.5494C49.9401 35.7756 50.8606 36.11 51.7351 36.5464L53.1469 37.2509L52.3985 35.8619C52.1828 35.4614 51.937 35.0678 51.7038 34.6943C51.6181 34.5571 51.5341 34.4226 51.454 34.2915L51.4477 34.2813L51.441 34.2714C50.34 32.6504 49.153 31.0909 47.8854 29.5999C47.3245 28.85 46.8508 28.0369 46.4737 27.1768C46.0424 26.1539 45.9812 25.0093 46.3012 23.945C46.5507 23.1579 47.0906 22.5007 47.806 22.1093L47.8151 22.1043L47.8241 22.099C48.2093 21.8669 48.6402 21.7244 49.0857 21.6814C49.5241 21.6391 49.9664 21.6942 50.3817 21.8429C51.8064 22.5166 53.039 23.547 53.9628 24.8377L53.9627 24.8377L53.9689 24.846C54.2798 25.262 54.5796 25.793 54.9124 26.384L54.9189 26.3956C55.2426 26.9707 55.5941 27.5951 55.9923 28.1494L55.9922 28.1495L55.9989 28.1584C56.1892 28.4112 56.4583 28.7536 56.8589 28.9564C57.2912 29.1752 57.8019 29.1991 58.4065 28.9805C58.857 28.8176 59.3302 28.6171 59.7853 28.4243C59.8525 28.3958 59.9194 28.3675 59.9857 28.3395C60.5097 28.1181 61.0018 27.916 61.4408 27.7792L61.4544 27.775L61.4678 27.7699C62.0004 27.57 62.5786 27.5323 63.1315 27.6612C64.3622 28.1004 65.4491 28.8776 66.2702 29.907C67.298 31.2303 68.2008 32.648 68.9669 34.1413L68.9453 34.1486L69.1326 34.6352C69.1667 34.7236 69.1685 34.8217 69.1378 34.9114C69.107 35.001 69.0463 35.0751 68.9681 35.1216C68.89 35.1681 68.7989 35.1845 68.7108 35.1687C68.6342 35.155 68.5629 35.1176 68.507 35.0608C67.6561 33.5178 66.6543 32.065 65.5166 30.7244L65.5167 30.7243L65.5089 30.7155C64.7614 29.8755 63.796 29.2633 62.7216 28.9488L62.72 28.9483C62.3674 28.8463 62.0218 28.9744 61.795 29.0724C61.6727 29.1252 61.5459 29.1881 61.4274 29.2468L61.4158 29.2525C61.2898 29.315 61.1682 29.375 61.0429 29.4302L61.0318 29.4351L61.0211 29.4404C60.0139 29.943 58.9794 30.3874 57.9226 30.7713L57.9201 30.7722C57.6006 30.8902 57.2595 30.9353 56.9211 30.9044C56.5883 30.8741 56.2656 30.771 55.9755 30.6021C55.4599 30.2438 55.0044 29.8037 54.6266 29.2984L54.6266 29.2984L54.6246 29.2958C54.2514 28.8035 53.9034 28.2451 53.5526 27.6822L53.5404 27.6627C53.1931 27.1054 52.8383 26.5369 52.4718 26.0757C51.9068 25.3392 51.2526 24.6772 50.5247 24.1052L50.5247 24.1052L50.5218 24.103C50.3109 23.9397 50.0404 23.75 49.7381 23.6493C49.4143 23.5416 49.0327 23.5306 48.6636 23.759L48.6632 23.7592C48.4759 23.8754 48.3186 24.0339 48.2035 24.2217C48.0898 24.4071 48.0202 24.6161 47.9997 24.8325C47.9379 25.3559 48.0177 25.8866 48.2307 26.3682L48.2307 26.3683L48.232 26.3711C48.5561 27.0913 48.9597 27.7723 49.435 28.4009L49.4445 28.4136L49.4549 28.4256C50.7607 29.9425 51.9795 31.534 53.1055 33.1922C53.2409 33.4444 53.3848 33.6963 53.5259 33.9435C53.547 33.9804 53.568 34.0171 53.5889 34.0538C53.7558 34.3465 53.9181 34.6343 54.0678 34.9257L54.0688 34.9276Z" fill="#3E66F3" stroke="#0B41FF"/>
<path d="M26.7806 19.4046L26.7123 19.4453L26.66 19.5052L24.8502 21.5786L22.8496 23.7487L22.5081 24.1191L22.8811 24.4578C23.0083 24.5733 23.1431 24.6799 23.2846 24.7769C23.7044 25.2768 24.1872 25.7192 24.721 26.0925L24.7229 26.0937C25.1203 26.369 25.5313 26.6308 25.9328 26.8865C25.9995 26.929 26.066 26.9713 26.132 27.0135C26.5947 27.3088 27.0426 27.5997 27.465 27.911C27.5306 27.9694 27.5757 28.0497 27.5914 28.1394C27.6077 28.2332 27.5904 28.3296 27.5432 28.4109C27.4962 28.492 27.423 28.5521 27.338 28.582C27.2553 28.611 27.1656 28.6101 27.0835 28.5795C26.5655 28.3537 26.0466 28.1572 25.5444 27.9671C25.446 27.9298 25.3482 27.8928 25.2512 27.8558C24.6503 27.627 24.0727 27.3985 23.511 27.1199L23.5084 27.1186C22.9612 26.8511 22.4436 26.5252 21.9645 26.1464C21.4187 25.6541 20.9682 25.0627 20.6362 24.4025C20.5495 24.2132 20.5045 24.0068 20.5045 23.7976C20.5045 23.5939 20.5472 23.3929 20.6294 23.2077C20.883 22.7837 21.2063 22.4072 21.5852 22.0943C21.9788 21.8225 22.4139 21.5704 22.8347 21.3274C22.8454 21.3212 22.856 21.3151 22.8667 21.3089C23.2647 21.0791 23.6644 20.8483 23.9593 20.6293L26.4715 18.9497C26.5339 18.9122 26.6073 18.9005 26.6771 18.9162C26.7488 18.9324 26.8132 18.9766 26.8553 19.0418L26.8552 19.0418L26.8587 19.0471C26.8775 19.0754 26.8906 19.1076 26.8969 19.1418C26.9031 19.176 26.9025 19.2111 26.8949 19.245C26.8873 19.2789 26.873 19.3104 26.8532 19.3379C26.8334 19.3653 26.8086 19.3879 26.7806 19.4046Z" fill="#3E66F3" stroke="#0B41FF"/>
<path d="M34.0229 16.0971L34.039 16.0656L34.0504 16.0321C34.0635 15.9939 34.084 15.9591 34.1102 15.9297C34.1364 15.9003 34.1679 15.8769 34.2025 15.8606C34.2371 15.8443 34.2743 15.8353 34.312 15.834C34.3468 15.8328 34.3816 15.8382 34.4147 15.8499C34.4823 15.8812 34.538 15.937 34.57 16.0086C34.6033 16.0832 34.6078 16.1682 34.5822 16.2463L34.5765 16.2639L34.572 16.282C34.4232 16.8845 34.2876 17.4767 34.1534 18.0625C33.8487 19.3923 33.5516 20.6893 33.1258 21.9993L33.1253 22.0006C32.775 23.0883 32.3297 24.1571 31.8762 25.2204L31.8761 25.2204L31.8743 25.2249C31.5336 26.0454 31.1691 26.8376 30.8028 27.6336L30.7987 27.6425C30.4339 28.4352 30.0673 29.2321 29.7299 30.0488C29.6893 30.133 29.6213 30.1986 29.5392 30.2353C29.4551 30.2729 29.3607 30.2782 29.2733 30.2504C29.1857 30.2225 29.1096 30.1629 29.0604 30.0808C29.0118 29.9998 28.9931 29.9032 29.0085 29.8087C29.018 29.7605 29.0276 29.7122 29.0371 29.6639C29.3617 28.0201 29.686 26.3777 30.1422 24.7602C30.1644 24.6877 30.1865 24.6153 30.2086 24.543C30.4021 23.9097 30.5932 23.2842 30.8209 22.6973L30.8246 22.6877L30.8279 22.6781C31.0611 21.9956 31.3329 21.3274 31.6419 20.6765L31.642 20.6766L31.6452 20.6695C32.0839 19.7072 32.5748 18.8028 33.0766 17.8783C33.3912 17.2989 33.71 16.7116 34.0229 16.0971Z" fill="#3E66F3" stroke="#0B41FF"/>
<path d="M39.9525 23.4233C39.9547 23.4237 39.9563 23.424 39.9576 23.4242C39.9671 23.4262 39.964 23.4264 39.9525 23.4233ZM38.421 25.9615L38.4342 25.9481L38.4464 25.9338L39.6146 24.5579C39.9486 24.1715 40.1809 23.8928 40.3339 23.6914C40.4102 23.5909 40.4742 23.5001 40.5228 23.4184C40.5655 23.3466 40.6235 23.2382 40.6443 23.1114C40.6559 23.0412 40.6593 22.9469 40.6276 22.8436C40.5942 22.7348 40.5314 22.6474 40.4573 22.5838C40.337 22.4806 40.1991 22.4528 40.1604 22.445C40.1592 22.4448 40.1581 22.4446 40.1571 22.4444C40.1369 22.4402 40.1165 22.4367 40.101 22.4342C39.5852 21.8821 39.0367 21.3622 38.4587 20.8772C37.8367 20.353 37.1808 19.8716 36.4952 19.4361L36.4709 19.4206L36.445 19.4081C36.3783 19.3758 36.3249 19.3177 36.2979 19.2442C36.2718 19.1732 36.273 19.0948 36.301 19.0249C36.3347 18.9583 36.391 18.9083 36.4575 18.8833C36.5261 18.8575 36.6018 18.8596 36.6692 18.8894L36.6894 18.8984L36.7104 18.9055C37.5055 19.1764 38.285 19.492 39.0453 19.8511L39.0453 19.8511L39.0479 19.8523C39.8489 20.2249 40.6284 20.6432 41.3828 21.1051C41.8071 21.3705 42.2027 21.6804 42.5631 22.0298L42.563 22.0299L42.5706 22.0369C42.6824 22.1409 42.7712 22.2684 42.8303 22.4111C42.8851 22.5431 42.9133 22.685 42.9132 22.8282C42.81 23.3614 42.5837 23.8619 42.2531 24.2891L42.2482 24.2954L42.2436 24.3018C41.8471 24.8493 41.3954 25.3533 40.8959 25.8057L39.3489 26.9923L36.6673 28.7942C36.628 28.8196 36.5845 28.8369 36.5392 28.8451C36.4932 28.8536 36.4461 28.8527 36.4004 28.8425C36.3547 28.8323 36.3111 28.813 36.2722 28.7854C36.2333 28.7577 36.1998 28.7223 36.1739 28.6808L36.174 28.6807L36.1681 28.6716C36.1114 28.5849 36.0902 28.478 36.1102 28.3746C36.1302 28.2712 36.1893 28.1817 36.2725 28.1242L36.3111 28.0976L36.3441 28.0642L38.421 25.9615Z" fill="#3E66F3" stroke="#0B41FF"/>
<path d="M43.4966 5.29243C43.4251 5.35544 43.3756 5.3872 43.3458 5.40322C43.32 5.37178 43.2866 5.32184 43.2485 5.2479C43.1522 5.06092 43.0656 4.79914 42.993 4.51244C42.9218 4.23111 42.87 3.94997 42.836 3.73714C42.8191 3.63131 42.8068 3.54371 42.7987 3.48311C42.7947 3.45284 42.7918 3.42939 42.7899 3.41386L42.7882 3.39984L42.7871 3.39003C42.7676 3.22267 42.7672 3.05359 42.7861 2.88617C42.8089 2.74152 42.8554 2.6019 42.9235 2.47306L42.9424 2.43728L42.9553 2.39892C43.3199 1.31524 43.6165 0.807851 43.8075 0.592258C43.8332 0.563327 43.8546 0.542311 43.8716 0.527206C43.9147 0.54417 43.9514 0.554959 43.9732 0.561368C43.9745 0.561744 43.9757 0.562104 43.9769 0.562449C43.9885 0.565863 43.9986 0.5688 44.0075 0.571409C44.0413 0.58125 44.0589 0.586402 44.0807 0.594722C44.1133 0.607216 44.1539 0.626091 44.209 0.693892C44.3463 0.862781 44.5755 1.33853 44.7052 2.65114L44.7051 2.65114L44.7055 2.65478C44.7257 2.84461 44.7257 3.03608 44.7055 3.22591L44.7036 3.24417L44.703 3.26251C44.6983 3.40619 44.6609 3.54656 44.594 3.67261L44.5356 3.78257V3.79995C44.5087 3.85366 44.4692 3.92887 44.4194 4.01868C44.3133 4.20984 44.1656 4.45739 43.9989 4.69659C43.8289 4.94036 43.6541 5.15361 43.4966 5.29243Z" fill="#3E66F3" stroke="#0B41FF"/>
<path d="M53.5035 8.99606L53.4962 9.00075L53.489 9.0057C52.3032 9.82207 51.6925 10.0689 51.3942 10.1214C51.2966 10.1386 51.2521 10.1313 51.2399 10.1281C51.2356 10.1243 51.223 10.1125 51.1921 10.0812C51.1415 10.03 51.1395 10.0254 51.1349 10.015L51.1348 10.0147L51.1348 10.0147C51.132 10.0083 51.109 9.95582 51.1288 9.81176C51.1721 9.49619 51.402 8.8655 52.1987 7.6775C52.3572 7.46784 52.5267 7.26708 52.7067 7.07613C52.9128 6.90558 53.1278 6.74648 53.3508 6.5995C54.4829 5.88796 55.1239 5.59691 55.4915 5.52057C55.6636 5.48482 55.7242 5.50782 55.7329 5.5115C55.7331 5.51154 55.7332 5.5116 55.7333 5.51165C55.7383 5.51368 55.7614 5.52318 55.8047 5.59395C55.8956 5.74263 55.9126 5.77611 55.9201 5.80656C55.9201 5.80661 55.9201 5.80671 55.9202 5.80685C55.9214 5.81072 55.9327 5.84758 55.8877 5.96908C55.7762 6.27029 55.4296 6.81275 54.5471 7.9511L54.5381 7.96273L54.5297 7.97487C54.3929 8.17459 54.2375 8.36047 54.0658 8.52999L54.0601 8.53565L54.0545 8.54149C53.8896 8.71515 53.7045 8.86777 53.5035 8.99606ZM51.2363 10.127C51.2363 10.1269 51.2371 10.1271 51.2385 10.1278C51.237 10.1273 51.2362 10.127 51.2363 10.127Z" fill="#3E66F3" stroke="#0B41FF"/>
<path d="M59.0448 15.6756L59.0367 15.6776L59.0287 15.6799C58.6055 15.8022 58.1721 15.8847 57.734 15.9263C57.5854 15.9273 56.8401 15.9296 56.0913 15.8391C55.6795 15.7894 55.299 15.7151 55.0252 15.6117C54.8881 15.56 54.8039 15.5104 54.759 15.473C54.7505 15.4659 54.7446 15.4603 54.7406 15.4562C54.7309 15.3903 54.7319 15.3867 54.7329 15.383C54.733 15.3827 54.7331 15.3824 54.7332 15.382L54.7332 15.3819C54.7335 15.3807 54.736 15.3693 54.7499 15.3461C54.7648 15.3211 54.794 15.2807 54.85 15.225C55.0913 14.9853 55.6902 14.5953 57.1136 14.0223C57.3932 13.938 57.6782 13.8733 57.9666 13.8286C58.2609 13.798 58.5575 13.7983 58.8517 13.8298L58.8653 13.8312L58.879 13.832C60.2579 13.9035 60.9789 14.0932 61.3417 14.2851C61.5142 14.3764 61.5828 14.4564 61.6116 14.503C61.6388 14.5469 61.6514 14.5944 61.6514 14.6619C61.6514 14.7657 61.6444 14.7956 61.6425 14.8015C61.6361 14.8105 61.6033 14.8484 61.4917 14.9101C61.1713 15.0872 60.4933 15.3089 59.0448 15.6756ZM54.7335 15.4479C54.7335 15.4479 54.7338 15.4483 54.7342 15.449L54.7335 15.4479ZM61.6438 14.7994C61.6439 14.7994 61.6435 14.8001 61.6426 14.8014C61.6433 14.8 61.6437 14.7994 61.6438 14.7994Z" fill="#3E66F3" stroke="#0B41FF"/>
<path d="M23.7341 44.6225L23.7538 44.6219L23.7734 44.6197L26.3993 44.3297L26.3993 44.3298L26.4079 44.3287C27.3746 44.2049 28.3356 44.0553 29.2861 43.9073C29.3647 43.895 29.4431 43.8828 29.5215 43.8706C30.5485 43.7109 31.5638 43.5556 32.5772 43.4361L38.0506 42.9783C39.8702 42.8893 41.6919 43.0991 43.4452 43.5998C43.7927 43.776 44.1063 44.0147 44.3705 44.3045C44.7636 44.7864 44.9794 45.3929 44.9794 46.0199C44.9794 46.6509 44.7609 47.2611 44.3631 47.7444L44.342 47.7701L44.3244 47.7984C44.1691 48.0485 43.9938 48.2851 43.8003 48.5059L43.7948 48.5122L43.7895 48.5187C43.6276 48.7163 43.4452 48.8954 43.2454 49.0531L41.3463 50.2255C39.7857 50.8658 38.1361 51.2559 36.4569 51.3818C33.9686 51.523 31.4725 51.3637 29.0213 50.9072L28.3601 50.7637L27.5069 50.5786L27.779 51.4082C28.0352 52.1892 28.4802 52.8938 29.0742 53.4576C29.6622 54.0157 30.3778 54.4184 31.1575 54.6294C31.9591 54.9263 32.7946 55.1199 33.6442 55.2056C34.4656 55.2964 35.2943 55.2971 36.1158 55.2079C37.1371 55.1869 38.1317 54.8756 38.9859 54.3099C39.8467 53.7399 40.5295 52.9351 40.9559 51.9896L40.989 51.9162L40.9974 51.836C41.0033 51.7789 41.0214 51.7241 41.0499 51.6752C41.0784 51.6264 41.1167 51.5848 41.1617 51.553C41.2068 51.5213 41.2576 51.4999 41.3108 51.4901C41.364 51.4803 41.4187 51.4822 41.4712 51.4957C41.5237 51.5091 41.5731 51.534 41.6161 51.5689C41.659 51.6038 41.6945 51.6481 41.7198 51.6989C41.745 51.7498 41.7593 51.8058 41.7614 51.8632C41.7635 51.9206 41.7534 51.9777 41.7319 52.0305L41.7172 52.0665L41.7083 52.1044C41.4153 53.3481 40.7636 54.4745 39.8372 55.3406C38.9108 56.2067 37.7515 56.7734 36.5073 56.9697L36.487 56.9729L36.467 56.9777C35.4431 57.2269 34.3858 57.3044 33.3372 57.2074C32.2706 57.1072 31.2291 56.8203 30.259 56.3594L30.2514 56.3558L30.2436 56.3524C29.2089 55.903 28.333 55.1444 27.7337 54.1767C27.1343 53.209 26.8403 52.0786 26.8916 50.9364L26.9105 50.5154L26.4988 50.4255C25.7018 50.2516 24.9562 49.8894 24.3228 49.3679L24.3229 49.3678L24.3118 49.3591C24.0606 49.1639 23.9159 49.032 23.8155 48.8943C23.7228 48.7672 23.6504 48.6105 23.5971 48.3446C23.4812 47.7663 23.4785 46.8244 23.4785 44.9203V44.9125L23.4783 44.9046C23.4771 44.8679 23.4832 44.8314 23.4959 44.7972C23.5086 44.7631 23.5277 44.7323 23.5518 44.7063C23.5759 44.6804 23.6044 44.6598 23.6357 44.6456C23.6669 44.6313 23.7003 44.6236 23.7341 44.6225ZM24.6829 46.3098L24.627 46.4179V46.4994C24.4781 46.9199 24.4117 47.3131 24.4544 47.6713C24.5021 48.0707 24.6833 48.4005 24.9764 48.6416L25.015 48.6734L25.0591 48.6968C26.2949 49.3548 27.6763 49.683 29.0725 49.6503C31.0987 49.8391 33.1373 49.8466 35.1647 49.6727C37.0872 49.5621 38.9735 49.0969 40.7305 48.3L40.7579 48.2876L40.7836 48.272L42.0965 47.4744L42.1674 47.4314L42.2205 47.3677L42.7457 46.7394L42.7619 46.7199L42.7761 46.699C42.9128 46.497 43.0214 46.2772 43.0988 46.0456L43.2031 45.734L42.9584 45.5147C42.6914 45.2754 42.3669 45.1103 42.0166 45.0363C40.7658 44.7448 39.4829 44.619 38.2 44.662H32.8135H32.8009L32.7882 44.6626L25.6268 45.0251L25.34 45.0397L25.208 45.2947L24.6829 46.3098Z" fill="#3E66F3" stroke="#0B41FF"/>
<path d="M43.684 41.1593L43.6806 41.1784L43.6787 41.1977L43.6221 41.7703C43.5949 41.7804 43.5501 41.7918 43.4787 41.7984C43.2895 41.8159 43.0256 41.7824 42.7441 41.6962C42.4648 41.6107 42.2102 41.4862 42.0369 41.357C41.9763 41.3117 41.936 41.2742 41.9094 41.2454C41.9291 41.207 41.9478 41.168 41.9655 41.1286C42.6677 40.1118 43.1281 39.5303 43.4472 39.2309C43.5739 39.112 43.6543 39.0611 43.6959 39.0405C43.7354 39.0637 43.7627 39.0792 43.7824 39.0904C43.8208 39.1123 43.8306 39.1179 43.846 39.1321C43.8463 39.1324 43.8464 39.1324 43.8465 39.1325C43.8466 39.1326 43.8467 39.1328 43.8475 39.1344C43.8499 39.1388 43.8593 39.1578 43.8686 39.2031C43.9148 39.4265 43.9014 39.9364 43.684 41.1593ZM43.6568 41.7527C43.6587 41.7503 43.66 41.7494 43.6601 41.7495C43.6603 41.7496 43.6593 41.7508 43.6568 41.7527Z" fill="#3E66F3" stroke="#0B41FF"/>
<path d="M49.047 15.6834L49.0505 15.6945L49.0545 15.7054C49.0722 15.7531 49.0801 15.8041 49.0776 15.8553C49.0752 15.9065 49.0625 15.9564 49.0404 16.002C49.0184 16.0476 48.9876 16.0877 48.9503 16.12C48.9131 16.1524 48.87 16.1764 48.8239 16.191L48.8227 16.1914C48.7293 16.2211 48.6282 16.2131 48.5402 16.1685C48.4519 16.1238 48.3825 16.0452 48.3485 15.9476L48.345 15.9374L48.341 15.9274C47.7343 14.3993 46.7824 13.0356 45.5611 11.9459C44.3224 10.8202 42.9344 9.87509 41.4371 9.13795L41.4295 9.13421L41.4217 9.13073C39.0384 8.05612 36.4669 7.47397 33.858 7.41858C31.253 7.36328 28.6634 7.83432 26.2407 8.80396C23.796 9.65692 21.5646 11.0384 19.7012 12.852C17.8351 14.6684 16.383 16.8744 15.4458 19.3163L15.4431 19.3233L15.4406 19.3304C14.647 21.5993 14.5429 24.0567 15.1416 26.386C15.75 28.7922 16.835 31.0486 18.3313 33.0179L18.3312 33.018L18.3379 33.0264C18.8388 33.6572 19.3922 34.2726 19.9409 34.8764C19.9967 34.9378 20.0525 34.9991 20.1081 35.0603C20.6031 35.6045 21.0903 36.1401 21.544 36.6848L21.544 36.6849C22.0178 37.2536 22.4506 37.8561 22.8391 38.4877L22.8433 38.4945L22.8476 38.5012C23.4848 39.4668 24.0209 40.4972 24.4471 41.5756L24.45 41.5829L24.4531 41.5901C24.5119 41.7263 24.5796 41.8345 24.6349 41.9188C24.6501 41.942 24.6635 41.9623 24.6756 41.9805C24.7117 42.035 24.736 42.0715 24.7602 42.1157C24.804 42.1954 24.8496 42.303 24.8425 42.5469C24.837 42.5555 24.8224 42.5736 24.7874 42.5992C24.7134 42.6533 24.5936 42.7027 24.4562 42.7207C24.3176 42.7389 24.2076 42.7193 24.1437 42.6889C24.0961 42.6662 24.0751 42.6418 24.0637 42.5897L24.0531 42.5413L24.0331 42.4959C24.0038 42.4291 23.9719 42.3648 23.9454 42.3115L23.9414 42.3034C23.915 42.2504 23.8941 42.2083 23.8758 42.1679C23.8416 42.0921 23.8371 42.0638 23.8366 42.0639L23.8366 41.9645L23.7951 41.8691C23.3549 40.8567 22.7995 39.8995 22.1401 39.0171C21.7361 38.4591 21.2907 37.933 20.8078 37.4433C20.3816 36.9933 19.9219 36.545 19.4646 36.0991C19.3248 35.9628 19.1853 35.8267 19.047 35.6909C18.4493 35.1039 17.8669 34.5136 17.3461 33.8926C15.6115 31.8223 14.3118 29.4154 13.5267 26.8187L13.526 26.8165C12.7103 24.1625 12.7088 21.3205 13.5216 18.6658C14.5423 15.9458 16.145 13.4888 18.2143 11.4711C20.2872 9.44987 22.7766 7.91972 25.5031 6.99045L25.5111 6.98772L25.519 6.98472C28.1745 5.97815 31.0072 5.54026 33.8381 5.69859C36.668 5.85686 39.4351 6.60754 41.9644 7.90345C43.5349 8.73055 44.974 9.79177 46.2337 11.0518C47.525 12.3438 48.4902 13.9325 49.047 15.6834ZM24.8453 42.5412C24.8454 42.5412 24.8451 42.5422 24.8441 42.544C24.8447 42.5421 24.8452 42.5411 24.8453 42.5412Z" fill="#3E66F3" stroke="#0B41FF"/>
</svg>
