<svg width="85" height="86" viewBox="0 0 85 86" fill="none" xmlns="http://www.w3.org/2000/svg">
<g clip-path="url(#clip0_3029_1595)">
<path fill-rule="evenodd" clip-rule="evenodd" d="M44.65 33.775C43.725 26.925 45.425 26.475 27.15 26.55C26.9246 26.55 26.7084 26.6395 26.549 26.7989C26.3895 26.9583 26.3 27.1745 26.3 27.4C26.3 27.6254 26.3895 27.8416 26.549 28.001C26.7084 28.1604 26.9246 28.25 27.15 28.25C36.05 28.5 39.95 28.25 41.975 29.625C42.525 30.025 43.425 40.5 42.25 48.1C42.216 48.396 42.1575 48.6887 42.075 48.975C42.5 49.775 17.425 52.175 12.475 50.125H12.2C11.8135 49.02 11.5781 47.8679 11.5 46.7C17.0874 47.0071 22.6875 47.0071 28.275 46.7C40.6 46.15 40.4 46.7 40.375 45.775C40.8 44.475 39.375 44.6 37.875 44.525C31.2711 43.7768 24.6039 43.7768 18 44.525C15.843 44.7951 13.6734 44.9537 11.5 45C11.325 45 11.5 45.225 11.3 44.25C10.475 35.925 12.3 28.375 11.825 27.85C11.6848 27.7125 11.4963 27.6356 11.3 27.6356C11.1037 27.6356 10.9152 27.7125 10.775 27.85C10.025 28.525 10.175 30.35 10.05 31.025C9.16845 35.8889 8.89135 40.8431 9.225 45.775C9.29044 47.6531 9.61862 49.5129 10.2 51.3C11.475 53.4 18.125 53.6 20.625 53.675C19.625 57.4 18.95 58.675 20.625 59.325C24.0084 60.1714 27.5569 60.0936 30.9 59.1C31.0479 59.0128 31.177 58.8973 31.28 58.76C31.383 58.6227 31.4577 58.4663 31.5 58.3C31.5185 56.655 31.2737 55.0176 30.775 53.45C33.1 53.275 42.925 52.625 44.2 50.675C44.833 49.1629 45.156 47.5392 45.15 45.9C45.4805 41.8531 45.3126 37.7809 44.65 33.775ZM29.175 57.025H21.925C21.925 56.05 22.125 54.7 22.2 53.7C24.4 53.7 26.7 53.7 28.9 53.525C29.1507 54.6737 29.2433 55.8512 29.175 57.025Z" fill="#3E66F3"/>
<path fill-rule="evenodd" clip-rule="evenodd" d="M68.525 6.64998C68.325 4.99998 68.4 2.49998 67.175 1.49998C64.675 -0.300024 60.025 0.199976 56.675 0.0999756C52.675 0.0999756 48.425 0.324976 44.425 0.474976C44.1996 0.474976 43.9834 0.564529 43.824 0.723935C43.6645 0.883341 43.575 1.09954 43.575 1.32498C43.575 1.55041 43.6645 1.76661 43.824 1.92602C43.9834 2.08542 44.1996 2.17498 44.425 2.17498C48.425 2.17498 52.475 1.92498 56.525 2.17498C58.2 2.17498 60.475 2.17498 62.475 2.47498C67.475 3.02498 65.675 4.47498 65.875 6.89998C66.3688 11.0105 66.2593 15.1711 65.55 19.25C65.175 19.25 64.425 19.75 63.6 19.9C59.6704 20.5215 55.7027 20.8723 51.725 20.95C41.725 21.225 42.725 20.3 42.4 17.6C49.1933 18.0266 56.0067 18.0266 62.8 17.6C63.85 17.6 64.8 17.875 64.75 16.95C64.925 16.5 64.925 15.975 64.25 15.875C57.3274 14.767 50.2726 14.767 43.35 15.875H42.225C42.0169 13.9658 41.9584 12.0433 42.05 10.125C42.75 1.17498 43 1.84998 42.625 1.44998C42.25 1.04998 41.5 1.12498 41.15 2.24998C41.15 2.64998 41.15 1.57498 40.275 10.075C39.9239 13.879 40.1515 17.7142 40.95 21.45C41.95 23.3 46.925 23.525 49.05 23.625C48.175 26.7 48.05 26.925 48.25 27.65C48.8 29.425 56.25 29.325 57.45 28.3C57.6526 28.1256 57.8105 27.9052 57.9105 27.6573C58.0106 27.4094 58.0498 27.1411 58.025 26.875C57.9212 25.735 57.7205 24.6059 57.425 23.5C69.65 22.675 68.25 21.375 68.775 17C69.1158 13.5528 69.0318 10.0767 68.525 6.64998ZM55.65 26.325C55.1202 26.238 54.5861 26.1796 54.05 26.15H50.55C50.55 25.4 50.55 24.425 50.675 23.65H55.675C55.7522 24.5404 55.7438 25.4362 55.65 26.325Z" fill="#3E66F3"/>
<path fill-rule="evenodd" clip-rule="evenodd" d="M18.175 27.1249C19.6 19.2749 25 15.2499 27.8 14.6249C29.4569 14.3701 31.1431 14.3701 32.8 14.6249C30.3 18.5249 29.775 18.1499 30.3 18.9499C30.425 19.1749 30.725 19.3499 31.225 19.1999C32.715 18.1366 34.1193 16.9579 35.425 15.6749C36.2 14.6999 37.225 13.7249 36.275 12.5749C34.9682 11.1288 33.3295 10.0221 31.5 9.34992C30.425 8.84992 29.45 7.39992 28.6 8.44992C27.75 9.49992 29.75 10.4499 32.45 12.9249C30.8049 12.5896 29.1288 12.4303 27.45 12.4499C25.3422 12.7862 23.3556 13.6566 21.6795 14.9782C20.0034 16.2998 18.6936 18.0286 17.875 19.9999C16.9984 22.1999 16.5897 24.5583 16.675 26.9249C16.6485 27.1238 16.7021 27.3251 16.824 27.4845C16.9459 27.6439 17.1261 27.7484 17.325 27.7749C17.5239 27.8014 17.7252 27.7479 17.8846 27.626C18.044 27.5041 18.1485 27.3238 18.175 27.1249Z" fill="#3E66F3"/>
</g>
<ellipse cx="35.1921" cy="26.2106" rx="35.1921" ry="26.2106" transform="matrix(0.950339 -0.311218 0.339199 0.940715 0 36.9467)" fill="#3E66F3" fill-opacity="0.15"/>
<ellipse cx="35.1921" cy="26.2106" rx="35.1921" ry="26.2106" transform="matrix(0.950339 -0.311218 0.339199 0.940715 0 36.9467)" fill="#3E66F3" fill-opacity="0.25"/>
<defs>
<clipPath id="clip0_3029_1595">
<rect width="60" height="60" fill="white" transform="translate(9)"/>
</clipPath>
</defs>
</svg>
