<svg width="35" height="35" viewBox="0 0 35 35" fill="none" xmlns="http://www.w3.org/2000/svg">
<path d="M16.3841 3.46201C15.8481 3.68402 15.3676 4.16453 14.4066 5.12546C13.4459 6.08618 12.9652 6.56688 12.7432 7.10281C12.4472 7.81748 12.4472 8.62055 12.7432 9.33522C12.9652 9.87122 13.4457 10.3517 14.4067 11.3127C15.3671 12.2731 15.8482 12.7542 16.384 12.9761C17.0987 13.2721 17.9018 13.2721 18.6164 12.9761C19.1524 12.7541 19.6329 12.2736 20.5939 11.3127C21.5548 10.3517 22.0339 9.87122 22.2559 9.33522C22.5519 8.62055 22.5519 7.81748 22.2559 7.10281C22.0339 6.56681 21.5548 6.08642 20.5939 5.12546C19.6329 4.16451 19.1524 3.68403 18.6164 3.46201C17.9018 3.16598 17.0987 3.16598 16.3841 3.46201Z" stroke="white" stroke-width="2" stroke-linecap="round" stroke-linejoin="round"/>
<path d="M7.10285 12.7425C6.56685 12.9645 6.08637 13.445 5.12542 14.406C4.16474 15.3666 3.68399 15.8474 3.46201 16.3833C3.16598 17.098 3.16598 17.9011 3.46201 18.6157C3.68403 19.1517 4.16451 19.6322 5.12546 20.5931C6.08587 21.5536 6.56697 22.0347 7.10281 22.2566C7.81748 22.5526 8.62055 22.5526 9.33522 22.2566C9.87122 22.0346 10.3517 21.5541 11.3126 20.5932C12.2736 19.6322 12.7527 19.1517 12.9747 18.6157C13.2707 17.9011 13.2707 17.098 12.9747 16.3833C12.7527 15.8473 12.2736 15.3669 11.3126 14.406C10.3517 13.445 9.87122 12.9645 9.33522 12.7425C8.62055 12.4465 7.81752 12.4465 7.10285 12.7425Z" stroke="white" stroke-width="2" stroke-linecap="round" stroke-linejoin="round"/>
<path d="M23.6878 14.406C22.7271 15.3667 22.2464 15.8474 22.0244 16.3833C21.7284 17.098 21.7284 17.9011 22.0244 18.6157C22.2464 19.1517 22.7269 19.6322 23.6879 20.5931C24.6483 21.5535 25.1294 22.0347 25.6652 22.2566C26.3799 22.5526 27.183 22.5526 27.8976 22.2566C28.4336 22.0346 28.9141 21.5541 29.8751 20.5932C30.836 19.6322 31.3151 19.1517 31.5371 18.6157C31.8331 17.9011 31.8331 17.098 31.5371 16.3833C31.3151 15.8473 30.836 15.3669 29.8751 14.406C28.9141 13.445 28.4336 12.9645 27.8976 12.7425C27.183 12.4465 26.3799 12.4465 25.6653 12.7425C25.1293 12.9645 24.6488 13.445 23.6878 14.406Z" stroke="white" stroke-width="2" stroke-linecap="round" stroke-linejoin="round"/>
<path d="M16.3841 22.0237C15.8481 22.2457 15.3676 22.7262 14.4066 23.6872C13.4459 24.6479 12.9652 25.1286 12.7432 25.6645C12.4472 26.3792 12.4472 27.1823 12.7432 27.8969C12.9652 28.4329 13.4457 28.9134 14.4067 29.8744C15.3671 30.8348 15.8482 31.3159 16.384 31.5378C17.0987 31.8338 17.9018 31.8338 18.6164 31.5378C19.1524 31.3158 19.6329 30.8353 20.5939 29.8744C21.5548 28.9134 22.0339 28.4329 22.2559 27.8969C22.5519 27.1823 22.5519 26.3792 22.2559 25.6645C22.0339 25.1285 21.5548 24.6481 20.5939 23.6872C19.6329 22.7262 19.1524 22.2457 18.6164 22.0237C17.9018 21.7277 17.0987 21.7277 16.3841 22.0237Z" stroke="white" stroke-width="2" stroke-linecap="round" stroke-linejoin="round"/>
</svg>
