<svg width="85" height="88" viewBox="0 0 85 88" fill="none" xmlns="http://www.w3.org/2000/svg">
<path fill-rule="evenodd" clip-rule="evenodd" d="M58.764 27.0458L57.6672 26.0341C57.4735 25.8648 57.2266 25.7563 56.9619 25.7242C56.6973 25.6921 56.4283 25.738 56.1937 25.8553C55.5327 26.225 54.9132 26.7454 54.1678 27.0995C53.9986 27.1683 53.812 27.1927 53.6287 27.1698C53.4454 27.1469 53.2725 27.0778 53.1292 26.9699C52.9832 26.8662 52.8694 26.7288 52.7993 26.5716C52.7291 26.4144 52.7051 26.243 52.7296 26.0746C52.7989 25.4675 52.98 24.8758 53.2651 24.3249C53.3691 24.0951 53.7042 23.516 53.855 23.1019C54.002 22.7478 54.0104 22.3576 53.8787 21.9984C53.7894 21.7415 53.6401 21.5057 53.4414 21.3077C53.3234 21.0431 52.7846 20.8192 52.6678 20.6731L50.2665 18.7048C49.8737 18.3941 49.4606 18.1058 49.0295 17.8415C48.6934 17.6562 48.2966 17.5873 47.9104 17.6473C47.6012 17.6975 47.3075 17.8089 47.0495 17.9738C46.7846 18.0742 46.5235 18.5302 46.3962 18.6498L44.7428 20.3238C44.4534 20.1956 44.182 20.1082 44.1197 20.0842C43.4218 19.7916 42.6553 19.665 41.8906 19.7161C41.1491 19.771 40.4289 19.9712 39.778 20.3032C38.6588 20.8654 37.8201 21.8062 37.4388 22.9273C37.2431 23.4728 37.1708 24.0495 37.2265 24.6219C37.2821 25.1942 37.4645 25.7499 37.7623 26.2546C37.9422 26.5274 38.1513 26.7829 38.3865 27.0172C38.495 27.1308 38.6117 27.2376 38.7357 27.3369L38.0421 27.9806L36.981 29.073C36.2418 30.4241 37.1634 31.2167 38.1997 30.3002L39.3634 29.264C39.7063 28.9912 40.1997 28.7089 40.5997 28.3906C40.8327 28.2012 41.0403 27.9867 41.2179 27.7517C41.3369 27.53 41.3731 27.2782 41.3208 27.0355C41.2685 26.7929 41.1308 26.5729 40.9289 26.4099C40.8744 26.2878 40.4953 26.0747 40.4862 26.0543L39.8218 25.2594C39.5895 24.7496 39.5739 24.1779 39.7782 23.658C40.0512 23.1837 40.5029 22.8177 41.0483 22.6291C41.3629 22.5004 41.7039 22.436 42.0481 22.4403C42.3484 22.4407 42.6442 22.5081 42.9101 22.6368C42.9101 22.6368 43.7006 23.1936 43.9862 23.3708C44.2152 23.5285 44.4834 23.6311 44.7663 23.6692C45.0492 23.7073 45.338 23.6798 45.6064 23.5891C45.8545 23.4462 46.0694 23.2596 46.2389 23.0399L46.7728 22.3853L48.4195 20.928L50.6145 22.6653L50.8611 22.9287L50.5948 23.3152C50.143 24.3883 49.9951 25.5498 50.1652 26.6902C50.2577 27.1652 50.4659 27.6146 50.7741 28.0046C51.0823 28.3946 51.4825 28.7152 51.9445 28.942C52.3663 29.1959 52.8453 29.3578 53.3451 29.4156C53.845 29.4734 54.3525 29.4255 54.8293 29.2756C55.5176 28.9831 56.1545 28.5972 56.7187 28.1307C57.0043 28.3079 57.3561 28.4601 57.3652 28.4804C58.1609 29.1066 59.0228 29.7077 59.8185 30.3338C60.0287 30.5158 60.226 30.7265 60.4363 30.9085C60.0986 31.2507 59.7921 31.6049 59.4232 31.9351C58.6725 32.6243 57.8142 33.1878 57.0142 33.8243C56.2142 34.4608 55.4245 35.2361 54.6738 35.9253L52.1631 39.0903L50.4006 40.9246C50.2051 41.1155 50.0999 41.3701 50.1081 41.6325C50.1163 41.8949 50.2372 42.1435 50.4443 42.3237C50.6514 42.5039 50.9276 42.6009 51.2122 42.5934C51.4969 42.5858 51.7666 42.4744 51.9621 42.2835C53.7092 40.9779 55.3532 39.5593 56.8816 38.0384C57.4128 37.5514 57.9751 37.0764 58.4882 36.5488C59.0012 36.0211 59.5402 35.436 60.013 34.876C60.4943 34.2368 60.94 33.5754 61.3483 32.8944L62.224 35.2034C62.8415 36.5871 63.014 36.9738 61.6826 38.9063C60.6552 40.1911 59.5352 41.4107 58.3304 42.557C57.3666 43.6363 56.2783 44.6677 55.2029 45.6703C54.6457 46.2148 54.0353 46.7556 53.3587 47.3215C53.1317 46.8128 52.3858 44.6211 51.3925 44.9978C50.3991 45.3745 49.8977 46.1595 50.9384 47.7397C51.3485 48.3694 51.359 48.1037 51.8924 48.6628L47.2819 52.7906C45.6052 54.3544 44.1557 56.0225 42.4829 57.5372C41.8044 58.1598 41.0788 58.7371 40.3115 59.2649C40.1125 59.394 39.9772 59.5907 39.9355 59.8118C39.8938 60.0329 39.949 60.2602 40.0891 60.4437C40.2292 60.6272 40.4426 60.7519 40.6825 60.7904C40.9223 60.8288 41.1689 60.7779 41.3679 60.6487C42.2455 60.0981 43.0777 59.4883 43.8575 58.8242C45.66 57.4268 47.2614 55.8677 49.0419 54.4787C51.4237 52.5285 53.9262 50.6753 56.1964 48.6484C57.7525 47.2453 59.2056 45.7483 60.5461 44.1674C61.7555 42.8361 62.8492 41.4189 63.8167 39.929C64.4464 38.8363 64.7888 37.6225 64.8163 36.3854C64.8447 36.1262 64.7992 35.8646 64.6842 35.6266C64.4844 35.1789 63.9821 34.6318 63.8238 34.3349C60.9085 28.2073 65.0876 32.7135 58.764 27.0458Z" fill="#3E66F3"/>
<path fill-rule="evenodd" clip-rule="evenodd" d="M37.7483 59.9989C36.2888 59.9659 34.8751 59.5224 33.6966 58.7279C31.7396 57.3441 29.9034 55.8209 28.2049 54.1723C27.2028 53.3151 26.2359 52.4207 25.2689 51.5264C23.7477 50.1998 18.7052 45.3786 18.5573 45.2206C17.3126 44.0509 15.9666 42.9434 14.7439 41.7654C14.2468 41.2877 13.7497 40.81 13.2656 40.3036C12.7815 39.7972 11.969 38.8442 11.3669 38.0733C10.9776 37.6262 10.6145 37.1603 10.2793 36.6774C9.94512 36.2795 9.7307 35.8074 9.6577 35.3088C9.58469 34.8101 9.65568 34.3025 9.86349 33.8371C10.0338 33.1777 10.2664 32.5423 10.499 31.9068C11.4558 33.5041 12.5081 35.0511 13.6512 36.5407C14.9009 38.1844 16.256 39.3122 17.6694 40.9176C18.1807 41.4851 18.3922 41.7856 19.2164 42.5913C19.4593 42.7361 19.7472 42.803 20.0355 42.7814C20.3238 42.7599 20.5963 42.6512 20.8107 42.4722C21.0251 42.2933 21.1694 42.054 21.2212 41.7917C21.2729 41.5294 21.2293 41.2586 21.097 41.0215C20.4117 40.3535 20.2053 40.1224 19.677 39.6328C17.8638 37.9411 16.1168 36.2243 14.5243 34.4489C13.455 33.0937 12.431 31.8403 11.4771 30.5127C11.4771 30.5127 11.4227 30.3906 11.2539 30.3595C13.5253 28.4511 15.6657 26.3069 17.9683 24.4106C18.9728 23.5473 20.0378 22.746 21.1566 22.0118C21.8065 21.3366 22.5259 20.7212 23.3046 20.174C23.6979 20.4769 24.2742 20.9008 24.7934 21.3701C25.2619 21.7579 25.6694 22.2039 26.0043 22.6953C26.1133 22.9395 26.0043 22.6953 26.0043 22.6953C25.9619 22.9872 25.8816 23.2733 25.7652 23.5474C25.4794 24.2314 25.3135 24.9529 25.2737 25.6849C25.2604 26.1018 25.3425 26.5165 25.5146 26.9022C25.6867 27.2878 25.945 27.6358 26.2726 27.9233C26.9401 28.6185 27.8174 29.1142 28.7923 29.3471C29.8175 29.5666 30.8952 29.4057 31.7929 28.8991L32.2123 28.7401C32.2296 28.8122 32.2603 28.8811 32.3031 28.9436L33.7853 30.3563C34.9198 31.1633 35.7292 29.7381 35.1491 28.9587L33.8888 27.5808C33.5556 27.1904 33.1995 26.8171 32.822 26.4626C32.6713 26.3291 32.4858 26.2336 32.2834 26.1853C32.081 26.1371 31.8686 26.1376 31.6665 26.187C31.436 26.2225 31.2172 26.3055 31.0264 26.4298C30.8498 26.4968 30.2732 26.882 30.3861 27.0771C30.0665 27.1612 29.7261 27.1486 29.4149 27.0409C28.986 26.8924 28.6071 26.6421 28.3168 26.3153C28.2415 26.2506 28.1822 26.1716 28.143 26.0838C28.1039 25.996 28.0857 25.9014 28.0897 25.8066C28.2188 25.2398 28.4244 24.6903 28.7018 24.1707C28.9743 23.5171 29.0673 22.8116 28.9725 22.1169C28.7437 21.3931 28.317 20.7356 27.7333 20.2076C26.8273 19.3054 25.8365 18.4789 24.7726 17.7376C24.4714 17.5454 24.116 17.4383 23.7499 17.4293C23.3838 17.4203 23.0227 17.5097 22.7108 17.6867C21.5468 18.3816 20.4285 19.1395 19.3616 19.9562C18.2347 20.8398 17.1783 21.7971 16.2005 22.8206C13.9147 25.0437 11.8313 27.547 9.65192 29.7773L9.30251 30.2667C8.88282 31.2349 8.40598 32.2485 8.06677 33.2813C7.80807 34.0121 7.61587 34.7615 7.49215 35.5217C7.48079 35.7729 7.5226 36.0237 7.61525 36.2602C7.81504 36.7078 8.21603 37.3172 8.33409 37.5817C8.61562 38.2125 9.02051 38.7728 9.43449 39.3534C9.84847 39.934 10.5778 40.9898 11.176 41.8098C11.7999 42.6238 12.4819 43.3984 13.2176 44.1287C14.2481 45.1655 15.3449 46.1772 16.3975 47.2056C18.3366 49.0637 20.2536 50.9301 22.2628 52.714C23.6452 53.9029 25.0847 55.0463 26.5501 56.1323C28.448 57.7489 30.4857 59.2201 32.6431 60.5313C34.2627 61.4556 36.1606 61.878 38.0594 61.7369C38.2351 61.7171 38.3999 61.6477 38.5312 61.5383C38.6626 61.4288 38.754 61.2847 38.7931 61.1255C38.9691 61.1927 39.1647 61.2025 39.3475 61.1532C39.4621 61.1195 39.568 61.0646 39.6588 60.9918C39.7495 60.919 39.8232 60.8299 39.8752 60.73C39.9273 60.63 39.9566 60.5213 39.9615 60.4106C39.9664 60.2998 39.9467 60.1892 39.9036 60.0857C39.7426 59.0761 39.4964 58.0796 39.1671 57.1053C38.0989 56.2732 37.3043 56.1701 36.6781 57.3117C36.8379 58.264 37.2017 59.1775 37.7483 59.9989Z" fill="#3E66F3"/>
<path fill-rule="evenodd" clip-rule="evenodd" d="M25.3062 13.7283L26.2513 14.2265C26.5719 14.3666 26.8926 14.5068 27.2262 14.6182C30.3418 15.8159 30.3418 15.8159 30.834 15.4151C31.6276 14.5907 29.0121 12.4894 28.7084 12.2715C28.3651 12.0183 27.9855 11.8099 27.5803 11.6524C27.195 11.4772 26.789 11.3438 26.3704 11.2547C22.5705 10.3165 22.3715 11.2009 22.3 11.5612C22.2285 11.9214 22.5386 12.3272 25.3062 13.7283Z" fill="#3E66F3"/>
<path fill-rule="evenodd" clip-rule="evenodd" d="M35.0947 12.9902C35.3375 12.8981 35.901 12.9461 36.0408 10.252C36.0629 9.99433 36.0513 9.73513 36.006 9.48003C35.9061 9.25619 35.8062 9.03235 35.8388 8.75827C35.0969 6.51753 35.058 6.19916 34.353 6.181C34.1102 6.27309 33.204 6.09331 33.0537 9.05311C33.0177 9.33579 33.0237 9.6217 33.0716 9.90289C33.0975 10.179 33.1584 10.4514 33.2531 10.7144C33.2531 10.7144 34.2779 13.2999 35.0947 12.9902Z" fill="#3E66F3"/>
<path fill-rule="evenodd" clip-rule="evenodd" d="M44.1705 11.9276C44.438 11.6596 44.6744 11.3796 44.9108 11.0996L45.6148 10.1902C47.4983 7.64377 47.9606 7.34947 47.3467 6.72573C47.078 6.47072 46.5887 5.89489 43.4459 8.39544C43.0945 8.68449 42.7688 8.99898 42.4718 9.3359C42.1786 9.68101 41.9199 10.0499 41.6989 10.438C41.3689 11.0866 40.154 13.9743 41.2575 14.3648C42.3609 14.7553 41.8833 14.4368 44.1705 11.9276Z" fill="#3E66F3"/>
<path fill-rule="evenodd" clip-rule="evenodd" d="M49.0644 41.574L46.4621 39.0395C46.7465 38.6937 47.0933 38.3719 47.1063 38.3432C47.5978 37.4792 47.8509 36.517 47.8434 35.5415C47.8301 34.7901 47.5839 34.0579 47.1339 33.4312C46.8713 33.0476 46.5258 32.718 46.1189 32.4629C45.712 32.2078 45.2524 32.0329 44.7688 31.9488C43.5355 31.7388 42.2613 31.9278 41.1618 32.484L39.9905 33.2138L39.5582 32.997L37.1504 31.2453C37.1504 31.2453 36.2354 30.2361 35.8147 30.2767C34.628 30.3936 33.3911 32.8851 32.7611 33.6713C32.5161 33.9781 32.2497 34.2698 31.9637 34.5448C31.765 34.6201 30.9962 35.2686 30.7156 35.5654C30.5241 35.794 30.4224 36.0759 30.4271 36.3648C30.4705 36.5605 30.5537 36.747 30.6723 36.9142C30.8086 37.2194 31.368 37.7211 31.4769 37.9653C31.7416 38.468 31.8736 39.0213 31.862 39.58C31.8647 40.03 31.6933 40.4662 31.3786 40.8102C31.2747 40.9309 31.139 41.025 30.9844 41.0836C30.8299 41.1423 30.6616 41.1634 30.4956 41.1451C29.9019 41.0779 29.3272 40.9084 28.8015 40.6455C28.2873 40.386 27.7547 40.1587 27.2073 39.9652C26.7304 39.8429 26.2241 39.8604 25.7584 40.0151C25.4522 40.151 25.1628 40.3166 24.8948 40.5091C24.1728 40.9733 23.5285 41.6697 22.8143 42.0357L22.5274 42.1446C21.7029 42.1479 20.3312 44.0482 20.9049 44.6396C20.9685 44.782 25.2738 48.6455 26.7911 50.0212C27.9553 51.1262 29.1105 52.2109 30.3007 53.2585C31.1607 54.0845 32.1136 54.8239 33.1434 55.4639C33.7406 55.7636 34.3842 55.9769 35.0517 56.0964C36.1084 56.1976 37.1763 56.0807 38.178 55.7544C39.1796 55.428 40.0899 54.9002 40.843 54.2094C42.1833 53.2547 43.4408 52.205 44.604 51.0699C45.6999 49.9372 46.7304 48.7521 47.6914 47.5197C48.107 47.0051 48.972 46.225 49.5578 45.4556C49.6304 45.6184 50.7086 44.0436 50.6231 43.505C50.3348 42.7272 49.7898 42.052 49.0644 41.574ZM44.7229 37.2246C44.7229 37.2246 44.002 38.2118 43.7798 38.5816C43.6184 38.8191 43.5375 39.0957 43.5476 39.3759C43.5577 39.6561 43.6583 39.9271 43.8364 40.1543L46.7424 43.3112L47.1266 43.5938L46.785 43.9851C46.207 44.6564 45.4343 45.3539 45.0225 45.8194C44.1081 46.9513 43.1535 48.051 42.1053 49.1147C41.0914 50.1508 39.9949 51.1154 38.8248 52.0006C38.2664 52.4518 37.6497 52.8375 36.9885 53.1491C36.4212 53.4211 35.7878 53.5549 35.1486 53.5375C34.7102 53.4965 34.2905 53.3526 33.9296 53.1195C33.1594 52.6538 32.4279 52.1359 31.7411 51.5701C30.177 50.3788 28.6701 49.142 27.1761 47.8765C25.6821 46.611 24.8359 45.8136 23.6677 44.7577L24.1313 44.5818C27.7571 42.0647 26.3559 42.8578 27.5087 43.301C28.5736 43.7694 29.751 43.9783 30.9284 43.9076C31.4187 43.8701 31.8952 43.7385 32.3272 43.5214C32.7592 43.3043 33.1373 43.0064 33.4372 42.6468C34.0028 41.9877 34.3292 41.1814 34.3702 40.3419C34.4424 39.2284 34.1627 38.1195 33.565 37.1496C33.4268 36.9838 33.2515 36.8474 33.0509 36.7497C33.2964 36.4901 33.5186 36.1203 33.5887 36.0461C33.9074 35.6863 34.2052 35.3113 34.481 34.9225C34.9656 34.2153 35.4008 33.4554 35.9073 32.7398L38.3125 34.6591C38.5946 34.9609 38.9144 35.231 39.2652 35.4637C39.5257 35.5978 39.8292 35.6429 40.1221 35.5908C40.4404 35.5179 40.7454 35.4023 41.0272 35.2475C41.4687 35.0801 41.8856 34.6841 42.2738 34.513C42.8061 34.2772 43.3995 34.1841 43.9864 34.2442C44.2043 34.2523 44.4171 34.307 44.6081 34.4038C44.7991 34.5006 44.9631 34.637 45.0872 34.8023C45.3001 35.1516 45.3808 35.5562 45.3167 35.9525C45.1988 36.3987 45.0059 36.8251 44.745 37.2162L44.7229 37.2246Z" fill="#3E66F3"/>
<ellipse cx="33.5344" cy="24.5683" rx="33.5344" ry="24.5683" transform="matrix(0.952228 -0.305389 0.345513 0.938414 3.81874 41.6681)" fill="#3E66F3" fill-opacity="0.15"/>
<ellipse cx="33.5344" cy="24.5683" rx="33.5344" ry="24.5683" transform="matrix(0.952228 -0.305389 0.345513 0.938414 3.81874 41.6681)" fill="#3E66F3" fill-opacity="0.25"/>
</svg>
