<svg width="50" height="50" viewBox="0 0 50 50" fill="none" xmlns="http://www.w3.org/2000/svg">
<path d="M6.25 18.75V40.4167C6.25 41.5834 6.25 42.1664 6.47707 42.6121C6.67681 43.0041 6.99528 43.3234 7.38729 43.5232C7.8325 43.75 8.41562 43.75 9.58011 43.75H31.2502M35.4167 16.6667L27.0833 25L22.9167 20.8333M14.5833 28.7504V12.9171C14.5833 10.5835 14.5833 9.41588 15.0375 8.52458C15.4369 7.74057 16.0739 7.10361 16.8579 6.70414C17.7492 6.25 18.9169 6.25 21.2504 6.25H37.0837C39.4173 6.25 40.5835 6.25 41.4748 6.70414C42.2588 7.10361 42.8968 7.74057 43.2963 8.52458C43.7504 9.41587 43.7504 10.5827 43.7504 12.9162L43.7504 28.7496C43.7504 31.0831 43.7504 32.2499 43.2963 33.1412C42.8968 33.9252 42.2588 34.5635 41.4748 34.963C40.5843 35.4167 39.4198 35.4167 37.0908 35.4167H21.2436C18.9146 35.4167 17.7483 35.4167 16.8579 34.963C16.0739 34.5635 15.4369 33.9254 15.0375 33.1414C14.5833 32.2501 14.5833 31.084 14.5833 28.7504Z" stroke="#6E9D3E" stroke-width="2" stroke-linecap="round" stroke-linejoin="round"/>
</svg>
