<svg width="30" height="30" viewBox="0 0 30 30" fill="none" xmlns="http://www.w3.org/2000/svg">
<path d="M3.75 11.25V24.25C3.75 24.95 3.75 25.2998 3.88624 25.5673C4.00609 25.8025 4.19717 25.994 4.43237 26.1139C4.6995 26.25 5.04937 26.25 5.74807 26.25H18.7501M21.25 10L16.25 15L13.75 12.5M8.74998 17.2502V7.75026C8.74998 6.3501 8.74998 5.64953 9.0225 5.11475C9.26214 4.64434 9.64434 4.26217 10.1147 4.02248C10.6495 3.75 11.3501 3.75 12.7502 3.75H22.2502C23.6504 3.75 24.3501 3.75 24.8849 4.02248C25.3553 4.26217 25.7381 4.64434 25.9778 5.11475C26.2502 5.64952 26.2502 6.34962 26.2502 7.74972V17.2498C26.2502 18.6499 26.2502 19.3499 25.9778 19.8847C25.7381 20.3551 25.3553 20.7381 24.8849 20.9778C24.3506 21.25 23.6519 21.25 22.2545 21.25H12.7462C11.3488 21.25 10.649 21.25 10.1147 20.9778C9.64434 20.7381 9.26214 20.3552 9.0225 19.8848C8.74998 19.3501 8.74998 18.6504 8.74998 17.2502Z" stroke="white" stroke-width="2" stroke-linecap="round" stroke-linejoin="round"/>
</svg>
