<svg width="500" height="500" viewBox="0 0 500 500" fill="none" xmlns="http://www.w3.org/2000/svg">
<path d="M449.9 398.49H416.78V398.74H449.9V398.49Z" fill="#EBEBEB"/>
<path d="M331.22 401.21H322.53V401.46H331.22V401.21Z" fill="#EBEBEB"/>
<path d="M415.78 389.21H396.59V389.46H415.78V389.21Z" fill="#EBEBEB"/>
<path d="M95.65 390.89H52.46V391.14H95.65V390.89Z" fill="#EBEBEB"/>
<path d="M110.89 390.89H104.56V391.14H110.89V390.89Z" fill="#EBEBEB"/>
<path d="M225.15 395.11H131.47V395.36H225.15V395.11Z" fill="#EBEBEB"/>
<path d="M237 337.8H43.92C42.4056 337.8 40.9532 337.198 39.8824 336.128C38.8115 335.057 38.21 333.604 38.21 332.09V60.66C38.2231 59.1543 38.8305 57.7147 39.9 56.6547C40.9694 55.5947 42.4142 54.9999 43.92 55H237C238.514 55 239.967 55.6016 241.038 56.6724C242.108 57.7433 242.71 59.1956 242.71 60.71V332.09C242.71 333.604 242.108 335.057 241.038 336.128C239.967 337.198 238.514 337.8 237 337.8ZM43.92 55.2C42.4727 55.2026 41.0855 55.7787 40.0621 56.8021C39.0387 57.8255 38.4626 59.2127 38.46 60.66V332.09C38.4626 333.537 39.0387 334.924 40.0621 335.948C41.0855 336.971 42.4727 337.547 43.92 337.55H237C238.447 337.547 239.834 336.971 240.858 335.948C241.881 334.924 242.457 333.537 242.46 332.09V60.66C242.457 59.2127 241.881 57.8255 240.858 56.8021C239.834 55.7787 238.447 55.2026 237 55.2H43.92Z" fill="#EBEBEB"/>
<path d="M453.31 337.8H260.21C258.696 337.797 257.246 337.195 256.175 336.125C255.105 335.054 254.503 333.604 254.5 332.09V60.66C254.516 59.1551 255.124 57.7171 256.193 56.6576C257.262 55.5981 258.705 55.0025 260.21 55H453.31C454.812 55.0052 456.252 55.6022 457.317 56.6617C458.382 57.7212 458.987 59.1578 459 60.66V332.09C459 333.601 458.401 335.05 457.335 336.121C456.268 337.191 454.821 337.795 453.31 337.8ZM260.21 55.2C258.763 55.2026 257.375 55.7787 256.352 56.8021C255.329 57.8255 254.753 59.2127 254.75 60.66V332.09C254.753 333.537 255.329 334.924 256.352 335.948C257.375 336.971 258.763 337.547 260.21 337.55H453.31C454.757 337.547 456.145 336.971 457.168 335.948C458.191 334.924 458.767 333.537 458.77 332.09V60.66C458.767 59.2127 458.191 57.8255 457.168 56.8021C456.145 55.7787 454.757 55.2026 453.31 55.2H260.21Z" fill="#EBEBEB"/>
<path d="M500 382.4H0V382.65H500V382.4Z" fill="#EBEBEB"/>
<path d="M416.75 94.6699H291.96V227.56H416.75V94.6699Z" fill="#EBEBEB"/>
<path d="M409.25 102.17H299.46V220.06H409.25V102.17Z" fill="#F5F5F5"/>
<path d="M342.55 220.06H375.55L406.53 102.17H373.53L342.55 220.06Z" fill="#FAFAFA"/>
<path d="M358.2 102.17L327.22 220.06H335.22L366.2 102.17H358.2Z" fill="#FAFAFA"/>
<path d="M418.32 100.92H290.38L287.68 94.6201H421.02L418.32 100.92Z" fill="#F5F5F5"/>
<path d="M418.32 104.57H290.38L287.68 98.2695H421.02L418.32 104.57Z" fill="#F0F0F0"/>
<path d="M418.32 108.22H290.38L287.68 101.92H421.02L418.32 108.22Z" fill="#E6E6E6"/>
<path d="M418.32 111.87H290.38L287.68 105.57H421.02L418.32 111.87Z" fill="#E0E0E0"/>
<path d="M425.68 86.7305H283.03V95.1305H425.68V86.7305Z" fill="#E0E0E0"/>
<path d="M284.49 171.29C284.105 171.29 283.737 171.137 283.465 170.865C283.193 170.593 283.04 170.224 283.04 169.84V120.84C283.04 120.455 283.193 120.086 283.465 119.814C283.737 119.542 284.105 119.39 284.49 119.39C284.875 119.39 285.243 119.542 285.515 119.814C285.787 120.086 285.94 120.455 285.94 120.84V169.84C285.94 170.224 285.787 170.593 285.515 170.865C285.243 171.137 284.875 171.29 284.49 171.29Z" fill="#E0E0E0"/>
<path d="M285.01 93.4502H283.96V122.55H285.01V93.4502Z" fill="#E0E0E0"/>
<path d="M90.52 92.0996H88.72V232.47H90.52V92.0996Z" fill="#E0E0E0"/>
<path d="M202.57 92.0996H200.77V232.47H202.57V92.0996Z" fill="#E0E0E0"/>
<path d="M209.63 100.92H81.67L78.97 94.6201H212.32L209.63 100.92Z" fill="#F5F5F5"/>
<path d="M209.63 109.57H81.67L78.97 103.27H212.32L209.63 109.57Z" fill="#F5F5F5"/>
<path d="M209.63 118.22H81.67L78.97 111.92H212.32L209.63 118.22Z" fill="#F5F5F5"/>
<path d="M209.63 126.87H81.67L78.97 120.57H212.32L209.63 126.87Z" fill="#F5F5F5"/>
<path d="M209.63 135.52H81.67L78.97 129.22H212.32L209.63 135.52Z" fill="#F5F5F5"/>
<path d="M209.63 144.17H81.67L78.97 137.87H212.32L209.63 144.17Z" fill="#F5F5F5"/>
<path d="M209.63 152.82H81.67L78.97 146.52H212.32L209.63 152.82Z" fill="#F5F5F5"/>
<path d="M209.63 161.47H81.67L78.97 155.17H212.32L209.63 161.47Z" fill="#F5F5F5"/>
<path d="M209.63 170.12H81.67L78.97 163.82H212.32L209.63 170.12Z" fill="#F5F5F5"/>
<path d="M209.63 178.77H81.67L78.97 172.47H212.32L209.63 178.77Z" fill="#F5F5F5"/>
<path d="M209.63 187.42H81.67L78.97 181.12H212.32L209.63 187.42Z" fill="#F5F5F5"/>
<path d="M209.63 196.06H81.67L78.97 189.76H212.32L209.63 196.06Z" fill="#F5F5F5"/>
<path d="M209.63 204.72H81.67L78.97 198.41H212.32L209.63 204.72Z" fill="#F5F5F5"/>
<path d="M209.63 213.36H81.67L78.97 207.06H212.32L209.63 213.36Z" fill="#F5F5F5"/>
<path d="M209.63 222.01H81.67L78.97 215.71H212.32L209.63 222.01Z" fill="#F5F5F5"/>
<path d="M209.63 230.66H81.67L78.97 224.36H212.32L209.63 230.66Z" fill="#F5F5F5"/>
<path d="M212.32 230.66H78.97V234.26H212.32V230.66Z" fill="#E0E0E0"/>
<path d="M216.97 86.7305H74.3201V95.1305H216.97V86.7305Z" fill="#E0E0E0"/>
<path d="M75.7901 171.29C75.4055 171.29 75.0367 171.137 74.7648 170.865C74.4929 170.593 74.3401 170.224 74.3401 169.84V120.84C74.3401 120.455 74.4929 120.086 74.7648 119.814C75.0367 119.542 75.4055 119.39 75.7901 119.39C76.1747 119.39 76.5435 119.542 76.8154 119.814C77.0873 120.086 77.2401 120.455 77.2401 120.84V169.84C77.2401 170.224 77.0873 170.593 76.8154 170.865C76.5435 171.137 76.1747 171.29 75.7901 171.29Z" fill="#E0E0E0"/>
<path d="M76.31 93.4502H75.26V122.55H76.31V93.4502Z" fill="#E0E0E0"/>
<path d="M89.3201 322.38C89.2001 322.51 89.8701 323.45 87.1301 323.04C80.3801 322.04 68.6301 319.29 65.3601 312.35C60.6901 302.44 75.1701 306.06 74.6701 300.99C74.1701 295.92 57.6701 296.8 55.9401 289.37C54.2101 281.94 65.3701 285.48 65.5201 281.86C65.6701 278.24 52.7901 280.48 50.2301 272.46C47.6701 264.44 57.4101 270.35 56.2901 267.01C55.1701 263.67 44.2901 248.6 50.2001 246.85C56.1101 245.1 66.1201 260.57 70.0001 262.76C73.8801 264.95 77.2801 252.32 81.8801 257.66C86.4801 263 79.1801 281.66 85.0401 285.27C89.4101 287.97 88.1801 280.54 93.9401 281.93C101.73 283.81 99.1001 311.44 89.3201 322.38Z" fill="#EBEBEB"/>
<path d="M68.4899 281.9C70.476 282.046 72.4352 282.446 74.3199 283.09C73.0703 281.213 71.6832 279.431 70.1699 277.76C70.0886 277.663 70.0467 277.54 70.0524 277.414C70.0581 277.288 70.1112 277.169 70.2009 277.081C70.2906 276.992 70.4103 276.941 70.5362 276.937C70.6621 276.933 70.7849 276.977 70.8799 277.06C74.1417 280.718 76.9334 284.769 79.1899 289.12C81.3199 276.33 75.9599 265.12 75.8999 265.04C75.868 264.951 75.8699 264.854 75.9052 264.767C75.9406 264.68 76.0069 264.609 76.0914 264.568C76.1758 264.527 76.2725 264.519 76.3627 264.545C76.453 264.571 76.5303 264.63 76.5799 264.71C76.6399 264.83 82.3499 276.76 79.7599 290.18C80.4499 291.49 81.1499 292.9 81.8299 294.41C84.2496 299.793 86.1612 305.391 87.5399 311.13C90.0375 306.418 91.4068 301.191 91.5399 295.86C91.5412 295.811 91.5521 295.763 91.5719 295.719C91.5917 295.674 91.62 295.634 91.6553 295.601C91.6906 295.567 91.7322 295.541 91.7776 295.524C91.823 295.506 91.8713 295.498 91.9199 295.5C91.9698 295.501 92.019 295.512 92.0646 295.532C92.1102 295.553 92.1514 295.582 92.1857 295.618C92.2201 295.654 92.247 295.697 92.2649 295.743C92.2827 295.79 92.2913 295.84 92.2899 295.89C92.1699 301.606 90.6341 307.203 87.8199 312.18C90.3717 323.473 91.2244 335.084 90.3499 346.63C90.3461 346.695 90.3294 346.76 90.3006 346.819C90.2719 346.878 90.2318 346.931 90.1825 346.975C90.1333 347.018 90.0759 347.052 90.0137 347.073C89.9515 347.095 89.8856 347.104 89.8199 347.1H89.7599C89.6389 347.078 89.5306 347.011 89.4565 346.913C89.3824 346.814 89.3479 346.692 89.3599 346.57C90.5899 328.57 87.9099 314.16 84.1899 303.22C82.1256 300.828 79.3004 299.222 76.1899 298.67C76.0936 298.65 76.0081 298.595 75.9506 298.515C75.8932 298.436 75.8679 298.337 75.8799 298.24C75.8861 298.191 75.9019 298.144 75.9264 298.101C75.9509 298.059 75.9837 298.021 76.0228 297.991C76.0619 297.962 76.1065 297.94 76.1541 297.928C76.2017 297.915 76.2513 297.913 76.2999 297.92C79.0277 298.39 81.5583 299.649 83.5799 301.54C81.4189 295.453 78.5598 289.638 75.0599 284.21C72.9508 283.328 70.7107 282.801 68.4299 282.65C68.3309 282.642 68.2388 282.596 68.1734 282.521C68.1079 282.446 68.0744 282.349 68.0799 282.25C68.0824 282.199 68.0951 282.15 68.1173 282.104C68.1396 282.059 68.1709 282.019 68.2093 281.986C68.2477 281.953 68.2924 281.929 68.3407 281.914C68.3889 281.899 68.4397 281.894 68.4899 281.9Z" fill="#F5F5F5"/>
<path d="M97.9999 326.21C103.61 326.31 113.19 321.1 117 316.04C120.81 310.98 110.08 314.04 111.18 310.04C112.28 306.04 125.52 308.99 127.96 303.2C130.4 297.41 120.86 298.75 121.24 295.79C121.62 292.83 131.51 293.44 134.68 287.29C137.85 281.14 129.16 284.59 130.52 282.04C131.88 279.49 142.79 268.77 138.23 266.54C133.67 264.31 123.44 275.47 120.02 276.72C116.6 277.97 115.79 270.25 111.33 273.94C106.87 277.63 110.21 293.75 104.97 295.88C101.06 297.47 102.72 290.08 98.2199 291.95C90.2599 295.22 95.6899 326.16 97.9999 326.21Z" fill="#E0E0E0"/>
<g opacity="0.3">
<path d="M97.9999 326.21C103.61 326.31 113.19 321.1 117 316.04C120.81 310.98 110.08 314.04 111.18 310.04C112.28 306.04 125.52 308.99 127.96 303.2C130.4 297.41 120.86 298.75 121.24 295.79C121.62 292.83 131.51 293.44 134.68 287.29C137.85 281.14 129.16 284.59 130.52 282.04C131.88 279.49 142.79 268.77 138.23 266.54C133.67 264.31 123.44 275.47 120.02 276.72C116.6 277.97 115.79 270.25 111.33 273.94C106.87 277.63 110.21 293.75 104.97 295.88C101.06 297.47 102.72 290.08 98.2199 291.95C90.2599 295.22 95.6899 326.16 97.9999 326.21Z" fill="#E0E0E0"/>
</g>
<path d="M99.82 319.48C99.7353 319.449 99.6644 319.389 99.62 319.31C97.4819 314.617 96.613 309.444 97.1 304.31C97.0966 304.256 97.105 304.201 97.1245 304.151C97.144 304.1 97.1742 304.054 97.213 304.016C97.2518 303.977 97.2984 303.948 97.3496 303.929C97.4008 303.911 97.4553 303.904 97.5096 303.908C97.5638 303.912 97.6165 303.928 97.6641 303.955C97.7117 303.981 97.753 304.018 97.7853 304.061C97.8175 304.105 97.84 304.155 97.8512 304.209C97.8624 304.262 97.862 304.317 97.85 304.37C97.4311 309.244 98.2104 314.146 100.12 318.65C102.439 312.394 105.296 306.352 108.66 300.59C107.66 288.59 113.84 278.69 113.9 278.59C113.953 278.507 114.037 278.448 114.134 278.426C114.23 278.404 114.331 278.422 114.415 278.475C114.499 278.528 114.558 278.612 114.579 278.709C114.601 278.805 114.583 278.907 114.53 278.99C110.956 285.198 109.16 292.269 109.34 299.43C113.372 292.513 118.183 286.081 123.68 280.26C123.725 280.208 123.781 280.166 123.843 280.136C123.905 280.107 123.973 280.091 124.042 280.088C124.111 280.086 124.179 280.098 124.243 280.124C124.307 280.15 124.365 280.188 124.413 280.237C124.462 280.286 124.499 280.345 124.524 280.409C124.549 280.473 124.56 280.542 124.557 280.611C124.554 280.68 124.536 280.747 124.506 280.809C124.476 280.871 124.433 280.926 124.38 280.97C120.319 285.243 116.654 289.875 113.43 294.81C116.808 293.538 120.39 292.894 124 292.91C124.099 292.915 124.192 292.959 124.259 293.032C124.327 293.105 124.363 293.201 124.36 293.3C124.357 293.396 124.317 293.488 124.248 293.555C124.179 293.623 124.086 293.66 123.99 293.66C120.11 293.628 116.263 294.379 112.68 295.87C110.471 299.262 108.435 302.763 106.58 306.36C108.087 305.315 109.802 304.609 111.608 304.291C113.414 303.974 115.267 304.052 117.04 304.52C117.136 304.546 117.219 304.609 117.269 304.695C117.32 304.781 117.334 304.883 117.31 304.98C117.297 305.028 117.275 305.072 117.245 305.111C117.215 305.15 117.177 305.183 117.135 305.207C117.092 305.231 117.045 305.246 116.996 305.252C116.947 305.258 116.897 305.254 116.85 305.24C114.928 304.746 112.914 304.731 110.985 305.199C109.057 305.666 107.272 306.601 105.79 307.92C99.3424 320.702 95.6656 334.7 95 349C94.9948 349.129 94.9399 349.251 94.8467 349.341C94.7535 349.43 94.6292 349.48 94.5 349.48C94.3708 349.48 94.2465 349.43 94.1533 349.341C94.0601 349.251 94.0052 349.129 94 349C94.4196 338.92 96.3824 328.965 99.82 319.48Z" fill="#F5F5F5"/>
<path d="M82.1901 381C76.8401 370.94 73.3201 356.4 73.3201 350C73.346 347.39 73.9452 344.819 75.0754 342.467C76.2056 340.115 77.839 338.04 79.8601 336.39H107.27C109.291 338.04 110.925 340.115 112.055 342.467C113.185 344.819 113.784 347.39 113.81 350C113.81 356.38 110.29 370.92 104.94 381H82.1901Z" fill="#F0F0F0"/>
<path d="M245.18 423.71C352.263 423.71 439.07 418.642 439.07 412.39C439.07 406.138 352.263 401.07 245.18 401.07C138.098 401.07 51.29 406.138 51.29 412.39C51.29 418.642 138.098 423.71 245.18 423.71Z" fill="#F5F5F5"/>
<path d="M292.65 119.64H268.65C267.868 119.656 267.115 119.934 266.509 120.429C265.904 120.924 265.482 121.607 265.31 122.37L265.15 123.12C264.735 124.981 263.707 126.648 262.231 127.854C260.755 129.06 258.916 129.735 257.01 129.77H234.21C232.402 129.81 230.651 129.134 229.339 127.888C228.028 126.642 227.262 124.928 227.21 123.12V122.37C227.192 121.629 226.88 120.926 226.344 120.414C225.808 119.902 225.091 119.624 224.35 119.64H200.35C196.408 119.71 192.629 121.222 189.727 123.89C186.824 126.559 185 130.198 184.6 134.12L165.34 354.66C165.137 356.504 165.328 358.37 165.903 360.134C166.477 361.898 167.42 363.52 168.67 364.891C169.92 366.262 171.447 367.35 173.151 368.085C174.855 368.819 176.695 369.182 178.55 369.15H270.82C274.763 369.077 278.542 367.563 281.444 364.893C284.346 362.223 286.17 358.583 286.57 354.66L305.87 134.12C306.072 132.276 305.879 130.41 305.303 128.646C304.728 126.883 303.783 125.262 302.533 123.892C301.282 122.522 299.753 121.434 298.049 120.701C296.345 119.968 294.505 119.606 292.65 119.64Z" fill="#6E9D3E"/>
<path opacity="0.7" d="M292.65 119.64H268.65C267.868 119.656 267.115 119.934 266.509 120.429C265.904 120.924 265.482 121.607 265.31 122.37L265.15 123.12C264.735 124.981 263.707 126.648 262.231 127.854C260.755 129.06 258.916 129.735 257.01 129.77H234.21C232.402 129.81 230.651 129.134 229.339 127.888C228.028 126.642 227.262 124.928 227.21 123.12V122.37C227.192 121.629 226.88 120.926 226.344 120.414C225.808 119.902 225.091 119.624 224.35 119.64H200.35C196.408 119.71 192.629 121.222 189.727 123.89C186.824 126.559 185 130.198 184.6 134.12L165.34 354.66C165.137 356.504 165.328 358.37 165.903 360.134C166.477 361.898 167.42 363.52 168.67 364.891C169.92 366.262 171.447 367.35 173.151 368.085C174.855 368.819 176.695 369.182 178.55 369.15H270.82C274.763 369.077 278.542 367.563 281.444 364.893C284.346 362.223 286.17 358.583 286.57 354.66L305.87 134.12C306.072 132.276 305.879 130.41 305.303 128.646C304.728 126.883 303.783 125.262 302.533 123.892C301.282 122.522 299.753 121.434 298.049 120.701C296.345 119.968 294.505 119.606 292.65 119.64Z" fill="white"/>
<path d="M283.3 221.08H234.3C233.888 221.086 233.479 221.005 233.1 220.842C232.722 220.679 232.382 220.437 232.104 220.132C231.826 219.828 231.616 219.468 231.488 219.076C231.36 218.684 231.316 218.27 231.36 217.86L235.05 175.67C235.138 174.798 235.543 173.988 236.188 173.395C236.833 172.801 237.673 172.465 238.55 172.45H287.55C287.963 172.442 288.372 172.522 288.751 172.684C289.131 172.847 289.471 173.089 289.749 173.394C290.028 173.699 290.238 174.059 290.365 174.452C290.493 174.844 290.535 175.26 290.49 175.67L286.8 217.86C286.71 218.731 286.304 219.539 285.66 220.132C285.015 220.726 284.176 221.062 283.3 221.08Z" fill="white"/>
<path d="M267 353H185C183.975 353.019 182.958 352.82 182.017 352.415C181.076 352.01 180.231 351.408 179.541 350.651C178.85 349.894 178.328 348.999 178.011 348.024C177.694 347.05 177.588 346.019 177.7 345C177.922 342.834 178.93 340.824 180.533 339.35C182.136 337.876 184.223 337.04 186.4 337H268.4C269.425 336.981 270.442 337.181 271.383 337.586C272.324 337.991 273.169 338.592 273.86 339.349C274.55 340.106 275.072 341.002 275.389 341.976C275.707 342.951 275.813 343.982 275.7 345C275.48 347.167 274.473 349.179 272.87 350.653C271.266 352.127 269.178 352.962 267 353Z" fill="white"/>
<path d="M273.53 160.85H198.3C197.723 160.867 197.15 160.759 196.619 160.534C196.087 160.309 195.611 159.972 195.223 159.545C194.834 159.118 194.542 158.613 194.368 158.063C194.193 157.513 194.139 156.932 194.21 156.36L194.82 149.36C194.947 148.146 195.513 147.021 196.412 146.195C197.311 145.37 198.48 144.902 199.7 144.88H274.93C275.504 144.869 276.074 144.981 276.602 145.208C277.13 145.435 277.603 145.771 277.991 146.195C278.378 146.618 278.672 147.12 278.851 147.665C279.03 148.211 279.091 148.788 279.03 149.36L278.41 156.36C278.286 157.575 277.721 158.703 276.821 159.53C275.922 160.357 274.752 160.827 273.53 160.85Z" fill="white"/>
<path d="M288.83 149.12C288.796 149.459 288.638 149.773 288.388 150.004C288.137 150.234 287.81 150.365 287.47 150.37C287.31 150.373 287.151 150.341 287.005 150.277C286.858 150.214 286.726 150.12 286.619 150.002C286.511 149.884 286.429 149.744 286.38 149.592C286.33 149.44 286.313 149.279 286.33 149.12C286.364 148.782 286.522 148.469 286.773 148.24C287.024 148.012 287.35 147.883 287.69 147.88C287.849 147.876 288.008 147.907 288.154 147.969C288.301 148.031 288.433 148.124 288.541 148.242C288.649 148.359 288.73 148.498 288.78 148.65C288.83 148.801 288.847 148.962 288.83 149.12Z" fill="white"/>
<path d="M288.5 152.859C288.468 153.197 288.313 153.512 288.064 153.742C287.815 153.973 287.489 154.104 287.15 154.109C286.99 154.112 286.832 154.08 286.685 154.017C286.538 153.953 286.406 153.859 286.299 153.741C286.191 153.623 286.11 153.483 286.06 153.331C286.01 153.179 285.993 153.018 286.01 152.859C286.042 152.522 286.197 152.207 286.446 151.977C286.695 151.746 287.021 151.615 287.36 151.609C287.52 151.607 287.679 151.639 287.825 151.702C287.972 151.766 288.104 151.86 288.211 151.978C288.319 152.096 288.401 152.236 288.45 152.388C288.5 152.54 288.517 152.7 288.5 152.859Z" fill="white"/>
<path d="M288.18 156.59C288.146 156.929 287.988 157.243 287.738 157.474C287.487 157.704 287.16 157.834 286.82 157.84C286.66 157.842 286.502 157.811 286.355 157.747C286.208 157.684 286.076 157.59 285.969 157.472C285.861 157.353 285.779 157.214 285.73 157.062C285.68 156.91 285.663 156.749 285.68 156.59C285.714 156.251 285.872 155.937 286.122 155.706C286.373 155.476 286.7 155.346 287.04 155.34C287.2 155.338 287.358 155.369 287.505 155.433C287.652 155.496 287.784 155.59 287.891 155.708C287.999 155.827 288.081 155.966 288.13 156.118C288.18 156.27 288.197 156.431 288.18 156.59Z" fill="white"/>
<path d="M277.21 290.68H185.68C185.267 290.688 184.858 290.609 184.478 290.446C184.099 290.283 183.759 290.041 183.481 289.736C183.202 289.431 182.992 289.071 182.864 288.678C182.737 288.286 182.694 287.87 182.74 287.46L187 239.31C187.088 238.438 187.493 237.629 188.138 237.035C188.783 236.442 189.623 236.105 190.5 236.09H282C282.412 236.083 282.82 236.164 283.198 236.328C283.576 236.491 283.915 236.733 284.193 237.038C284.47 237.343 284.679 237.703 284.806 238.095C284.933 238.487 284.975 238.901 284.93 239.31L280.72 287.46C280.632 288.334 280.225 289.145 279.578 289.739C278.931 290.332 278.088 290.668 277.21 290.68Z" fill="white"/>
<path d="M210.86 300.74H182.36C182.26 300.742 182.161 300.723 182.069 300.683C181.977 300.644 181.895 300.585 181.828 300.511C181.76 300.438 181.71 300.35 181.679 300.255C181.648 300.16 181.638 300.059 181.65 299.96C181.67 299.747 181.767 299.548 181.924 299.403C182.081 299.257 182.286 299.174 182.5 299.17H211C211.101 299.168 211.201 299.187 211.293 299.227C211.386 299.267 211.469 299.327 211.536 299.402C211.604 299.477 211.654 299.566 211.684 299.662C211.714 299.758 211.723 299.86 211.71 299.96C211.688 300.171 211.589 300.368 211.433 300.511C211.276 300.655 211.072 300.736 210.86 300.74Z" fill="white"/>
<path d="M246.48 300.74H215.89C215.789 300.744 215.689 300.725 215.596 300.687C215.503 300.648 215.419 300.589 215.351 300.515C215.283 300.441 215.231 300.353 215.2 300.257C215.169 300.162 215.158 300.06 215.17 299.96C215.19 299.747 215.287 299.548 215.444 299.403C215.601 299.257 215.806 299.174 216.02 299.17H246.62C246.721 299.168 246.821 299.187 246.914 299.227C247.006 299.267 247.089 299.327 247.156 299.402C247.224 299.477 247.274 299.566 247.304 299.662C247.334 299.758 247.343 299.86 247.33 299.96C247.308 300.171 247.209 300.368 247.053 300.511C246.896 300.655 246.692 300.736 246.48 300.74Z" fill="white"/>
<path d="M201 307.689H181.76C181.659 307.691 181.558 307.672 181.465 307.632C181.372 307.592 181.289 307.533 181.221 307.458C181.152 307.383 181.101 307.294 181.07 307.198C181.039 307.102 181.029 307 181.04 306.899C181.062 306.687 181.16 306.49 181.316 306.344C181.473 306.199 181.677 306.116 181.89 306.109H201.17C201.271 306.109 201.37 306.13 201.463 306.17C201.555 306.211 201.638 306.27 201.705 306.344C201.773 306.419 201.825 306.507 201.857 306.602C201.888 306.698 201.9 306.799 201.89 306.899C201.867 307.119 201.764 307.321 201.599 307.468C201.434 307.614 201.22 307.693 201 307.689Z" fill="white"/>
<path d="M237.64 307.69H206.06C205.959 307.692 205.858 307.672 205.765 307.632C205.672 307.592 205.589 307.533 205.521 307.458C205.453 307.383 205.401 307.295 205.37 307.198C205.339 307.102 205.329 307 205.34 306.9C205.362 306.685 205.462 306.487 205.62 306.341C205.779 306.196 205.985 306.113 206.2 306.11H237.77C237.871 306.107 237.972 306.127 238.065 306.167C238.158 306.207 238.241 306.266 238.309 306.341C238.377 306.416 238.429 306.504 238.46 306.601C238.491 306.697 238.501 306.799 238.49 306.9C238.47 307.113 238.373 307.311 238.216 307.457C238.059 307.603 237.854 307.686 237.64 307.69Z" fill="white"/>
<path d="M232.54 314.63H181.15C181.049 314.633 180.949 314.615 180.856 314.576C180.763 314.537 180.679 314.479 180.611 314.405C180.543 314.331 180.491 314.243 180.46 314.147C180.429 314.051 180.418 313.95 180.43 313.85C180.452 313.636 180.552 313.437 180.71 313.291C180.868 313.146 181.075 313.063 181.29 313.06H232.68C232.781 313.059 232.88 313.08 232.973 313.12C233.065 313.161 233.148 313.22 233.215 313.295C233.283 313.369 233.335 313.457 233.367 313.552C233.398 313.648 233.41 313.749 233.4 313.85C233.376 314.062 233.275 314.258 233.117 314.402C232.959 314.545 232.754 314.626 232.54 314.63Z" fill="white"/>
<path d="M241 314.63H237.61C237.509 314.633 237.409 314.615 237.316 314.576C237.223 314.537 237.139 314.479 237.071 314.405C237.003 314.331 236.951 314.243 236.92 314.147C236.888 314.051 236.878 313.95 236.89 313.85C236.91 313.637 237.007 313.438 237.164 313.292C237.321 313.147 237.526 313.064 237.74 313.06H241.14C241.241 313.057 241.341 313.077 241.433 313.117C241.526 313.157 241.609 313.217 241.676 313.292C241.744 313.367 241.794 313.455 241.824 313.552C241.854 313.648 241.863 313.75 241.85 313.85C241.828 314.061 241.729 314.257 241.573 314.401C241.416 314.545 241.212 314.626 241 314.63Z" fill="white"/>
<path d="M204.53 321.58H180.53C180.429 321.581 180.33 321.56 180.237 321.519C180.145 321.479 180.062 321.42 179.995 321.345C179.927 321.271 179.875 321.183 179.843 321.087C179.812 320.992 179.8 320.89 179.81 320.79C179.832 320.576 179.932 320.377 180.09 320.232C180.249 320.086 180.455 320.004 180.67 320H204.67C204.771 319.998 204.872 320.018 204.965 320.058C205.058 320.098 205.141 320.157 205.209 320.232C205.278 320.307 205.329 320.395 205.36 320.491C205.391 320.588 205.401 320.69 205.39 320.79C205.368 321.004 205.268 321.203 205.11 321.348C204.952 321.494 204.745 321.576 204.53 321.58Z" fill="white"/>
<path d="M239.44 321.58H209.56C209.459 321.581 209.36 321.56 209.267 321.519C209.175 321.479 209.092 321.42 209.025 321.345C208.957 321.271 208.905 321.183 208.873 321.087C208.842 320.992 208.83 320.89 208.84 320.79C208.862 320.576 208.962 320.377 209.12 320.232C209.279 320.086 209.485 320.004 209.7 320H239.57C239.671 319.998 239.772 320.018 239.865 320.058C239.958 320.098 240.041 320.157 240.109 320.232C240.178 320.307 240.229 320.395 240.26 320.491C240.291 320.588 240.302 320.69 240.29 320.79C240.268 321.003 240.17 321.2 240.014 321.345C239.857 321.49 239.653 321.574 239.44 321.58Z" fill="white"/>
<path d="M209.48 328.52H179.93C179.829 328.522 179.729 328.502 179.636 328.462C179.544 328.422 179.461 328.363 179.393 328.288C179.326 328.213 179.276 328.124 179.246 328.028C179.216 327.931 179.207 327.83 179.22 327.73C179.242 327.518 179.34 327.322 179.497 327.179C179.654 327.035 179.857 326.953 180.07 326.95H209.61C209.711 326.946 209.811 326.964 209.904 327.003C209.997 327.042 210.081 327.1 210.149 327.174C210.217 327.248 210.269 327.336 210.3 327.432C210.331 327.528 210.342 327.63 210.33 327.73C210.31 327.943 210.213 328.141 210.056 328.287C209.899 328.433 209.694 328.516 209.48 328.52Z" fill="white"/>
<path d="M238.3 328.52H214.5C214.399 328.522 214.299 328.502 214.206 328.462C214.114 328.422 214.031 328.363 213.964 328.288C213.896 328.213 213.846 328.124 213.816 328.028C213.786 327.931 213.777 327.83 213.79 327.73C213.812 327.518 213.911 327.322 214.067 327.179C214.224 327.035 214.428 326.953 214.64 326.95H238.44C238.541 326.946 238.641 326.964 238.734 327.003C238.827 327.042 238.911 327.1 238.979 327.174C239.047 327.248 239.099 327.336 239.13 327.432C239.161 327.528 239.172 327.63 239.16 327.73C239.138 327.944 239.038 328.142 238.88 328.288C238.721 328.433 238.515 328.516 238.3 328.52Z" fill="white"/>
<path d="M282.14 217.08C282.053 217.18 281.947 217.262 281.829 217.32C281.71 217.379 281.581 217.413 281.449 217.422C281.317 217.43 281.184 217.412 281.059 217.369C280.934 217.326 280.819 217.258 280.72 217.17L239.79 178.11C239.604 177.923 239.499 177.669 239.499 177.405C239.499 177.141 239.604 176.887 239.79 176.7C239.877 176.6 239.983 176.519 240.101 176.46C240.22 176.401 240.349 176.367 240.481 176.358C240.613 176.35 240.746 176.368 240.871 176.411C240.996 176.454 241.111 176.522 241.21 176.61L282.14 215.67C282.326 215.857 282.431 216.111 282.431 216.375C282.431 216.639 282.326 216.893 282.14 217.08Z" fill="#6E9D3E"/>
<path d="M236.17 217.07C236.089 216.963 236.029 216.842 235.996 216.712C235.962 216.583 235.955 216.448 235.975 216.315C235.994 216.183 236.04 216.056 236.11 215.941C236.179 215.827 236.271 215.728 236.38 215.65L257.26 198.58C257.459 198.408 257.717 198.321 257.978 198.338C258.24 198.355 258.485 198.474 258.66 198.67C258.74 198.776 258.798 198.896 258.83 199.025C258.863 199.154 258.87 199.287 258.85 199.419C258.831 199.55 258.785 199.676 258.717 199.789C258.648 199.903 258.557 200.002 258.45 200.08L237.57 217.16C237.372 217.331 237.114 217.418 236.852 217.401C236.59 217.385 236.345 217.265 236.17 217.07Z" fill="#6E9D3E"/>
<path d="M263.15 195C263.07 194.894 263.012 194.773 262.98 194.644C262.947 194.516 262.94 194.382 262.96 194.251C262.979 194.12 263.025 193.994 263.093 193.88C263.162 193.767 263.253 193.668 263.36 193.59L284.28 176.49C284.478 176.318 284.737 176.231 284.998 176.248C285.26 176.265 285.505 176.384 285.68 176.58C285.76 176.686 285.818 176.807 285.85 176.935C285.883 177.064 285.89 177.198 285.87 177.329C285.851 177.46 285.805 177.586 285.737 177.7C285.668 177.813 285.577 177.912 285.47 177.99L264.55 195.09C264.351 195.262 264.093 195.348 263.832 195.332C263.57 195.315 263.325 195.196 263.15 195Z" fill="#6E9D3E"/>
<g opacity="0.7">
<path d="M282.14 217.08C282.053 217.18 281.947 217.262 281.829 217.32C281.71 217.379 281.581 217.413 281.449 217.422C281.317 217.43 281.184 217.412 281.059 217.369C280.934 217.326 280.819 217.258 280.72 217.17L239.79 178.11C239.604 177.923 239.499 177.669 239.499 177.405C239.499 177.141 239.604 176.887 239.79 176.7C239.877 176.6 239.983 176.519 240.101 176.46C240.22 176.401 240.349 176.367 240.481 176.358C240.613 176.35 240.746 176.368 240.871 176.411C240.996 176.454 241.111 176.522 241.21 176.61L282.14 215.67C282.326 215.857 282.431 216.111 282.431 216.375C282.431 216.639 282.326 216.893 282.14 217.08Z" fill="white"/>
</g>
<g opacity="0.7">
<path d="M236.17 217.07C236.089 216.963 236.029 216.842 235.996 216.712C235.962 216.583 235.955 216.448 235.975 216.315C235.994 216.183 236.04 216.056 236.11 215.941C236.179 215.827 236.271 215.728 236.38 215.65L257.26 198.58C257.459 198.408 257.717 198.321 257.978 198.338C258.24 198.355 258.485 198.474 258.66 198.67C258.74 198.776 258.798 198.896 258.83 199.025C258.863 199.154 258.87 199.287 258.85 199.419C258.831 199.55 258.785 199.676 258.717 199.789C258.648 199.903 258.557 200.002 258.45 200.08L237.57 217.16C237.372 217.331 237.114 217.418 236.852 217.401C236.59 217.385 236.345 217.265 236.17 217.07Z" fill="white"/>
</g>
<g opacity="0.7">
<path d="M263.15 195C263.07 194.894 263.012 194.773 262.98 194.644C262.947 194.516 262.94 194.382 262.96 194.251C262.979 194.12 263.025 193.994 263.093 193.88C263.162 193.767 263.253 193.668 263.36 193.59L284.28 176.49C284.478 176.318 284.737 176.231 284.998 176.248C285.26 176.265 285.505 176.384 285.68 176.58C285.76 176.686 285.818 176.807 285.85 176.935C285.883 177.064 285.89 177.198 285.87 177.329C285.851 177.46 285.805 177.586 285.737 177.7C285.668 177.813 285.577 177.912 285.47 177.99L264.55 195.09C264.351 195.262 264.093 195.348 263.832 195.332C263.57 195.315 263.325 195.196 263.15 195Z" fill="white"/>
</g>
<path d="M165.74 114.84H152.74C151.481 114.845 150.275 115.349 149.387 116.241C148.499 117.133 148 118.341 148 119.6V132.6C148 133.862 148.501 135.073 149.394 135.966C150.287 136.858 151.498 137.36 152.76 137.36H165.76C167.022 137.36 168.233 136.858 169.126 135.966C170.018 135.073 170.52 133.862 170.52 132.6V119.6C170.52 118.973 170.396 118.353 170.156 117.774C169.915 117.195 169.563 116.669 169.119 116.227C168.675 115.785 168.148 115.435 167.568 115.196C166.988 114.958 166.367 114.837 165.74 114.84ZM159.27 119.44C161.22 119.44 162.27 121.03 162.27 122.98C162.27 124.93 161.22 126.52 159.27 126.52C157.32 126.52 156.27 124.94 156.27 122.98C156.27 121.02 157.31 119.44 159.27 119.44ZM167.08 132.71H151.45C151.387 132.71 151.324 132.698 151.266 132.674C151.208 132.65 151.155 132.614 151.11 132.57L152.11 129.84C152.422 128.979 152.992 128.235 153.741 127.709C154.491 127.183 155.384 126.901 156.3 126.9H162.21C163.127 126.9 164.022 127.182 164.773 127.708C165.525 128.234 166.096 128.978 166.41 129.84L167.41 132.57C167.367 132.614 167.316 132.649 167.259 132.673C167.203 132.697 167.142 132.71 167.08 132.71Z" fill="#6E9D3E"/>
<path opacity="0.7" d="M165.74 114.84H152.74C151.481 114.845 150.275 115.349 149.387 116.241C148.499 117.133 148 118.341 148 119.6V132.6C148 133.862 148.501 135.073 149.394 135.966C150.287 136.858 151.498 137.36 152.76 137.36H165.76C167.022 137.36 168.233 136.858 169.126 135.966C170.018 135.073 170.52 133.862 170.52 132.6V119.6C170.52 118.973 170.396 118.353 170.156 117.774C169.915 117.195 169.563 116.669 169.119 116.227C168.675 115.785 168.148 115.435 167.568 115.196C166.988 114.958 166.367 114.837 165.74 114.84ZM159.27 119.44C161.22 119.44 162.27 121.03 162.27 122.98C162.27 124.93 161.22 126.52 159.27 126.52C157.32 126.52 156.27 124.94 156.27 122.98C156.27 121.02 157.31 119.44 159.27 119.44ZM167.08 132.71H151.45C151.387 132.71 151.324 132.698 151.266 132.674C151.208 132.65 151.155 132.614 151.11 132.57L152.11 129.84C152.422 128.979 152.992 128.235 153.741 127.709C154.491 127.183 155.384 126.901 156.3 126.9H162.21C163.127 126.9 164.022 127.182 164.773 127.708C165.525 128.234 166.096 128.978 166.41 129.84L167.41 132.57C167.367 132.614 167.316 132.649 167.259 132.673C167.203 132.697 167.142 132.71 167.08 132.71Z" fill="white"/>
<path d="M119.66 168.12H109.82C108.979 168.119 108.145 168.283 107.368 168.604C106.59 168.925 105.883 169.397 105.288 169.991C104.693 170.586 104.22 171.292 103.898 172.069C103.576 172.846 103.41 173.679 103.41 174.52V184.36C103.41 186.06 104.085 187.691 105.287 188.893C106.489 190.095 108.12 190.77 109.82 190.77H119.66C120.501 190.77 121.334 190.604 122.111 190.282C122.889 189.96 123.595 189.487 124.189 188.892C124.783 188.297 125.255 187.59 125.576 186.812C125.897 186.035 126.061 185.201 126.06 184.36V174.52C126.061 173.679 125.897 172.846 125.575 172.069C125.254 171.292 124.783 170.586 124.188 169.992C123.594 169.397 122.888 168.926 122.111 168.605C121.334 168.283 120.501 168.119 119.66 168.12ZM114.74 184.81C114.74 184.81 110.74 180.42 110.74 178.18C110.74 177.107 111.166 176.078 111.925 175.32C112.683 174.561 113.712 174.135 114.785 174.135C115.858 174.135 116.887 174.561 117.645 175.32C118.404 176.078 118.83 177.107 118.83 178.18C118.78 180.42 114.74 184.81 114.74 184.81Z" fill="#6E9D3E"/>
<path d="M114.74 176.34C114.373 176.338 114.014 176.445 113.708 176.647C113.403 176.85 113.164 177.139 113.023 177.477C112.881 177.816 112.844 178.189 112.915 178.548C112.986 178.908 113.162 179.239 113.422 179.498C113.681 179.757 114.012 179.934 114.371 180.005C114.731 180.076 115.104 180.038 115.442 179.897C115.781 179.756 116.07 179.517 116.272 179.211C116.475 178.906 116.582 178.547 116.58 178.18C116.58 177.692 116.386 177.224 116.041 176.879C115.696 176.534 115.228 176.34 114.74 176.34Z" fill="#6E9D3E"/>
<g opacity="0.7">
<path d="M119.66 168.12H109.82C108.979 168.119 108.145 168.283 107.368 168.604C106.59 168.925 105.883 169.397 105.288 169.991C104.693 170.586 104.22 171.292 103.898 172.069C103.576 172.846 103.41 173.679 103.41 174.52V184.36C103.41 186.06 104.085 187.691 105.287 188.893C106.489 190.095 108.12 190.77 109.82 190.77H119.66C120.501 190.77 121.334 190.604 122.111 190.282C122.889 189.96 123.595 189.487 124.189 188.892C124.783 188.297 125.255 187.59 125.576 186.812C125.897 186.035 126.061 185.201 126.06 184.36V174.52C126.061 173.679 125.897 172.846 125.575 172.069C125.254 171.292 124.783 170.586 124.188 169.992C123.594 169.397 122.888 168.926 122.111 168.605C121.334 168.283 120.501 168.119 119.66 168.12ZM114.74 184.81C114.74 184.81 110.74 180.42 110.74 178.18C110.74 177.107 111.166 176.078 111.925 175.32C112.683 174.561 113.712 174.135 114.785 174.135C115.858 174.135 116.887 174.561 117.645 175.32C118.404 176.078 118.83 177.107 118.83 178.18C118.78 180.42 114.74 184.81 114.74 184.81Z" fill="white"/>
<path d="M114.74 176.34C114.373 176.338 114.014 176.445 113.708 176.647C113.403 176.85 113.164 177.139 113.023 177.477C112.881 177.816 112.844 178.189 112.915 178.548C112.986 178.908 113.162 179.239 113.422 179.498C113.681 179.757 114.012 179.934 114.371 180.005C114.731 180.076 115.104 180.038 115.442 179.897C115.781 179.756 116.07 179.517 116.272 179.211C116.475 178.906 116.582 178.547 116.58 178.18C116.58 177.692 116.386 177.224 116.041 176.879C115.696 176.534 115.228 176.34 114.74 176.34Z" fill="white"/>
</g>
<path d="M335.7 140.23L342.29 135.97L335.7 131.7V140.23Z" fill="#6E9D3E"/>
<path d="M344.19 124.34H331.63C330.211 124.34 328.85 124.904 327.847 125.907C326.843 126.91 326.28 128.271 326.28 129.69V142.25C326.282 143.668 326.847 145.027 327.85 146.03C328.852 147.033 330.212 147.597 331.63 147.6H344.19C345.609 147.6 346.969 147.036 347.973 146.033C348.976 145.03 349.54 143.669 349.54 142.25V129.69C349.541 128.987 349.404 128.291 349.135 127.641C348.867 126.991 348.473 126.401 347.976 125.904C347.479 125.407 346.888 125.013 346.239 124.744C345.589 124.476 344.893 124.339 344.19 124.34ZM337.91 144.34C336.254 144.34 334.635 143.849 333.259 142.929C331.882 142.008 330.809 140.701 330.176 139.171C329.543 137.641 329.378 135.957 329.701 134.333C330.025 132.709 330.823 131.218 331.995 130.048C333.166 128.878 334.659 128.081 336.283 127.759C337.907 127.438 339.591 127.605 341.12 128.24C342.649 128.875 343.956 129.949 344.874 131.327C345.793 132.705 346.282 134.324 346.28 135.98C346.278 137.078 346.061 138.165 345.64 139.178C345.218 140.192 344.601 141.113 343.824 141.888C343.047 142.664 342.125 143.278 341.11 143.697C340.095 144.116 339.008 144.331 337.91 144.33V144.34Z" fill="#6E9D3E"/>
<g opacity="0.7">
<path d="M335.7 140.23L342.29 135.97L335.7 131.7V140.23Z" fill="white"/>
<path d="M344.19 124.34H331.63C330.211 124.34 328.85 124.904 327.847 125.907C326.843 126.91 326.28 128.271 326.28 129.69V142.25C326.282 143.668 326.847 145.027 327.85 146.03C328.852 147.033 330.212 147.597 331.63 147.6H344.19C345.609 147.6 346.969 147.036 347.973 146.033C348.976 145.03 349.54 143.669 349.54 142.25V129.69C349.541 128.987 349.404 128.291 349.135 127.641C348.867 126.991 348.473 126.401 347.976 125.904C347.479 125.407 346.888 125.013 346.239 124.744C345.589 124.476 344.893 124.339 344.19 124.34ZM337.91 144.34C336.254 144.34 334.635 143.849 333.259 142.929C331.882 142.008 330.809 140.701 330.176 139.171C329.543 137.641 329.378 135.957 329.701 134.333C330.025 132.709 330.823 131.218 331.995 130.048C333.166 128.878 334.659 128.081 336.283 127.759C337.907 127.438 339.591 127.605 341.12 128.24C342.649 128.875 343.956 129.949 344.874 131.327C345.793 132.705 346.282 134.324 346.28 135.98C346.278 137.078 346.061 138.165 345.64 139.178C345.218 140.192 344.601 141.113 343.824 141.888C343.047 142.664 342.125 143.278 341.11 143.697C340.095 144.116 339.008 144.331 337.91 144.33V144.34Z" fill="white"/>
</g>
<path d="M356.52 172.51C356.52 172.25 356.52 171.99 356.52 171.74L358.03 170.9C357.92 170.185 357.732 169.484 357.47 168.81H355.75C355.531 168.341 355.27 167.892 354.97 167.47L355.86 166C355.404 165.436 354.891 164.92 354.33 164.46L352.85 165.35C352.43 165.055 351.985 164.798 351.52 164.58V162.85C350.844 162.594 350.144 162.407 349.43 162.29L348.59 163.8C348.34 163.8 348.08 163.8 347.82 163.8C347.56 163.8 347.31 163.8 347.05 163.8L346.21 162.29C345.497 162.409 344.797 162.597 344.12 162.85V164.58C343.654 164.795 343.209 165.053 342.79 165.35L341.31 164.46C340.743 164.917 340.227 165.433 339.77 166L340.66 167.47C340.367 167.895 340.109 168.343 339.89 168.81H338.17C337.909 169.485 337.718 170.186 337.6 170.9L339.11 171.74C339.11 171.99 339.11 172.25 339.11 172.51C339.11 172.77 339.11 173.03 339.11 173.28L337.6 174.12C337.717 174.835 337.908 175.535 338.17 176.21H339.89C340.109 176.677 340.367 177.125 340.66 177.55L339.77 179.03C340.23 179.591 340.746 180.104 341.31 180.56L342.79 179.67C343.207 179.971 343.652 180.229 344.12 180.44V182.17C344.796 182.428 345.496 182.615 346.21 182.73L347.05 181.22C347.31 181.22 347.56 181.22 347.82 181.22C348.08 181.22 348.34 181.22 348.59 181.22L349.43 182.73C350.145 182.618 350.845 182.43 351.52 182.17V180.44C351.987 180.226 352.432 179.968 352.85 179.67L354.33 180.56C354.889 180.101 355.401 179.589 355.86 179.03L354.97 177.55C355.27 177.128 355.531 176.679 355.75 176.21H357.47C357.734 175.536 357.921 174.835 358.03 174.12L356.52 173.28C356.5 173 356.52 172.77 356.52 172.51ZM347.8 178.43C346.629 178.43 345.485 178.083 344.511 177.432C343.538 176.782 342.779 175.857 342.331 174.776C341.883 173.694 341.765 172.503 341.994 171.355C342.222 170.207 342.786 169.152 343.614 168.324C344.442 167.496 345.497 166.932 346.645 166.704C347.794 166.475 348.984 166.593 350.066 167.041C351.147 167.489 352.072 168.248 352.722 169.221C353.373 170.195 353.72 171.339 353.72 172.51C353.72 174.08 353.096 175.586 351.986 176.696C350.876 177.806 349.37 178.43 347.8 178.43Z" fill="#6E9D3E"/>
<path opacity="0.7" d="M356.52 172.51C356.52 172.25 356.52 171.99 356.52 171.74L358.03 170.9C357.92 170.185 357.732 169.484 357.47 168.81H355.75C355.531 168.341 355.27 167.892 354.97 167.47L355.86 166C355.404 165.436 354.891 164.92 354.33 164.46L352.85 165.35C352.43 165.055 351.985 164.798 351.52 164.58V162.85C350.844 162.594 350.144 162.407 349.43 162.29L348.59 163.8C348.34 163.8 348.08 163.8 347.82 163.8C347.56 163.8 347.31 163.8 347.05 163.8L346.21 162.29C345.497 162.409 344.797 162.597 344.12 162.85V164.58C343.654 164.795 343.209 165.053 342.79 165.35L341.31 164.46C340.743 164.917 340.227 165.433 339.77 166L340.66 167.47C340.367 167.895 340.109 168.343 339.89 168.81H338.17C337.909 169.485 337.718 170.186 337.6 170.9L339.11 171.74C339.11 171.99 339.11 172.25 339.11 172.51C339.11 172.77 339.11 173.03 339.11 173.28L337.6 174.12C337.717 174.835 337.908 175.535 338.17 176.21H339.89C340.109 176.677 340.367 177.125 340.66 177.55L339.77 179.03C340.23 179.591 340.746 180.104 341.31 180.56L342.79 179.67C343.207 179.971 343.652 180.229 344.12 180.44V182.17C344.796 182.428 345.496 182.615 346.21 182.73L347.05 181.22C347.31 181.22 347.56 181.22 347.82 181.22C348.08 181.22 348.34 181.22 348.59 181.22L349.43 182.73C350.145 182.618 350.845 182.43 351.52 182.17V180.44C351.987 180.226 352.432 179.968 352.85 179.67L354.33 180.56C354.889 180.101 355.401 179.589 355.86 179.03L354.97 177.55C355.27 177.128 355.531 176.679 355.75 176.21H357.47C357.734 175.536 357.921 174.835 358.03 174.12L356.52 173.28C356.5 173 356.52 172.77 356.52 172.51ZM347.8 178.43C346.629 178.43 345.485 178.083 344.511 177.432C343.538 176.782 342.779 175.857 342.331 174.776C341.883 173.694 341.765 172.503 341.994 171.355C342.222 170.207 342.786 169.152 343.614 168.324C344.442 167.496 345.497 166.932 346.645 166.704C347.794 166.475 348.984 166.593 350.066 167.041C351.147 167.489 352.072 168.248 352.722 169.221C353.373 170.195 353.72 171.339 353.72 172.51C353.72 174.08 353.096 175.586 351.986 176.696C350.876 177.806 349.37 178.43 347.8 178.43Z" fill="white"/>
<path d="M333.73 202.24C333.73 201.85 333.73 201.47 333.68 201.09L335.94 199.84C335.77 198.767 335.488 197.715 335.1 196.7L332.52 196.75C332.194 196.05 331.806 195.38 331.36 194.75L332.69 192.54C332.009 191.699 331.241 190.931 330.4 190.25L328.19 191.57C327.557 191.131 326.888 190.746 326.19 190.42V187.84C325.179 187.45 324.13 187.169 323.06 187L321.81 189.26C321.43 189.26 321.05 189.26 320.66 189.26C320.27 189.26 319.89 189.26 319.51 189.26L318.29 187C317.22 187.171 316.172 187.453 315.16 187.84V190.42C314.462 190.746 313.793 191.13 313.16 191.57L311 190.25C310.156 190.931 309.385 191.699 308.7 192.54L310.03 194.75C309.587 195.381 309.202 196.05 308.88 196.75L306.3 196.7C305.907 197.713 305.625 198.766 305.46 199.84L307.72 201.09C307.64 201.855 307.64 202.625 307.72 203.39L305.46 204.65C305.626 205.721 305.908 206.77 306.3 207.78L308.88 207.73C309.2 208.431 309.585 209.101 310.03 209.73L308.7 211.94C309.385 212.781 310.156 213.549 311 214.23L313.21 212.91C313.84 213.353 314.51 213.738 315.21 214.06V216.64C316.22 217.032 317.269 217.313 318.34 217.48L319.6 215.22C320.365 215.3 321.135 215.3 321.9 215.22L323.15 217.48C324.221 217.316 325.271 217.034 326.28 216.64V214.06C326.98 213.738 327.649 213.353 328.28 212.91L330.49 214.23C331.331 213.549 332.099 212.781 332.78 211.94L331.45 209.73C331.898 209.101 332.286 208.431 332.61 207.73L335.19 207.78C335.577 206.768 335.859 205.72 336.03 204.65L333.77 203.39C333.71 203 333.73 202.63 333.73 202.24ZM320.73 207.38C319.713 207.38 318.72 207.079 317.874 206.514C317.029 205.949 316.37 205.146 315.981 204.207C315.592 203.268 315.49 202.234 315.689 201.237C315.887 200.24 316.377 199.324 317.095 198.605C317.814 197.887 318.73 197.397 319.727 197.199C320.724 197 321.758 197.102 322.697 197.491C323.636 197.88 324.439 198.539 325.004 199.384C325.569 200.23 325.87 201.223 325.87 202.24C325.87 202.918 325.736 203.588 325.476 204.214C325.216 204.84 324.834 205.407 324.354 205.885C323.873 206.363 323.303 206.741 322.676 206.997C322.049 207.254 321.377 207.384 320.7 207.38H320.73Z" fill="#6E9D3E"/>
<path opacity="0.7" d="M333.73 202.24C333.73 201.85 333.73 201.47 333.68 201.09L335.94 199.84C335.77 198.767 335.488 197.715 335.1 196.7L332.52 196.75C332.194 196.05 331.806 195.38 331.36 194.75L332.69 192.54C332.009 191.699 331.241 190.931 330.4 190.25L328.19 191.57C327.557 191.131 326.888 190.746 326.19 190.42V187.84C325.179 187.45 324.13 187.169 323.06 187L321.81 189.26C321.43 189.26 321.05 189.26 320.66 189.26C320.27 189.26 319.89 189.26 319.51 189.26L318.29 187C317.22 187.171 316.172 187.453 315.16 187.84V190.42C314.462 190.746 313.793 191.13 313.16 191.57L311 190.25C310.156 190.931 309.385 191.699 308.7 192.54L310.03 194.75C309.587 195.381 309.202 196.05 308.88 196.75L306.3 196.7C305.907 197.713 305.625 198.766 305.46 199.84L307.72 201.09C307.64 201.855 307.64 202.625 307.72 203.39L305.46 204.65C305.626 205.721 305.908 206.77 306.3 207.78L308.88 207.73C309.2 208.431 309.585 209.101 310.03 209.73L308.7 211.94C309.385 212.781 310.156 213.549 311 214.23L313.21 212.91C313.84 213.353 314.51 213.738 315.21 214.06V216.64C316.22 217.032 317.269 217.313 318.34 217.48L319.6 215.22C320.365 215.3 321.135 215.3 321.9 215.22L323.15 217.48C324.221 217.316 325.271 217.034 326.28 216.64V214.06C326.98 213.738 327.649 213.353 328.28 212.91L330.49 214.23C331.331 213.549 332.099 212.781 332.78 211.94L331.45 209.73C331.898 209.101 332.286 208.431 332.61 207.73L335.19 207.78C335.577 206.768 335.859 205.72 336.03 204.65L333.77 203.39C333.71 203 333.73 202.63 333.73 202.24ZM320.73 207.38C319.713 207.38 318.72 207.079 317.874 206.514C317.029 205.949 316.37 205.146 315.981 204.207C315.592 203.268 315.49 202.234 315.689 201.237C315.887 200.24 316.377 199.324 317.095 198.605C317.814 197.887 318.73 197.397 319.727 197.199C320.724 197 321.758 197.102 322.697 197.491C323.636 197.88 324.439 198.539 325.004 199.384C325.569 200.23 325.87 201.223 325.87 202.24C325.87 202.918 325.736 203.588 325.476 204.214C325.216 204.84 324.834 205.407 324.354 205.885C323.873 206.363 323.303 206.741 322.676 206.997C322.049 207.254 321.377 207.384 320.7 207.38H320.73Z" fill="white"/>
<path d="M297 144.26V149.5L292 152.13C291.806 152.234 291.643 152.389 291.53 152.578C291.417 152.768 291.357 152.984 291.357 153.205C291.357 153.425 291.417 153.642 291.53 153.831C291.643 154.02 291.806 154.175 292 154.28L297 156.91V162.15C297 162.709 297.222 163.246 297.618 163.642C298.014 164.037 298.55 164.26 299.11 164.26H317C317.561 164.26 318.098 164.038 318.496 163.642C318.893 163.247 319.117 162.71 319.12 162.15V144.26C319.12 143.697 318.897 143.158 318.499 142.761C318.102 142.363 317.562 142.14 317 142.14H299.08C298.524 142.148 297.993 142.375 297.604 142.772C297.214 143.169 296.997 143.703 297 144.26Z" fill="#6E9D3E"/>
<g opacity="0.9">
<path d="M303.12 149.72H313.29C313.622 149.72 313.94 149.588 314.174 149.354C314.408 149.119 314.54 148.801 314.54 148.47C314.54 148.138 314.408 147.82 314.174 147.586C313.94 147.351 313.622 147.22 313.29 147.22H303.12C302.789 147.22 302.471 147.351 302.236 147.586C302.002 147.82 301.87 148.138 301.87 148.47C301.87 148.801 302.002 149.119 302.236 149.354C302.471 149.588 302.789 149.72 303.12 149.72Z" fill="white"/>
<path d="M313.29 152H303.12C302.789 152 302.471 152.132 302.236 152.366C302.002 152.601 301.87 152.918 301.87 153.25C301.87 153.582 302.002 153.899 302.236 154.134C302.471 154.368 302.789 154.5 303.12 154.5H313.29C313.622 154.5 313.94 154.368 314.174 154.134C314.408 153.899 314.54 153.582 314.54 153.25C314.54 152.918 314.408 152.601 314.174 152.366C313.94 152.132 313.622 152 313.29 152Z" fill="white"/>
<path d="M313.29 156.689H303.12C302.789 156.689 302.471 156.821 302.236 157.056C302.002 157.29 301.87 157.608 301.87 157.939C301.87 158.271 302.002 158.589 302.236 158.823C302.471 159.058 302.789 159.189 303.12 159.189H313.29C313.622 159.189 313.94 159.058 314.174 158.823C314.408 158.589 314.54 158.271 314.54 157.939C314.54 157.608 314.408 157.29 314.174 157.056C313.94 156.821 313.622 156.689 313.29 156.689Z" fill="white"/>
</g>
<path d="M195.9 136H200.17L202.37 140.17C202.515 140.442 202.731 140.669 202.995 140.828C203.26 140.986 203.562 141.07 203.87 141.07C204.178 141.07 204.481 140.986 204.745 140.828C205.009 140.669 205.225 140.442 205.37 140.17L207.57 136H211.84C212.245 136 212.647 135.92 213.021 135.765C213.395 135.609 213.735 135.381 214.022 135.094C214.308 134.807 214.534 134.467 214.689 134.092C214.843 133.717 214.921 133.315 214.92 132.91V117C214.92 116.183 214.596 115.4 214.018 114.822C213.44 114.244 212.657 113.92 211.84 113.92H195.9C195.495 113.919 195.094 113.997 194.72 114.152C194.346 114.306 194.006 114.533 193.719 114.819C193.433 115.105 193.206 115.445 193.052 115.82C192.898 116.194 192.819 116.595 192.82 117V133C192.841 133.803 193.175 134.566 193.75 135.126C194.325 135.687 195.097 136 195.9 136Z" fill="#6E9D3E"/>
<path opacity="0.9" d="M203.88 118.689L198.96 121.569V129.989H202.62V124.339H205.15V129.989H208.81V121.569L203.88 118.689Z" fill="white"/>
<path d="M243.8 364.79H240L237.55 360.13C237.429 359.904 237.248 359.716 237.028 359.585C236.808 359.453 236.556 359.384 236.3 359.384C236.044 359.384 235.792 359.453 235.572 359.585C235.352 359.716 235.172 359.904 235.05 360.13L232.6 364.79H228.7C227.769 364.79 226.876 365.16 226.218 365.818C225.56 366.476 225.19 367.369 225.19 368.3V383.4C225.19 384.331 225.56 385.224 226.218 385.882C226.876 386.54 227.769 386.91 228.7 386.91H243.8C244.731 386.91 245.624 386.54 246.282 385.882C246.94 385.224 247.31 384.331 247.31 383.4V368.3C247.31 367.369 246.94 366.476 246.282 365.818C245.624 365.16 244.731 364.79 243.8 364.79Z" fill="#6E9D3E"/>
<path opacity="0.9" d="M238.39 370.56C237.657 369.826 236.73 369.317 235.717 369.091C234.705 368.865 233.649 368.932 232.673 369.285C231.698 369.637 230.843 370.26 230.208 371.081C229.574 371.902 229.187 372.886 229.091 373.919C228.996 374.952 229.197 375.991 229.671 376.914C230.145 377.836 230.872 378.605 231.767 379.13C232.661 379.655 233.687 379.914 234.724 379.876C235.761 379.839 236.765 379.508 237.62 378.92C237.662 379.168 237.777 379.398 237.95 379.58L241.35 382.97C241.58 383.2 241.891 383.328 242.215 383.328C242.54 383.328 242.851 383.2 243.08 382.97C243.31 382.741 243.438 382.43 243.438 382.105C243.438 381.781 243.31 381.47 243.08 381.24L239.69 377.85C239.508 377.67 239.274 377.551 239.02 377.51C239.739 376.459 240.069 375.19 239.955 373.922C239.84 372.654 239.286 371.465 238.39 370.56ZM237.23 377.13C236.694 377.665 236.012 378.03 235.269 378.177C234.526 378.324 233.756 378.248 233.057 377.958C232.357 377.668 231.76 377.177 231.339 376.547C230.918 375.918 230.694 375.177 230.694 374.42C230.694 373.663 230.918 372.923 231.339 372.293C231.76 371.663 232.357 371.172 233.057 370.882C233.756 370.592 234.526 370.516 235.269 370.663C236.012 370.811 236.694 371.175 237.23 371.71C237.586 372.066 237.869 372.488 238.062 372.953C238.255 373.418 238.354 373.917 238.354 374.42C238.354 374.924 238.255 375.422 238.062 375.887C237.869 376.352 237.586 376.774 237.23 377.13Z" fill="white"/>
<path d="M405.29 264.229C405.29 264.229 397.14 284.429 389.16 286.609C381.18 288.789 369.16 287.019 369.16 287.019L365.44 288.019L361.79 287.479H361.66L357.55 287.379C357.402 287.392 357.253 287.361 357.121 287.292C356.99 287.223 356.881 287.117 356.807 286.988C356.734 286.859 356.699 286.711 356.706 286.562C356.714 286.414 356.764 286.27 356.85 286.149L358.32 284.149C358.443 283.985 358.614 283.863 358.81 283.799L362.73 282.539C362.885 282.505 363.045 282.505 363.2 282.539L369.2 283.489C369.2 283.489 385.85 280.759 387.55 279.219C389.25 277.679 394.26 261.529 394.26 261.529L405.29 264.229Z" fill="#EEC1BB"/>
<path opacity="0.1" d="M369.57 283.359L369.18 283.419L363.18 282.469C363.025 282.435 362.865 282.435 362.71 282.469L358.79 283.729C358.594 283.793 358.423 283.915 358.3 284.079L356.83 286.079C356.744 286.2 356.694 286.344 356.686 286.492C356.678 286.641 356.714 286.788 356.787 286.918C356.861 287.047 356.97 287.153 357.101 287.222C357.233 287.291 357.382 287.322 357.53 287.309L361.64 287.409H361.77L364.22 287.769C366.31 286.716 368.137 285.21 369.57 283.359Z" fill="black"/>
<path d="M410.21 244.219C404.29 242.279 395.96 246.729 392.77 265.369L405.06 268.999C405.06 268.999 418.67 246.999 410.21 244.219Z" fill="#6E9D3E"/>
<path d="M375.77 219.859C375.77 220.479 376.1 220.969 376.5 220.969C376.9 220.969 377.25 220.439 377.22 219.839C377.19 219.239 376.89 218.739 376.49 218.749C376.09 218.759 375.77 219.249 375.77 219.859Z" fill="#263238"/>
<path d="M378.19 220.47L375.28 225.28C375.28 225.28 376.28 226.42 378.47 225.58L378.19 220.47Z" fill="#D4827D"/>
<path d="M378.74 216C378.704 216.04 378.659 216.071 378.608 216.088C378.557 216.106 378.503 216.11 378.45 216.1C378.056 216.033 377.652 216.06 377.271 216.18C376.89 216.3 376.544 216.509 376.26 216.79C376.199 216.847 376.118 216.879 376.035 216.879C375.951 216.879 375.871 216.847 375.81 216.79C375.752 216.727 375.72 216.645 375.72 216.56C375.72 216.475 375.752 216.393 375.81 216.33C376.163 215.969 376.599 215.699 377.08 215.544C377.561 215.389 378.072 215.353 378.57 215.44C378.612 215.445 378.653 215.458 378.69 215.479C378.727 215.5 378.759 215.528 378.785 215.561C378.811 215.595 378.83 215.633 378.841 215.674C378.853 215.715 378.855 215.758 378.85 215.8C378.835 215.876 378.796 215.946 378.74 216Z" fill="#263238"/>
<path d="M399.3 215.5C399.75 223.63 400.12 227.07 396.53 231.69C390.8 236.64 381.04 237.43 378.16 229.6C375.57 222.6 375.27 210.47 382.79 206.28C384.066 205.569 385.469 205.117 386.919 204.949C388.37 204.781 389.839 204.9 391.243 205.301C392.648 205.701 393.959 206.374 395.103 207.282C396.247 208.189 397.201 209.313 397.91 210.59C398.742 212.099 399.217 213.779 399.3 215.5Z" fill="#EEC1BB"/>
<path d="M387.97 233.29L390.03 245.34L400.07 243.02L396.56 230.72L387.97 233.29Z" fill="#EEC1BB"/>
<path d="M380.74 216.1C381.25 210.82 379.43 216.92 376.99 209.95C374.55 202.98 386.08 197.32 387.92 198.62C389.76 199.92 388.71 201.91 394.81 203.04C396.474 203.304 397.985 204.165 399.06 205.463C400.135 206.761 400.7 208.405 400.65 210.09C400.65 210.09 404.16 211.71 402.91 219.25C401.993 224.081 399.936 228.623 396.91 232.5C396.91 232.5 394.6 230.12 390.91 232.31C389.47 231.37 388.252 230.128 387.34 228.67C385.7 226.21 385.19 223.87 382.94 223.67C378.24 223.24 380.57 217.84 380.74 216.1Z" fill="#263238"/>
<path d="M400 210.999C400 210.999 405 207.939 402.78 204.729C400.56 201.519 401.63 208.269 400 210.999Z" fill="#263238"/>
<path d="M382.17 219.17C381.061 220.409 380.489 222.039 380.58 223.7C380.72 225.9 382.88 226.29 384.58 225.09C386.28 223.89 387.89 221.55 386.91 219.62C386.693 219.198 386.373 218.839 385.98 218.573C385.588 218.308 385.135 218.145 384.663 218.101C384.191 218.056 383.716 218.13 383.28 218.317C382.844 218.504 382.463 218.797 382.17 219.17Z" fill="#FFC3BD"/>
<path opacity="0.1" d="M388.16 234.43L388.98 239.21C388.908 238.026 389.07 236.84 389.458 235.719C389.846 234.599 390.452 233.566 391.24 232.68C390.627 232.719 390.032 232.897 389.498 233.2C388.965 233.503 388.507 233.924 388.16 234.43Z" fill="black"/>
<path d="M317.57 265.51H314.7V282.44H317.57V265.51Z" fill="#6E9D3E"/>
<path opacity="0.7" d="M317.57 265.51H314.7V282.44H317.57V265.51Z" fill="white"/>
<path d="M297.85 231.89H290.7C289.414 231.89 288.18 232.401 287.27 233.31C286.361 234.22 285.85 235.453 285.85 236.74V269.87C285.85 270.507 285.975 271.137 286.219 271.726C286.463 272.314 286.82 272.849 287.27 273.299C287.721 273.749 288.255 274.107 288.844 274.35C289.432 274.594 290.063 274.72 290.7 274.72H297.85V231.89Z" fill="#6E9D3E"/>
<path d="M341.58 231.89H293.2C290.521 231.89 288.35 234.061 288.35 236.74V269.86C288.35 272.538 290.521 274.71 293.2 274.71H341.58C344.258 274.71 346.43 272.538 346.43 269.86V236.74C346.43 234.061 344.258 231.89 341.58 231.89Z" fill="#6E9D3E"/>
<path opacity="0.5" d="M341.58 231.89H293.2C290.521 231.89 288.35 234.061 288.35 236.74V269.86C288.35 272.538 290.521 274.71 293.2 274.71H341.58C344.258 274.71 346.43 272.538 346.43 269.86V236.74C346.43 234.061 344.258 231.89 341.58 231.89Z" fill="white"/>
<path d="M341.58 233.89H293.2C291.626 233.89 290.35 235.166 290.35 236.74V269.86C290.35 271.434 291.626 272.71 293.2 272.71H341.58C343.154 272.71 344.43 271.434 344.43 269.86V236.74C344.43 235.166 343.154 233.89 341.58 233.89Z" fill="#263238"/>
<path d="M305.69 289.54C305.774 286.826 306.911 284.251 308.861 282.36C310.81 280.47 313.419 279.413 316.135 279.413C318.85 279.413 321.459 280.47 323.409 282.36C325.359 284.251 326.496 286.826 326.58 289.54H305.69Z" fill="#6E9D3E"/>
<path d="M330.34 285.979H309.45V289.369H351.23V287.979L330.34 285.979Z" fill="#6E9D3E"/>
<path opacity="0.8" d="M330.34 285.979H309.45V289.369H351.23V287.979L330.34 285.979Z" fill="white"/>
<path d="M330.34 289.369H309.45V285.979L330.34 287.979V289.369Z" fill="#6E9D3E"/>
<path opacity="0.6" d="M330.34 289.369H309.45V285.979L330.34 287.979V289.369Z" fill="white"/>
<path d="M376.4 406.08H333.31C332.45 406.081 331.599 405.913 330.804 405.585C330.01 405.257 329.287 404.775 328.679 404.168C328.071 403.561 327.588 402.839 327.259 402.045C326.929 401.251 326.76 400.4 326.76 399.54V300.46C326.76 299.6 326.929 298.749 327.259 297.955C327.588 297.161 328.071 296.439 328.679 295.832C329.287 295.224 330.01 294.743 330.804 294.415C331.599 294.087 332.45 293.919 333.31 293.92H376.4C376.864 293.92 377.309 294.104 377.637 294.432C377.966 294.761 378.15 295.206 378.15 295.67C378.15 296.134 377.966 296.579 377.637 296.907C377.309 297.236 376.864 297.42 376.4 297.42H333.31C332.912 297.413 332.516 297.486 332.147 297.634C331.777 297.782 331.44 298.001 331.156 298.281C330.872 298.56 330.647 298.893 330.493 299.26C330.339 299.627 330.26 300.022 330.26 300.42V399.5C330.26 399.898 330.339 400.292 330.493 400.66C330.647 401.027 330.872 401.36 331.156 401.639C331.44 401.918 331.777 402.138 332.147 402.286C332.516 402.434 332.912 402.507 333.31 402.5H376.4C376.864 402.5 377.309 402.684 377.637 403.012C377.966 403.341 378.15 403.786 378.15 404.25C378.161 404.486 378.124 404.723 378.04 404.944C377.957 405.166 377.83 405.368 377.667 405.539C377.503 405.71 377.306 405.847 377.089 405.939C376.871 406.032 376.637 406.08 376.4 406.08Z" fill="#263238"/>
<g opacity="0.5">
<path d="M376.4 406.08H333.31C332.45 406.081 331.599 405.913 330.804 405.585C330.01 405.257 329.287 404.775 328.679 404.168C328.071 403.561 327.588 402.839 327.259 402.045C326.929 401.251 326.76 400.4 326.76 399.54V300.46C326.76 299.6 326.929 298.749 327.259 297.955C327.588 297.161 328.071 296.439 328.679 295.832C329.287 295.224 330.01 294.743 330.804 294.415C331.599 294.087 332.45 293.919 333.31 293.92H376.4C376.864 293.92 377.309 294.104 377.637 294.432C377.966 294.761 378.15 295.206 378.15 295.67C378.15 296.134 377.966 296.579 377.637 296.907C377.309 297.236 376.864 297.42 376.4 297.42H333.31C332.912 297.413 332.516 297.486 332.147 297.634C331.777 297.782 331.44 298.001 331.156 298.281C330.872 298.56 330.647 298.893 330.493 299.26C330.339 299.627 330.26 300.022 330.26 300.42V399.5C330.26 399.898 330.339 400.292 330.493 400.66C330.647 401.027 330.872 401.36 331.156 401.639C331.44 401.918 331.777 402.138 332.147 402.286C332.516 402.434 332.912 402.507 333.31 402.5H376.4C376.864 402.5 377.309 402.684 377.637 403.012C377.966 403.341 378.15 403.786 378.15 404.25C378.161 404.486 378.124 404.723 378.04 404.944C377.957 405.166 377.83 405.368 377.667 405.539C377.503 405.71 377.306 405.847 377.089 405.939C376.871 406.032 376.637 406.08 376.4 406.08Z" fill="white"/>
</g>
<path d="M333.14 289.369H271.95V294.499H333.14V289.369Z" fill="#6E9D3E"/>
<path opacity="0.2" d="M333.14 289.369H271.95V294.499H333.14V289.369Z" fill="white"/>
<path d="M382.53 289.369H330.34V294.499H382.53V289.369Z" fill="#6E9D3E"/>
<path opacity="0.5" d="M382.53 289.369H330.34V294.499H382.53V289.369Z" fill="white"/>
<path d="M364.23 369.729L367.12 398.949H360.2L353.27 370.489L364.23 369.729Z" fill="#EEC1BB"/>
<path d="M359.55 396.999L368.38 397.149C368.541 397.153 368.696 397.211 368.82 397.315C368.944 397.418 369.028 397.561 369.06 397.719L370.54 404.929C370.602 405.235 370.542 405.554 370.372 405.816C370.201 406.077 369.935 406.262 369.63 406.329H369.38C366.19 406.219 363.38 405.999 359.38 405.929C354.71 405.849 355.88 406.429 350.38 406.419C347.07 406.419 346.53 402.629 347.93 402.469C354.38 401.769 355.08 399.839 357.6 397.579C358.157 397.153 358.851 396.947 359.55 396.999Z" fill="#263238"/>
<path opacity="0.1" d="M366.37 391.319L364.23 369.729L353.27 370.489L358.34 391.319H366.37Z" fill="black"/>
<path d="M411.61 302.359L383.23 303.359C383.23 303.359 345 316.729 344 326.999C342.9 337.579 355.74 386.189 355.74 386.189H367.15C367.15 386.189 364 350.519 362.8 339.599C361.6 328.679 402.59 332.289 409.71 322.979C416.22 314.439 411.61 302.359 411.61 302.359Z" fill="#263238"/>
<path opacity="0.2" d="M411.61 302.359L383.23 303.359C383.23 303.359 345 316.729 344 326.999C342.9 337.579 355.74 386.189 355.74 386.189H367.15C367.15 386.189 364 350.519 362.8 339.599C361.6 328.679 402.59 332.289 409.71 322.979C416.22 314.439 411.61 302.359 411.61 302.359Z" fill="black"/>
<path d="M369.05 384.59L369.3 388.62H355.2L353.82 384.59H369.05Z" fill="#6E9D3E"/>
<path d="M337.82 371.119L338.58 398.949H331.78L327.75 371.119H337.82Z" fill="#EEC1BB"/>
<path d="M330.84 397L339.67 397.15C339.831 397.153 339.986 397.212 340.11 397.315C340.234 397.419 340.318 397.562 340.35 397.72L341.83 404.93C341.892 405.236 341.832 405.554 341.662 405.816C341.491 406.078 341.225 406.262 340.92 406.33H340.67C337.48 406.22 334.67 406 330.67 405.93C325.99 405.85 327.17 406.43 321.67 406.42C318.36 406.42 317.82 402.63 319.22 402.47C325.67 401.77 326.37 399.84 328.89 397.58C329.446 397.152 330.141 396.946 330.84 397Z" fill="#263238"/>
<path opacity="0.1" d="M338.37 391.299L337.82 371.119H327.75L330.68 391.319C332.87 391.329 335.88 391.309 338.37 391.299Z" fill="black"/>
<path d="M399.27 304.709C399.27 304.709 401.63 326.289 379.68 327.299C357.73 328.309 340.59 330.819 340.09 338.629C339.59 346.439 340.09 386.229 340.09 386.229H328.16C328.16 386.229 323.52 361.069 321.71 345.469C319.95 330.319 316.71 319.329 332.28 314.199C348.81 308.739 378.19 303.699 378.19 303.699L399.35 302.359L399.27 304.709Z" fill="#263238"/>
<path d="M341.85 384.59L341.1 388.62H328L326.62 384.59H341.85Z" fill="#6E9D3E"/>
<path d="M404 242.8C404 242.8 404 237.94 394.17 238.5C383.73 239.1 385.7 243.76 385.7 243.76L404 242.8Z" fill="#6E9D3E"/>
<path opacity="0.3" d="M404 242.8C404 242.8 404 237.94 394.17 238.5C383.73 239.1 385.7 243.76 385.7 243.76L404 242.8Z" fill="black"/>
<path d="M413.16 264.6C412.5 274.21 412.73 303.12 412.73 303.12C412.73 303.12 391.73 304.5 375.25 303.96L373.34 248.35C373.347 247.367 373.651 246.408 374.211 245.6C374.771 244.792 375.562 244.172 376.48 243.82C381.14 242.01 392.08 239.96 409.19 242.21C415.09 243 413.94 253.24 413.16 264.6Z" fill="#6E9D3E"/>
<path d="M376.71 264.229C376.71 264.229 368.55 284.429 360.58 286.609C352.61 288.789 340.58 287.019 340.58 287.019L336.86 288.019L333.22 287.479H333.09L328.97 287.379C328.822 287.392 328.673 287.361 328.541 287.292C328.41 287.223 328.301 287.117 328.227 286.988C328.154 286.859 328.118 286.711 328.126 286.562C328.134 286.414 328.183 286.27 328.27 286.149L329.75 284.149C329.873 283.985 330.044 283.863 330.24 283.799L334.15 282.539C334.308 282.505 334.472 282.505 334.63 282.539L340.63 283.489C340.63 283.489 357.28 280.759 358.97 279.219C360.66 277.679 365.69 261.529 365.69 261.529L376.71 264.229Z" fill="#EEC1BB"/>
<path opacity="0.1" d="M376.5 254.83C376.5 254.83 375.23 256.34 373.69 258.52L374.24 274.62C380.37 271.91 382.8 256.13 382.8 256.13L378.8 253.31L376.5 254.83Z" fill="black"/>
<path d="M381.63 244.219C375.71 242.279 367.37 246.729 364.18 265.369L376.48 268.959C376.48 268.959 390.09 246.999 381.63 244.219Z" fill="#6E9D3E"/>
<path d="M389.46 337.77H380.21V364.88H389.46V337.77Z" fill="#263238"/>
<path opacity="0.6" d="M389.46 337.77H380.21V364.88H389.46V337.77Z" fill="white"/>
<path d="M390.89 389.44V355H378.77V389.44L351.18 393.27V397.1L384.83 394.23L418.48 397.1V393.27L390.89 389.44Z" fill="#263238"/>
<path d="M350.78 406.489C352.796 406.489 354.43 404.855 354.43 402.839C354.43 400.824 352.796 399.189 350.78 399.189C348.764 399.189 347.13 400.824 347.13 402.839C347.13 404.855 348.764 406.489 350.78 406.489Z" fill="#6E9D3E"/>
<path d="M418.48 406.489C420.496 406.489 422.13 404.855 422.13 402.839C422.13 400.824 420.496 399.189 418.48 399.189C416.464 399.189 414.83 400.824 414.83 402.839C414.83 404.855 416.464 406.489 418.48 406.489Z" fill="#6E9D3E"/>
<path d="M384.83 406.489C386.846 406.489 388.48 404.855 388.48 402.839C388.48 400.824 386.846 399.189 384.83 399.189C382.814 399.189 381.18 400.824 381.18 402.839C381.18 404.855 382.814 406.489 384.83 406.489Z" fill="#6E9D3E"/>
<path opacity="0.3" d="M389.46 337.77H380.21V344.47H389.46V337.77Z" fill="black"/>
<path d="M421.4 276.319H391.26C388.891 276.321 386.607 277.207 384.856 278.803C383.105 280.399 382.012 282.59 381.79 284.949L379.25 312.179C378.968 315.18 377.616 317.98 375.44 320.065C373.264 322.151 370.41 323.384 367.4 323.539L338.31 324.999C336.608 325.086 335.004 325.824 333.829 327.06C332.655 328.295 332 329.935 332 331.639V332.249C332 333.711 332.581 335.112 333.614 336.145C334.647 337.179 336.049 337.759 337.51 337.759H426.1L430.87 286.759C430.998 285.438 430.849 284.105 430.431 282.845C430.014 281.585 429.338 280.426 428.446 279.443C427.554 278.46 426.467 277.674 425.253 277.136C424.04 276.598 422.727 276.32 421.4 276.319Z" fill="#6E9D3E"/>
<path opacity="0.3" d="M421.4 276.319H391.26C388.891 276.321 386.607 277.207 384.856 278.803C383.105 280.399 382.012 282.59 381.79 284.949L379.25 312.179C378.968 315.18 377.616 317.98 375.44 320.065C373.264 322.151 370.41 323.384 367.4 323.539L338.31 324.999C336.608 325.086 335.004 325.824 333.829 327.06C332.655 328.295 332 329.935 332 331.639V332.249C332 333.711 332.581 335.112 333.614 336.145C334.647 337.179 336.049 337.759 337.51 337.759H426.1L430.87 286.759C430.998 285.438 430.849 284.105 430.431 282.845C430.014 281.585 429.338 280.426 428.446 279.443C427.554 278.46 426.467 277.674 425.253 277.136C424.04 276.598 422.727 276.32 421.4 276.319Z" fill="white"/>
<path d="M352.22 307H356.37V328.71C356.37 329.24 356.159 329.749 355.784 330.124C355.409 330.499 354.9 330.71 354.37 330.71H354.22C353.69 330.71 353.181 330.499 352.806 330.124C352.431 329.749 352.22 329.24 352.22 328.71V307Z" fill="#263238"/>
<path opacity="0.2" d="M352.22 307H356.37V328.71C356.37 329.24 356.159 329.749 355.784 330.124C355.409 330.499 354.9 330.71 354.37 330.71H354.22C353.69 330.71 353.181 330.499 352.806 330.124C352.431 329.749 352.22 329.24 352.22 328.71V307Z" fill="white"/>
<path d="M372.23 300.77H363V308.42H372.25C372.769 308.446 373.287 308.367 373.775 308.187C374.262 308.006 374.707 307.729 375.084 307.371C375.46 307.013 375.76 306.583 375.965 306.105C376.17 305.628 376.276 305.114 376.276 304.595C376.276 304.075 376.17 303.561 375.965 303.084C375.76 302.607 375.46 302.176 375.084 301.818C374.707 301.46 374.262 301.183 373.775 301.003C373.287 300.822 372.769 300.743 372.25 300.77H372.23Z" fill="#6E9D3E"/>
<path opacity="0.5" d="M372.23 300.77H363V308.42H372.25C372.769 308.446 373.287 308.367 373.775 308.187C374.262 308.006 374.707 307.729 375.084 307.371C375.46 307.013 375.76 306.583 375.965 306.105C376.17 305.628 376.276 305.114 376.276 304.595C376.276 304.075 376.17 303.561 375.965 303.084C375.76 302.607 375.46 302.176 375.084 301.818C374.707 301.46 374.262 301.183 373.775 301.003C373.287 300.822 372.769 300.743 372.25 300.77H372.23Z" fill="white"/>
<path d="M368.54 300.77H336.21C334.172 300.77 332.52 302.422 332.52 304.46V304.74C332.52 306.777 334.172 308.43 336.21 308.43H368.54C370.578 308.43 372.23 306.777 372.23 304.74V304.46C372.23 302.422 370.578 300.77 368.54 300.77Z" fill="#6E9D3E"/>
<path opacity="0.3" d="M368.54 300.77H336.21C334.172 300.77 332.52 302.422 332.52 304.46V304.74C332.52 306.777 334.172 308.43 336.21 308.43H368.54C370.578 308.43 372.23 306.777 372.23 304.74V304.46C372.23 302.422 370.578 300.77 368.54 300.77Z" fill="white"/>
<path d="M428.18 337.769H383.87L388.81 284.999C389.031 282.64 390.125 280.449 391.876 278.853C393.627 277.257 395.911 276.371 398.28 276.369H428.42C429.743 276.37 431.052 276.648 432.263 277.183C433.473 277.719 434.559 278.501 435.45 279.48C436.341 280.458 437.018 281.612 437.438 282.867C437.858 284.122 438.012 285.451 437.89 286.769L433.58 332.909C433.439 334.243 432.809 335.478 431.812 336.375C430.815 337.273 429.521 337.769 428.18 337.769Z" fill="#6E9D3E"/>
<path opacity="0.5" d="M428.18 337.769H383.87L388.81 284.999C389.031 282.64 390.125 280.449 391.876 278.853C393.627 277.257 395.911 276.371 398.28 276.369H428.42C429.743 276.37 431.052 276.648 432.263 277.183C433.473 277.719 434.559 278.501 435.45 279.48C436.341 280.458 437.018 281.612 437.438 282.867C437.858 284.122 438.012 285.451 437.89 286.769L433.58 332.909C433.439 334.243 432.809 335.478 431.812 336.375C430.815 337.273 429.521 337.769 428.18 337.769Z" fill="white"/>
<path d="M324.67 406.08H281.58C280.72 406.081 279.869 405.913 279.074 405.585C278.28 405.257 277.557 404.775 276.949 404.168C276.341 403.561 275.858 402.839 275.529 402.045C275.2 401.251 275.03 400.4 275.03 399.54V300.46C275.03 299.6 275.2 298.749 275.529 297.955C275.858 297.161 276.341 296.439 276.949 295.832C277.557 295.224 278.28 294.743 279.074 294.415C279.869 294.087 280.72 293.919 281.58 293.92H324.67C325.134 293.92 325.579 294.104 325.907 294.432C326.236 294.761 326.42 295.206 326.42 295.67C326.42 296.134 326.236 296.579 325.907 296.907C325.579 297.236 325.134 297.42 324.67 297.42H281.58C281.182 297.413 280.786 297.486 280.417 297.634C280.047 297.782 279.71 298.001 279.426 298.281C279.142 298.56 278.917 298.893 278.763 299.26C278.609 299.627 278.53 300.022 278.53 300.42V399.5C278.53 399.898 278.609 400.292 278.763 400.66C278.917 401.027 279.142 401.36 279.426 401.639C279.71 401.918 280.047 402.138 280.417 402.286C280.786 402.434 281.182 402.507 281.58 402.5H324.67C325.134 402.5 325.579 402.684 325.907 403.012C326.236 403.341 326.42 403.786 326.42 404.25C326.431 404.486 326.394 404.723 326.311 404.944C326.227 405.166 326.1 405.368 325.937 405.539C325.773 405.71 325.576 405.847 325.359 405.939C325.141 406.032 324.907 406.08 324.67 406.08Z" fill="#263238"/>
<g opacity="0.5">
<path d="M324.67 406.08H281.58C280.72 406.081 279.869 405.913 279.074 405.585C278.28 405.257 277.557 404.775 276.949 404.168C276.341 403.561 275.858 402.839 275.529 402.045C275.2 401.251 275.03 400.4 275.03 399.54V300.46C275.03 299.6 275.2 298.749 275.529 297.955C275.858 297.161 276.341 296.439 276.949 295.832C277.557 295.224 278.28 294.743 279.074 294.415C279.869 294.087 280.72 293.919 281.58 293.92H324.67C325.134 293.92 325.579 294.104 325.907 294.432C326.236 294.761 326.42 295.206 326.42 295.67C326.42 296.134 326.236 296.579 325.907 296.907C325.579 297.236 325.134 297.42 324.67 297.42H281.58C281.182 297.413 280.786 297.486 280.417 297.634C280.047 297.782 279.71 298.001 279.426 298.281C279.142 298.56 278.917 298.893 278.763 299.26C278.609 299.627 278.53 300.022 278.53 300.42V399.5C278.53 399.898 278.609 400.292 278.763 400.66C278.917 401.027 279.142 401.36 279.426 401.639C279.71 401.918 280.047 402.138 280.417 402.286C280.786 402.434 281.182 402.507 281.58 402.5H324.67C325.134 402.5 325.579 402.684 325.907 403.012C326.236 403.341 326.42 403.786 326.42 404.25C326.431 404.486 326.394 404.723 326.311 404.944C326.227 405.166 326.1 405.368 325.937 405.539C325.773 405.71 325.576 405.847 325.359 405.939C325.141 406.032 324.907 406.08 324.67 406.08Z" fill="white"/>
</g>
<path d="M296.19 241.79L293.19 239.79C293.113 239.741 293.051 239.674 293.007 239.594C292.964 239.515 292.941 239.426 292.941 239.335C292.941 239.244 292.964 239.155 293.007 239.075C293.051 238.996 293.113 238.929 293.19 238.88L296.19 236.88C296.3 236.808 296.434 236.782 296.564 236.808C296.693 236.834 296.807 236.91 296.88 237.02C296.949 237.129 296.973 237.261 296.947 237.388C296.921 237.515 296.847 237.627 296.74 237.7L294.25 239.35L296.74 241C296.847 241.073 296.921 241.185 296.947 241.312C296.973 241.438 296.949 241.57 296.88 241.68C296.8 241.783 296.685 241.851 296.557 241.872C296.428 241.892 296.297 241.863 296.19 241.79Z" fill="white"/>
<path d="M302.83 241.65C302.77 241.54 302.754 241.412 302.786 241.291C302.818 241.17 302.894 241.066 303 241L305.49 239.35L303 237.67C302.893 237.597 302.819 237.484 302.794 237.357C302.77 237.229 302.797 237.097 302.87 236.99C302.905 236.936 302.951 236.889 303.004 236.853C303.058 236.817 303.118 236.792 303.181 236.779C303.244 236.766 303.309 236.765 303.372 236.777C303.436 236.79 303.496 236.814 303.55 236.85L306.55 238.85C306.626 238.899 306.689 238.966 306.733 239.045C306.776 239.125 306.799 239.214 306.799 239.305C306.799 239.395 306.776 239.485 306.733 239.564C306.689 239.644 306.626 239.711 306.55 239.76L303.55 241.76C303.496 241.802 303.434 241.833 303.368 241.85C303.302 241.867 303.234 241.871 303.166 241.86C303.099 241.85 303.034 241.826 302.976 241.79C302.918 241.754 302.869 241.706 302.83 241.65Z" fill="white"/>
<path d="M298.72 243C298.658 242.981 298.6 242.949 298.551 242.908C298.501 242.866 298.46 242.815 298.43 242.757C298.401 242.699 298.383 242.636 298.377 242.572C298.372 242.507 298.38 242.442 298.4 242.38L300.47 235.84C300.488 235.778 300.519 235.721 300.559 235.671C300.6 235.622 300.65 235.581 300.707 235.551C300.764 235.521 300.826 235.503 300.89 235.498C300.955 235.492 301.019 235.5 301.08 235.52C301.142 235.538 301.199 235.569 301.249 235.609C301.298 235.65 301.339 235.7 301.369 235.757C301.399 235.814 301.417 235.877 301.422 235.941C301.428 236.005 301.42 236.069 301.4 236.13L299.34 242.68C299.321 242.742 299.289 242.8 299.247 242.849C299.206 242.899 299.155 242.94 299.097 242.97C299.039 242.999 298.976 243.017 298.911 243.023C298.847 243.028 298.782 243.02 298.72 243Z" fill="white"/>
<path d="M315.7 248H293.43C293.362 248 293.295 247.986 293.232 247.96C293.17 247.934 293.113 247.895 293.066 247.847C293.018 247.799 292.981 247.741 292.956 247.678C292.931 247.615 292.919 247.548 292.92 247.48C292.919 247.412 292.931 247.345 292.956 247.282C292.981 247.219 293.018 247.161 293.066 247.113C293.113 247.064 293.17 247.026 293.232 247C293.295 246.973 293.362 246.96 293.43 246.96H315.7C315.838 246.96 315.97 247.015 316.068 247.112C316.165 247.21 316.22 247.342 316.22 247.48C316.22 247.548 316.207 247.616 316.18 247.679C316.154 247.742 316.116 247.799 316.068 247.848C316.019 247.896 315.962 247.934 315.899 247.96C315.836 247.987 315.768 248 315.7 248Z" fill="white"/>
<path d="M341.28 248H319C318.932 248 318.864 247.987 318.801 247.96C318.738 247.934 318.681 247.896 318.632 247.848C318.584 247.799 318.546 247.742 318.52 247.679C318.493 247.616 318.48 247.548 318.48 247.48C318.49 247.349 318.549 247.227 318.646 247.138C318.742 247.049 318.869 247 319 247H341.26C341.398 247 341.53 247.055 341.628 247.152C341.725 247.25 341.78 247.382 341.78 247.52C341.77 247.647 341.714 247.767 341.622 247.855C341.529 247.944 341.408 247.995 341.28 248Z" fill="white"/>
<path d="M306.16 252.58H293.43C293.362 252.58 293.295 252.566 293.232 252.54C293.17 252.514 293.113 252.475 293.066 252.427C293.018 252.378 292.981 252.321 292.956 252.258C292.931 252.195 292.919 252.128 292.92 252.06C292.92 251.925 292.974 251.795 293.069 251.699C293.165 251.604 293.295 251.55 293.43 251.55H306.16C306.296 251.55 306.427 251.603 306.524 251.699C306.621 251.794 306.677 251.924 306.68 252.06C306.68 252.198 306.625 252.33 306.528 252.427C306.43 252.525 306.298 252.58 306.16 252.58Z" fill="white"/>
<path d="M330.32 252.58H309.47C309.402 252.58 309.335 252.566 309.273 252.54C309.21 252.514 309.153 252.475 309.106 252.427C309.058 252.378 309.021 252.321 308.996 252.258C308.971 252.195 308.959 252.128 308.96 252.06C308.96 251.925 309.014 251.795 309.109 251.699C309.205 251.604 309.335 251.55 309.47 251.55H330.32C330.455 251.55 330.585 251.604 330.681 251.699C330.776 251.795 330.83 251.925 330.83 252.06C330.831 252.128 330.819 252.195 330.794 252.258C330.769 252.321 330.732 252.378 330.684 252.427C330.637 252.475 330.58 252.514 330.518 252.54C330.455 252.566 330.388 252.58 330.32 252.58Z" fill="white"/>
<path d="M327.35 257.17H293.43C293.294 257.167 293.164 257.111 293.069 257.014C292.973 256.917 292.92 256.786 292.92 256.65C292.919 256.582 292.931 256.515 292.956 256.452C292.981 256.389 293.018 256.331 293.066 256.283C293.113 256.234 293.17 256.196 293.232 256.17C293.295 256.143 293.362 256.13 293.43 256.13H327.35C327.488 256.13 327.62 256.185 327.718 256.282C327.815 256.38 327.87 256.512 327.87 256.65C327.87 256.788 327.815 256.92 327.718 257.018C327.62 257.115 327.488 257.17 327.35 257.17Z" fill="white"/>
<path d="M337.75 257.17H330.67C330.532 257.17 330.4 257.115 330.302 257.018C330.205 256.92 330.15 256.788 330.15 256.65C330.15 256.512 330.205 256.38 330.302 256.282C330.4 256.185 330.532 256.13 330.67 256.13H337.75C337.888 256.13 338.02 256.185 338.118 256.282C338.215 256.38 338.27 256.512 338.27 256.65C338.27 256.788 338.215 256.92 338.118 257.018C338.02 257.115 337.888 257.17 337.75 257.17Z" fill="white"/>
<path d="M309.27 261.75H293.43C293.362 261.75 293.295 261.736 293.232 261.71C293.17 261.684 293.113 261.645 293.066 261.597C293.018 261.549 292.981 261.491 292.956 261.428C292.931 261.365 292.919 261.298 292.92 261.23C292.919 261.162 292.931 261.095 292.956 261.032C292.981 260.969 293.018 260.911 293.066 260.863C293.113 260.814 293.17 260.776 293.232 260.75C293.295 260.723 293.362 260.71 293.43 260.71H309.27C309.408 260.71 309.54 260.765 309.638 260.862C309.735 260.96 309.79 261.092 309.79 261.23C309.79 261.368 309.735 261.5 309.638 261.598C309.54 261.695 309.408 261.75 309.27 261.75Z" fill="white"/>
<path d="M332.3 261.75H312.59C312.452 261.75 312.32 261.695 312.222 261.598C312.125 261.5 312.07 261.368 312.07 261.23C312.07 261.092 312.125 260.96 312.222 260.862C312.32 260.765 312.452 260.71 312.59 260.71H332.3C332.438 260.71 332.57 260.765 332.668 260.862C332.765 260.96 332.82 261.092 332.82 261.23C332.82 261.368 332.765 261.5 332.668 261.598C332.57 261.695 332.438 261.75 332.3 261.75Z" fill="white"/>
<path d="M315.7 266.33H293.43C293.362 266.33 293.295 266.316 293.232 266.29C293.17 266.264 293.113 266.225 293.066 266.177C293.018 266.129 292.981 266.071 292.956 266.008C292.931 265.945 292.919 265.878 292.92 265.81C292.92 265.675 292.974 265.545 293.069 265.449C293.165 265.354 293.295 265.3 293.43 265.3H315.7C315.768 265.299 315.835 265.311 315.898 265.336C315.961 265.361 316.019 265.398 316.067 265.446C316.116 265.493 316.154 265.55 316.18 265.612C316.206 265.675 316.22 265.742 316.22 265.81C316.22 265.948 316.165 266.08 316.068 266.178C315.97 266.275 315.838 266.33 315.7 266.33Z" fill="white"/>
<path d="M334.73 266.33H319C318.862 266.33 318.73 266.275 318.632 266.178C318.535 266.08 318.48 265.948 318.48 265.81C318.48 265.742 318.493 265.675 318.52 265.612C318.546 265.55 318.584 265.493 318.633 265.446C318.681 265.398 318.739 265.361 318.802 265.336C318.865 265.311 318.932 265.299 319 265.3H334.71C334.845 265.3 334.975 265.354 335.071 265.449C335.166 265.545 335.22 265.675 335.22 265.81C335.223 265.943 335.173 266.073 335.081 266.17C334.99 266.267 334.863 266.325 334.73 266.33Z" fill="white"/>
<path d="M141.47 176.82C141.88 181.53 140.86 190.06 137.31 192.82C143.1 194.91 149.24 198.51 153.16 203.26C157.05 197.6 152.63 194.37 152.63 194.37C147.63 192.59 148.16 188.8 149.45 185.31L141.47 176.82Z" fill="#B97964"/>
<path d="M160.4 172.76C160.34 173.35 160.62 173.86 161.01 173.9C161.4 173.94 161.75 173.48 161.81 172.9C161.87 172.32 161.59 171.8 161.2 171.76C160.81 171.72 160.47 172.17 160.4 172.76Z" fill="#263238"/>
<path d="M161.05 171.77L162.5 171.49C162.5 171.49 161.67 172.56 161.05 171.77Z" fill="#263238"/>
<path d="M160.6 173.39C161.008 174.796 161.604 176.142 162.37 177.39C162.046 177.577 161.685 177.692 161.312 177.727C160.939 177.761 160.563 177.714 160.21 177.59L160.6 173.39Z" fill="#A24E3F"/>
<path d="M162.08 169.649C162.173 169.635 162.257 169.589 162.32 169.519C162.382 169.453 162.416 169.365 162.416 169.274C162.416 169.184 162.382 169.096 162.32 169.029C161.909 168.654 161.414 168.383 160.876 168.238C160.339 168.094 159.774 168.081 159.23 168.199C159.154 168.252 159.1 168.332 159.079 168.423C159.059 168.514 159.074 168.609 159.12 168.689C159.151 168.741 159.195 168.783 159.248 168.811C159.301 168.839 159.36 168.853 159.42 168.849C159.853 168.767 160.298 168.786 160.722 168.906C161.145 169.026 161.535 169.243 161.86 169.539C161.918 169.601 161.996 169.64 162.08 169.649Z" fill="#263238"/>
<path d="M141 169C140.77 176.31 140.52 179.42 143.78 183.5C148.69 189.63 157.58 188.29 159.96 181.17C162.1 174.76 162.12 163.84 155.39 160.3C148.66 156.76 141.21 161.67 141 169Z" fill="#B97964"/>
<path d="M141.32 182.81C134.13 181.58 136.19 177.05 136.19 177.05C129.11 175.62 134.58 172.16 134.58 172.16C128.69 169.62 134.58 167.34 134.58 167.34C128.9 162.63 137 161 137 161C135 153.65 142 156.67 142 156.67C145.8 150.35 149.08 156.38 149.08 156.38C155.74 147.38 157.36 154.97 157.36 154.97C164.17 153.18 161.56 160.34 161.56 160.34C167.16 161.84 162.76 164.68 162.76 164.68C164.92 167.41 157.11 167.88 157.11 167.88C157.11 167.88 160.83 173.88 157.11 175.53L147.65 182.78C147.65 182.78 143.28 181 141.32 182.81Z" fill="#263238"/>
<path d="M148.39 176.91C148.39 176.91 153.39 164.91 149.48 154.67L152.78 153.54C152.78 153.54 157.09 168.43 148.39 176.91Z" fill="#6E9D3E"/>
<path d="M153.38 175.59C154.2 177.31 154.52 178.06 155.7 178.59C156.064 178.799 156.482 178.896 156.902 178.87C157.321 178.843 157.723 178.693 158.058 178.44C158.393 178.186 158.645 177.839 158.784 177.443C158.924 177.046 158.943 176.618 158.84 176.21C158.53 174.49 157.21 171.96 155.38 171.91C154.952 171.912 154.533 172.029 154.165 172.249C153.798 172.469 153.496 172.783 153.292 173.159C153.088 173.535 152.988 173.959 153.004 174.387C153.019 174.814 153.149 175.23 153.38 175.59Z" fill="#B97964"/>
<path d="M148.21 200.57C148.21 200.57 154.98 205.57 157.73 207.57L177.32 198.33C177.292 197.244 177.592 196.174 178.181 195.261C178.769 194.348 179.619 193.633 180.62 193.21L182.02 192.63L184.97 191.31C185.52 191.064 186.125 190.968 186.723 191.032C187.322 191.095 187.894 191.315 188.38 191.67C188.951 192.086 189.38 192.669 189.607 193.339C189.835 194.008 189.85 194.732 189.65 195.41C189.239 196.816 188.47 198.091 187.418 199.112C186.366 200.132 185.068 200.861 183.65 201.23L180.79 201.98C180.79 201.98 164 214.7 158 215C152 215.3 143.21 209.41 143.21 209.41L148.21 200.57Z" fill="#B97964"/>
<path d="M131.93 192.14C137.1 192.14 142.88 195.36 151.93 201.26C150.63 205.513 148.213 209.339 144.93 212.34C144.93 212.34 139.93 211 133.29 204.75C125.29 197.18 128.76 192.15 131.93 192.14Z" fill="#263238"/>
<path d="M230.13 207.119H181.13C180.718 207.126 180.309 207.045 179.93 206.882C179.552 206.718 179.212 206.476 178.934 206.172C178.656 205.867 178.446 205.507 178.318 205.116C178.19 204.724 178.146 204.309 178.19 203.899L181.88 161.719C181.968 160.847 182.373 160.038 183.018 159.444C183.663 158.851 184.504 158.515 185.38 158.499H234.38C234.792 158.493 235.2 158.574 235.578 158.737C235.956 158.901 236.295 159.143 236.573 159.447C236.85 159.752 237.059 160.112 237.186 160.504C237.313 160.896 237.355 161.31 237.31 161.719L233.62 203.899C233.532 204.77 233.129 205.578 232.486 206.171C231.843 206.765 231.005 207.102 230.13 207.119Z" fill="#6E9D3E"/>
<path opacity="0.4" d="M230.13 207.119H181.13C180.718 207.126 180.309 207.045 179.93 206.882C179.552 206.718 179.212 206.476 178.934 206.172C178.656 205.867 178.446 205.507 178.318 205.116C178.19 204.724 178.146 204.309 178.19 203.899L181.88 161.719C181.968 160.847 182.373 160.038 183.018 159.444C183.663 158.851 184.504 158.515 185.38 158.499H234.38C234.792 158.493 235.2 158.574 235.578 158.737C235.956 158.901 236.295 159.143 236.573 159.447C236.85 159.752 237.059 160.112 237.186 160.504C237.313 160.896 237.355 161.31 237.31 161.719L233.62 203.899C233.532 204.77 233.129 205.578 232.486 206.171C231.843 206.765 231.005 207.102 230.13 207.119Z" fill="white"/>
<path opacity="0.7" d="M230.31 205.12C230.641 205.114 230.959 204.987 231.202 204.762C231.446 204.537 231.598 204.23 231.63 203.9L235.32 161.72C235.337 161.565 235.321 161.408 235.273 161.26C235.224 161.111 235.145 160.975 235.04 160.86C234.935 160.744 234.807 160.653 234.664 160.591C234.521 160.529 234.366 160.498 234.21 160.5H185.21C184.877 160.506 184.558 160.633 184.313 160.858C184.068 161.083 183.914 161.389 183.88 161.72L180.2 203.9C180.183 204.055 180.199 204.212 180.247 204.36C180.296 204.509 180.375 204.645 180.48 204.761C180.585 204.876 180.713 204.968 180.856 205.03C180.999 205.092 181.154 205.122 181.31 205.12H230.31Z" fill="white"/>
<path d="M196.26 180.32L180.26 203.48V203.9C180.243 204.055 180.259 204.212 180.307 204.361C180.356 204.509 180.435 204.645 180.54 204.761C180.645 204.876 180.773 204.968 180.916 205.03C181.059 205.092 181.214 205.123 181.37 205.12H209.13L196.26 180.32Z" fill="#6E9D3E"/>
<path opacity="0.3" d="M196.26 180.32L180.26 203.48V203.9C180.243 204.055 180.259 204.212 180.307 204.361C180.356 204.509 180.435 204.645 180.54 204.761C180.645 204.876 180.773 204.968 180.916 205.03C181.059 205.092 181.214 205.123 181.37 205.12H209.13L196.26 180.32Z" fill="white"/>
<path d="M231.77 202.29L218.36 176.82L198.5 205.12H230.31C230.641 205.114 230.959 204.987 231.203 204.762C231.446 204.537 231.598 204.23 231.63 203.9L231.77 202.29Z" fill="#6E9D3E"/>
<path d="M213.18 172.32C213.058 173.539 212.492 174.671 211.591 175.5C210.689 176.33 209.515 176.799 208.29 176.82C207.714 176.831 207.141 176.718 206.612 176.491C206.082 176.263 205.607 175.925 205.218 175.499C204.829 175.073 204.536 174.57 204.357 174.021C204.178 173.473 204.117 172.893 204.18 172.32C204.3 171.1 204.865 169.966 205.766 169.134C206.668 168.303 207.844 167.831 209.07 167.81C209.647 167.8 210.22 167.912 210.751 168.141C211.281 168.369 211.757 168.708 212.146 169.135C212.535 169.562 212.828 170.067 213.007 170.616C213.185 171.165 213.244 171.746 213.18 172.32Z" fill="#6E9D3E"/>
<path opacity="0.4" d="M213.18 172.32C213.058 173.539 212.492 174.671 211.591 175.5C210.689 176.33 209.515 176.799 208.29 176.82C207.714 176.831 207.141 176.718 206.612 176.491C206.082 176.263 205.607 175.925 205.218 175.499C204.829 175.073 204.536 174.57 204.357 174.021C204.178 173.473 204.117 172.893 204.18 172.32C204.3 171.1 204.865 169.966 205.766 169.134C206.668 168.303 207.844 167.831 209.07 167.81C209.647 167.8 210.22 167.912 210.751 168.141C211.281 168.369 211.757 168.708 212.146 169.135C212.535 169.562 212.828 170.067 213.007 170.616C213.185 171.165 213.244 171.746 213.18 172.32Z" fill="white"/>
<path d="M90.9002 377.37L85.9202 392.13L93.5502 395.25L99.5202 381.63L90.9002 377.37Z" fill="#B97964"/>
<path d="M96.29 394.88C96.2508 394.856 96.2189 394.822 96.1978 394.782C96.1766 394.741 96.167 394.696 96.17 394.65C96.1756 394.606 96.1951 394.565 96.2256 394.532C96.2562 394.5 96.2962 394.478 96.34 394.47C96.5 394.47 100.1 393.63 101.44 394.47C101.693 394.625 101.876 394.872 101.95 395.16C102.006 395.32 102.011 395.493 101.964 395.656C101.918 395.819 101.822 395.964 101.69 396.07C101.18 396.43 99.99 396.28 98.9 395.94C98.0012 395.662 97.128 395.307 96.29 394.88ZM97.05 394.81C98.62 395.51 100.84 396.18 101.42 395.74C101.5 395.68 101.6 395.58 101.52 395.27C101.504 395.179 101.467 395.094 101.412 395.021C101.356 394.948 101.283 394.889 101.2 394.85C101.082 394.775 100.954 394.718 100.82 394.68C99.5664 394.484 98.287 394.528 97.05 394.81Z" fill="#6E9D3E"/>
<path d="M96.1801 394.829C96.1608 394.796 96.1506 394.758 96.1506 394.72C96.1506 394.681 96.1608 394.643 96.1801 394.609C96.1801 394.509 97.1801 392.209 98.5901 391.609C98.7913 391.526 99.0071 391.482 99.2251 391.482C99.4431 391.482 99.6589 391.526 99.8601 391.609C100.41 391.839 100.5 392.19 100.45 392.43C100.33 393.48 97.6301 394.73 96.4501 394.87C96.4361 394.877 96.4207 394.88 96.4051 394.88C96.3895 394.88 96.3741 394.877 96.3601 394.87C96.3292 394.879 96.2964 394.88 96.2649 394.873C96.2334 394.866 96.2042 394.851 96.1801 394.829ZM99.5701 392C99.3119 391.905 99.0283 391.905 98.7701 392C97.8799 392.552 97.1816 393.366 96.7701 394.329C98.0601 394.019 99.9001 392.959 100.03 392.329C100.03 392.269 100.03 392.11 99.6901 391.97H99.5701V392Z" fill="#6E9D3E"/>
<path d="M95.7701 393.37L86.1901 390.37C86.0146 390.316 85.8261 390.323 85.6553 390.39C85.4845 390.457 85.3417 390.581 85.2501 390.74L81.1101 398C81.0206 398.153 80.9622 398.322 80.9384 398.497C80.9146 398.672 80.9258 398.851 80.9714 399.022C81.017 399.193 81.096 399.353 81.2039 399.494C81.3118 399.634 81.4464 399.752 81.6001 399.84C81.6818 399.89 81.769 399.93 81.8601 399.96C85.3301 400.96 88.4601 401.72 92.7601 403.06C97.8401 404.62 96.3601 404.83 102.3 406.76C105.88 407.92 107.8 404.03 106.3 403.36C99.5901 400.36 99.5201 398 97.6001 394.67C97.1657 394.031 96.5162 393.57 95.7701 393.37Z" fill="#263238"/>
<path opacity="0.2" d="M88.51 384.45L96.51 388.49L99.52 381.63L90.9 377.37L88.51 384.45Z" fill="#263238"/>
<path d="M124.72 240.85C124.72 240.85 113.97 249.06 116.27 274.78C116.49 277.16 117.27 279.65 117.27 282.37C117.27 284.18 116.77 285.45 116.18 289.52C115.32 295.44 113.74 317.52 112.07 320.39C110.4 323.26 109.72 322.75 105.07 330.67C100.07 339.19 93.57 354.13 88.54 379.45C91.8986 381.82 95.7349 383.428 99.78 384.16C99.78 384.16 127.25 340.84 133.09 324.71C138.32 310.28 144.55 264.23 144.55 264.23L145.05 244.23L124.72 240.85Z" fill="#6E9D3E"/>
<path opacity="0.1" d="M136.48 274.78H128.7C128.7 274.78 126.14 299.26 134.6 319.68C135.48 316.4 136.37 312.47 137.24 308.22L140.61 286.66C140.13 283.02 139.76 280.24 139.7 280.06C139.53 279.49 136.48 274.78 136.48 274.78Z" fill="black"/>
<path d="M135.2 383.31L135.25 399L144.1 398.41L145.46 383.31H135.2Z" fill="#B97964"/>
<path d="M145.12 398.14C145.076 398.135 145.035 398.115 145.002 398.085C144.97 398.054 144.948 398.014 144.94 397.97C144.93 397.926 144.934 397.88 144.952 397.839C144.97 397.797 145.001 397.763 145.04 397.74C145.18 397.66 148.31 395.74 149.86 396.08C150.149 396.145 150.403 396.316 150.57 396.56C150.673 396.695 150.734 396.858 150.743 397.028C150.751 397.197 150.709 397.366 150.62 397.51C149.851 398.087 148.899 398.368 147.94 398.3C146.997 398.332 146.053 398.279 145.12 398.14ZM145.82 397.83C147.53 397.98 149.82 397.88 150.25 397.27C150.31 397.19 150.36 397.06 150.19 396.79C150.144 396.712 150.08 396.645 150.004 396.594C149.927 396.544 149.841 396.512 149.75 396.5C149.614 396.48 149.476 396.48 149.34 396.5C148.091 396.71 146.895 397.162 145.82 397.83Z" fill="#6E9D3E"/>
<path d="M145 398.14C144.967 398.118 144.939 398.089 144.92 398.054C144.901 398.019 144.89 397.98 144.89 397.94C144.89 397.83 145.06 395.34 146.19 394.34C146.351 394.192 146.541 394.079 146.747 394.006C146.953 393.934 147.172 393.905 147.39 393.92C147.99 393.92 148.19 394.26 148.22 394.51C148.45 395.51 146.32 397.6 145.22 398.13C145.191 398.14 145.159 398.14 145.13 398.13C145.089 398.148 145.043 398.152 145 398.14ZM147.26 394.34C146.985 394.346 146.722 394.452 146.52 394.64C145.861 395.455 145.469 396.454 145.4 397.5C146.51 396.79 147.9 395.18 147.82 394.56C147.82 394.5 147.77 394.34 147.38 394.32H147.26V394.34Z" fill="#6E9D3E"/>
<path d="M144.14 396.89L134.14 397.25C133.958 397.258 133.783 397.328 133.645 397.448C133.507 397.567 133.414 397.73 133.38 397.91L131.86 406.13C131.793 406.479 131.866 406.84 132.065 407.134C132.264 407.429 132.571 407.632 132.92 407.7C133.017 407.71 133.114 407.71 133.21 407.7C136.82 407.5 140.02 407.19 144.52 407.04C149.83 406.85 148.52 407.53 154.75 407.4C158.52 407.31 159.05 403.01 157.45 402.86C150.12 402.2 149.28 400.02 146.37 397.51C145.729 397.034 144.935 396.813 144.14 396.89Z" fill="#263238"/>
<path opacity="0.2" d="M135.23 391.43L144.75 391.23L145.46 383.31H135.2L135.23 391.43Z" fill="#263238"/>
<path d="M130.71 238C130.71 238 119.98 252.21 127.93 280L136.93 320.59C136.93 320.59 128.39 339.05 132.93 387.75C137.331 388.368 141.802 388.267 146.17 387.45C146.17 387.45 156.17 336.02 157.68 318.65C159.35 299.51 158.35 241.82 158.35 241.82L130.71 238Z" fill="#6E9D3E"/>
<path d="M137.19 191.94C137.19 191.94 135.53 184.84 146.19 187.94C156.85 191.04 155.95 197.11 155.95 197.11L137.19 191.94Z" fill="#263238"/>
<path opacity="0.4" d="M137.19 191.94C137.19 191.94 135.53 184.84 146.19 187.94C156.85 191.04 155.95 197.11 155.95 197.11L137.19 191.94Z" fill="black"/>
<path d="M163.63 209.7C163.63 212.19 162.63 215.79 161.63 219.82C161.17 221.73 160.75 223.72 160.47 225.74C158.96 236.74 158.47 248.33 158.47 248.33C152.585 249.614 146.499 249.671 140.591 248.5C134.683 247.328 129.08 244.952 124.13 241.52C124.13 241.52 128.32 237.97 127.46 213.38C127.07 202.3 123.07 189.13 141.38 191.2C156.84 192.95 162.04 197.75 163.29 205.26C163.29 205.35 163.29 205.45 163.29 205.55L163.38 206.25C163.531 207.394 163.615 208.546 163.63 209.7Z" fill="#263238"/>
<path opacity="0.4" d="M163.63 209.7C163.63 212.19 162.63 215.79 161.63 219.82C157.45 214.82 153.26 205.37 153.26 205.37L156.71 200.29L162.79 203.12C163 203.823 163.167 204.537 163.29 205.26C163.29 205.35 163.29 205.45 163.29 205.55L163.38 206.25C163.531 207.394 163.615 208.546 163.63 209.7Z" fill="black"/>
<path d="M170 205.36C170 205.36 176 211.28 178.37 213.66L199.11 207.44C199.246 206.368 199.7 205.361 200.412 204.548C201.125 203.736 202.065 203.155 203.11 202.88L204.57 202.5L207.69 201.64C208.271 201.483 208.883 201.481 209.466 201.633C210.048 201.786 210.581 202.088 211.01 202.51C211.513 203.006 211.85 203.645 211.975 204.339C212.101 205.034 212.008 205.75 211.71 206.39C211.092 207.719 210.142 208.866 208.95 209.72C207.759 210.573 206.367 211.104 204.91 211.26L201.97 211.57C201.97 211.57 183.46 221.68 177.5 221.12C171.54 220.56 163.71 213.39 163.71 213.39L170 205.36Z" fill="#B97964"/>
<path d="M155.1 194.59C160.22 195.34 165.45 199.41 173.57 206.59C171.647 210.606 168.68 214.032 164.98 216.51C164.98 216.51 160.25 214.44 154.61 207.27C147.79 198.59 152 194.13 155.1 194.59Z" fill="#263238"/>
</svg>
