<svg width="1760" height="652" viewBox="0 0 1760 652" fill="none" xmlns="http://www.w3.org/2000/svg">
<g clip-path="url(#clip0_4462_19)">
<rect width="1760" height="652" fill="#0063BA"/>
<path d="M516.137 284.802L1104.24 -16.2953C1158.81 -44.2329 1225.69 -22.6451 1253.63 31.9224L1441.22 398.321C1469.15 452.889 1447.57 519.772 1393 547.71L804.898 848.807C750.331 876.745 683.447 855.157 655.509 800.589L467.919 434.191C439.982 379.623 461.57 312.74 516.137 284.802Z" fill="#0B5799"/>
<path d="M516.137 284.802L1104.24 -16.2953C1158.81 -44.2329 1225.69 -22.6451 1253.63 31.9224L1441.22 398.321C1469.15 452.889 1447.57 519.772 1393 547.71L804.898 848.807C750.331 876.745 683.447 855.157 655.509 800.589L467.919 434.191C439.982 379.623 461.57 312.74 516.137 284.802Z" stroke="#0E4779" stroke-width="80"/>
<path d="M516.137 284.802L1104.24 -16.2953C1158.81 -44.2329 1225.69 -22.6451 1253.63 31.9224L1441.22 398.321C1469.15 452.889 1447.57 519.772 1393 547.71L804.898 848.807C750.331 876.745 683.447 855.157 655.509 800.589L467.919 434.191C439.982 379.623 461.57 312.74 516.137 284.802Z" stroke="#085DA8" stroke-width="80"/>
<path d="M1623.12 182.438L2066.69 6.785C2123.69 -15.7856 2188.19 12.1227 2210.76 69.1201L2312.2 325.286C2334.78 382.284 2306.87 446.786 2249.87 469.357L1806.3 645.01C1749.3 667.58 1684.8 639.672 1662.23 582.675L1560.79 326.508C1538.21 269.511 1566.12 205.008 1623.12 182.438Z" fill="#0B5799"/>
<path d="M1623.12 182.438L2066.69 6.785C2123.69 -15.7856 2188.19 12.1227 2210.76 69.1201L2312.2 325.286C2334.78 382.284 2306.87 446.786 2249.87 469.357L1806.3 645.01C1749.3 667.58 1684.8 639.672 1662.23 582.675L1560.79 326.508C1538.21 269.511 1566.12 205.008 1623.12 182.438Z" stroke="#0E4779" stroke-width="80"/>
<path d="M1623.12 182.438L2066.69 6.785C2123.69 -15.7856 2188.19 12.1227 2210.76 69.1201L2312.2 325.286C2334.78 382.284 2306.87 446.786 2249.87 469.357L1806.3 645.01C1749.3 667.58 1684.8 639.672 1662.23 582.675L1560.79 326.508C1538.21 269.511 1566.12 205.008 1623.12 182.438Z" stroke="#085DA8" stroke-width="80"/>
<path d="M-370.626 -180.355L214.223 -402.071C271.546 -423.802 335.632 -394.949 357.363 -337.626L499.929 38.4394C521.66 95.7622 492.807 159.848 435.485 181.579L-149.365 403.295C-206.688 425.026 -270.774 396.173 -292.505 338.851L-435.071 -37.2151C-456.802 -94.5379 -427.949 -158.624 -370.626 -180.355Z" fill="#0B5799"/>
<path d="M-370.626 -180.355L214.223 -402.071C271.546 -423.802 335.632 -394.949 357.363 -337.626L499.929 38.4394C521.66 95.7622 492.807 159.848 435.485 181.579L-149.365 403.295C-206.688 425.026 -270.774 396.173 -292.505 338.851L-435.071 -37.2151C-456.802 -94.5379 -427.949 -158.624 -370.626 -180.355Z" stroke="#0E4779" stroke-width="80"/>
<path d="M-370.626 -180.355L214.223 -402.071C271.546 -423.802 335.632 -394.949 357.363 -337.626L499.929 38.4394C521.66 95.7622 492.807 159.848 435.485 181.579L-149.365 403.295C-206.688 425.026 -270.774 396.173 -292.505 338.851L-435.071 -37.2151C-456.802 -94.5379 -427.949 -158.624 -370.626 -180.355Z" stroke="#085DA8" stroke-width="80"/>
</g>
<defs>
<clipPath id="clip0_4462_19">
<rect width="1760" height="652" fill="white"/>
</clipPath>
</defs>
</svg>
