<svg width="40" height="40" viewBox="0 0 40 40" fill="none" xmlns="http://www.w3.org/2000/svg">
<g clip-path="url(#clip0_1048_7357)">
<path d="M40 24.35C40.1623 19.4875 39.9114 14.62 39.25 9.79999C39.2762 9.45604 39.2762 9.1106 39.25 8.76666C39.0167 7.64999 35.6667 7.09999 34.25 6.96666C34.1199 6.9525 33.9893 6.98995 33.8865 7.07098C33.7837 7.152 33.7167 7.27013 33.7 7.39999C33.6167 8.49999 35.3667 7.39999 38.05 9.06666C38.0168 10.2512 38.1118 11.4359 38.3333 12.6C38.7333 16.3333 38.5167 18.9167 38.3333 28.8333C36.3529 28.4023 34.3244 28.2342 32.3 28.3333C28.5254 28.3071 24.839 29.4737 21.7667 31.6667C22.9 27.2667 25.6667 26.0833 29.5667 24.6833C30.0085 24.5449 30.4707 24.4829 30.9333 24.5C31.0237 24.7045 31.1833 24.8706 31.384 24.969C31.5847 25.0675 31.8137 25.092 32.0307 25.0382C32.2477 24.9844 32.4388 24.8559 32.5704 24.6751C32.702 24.4944 32.7656 24.273 32.75 24.05C32.1167 7.19999 32.75 4.83332 32.4833 3.26666C32.2167 1.69999 31.0833 1.51666 29.5 1.28332C27.5551 1.07937 25.5911 1.39998 23.812 2.21185C22.0329 3.02372 20.5038 4.29721 19.3833 5.89999C19.25 6.18332 18.4667 7.91666 18.4 8.09999C17.2626 7.23107 15.9483 6.62231 14.55 6.31666C10.9599 5.52009 7.20126 6.11576 4.03334 7.98332C3.41593 8.38439 2.88735 8.90785 2.48028 9.52132C2.07321 10.1348 1.7963 10.8252 1.66668 11.55C0.200012 17.4833 -0.683322 19.2333 0.683345 31.85C0.683345 32.3667 0.683345 33.1667 1.18334 33.65C1.29541 33.7435 1.42659 33.8114 1.56767 33.8488C1.70876 33.8862 1.85632 33.8923 2.00001 33.8667V35.15C2.21668 38.15 6.20001 36.3167 10.5833 35.95C14.2167 35.6667 14.6167 36.45 17.8333 38.3167C19.1575 38.8145 20.5924 38.9413 21.9833 38.6833C23.1233 38.5121 24.2044 38.0659 25.1333 37.3833C36.1167 29.3 35.7333 38.75 38.3 31.9667C38.4188 31.6567 38.4918 31.331 38.5167 31C38.646 31.0849 38.7953 31.1345 38.9498 31.1435C39.1042 31.1526 39.2584 31.121 39.3968 31.0518C39.5351 30.9826 39.6529 30.8783 39.7383 30.7493C39.8237 30.6203 39.8737 30.4711 39.8833 30.3167C40.0365 28.3316 40.0755 26.3395 40 24.35ZM19.8 8.98332C24.8 -0.416677 31 3.71666 31.2667 3.98332C31.4 4.48332 30.65 15.7833 30.6167 16.8167L30.7667 22.5667C28.9178 22.765 27.1308 23.3479 25.5206 24.2779C23.9104 25.2078 22.5125 26.4643 21.4167 27.9667C20.5833 29.4 20.8667 29.55 20.7167 28.6C20.6833 28.4333 19.7333 9.11666 19.8 8.98332ZM1.80001 16.2167C2.28334 14.3667 2.88334 9.66666 4.48334 9.13332C9.15001 7.56666 13.8167 7.18332 18.15 9.54999C18.6642 10.9808 18.8963 12.4976 18.8333 14.0167C18.8333 17.4333 18.9333 27.75 19.3333 30.85C16.6802 29.6402 13.7804 29.0694 10.8667 29.1833C8.56195 29.3881 6.30818 29.9797 4.20001 30.9333C4.00001 30.9333 3.06668 31.8833 2.40001 32.25C2.40001 32.0167 2.21668 31.75 2.20001 31.6167C1.66668 27.0833 0.883345 21.1167 1.80001 16.2167ZM36.0667 32.6C31.2667 30.6833 27.45 33.4 24.05 35.8333C23.3234 36.3195 22.5049 36.6517 21.6449 36.8094C20.785 36.967 19.9018 36.9468 19.05 36.75C12.6 32.1833 10.1 34.3667 4.26668 35.25C3.96668 35.25 3.73334 35.4 3.58334 35.25C3.43334 35.1 3.26668 34.1333 2.88334 33.5833C3.60001 33.2167 4.55001 32.6333 4.78334 32.5667C7.23334 31.8 10 30 16 31.6667C20.4333 32.8167 20.2 34.75 21.7 33.9333C23.9333 32.7333 27.15 29.1333 37.2167 30.35C37.1157 30.4714 37.0624 30.6255 37.0667 30.7833C36.0833 32.55 36.1333 32.4333 36.0667 32.6Z" fill="#6E9D3E"/>
<path d="M6.08333 15C7.75 14.7666 7.61666 13.95 9.81666 13.95C11.0432 14.039 12.2531 14.2855 13.4167 14.6833C13.7333 14.5666 13.9667 14.4333 13.9667 14.1166C13.9667 13.4 12.9667 12.6666 11.45 12.45C7.06666 11.6333 6.65 13.7333 5.81666 14.1166C5.74053 14.1793 5.68464 14.2632 5.65602 14.3576C5.62741 14.4519 5.62735 14.5527 5.65586 14.6471C5.68436 14.7415 5.74016 14.8254 5.81622 14.8882C5.89228 14.951 5.98522 14.9899 6.08333 15Z" fill="#6E9D3E"/>
<path d="M6.08333 20.8833C7.75 20.65 7.61666 19.8333 9.81666 19.8333C11.0432 19.9223 12.2531 20.1688 13.4167 20.5667C13.7333 20.4667 13.9667 20.3167 13.9667 20C13.9667 19.2833 12.9667 18.5667 11.45 18.3333C7.06666 17.5167 6.65 19.6 5.81666 20C5.73474 19.9916 5.65201 20.0035 5.57581 20.0347C5.49961 20.066 5.4323 20.1156 5.37988 20.1791C5.32745 20.2426 5.29152 20.3181 5.27529 20.3988C5.25905 20.4795 5.26301 20.563 5.28681 20.6419C5.31061 20.7207 5.35352 20.7925 5.41172 20.8507C5.46992 20.909 5.54161 20.952 5.62042 20.9759C5.69923 20.9998 5.78273 21.0038 5.86348 20.9877C5.94424 20.9715 6.01976 20.9357 6.08333 20.8833Z" fill="#6E9D3E"/>
<path d="M6.08333 26.8333C7.75 26.6 7.61667 25.7833 9.81667 25.7833C11.0419 25.8816 12.2506 26.1279 13.4167 26.5167C13.7333 26.4167 13.9667 26.2667 13.9667 25.9667C13.9667 25.2333 12.9667 24.5167 11.45 24.3C7.06667 23.4833 6.65 25.5833 5.81667 25.9667C5.73343 25.9552 5.64864 25.9649 5.57014 25.9949C5.49164 26.0249 5.42197 26.0741 5.36754 26.1381C5.31312 26.2022 5.27571 26.2789 5.25877 26.3612C5.24183 26.4435 5.2459 26.5287 5.27062 26.609C5.29533 26.6893 5.33988 26.7621 5.40016 26.8207C5.46043 26.8792 5.53449 26.9216 5.61549 26.944C5.69649 26.9663 5.78181 26.9679 5.86358 26.9486C5.94535 26.9292 6.02093 26.8896 6.08333 26.8333Z" fill="#6E9D3E"/>
</g>
<defs>
<clipPath id="clip0_1048_7357">
<rect width="40" height="40" fill="white"/>
</clipPath>
</defs>
</svg>
