<svg width="40" height="40" viewBox="0 0 40 40" fill="none" xmlns="http://www.w3.org/2000/svg">
<g clip-path="url(#clip0_1051_8882)">
<path fill-rule="evenodd" clip-rule="evenodd" d="M5.51676 7.08335C4.98343 8.53335 5.78343 6.46668 2.5501 17.6167C1.9501 20 1.18343 21.6667 0.633429 24.3334C0.31179 25.7932 0.100085 27.2752 9.54874e-05 28.7667C-0.00873873 29.013 0.0484043 29.2572 0.165613 29.4741C0.282821 29.6909 0.455838 29.8725 0.666762 30C2.7001 30.85 14.7668 32.65 17.5501 32.9834C17.6897 32.9869 17.8258 32.9387 17.9321 32.8481C18.0384 32.7574 18.1074 32.6307 18.126 32.4923C18.1446 32.3539 18.1114 32.2134 18.0328 32.098C17.9542 31.9825 17.8357 31.9001 17.7001 31.8667C13.9834 31.2667 4.6001 29.3834 1.8501 28.5334C2.03343 25 3.7001 20.6334 4.33343 18.0834L6.0001 11.4167C6.3001 9.98335 6.66676 7.05002 7.38343 6.30002C7.83343 5.85002 7.81676 5.95002 8.78343 6.11668C9.28343 6.11668 9.46676 5.20002 8.78343 5.05002C6.93343 4.58335 6.66676 4.16668 5.51676 7.08335Z" fill="#6E9D3E"/>
<path fill-rule="evenodd" clip-rule="evenodd" d="M30.3166 10.4167C29.3139 12.8888 28.6468 15.4841 28.3333 18.1334C28.3082 18.2587 28.332 18.3889 28.3999 18.4972C28.4678 18.6055 28.5746 18.6837 28.6984 18.7157C28.8221 18.7477 28.9534 18.7311 29.0653 18.6693C29.1772 18.6075 29.2612 18.5051 29.3 18.3834C29.5833 17.6 29.8666 16.8334 30.1666 16.0667C31.1 13.6167 33.7666 8.80002 31.1 8.26669C30.9833 8.26669 29.9833 8.03336 29.15 7.95002C28.3166 7.86669 27.8833 8.83336 28.8666 9.10002C28.85 9.11669 30.6333 9.30002 30.3166 10.4167Z" fill="#6E9D3E"/>
<path fill-rule="evenodd" clip-rule="evenodd" d="M29.7333 3.90002C22.6833 1.43336 23.5333 1.46669 22.05 1.13336C19.5981 0.568318 17.0979 0.239042 14.5833 0.150024C12.0333 0.300024 11.3333 1.26669 10.55 3.48336C8.21255 9.91734 6.51544 16.5662 5.48331 23.3334C5.35533 23.9771 5.35533 24.6397 5.48331 25.2834C5.639 25.6208 5.90298 25.8965 6.23331 26.0667C8.38331 26.5167 12.9 27.7334 13.1 27.7334C14.4166 28.0167 16.4333 28.35 17.4166 28.5834C17.5624 28.6196 17.7165 28.5983 17.8469 28.5237C17.9773 28.4492 18.0739 28.3273 18.1166 28.1834C18.3166 27.4 17.5666 27.4834 13.9666 26.5167C6.69998 24.5834 7.19998 24.7167 7.29998 24.2167C7.39998 23.7167 7.53331 22.55 7.74998 21.2334C10.5333 5.00002 11.0166 6.78336 11.2333 5.93336C11.4666 6.05002 11.6666 5.93336 13.9166 6.50002C14.8666 6.71669 15.8333 7.01669 16.7833 7.28336C22.4666 8.76669 22.6833 8.16669 25.3333 8.85002C25.4498 8.86848 25.5691 8.84516 25.67 8.78419C25.771 8.72322 25.8471 8.62852 25.885 8.51683C25.9229 8.40514 25.9201 8.28365 25.8771 8.17383C25.8341 8.06401 25.7536 7.97293 25.65 7.91669C24.2 7.28336 21.7333 6.75002 20.15 6.25002C17.3465 5.43923 14.4507 4.99113 11.5333 4.91669H11.4166C12.9166 0.833358 13.0833 1.58336 22.5166 3.10002C26.2 4.15002 24.8666 3.80002 28.4166 4.65002C27 5.85002 26.1166 9.26669 25.0833 12.1667C24.2874 14.4704 23.7289 16.8494 23.4166 19.2667C23.3915 19.392 23.4154 19.5222 23.4833 19.6305C23.5512 19.7388 23.658 19.817 23.7817 19.849C23.9055 19.881 24.0368 19.8644 24.1487 19.8026C24.2605 19.7408 24.3445 19.6385 24.3833 19.5167C24.9627 17.837 25.4358 16.1225 25.8 14.3834C26.2121 12.8629 26.7073 11.3662 27.2833 9.90002C27.6937 8.59499 28.2064 7.32438 28.8166 6.10002C30.1166 4.60002 33.4 5.71669 33.8166 7.33336C33.872 8.53385 33.7484 9.7359 33.45 10.9C32.95 16.35 31.6166 17.7 32.5333 18C32.5957 18.0209 32.6616 18.0293 32.7272 18.0247C32.7928 18.02 32.8569 18.0025 32.9157 17.9731C32.9745 17.9437 33.027 17.903 33.07 17.8532C33.1131 17.8035 33.1459 17.7458 33.1666 17.6834C34.3406 14.651 35.2495 11.5226 35.8833 8.33336C36.2 5.00002 32.4166 3.11669 29.7333 3.90002Z" fill="#6E9D3E"/>
<path fill-rule="evenodd" clip-rule="evenodd" d="M20.6167 13.6C19.1997 12.8956 17.6987 12.3748 16.15 12.05C16.0333 12.0167 12.4667 11.6667 12.3667 11.6667C12.3121 11.702 12.2652 11.7479 12.2288 11.8017C12.1923 11.8556 12.1671 11.9162 12.1547 11.98C12.1423 12.0438 12.1428 12.1094 12.1563 12.173C12.1698 12.2366 12.196 12.2968 12.2333 12.35C12.373 12.5533 12.5704 12.7101 12.8 12.8C13.7739 13.1964 14.77 13.5358 15.7833 13.8167C15.9167 13.8167 20.3167 14.6667 20.45 14.6667C21.05 14.7834 21.6667 14.1334 20.6167 13.6Z" fill="#6E9D3E"/>
<path fill-rule="evenodd" clip-rule="evenodd" d="M19.75 20C17.8367 19.1234 15.8291 18.4691 13.7667 18.05C13.104 17.9982 12.4374 18.0318 11.7833 18.15C11.0167 18.25 10.4167 18.15 10.5 18.7334C10.5833 19.3167 11.0333 19.3167 11.7833 19.4167C14.3122 20.1346 16.884 20.6913 19.4833 21.0834C19.6161 21.092 19.7476 21.0536 19.8549 20.975C19.9621 20.8963 20.0383 20.7825 20.0701 20.6533C20.1019 20.5242 20.0873 20.388 20.0287 20.2685C19.9702 20.1491 19.8715 20.0541 19.75 20Z" fill="#6E9D3E"/>
<path fill-rule="evenodd" clip-rule="evenodd" d="M37.7333 24.2834C36.7463 23.1192 35.5011 22.2017 34.0969 21.6039C32.6926 21.006 31.1681 20.7444 29.6449 20.8399C28.1217 20.9355 26.6418 21.3854 25.3232 22.154C24.0046 22.9225 22.8838 23.9884 22.05 25.2667C19.2666 29.3667 20.7166 35.3834 23.4666 37.15C23.5794 37.2166 23.7132 37.2378 23.841 37.2095C23.9688 37.1811 24.0811 37.1053 24.1552 36.9974C24.2292 36.8895 24.2596 36.7574 24.24 36.628C24.2205 36.4985 24.1526 36.3813 24.05 36.3C21.85 34.7667 20.8666 29.5 23.35 26.2C24.0696 25.1897 25.0083 24.355 26.0959 23.7583C27.1834 23.1616 28.3918 22.8184 29.6306 22.7543C30.8694 22.6902 32.1067 22.9069 33.25 23.3881C34.3934 23.8693 35.4132 24.6027 36.2333 25.5334C40.3 30.35 37.9 37.6667 30.7166 38.5167C29.4057 38.6991 28.071 38.6025 26.8 38.2334C26.6519 38.1848 26.4906 38.1969 26.3515 38.2673C26.2124 38.3376 26.1069 38.4603 26.0583 38.6084C26.0097 38.7565 26.0219 38.9178 26.0922 39.0569C26.1625 39.196 26.2852 39.3014 26.4333 39.35C27.8564 39.8143 29.3613 39.9733 30.85 39.8167C32.6321 39.7784 34.3664 39.2333 35.8499 38.2451C37.3335 37.257 38.5049 35.8667 39.227 34.2371C39.9492 32.6074 40.1922 30.8058 39.9277 29.043C39.6632 27.2802 38.902 25.6293 37.7333 24.2834Z" fill="#6E9D3E"/>
<path fill-rule="evenodd" clip-rule="evenodd" d="M27.9333 34.3167C29.8666 34.4334 32.15 29.05 32.9333 27.3167C33.1806 27.0428 33.3376 26.6995 33.3833 26.3334C33.3769 26.2071 33.3308 26.0861 33.2515 25.9877C33.1722 25.8892 33.0639 25.8183 32.942 25.785C32.82 25.7517 32.6907 25.7578 32.5724 25.8024C32.4541 25.847 32.3529 25.9279 32.2833 26.0334C31.8833 26.5167 27.7 32.6 27.8 32.7C27.4666 32.7 25.7666 30.7334 25.5333 30.5834C25.3 30.4334 24.5333 30.8667 24.9166 31.4334C25.65 32.4834 26.8 34.2667 27.9333 34.3167Z" fill="#6E9D3E"/>
</g>
<defs>
<clipPath id="clip0_1051_8882">
<rect width="40" height="40" fill="white"/>
</clipPath>
</defs>
</svg>
