<svg width="40" height="40" viewBox="0 0 40 40" fill="none" xmlns="http://www.w3.org/2000/svg">
<g clip-path="url(#clip0_1051_8818)">
<path fill-rule="evenodd" clip-rule="evenodd" d="M17.5334 19.25C17.4945 18.615 17.3061 17.9982 16.9834 17.45C16.7499 17.0626 16.4575 16.7139 16.1167 16.4166C15.9903 16.313 15.8427 16.2384 15.6843 16.1981C15.5259 16.1578 15.3606 16.1527 15.2 16.1833C14.9875 16.2519 14.791 16.3625 14.6221 16.5085C14.4532 16.6545 14.3153 16.833 14.2167 17.0333C13.7834 17.7833 13.35 19.15 13.15 19.45C12.6422 20.2691 11.9866 20.9869 11.2167 21.5666L11.0667 21.6666C11.2 21.45 11.3334 21.2666 11.45 21.05C11.7578 20.4591 11.9443 19.8126 11.9987 19.1486C12.0531 18.4846 11.9742 17.8164 11.7667 17.1833C11.3076 16.0055 10.4689 15.0143 9.38336 14.3666C8.31806 13.6962 7.07434 13.3649 5.81669 13.4166C4.75979 13.4513 3.73206 13.7719 2.84283 14.3442C1.95359 14.9164 1.23611 15.7191 0.766691 16.6666C0.332522 17.6328 0.216398 18.7119 0.435063 19.7483C0.653728 20.7847 1.19588 21.7249 1.98336 22.4333C2.18625 22.634 2.4097 22.8127 2.65002 22.9666C2.47127 23.0422 2.29855 23.1314 2.13336 23.2333C1.81184 23.4685 1.51579 23.7366 1.25002 24.0333C0.729978 24.6645 0.359607 25.4052 0.166691 26.2C-0.0251273 26.9997 -0.0251273 27.8335 0.166691 28.6333C0.312798 29.3395 0.654293 29.9904 1.15227 30.5119C1.65026 31.0335 2.28471 31.4047 2.98336 31.5833V31.8C3.10002 32.8833 3.31669 33.9333 3.45002 34.9666C3.45002 35.1125 3.50797 35.2524 3.61112 35.3555C3.71426 35.4587 3.85415 35.5166 4.00002 35.5166C4.1315 35.5048 4.25434 35.4462 4.34614 35.3513C4.43793 35.2565 4.49255 35.1317 4.50002 35C4.60002 33.8333 4.70002 32.6333 4.71669 31.4166V29.3333C4.62253 28.3028 4.59469 27.2673 4.63336 26.2333C4.64799 26.1719 4.65003 26.1082 4.63935 26.0461C4.62866 25.9839 4.60549 25.9245 4.57121 25.8715C4.53694 25.8186 4.49229 25.7731 4.43994 25.7379C4.3876 25.7027 4.32867 25.6784 4.26669 25.6666C4.14307 25.6417 4.01462 25.6662 3.90876 25.7347C3.80289 25.8032 3.72798 25.9103 3.70002 26.0333C3.26284 27.1996 2.99892 28.4238 2.91669 29.6666V30.2C2.51486 29.8914 2.20861 29.4753 2.03336 29C1.80816 28.2045 1.80816 27.3621 2.03336 26.5666C2.10656 25.9851 2.28144 25.4209 2.55002 24.9C2.71845 24.5729 2.93786 24.2747 3.20002 24.0166C3.40002 23.8333 3.61669 23.6833 3.81669 23.5166L4.06669 23.6333C5.12153 23.9076 6.21092 24.0255 7.30002 23.9833C7.42821 23.9833 7.55115 23.9324 7.64179 23.8417C7.73243 23.7511 7.78336 23.6281 7.78336 23.5C7.78336 23.3718 7.73243 23.2488 7.64179 23.1582C7.55115 23.0676 7.42821 23.0166 7.30002 23.0166C6.32334 22.9952 5.35605 22.8209 4.43336 22.5C3.88335 22.3022 3.3988 21.9561 3.03336 21.5C2.51916 20.968 2.18223 20.2899 2.06883 19.5588C1.95543 18.8277 2.07113 18.0794 2.40002 17.4166C2.75154 16.7738 3.26636 16.235 3.89255 15.8546C4.51875 15.4742 5.23418 15.2656 5.96669 15.25C6.86722 15.2016 7.76301 15.4096 8.55002 15.85C9.35356 16.2698 10.0018 16.9355 10.4 17.75C10.725 18.6448 10.6891 19.631 10.3 20.5C10.1372 20.9562 9.87695 21.3715 9.5373 21.7169C9.19765 22.0623 8.7868 22.3295 8.33336 22.5C8.26517 22.5191 8.20147 22.5516 8.146 22.5957C8.09052 22.6397 8.04437 22.6943 8.01023 22.7564C7.9761 22.8185 7.95467 22.8867 7.94719 22.9571C7.93972 23.0276 7.94635 23.0988 7.96669 23.1666C7.99372 23.2567 8.04558 23.3373 8.11633 23.3992C8.18708 23.4611 8.27386 23.5018 8.36669 23.5166C8.40657 23.6072 8.47628 23.6815 8.56422 23.727C8.65216 23.7724 8.75302 23.7864 8.85002 23.7666C9.94793 23.5682 10.9958 23.1547 11.9334 22.55C12.8762 21.9367 13.7053 21.164 14.3834 20.2666C14.55 20.0333 14.9167 18.6 15.3167 17.95C15.3167 18.1 15.45 18.2833 15.4667 18.3333C15.6751 18.7333 15.7675 19.1836 15.7334 19.6333C15.6903 20.1585 15.5724 20.6748 15.3834 21.1666C15.1038 21.9426 14.7107 22.6728 14.2167 23.3333C13.7347 24.0276 13.1756 24.665 12.55 25.2333C12.1667 25.6 11.3167 26.0666 10.8834 26.5333C10.6732 26.7085 10.4931 26.9168 10.35 27.15C10.2373 27.4064 10.1969 27.6889 10.2334 27.9666C10.2334 28.4666 10.5334 29.25 10.5667 29.5166C10.6667 30.3166 10.7667 31.1833 10.8 31.95C10.85 32.7547 10.85 33.5618 10.8 34.3666C10.781 34.4429 10.7785 34.5223 10.7927 34.5996C10.807 34.6769 10.8376 34.7503 10.8826 34.8148C10.9276 34.8792 10.9858 34.9333 11.0535 34.9733C11.1211 35.0133 11.1966 35.0384 11.2747 35.0468C11.3529 35.0552 11.4319 35.0468 11.5065 35.0221C11.5811 34.9974 11.6496 34.957 11.7073 34.9036C11.765 34.8502 11.8105 34.785 11.8409 34.7125C11.8713 34.64 11.8857 34.5619 11.8834 34.4833C11.9832 33.6314 12.0332 32.7744 12.0334 31.9166V29.3833C12.0334 29.1166 12.1834 28.0333 11.9167 27.7166L13.8 26.4333C14.5442 25.8104 15.2101 25.0997 15.7834 24.3166C16.3776 23.5189 16.8494 22.637 17.1834 21.7C17.4519 20.9123 17.5706 20.0813 17.5334 19.25Z" fill="#6E9D3E"/>
<path fill-rule="evenodd" clip-rule="evenodd" d="M30 8.18329C29.1833 8.78329 28.3333 9.34996 27.5167 9.84996C26.7148 10.3956 25.8798 10.891 25.0167 11.3333C24.4333 11.6666 23.8333 11.95 23.2333 12.2333C22.6333 12.5166 22 12.8333 21.3667 13.1C20.7333 13.3666 19.7 13.8 18.7667 14.1333C18.7054 14.1508 18.6482 14.1802 18.5982 14.2198C18.5483 14.2595 18.5067 14.3085 18.4757 14.3643C18.4448 14.42 18.4251 14.4812 18.4178 14.5446C18.4106 14.6079 18.4158 14.672 18.4333 14.7333C18.4509 14.7946 18.4803 14.8518 18.5199 14.9017C18.5595 14.9516 18.6086 14.9933 18.6643 15.0242C18.72 15.0552 18.7813 15.0749 18.8446 15.0821C18.9079 15.0894 18.9721 15.0841 19.0333 15.0666C20.4818 14.8511 21.9173 14.5562 23.3333 14.1833C24.2687 13.875 25.1727 13.4787 26.0333 13C26.747 12.5549 27.4317 12.065 28.0833 11.5333C29.0333 10.75 29.9167 9.86663 30.8167 9.03329C30.9294 8.925 30.9945 8.77636 30.9976 8.62008C31.0007 8.4638 30.9416 8.31268 30.8333 8.19996C30.725 8.08724 30.5764 8.02216 30.4201 8.01904C30.2639 8.01591 30.1127 8.075 30 8.18329Z" fill="#6E9D3E"/>
<path fill-rule="evenodd" clip-rule="evenodd" d="M22.0667 15.3667C21.943 15.3364 21.8123 15.3561 21.703 15.4217C21.5938 15.4872 21.5149 15.5932 21.4834 15.7167C21.1699 16.3791 20.9242 17.0715 20.75 17.7833C20.68 18.0902 20.6354 18.4024 20.6167 18.7167C20.6002 19.022 20.6002 19.328 20.6167 19.6333C20.6167 20.3667 20.8167 21.05 20.9334 21.75C20.9334 21.8959 20.9913 22.0358 21.0945 22.1389C21.1976 22.2421 21.3375 22.3 21.4834 22.3C21.6292 22.3 21.7691 22.2421 21.8723 22.1389C21.9754 22.0358 22.0334 21.8959 22.0334 21.75C22.0334 21.0833 22.25 20.4167 22.35 19.7167C22.3998 19.4355 22.4332 19.1517 22.45 18.8667V18C22.45 17.3 22.35 16.65 22.45 15.9833C22.4673 15.9176 22.4709 15.849 22.4608 15.7819C22.4506 15.7147 22.4269 15.6502 22.391 15.5925C22.3552 15.5348 22.3079 15.485 22.2521 15.4462C22.1964 15.4074 22.1333 15.3803 22.0667 15.3667Z" fill="#6E9D3E"/>
<path fill-rule="evenodd" clip-rule="evenodd" d="M26.9 13.55C26.7743 13.5358 26.648 13.5715 26.5483 13.6494C26.4486 13.7273 26.3834 13.8412 26.3667 13.9667C26.0734 14.8488 25.845 15.7512 25.6834 16.6667C25.6198 17.0639 25.5808 17.4646 25.5667 17.8667V19.05C25.5667 19.9833 25.7834 20.9 25.9167 21.8167C25.9252 21.9611 25.9887 22.0968 26.094 22.196C26.1994 22.2951 26.3387 22.3502 26.4834 22.35C26.5556 22.3478 26.6267 22.3315 26.6926 22.3018C26.7585 22.2722 26.818 22.2298 26.8675 22.1772C26.917 22.1246 26.9557 22.0627 26.9813 21.9951C27.0069 21.9275 27.0189 21.8556 27.0167 21.7833C27.0167 20.8667 27.2167 19.9833 27.3 19.0833C27.3 18.7 27.3 18.3167 27.3834 17.9333C27.4667 17.55 27.3834 17.1667 27.3834 16.7833C27.3834 15.8833 27.2667 15 27.2667 14.0833C27.2824 13.9648 27.2535 13.8447 27.1858 13.7462C27.1181 13.6477 27.0163 13.5778 26.9 13.55Z" fill="#6E9D3E"/>
<path fill-rule="evenodd" clip-rule="evenodd" d="M30 14.8C30 15.2833 29.9 15.7833 29.8667 16.2833C29.8417 16.7775 29.8417 17.2725 29.8667 17.7667C29.9353 18.9442 30.097 20.1146 30.35 21.2667C30.356 21.3378 30.3766 21.407 30.4106 21.4698C30.4447 21.5326 30.4913 21.5877 30.5477 21.6316C30.6041 21.6754 30.669 21.7071 30.7382 21.7246C30.8075 21.7421 30.8796 21.7451 30.95 21.7333C31.0931 21.7166 31.2239 21.6443 31.3143 21.5321C31.4047 21.4199 31.4474 21.2767 31.4334 21.1333C31.4334 19.9833 31.5334 18.85 31.6 17.7C31.6 16.9333 31.7334 16.1667 31.7334 15.4C31.7334 14.0833 31.65 12.7833 31.5834 11.4833C31.5879 11.4198 31.5798 11.3561 31.5597 11.2957C31.5395 11.2353 31.5076 11.1795 31.4657 11.1315C31.4239 11.0835 31.373 11.0442 31.316 11.0159C31.259 10.9876 31.1969 10.9709 31.1334 10.9667C31.0707 10.9621 31.0078 10.9703 30.9484 10.9907C30.889 11.0111 30.8343 11.0432 30.7876 11.0852C30.7409 11.1273 30.7032 11.1783 30.6767 11.2352C30.6502 11.2922 30.6354 11.3539 30.6334 11.4167C30.3667 12.5333 30.1 13.65 30 14.8Z" fill="#6E9D3E"/>
<path fill-rule="evenodd" clip-rule="evenodd" d="M39.5167 5.11665C37.1885 4.816 34.8467 4.63244 32.5 4.56665H27.2667C25.5167 4.56665 23.7834 4.56665 22.05 4.66665H18.4667C16.6556 4.66665 14.8389 4.73332 13.0167 4.86665C11.0001 4.98332 8.98338 5.16665 6.96672 5.46665C6.83853 5.48212 6.72174 5.54788 6.64203 5.64946C6.56233 5.75105 6.52625 5.88013 6.54172 6.00832C6.55719 6.13651 6.62295 6.2533 6.72453 6.333C6.82611 6.4127 6.9552 6.44879 7.08338 6.43332C8.03338 6.36665 9.00005 6.34998 10.0001 6.33332C9.98431 6.38776 9.98431 6.44554 10.0001 6.49998C9.82507 7.29248 9.69155 8.09357 9.60005 8.89998C9.57511 9.23841 9.57511 9.57822 9.60005 9.91665V10.95C9.60005 11.75 9.83338 12.5333 9.95005 13.3333C9.95856 13.4778 10.022 13.6135 10.1274 13.7126C10.2327 13.8118 10.372 13.8669 10.5167 13.8667C10.6433 13.8466 10.7584 13.7817 10.841 13.6838C10.9237 13.5859 10.9683 13.4614 10.9667 13.3333C11.0667 12.5333 11.1834 11.6667 11.2501 10.9333V9.91665V8.89998C11.2501 8.08332 10.9834 7.33332 10.8501 6.53332V6.31665H11.6501C13.75 6.31665 15.8501 6.41665 17.9501 6.46665H22.1834C23.5834 6.46665 25.4334 6.46665 27.0667 6.29998C29.4834 6.19998 31.9167 6.03332 34.3334 6.01665C35.3501 6.01665 36.3501 6.01665 37.3501 6.13332C37.2167 8.38332 37.0834 10.6333 37.0167 12.9V16.7667V20.65C37.0167 21.95 36.8834 23.2167 36.7334 24.5C36.714 24.6454 36.7519 24.7927 36.8389 24.9108C36.9259 25.0289 37.0554 25.1087 37.2001 25.1333C37.3436 25.1523 37.4888 25.114 37.6042 25.0267C37.7197 24.9393 37.796 24.8099 37.8167 24.6667C38.3606 22.0857 38.7061 19.467 38.8501 16.8333C38.8501 15.2667 38.9334 13.6833 38.8501 12.1166C38.8501 10.1166 38.6001 8.13332 38.4667 6.16665H39.5334C39.6661 6.16262 39.7929 6.1107 39.8904 6.02048C39.9878 5.93026 40.0493 5.80783 40.0635 5.67579C40.0777 5.54376 40.0437 5.41104 39.9677 5.30214C39.8917 5.19324 39.7789 5.11552 39.6501 5.08332L39.5167 5.11665Z" fill="#6E9D3E"/>
<path fill-rule="evenodd" clip-rule="evenodd" d="M35.8667 24.4C34.0409 24.6794 32.1971 24.8242 30.3501 24.8333H25.1834H17.3167C17.1895 24.8284 17.0652 24.8723 16.9692 24.9559C16.8732 25.0395 16.8127 25.1566 16.8001 25.2833C16.7955 25.3468 16.8036 25.4106 16.8238 25.471C16.844 25.5313 16.8759 25.5871 16.9177 25.6351C16.9595 25.6832 17.0104 25.7224 17.0674 25.7507C17.1245 25.779 17.1865 25.7957 17.2501 25.8C18.9167 26.0166 20.5834 26.25 22.1501 26.45C22.0957 26.5683 22.0511 26.691 22.0167 26.8166C22.0003 26.955 22.0003 27.0949 22.0167 27.2333C22.002 27.3718 22.002 27.5115 22.0167 27.65C22.0238 27.7331 22.0238 27.8168 22.0167 27.9C21.6164 28.0512 21.2626 28.3046 20.9907 28.635C20.7187 28.9655 20.5381 29.3614 20.4667 29.7833C20.4667 29.8666 20.0001 32.7833 23.6834 32.4833C25.0501 32.4833 25.6334 31.3 25.5834 30.1166C25.5514 29.5606 25.3462 29.0286 24.9964 28.5952C24.6467 28.1618 24.1701 27.8487 23.6334 27.7C23.6406 27.667 23.6406 27.6329 23.6334 27.6C23.6497 27.4616 23.6497 27.3217 23.6334 27.1833C23.6573 27.0454 23.6573 26.9045 23.6334 26.7666V26.6333C24.5834 26.7166 25.5167 26.7666 26.4667 26.7666C27.4167 26.7666 28.3834 26.7666 29.3334 26.6833C31.5844 26.5298 33.8162 26.1671 36.0001 25.6C36.1437 25.569 36.2692 25.4823 36.3489 25.3588C36.4286 25.2354 36.456 25.0853 36.4251 24.9416C36.3941 24.798 36.3074 24.6725 36.1839 24.5928C36.0604 24.5131 35.9104 24.4857 35.7667 24.5166L35.8667 24.4ZM24.2001 30.1833C24.3001 30.65 24.2001 31.1833 23.7167 31.2666C23.7167 31.2666 22.0501 32.1 22.0501 30.3166C22.0812 30.0675 22.1992 29.8373 22.3834 29.6666C22.5077 29.5308 22.6655 29.4301 22.841 29.3745C23.0165 29.3189 23.2036 29.3104 23.3834 29.35C23.5898 29.3816 23.78 29.4804 23.9246 29.6311C24.0692 29.7817 24.1602 29.9758 24.1834 30.1833H24.2001Z" fill="#6E9D3E"/>
</g>
<defs>
<clipPath id="clip0_1051_8818">
<rect width="40" height="40" fill="white"/>
</clipPath>
</defs>
</svg>
