<svg width="41" height="40" viewBox="0 0 41 40" fill="none" xmlns="http://www.w3.org/2000/svg">
<path fill-rule="evenodd" clip-rule="evenodd" d="M39.4 9.68334C39.1833 7.85 39.2833 4.23334 37.8667 3.21667C34.7 0.950004 27.8667 1.55 23.2 1.41667C17.3833 1.2 11.2333 1.66667 5.5 1.81667C5.34971 1.81667 5.20558 1.87637 5.09931 1.98264C4.99303 2.08891 4.93333 2.23305 4.93333 2.38334C4.93333 2.53363 4.99303 2.67776 5.09931 2.78403C5.20558 2.8903 5.34971 2.95 5.5 2.95C11.2833 2.86667 17.1667 2.5 23.1167 2.81667C27.15 3.01667 34.25 2.58334 36.8833 4.48334C37.5333 4.95 37.5333 8.55 37.6667 9.8C38.2305 14.2802 38.2696 18.8108 37.7833 23.3C37.7055 24.7896 37.4595 26.2657 37.05 27.7C32.85 29.8333 4.16667 31.35 2.48333 28.6333C1.8563 26.3784 1.50375 24.0561 1.43333 21.7167C1.20477 19.3288 1.17689 16.9259 1.35 14.5333C2.66667 2.18334 2.58333 3.08334 2.45 2.86667C2.35654 2.77506 2.23088 2.72374 2.1 2.72374C1.96912 2.72374 1.84346 2.77506 1.75 2.86667C1.08333 3.55 0.399999 12.45 0.166666 14.4C-0.283334 17.95 0.166666 27.8167 1.21667 29.4C2.6 31.75 11.7333 31.85 14.55 31.8667C13.4451 33.2879 12.9156 35.0729 13.0667 36.8667L9.46667 37.1333C9.33406 37.1333 9.20688 37.186 9.11311 37.2798C9.01934 37.3736 8.96667 37.5007 8.96667 37.6333C8.96667 37.7659 9.01934 37.8931 9.11311 37.9869C9.20688 38.0807 9.33406 38.1333 9.46667 38.1333C13.8245 38.4732 18.1975 38.5789 22.5667 38.45C24.8833 38.35 27.25 38.0833 29.6333 37.9167C29.7836 37.9167 29.9278 37.857 30.034 37.7507C30.1403 37.6444 30.2 37.5003 30.2 37.35C30.2 37.1997 30.1403 37.0556 30.034 36.9493C29.9278 36.843 29.7836 36.7833 29.6333 36.7833H26.5667C26.3458 34.9389 25.7804 33.1524 24.9 31.5167C27.1 31.3667 37.4667 30.65 38.7 28.8167C39.3795 27.1426 39.7412 25.3566 39.7667 23.55C40.214 18.9303 40.0908 14.273 39.4 9.68334ZM25.2 36.8333C20.45 36.7167 18.1333 36.6833 14.3 36.8333C14.55 36.2 14.9667 35.3 15.15 34.6833C15.3911 33.7825 15.5528 32.8624 15.6333 31.9333C15.6333 31.7333 16.1 32.0667 23.4333 31.6167C23.5897 33.4733 24.196 35.2638 25.2 36.8333Z" fill="#6E9D3E"/>
<path fill-rule="evenodd" clip-rule="evenodd" d="M26.3 10.1833C26.3501 10.1343 26.3893 10.0753 26.4151 10.0101C26.4409 9.94489 26.4527 9.87501 26.4498 9.80497C26.4468 9.73492 26.4292 9.66628 26.398 9.6035C26.3668 9.54072 26.3227 9.4852 26.2687 9.44055C26.2146 9.3959 26.1518 9.36312 26.0842 9.34433C26.0167 9.32554 25.946 9.32116 25.8766 9.33148C25.8073 9.3418 25.7409 9.36659 25.6817 9.40424C25.6226 9.44188 25.572 9.49155 25.5333 9.55C20.6833 14.55 17.7167 17.5833 17.6167 18.45C17.1833 22.1833 16.9333 24 17.45 24.5333C18.4833 25.65 22.6667 24.3833 23.55 23.8333C24.4333 23.2833 31.8833 14.8667 32.75 13.6667C33.935 12.5192 34.7529 11.0459 35.1 9.43333C35.0709 8.8716 34.9287 8.32152 34.6821 7.81597C34.4355 7.31043 34.0895 6.85981 33.6647 6.49106C33.24 6.12232 32.7452 5.84302 32.21 5.66987C31.6749 5.49672 31.1103 5.43328 30.55 5.48333C29.6122 5.62837 28.7561 6.10072 28.1333 6.81667C28.0272 6.89623 27.9571 7.01468 27.9384 7.14596C27.9196 7.27723 27.9538 7.41058 28.0333 7.51667C28.1129 7.62275 28.2313 7.69289 28.3626 7.71164C28.4939 7.7304 28.6272 7.69623 28.7333 7.61667C28.9916 7.38855 29.2924 7.2137 29.6185 7.10215C29.9446 6.9906 30.2894 6.94456 30.6333 6.96667C31.5333 6.96667 33.3667 8.43333 33.35 9.36667C33.3677 10.3473 33.0168 11.2989 32.3667 12.0333C31.95 11.6333 28.5333 8.86667 27.8333 8.21667C27.7233 8.13826 27.589 8.10172 27.4544 8.11363C27.3199 8.12555 27.194 8.18513 27.0995 8.28164C27.005 8.37815 26.9481 8.50524 26.939 8.64001C26.9299 8.77478 26.9693 8.90835 27.05 9.01667C27.7167 9.7 30.2667 11.9333 31.35 12.9833C30.75 13.8833 30.8167 13.7 24.4167 20.3167C24.0592 19.51 23.5451 18.7822 22.9042 18.1757C22.2634 17.5692 21.5085 17.0959 20.6833 16.7833C22.3667 14.7167 24.7 12.0833 26.3 10.1833ZM21.15 19.1333C21.8167 19.8167 22.95 20.6833 23.5333 21.2333C23.2195 21.5856 22.8856 21.9195 22.5333 22.2333C21.415 22.7311 20.2202 23.0354 19 23.1333C19 18.1333 19.15 18.75 19.9167 17.7667C20.3 18.1833 20.6833 18.65 21.15 19.1333Z" fill="#6E9D3E"/>
<path fill-rule="evenodd" clip-rule="evenodd" d="M5.08333 24.2333C5.23333 24.2333 6.06666 23.4667 6.4 23.2667C7.41666 22.7 8.66666 21.3833 9.55 21.6C9.8 21.6 9.68333 21.8667 9.65 22.0833C9.48333 23.2333 8.91666 24.5167 9.75 25.25C11.0333 26.4167 12.7 24.7833 15.9333 24.6C16.0649 24.5772 16.1841 24.5087 16.2701 24.4065C16.356 24.3044 16.4032 24.1752 16.4032 24.0417C16.4032 23.9082 16.356 23.779 16.2701 23.6768C16.1841 23.5747 16.0649 23.5062 15.9333 23.4833C14.5789 23.4396 13.2243 23.5628 11.9 23.85C10.8167 24.0667 11.1167 24.1167 11.25 23.6167C11.4748 22.9058 11.5763 22.1618 11.55 21.4167C11.5225 20.9837 11.3381 20.5755 11.0313 20.2687C10.7245 19.962 10.3163 19.7775 9.88333 19.75C8 19.5167 6.9 21.4167 5.76666 22.2667C5.46122 22.5385 5.17185 22.8279 4.9 23.1333C4.25 23.3333 4.26666 24.4167 5.08333 24.2333Z" fill="#6E9D3E"/>
</svg>
