<svg width="40" height="40" viewBox="0 0 40 40" fill="none" xmlns="http://www.w3.org/2000/svg">
<g clip-path="url(#clip0_3065_1459)">
<path fill-rule="evenodd" clip-rule="evenodd" d="M40 36.35C40.0146 35.5026 39.8361 34.6631 39.478 33.8949C39.1199 33.1268 38.5917 32.4503 37.9333 31.9166C37.4945 31.6568 37.0158 31.471 36.5167 31.3666C39.2 29.2666 38.85 24.25 35.2833 23.5166C35.1399 23.5001 34.9954 23.5373 34.8778 23.6211C34.7602 23.705 34.6779 23.8294 34.6468 23.9705C34.6157 24.1115 34.638 24.259 34.7094 24.3845C34.7808 24.5101 34.8962 24.6046 35.0333 24.65C37.8167 25.3166 37.5333 31.3166 32.3833 30.25C29.1667 29.5333 29.7333 23.8166 34.05 24.1333C34.1734 24.1268 34.2903 24.0762 34.3796 23.9908C34.469 23.9055 34.5247 23.7909 34.5368 23.6679C34.5489 23.545 34.5165 23.4217 34.4456 23.3206C34.3746 23.2194 34.2697 23.1471 34.15 23.1166C33.1204 22.947 32.0636 23.126 31.1473 23.6254C30.2311 24.1248 29.5078 24.9159 29.0924 25.8731C28.6769 26.8304 28.5931 27.8989 28.8541 28.9092C29.1152 29.9196 29.7062 30.8138 30.5333 31.45C29.7762 31.7065 29.0933 32.1443 28.5443 32.7253C27.9952 33.3064 27.5966 34.0129 27.3833 34.7833C26.8292 33.6778 25.8851 32.8168 24.7333 32.3666C22.8333 31.6333 23.0667 32.1666 23.95 31.4166C27.4 28.5833 26.8833 21.8166 22.2833 20.8833C22.1399 20.8667 21.9954 20.904 21.8778 20.9878C21.7602 21.0716 21.6779 21.1961 21.6468 21.3371C21.6157 21.4781 21.638 21.6257 21.7094 21.7512C21.7808 21.8767 21.8962 21.9713 22.0333 22.0166C26.5333 23.15 25.5833 32.4166 18.1833 30.6166C13.35 29.6166 14.05 20.7666 20.5833 21.3C20.649 21.3065 20.7153 21.3001 20.7785 21.281C20.8417 21.262 20.9005 21.2307 20.9515 21.1889C21.0026 21.1471 21.0449 21.0956 21.0761 21.0375C21.1073 20.9793 21.1268 20.9156 21.1333 20.85C21.1399 20.7843 21.1335 20.718 21.1144 20.6548C21.0953 20.5916 21.064 20.5328 21.0222 20.4818C20.9804 20.4307 20.929 20.3883 20.8709 20.3572C20.8127 20.326 20.749 20.3065 20.6833 20.3C19.238 20.0792 17.7609 20.364 16.5012 21.1062C15.2416 21.8484 14.2766 23.0025 13.7693 24.3737C13.2619 25.7449 13.2433 27.2491 13.7165 28.6325C14.1897 30.0158 15.1258 31.1935 16.3667 31.9666C15.3861 32.3796 14.4753 32.9418 13.6667 33.6333C12 35.05 13.05 35.2166 12.1667 33.4833C11.7235 32.5703 10.9485 31.8609 9.99999 31.5C9.24999 31.2666 9.36666 31.3666 9.46666 31.2833C10.3906 30.4768 10.9785 29.3532 11.1142 28.1343C11.25 26.9155 10.9238 25.69 10.2 24.7C9.48333 23.8833 7.69999 22.9 7.46666 23.9333C7.44061 24.0807 7.47063 24.2326 7.55081 24.359C7.63098 24.4854 7.75553 24.5773 7.89999 24.6166C9.99999 25.2 9.99999 28.6166 8.33333 29.8833C7.86831 30.1589 7.35069 30.3339 6.81386 30.397C6.27704 30.4602 5.73293 30.4101 5.21666 30.25C1.99999 29.5333 2.54999 23.8166 6.88333 24.1333C7.00671 24.1268 7.12367 24.0762 7.21298 23.9908C7.3023 23.9055 7.35806 23.7909 7.37016 23.6679C7.38225 23.545 7.34988 23.4217 7.27891 23.3206C7.20794 23.2194 7.10307 23.1471 6.98333 23.1166C5.9537 22.947 4.89691 23.126 3.98065 23.6254C3.0644 24.1248 2.34116 24.9159 1.92572 25.8731C1.51027 26.8304 1.42642 27.8989 1.68747 28.9092C1.94852 29.9196 2.53951 30.8138 3.36666 31.45C2.34827 31.8187 1.45735 32.4725 0.799993 33.3333C0.448686 33.8062 0.196705 34.3453 0.0592199 34.9182C-0.0782653 35.491 -0.098412 36.0858 -7.3955e-06 36.6666C0.0216367 36.7857 0.0843758 36.8933 0.177272 36.9709C0.270168 37.0484 0.387328 37.0909 0.508326 37.0909C0.629324 37.0909 0.746484 37.0484 0.83938 36.9709C0.932276 36.8933 0.995015 36.7857 1.01666 36.6666C1.33224 35.6677 1.90739 34.7705 2.68333 34.0666C3.24537 33.3504 3.92099 32.731 4.68333 32.2333C5.68053 32.453 6.71644 32.4244 7.69999 32.15C8.7025 32.5877 9.57093 33.2836 10.2167 34.1666C10.8035 34.863 11.2914 35.6369 11.6667 36.4666C11.2918 37.3843 11.1597 38.3831 11.2833 39.3666C11.305 39.4857 11.3677 39.5933 11.4606 39.6709C11.5535 39.7484 11.6707 39.7909 11.7917 39.7909C11.9127 39.7909 12.0298 39.7484 12.1227 39.6709C12.2156 39.5933 12.2783 39.4857 12.3 39.3666C12.4145 38.3805 12.8011 37.4456 13.4167 36.6666C14.3367 35.4699 15.3877 34.3798 16.55 33.4166L17.65 32.6833C17.7251 32.6612 17.7938 32.6211 17.85 32.5666C19.148 32.88 20.502 32.88 21.8 32.5666C23.6757 33.4278 25.2285 34.8638 26.2333 36.6666C26.7544 37.5075 27.1846 38.4014 27.5167 39.3333C27.5629 39.4652 27.655 39.5761 27.7761 39.6458C27.8972 39.7156 28.0394 39.7395 28.1767 39.7133C28.314 39.687 28.4373 39.6123 28.5241 39.5028C28.611 39.3933 28.6557 39.2563 28.65 39.1166C28.5576 38.3782 28.4071 37.6481 28.2 36.9333C28.4167 36.6166 28.1 36.5166 28.9 35.2666C29.0167 35.1 29.9167 34.1166 30.0333 33.9833C30.587 33.2593 31.264 32.6387 32.0333 32.15C33.0145 32.3614 34.0322 32.3329 35 32.0666C35.9621 32.5429 36.7793 33.268 37.3667 34.1666C37.9861 34.9222 38.4915 35.7645 38.8667 36.6666C38.9087 36.8169 39.0086 36.9444 39.1446 37.0209C39.2806 37.0975 39.4414 37.117 39.5917 37.075C39.7419 37.033 39.8694 36.933 39.946 36.797C40.0226 36.6611 40.042 36.5002 40 36.35Z" fill="#6E9D3E"/>
<path fill-rule="evenodd" clip-rule="evenodd" d="M26.2297 18.0909C25.9048 17.5656 25.374 17.3726 23.9334 16.6329C20.2182 15.2286 20.0341 15.057 19.7633 15.2822C19.7295 15.3151 19.7027 15.3543 19.6845 15.3976C19.6662 15.4408 19.6568 15.4872 19.6568 15.5341C19.6568 15.581 19.6662 15.6274 19.6845 15.6706C19.7027 15.7139 19.7295 15.7531 19.7633 15.786C20.9998 16.4311 22.277 16.9969 23.5868 17.4798C23.6735 17.5442 25.1791 18.6269 25.2657 18.6484C25.3524 18.6698 21.4422 20.4708 21.2364 20.5566C20.9194 20.7872 20.5449 20.928 20.1532 20.9639C20.0557 20.9639 14.8457 19.1415 14.3908 18.8199C14.7915 18.6162 12.9177 19.774 18.4201 16.322C18.4924 16.2802 18.5454 16.2123 18.5684 16.1326C18.5913 16.0529 18.5822 15.9676 18.5431 15.8943C18.504 15.8211 18.4379 15.7656 18.3585 15.7394C18.2791 15.7133 18.1925 15.7184 18.1169 15.7539L14.8024 17.4048C13.86 17.8336 12.6361 18.4125 13.3401 19.2165C13.1767 20.726 13.1368 22.2461 13.221 23.762C12.9365 23.8418 12.6784 23.9945 12.4728 24.2047C12.2671 24.4149 12.1212 24.6751 12.0498 24.959C11.9783 25.243 11.9839 25.5405 12.0659 25.8217C12.1479 26.1028 12.3035 26.3575 12.5169 26.56C13.3834 27.5034 15.1598 27.439 15.5173 26.1312C15.594 25.8897 15.6194 25.6352 15.5918 25.3836C15.5643 25.132 15.4844 24.8888 15.3572 24.6693C15.23 24.4498 15.0583 24.2587 14.8528 24.108C14.6473 23.9574 14.4126 23.8505 14.1633 23.7941C14.3725 22.5256 14.4162 21.2358 14.2933 19.9562C14.8782 20.2778 15.9289 20.6638 18.3335 21.6072C18.8426 21.7787 19.7416 22.4434 20.4132 22.2182C22.4117 21.4186 24.3301 20.4351 26.1431 19.2809C26.292 19.1218 26.3818 18.9172 26.3975 18.7009C26.4133 18.4846 26.3541 18.2695 26.2297 18.0909ZM14.3908 24.7053C14.6832 25.0591 14.5641 26.1848 14.0658 26.2062C13.5676 26.2276 12.9827 25.3593 13.1018 24.909C13.3293 24.1157 14.315 24.6196 14.3908 24.7053Z" fill="#6E9D3E"/>
<path fill-rule="evenodd" clip-rule="evenodd" d="M23.6495 21.6001C23.161 21.6001 23.2962 22.0994 23.1818 22.5987C23.0675 23.0981 22.4543 23.0881 21.7683 23.3877C21.0824 23.6873 20.3756 24.1567 19.752 24.3864C18.7157 24.1491 17.7062 23.8146 16.7379 23.3877C16.5924 22.6886 16.7379 22.3091 16.3118 22.3091C16.2291 22.3091 16.1498 22.3407 16.0913 22.3969C16.0329 22.4531 16 22.5293 16 22.6087C16 22.6087 16 23.3178 16 23.6074C16.004 23.7279 16.0561 23.8424 16.1455 23.927C16.686 24.4563 19.2635 25.7546 19.9287 25.5848C20.759 25.2875 21.5371 24.8698 22.236 24.3464C22.7653 24.1256 23.2506 23.8181 23.6703 23.4376C24.0133 23.0182 23.9405 22.6387 23.9509 22.0994C23.9826 22.0489 23.9995 21.9911 24 21.9322C24.0005 21.8732 23.9845 21.8152 23.9537 21.7642C23.9229 21.7132 23.8785 21.6711 23.825 21.6422C23.7715 21.6133 23.7109 21.5988 23.6495 21.6001Z" fill="#6E9D3E"/>
<path fill-rule="evenodd" clip-rule="evenodd" d="M9.12974 21.2088C8.50307 21.2088 8.67641 21.8755 8.52974 22.5422C8.38307 23.2088 7.59641 23.1955 6.71641 23.5955C5.83641 23.9955 4.92974 24.6222 4.12974 24.9288C2.8003 24.6121 1.50519 24.1655 0.263073 23.5955C0.0764063 22.6622 0.263072 22.1555 -0.283595 22.1555C-0.389681 22.1555 -0.491422 22.1977 -0.566437 22.2727C-0.641451 22.3477 -0.683594 22.4494 -0.683594 22.5555C-0.683594 22.5555 -0.683594 23.5022 -0.683594 23.8888C-0.678491 24.0498 -0.611649 24.2025 -0.496928 24.3155C0.196405 25.0222 3.50307 26.7555 4.35641 26.5288C5.42161 26.1319 6.41982 25.5743 7.31641 24.8755C7.99542 24.5808 8.61802 24.1702 9.15641 23.6622C9.59641 23.1022 9.50307 22.5955 9.51641 21.8755C9.55698 21.8081 9.57871 21.7309 9.57933 21.6522C9.57996 21.5735 9.55945 21.4961 9.51996 21.428C9.48047 21.3599 9.42343 21.3036 9.35479 21.2651C9.28616 21.2266 9.20844 21.2071 9.12974 21.2088Z" fill="#6E9D3E"/>
</g>
<defs>
<clipPath id="clip0_3065_1459">
<rect width="40" height="40" fill="white"/>
</clipPath>
</defs>
</svg>
