<svg width="41" height="40" viewBox="0 0 41 40" fill="none" xmlns="http://www.w3.org/2000/svg">
<path fill-rule="evenodd" clip-rule="evenodd" d="M5.38333 3.60001C6.98298 3.27447 8.60372 3.06283 10.2333 2.96667C12.7 2.80001 15.2333 2.81667 17.65 2.85001C20.0667 2.88334 22.1167 2.85001 24.3167 2.85001C25.8167 2.85001 27.3 2.85001 28.7833 2.96667C31.1667 3.06667 33.5667 3.26667 35.9833 3.51667V8.98334C35.9833 10.1333 36.0833 11.2667 36.15 12.4167C36.2333 14.0833 36.35 15.8667 36.35 17.6C36.3353 17.6883 36.3401 17.7788 36.3639 17.8651C36.3877 17.9514 36.43 18.0315 36.4879 18.0998C36.5458 18.1681 36.6179 18.2229 36.6991 18.2606C36.7803 18.2982 36.8688 18.3177 36.9583 18.3177C37.0479 18.3177 37.1363 18.2982 37.2175 18.2606C37.2988 18.2229 37.3709 18.1681 37.4287 18.0998C37.4866 18.0315 37.529 17.9514 37.5528 17.8651C37.5766 17.7788 37.5813 17.6883 37.5667 17.6C37.8 15.9333 38 14.2667 38.0667 12.4667C38.1083 11.7284 38.1083 10.9883 38.0667 10.25C38.0667 9.51667 38.0167 8.78334 37.9167 8.05001C37.7167 6.38334 37.35 4.71667 36.9833 3.05001C36.9217 2.88712 36.828 2.73827 36.7078 2.61229C36.5875 2.48632 36.4432 2.38579 36.2833 2.31667C32.5957 1.64567 28.8731 1.18383 25.1333 0.93334C22.6667 0.78334 20.15 0.78334 17.6667 0.83334C15.1833 0.88334 12.6667 1.13334 10.0833 1.50001C8.39599 1.7431 6.72592 2.09382 5.08333 2.55001C4.94859 2.58904 4.83386 2.67807 4.76261 2.7989C4.69135 2.91972 4.66895 3.06321 4.69999 3.20001C4.71516 3.27308 4.7455 3.34215 4.78904 3.40276C4.83258 3.46337 4.88836 3.51417 4.95276 3.55187C5.01717 3.58957 5.08877 3.61334 5.16294 3.62163C5.23711 3.62992 5.31219 3.62255 5.38333 3.60001Z" fill="#6E9D3E"/>
<path fill-rule="evenodd" clip-rule="evenodd" d="M40.9 25.25C40.9034 24.2668 40.8197 23.2852 40.65 22.3167C40.538 21.7357 40.2734 21.1949 39.8833 20.75C39.552 20.4395 39.1524 20.2112 38.7167 20.0834C37.99 19.8895 37.2486 19.7557 36.5 19.6834C35.3624 19.6079 34.221 19.6079 33.0833 19.6834C31.4047 19.7951 29.7347 20.0121 28.0833 20.3334C27.9773 20.355 27.8826 20.4142 27.8167 20.5C27.7823 20.4568 27.7394 20.4212 27.6907 20.3954C27.6419 20.3696 27.5883 20.3541 27.5333 20.35C27.4641 20.3407 27.3938 20.3456 27.3265 20.3643C27.2592 20.3829 27.1964 20.415 27.1419 20.4587C27.0874 20.5023 27.0423 20.5565 27.0093 20.618C26.9763 20.6796 26.9561 20.7471 26.95 20.8167C26.4051 24.1244 26.0877 27.4656 26 30.8167C25.9952 33.0773 26.1177 35.3365 26.3667 37.5834C26.3903 37.7523 26.454 37.9131 26.5526 38.0523C26.6512 38.1915 26.7818 38.305 26.9333 38.3834C27.2299 38.5132 27.5365 38.6191 27.85 38.7L30 39.05C31.9123 39.2334 33.8377 39.2334 35.75 39.05C37.0557 38.9175 38.3355 38.5975 39.55 38.1C39.6264 38.0743 39.6967 38.0331 39.7563 37.9789C39.816 37.9247 39.8638 37.8587 39.8967 37.7851C39.9296 37.7115 39.9468 37.6318 39.9474 37.5512C39.948 37.4706 39.9318 37.3907 39.9 37.3167C40.0476 37.3186 40.191 37.2676 40.3042 37.1728C40.4173 37.078 40.4927 36.9457 40.5167 36.8C40.7956 34.8895 40.957 32.9637 41 31.0334C41 29.1 41 27.15 40.9 25.25ZM35.6333 37.6167C33.8128 37.6395 31.9939 37.4944 30.2 37.1834L28.4167 36.8H28.3167C28.1667 35.4 28.1 33.9667 28.0333 32.5167C27.9667 31.0667 27.85 29.1834 27.85 27.5167C27.85 25.4 27.85 23.3167 28 21.2834C28.0833 21.2834 28.15 21.3667 28.2333 21.2834C29.5785 21.1403 30.9306 21.0735 32.2833 21.0834C33.6044 21.0875 34.9218 21.2215 36.2167 21.4834C36.7796 21.5691 37.3364 21.6916 37.8833 21.85C38.1024 21.8875 38.3087 21.9792 38.4833 22.1167C38.6588 22.3972 38.7566 22.7193 38.7667 23.05C38.8833 23.8834 38.8833 24.8167 38.95 25.35C39.1667 27.5667 39.35 29.85 39.4167 32.1334C39.4167 33.65 39.4167 35.15 39.3333 36.6334C39.327 36.7503 39.356 36.8665 39.4167 36.9667C39.3351 36.9421 39.2482 36.9421 39.1667 36.9667C38.0287 37.3614 36.8373 37.5806 35.6333 37.6167Z" fill="#6E9D3E"/>
<path fill-rule="evenodd" clip-rule="evenodd" d="M7.34999 11.7833C7.33371 11.9217 7.33371 12.0616 7.34999 12.2C7.3406 12.3443 7.3406 12.489 7.34999 12.6333C7.74999 14.1667 8.03333 14.2167 8.31666 14.2167C8.59999 14.2167 8.89999 14.2167 9.28333 12.55C9.30076 12.4117 9.30076 12.2717 9.28333 12.1333C9.30797 11.9955 9.30797 11.8545 9.28333 11.7167C8.83333 10.05 8.36666 10.2 8.33333 10.2C7.88333 10.2333 7.39999 11.6667 7.34999 11.7833Z" fill="#6E9D3E"/>
<path fill-rule="evenodd" clip-rule="evenodd" d="M31.6833 12.6333C31.7006 12.4894 31.7006 12.3439 31.6833 12.2C31.7076 12.0622 31.7076 11.9212 31.6833 11.7833C31.6833 11.6167 31.15 10.2333 30.6667 10.2667C30.6667 10.2667 30.1833 10.1 29.7333 11.7833C29.7171 11.9217 29.7171 12.0616 29.7333 12.2C29.7159 12.3383 29.7159 12.4783 29.7333 12.6167C30.1167 14.1667 30.4 14.2833 30.6833 14.2833C30.9667 14.2833 31.2833 14.1667 31.6833 12.6333Z" fill="#6E9D3E"/>
<path fill-rule="evenodd" clip-rule="evenodd" d="M10.6 16.4L8.93332 15.5833C8.87948 15.458 8.77964 15.358 8.65432 15.304C8.52901 15.25 8.38777 15.2461 8.25966 15.293C8.13155 15.34 8.02631 15.4343 7.96561 15.5565C7.90491 15.6787 7.89335 15.8195 7.93332 15.95C7.91397 16.1911 7.94389 16.4337 8.02125 16.6629C8.09861 16.8922 8.2218 17.1032 8.38332 17.2833C8.50928 17.446 8.67603 17.5725 8.86666 17.65C9.03663 17.7401 9.22448 17.7913 9.41666 17.8C9.82509 17.8237 10.2339 17.7613 10.6167 17.6167C10.7802 17.6167 10.9371 17.5517 11.0527 17.4361C11.1684 17.3204 11.2333 17.1636 11.2333 17C11.2334 16.9183 11.2169 16.8375 11.1847 16.7624C11.1525 16.6874 11.1053 16.6197 11.046 16.5635C10.9867 16.5073 10.9165 16.4639 10.8399 16.4357C10.7632 16.4076 10.6815 16.3955 10.6 16.4Z" fill="#6E9D3E"/>
<path fill-rule="evenodd" clip-rule="evenodd" d="M28.45 17.6167C28.8327 17.7613 29.2416 17.8237 29.65 17.8C29.8425 17.7936 30.0309 17.7423 30.2 17.65C30.3979 17.5774 30.5713 17.4503 30.7 17.2833C31.0198 16.9155 31.1815 16.4364 31.15 15.95C31.1986 15.8152 31.1917 15.6666 31.1307 15.5369C31.0698 15.4071 30.9598 15.307 30.825 15.2583C30.6902 15.2097 30.5416 15.2166 30.4119 15.2776C30.2821 15.3385 30.182 15.4485 30.1333 15.5833L28.4667 16.4C28.306 16.3999 28.1516 16.4626 28.0364 16.5747C27.9212 16.6868 27.8543 16.8394 27.85 17C27.854 17.1595 27.918 17.3115 28.0292 17.4259C28.1404 17.5402 28.2907 17.6083 28.45 17.6167Z" fill="#6E9D3E"/>
<path fill-rule="evenodd" clip-rule="evenodd" d="M9.33332 6.08334C9.14115 6.09203 8.9533 6.14326 8.78332 6.23334C8.60897 6.3389 8.46531 6.48831 8.36666 6.66667C7.93332 7.2 7.66666 8.33334 8.23332 8.61667C8.29669 8.64382 8.36484 8.65802 8.43378 8.65842C8.50271 8.65883 8.57103 8.64543 8.63471 8.61903C8.69839 8.59263 8.75614 8.55375 8.80456 8.50468C8.85298 8.45562 8.8911 8.39736 8.91666 8.33334L10.5833 7.51667C10.6635 7.5189 10.7433 7.50502 10.8181 7.47587C10.8928 7.44672 10.9609 7.40287 11.0184 7.34694C11.0759 7.291 11.1216 7.2241 11.1528 7.1502C11.184 7.07629 11.2 6.99688 11.2 6.91667C11.2167 6.1 9.71666 6.06667 9.33332 6.08334Z" fill="#6E9D3E"/>
<path fill-rule="evenodd" clip-rule="evenodd" d="M28.45 7.48334C28.45 7.48334 30.1167 8.28334 30.1167 8.30001C30.1653 8.43482 30.2655 8.54481 30.3952 8.60576C30.5249 8.6667 30.6735 8.67363 30.8083 8.62501C30.9432 8.57638 31.0531 8.4762 31.1141 8.34648C31.175 8.21677 31.182 8.06816 31.1333 7.93334C31.1648 7.44697 31.0031 6.96782 30.6833 6.60001C30.5546 6.43304 30.3813 6.30591 30.1833 6.23334C30.0142 6.14107 29.8259 6.0897 29.6333 6.08334C29.2249 6.05961 28.816 6.12208 28.4333 6.26667C28.2711 6.27089 28.1167 6.33721 28.002 6.45196C27.8872 6.5667 27.8209 6.72112 27.8167 6.88334C27.8188 6.96433 27.8369 7.0441 27.8699 7.1181C27.9029 7.19209 27.9502 7.25885 28.009 7.31457C28.0678 7.3703 28.137 7.41388 28.2127 7.44284C28.2884 7.4718 28.369 7.48556 28.45 7.48334Z" fill="#6E9D3E"/>
<path fill-rule="evenodd" clip-rule="evenodd" d="M24.5167 5.93332C24.173 5.89967 23.827 5.89967 23.4833 5.93332C23.4833 5.93332 21.1833 6.26666 21.2167 6.98332C21.2167 7.18332 21.1333 7.49999 23.2333 7.91666C23.4493 7.9413 23.6674 7.9413 23.8833 7.91666H24.5333C26.8167 7.54999 26.6667 7.06666 26.6667 6.86666C26.6667 6.66666 26.4667 6.23332 24.5167 5.93332Z" fill="#6E9D3E"/>
<path fill-rule="evenodd" clip-rule="evenodd" d="M19.1 6.83335C19.1 6.43335 18.9167 6.23335 16.9667 5.93335C16.623 5.90011 16.277 5.90011 15.9333 5.93335C15.9333 5.93335 13.6333 6.26668 13.6667 6.98335C13.6667 7.18335 13.6667 7.50001 15.6833 7.91668C15.8993 7.94132 16.1174 7.94132 16.3333 7.91668H16.9833C19.3333 7.51668 19.1167 7.03335 19.1 6.83335Z" fill="#6E9D3E"/>
<path fill-rule="evenodd" clip-rule="evenodd" d="M26.2333 16.8833C26.2333 16.5 26.05 16.2833 24.1 16C23.7568 15.9585 23.4099 15.9585 23.0667 16C23.0667 16 20.75 16.3167 20.8 17.05C20.8 17.2333 20.7167 17.55 22.8167 17.9667C23.0326 17.9913 23.2507 17.9913 23.4667 17.9667H24.1167C26.4 17.5667 26.25 17.1 26.2333 16.8833Z" fill="#6E9D3E"/>
<path fill-rule="evenodd" clip-rule="evenodd" d="M18.6833 16.8833C18.6833 16.5 18.5 16.2833 16.5333 16C16.1957 15.9585 15.8543 15.9585 15.5167 16C15.5167 16 13.2 16.3167 13.2333 17.05C13.2333 17.2333 13.2333 17.55 15.2667 17.9667C15.4771 17.9912 15.6896 17.9912 15.9 17.9667C16.1219 17.9838 16.3448 17.9838 16.5667 17.9667C18.8333 17.5667 18.7 17.1 18.6833 16.8833Z" fill="#6E9D3E"/>
<path fill-rule="evenodd" clip-rule="evenodd" d="M32.0167 24.4C31.5191 24.2028 30.9842 24.1175 30.45 24.15C30.1342 24.1825 29.8395 24.3239 29.6167 24.55C29.3756 24.8001 29.2187 25.1193 29.1679 25.4629C29.1171 25.8066 29.1749 26.1575 29.3333 26.4667C29.3333 26.5381 29.3476 26.6089 29.3755 26.6747C29.4033 26.7405 29.4441 26.8001 29.4954 26.8498C29.5467 26.8996 29.6075 26.9385 29.6741 26.9643C29.7408 26.9901 29.8119 27.0022 29.8833 27C30.7 27 29.6 26.3833 32.1 25.6167C32.2547 25.6041 32.399 25.5336 32.5041 25.4193C32.6091 25.305 32.6672 25.1552 32.6667 25C32.6696 24.9161 32.6544 24.8325 32.6221 24.755C32.5898 24.6774 32.5411 24.6078 32.4794 24.5508C32.4176 24.4939 32.3443 24.4509 32.2645 24.4249C32.1846 24.3988 32.1001 24.3904 32.0167 24.4Z" fill="#6E9D3E"/>
<path fill-rule="evenodd" clip-rule="evenodd" d="M37.2 24.4C36.8612 24.1903 36.4634 24.0967 36.0667 24.1333C35.6224 24.2283 35.1874 24.3622 34.7667 24.5333C34.6966 24.5288 34.6263 24.5382 34.5599 24.5609C34.4934 24.5836 34.4321 24.6192 34.3795 24.6657C34.3268 24.7121 34.2839 24.7685 34.2531 24.8316C34.2223 24.8947 34.2042 24.9633 34.2 25.0333C34.1955 25.1034 34.2048 25.1737 34.2275 25.2401C34.2503 25.3066 34.2859 25.3679 34.3323 25.4205C34.3788 25.4732 34.4352 25.5161 34.4983 25.5469C34.5614 25.5777 34.6299 25.5958 34.7 25.6C36.8167 26.5 36.7333 26.1 36.9333 26.5C36.9434 26.5786 36.9693 26.6543 37.0096 26.7226C37.0498 26.7908 37.1036 26.8501 37.1675 26.8969C37.2314 26.9437 37.3042 26.977 37.3815 26.9947C37.4587 27.0124 37.5387 27.0142 37.6167 27C37.7745 26.9753 37.9166 26.8902 38.013 26.7627C38.1094 26.6352 38.1525 26.4753 38.1333 26.3167C38.1996 25.9396 38.145 25.5512 37.9774 25.207C37.8098 24.8628 37.5377 24.5804 37.2 24.4Z" fill="#6E9D3E"/>
<path fill-rule="evenodd" clip-rule="evenodd" d="M29.9333 31.8334C30.1642 31.9713 30.4317 32.0353 30.7 32.0167C31.1249 31.9719 31.5439 31.8826 31.95 31.75C32.0941 31.7261 32.225 31.6518 32.3194 31.5404C32.4138 31.429 32.4656 31.2877 32.4656 31.1417C32.4656 30.9956 32.4138 30.8544 32.3194 30.743C32.225 30.6316 32.0941 30.5573 31.95 30.5334C31.1333 30.2834 30.75 30.5334 30.5 29.5667C30.5093 29.4966 30.5046 29.4253 30.4861 29.357C30.4676 29.2887 30.4357 29.2248 30.3923 29.169C30.3489 29.1131 30.2948 29.0665 30.2331 29.0318C30.1715 28.997 30.1036 28.9749 30.0333 28.9667C29.8899 28.9526 29.7468 28.9954 29.6346 29.0857C29.5224 29.1761 29.4501 29.3069 29.4333 29.45C29.3333 29.6334 29.2667 29.8167 29.1667 30.0334C29.0667 30.25 29.1667 30.4 29.0667 30.6C29.0823 30.8658 29.1717 31.122 29.3248 31.3398C29.4779 31.5577 29.6886 31.7286 29.9333 31.8334Z" fill="#6E9D3E"/>
<path fill-rule="evenodd" clip-rule="evenodd" d="M34.6 31.7834C34.9795 31.9699 35.3757 32.1206 35.7833 32.2334C36.1207 32.2985 36.47 32.2577 36.7833 32.1167C37.5333 31.7834 38.1 31.2667 37.9167 30.3334C37.9259 30.2545 37.9194 30.1746 37.8976 30.0982C37.8757 30.0219 37.8389 29.9506 37.7893 29.8886C37.7397 29.8266 37.6782 29.775 37.6085 29.7369C37.5389 29.6989 37.4623 29.675 37.3833 29.6667C36.7667 29.6667 37.3833 30.15 35.8167 30.5C35.4014 30.5383 34.9894 30.6051 34.5833 30.7C34.456 30.7224 34.3406 30.789 34.2574 30.8881C34.1743 30.9872 34.1287 31.1124 34.1287 31.2417C34.1287 31.371 34.1743 31.4962 34.2574 31.5953C34.3406 31.6943 34.456 31.7609 34.5833 31.7834H34.6Z" fill="#6E9D3E"/>
<path fill-rule="evenodd" clip-rule="evenodd" d="M24.4333 25C21.9167 24.7833 19.4333 24.55 16.85 24.4333C15.7667 24.4333 14.7 24.3333 13.6 24.3167H10.35C7.88333 24.3167 5.43333 24.5667 2.94999 24.7V20.15C2.94999 18.9167 2.94999 17.6667 3.08333 16.4333C3.21666 15.2 3.23333 13.95 3.33333 12.7C3.5421 9.79692 3.95422 6.91207 4.56666 4.06666C4.60767 3.91419 4.58692 3.7517 4.50892 3.61443C4.43093 3.47715 4.30196 3.37615 4.14999 3.33333C4.07338 3.31331 3.99357 3.30866 3.91515 3.31964C3.83673 3.33061 3.76126 3.357 3.69309 3.39729C3.62492 3.43757 3.5654 3.49095 3.51795 3.55434C3.47051 3.61774 3.43608 3.6899 3.41666 3.76666C2.53893 6.62891 1.88146 9.55411 1.44999 12.5167C1.26666 13.7833 1.14999 15 0.999994 16.3333C0.933331 17.6158 0.933331 18.9009 0.999994 20.1833C0.999994 20.4 1.49999 29.7167 2.66666 29.6667C3.43333 29.6667 4.21666 29.6667 4.98333 29.7833C6.83333 29.9333 8.66666 30.2167 10.4833 30.4167C11.55 30.4167 12.6167 30.5167 13.7 30.5667L12.25 33.3333C12.0539 33.6941 11.8814 34.0671 11.7333 34.45C11.645 34.6594 11.6281 34.8921 11.6853 35.112C11.7426 35.332 11.8708 35.5269 12.05 35.6667C12.4797 35.9597 12.9694 36.1533 13.4833 36.2333C14.3901 36.3423 15.3039 36.3814 16.2167 36.35H23.1833C23.5 36.35 24.4 35.6 24.3 35.1833C24.3347 34.6283 24.3347 34.0717 24.3 33.5167C24.2797 33.2903 24.235 33.0668 24.1667 32.85C24.1008 32.627 24.0172 32.4097 23.9167 32.2C23.6755 31.7037 23.3911 31.2296 23.0667 30.7833C23.0405 30.7088 22.9999 30.6402 22.9472 30.5815C22.8945 30.5227 22.8307 30.4749 22.7594 30.4409C22.6882 30.4068 22.611 30.3871 22.5321 30.383C22.4533 30.3788 22.3744 30.3903 22.3 30.4167C22.1483 30.473 22.0249 30.5867 21.9563 30.7333C21.8877 30.8798 21.8795 31.0474 21.9333 31.2C22.0167 31.7333 22.0167 32.2167 22.0833 32.75C22.0979 32.9703 22.137 33.1883 22.2 33.4C22.2498 33.6128 22.3224 33.8195 22.4167 34.0167C22.5923 34.3834 22.7986 34.7346 23.0333 35.0667C21.7167 34.8667 20.3833 34.6833 19.05 34.5333C18.1167 34.4333 17.1667 34.3667 16.2333 34.3H14.1H13.8667C13.8578 34.1946 13.8578 34.0887 13.8667 33.9833L14.9 30.65H15.8667C18.6167 30.65 21.35 30.5 24.1 30.2667C24.2441 30.2427 24.3749 30.1685 24.4694 30.0571C24.5638 29.9457 24.6156 29.8044 24.6156 29.6583C24.6156 29.5123 24.5638 29.371 24.4694 29.2596C24.3749 29.1482 24.2441 29.0739 24.1 29.05C22.75 29.05 21.4 29.05 20.05 28.9333C18.7 28.8167 16.8833 28.7167 15.3167 28.6333C13.75 28.55 12.15 28.5 10.55 28.4333C8.94999 28.3667 7.38333 28.4333 5.79999 28.4333C4.91666 28.4333 4.13333 28.4333 3.18333 28.5833C3.09999 27.6667 3.06666 26.75 3.03333 25.8333C5.48333 26 7.89999 26.2 10.35 26.3167C11.4333 26.3167 12.5167 26.3167 13.6833 26.4H16.8167C19.3333 26.4 21.8167 26.2833 24.3833 26.2667C24.5274 26.2427 24.6583 26.1685 24.7527 26.0571C24.8471 25.9457 24.899 25.8044 24.899 25.6583C24.899 25.5123 24.8471 25.371 24.7527 25.2596C24.6583 25.1482 24.5274 25.0739 24.3833 25.05L24.4333 25Z" fill="#6E9D3E"/>
</svg>
