<svg width="40" height="40" viewBox="0 0 40 40" fill="none" xmlns="http://www.w3.org/2000/svg">
<g clip-path="url(#clip0_1030_1865)">
<path d="M24.65 25.7C24.35 25.7 23.6333 25.7 22.4833 25.5667L22.8333 24.7667C23.2031 23.9867 23.4934 23.1715 23.7 22.3333C23.7674 22.0243 23.7586 21.7035 23.6744 21.3987C23.5902 21.0938 23.4331 20.814 23.2166 20.5833C22.6584 20.119 21.9729 19.8343 21.25 19.7667C19.9333 19.5833 18.2833 19.9 17.3166 19.7667C16.5916 19.6289 15.85 19.6008 15.1166 19.6833C14.8333 19.8167 14.6166 20.4667 15.4 20.6667C15.8166 20.7667 16.85 20.9 17.2333 20.95C18.0333 21.05 19.3333 21.0667 20.4666 21.25C21.05 21.35 22.0166 21.7667 21.95 22.0333C21.7833 22.6333 21.2333 23.8667 21.1333 24.1667L20.7 25.4167H19.8333C16.25 25.55 16.1333 25.7167 15.85 26.35C15.5666 26.9833 19.6333 27.2 19.8 27.2167H20.0833L18.5833 31.55C18.5352 31.6871 18.5432 31.8376 18.6057 31.9687C18.6681 32.0999 18.7799 32.201 18.9166 32.25C19.0493 32.2984 19.1957 32.2923 19.3238 32.2329C19.4518 32.1736 19.5512 32.0658 19.6 31.9333L21.6666 27.2333C22.4999 27.1767 23.3291 27.071 24.15 26.9167C24.3611 26.8934 24.5684 26.843 24.7666 26.7667C25.0666 26.6 25.1333 26.4 25.1166 26.2333C25.1177 26.1027 25.0707 25.9763 24.9847 25.878C24.8987 25.7797 24.7796 25.7163 24.65 25.7Z" fill="#6E9D3E"/>
<path d="M26.2667 6.45003C26.0784 7.7137 26.2161 9.0045 26.6667 10.2C26.9679 10.7862 27.4731 11.2419 28.0871 11.4814C28.7011 11.7209 29.3815 11.7275 30 11.5C30.4208 11.3981 30.8092 11.1921 31.1295 10.9008C31.4499 10.6096 31.6919 10.2425 31.8333 9.83336C32.1059 8.89811 32.2075 7.92136 32.1333 6.95003V6.38336V4.5167C32.1582 4.14767 32.1026 3.77765 31.9702 3.4323C31.8378 3.08694 31.6319 2.77452 31.3667 2.5167C30.4782 1.91395 29.3945 1.66982 28.3333 1.83336C28.2619 1.83113 28.1908 1.84327 28.1241 1.86908C28.0575 1.89488 27.9967 1.93381 27.9454 1.98356C27.8941 2.0333 27.8533 2.09286 27.8255 2.15867C27.7976 2.22449 27.7833 2.29523 27.7833 2.3667C27.7424 2.26392 27.6664 2.17902 27.5687 2.12713C27.471 2.07523 27.3581 2.05972 27.25 2.08336C27.141 2.11387 27.0414 2.17096 26.9599 2.2495C26.8785 2.32804 26.8178 2.42558 26.7833 2.53336C26.684 3.1167 26.6449 3.7087 26.6667 4.30003L26.4333 5.3167C26.3465 5.6892 26.2907 6.06829 26.2667 6.45003ZM27.65 5.7667C27.65 5.7667 27.9167 2.6667 27.9167 2.55003C27.9587 2.6481 28.0283 2.73183 28.1171 2.79102C28.2059 2.8502 28.31 2.88229 28.4167 2.88336C29.9167 2.88336 30.55 3.1667 30.7167 3.75003C30.7708 4.81045 30.6981 5.87353 30.5 6.9167C30.5045 7.56194 30.4318 8.20541 30.2833 8.83336C30.1667 9.23336 30.0167 9.63336 29.6 9.73336C29.4374 9.80702 29.2604 9.84347 29.0819 9.84005C28.9034 9.83662 28.7279 9.79342 28.5682 9.71358C28.4086 9.63374 28.2687 9.51928 28.1589 9.37854C28.049 9.2378 27.972 9.07432 27.9333 8.90003C27.6684 7.87806 27.5727 6.81961 27.65 5.7667Z" fill="#6E9D3E"/>
<path d="M14.25 5.93335C14.25 6.10001 14.3667 6.26668 15.0167 6.33335C15.95 6.33335 16.35 6.63335 17.6333 6.70001H19.7333H21.8167C22.9667 6.70001 23.6667 6.60001 24.8333 6.51668C25.3833 6.51668 25.8167 5.45001 25.0833 5.26668C23.8167 5.21668 22.95 5.00001 21.6667 5.00001H18.3333C17.3027 4.99661 16.2729 5.05784 15.25 5.18335C14.55 5.23335 14.2333 5.68335 14.25 5.93335Z" fill="#6E9D3E"/>
<path d="M38.3333 6.78334C37.7709 6.17148 37.0305 5.75172 36.2167 5.58334C35.4454 5.37934 34.6463 5.30056 33.85 5.35001C32.6667 5.51667 32.9833 6.33334 33.6 6.33334C34.1584 6.32774 34.7162 6.37237 35.2667 6.46667C36.098 6.52603 36.877 6.89471 37.45 7.50001C37.8384 8.27898 38.0598 9.1305 38.1 10C38.2667 11.3 38.4 12.9833 38.4833 14.8333C36.0333 14.8333 31.1167 14.6333 25.6 14.5333H19.95H14.3C8.33333 14.5833 3.14999 14.7833 1.51666 14.85C1.50608 12.3354 1.76308 9.82687 2.28333 7.36667C2.44728 7.06569 2.68767 6.81323 2.98027 6.63475C3.27287 6.45626 3.60734 6.35805 3.94999 6.35001C4.6422 6.18157 5.35515 6.11421 6.06666 6.15001C6.16087 6.13379 6.24747 6.088 6.31391 6.01926C6.38034 5.95053 6.42316 5.86242 6.43616 5.76771C6.44916 5.67301 6.43166 5.57662 6.3862 5.49253C6.34074 5.40843 6.26968 5.341 6.18333 5.30001C5.15085 5.07635 4.08246 5.07635 3.04999 5.30001C2.64103 5.3984 2.26009 5.58929 1.93647 5.85801C1.61286 6.12672 1.3552 6.46609 1.18333 6.85001C0.533326 8.38334 -0.133341 16.85 0.0166592 24.35C0.133326 29.8 0.783326 34.6833 1.98333 36.15C2.86666 37.2167 5.16666 37.8167 8.06666 38.05C12.5833 38.35 18.5833 37.85 21.6833 37.85C25.5764 37.9733 29.4734 37.8452 33.35 37.4667C35.0976 37.3149 36.7973 36.8163 38.35 36C38.8022 35.6166 39.1035 35.085 39.2 34.5C39.7934 31.0775 40.0613 27.6064 40 24.1333C40 16.6667 39.3833 8.01667 38.3333 6.78334ZM37.9167 32.55C37.8238 33.2814 37.639 33.9982 37.3667 34.6833C35.5016 35.464 33.5049 35.8826 31.4833 35.9167C27.5833 36.2333 23.2833 36.0833 21.6833 36.0833C18.6167 36.0833 12.6667 36.6 8.18333 36.3333C5.88333 36.2 3.98333 35.9667 3.28333 35.1333C2.14999 33.8167 1.66666 29.3333 1.51666 24.3833C1.40586 21.5346 1.39474 18.6829 1.48333 15.8333C3.14999 15.8333 8.23333 16.1 14.3 16.2167H19.95H25.6C31.15 16.1167 36.0833 15.9667 38.5167 15.9C38.5167 17.5667 38.6 19.45 38.5167 21.2833C38.5501 25.0477 38.3497 28.8105 37.9167 32.55Z" fill="#6E9D3E"/>
<path d="M7.46669 6.40002C7.33841 7.73459 7.46856 9.08138 7.85002 10.3667C8.15124 10.9529 8.65646 11.4086 9.27045 11.6481C9.88444 11.8875 10.5648 11.8941 11.1834 11.6667C11.6078 11.5687 12.0003 11.3643 12.324 11.0727C12.6477 10.7811 12.8918 10.412 13.0334 10C13.3168 9.0555 13.4186 8.0658 13.3334 7.08335V5.31669V4.65002C13.356 4.28122 13.2993 3.91184 13.1671 3.56682C13.0348 3.2218 12.8301 2.90917 12.5667 2.65002C11.6812 2.03989 10.5967 1.78962 9.53335 1.95002C9.38748 1.95002 9.24759 2.00797 9.14444 2.11111C9.0413 2.21426 8.98335 2.35415 8.98335 2.50002C8.94245 2.39725 8.86638 2.31234 8.7687 2.26045C8.67101 2.20856 8.55808 2.19305 8.45002 2.21669C8.34106 2.24719 8.24138 2.30428 8.15992 2.38282C8.07847 2.46137 8.0178 2.55891 7.98335 2.66669C7.85822 3.21408 7.78567 3.77217 7.76669 4.33335L7.58335 5.21669V5.65002L7.46669 6.40002ZM8.83335 5.91669C8.83335 5.91669 9.10002 2.83335 9.10002 2.70002C9.13754 2.80251 9.20559 2.89102 9.29501 2.95361C9.38442 3.0162 9.49088 3.04985 9.60002 3.05002C11.1 3.05002 11.7334 3.33335 11.9 3.91669C11.9487 4.97777 11.8703 6.04086 11.6667 7.08335C11.6682 7.72843 11.5955 8.37155 11.45 9.00002C11.35 9.38335 11.2 9.78335 10.7834 9.88335C10.6207 9.95701 10.4437 9.99346 10.2652 9.99004C10.0867 9.98662 9.91126 9.94341 9.75158 9.86357C9.5919 9.78373 9.45205 9.66927 9.34221 9.52853C9.23238 9.38779 9.15533 9.22431 9.11669 9.05002C8.84875 8.02858 8.75299 6.96962 8.83335 5.91669Z" fill="#6E9D3E"/>
</g>
<defs>
<clipPath id="clip0_1030_1865">
<rect width="40" height="40" fill="white"/>
</clipPath>
</defs>
</svg>
