<svg width="40" height="40" viewBox="0 0 40 40" fill="none" xmlns="http://www.w3.org/2000/svg">
<g clip-path="url(#clip0_1048_7440)">
<path fill-rule="evenodd" clip-rule="evenodd" d="M16.6667 32.4167C3.96668 32.6167 9.36668 32.6167 3.81668 31.9667C2.98335 31.8667 2.60001 31.25 2.36668 30.5C1.93335 29.1 2.05001 28.8333 2.25001 14.6167C2.01576 11.7908 2.13332 8.94684 2.60001 6.14999C3.06668 4.36665 2.58335 3.78332 5.00001 3.83332C5.00001 4.41665 4.83335 6.66666 4.88335 6.98332C5.05001 8.28332 6.31668 8.08332 6.81668 8.21665C9.40001 8.84999 10.3667 6.89999 10.15 4.18332C10.9526 4.4491 11.8148 4.47804 12.6333 4.26665C12.6333 4.44999 12.4833 6.61666 12.5167 6.91666C12.6833 8.19999 13.9333 8.01665 14.45 8.14999C17 8.74999 17.9667 6.88332 17.7833 4.21665C18.9333 4.56665 19.0167 4.49999 20.7333 4.11665C20.7333 4.29999 20.6 6.46666 20.6333 6.68332C20.6447 6.93295 20.7371 7.17208 20.8964 7.36454C21.0558 7.55699 21.2735 7.6923 21.5167 7.74999C24.25 8.48332 25.8333 7.74999 25.9333 4.79999C26.4914 4.81623 27.048 4.86632 27.6 4.94999C28.0333 4.94999 28.3667 5.09999 28.4 5.43332L29.0333 17.25C29.0333 17.3826 29.086 17.5098 29.1798 17.6035C29.2736 17.6973 29.4007 17.75 29.5333 17.75C29.6659 17.75 29.7931 17.6973 29.8869 17.6035C29.9807 17.5098 30.0333 17.3826 30.0333 17.25C30.7745 13.2553 30.7632 9.15724 30 5.16665C29.6 3.39999 27.7667 3.49999 25.95 3.61665C25.8749 2.59345 25.6269 1.59037 25.2167 0.649988C24.9713 0.424757 24.6826 0.251928 24.3681 0.142062C24.0537 0.0321949 23.7201 -0.0124018 23.3879 0.0109967C23.0556 0.0343952 22.7316 0.125298 22.4357 0.278149C22.1397 0.431 21.8781 0.64259 21.6667 0.899988C21.3336 1.40629 21.1015 1.97224 20.9833 2.56665C19.871 2.31398 18.708 2.40702 17.65 2.83332C17.5817 2.13824 17.3898 1.46094 17.0833 0.833321C16.8344 0.608253 16.5419 0.436728 16.2239 0.329383C15.906 0.222039 15.5693 0.181163 15.2349 0.209291C14.9005 0.23742 14.5754 0.333953 14.2799 0.492903C13.9843 0.651854 13.7245 0.869832 13.5167 1.13332C13.2324 1.5773 13.0292 2.06826 12.9167 2.58332C11.9422 2.40064 10.9368 2.47532 10 2.79999C9.92536 2.15925 9.73326 1.53776 9.43334 0.966654C9.19101 0.677001 8.8704 0.463249 8.50982 0.350939C8.14925 0.23863 7.76397 0.232513 7.40001 0.333321C6.05001 0.549988 5.53335 1.48332 5.23335 2.79999C4.32099 2.64553 3.38318 2.79793 2.56668 3.23332C1.66668 3.81665 1.66668 4.99999 1.41668 5.81665C0.755132 8.70126 0.463897 11.6584 0.550012 14.6167C0.233346 22.6 0.300012 20 0.200012 26.0167C0.200012 29.25 0.200013 33.3833 3.68335 33.65C9.38335 34.0667 3.90001 34.2833 16.7333 33.55C16.8078 33.5456 16.8806 33.5266 16.9477 33.4941C17.0147 33.4616 17.0747 33.4162 17.1243 33.3604C17.1738 33.3047 17.2119 33.2398 17.2363 33.1694C17.2607 33.099 17.2711 33.0244 17.2667 32.95C17.2623 32.8756 17.2433 32.8028 17.2108 32.7357C17.1783 32.6686 17.1328 32.6086 17.0771 32.5591C17.0214 32.5095 16.9565 32.4715 16.8861 32.447C16.8156 32.4226 16.7411 32.4123 16.6667 32.4167ZM22.4667 2.99999C22.6 0.449988 24.1333 1.08332 24.2667 1.58332C24.498 2.83383 24.498 4.11615 24.2667 5.36665C23.9833 6.29999 23.5167 6.08332 22.6 6.04999C22.65 4.99999 22.3833 4.31665 22.4667 2.99999ZM14.6333 1.78332C14.9667 1.11665 15.95 1.56665 16.1 1.51665C16.3593 2.86542 16.3593 4.25122 16.1 5.59999C15.95 6.11665 15.65 6.48332 15 6.28332H14.3667C14.4136 6.114 14.447 5.94124 14.4667 5.76665C14.2487 4.44148 14.3054 3.08565 14.6333 1.78332ZM6.98335 1.86665C7.31668 1.18332 8.33335 1.66665 8.45001 1.66665C8.70925 3.01542 8.70925 4.40122 8.45001 5.74999C8.30001 6.24999 8.00001 6.61665 7.35001 6.41665H6.71668C6.71668 6.21665 6.83334 5.98332 6.83334 5.89999C6.59335 4.56036 6.64451 3.18476 6.98335 1.86665Z" fill="#6E9D3E"/>
<path fill-rule="evenodd" clip-rule="evenodd" d="M23.65 14.0667C23.7816 13.9562 23.8654 13.7992 23.884 13.6284C23.9027 13.4576 23.8547 13.2862 23.75 13.15C23.3833 12.6167 14.0833 11.8333 9.55 12.1167C4.55 12.45 5.16667 13.3 6 13.5C7.76667 14.0333 23.6167 14.1 23.65 14.0667Z" fill="#6E9D3E"/>
<path fill-rule="evenodd" clip-rule="evenodd" d="M18.3333 19.35C17.8 19.2167 13.6667 19 12.8667 19C12.0667 19 6.33334 19.1667 6.2 19.8C6.18475 19.8725 6.18581 19.9475 6.20311 20.0196C6.2204 20.0917 6.2535 20.159 6.3 20.2167C7.32956 20.5988 8.41848 20.7963 9.51667 20.8C12.4558 21.0049 15.4078 20.9323 18.3333 20.5833C19.0167 20.5833 19.2333 19.5833 18.3333 19.35Z" fill="#6E9D3E"/>
<path fill-rule="evenodd" clip-rule="evenodd" d="M6.53334 27.3333C9.09294 27.9004 11.7412 27.9401 14.3167 27.45C14.4225 27.3438 14.482 27.1999 14.482 27.05C14.482 26.9 14.4225 26.7562 14.3167 26.65C12.7042 26.1213 11.013 25.8733 9.31668 25.9166C5.48335 26.0833 4.75001 26.95 6.53334 27.3333Z" fill="#6E9D3E"/>
<path fill-rule="evenodd" clip-rule="evenodd" d="M37.5167 24.2666C36.5224 23.0856 35.2652 22.154 33.846 21.5464C32.4268 20.9387 30.885 20.672 29.3441 20.7676C27.8032 20.8632 26.3062 21.3185 24.973 22.0968C23.6397 22.8752 22.5074 23.9551 21.6667 25.25C18.8667 29.3833 20.3167 35.4666 23.1167 37.25C23.1717 37.3001 23.2369 37.3378 23.3078 37.3604C23.3787 37.383 23.4536 37.39 23.5275 37.3809C23.6014 37.3719 23.6724 37.347 23.7358 37.3079C23.7991 37.2689 23.8533 37.2166 23.8946 37.1547C23.9359 37.0928 23.9633 37.0227 23.975 36.9492C23.9866 36.8757 23.9823 36.8005 23.9622 36.7288C23.9422 36.6572 23.9069 36.5907 23.8587 36.5339C23.8106 36.4772 23.7508 36.4315 23.6833 36.4C21.4667 34.85 20.4667 29.5166 22.9833 26.1833C23.7128 25.1653 24.6622 24.3248 25.7612 23.7242C26.8602 23.1237 28.0804 22.7786 29.3311 22.7145C30.5818 22.6504 31.8309 22.8691 32.9854 23.3542C34.14 23.8394 35.1704 24.5785 36 25.5166C40.1333 30.4 37.6667 37.7833 30.4333 38.6333C29.1049 38.819 27.7521 38.7167 26.4667 38.3333C26.3934 38.3092 26.316 38.2998 26.2391 38.3057C26.1621 38.3115 26.087 38.3324 26.0182 38.3672C25.9493 38.402 25.888 38.4501 25.8377 38.5086C25.7874 38.5671 25.7491 38.635 25.725 38.7083C25.7009 38.7816 25.6915 38.859 25.6974 38.9359C25.7032 39.0129 25.7241 39.0879 25.7589 39.1568C25.7937 39.2257 25.8418 39.287 25.9003 39.3373C25.9588 39.3876 26.0267 39.4259 26.1 39.45C27.5378 39.9259 29.0604 40.0906 30.5667 39.9333C32.3642 39.8949 34.1136 39.3455 35.6103 38.3492C37.107 37.353 38.289 35.9511 39.0181 34.3076C39.7472 32.6641 39.9931 30.847 39.7273 29.0688C39.4614 27.2907 38.6946 25.625 37.5167 24.2666Z" fill="#6E9D3E"/>
<path fill-rule="evenodd" clip-rule="evenodd" d="M29.0667 31.6667C29.178 32.8975 29.178 34.1358 29.0667 35.3667C29.0203 35.5147 29.0346 35.6752 29.1065 35.8127C29.1784 35.9502 29.3019 36.0536 29.45 36.1C29.5981 36.1464 29.7585 36.1321 29.8961 36.0602C30.0336 35.9883 30.1369 35.8647 30.1833 35.7167C30.6368 34.3939 30.9006 33.0135 30.9667 31.6167C32.1704 31.5221 33.3796 31.5221 34.5833 31.6167C34.6589 31.6331 34.7369 31.6345 34.8129 31.6207C34.8889 31.607 34.9615 31.5784 35.0265 31.5366C35.0915 31.4949 35.1477 31.4407 35.1917 31.3772C35.2358 31.3137 35.2669 31.2422 35.2833 31.1667C35.2998 31.0912 35.3011 31.0131 35.2874 30.9371C35.2737 30.8611 35.2451 30.7885 35.2033 30.7235C35.1615 30.6585 35.1073 30.6023 35.0439 30.5583C34.9804 30.5142 34.9088 30.4831 34.8333 30.4667C33.697 30.0981 32.5231 29.8578 31.3333 29.75C30.9167 29.75 31.0333 29.75 31.0167 29.5333C30.9049 28.2307 30.7269 26.9345 30.4833 25.65C30.4833 25.65 30.4833 24.6667 30.0667 24.6C29.65 24.5333 29.35 24.8167 29.4333 25.65C29.25 27.9833 29.15 27.7333 29.0667 29.7333C27.646 29.8502 26.2459 30.147 24.9 30.6167C24.832 30.6273 24.7668 30.6515 24.7083 30.6877C24.6497 30.7239 24.599 30.7715 24.5591 30.8276C24.5192 30.8837 24.4909 30.9472 24.4759 31.0143C24.4608 31.0815 24.4594 31.151 24.4716 31.2188C24.4838 31.2865 24.5095 31.3511 24.547 31.4089C24.5845 31.4666 24.6332 31.5162 24.6902 31.5548C24.7472 31.5934 24.8114 31.6203 24.8789 31.6337C24.9464 31.6472 25.0159 31.6471 25.0833 31.6333C26.2 31.4833 27.1667 31.5667 29.0667 31.6667Z" fill="#6E9D3E"/>
</g>
<defs>
<clipPath id="clip0_1048_7440">
<rect width="40" height="40" fill="white"/>
</clipPath>
</defs>
</svg>
