<svg width="40" height="40" viewBox="0 0 40 40" fill="none" xmlns="http://www.w3.org/2000/svg">
<g clip-path="url(#clip0_1051_8574)">
<path fill-rule="evenodd" clip-rule="evenodd" d="M24.6333 18.7833C24.7014 18.7751 24.7672 18.7534 24.8268 18.7195C24.8864 18.6857 24.9387 18.6402 24.9806 18.5859C25.0224 18.5316 25.0531 18.4696 25.0707 18.4033C25.0884 18.337 25.0927 18.2679 25.0833 18.2C25.0786 17.4214 25.3112 16.6598 25.75 16.0166C26.1668 15.3899 26.6351 14.799 27.15 14.25C27.8984 13.3845 28.694 12.561 29.5333 11.7833C30.043 11.8962 30.5617 11.9631 31.0833 11.9833C31.1899 11.9629 31.2861 11.906 31.3552 11.8223C31.4244 11.7387 31.4622 11.6335 31.4622 11.525C31.4622 11.4164 31.4244 11.3113 31.3552 11.2277C31.2861 11.144 31.1899 11.0871 31.0833 11.0666C28.1166 10.7666 26.8166 8.83331 26.9833 6.91665C27.1131 5.86097 27.6481 4.89707 28.4754 4.22847C29.3026 3.55986 30.3572 3.23888 31.4166 3.33331C32.3724 3.31495 33.2975 3.67055 33.9949 4.32433C34.6922 4.97812 35.1067 5.87839 35.15 6.83331C35.2469 7.32363 35.2462 7.82826 35.1478 8.31829C35.0494 8.80832 34.8553 9.27414 34.5767 9.68905C34.298 10.104 33.9402 10.4598 33.5238 10.7363C33.1074 11.0127 32.6405 11.2042 32.15 11.3C32.013 11.3177 31.8886 11.3891 31.8042 11.4984C31.7198 11.6078 31.6823 11.7463 31.7 11.8833C31.7177 12.0203 31.7891 12.1447 31.8985 12.2291C32.0078 12.3135 32.1463 12.351 32.2833 12.3333C32.865 12.2819 33.431 12.1177 33.95 11.85C34.3628 12.3125 34.7363 12.8087 35.0666 13.3333C35.2666 13.6333 35.45 13.9333 35.6166 14.2333C35.8 14.55 35.9833 14.8666 36.15 15.1833C36.5546 15.9711 36.8946 16.7905 37.1666 17.6333C37.1785 17.6996 37.2037 17.7628 37.2406 17.8191C37.2775 17.8755 37.3254 17.9238 37.3815 17.9611C37.4375 17.9985 37.5005 18.0241 37.5667 18.0365C37.6329 18.0489 37.7009 18.0478 37.7666 18.0333C37.9014 18.009 38.0211 17.9321 38.0992 17.8196C38.1773 17.7071 38.2076 17.5681 38.1833 17.4333C38.1283 16.4548 37.9548 15.4867 37.6666 14.55C37.5488 14.1285 37.3868 13.7207 37.1833 13.3333C36.9635 12.9534 36.7067 12.5961 36.4166 12.2666C35.992 11.8378 35.5162 11.4628 35 11.15C35.5888 10.5701 36.0432 9.86802 36.3311 9.09338C36.6191 8.31874 36.7336 7.49036 36.6666 6.66665C36.6601 5.97873 36.5176 5.2989 36.2473 4.66628C35.977 4.03367 35.5843 3.46076 35.0917 2.98055C34.5991 2.50034 34.0163 2.1223 33.377 1.8682C32.7377 1.6141 32.0545 1.48896 31.3666 1.49998C29.8929 1.45421 28.4596 1.98636 27.3729 2.98283C26.2861 3.9793 25.6319 5.36113 25.55 6.83331C25.5229 7.77557 25.772 8.70517 26.2665 9.50767C26.7611 10.3102 27.4795 10.9506 28.3333 11.35C27.6237 11.7199 26.9536 12.1611 26.3333 12.6666C25.7413 13.1691 25.2298 13.7593 24.8166 14.4166C24.4321 14.9844 24.166 15.6239 24.0343 16.2969C23.9026 16.9698 23.9079 17.6625 24.05 18.3333C24.0559 18.4023 24.0761 18.4694 24.1093 18.5302C24.1425 18.591 24.1879 18.6442 24.2428 18.6865C24.2976 18.7288 24.3606 18.7593 24.4279 18.7759C24.4951 18.7926 24.5651 18.7951 24.6333 18.7833Z" fill="#6E9D3E"/>
<path fill-rule="evenodd" clip-rule="evenodd" d="M14.0333 33.0166C13.8337 32.6453 13.5993 32.2937 13.3333 31.9666C12.9146 31.517 12.4383 31.1247 11.9167 30.8C12.5019 30.2244 12.9543 29.528 13.2422 28.7593C13.5301 27.9906 13.6465 27.1683 13.5833 26.35C13.5815 25.6542 13.44 24.966 13.1673 24.3259C12.8946 23.6858 12.4963 23.107 11.9959 22.6237C11.4954 22.1403 10.9031 21.7623 10.254 21.5121C9.60481 21.2618 8.91204 21.1443 8.21667 21.1666C6.74336 21.1121 5.30768 21.639 4.21946 22.6337C3.13124 23.6284 2.47774 25.011 2.4 26.4833C2.3715 27.4237 2.6181 28.352 3.10956 29.1544C3.60101 29.9567 4.31595 30.5981 5.16667 31C4.45708 31.3699 3.78697 31.8111 3.16667 32.3166C2.58061 32.8203 2.07479 33.4104 1.66667 34.0666C1.27991 34.6365 1.01259 35.2788 0.880825 35.9548C0.74906 36.6308 0.755584 37.3265 0.900004 38C0.90804 38.0675 0.929775 38.1327 0.963878 38.1916C0.997981 38.2504 1.04374 38.3017 1.09834 38.3423C1.15295 38.3828 1.21525 38.4118 1.28145 38.4275C1.34765 38.4431 1.41635 38.4451 1.48334 38.4333C1.55142 38.4251 1.61718 38.4034 1.6768 38.3695C1.73642 38.3356 1.78869 38.2902 1.83057 38.2359C1.87246 38.1816 1.90312 38.1195 1.92076 38.0533C1.9384 37.987 1.94268 37.9179 1.93334 37.85C1.92867 37.0714 2.1612 36.3098 2.6 35.6666C3.01679 35.0399 3.48508 34.4489 4 33.9C4.75267 33.0384 5.54812 32.2151 6.38334 31.4333C6.89002 31.5624 7.41049 31.6295 7.93334 31.6333C8.03993 31.6129 8.13608 31.5559 8.20523 31.4723C8.27438 31.3886 8.31221 31.2835 8.31221 31.175C8.31221 31.0664 8.27438 30.9613 8.20523 30.8776C8.13608 30.794 8.03993 30.7371 7.93334 30.7166C5 30.4166 3.73334 28.4833 3.9 26.5666C4.0138 25.4989 4.54194 24.5184 5.37094 23.8359C6.19993 23.1533 7.2636 22.8233 8.33334 22.9166C9.28872 22.9163 10.2065 23.2888 10.8913 23.955C11.5762 24.6211 11.9739 25.5283 12 26.4833C12.1962 27.4712 11.9922 28.4965 11.4328 29.3341C10.8734 30.1716 10.0044 30.7528 9.01667 30.95C8.94882 30.9576 8.88315 30.9786 8.82339 31.0116C8.76364 31.0447 8.71098 31.0891 8.66842 31.1425C8.62586 31.1959 8.59423 31.2572 8.57534 31.3228C8.55646 31.3884 8.55068 31.4571 8.55834 31.525C8.566 31.5928 8.58695 31.6585 8.61999 31.7182C8.65303 31.778 8.69752 31.8307 8.75091 31.8732C8.80431 31.9158 8.86556 31.9474 8.93118 31.9663C8.99679 31.9852 9.06549 31.991 9.13334 31.9833C9.71499 31.9318 10.2811 31.7677 10.8 31.5C11.2128 31.9625 11.5863 32.4587 11.9167 32.9833C12.1158 33.2791 12.2994 33.5851 12.4667 33.9C12.65 34.2 12.8333 34.5166 13 34.8333C13.4046 35.6211 13.7446 36.4405 14.0167 37.2833C14.0661 37.3878 14.1491 37.4727 14.2524 37.5244C14.3558 37.5762 14.4735 37.5918 14.5867 37.5687C14.7 37.5457 14.8023 37.4854 14.8772 37.3974C14.9521 37.3094 14.9953 37.1988 15 37.0833C14.945 36.1048 14.7715 35.1366 14.4833 34.2C14.3712 33.7921 14.2205 33.3959 14.0333 33.0166Z" fill="#6E9D3E"/>
<path fill-rule="evenodd" clip-rule="evenodd" d="M2.98333 17.1166C4.96236 18.5336 7.35018 19.2652 9.78333 19.2C13.2024 19.1017 16.6132 18.8123 20 18.3333C20.0621 18.3314 20.1232 18.3166 20.1793 18.2899C20.2355 18.2633 20.2855 18.2252 20.3262 18.1782C20.3669 18.1313 20.3974 18.0764 20.4159 18.017C20.4343 17.9576 20.4403 17.8951 20.4333 17.8333C20.4291 17.7742 20.4132 17.7164 20.3866 17.6634C20.36 17.6104 20.3232 17.5632 20.2783 17.5245C20.2334 17.4858 20.1812 17.4563 20.1249 17.4378C20.0686 17.4193 20.0091 17.4121 19.95 17.4166C16.6294 17.7884 13.2913 17.9831 9.94999 18C7.82915 17.988 5.76986 17.286 4.08333 16C3.2791 15.2277 2.64785 14.2935 2.23127 13.2593C1.81469 12.225 1.62225 11.1141 1.66666 9.99998C1.55961 7.7791 2.28463 5.59811 3.69999 3.88332C4.68814 2.90398 5.99539 2.31247 7.38333 2.21665C8.83891 2.04774 10.3135 2.2543 11.6667 2.81665C12.3351 3.09146 12.9361 3.50792 13.4281 4.03733C13.9201 4.56675 14.2915 5.19654 14.5167 5.88332C15.3167 8.18332 15.1167 10.9666 16.05 13.2C16.4354 14.108 17.0499 14.9005 17.8333 15.5C18.922 16.3265 20.1088 17.015 21.3667 17.55C21.4278 17.5813 21.4946 17.6001 21.5631 17.6053C21.6316 17.6106 21.7005 17.602 21.7657 17.5803C21.8308 17.5586 21.891 17.5241 21.9427 17.4788C21.9944 17.4335 22.0365 17.3784 22.0667 17.3166C22.1079 17.1979 22.1072 17.0687 22.0647 16.9505C22.0223 16.8322 21.9406 16.732 21.8333 16.6666C20.6466 16.1349 19.5276 15.4635 18.5 14.6666C17.892 14.168 17.4167 13.5268 17.1167 12.8C16.1667 9.99998 16.6667 6.66665 15.35 4.14998C14.6632 2.89897 13.5779 1.91343 12.2667 1.34998C10.6952 0.660708 8.97669 0.374285 7.26666 0.516649C5.44565 0.633304 3.72595 1.39564 2.41666 2.66665C0.720706 4.72194 -0.141761 7.33908 -8.02246e-06 9.99998C-0.0303753 11.3292 0.219591 12.6499 0.733612 13.8761C1.24763 15.1023 2.01418 16.2064 2.98333 17.1166Z" fill="#6E9D3E"/>
<path fill-rule="evenodd" clip-rule="evenodd" d="M37.5833 23C36.2962 21.7262 34.5908 20.9623 32.7833 20.85C31.0729 20.699 29.3523 20.9858 27.7833 21.6833C26.4704 22.2359 25.3836 23.217 24.7 24.4667C23.3167 27 23.8833 30.3833 22.8667 33.0833C22.5616 33.8348 22.0679 34.495 21.4333 35C20.4062 35.8022 19.2872 36.4791 18.1 37.0167C17.9784 37.0808 17.8862 37.1894 17.8427 37.3198C17.7993 37.4502 17.8078 37.5924 17.8667 37.7167C17.9337 37.8354 18.0424 37.925 18.1717 37.9681C18.3011 38.0113 18.4418 38.0048 18.5667 37.95C19.8218 37.4028 21.0078 36.7091 22.1 35.8833C22.8791 35.2864 23.4929 34.5005 23.8833 33.6C24.8167 31.35 24.6167 28.6 25.4167 26.2667C25.6405 25.5611 26.0183 24.9139 26.5227 24.3721C27.0271 23.8302 27.6455 23.4071 28.3333 23.1333C29.6727 22.5851 31.1289 22.3845 32.5667 22.55C33.9546 22.6458 35.2618 23.2373 36.25 24.2167C37.674 25.9164 38.4164 28.0842 38.3333 30.3C38.3913 31.3922 38.2228 32.4845 37.8385 33.5084C37.4542 34.5323 36.8623 35.4657 36.1 36.25C34.4119 37.5311 32.3525 38.2273 30.2333 38.2333C26.8915 38.2329 23.5525 38.0381 20.2333 37.65C20.1658 37.6371 20.0963 37.6392 20.0297 37.6563C19.9632 37.6733 19.9012 37.7049 19.8482 37.7486C19.7952 37.7924 19.7526 37.8474 19.7233 37.9096C19.694 37.9717 19.6789 38.0396 19.6789 38.1083C19.6789 38.1771 19.694 38.2449 19.7233 38.3071C19.7526 38.3693 19.7952 38.4242 19.8482 38.468C19.9012 38.5118 19.9632 38.5434 20.0297 38.5604C20.0963 38.5775 20.1658 38.5796 20.2333 38.5667C23.602 39.0717 26.9961 39.3889 30.4 39.5167C32.8331 39.5819 35.221 38.8503 37.2 37.4333C38.1339 36.509 38.8651 35.4004 39.3472 34.178C39.8293 32.9556 40.0516 31.6463 40 30.3333C40.1484 27.6716 39.2851 25.0521 37.5833 23Z" fill="#6E9D3E"/>
<path fill-rule="evenodd" clip-rule="evenodd" d="M7.46666 7.71666H8.33333H9.19999H11.2833C11.4226 7.73877 11.5649 7.70465 11.679 7.62182C11.7931 7.53899 11.8696 7.41424 11.8917 7.275C11.9138 7.13576 11.8796 6.99344 11.7968 6.87936C11.714 6.76527 11.5892 6.68877 11.45 6.66666C10.75 6.45 10.0667 6.23333 9.34999 6.08333C9.04262 6.01887 8.73045 5.97985 8.41666 5.96666C8.10049 5.94169 7.78284 5.94169 7.46666 5.96666C6.72927 6.06754 6.00356 6.24059 5.29999 6.48333C5.23891 6.49998 5.18202 6.52933 5.13306 6.56947C5.08409 6.6096 5.04414 6.65962 5.01583 6.71625C4.98752 6.77288 4.97147 6.83485 4.96874 6.8981C4.96601 6.96136 4.97666 7.02447 4.99999 7.08333C5.01662 7.20436 5.08004 7.31405 5.17664 7.38884C5.27324 7.46363 5.39532 7.49756 5.51666 7.48333C6.13333 7.5 6.78333 7.65 7.46666 7.71666Z" fill="#6E9D3E"/>
<path fill-rule="evenodd" clip-rule="evenodd" d="M28.7166 28.0833H30.8H31.6666H32.5333C33.2166 28.0833 33.8666 27.8666 34.5833 27.8333C34.6478 27.851 34.7153 27.8546 34.7812 27.8439C34.8472 27.8333 34.9101 27.8085 34.9657 27.7715C35.0213 27.7344 35.0683 27.6858 35.1035 27.629C35.1387 27.5722 35.1612 27.5084 35.1697 27.4422C35.1781 27.3759 35.1722 27.3085 35.1524 27.2447C35.1325 27.1809 35.0992 27.1221 35.0547 27.0723C35.0102 27.0224 34.9554 26.9827 34.8942 26.9559C34.8331 26.929 34.7668 26.9157 34.7 26.9166C33.997 26.672 33.2711 26.4989 32.5333 26.4C32.2171 26.375 31.8995 26.375 31.5833 26.4C31.2704 26.4224 30.9588 26.4613 30.65 26.5166C29.9389 26.6757 29.2378 26.8761 28.55 27.1166C28.4142 27.1411 28.2931 27.2173 28.2123 27.3292C28.1315 27.4411 28.0972 27.58 28.1166 27.7166C28.1519 27.8422 28.2334 27.9498 28.3447 28.0178C28.4559 28.0858 28.5888 28.1092 28.7166 28.0833Z" fill="#6E9D3E"/>
<path fill-rule="evenodd" clip-rule="evenodd" d="M4.56665 12.3333C4.5803 12.3916 4.60546 12.4466 4.64065 12.4951C4.67584 12.5436 4.72035 12.5845 4.77157 12.6156C4.8228 12.6466 4.87971 12.6671 4.93897 12.6759C4.99822 12.6847 5.05863 12.6815 5.11665 12.6666H7.46665H8.46665L9.46665 12.5666L11.85 12.2666C11.9178 12.2688 11.9855 12.2577 12.049 12.2337C12.1126 12.2098 12.1707 12.1736 12.2203 12.1272C12.2698 12.0807 12.3097 12.025 12.3377 11.9631C12.3657 11.9013 12.3812 11.8345 12.3833 11.7666C12.3855 11.6988 12.3744 11.6311 12.3504 11.5676C12.3265 11.5041 12.2903 11.4459 12.2439 11.3963C12.1974 11.3468 12.1417 11.3069 12.0798 11.2789C12.0179 11.251 11.9512 11.2354 11.8833 11.2333C11.0728 11.0847 10.255 10.979 9.43332 10.9166C9.0782 10.8916 8.72177 10.8916 8.36665 10.9166C8.01317 10.9271 7.66153 10.9718 7.31665 11.05C6.52261 11.2192 5.74678 11.4648 4.99998 11.7833C4.93385 11.7869 4.86925 11.8046 4.81048 11.8352C4.75171 11.8657 4.70012 11.9084 4.65912 11.9604C4.61813 12.0125 4.58869 12.0726 4.57274 12.1369C4.5568 12.2012 4.55472 12.2681 4.56665 12.3333Z" fill="#6E9D3E"/>
<path fill-rule="evenodd" clip-rule="evenodd" d="M27.6167 32.0667C27.6187 32.136 27.6348 32.2042 27.6638 32.2672C27.6928 32.3302 27.7342 32.3867 27.7855 32.4334C27.8369 32.4801 27.8971 32.5159 27.9625 32.5388C28.028 32.5617 28.0974 32.5712 28.1667 32.5667L30.5333 32.8667L31.5333 32.9667H32.5333H34.8833C35.0025 32.9917 35.1268 32.969 35.2296 32.9036C35.3323 32.8382 35.4055 32.7352 35.4333 32.6167C35.4482 32.5586 35.4514 32.4982 35.4426 32.439C35.4338 32.3797 35.4133 32.3228 35.3823 32.2716C35.3512 32.2204 35.3103 32.1759 35.2618 32.1407C35.2133 32.1055 35.1583 32.0803 35.1 32.0667C34.3276 31.7316 33.5236 31.4747 32.7 31.3C32.35 31.3 32 31.2 31.6333 31.1667C31.2667 31.1333 30.9333 31.1667 30.5833 31.1667C29.7615 31.228 28.9437 31.3337 28.1333 31.4833C28.0603 31.4853 27.9884 31.5022 27.9222 31.5331C27.856 31.564 27.7968 31.6082 27.7484 31.6629C27.6999 31.7176 27.6632 31.7816 27.6406 31.8511C27.6179 31.9205 27.6098 31.9939 27.6167 32.0667Z" fill="#6E9D3E"/>
</g>
<defs>
<clipPath id="clip0_1051_8574">
<rect width="40" height="40" fill="white"/>
</clipPath>
</defs>
</svg>
