<svg width="41" height="40" viewBox="0 0 41 40" fill="none" xmlns="http://www.w3.org/2000/svg">
<path d="M24.5833 29.45C24.4491 29.45 24.3202 29.5021 24.2238 29.5954C24.1273 29.6887 24.071 29.8159 24.0667 29.95V31.2334C21.4667 31.1167 18.8667 30.85 16.2833 30.6834C14.4667 30.5834 12.6667 30.4834 11 30.5C8.3711 30.5538 5.74866 30.7821 3.15 31.1834C2.96667 27.25 2.86667 21.5334 2.95 16.2834C2.95 10.25 3.23333 4.83336 4.03333 3.55002C4.18333 3.31669 4.63333 3.18335 5.21667 3.00002C6.60913 2.63808 8.03168 2.40378 9.46667 2.30002C12.6043 2.00695 15.7624 2.00695 18.9 2.30002C19.7612 2.38649 20.614 2.54256 21.45 2.76669C22.0333 2.93335 22.4833 3.08335 22.6333 3.33335C22.7331 3.55009 22.8005 3.78034 22.8333 4.01669C22.9342 4.43433 23.0121 4.85719 23.0667 5.28336C23.0913 5.43362 23.1722 5.56889 23.2929 5.66173C23.4136 5.75458 23.5651 5.79806 23.7167 5.78336C23.8657 5.75869 23.9994 5.67716 24.0895 5.55592C24.1797 5.43469 24.2193 5.2832 24.2 5.13335C24.1425 4.57323 24.0534 4.0168 23.9333 3.46669C23.8948 3.19106 23.8043 2.92525 23.6667 2.68335C23.327 2.20081 22.8333 1.84816 22.2667 1.68336C21.2292 1.37354 20.1624 1.17246 19.0833 1.08335C15.295 0.611728 11.4661 0.561421 7.66667 0.933355C6.30496 1.03498 4.96417 1.3267 3.68333 1.80002C3.27712 1.99143 2.92701 2.28415 2.66667 2.65002C1.75 4.00002 1.16667 9.78336 1 16.25C0.866666 25 1.38333 34.8834 1.9 36.45C2.12714 36.9127 2.45185 37.3206 2.85179 37.6458C3.25172 37.9709 3.71737 38.2055 4.21667 38.3334C7.21219 39.1456 10.3166 39.483 13.4167 39.3334C16.4945 39.3521 19.5573 38.9025 22.5 38C23.3554 37.7455 24.1044 37.2189 24.6333 36.5C24.8549 35.8216 24.9729 35.1136 24.9833 34.4C24.9833 33.3 25.0833 31.7834 25.0833 30C25.0903 29.9303 25.0826 29.8599 25.0606 29.7933C25.0387 29.7267 25.003 29.6655 24.9558 29.6137C24.9087 29.5618 24.8511 29.5204 24.787 29.4923C24.7228 29.4641 24.6534 29.4497 24.5833 29.45ZM23.6333 35.8667C23.2266 36.34 22.6766 36.6677 22.0667 36.8C19.2452 37.571 16.3229 37.9082 13.4 37.8C10.4971 37.8753 7.60052 37.4928 4.81667 36.6667C4.21667 36.4334 3.73333 36.25 3.61667 35.9167C3.38666 34.7294 3.25289 33.5255 3.21667 32.3167C5.53333 32.3167 7.81667 32.3167 10.0833 32.4167L15.2833 32.55C18.2056 32.55 21.1056 32.5 23.9833 32.4V33.7C23.9515 34.4334 23.8341 35.1606 23.6333 35.8667Z" fill="#6E9D3E"/>
<path d="M23.2333 7.80003C21.6362 7.5969 20.0262 7.51333 18.4167 7.55003C14.5187 7.40429 10.6155 7.59387 6.75 8.1167C5.98333 8.28337 5.81667 8.68337 5.75 8.88337C5.46708 9.97205 5.3215 11.0919 5.31667 12.2167C5.27305 12.9249 5.35199 13.6353 5.55 14.3167C5.63129 14.583 5.78751 14.8202 6 15C7.50795 15.3954 9.05796 15.608 10.6167 15.6334C14.25 15.8667 19.0833 16 20.7833 16.0334C21.6134 16.0638 22.4446 16.0192 23.2667 15.9C23.8163 15.8251 24.3199 15.5525 24.6833 15.1334C24.8555 14.8996 24.9594 14.6227 24.9833 14.3334C25.0755 13.2242 25.0755 12.1092 24.9833 11C24.9454 10.3084 24.8166 9.62469 24.6 8.9667C24.4903 8.66451 24.3136 8.39103 24.0833 8.1667C23.8314 7.98178 23.5407 7.85641 23.2333 7.80003ZM23.1167 13.9167C23.1167 13.9167 22.6333 14.0167 22.4 14.0334H20.8333H10.7333C9.39687 14.0671 8.05977 14.0002 6.73333 13.8334C6.66871 13.7076 6.62374 13.5727 6.6 13.4334C6.50208 13.0126 6.45177 12.5821 6.45 12.15C6.41658 11.2516 6.47804 10.3522 6.63333 9.4667C6.64147 9.38357 6.64147 9.29984 6.63333 9.2167C7.3 9.05003 12.2833 9.0167 16.6333 9.1167C18.7833 9.1167 20.7667 9.28337 22.0333 9.45003C22.4333 9.45003 22.95 9.5667 22.95 9.5667V10.4334C23.0745 11.5902 23.1302 12.7533 23.1167 13.9167Z" fill="#6E9D3E"/>
<path d="M28.3333 20.0834C28.2287 19.7835 28.0511 19.5143 27.8167 19.3C27.5503 19.1223 27.2492 19.003 26.9333 18.95C25.3433 18.7298 23.7379 18.6406 22.1333 18.6834C14 18.6834 11.4167 18.9167 10.3667 19.2667C9.65 19.5 9.48333 19.8334 9.43333 20.0167C9.15348 21.1064 9.00245 22.2251 8.98333 23.35C8.94503 24.0537 9.02963 24.7587 9.23333 25.4334C9.33225 25.713 9.51945 25.9528 9.76667 26.1167C11.2614 26.482 12.7946 26.6667 14.3333 26.6667C17.9667 26.9167 22.8167 27.05 24.5167 27.0834C25.3418 27.117 26.1683 27.0667 26.9833 26.9334C27.5344 26.8595 28.0418 26.594 28.4167 26.1834C28.5779 25.9377 28.6806 25.6583 28.7167 25.3667C28.8088 24.2575 28.8088 23.1426 28.7167 22.0334C28.6703 21.37 28.5415 20.7149 28.3333 20.0834ZM26.8333 25H26.75C26.548 25.0526 26.3416 25.0861 26.1333 25.1H24.5667H14.45C13.1162 25.1783 11.7782 25.1448 10.45 25C10.383 24.8737 10.3326 24.7392 10.3 24.6C10.2086 24.1841 10.1639 23.7592 10.1667 23.3334C10.1881 22.3525 10.2604 21.3734 10.3833 20.4C11.05 20.25 16.0333 20.2 20.3833 20.3C22.5333 20.3 25.2 20.5167 26.4667 20.6C26.7167 20.6 26.7 21.3834 26.7333 21.6334C26.8786 22.7495 26.9121 23.8773 26.8333 25Z" fill="#6E9D3E"/>
<path d="M27.9167 10.7C28.5477 10.873 29.1875 11.0121 29.8333 11.1167C30.105 11.1421 30.3784 11.1421 30.65 11.1167C30.922 11.1338 31.1947 11.1338 31.4667 11.1167C32.2 11.0167 32.85 10.8667 33.3833 10.7834C33.538 10.7834 33.6864 10.7219 33.7958 10.6125C33.9052 10.5031 33.9667 10.3547 33.9667 10.2C33.9623 10.0482 33.899 9.9041 33.79 9.79828C33.6811 9.69246 33.5352 9.6333 33.3833 9.63336C32.85 9.53336 32.2 9.38336 31.4667 9.30003C30.9141 9.21908 30.3526 9.21908 29.8 9.30003C29.1541 9.40461 28.5143 9.5437 27.8833 9.71669C27.7507 9.71669 27.6235 9.76937 27.5298 9.86314C27.436 9.95691 27.3833 10.0841 27.3833 10.2167C27.3833 10.3493 27.436 10.4765 27.5298 10.5702C27.6235 10.664 27.7507 10.7167 27.8833 10.7167L27.9167 10.7Z" fill="#6E9D3E"/>
<path d="M35.4167 22.0333C35.9833 21.95 36.4667 21.8 36.9 21.7C37.0503 21.7 37.1944 21.6403 37.3007 21.534C37.407 21.4278 37.4667 21.2836 37.4667 21.1333C37.4667 20.9831 37.407 20.8389 37.3007 20.7327C37.1944 20.6264 37.0503 20.5667 36.9 20.5667C36.4667 20.4667 35.9833 20.3167 35.4167 20.2167C35.2003 20.2002 34.983 20.2002 34.7667 20.2167C34.5563 20.1912 34.3437 20.1912 34.1333 20.2167C33.6299 20.3214 33.1343 20.4606 32.65 20.6333C32.5174 20.6333 32.3902 20.686 32.2964 20.7798C32.2027 20.8736 32.15 21.0007 32.15 21.1333C32.15 21.266 32.2027 21.3931 32.2964 21.4869C32.3902 21.5807 32.5174 21.6333 32.65 21.6333C33.1343 21.8061 33.6299 21.9453 34.1333 22.05C34.3441 22.0672 34.5559 22.0672 34.7667 22.05C34.9834 22.0609 35.2007 22.0553 35.4167 22.0333Z" fill="#6E9D3E"/>
<path d="M34.3333 15C35.5333 15 36.7333 14.75 37.9333 14.6167C38.0836 14.6167 38.2278 14.557 38.334 14.4507C38.4403 14.3445 38.5 14.2003 38.5 14.05C38.5 13.8997 38.4403 13.7556 38.334 13.6493C38.2278 13.5431 38.0836 13.4834 37.9333 13.4834C36.7333 13.3334 35.5333 13.0834 34.3333 13.0167C33.8561 12.9834 33.3772 12.9834 32.9 13.0167C32.5765 13.0272 32.2538 13.055 31.9333 13.1C31.55 13.1 30.9333 13.2834 30.3667 13.3334C30.08 13.3838 29.7867 13.3838 29.5 13.3334C29.4387 13.3071 29.3729 13.2932 29.3062 13.2924C29.2395 13.2915 29.1733 13.3039 29.1114 13.3286C29.0495 13.3534 28.9931 13.3901 28.9454 13.4367C28.8977 13.4832 28.8596 13.5388 28.8333 13.6C28.8071 13.6613 28.7931 13.7272 28.7923 13.7938C28.7915 13.8605 28.8038 13.9267 28.8286 13.9886C28.8534 14.0505 28.8901 14.1069 28.9366 14.1546C28.9832 14.2024 29.0387 14.2404 29.1 14.2667C29.3946 14.4122 29.7091 14.5132 30.0333 14.5667C30.6833 14.7167 31.4667 14.7667 31.9333 14.8334C32.4 14.9 32.5667 14.8334 32.9 14.9334C33.3763 14.9806 33.8547 15.0028 34.3333 15Z" fill="#6E9D3E"/>
<path d="M40.4333 24.2C39.8667 24.1 39.2 23.95 38.4833 23.8667C38.2058 23.8501 37.9275 23.8501 37.65 23.8667C37.3728 23.8414 37.0939 23.8414 36.8167 23.8667C36.0833 23.9667 35.4333 24.1667 34.8667 24.2834C34.7476 24.305 34.6399 24.3677 34.5624 24.4606C34.4849 24.5535 34.4424 24.6707 34.4424 24.7917C34.4424 24.9127 34.4849 25.0299 34.5624 25.1228C34.6399 25.2156 34.7476 25.2784 34.8667 25.3C35.4333 25.4167 36.0833 25.6167 36.8167 25.7167C37.0942 25.7338 37.3725 25.7338 37.65 25.7167H38.4833C39.2 25.6334 39.8667 25.4834 40.4333 25.3834C40.569 25.3602 40.6922 25.2897 40.7809 25.1845C40.8697 25.0793 40.9184 24.946 40.9184 24.8084C40.9184 24.6707 40.8697 24.5375 40.7809 24.4322C40.6922 24.327 40.569 24.2566 40.4333 24.2334V24.2Z" fill="#6E9D3E"/>
</svg>
