<svg width="40" height="40" viewBox="0 0 40 40" fill="none" xmlns="http://www.w3.org/2000/svg">
<g clip-path="url(#clip0_1046_5837)">
<path d="M9.78333 10C9.80652 10.1357 9.87696 10.2589 9.98219 10.3476C10.0874 10.4364 10.2207 10.4851 10.3583 10.4851C10.496 10.4851 10.6292 10.4364 10.7345 10.3476C10.8397 10.2589 10.9101 10.1357 10.9333 10C10.9333 9.20003 11.2167 8.33336 11.3 7.60003C11.2854 6.67422 11.1737 5.75251 10.9667 4.85003C10.9866 4.69532 10.9442 4.53904 10.8488 4.41558C10.7535 4.29212 10.613 4.21158 10.4583 4.19169C10.3036 4.1718 10.1473 4.21418 10.0239 4.30951C9.90043 4.40485 9.81989 4.54532 9.8 4.70003C9.27467 6.42681 9.26887 8.26997 9.78333 10Z" fill="#6E9D3E"/>
<path d="M11.95 14.1167C13 12.9667 11.4167 11.6167 10.2833 11.4833C9.79825 11.5318 9.34203 11.7365 8.98333 12.0667C8.63333 12.35 8.25 12.5333 8.21666 13.25C8.16666 15 10.9667 15.2 11.95 14.1167Z" fill="#6E9D3E"/>
<path d="M40 14.2167C39.8787 13.2531 39.3962 12.3715 38.65 11.75C37.2444 10.7384 35.7428 9.86752 34.1667 9.15C31.9231 8.01454 29.5869 7.07225 27.1833 6.33333C26.4854 6.07861 25.7344 6.00409 25 6.11666C24.6354 6.28646 24.2892 6.49309 23.9667 6.73333C23.5833 7 23.1333 7.33333 22.6333 7.73333C22.5681 7.76989 22.5116 7.82016 22.4677 7.88067C22.4238 7.94119 22.3936 8.01051 22.3791 8.08384C22.3646 8.15718 22.3662 8.23279 22.3838 8.30545C22.4014 8.37811 22.4345 8.4461 22.4809 8.50471C22.5273 8.56332 22.5859 8.61116 22.6525 8.64494C22.7192 8.67871 22.7925 8.69761 22.8672 8.70033C22.9419 8.70306 23.0163 8.68953 23.0853 8.6607C23.1542 8.63187 23.2161 8.58841 23.2667 8.53333C23.75 8.15 24.1833 7.85 24.55 7.6C24.816 7.41472 25.1009 7.25828 25.4 7.13333C25.8001 7.11925 26.1983 7.19321 26.5667 7.35C26.8833 7.35 27.2167 7.55 27.5833 7.68333C27.5833 7.68333 27.0833 8.58333 26.9167 8.95C26.7861 9.23482 26.7017 9.53862 26.6667 9.85C26.652 10.1078 26.6919 10.3657 26.7838 10.607C26.8757 10.8482 27.0175 11.0673 27.2 11.25C27.7792 11.8186 28.4496 12.2862 29.1833 12.6333L31.3833 13.5833C31.7474 13.7804 32.1416 13.9156 32.55 13.9833C32.8878 14.0326 33.2326 13.9924 33.55 13.8667L35 12.9833L35.65 12.6833H35.75C35.8611 12.6198 35.9532 12.5278 36.0167 12.4167C36.075 12.2723 36.075 12.111 36.0167 11.9667C36.5 12.2833 37.55 12.9167 37.9 13.1667C38.25 13.4167 37.4667 14.3833 37.1333 14.8333C35.4628 17.2017 33.6716 19.4824 31.7667 21.6667C28.7167 25.2667 25.25 29.1167 23.0333 31.5C21.8833 32.7167 21.15 33.5667 21 33.65C20.2732 33.766 19.5284 33.6555 18.8667 33.3333C16.8605 32.665 14.937 31.7703 13.1333 30.6667C11.0134 29.5087 9.08508 28.0302 7.41667 26.2833C7.05 25.8333 6.76667 25.4833 6.86667 25.1833C7.00174 24.879 7.17538 24.5933 7.38333 24.3333C7.66667 23.95 8.05 23.4833 8.48333 22.9667C8.53258 22.9098 8.57013 22.8437 8.59385 22.7723C8.61757 22.7009 8.62699 22.6255 8.62158 22.5504C8.61616 22.4754 8.59601 22.4021 8.56228 22.3348C8.52855 22.2675 8.48191 22.2076 8.425 22.1583C8.36809 22.1091 8.30204 22.0715 8.23062 22.0478C8.1592 22.0241 8.08381 22.0147 8.00875 22.0201C7.93369 22.0255 7.86043 22.0456 7.79316 22.0794C7.72588 22.1131 7.66591 22.1598 7.61667 22.2167C7.05 22.8667 6.58333 23.4333 6.25 23.8833C5.70813 24.7496 5.28755 25.6861 5 26.6667C4.79395 27.6363 4.69337 28.6254 4.7 29.6167C4.83766 30.3965 5.21657 31.1136 5.78333 31.6667C7.64093 33.5643 9.75607 35.1913 12.0667 36.5C14.0363 37.7146 16.139 38.6989 18.3333 39.4333C19.4012 39.8118 20.5435 39.9318 21.6667 39.7833C22.5319 39.4776 23.3178 38.9822 23.9667 38.3333C26.1665 36.2838 28.2214 34.084 30.1167 31.75C34.8 26.0833 39.5667 19.1333 39.7333 17.8167C39.9814 16.6338 40.0711 15.4232 40 14.2167ZM35.25 11.6667L34.6167 11.85L33.1 12.4667C33.012 12.4842 32.9214 12.4842 32.8333 12.4667C32.6125 12.3722 32.4051 12.2489 32.2167 12.1L30.0833 11.0167C29.557 10.8112 29.0495 10.5602 28.5667 10.2667C28.4167 10.1667 28.1833 10.1167 28.1833 9.93333C28.147 9.73498 28.147 9.53168 28.1833 9.33333C28.2467 9.07712 28.3303 8.82634 28.4333 8.58333L28.5333 8.16666C29.6333 8.61666 30.8667 9.16666 32.1 9.83333C33.3333 10.5 34.4333 11.0667 35.4333 11.6667H35.25ZM30.4667 28.4667C28.1627 31.3008 25.7034 34.0049 23.1 36.5667C22.587 37.1267 21.9773 37.5897 21.3 37.9333C19.6333 38.3167 16.0833 36.8667 12.8667 35.0833C10.6456 33.9314 8.59779 32.4727 6.78333 30.75C6.31667 30.2667 5.98333 29.8667 5.96667 29.5333C5.94701 28.7593 5.98601 27.9848 6.08333 27.2167L6.18333 26.6667C6.28333 26.8167 6.3 26.95 6.41667 27.1C8.13371 29.021 10.1347 30.6678 12.35 31.9833C14.5033 33.4281 16.8559 34.551 19.3333 35.3167C20.1051 35.5493 20.9283 35.5493 21.7 35.3167C22.7922 34.4388 23.8122 33.4746 24.75 32.4333C27.5167 29.5333 31.7667 24.8167 34.9833 20.7667C36.4017 19.0435 37.7045 17.2284 38.8833 15.3333C38.8274 16.118 38.716 16.8977 38.55 17.6667C38.3333 18.75 34.4833 23.6833 30.4667 28.4667Z" fill="#6E9D3E"/>
<path d="M17.05 17.5C18.5729 17.9477 20.1198 18.3094 21.6833 18.5833C22.0039 18.6599 22.3382 18.6575 22.6576 18.5762C22.9769 18.4949 23.2718 18.3372 23.5167 18.1167C23.6724 17.8747 23.7374 17.5853 23.7 17.3C23.5842 16.7152 23.376 16.1526 23.0833 15.6333C22.3746 14.3055 21.555 13.0399 20.6333 11.85C21.1018 9.37978 20.6639 6.82349 19.4 4.65C18.7428 3.48234 17.8248 2.48225 16.7176 1.72771C15.6103 0.973164 14.3438 0.484564 13.0167 0.300004C11.2357 -0.0118609 9.40891 0.0571141 7.65655 0.502386C5.90419 0.947658 4.26604 1.75912 2.85 2.88334C0.666666 4.86667 -0.633334 8.11667 0.299999 13.0833C0.581381 14.9009 1.44244 16.5788 2.75489 17.8672C4.06734 19.1557 5.76093 19.9856 7.58333 20.2333C9.26513 20.4959 10.984 20.3873 12.6194 19.9151C14.2548 19.4429 15.767 18.6186 17.05 17.5ZM2.2 12.7167C1.4 8.61667 2.35 5.91667 4.11667 4.23334C5.31918 3.24791 6.71394 2.52404 8.21192 2.10793C9.70991 1.69183 11.2782 1.59263 12.8167 1.81667C13.939 1.93093 15.0201 2.30143 15.9765 2.89959C16.933 3.49775 17.7393 4.3076 18.3333 5.26667C19.5698 7.2541 20.0158 9.63299 19.5833 11.9333C19.5654 12.0191 19.5651 12.1076 19.5823 12.1936C19.5994 12.2795 19.6338 12.361 19.6833 12.4333C19.6833 12.4333 20.7333 13.9667 21.35 15.0667C21.7194 15.6813 22.0318 16.3285 22.2833 17V17.2833H22.2C21.6368 17.2411 21.0788 17.1462 20.5333 17C19.1167 16.65 17.5167 16.0833 16.8333 15.95C16.717 15.9237 16.5957 15.9283 16.4817 15.9634C16.3676 15.9985 16.2648 16.0628 16.1833 16.15C15.0521 17.129 13.7184 17.8459 12.2778 18.2493C10.8372 18.6527 9.32514 18.7326 7.85 18.4833C6.41469 18.2543 5.09091 17.5703 4.07371 16.532C3.05651 15.4938 2.39968 14.1564 2.2 12.7167Z" fill="#6E9D3E"/>
</g>
<defs>
<clipPath id="clip0_1046_5837">
<rect width="40" height="40" fill="white"/>
</clipPath>
</defs>
</svg>
