<svg width="40" height="40" viewBox="0 0 40 40" fill="none" xmlns="http://www.w3.org/2000/svg">
<g clip-path="url(#clip0_1051_8566)">
<path fill-rule="evenodd" clip-rule="evenodd" d="M15.0833 17.1169C15.8003 17.4005 16.5624 17.5529 17.3333 17.5669C17.9771 17.6088 18.6229 17.6088 19.2667 17.5669C20.6 17.4669 21.5833 17.1669 23.4 17.0836C23.7667 17.0836 24.8333 17.2002 25.5167 17.0836C25.8773 17.0552 26.2259 16.9409 26.5333 16.7502C27.1195 16.3158 27.5469 15.701 27.75 15.0002C28.0514 13.7349 28.147 12.4293 28.0333 11.1336C28.0333 10.1836 28.1667 8.40023 28.0333 6.95023C27.9979 6.22159 27.8165 5.50748 27.5 4.85023C27.0752 4.12427 26.5782 3.44304 26.0167 2.8169C25.2265 1.91459 24.3804 1.06291 23.4833 0.266897C23.2822 0.0871064 23.0196 -0.00838309 22.75 0.000230793C22.2 0.000230793 20.8833 0.250231 20.6667 0.266897L15.8167 0.916897C15.6961 0.932084 15.5823 0.980731 15.488 1.05732C15.3938 1.13391 15.3229 1.23539 15.2833 1.35023C15.2422 1.23753 15.1673 1.14026 15.0689 1.07166C14.9705 1.00306 14.8533 0.966481 14.7333 0.966897C14.6589 0.969054 14.5856 0.985857 14.5177 1.01635C14.4498 1.04683 14.3885 1.09041 14.3374 1.14459C14.2864 1.19876 14.2465 1.26247 14.22 1.33207C14.1936 1.40167 14.1811 1.47581 14.1833 1.55023L14.0167 11.4502C14.0167 12.1836 13.7833 13.4002 13.7667 14.4336C13.7388 14.969 13.8065 15.5052 13.9667 16.0169C14.0674 16.267 14.2186 16.4937 14.4107 16.683C14.6028 16.8722 14.8317 17.0199 15.0833 17.1169ZM24.6833 3.95023C25.1436 4.50185 25.5457 5.09945 25.8833 5.73356C26.0077 6.03603 26.0809 6.35708 26.1 6.68356L26 6.6669C25.0581 6.48454 24.1066 6.35655 23.15 6.28356C22.7993 6.23339 22.4606 6.12048 22.15 5.95023C22.15 5.6669 22.2833 5.2169 22.2833 4.90023V3.3169L22.1833 1.88356C22.4167 1.88356 22.6167 1.88356 22.7 1.7169C23.4013 2.42468 24.0634 3.17024 24.6833 3.95023ZM15.9667 2.28356L20.75 1.85023L20.5 3.2669C20.5 3.40023 20.3167 3.9669 20.2 4.6169C20.1368 5.10887 20.1034 5.60422 20.1 6.10023C20.0801 6.39228 20.1267 6.68503 20.2364 6.95642C20.3461 7.22781 20.516 7.47074 20.7333 7.6669C21.2713 7.9663 21.869 8.14275 22.4833 8.18356C23.5833 8.18356 24.7333 7.9169 25.8167 7.98356C25.9198 8.01562 26.0302 8.01562 26.1333 7.98356C26.1333 9.25023 25.95 10.5836 25.95 11.3169C26.014 12.0989 26.014 12.8849 25.95 13.6669C25.6167 16.2836 24.4333 14.9836 23.3667 15.0336C21.5167 15.1502 20.5167 15.4502 19.15 15.5836C18.595 15.62 18.0383 15.62 17.4833 15.5836C17.0533 15.5923 16.6235 15.5588 16.2 15.4836C16.05 15.4836 15.8833 15.2502 15.8 15.3336C15.6917 14.9319 15.6467 14.5158 15.6667 14.1002C15.6667 13.1502 15.7833 12.1336 15.75 11.5002L15.3333 1.8669C15.393 1.97984 15.4854 2.07211 15.5984 2.1316C15.7114 2.19109 15.8398 2.21501 15.9667 2.20023V2.28356Z" fill="#6E9D3E"/>
<path fill-rule="evenodd" clip-rule="evenodd" d="M36.3333 31.9167C36.1063 31.6757 35.8418 31.4731 35.55 31.3167C35.318 31.2191 35.0783 31.141 34.8333 31.0834C35.4175 30.5457 35.8337 29.8505 36.0319 29.0817C36.23 28.3128 36.2016 27.5031 35.95 26.75C35.6596 25.8175 35.0962 24.9934 34.3326 24.3844C33.5691 23.7753 32.6404 23.4092 31.6667 23.3334C30.7799 23.2687 29.9007 23.536 29.2 24.0834C28.2937 24.8438 27.7002 25.9121 27.5333 27.0834C27.3794 27.7437 27.4133 28.434 27.6313 29.0761C27.8492 29.7182 28.2425 30.2865 28.7667 30.7167C28.3343 30.8187 27.9149 30.9697 27.5167 31.1667C27.2445 31.3235 26.9973 31.5201 26.7833 31.75C26.5704 31.989 26.3858 32.2519 26.2333 32.5334C25.8938 33.175 25.6842 33.8773 25.6167 34.6C25.3177 34.2324 24.9701 33.9071 24.5833 33.6334C24.1802 33.386 23.7564 33.1741 23.3167 33C23.8621 32.3825 24.233 31.6308 24.3912 30.8222C24.5494 30.0137 24.4892 29.1775 24.2167 28.4C23.7859 27.1484 22.8883 26.1115 21.7113 25.5059C20.5343 24.9004 19.1688 24.7728 17.9 25.15C17.0927 25.402 16.3625 25.8546 15.7777 26.4655C15.193 27.0764 14.7727 27.8257 14.5562 28.6432C14.3398 29.4607 14.3342 30.3198 14.5401 31.14C14.7459 31.9603 15.1565 32.7149 15.7333 33.3334C15.5 33.4334 15.25 33.5167 15.0333 33.6334C14.63 33.8861 14.2555 34.1823 13.9167 34.5167C13.9167 34.6167 13.7833 34.7334 13.7 34.8167C13.6182 34.0744 13.3917 33.3553 13.0333 32.7C12.8668 32.4104 12.6591 32.1466 12.4167 31.9167C12.1946 31.6887 11.9422 31.4925 11.6667 31.3334C11.4216 31.2405 11.1712 31.1625 10.9167 31.1C11.504 30.5609 11.9222 29.8629 12.1204 29.0907C12.3187 28.3185 12.2884 27.5054 12.0333 26.75C11.7336 25.8428 11.1744 25.0435 10.4249 24.451C9.67536 23.8585 8.76852 23.4989 7.81666 23.4167C6.93492 23.3513 6.06072 23.619 5.36666 24.1667C4.45537 24.923 3.8607 25.9934 3.69999 27.1667C3.54205 27.827 3.57403 28.5185 3.79226 29.1614C4.01049 29.8042 4.40606 30.3723 4.93332 30.8C4.49493 30.9076 4.07004 31.0641 3.66666 31.2667C3.39761 31.4346 3.15117 31.6362 2.93332 31.8667C2.72039 32.1057 2.53583 32.3686 2.38332 32.65C2.01689 33.2759 1.77362 33.9661 1.66666 34.6834C1.64087 34.7632 1.63121 34.8474 1.63825 34.931C1.64528 35.0147 1.66887 35.0961 1.70764 35.1705C1.74641 35.245 1.79958 35.3109 1.86408 35.3646C1.92857 35.4184 2.0031 35.4587 2.08332 35.4834C2.24472 35.5367 2.42059 35.5247 2.57325 35.4499C2.72591 35.3752 2.8432 35.2436 2.89999 35.0834C3.05416 34.7978 3.23855 34.5296 3.44999 34.2834C3.65975 34.0543 3.88233 33.8372 4.11666 33.6334L4.73332 32.9834C5.13923 32.4556 5.58498 31.9597 6.06666 31.5C6.17344 31.4414 6.25608 31.347 6.29999 31.2334H6.58332C6.73528 31.2379 6.88303 31.183 6.9951 31.0803C7.10717 30.9776 7.1747 30.8351 7.18332 30.6834C7.17539 30.5489 7.11841 30.4221 7.02319 30.3268C6.92796 30.2316 6.8011 30.1746 6.66666 30.1667C5.23332 29.9834 4.99999 28.6667 5.31666 27.5C5.63332 26.3334 6.43332 25.3834 7.61666 25.5334C8.16912 25.5698 8.6992 25.7655 9.14285 26.0968C9.58649 26.428 9.92472 26.8807 10.1167 27.4C10.355 27.9144 10.4088 28.4951 10.2692 29.0445C10.1296 29.594 9.80496 30.0785 9.34999 30.4167C9.13934 30.5805 8.89432 30.6945 8.63332 30.75C8.30914 30.8178 7.98053 30.8624 7.64999 30.8834C7.48052 30.892 7.32115 30.9666 7.20592 31.0911C7.0907 31.2157 7.02875 31.3804 7.03332 31.55C7.03543 31.6347 7.05449 31.718 7.08937 31.7952C7.12425 31.8723 7.17425 31.9417 7.2364 31.9992C7.29855 32.0567 7.3716 32.1011 7.45123 32.1299C7.53086 32.1587 7.61544 32.1712 7.69999 32.1667C8.18005 32.1909 8.66128 32.1573 9.13332 32.0667H9.36666C9.79999 32.45 10.15 32.8667 10.5167 33.2334L11.1833 33.9C11.4284 34.1037 11.662 34.3207 11.8833 34.55C12.1019 34.8004 12.292 35.0743 12.45 35.3667C12.4917 35.4883 12.5703 35.5938 12.6749 35.6685C12.7795 35.7432 12.9048 35.7834 13.0333 35.7834C12.5052 36.7044 12.1547 37.7163 12 38.7667C11.9609 38.8513 11.9406 38.9434 11.9402 39.0366C11.9399 39.1298 11.9596 39.2219 11.998 39.3069C12.0364 39.3918 12.0926 39.4674 12.1628 39.5287C12.2331 39.59 12.3156 39.6355 12.405 39.662C12.4943 39.6886 12.5883 39.6956 12.6806 39.6827C12.7729 39.6697 12.8613 39.637 12.9399 39.5869C13.0185 39.5367 13.0853 39.4703 13.136 39.392C13.1866 39.3138 13.2198 39.2256 13.2333 39.1334C13.7566 38.0047 14.5053 36.9951 15.4333 36.1667L16.2167 35.4334C16.6197 35.0644 17.0486 34.7246 17.5 34.4167C17.5555 34.4197 17.6111 34.4197 17.6667 34.4167C18.5212 34.5671 19.3954 34.5671 20.25 34.4167C20.299 34.431 20.351 34.431 20.4 34.4167C20.4833 34.5356 20.6041 34.6233 20.7431 34.6656C20.882 34.7079 21.0312 34.7024 21.1667 34.65C21.4109 34.5367 21.645 34.4029 21.8667 34.25C22.3623 34.6216 22.8353 35.0223 23.2833 35.45C23.55 35.7167 23.7833 35.9834 24 36.2334C24.8318 37.2106 25.4607 38.3438 25.85 39.5667C25.8747 39.649 25.9156 39.7257 25.9701 39.7921C26.0247 39.8586 26.0919 39.9136 26.1678 39.9539C26.2438 39.9942 26.327 40.019 26.4126 40.0269C26.4982 40.0348 26.5846 40.0257 26.6667 40C26.829 39.9567 26.969 39.8536 27.0586 39.7115C27.1483 39.5693 27.1809 39.3985 27.15 39.2334C27.0739 38.1468 26.8496 37.0758 26.4833 36.05C26.3829 35.841 26.2659 35.6403 26.1333 35.45C26.2833 35.4837 26.4404 35.4617 26.5753 35.3881C26.7102 35.3145 26.8138 35.1943 26.8667 35.05C27.0307 34.7666 27.2203 34.4988 27.4333 34.25C27.6167 34.0167 27.8667 33.85 28.0833 33.6167C28.3 33.3834 28.5 33.2167 28.7 32.9834C29.1064 32.4612 29.5521 31.9708 30.0333 31.5167C30.1484 31.464 30.2381 31.3682 30.2833 31.25H30.5667C30.7169 31.25 30.8611 31.1903 30.9673 31.084C31.0736 30.9778 31.1333 30.8336 31.1333 30.6834C31.1333 30.5331 31.0736 30.3889 30.9673 30.2827C30.8611 30.1764 30.7169 30.1167 30.5667 30.1167C29.15 29.9334 28.9 28.6167 29.2167 27.45C29.5333 26.2834 30.35 25.3334 31.5333 25.4834C32.0835 25.5209 32.6109 25.7172 33.0517 26.0486C33.4925 26.3799 33.8277 26.832 34.0167 27.35C34.2769 27.8609 34.3511 28.4466 34.2264 29.0062C34.1017 29.5659 33.7859 30.0646 33.3333 30.4167C33.1147 30.5776 32.865 30.6912 32.6 30.75C32.2815 30.818 31.9584 30.8626 31.6333 30.8834C31.4639 30.892 31.3045 30.9666 31.1893 31.0911C31.074 31.2157 31.0121 31.3804 31.0167 31.55C31.0165 31.6339 31.0335 31.7169 31.0666 31.794C31.0996 31.871 31.1481 31.9406 31.2089 31.9983C31.2697 32.056 31.3417 32.1007 31.4204 32.1297C31.4991 32.1586 31.5829 32.1712 31.6667 32.1667C32.1522 32.1909 32.639 32.1574 33.1167 32.0667H33.35C33.7833 32.45 34.1333 32.85 34.5 33.2167C34.8667 33.5834 34.95 33.65 35.1667 33.8667C35.3833 34.0834 35.65 34.2667 35.8667 34.5167C36.0781 34.7666 36.2677 35.0343 36.4333 35.3167C36.4562 35.3984 36.4953 35.4747 36.5482 35.541C36.6012 35.6074 36.6669 35.6624 36.7415 35.7028C36.8162 35.7432 36.8982 35.7682 36.9826 35.7763C37.0671 35.7844 37.1524 35.7755 37.2333 35.75C37.3959 35.6999 37.5323 35.588 37.6133 35.4385C37.6943 35.2889 37.7135 35.1135 37.6667 34.95C37.5865 34.187 37.3481 33.449 36.9667 32.7834C36.8021 32.4632 36.5884 32.1708 36.3333 31.9167ZM17.0167 32.4834C16.6825 32.0585 16.4626 31.5551 16.378 31.0213C16.2934 30.4874 16.3469 29.9407 16.5333 29.4334C16.6486 28.9444 16.889 28.4938 17.2308 28.1257C17.5726 27.7575 18.0042 27.4845 18.4833 27.3334C19.2584 27.0559 20.1103 27.0862 20.8637 27.4179C21.6171 27.7497 22.2147 28.3576 22.5333 29.1167C24.4167 33.6167 18.1167 33.7 17.0167 32.4834Z" fill="#6E9D3E"/>
<path fill-rule="evenodd" clip-rule="evenodd" d="M4.18333 21.8833C4.43333 21.8833 4.51666 22.1167 5.64999 19.65C5.79999 19.3333 5.91666 18.9833 6.03333 18.6667C6.79999 16.6667 7.04999 16.5667 6.66666 16.1833C5.91666 15.5167 4.31666 17.6 4.29999 17.65C4.11878 17.8799 3.96757 18.1319 3.84999 18.4C3.7362 18.6735 3.65238 18.9585 3.59999 19.25C3.49999 19.75 3.41666 21.8167 4.18333 21.8833Z" fill="#6E9D3E"/>
<path fill-rule="evenodd" clip-rule="evenodd" d="M38.0167 18.3333C37.9055 18.0655 37.7598 17.8134 37.5833 17.5833C37.5833 17.5833 35.9167 15.45 35.2167 16.1167C34.8 16.5 35.0333 16.6333 35.8 18.6C35.9333 18.9167 36.05 19.2667 36.1833 19.5833C37.3333 22.05 37.4 21.8333 37.6667 21.8167C38.4333 21.8167 38.3333 19.6833 38.2667 19.1833C38.2215 18.8901 38.1375 18.6043 38.0167 18.3333Z" fill="#6E9D3E"/>
<path fill-rule="evenodd" clip-rule="evenodd" d="M9.99999 14.5333C10.159 14.4606 10.3099 14.3713 10.45 14.2667C10.5972 14.1799 10.7318 14.0734 10.85 13.95C12.1167 12.8333 12.35 12.75 12.1667 12.2833C12.1667 12.1 11.9 11.4833 9.83332 12.2C9.6282 12.2707 9.43234 12.3658 9.24999 12.4833C9.0744 12.5981 8.91227 12.7323 8.76665 12.8833C8.49999 13.1833 7.51665 14.55 7.91665 14.95C8.06665 15.0833 8.16665 15.3667 9.99999 14.5333Z" fill="#6E9D3E"/>
<path fill-rule="evenodd" clip-rule="evenodd" d="M30.9666 13.95C31.0917 14.0656 31.2254 14.1715 31.3666 14.2667C31.5126 14.3714 31.669 14.4608 31.8333 14.5333C33.6833 15.3667 33.7833 15.0833 33.9166 14.9333C34.3166 14.5 33.3166 13.1667 33.0666 12.8667C32.9151 12.7155 32.7474 12.5814 32.5666 12.4667C32.3861 12.3459 32.1898 12.2506 31.9833 12.1833C29.9333 11.4667 29.7166 12.0833 29.65 12.2667C29.4833 12.75 29.7166 12.8333 30.9666 13.95Z" fill="#6E9D3E"/>
</g>
<defs>
<clipPath id="clip0_1051_8566">
<rect width="40" height="40" fill="white"/>
</clipPath>
</defs>
</svg>
