<svg width="40" height="40" viewBox="0 0 40 40" fill="none" xmlns="http://www.w3.org/2000/svg">
<path fill-rule="evenodd" clip-rule="evenodd" d="M35.6667 30C37.3333 29.1167 39.6167 27.55 38.2 26.4C37.6667 25.95 27.7833 21.9833 27.0833 21.7333C27.0111 21.7071 26.9344 21.6953 26.8576 21.6987C26.7808 21.702 26.7055 21.7205 26.6358 21.753C26.5662 21.7855 26.5036 21.8314 26.4517 21.8881C26.3998 21.9448 26.3596 22.0111 26.3333 22.0833C26.3071 22.1556 26.2953 22.2322 26.2987 22.309C26.302 22.3858 26.3205 22.4612 26.353 22.5308C26.3855 22.6005 26.4314 22.663 26.4881 22.7149C26.5448 22.7668 26.6111 22.8071 26.6833 22.8333C27.6833 23.2167 35.3667 26.7 36.6833 27.3333C36.3807 27.6077 36.0447 27.8429 35.6833 28.0333C34.0167 29 33.6 28.9167 33.45 29.5333C33.3 30.15 33.7667 30.2167 36.6833 34.5333C37.0716 35.0638 37.4225 35.6207 37.7333 36.2C36.8182 36.8962 35.8079 37.4575 34.7333 37.8667C34.3245 37.3329 33.9461 36.7764 33.6 36.2C31.3167 32.5333 31.3333 31.6167 30.2667 32.1C29.6333 32.3667 28.45 34.1 27.35 34.8333C27.2333 34.5 27.0667 34.15 27.05 34.0167C26.5266 30.8874 26.165 27.7332 25.9667 24.5667C25.6333 24.1 25.1 24.4 25.0167 24.85C25.027 28.0036 25.2274 31.1538 25.6167 34.2833C25.7167 34.95 25.6167 36.0667 26.1833 36.5833C27.1167 37.5167 29.5167 35.2167 30.3833 34.3167C31.25 35.9833 33 39.4167 34.2 39.8667C35.4 40.3167 38.9833 37.6167 39.5167 36.5333C40.05 35.45 39.6333 35 35.6667 30Z" fill="#6E9D3E"/>
<path fill-rule="evenodd" clip-rule="evenodd" d="M4.49999 26.15C1.93333 26 2.16666 26.05 2.16666 25.8333C2.16666 24.7333 2.36666 14.3 2.34999 11.7C2.34999 8.03333 2.21666 4.9 2.23333 4.1C3.87563 3.72001 5.54929 3.49127 7.23333 3.41666C7.30778 3.4302 7.38431 3.42722 7.45748 3.40792C7.53066 3.38862 7.5987 3.35349 7.6568 3.305C7.7149 3.25651 7.76164 3.19585 7.79372 3.1273C7.82579 3.05876 7.84242 2.98401 7.84242 2.90833C7.84242 2.83265 7.82579 2.7579 7.79372 2.68935C7.76164 2.62081 7.7149 2.56015 7.6568 2.51166C7.5987 2.46317 7.53066 2.42803 7.45748 2.40874C7.38431 2.38944 7.30778 2.38646 7.23333 2.4C5.56666 2.4 2.09999 2.4 1.26666 3.06666C1.11234 3.16823 0.999891 3.32212 0.949994 3.5C0.833327 3.66666 0.599994 6.66666 0.483327 10.5333C0.299994 15.7333 0.349994 21.1667 0.533327 25.6333C0.533327 26.1667 0.533327 26.9 0.933327 27.1667C1.66666 27.6667 6.24999 27.6333 7.98333 27.5333C8.48333 27.5333 8.94999 26.2 7.83333 26.0167C6.72954 26.1733 5.61276 26.2179 4.49999 26.15Z" fill="#6E9D3E"/>
<path fill-rule="evenodd" clip-rule="evenodd" d="M27.7167 0.383328C24.8833 -0.100005 12.7167 -0.266672 10.3167 0.716661C10.1412 0.781746 9.9819 0.883937 9.84959 1.01625C9.71727 1.14857 9.61508 1.30789 9.54999 1.48333C9.06666 2.94999 9.43333 30.2 9.46666 30.2667C9.52339 30.3976 9.60793 30.5146 9.71442 30.6096C9.82091 30.7046 9.94679 30.7752 10.0833 30.8167C11.75 31.4167 19.3167 31.1833 21.0667 31.1C21.2214 31.1 21.3697 31.0385 21.4791 30.9291C21.5885 30.8197 21.65 30.6714 21.65 30.5167C21.65 30.362 21.5885 30.2136 21.4791 30.1042C21.3697 29.9948 21.2214 29.9333 21.0667 29.9333C19.6167 29.9333 12.1667 29.9333 10.95 29.4167C10.95 29.4167 11.25 2.74999 11.25 2.38333C11.6584 2.23015 12.0759 2.10213 12.5 1.99999C17.4701 1.32939 22.4922 1.1285 27.5 1.39999C27.6348 1.42873 27.7755 1.40272 27.8912 1.32771C28.0068 1.2527 28.0879 1.13481 28.1167 0.999995C28.1454 0.865176 28.1194 0.724466 28.0444 0.608819C27.9694 0.493171 27.8515 0.41206 27.7167 0.383328Z" fill="#6E9D3E"/>
<path fill-rule="evenodd" clip-rule="evenodd" d="M28.1667 11.1833C28.25 12.95 28.4833 14.85 28.6333 16.8833C28.6333 17.0203 28.6878 17.1518 28.7847 17.2487C28.8815 17.3455 29.013 17.4 29.15 17.4C29.287 17.4 29.4184 17.3455 29.5153 17.2487C29.6122 17.1518 29.6667 17.0203 29.6667 16.8833C29.8167 15.1166 30.0167 13.45 30.0833 11.8833C30.195 8.7032 29.9377 5.52086 29.3167 2.39998C29.2409 2.28106 29.1246 2.19361 28.9893 2.15383C28.854 2.11404 28.7089 2.12461 28.5808 2.18357C28.4527 2.24254 28.3503 2.34591 28.2925 2.47455C28.2348 2.6032 28.2256 2.74841 28.2667 2.88331C28.3333 3.19998 28.0167 7.74998 28.1667 11.1833Z" fill="#6E9D3E"/>
<path fill-rule="evenodd" clip-rule="evenodd" d="M25.15 5.78332C21.6004 5.17455 17.9634 5.30505 14.4667 6.16665C14.3921 6.16078 14.3171 6.17118 14.2469 6.19713C14.1767 6.22309 14.113 6.26398 14.0602 6.31697C14.0074 6.36997 13.9667 6.43381 13.9409 6.50407C13.9152 6.57434 13.9051 6.64936 13.9112 6.72393C13.9173 6.79851 13.9395 6.87087 13.9763 6.93601C14.0132 7.00115 14.0637 7.05751 14.1245 7.10119C14.1852 7.14488 14.2547 7.17485 14.3282 7.18903C14.4017 7.20321 14.4773 7.20126 14.55 7.18332C20.6333 7.43332 16.9833 7.66665 25.15 6.94999C25.3047 6.94999 25.4531 6.88853 25.5625 6.77913C25.6719 6.66973 25.7333 6.52136 25.7333 6.36665C25.7333 6.21194 25.6719 6.06357 25.5625 5.95417C25.4531 5.84478 25.3047 5.78332 25.15 5.78332Z" fill="#6E9D3E"/>
<path fill-rule="evenodd" clip-rule="evenodd" d="M25.15 11.2C21.5943 10.6256 17.9587 10.7844 14.4667 11.6667C14.3988 11.6721 14.3327 11.6909 14.2721 11.7219C14.2115 11.753 14.1576 11.7956 14.1135 11.8475C14.0694 11.8993 14.036 11.9593 14.0151 12.0241C13.9941 12.0889 13.9862 12.1572 13.9917 12.225C13.9971 12.2929 14.0159 12.359 14.0469 12.4196C14.078 12.4801 14.1206 12.534 14.1725 12.5781C14.2243 12.6222 14.2843 12.6557 14.3491 12.6766C14.4139 12.6975 14.4821 12.7055 14.55 12.7C20.6167 12.9333 16.9667 13.1667 25.15 12.45C25.3158 12.45 25.4747 12.3842 25.5919 12.2669C25.7092 12.1497 25.775 11.9908 25.775 11.825C25.775 11.6592 25.7092 11.5003 25.5919 11.3831C25.4747 11.2659 25.3158 11.2 25.15 11.2Z" fill="#6E9D3E"/>
<path fill-rule="evenodd" clip-rule="evenodd" d="M14.4667 16.9167C14.3921 16.9108 14.3171 16.9212 14.2469 16.9471C14.1767 16.9731 14.113 17.014 14.0602 17.067C14.0074 17.12 13.9667 17.1838 13.9409 17.2541C13.9152 17.3243 13.9051 17.3994 13.9112 17.4739C13.9173 17.5485 13.9395 17.6209 13.9763 17.686C14.0132 17.7512 14.0637 17.8075 14.1245 17.8512C14.1852 17.8949 14.2547 17.9249 14.3282 17.939C14.4017 17.9532 14.4773 17.9513 14.55 17.9333C20.5667 18.1833 17.0167 18.4167 25.15 17.7C25.3047 17.7 25.4531 17.6385 25.5625 17.5291C25.6719 17.4197 25.7333 17.2714 25.7333 17.1167C25.7333 16.962 25.6719 16.8136 25.5625 16.7042C25.4531 16.5948 25.3047 16.5333 25.15 16.5333C21.6007 15.9212 17.963 16.0517 14.4667 16.9167Z" fill="#6E9D3E"/>
<path fill-rule="evenodd" clip-rule="evenodd" d="M31.5 3.50001C33.0215 3.51454 34.5387 3.66514 36.0333 3.95C35.8667 17.15 36.0333 11.9167 36.4333 23.0833C36.4333 23.238 36.4948 23.3864 36.6042 23.4958C36.7136 23.6052 36.862 23.6667 37.0167 23.6667C37.1714 23.6667 37.3198 23.6052 37.4291 23.4958C37.5385 23.3864 37.6 23.238 37.6 23.0833C37.6 18.5667 38.0833 13.2167 37.8333 7.43334C37.7333 5 37.55 3.45001 37.5167 3.33334C37.4833 3.21667 36.9667 2.53334 35.85 2.46667C34.7333 2.40001 33.6 2.46667 31.4667 2.46667C31.3296 2.47109 31.2 2.52977 31.1062 2.62979C31.0124 2.7298 30.9622 2.86298 30.9667 3.00001C30.9711 3.13703 31.0298 3.26669 31.1298 3.36046C31.2298 3.45423 31.363 3.50443 31.5 3.50001Z" fill="#6E9D3E"/>
</svg>
