<svg width="40" height="40" viewBox="0 0 40 40" fill="none" xmlns="http://www.w3.org/2000/svg">
<g clip-path="url(#clip0_1034_4719)">
<path d="M6.55 6.51667C6.88514 6.50049 7.20224 6.36008 7.4395 6.12283C7.67675 5.88557 7.81715 5.56847 7.83333 5.23333C7.81193 4.87376 7.65275 4.53628 7.3889 4.29105C7.12505 4.04583 6.77684 3.91174 6.41667 3.91667C6.24279 3.9271 6.07278 3.97237 5.91674 4.04979C5.76071 4.12721 5.62182 4.2352 5.50833 4.36735C5.39484 4.49949 5.30906 4.6531 5.2561 4.81904C5.20313 4.98498 5.18405 5.15987 5.2 5.33333C5.21059 5.4998 5.25395 5.66253 5.3276 5.8122C5.40125 5.96186 5.50374 6.0955 5.62917 6.20545C5.75461 6.3154 5.90053 6.39949 6.05855 6.4529C6.21657 6.50631 6.38358 6.52798 6.55 6.51667Z" fill="#6E9D3E"/>
<path d="M13 5.23335C12.9798 4.88791 12.8323 4.5622 12.5861 4.31906C12.3399 4.07591 12.0123 3.93257 11.6667 3.91669C11.4928 3.92712 11.3228 3.97239 11.1667 4.04981C11.0107 4.12723 10.8718 4.23522 10.7583 4.36737C10.6448 4.49951 10.5591 4.65312 10.5061 4.81906C10.4531 4.985 10.4341 5.1599 10.45 5.33335C10.4704 5.64619 10.6061 5.94035 10.8308 6.15893C11.0556 6.3775 11.3534 6.50498 11.6667 6.51669C12.0094 6.50896 12.3366 6.37274 12.5836 6.13503C12.8306 5.89733 12.9792 5.5755 13 5.23335Z" fill="#6E9D3E"/>
<path d="M17.95 5.23336C17.937 4.87379 17.7826 4.53387 17.5205 4.28737C17.2584 4.04087 16.9097 3.90768 16.55 3.91669C16.3761 3.92712 16.2061 3.9724 16.0501 4.04982C15.894 4.12724 15.7552 4.23523 15.6417 4.36737C15.5282 4.49952 15.4424 4.65312 15.3894 4.81906C15.3365 4.985 15.3174 5.1599 15.3333 5.33336C15.3548 5.6665 15.5069 5.9777 15.7566 6.19929C16.0063 6.42088 16.3333 6.53495 16.6667 6.51669C17.0018 6.50051 17.3189 6.36011 17.5562 6.12285C17.7934 5.8856 17.9338 5.56849 17.95 5.23336Z" fill="#6E9D3E"/>
<path d="M37.3667 8.33335C36.2667 8.33335 35.15 8.33335 34.0333 8.23335C31.4167 8.06668 28.8167 7.76668 26.2167 7.60001C23.9167 7.46668 21.6 7.36668 19.2667 7.38335C16.9333 7.40001 14.65 7.50001 12.35 7.61668C10.05 7.73335 7.58334 7.88335 5.21667 8.33335C4.15007 8.51359 3.09319 8.74722 2.05 9.03335C2.08697 7.2589 2.23728 5.48863 2.5 3.73335C2.52505 3.59449 2.49577 3.45131 2.41822 3.33343C2.34066 3.21555 2.22077 3.13198 2.08334 3.10001C1.94447 3.07497 1.80129 3.10425 1.68341 3.1818C1.56553 3.25935 1.48197 3.37925 1.45 3.51668C0.685901 7.60231 0.262224 11.7443 0.183335 15.9C0.183335 17.5667 0.0500021 19.4333 0.0166688 21.2167C-0.0166646 23 0.0166688 24.8 0.0166688 26.5167C0.0663243 30.2431 0.305522 33.9646 0.733335 37.6667C0.749352 38.1855 0.886323 38.6935 1.13334 39.15C1.17679 39.1944 1.22865 39.2296 1.28589 39.2536C1.34312 39.2777 1.40458 39.2901 1.46667 39.2901C1.52875 39.2901 1.59021 39.2777 1.64745 39.2536C1.70469 39.2296 1.75655 39.1944 1.8 39.15C1.86893 39.062 1.90639 38.9535 1.90639 38.8417C1.90639 38.7299 1.86893 38.6213 1.8 38.5333C1.63334 38.5333 1.7 38.0333 1.66667 37.55C1.51667 35.5667 1.66667 31.35 1.66667 26.5C1.66667 24.1333 1.66667 21.6 1.76667 19.1V14.1C1.76667 12.4333 1.76667 11.25 1.86667 9.95001C2.96592 9.69701 4.07889 9.50781 5.2 9.38335C7.55 9.13335 9.93334 9.10001 12.2333 9.08335C14.5333 9.06668 16.8167 9.08335 19.1167 9.08335H25.9833C28.5833 9.08335 31.2 9.30001 33.8167 9.33335H37.15C37.2193 9.33338 37.2879 9.31949 37.3516 9.29249C37.4154 9.26549 37.4732 9.22593 37.5214 9.17618C37.5696 9.12642 37.6073 9.06748 37.6322 9.00286C37.6572 8.93824 37.6689 8.86925 37.6667 8.80001C37.6643 8.70219 37.635 8.60691 37.5821 8.5246C37.5292 8.44229 37.4547 8.37613 37.3667 8.33335Z" fill="#6E9D3E"/>
<path d="M40 29.4667C40 21 39.6667 10.3333 39.7333 8.71668C39.8063 7.60285 39.7503 6.48434 39.5667 5.38334C39.4133 4.56963 39.1019 3.79388 38.65 3.10001C37.9514 2.2131 36.947 1.61878 35.8333 1.43334C33.6872 1.12118 31.5177 0.998481 29.35 1.06668C26.6667 0.933343 23.9333 0.80001 21.2333 0.75001C18.5333 0.70001 15.8333 0.683344 13.1167 0.766677C10.9594 0.76791 8.80468 0.912674 6.66667 1.20001C5.22942 1.38828 3.81958 1.74634 2.46667 2.26668C2.3479 2.31163 2.25159 2.40153 2.19857 2.51692C2.14555 2.63232 2.14008 2.76394 2.18334 2.88334C2.20537 2.94206 2.23902 2.99572 2.28226 3.04114C2.3255 3.08656 2.37746 3.1228 2.43502 3.14769C2.49258 3.17258 2.55456 3.18561 2.61727 3.18601C2.67998 3.18641 2.74213 3.17417 2.8 3.15001C4.09786 2.68968 5.44648 2.3875 6.81667 2.25001C8.89883 2.0447 10.992 1.97234 13.0833 2.03334C15.25 2.03334 17.4 2.03334 19.5333 2.20001C22.7667 2.33334 25.95 2.55001 29.2 2.81668C30.4833 2.91668 32.6833 2.66668 34.5667 2.91668C35.0458 2.92098 35.5187 3.02552 35.955 3.22358C36.3913 3.42164 36.7814 3.70883 37.1 4.06668C37.4264 4.57293 37.6475 5.13976 37.75 5.73334C37.9216 6.71229 37.9775 7.70801 37.9167 8.70001C37.9167 10.3667 38.4 21.0167 38.6667 29.5167C38.7833 33.2 38.85 36.4833 38.8 38.4C38.8036 38.5391 38.8582 38.6721 38.9535 38.7735C39.0488 38.875 39.178 38.9378 39.3167 38.95C39.3867 38.9522 39.4565 38.9406 39.5221 38.9159C39.5876 38.8911 39.6477 38.8536 39.6988 38.8057C39.7498 38.7577 39.7909 38.7001 39.8198 38.6362C39.8486 38.5723 39.8645 38.5034 39.8667 38.4333C40 36.4667 40 33.1833 40 29.4667Z" fill="#6E9D3E"/>
<path d="M25.6167 16.5667H28.5833C29 16.5667 29.4333 16.5667 29.85 16.4667L31.1 16.3167C32.1 16.1833 33.0667 16.0167 34.0333 15.9333C34.1748 15.9333 34.3104 15.8771 34.4105 15.7771C34.5105 15.6771 34.5667 15.5414 34.5667 15.4C34.5667 15.2585 34.5105 15.1229 34.4105 15.0229C34.3104 14.9229 34.1748 14.8667 34.0333 14.8667C33.0157 14.7373 31.9922 14.6595 30.9667 14.6333H29.6667C29.2293 14.6617 28.7948 14.723 28.3667 14.8167C27.3657 15.0349 26.3803 15.3189 25.4167 15.6667C25.3564 15.6786 25.2991 15.7023 25.2481 15.7365C25.197 15.7706 25.1532 15.8145 25.1192 15.8656C25.0851 15.9166 25.0615 15.974 25.0496 16.0342C25.0377 16.0945 25.0379 16.1565 25.05 16.2167C25.0637 16.2771 25.0893 16.3343 25.1254 16.3847C25.1614 16.4352 25.2071 16.478 25.2599 16.5106C25.3127 16.5431 25.3714 16.5649 25.4326 16.5745C25.4939 16.5842 25.5565 16.5815 25.6167 16.5667Z" fill="#6E9D3E"/>
<path d="M34.35 29.1667C33.3379 29.038 32.3199 28.9601 31.3 28.9333H29.9833C29.5459 28.9605 29.1112 29.0218 28.6833 29.1167C27.6824 29.3349 26.6969 29.6189 25.7333 29.9667C25.6731 29.9786 25.6158 30.0023 25.5648 30.0365C25.5137 30.0706 25.4699 30.1145 25.4358 30.1656C25.4018 30.2167 25.3781 30.274 25.3663 30.3342C25.3544 30.3945 25.3545 30.4565 25.3667 30.5167C25.3739 30.5792 25.3947 30.6393 25.4275 30.693C25.4603 30.7466 25.5044 30.7925 25.5568 30.8274C25.6091 30.8623 25.6684 30.8854 25.7305 30.895C25.7927 30.9047 25.8562 30.9007 25.9167 30.8833H28.8833C29.3167 30.8833 29.7333 30.8833 30.15 30.7833C30.5667 30.6833 30.9833 30.7 31.4 30.6333C32.4 30.5 33.3667 30.3333 34.3333 30.25C34.4764 30.2501 34.6138 30.1944 34.7165 30.0949C34.8191 29.9953 34.879 29.8596 34.8833 29.7167C34.8856 29.6453 34.8734 29.5741 34.8476 29.5075C34.8218 29.4408 34.7829 29.38 34.7331 29.3287C34.6834 29.2774 34.6238 29.2367 34.558 29.2088C34.4922 29.181 34.4215 29.1666 34.35 29.1667Z" fill="#6E9D3E"/>
<path d="M28.5167 21.0167C28.9333 21.0167 29.3333 21.0167 29.75 20.9167C30.1667 20.8167 30.5833 20.8167 30.9833 20.75C31.9667 20.6 32.9333 20.3834 33.9 20.2C34.04 20.1833 34.1682 20.1134 34.2581 20.0048C34.3481 19.8963 34.3929 19.7573 34.3833 19.6167C34.3627 19.4753 34.2894 19.347 34.1781 19.2574C34.0669 19.1677 33.9259 19.1234 33.7833 19.1334H30.8333H29.5833C29.1578 19.1687 28.7348 19.23 28.3167 19.3167C27.3396 19.5359 26.3767 19.8142 25.4333 20.15C25.3107 20.1743 25.2023 20.2452 25.1308 20.3478C25.0593 20.4503 25.0304 20.5766 25.05 20.7C25.0598 20.7613 25.0821 20.82 25.1156 20.8722C25.1492 20.9245 25.1931 20.9692 25.2448 21.0037C25.2964 21.0381 25.3547 21.0615 25.4158 21.0723C25.4769 21.0832 25.5397 21.0813 25.6 21.0667C26.5667 21.0167 27.55 21.05 28.5167 21.0167Z" fill="#6E9D3E"/>
<path d="M34.1 33.5167H31.15H29.8667C29.4468 33.5533 29.0294 33.6145 28.6167 33.7C27.6341 33.9191 26.6657 34.1974 25.7167 34.5333C25.6565 34.5465 25.5995 34.5713 25.5489 34.6065C25.4983 34.6417 25.4551 34.6865 25.4219 34.7383C25.3886 34.7901 25.3659 34.848 25.355 34.9087C25.3441 34.9693 25.3452 35.0315 25.3583 35.0917C25.3715 35.1519 25.3963 35.2089 25.4315 35.2595C25.4667 35.31 25.5114 35.3532 25.5633 35.3865C25.6151 35.4198 25.673 35.4425 25.7337 35.4534C25.7943 35.4643 25.8565 35.4631 25.9167 35.45H28.8167C29.2333 35.45 29.6333 35.45 30.05 35.35C30.4667 35.25 30.8833 35.25 31.3 35.1833C32.2667 35.0333 33.2167 34.8167 34.1833 34.6333C34.2535 34.6271 34.3217 34.607 34.384 34.5742C34.4464 34.5414 34.5016 34.4966 34.5466 34.4424C34.5915 34.3882 34.6253 34.3256 34.6459 34.2582C34.6665 34.1909 34.6735 34.1201 34.6667 34.05C34.6694 33.9764 34.6563 33.903 34.6284 33.8348C34.6004 33.7666 34.5581 33.7052 34.5045 33.6546C34.4508 33.6041 34.3869 33.5657 34.3172 33.5419C34.2474 33.5181 34.1734 33.5095 34.1 33.5167Z" fill="#6E9D3E"/>
<path d="M6.15 23.75C6.21928 23.75 6.28785 23.7361 6.35165 23.7091C6.41544 23.6821 6.47316 23.6426 6.52136 23.5928C6.56956 23.5431 6.60727 23.4841 6.63223 23.4195C6.65719 23.3549 6.6689 23.2859 6.66667 23.2167C6.76667 22.5167 6.88333 21.8667 6.96667 21.1667C6.98383 20.878 6.98383 20.5886 6.96667 20.3V19.45C6.96667 18.75 6.8 18.1 6.75 17.4167C6.76455 17.2934 6.73113 17.1693 6.65667 17.07C6.5822 16.9707 6.4724 16.9039 6.35 16.8833C6.28738 16.874 6.22351 16.8775 6.16229 16.8936C6.10106 16.9098 6.04376 16.9382 5.99387 16.9772C5.94398 17.0161 5.90254 17.0649 5.87207 17.1204C5.84161 17.1759 5.82276 17.237 5.81667 17.3C5.56959 17.9716 5.38002 18.663 5.25 19.3667C5.22519 19.6662 5.22519 19.9672 5.25 20.2667C5.23342 20.5664 5.23342 20.8669 5.25 21.1667C5.33333 21.8667 5.45 22.5333 5.58333 23.2333C5.583 23.3056 5.59782 23.3771 5.62686 23.4433C5.65589 23.5095 5.69848 23.5689 5.75189 23.6176C5.80529 23.6663 5.86832 23.7032 5.9369 23.726C6.00547 23.7488 6.07807 23.757 6.15 23.75Z" fill="#6E9D3E"/>
<path d="M6.83333 31.8C6.91667 31.1167 7.03333 30.4667 7.13333 29.7667V28.9C7.14999 28.6169 7.14999 28.3331 7.13333 28.05C7.13333 27.35 7 26.6834 6.98333 26C7.00236 25.8859 6.98119 25.7686 6.92345 25.6683C6.8657 25.568 6.77495 25.4909 6.66667 25.45C6.54341 25.4355 6.41929 25.4689 6.32 25.5434C6.22071 25.6178 6.15387 25.7276 6.13333 25.85C5.87213 26.5226 5.66045 27.2133 5.5 27.9167C5.47457 28.2217 5.47457 28.5283 5.5 28.8334C5.48348 29.1387 5.48348 29.4447 5.5 29.75C5.5 30.4667 5.7 31.15 5.83333 31.85C5.84194 31.993 5.90595 32.1269 6.01177 32.2234C6.11759 32.3199 6.25687 32.3713 6.4 32.3667C6.52945 32.3424 6.64534 32.2711 6.72535 32.1665C6.80536 32.0618 6.84382 31.9313 6.83333 31.8Z" fill="#6E9D3E"/>
<path d="M20.9333 26.9167C20.9333 26.7752 20.8771 26.6396 20.7771 26.5395C20.6771 26.4395 20.5414 26.3833 20.4 26.3833C20.2584 26.3916 20.1251 26.4527 20.0263 26.5545C19.9276 26.6564 19.8706 26.7915 19.8667 26.9333C19.7833 27.5333 19.6667 28.1 19.6167 28.7V29.45V30.2C19.7167 30.7833 19.9167 31.3167 20.0333 31.8667C20.0287 31.9285 20.037 31.9906 20.0575 32.0491C20.0781 32.1076 20.1105 32.1613 20.1527 32.2066C20.195 32.252 20.2462 32.2882 20.3031 32.3129C20.36 32.3375 20.4213 32.3502 20.4833 32.35C20.606 32.3503 20.7241 32.304 20.8138 32.2204C20.9036 32.1369 20.9582 32.0223 20.9667 31.9C21.1208 31.3126 21.2432 30.7173 21.3333 30.1167C21.3582 29.8617 21.3582 29.605 21.3333 29.35C21.3303 29.0979 21.3024 28.8466 21.25 28.6C21.2 28.05 21.05 27.5 20.9333 26.9167Z" fill="#6E9D3E"/>
<path d="M19.5833 17.6834C19.5833 18.3334 19.4167 18.9834 19.3667 19.65V20.4834C19.3502 20.7665 19.3502 21.0503 19.3667 21.3334C19.4934 22.0079 19.6547 22.6754 19.85 23.3334C19.8586 23.4586 19.9156 23.5756 20.0089 23.6596C20.1022 23.7436 20.2245 23.788 20.35 23.7834C20.4128 23.7813 20.4745 23.7665 20.5314 23.74C20.5884 23.7135 20.6394 23.6758 20.6814 23.6291C20.7234 23.5824 20.7556 23.5278 20.776 23.4683C20.7963 23.4089 20.8045 23.346 20.8 23.2834C20.8 22.6167 21.05 21.9834 21.1167 21.3167V20.4667C21.1413 20.1839 21.1413 19.8995 21.1167 19.6167C21.0251 18.9423 20.8915 18.2744 20.7167 17.6167C20.7125 17.5451 20.694 17.4751 20.6621 17.4108C20.6303 17.3465 20.5858 17.2893 20.5313 17.2427C20.4769 17.196 20.4135 17.1608 20.3452 17.1391C20.2768 17.1175 20.2047 17.1098 20.1333 17.1167C20.0597 17.1167 19.9868 17.1314 19.9189 17.1601C19.8511 17.1888 19.7897 17.2308 19.7384 17.2836C19.6871 17.3365 19.647 17.3991 19.6203 17.4678C19.5937 17.5364 19.5811 17.6097 19.5833 17.6834Z" fill="#6E9D3E"/>
<path d="M18.7167 14.7167L19.0333 15.25C19.0503 15.3091 19.0791 15.3641 19.1181 15.4116C19.1571 15.4591 19.2055 15.4981 19.2601 15.5262C19.3148 15.5543 19.3746 15.5709 19.4359 15.575C19.4973 15.5791 19.5588 15.5706 19.6167 15.55C19.6784 15.54 19.7375 15.5177 19.7904 15.4844C19.8434 15.4511 19.8891 15.4075 19.9248 15.3562C19.9606 15.3049 19.9857 15.2469 19.9986 15.1857C20.0115 15.1246 20.012 15.0614 20 15C19.972 14.6748 19.9219 14.3518 19.85 14.0334C19.7908 13.8452 19.7067 13.6659 19.6 13.5C19.2618 13.0438 18.7708 12.7243 18.2167 12.6C17.8972 12.5408 17.5695 12.5408 17.25 12.6C16.5833 12.6 15.9167 12.85 15.3833 12.8667C15.3132 12.8574 15.2419 12.8621 15.1737 12.8806C15.1054 12.8991 15.0415 12.931 14.9856 12.9744C14.9298 13.0178 14.8831 13.0719 14.8484 13.1335C14.8137 13.1952 14.7916 13.2631 14.7833 13.3334C14.7689 13.4742 14.8094 13.6152 14.8963 13.7269C14.9833 13.8387 15.1099 13.9126 15.25 13.9334L18.5833 14.5834C18.6317 14.6237 18.6763 14.6683 18.7167 14.7167Z" fill="#6E9D3E"/>
<path d="M20.75 33.7833C20.6247 33.7833 20.5042 33.8319 20.414 33.919C20.3238 34.006 20.271 34.1247 20.2667 34.25C20.2074 34.7603 20.1183 35.2667 20 35.7667C19.9213 36.1539 19.7367 36.5116 19.4667 36.8C19.3236 36.9664 19.1399 37.0927 18.9333 37.1667C18.635 37.2922 18.3288 37.3979 18.0167 37.4833C17.2843 37.6379 16.5444 37.7547 15.8 37.8333C15.7232 37.8196 15.6444 37.8229 15.569 37.8429C15.4936 37.863 15.4236 37.8993 15.3638 37.9494C15.304 37.9994 15.2559 38.062 15.2229 38.1326C15.1899 38.2033 15.1728 38.2803 15.1728 38.3583C15.1728 38.4363 15.1899 38.5134 15.2229 38.584C15.2559 38.6547 15.304 38.7173 15.3638 38.7673C15.4236 38.8174 15.4936 38.8537 15.569 38.8738C15.6444 38.8938 15.7232 38.8971 15.8 38.8833C16.9628 39.0936 18.1539 39.0936 19.3167 38.8833C19.9812 38.7369 20.572 38.3588 20.9833 37.8167C21.2553 37.3365 21.4149 36.8008 21.45 36.25C21.4546 35.5742 21.3988 34.8993 21.2833 34.2333C21.2817 34.1674 21.266 34.1026 21.2375 34.0432C21.209 33.9838 21.1682 33.931 21.1178 33.8885C21.0674 33.846 21.0085 33.8147 20.9452 33.7965C20.8818 33.7784 20.8153 33.7739 20.75 33.7833Z" fill="#6E9D3E"/>
<path d="M12.3667 12.9167C11.6393 12.6982 10.899 12.5257 10.15 12.4C9.58995 12.3466 9.02484 12.3974 8.48334 12.55C7.96764 12.6767 7.49568 12.9402 7.11727 13.3127C6.73886 13.6852 6.46802 14.153 6.33334 14.6667C6.30714 14.7344 6.29503 14.8067 6.29775 14.8792C6.30048 14.9518 6.31798 15.023 6.34919 15.0885C6.38039 15.154 6.42465 15.2125 6.47924 15.2603C6.53383 15.3082 6.59761 15.3444 6.66667 15.3667C6.80145 15.4027 6.94498 15.3845 7.06649 15.316C7.188 15.2474 7.27781 15.134 7.31667 15C7.44031 14.8092 7.60168 14.6457 7.79085 14.5196C7.98002 14.3935 8.193 14.3074 8.41667 14.2667C8.63568 14.2147 8.8587 14.1812 9.08334 14.1667C9.43334 14.1667 9.81667 14.1667 10.2 14.0667L12.3333 13.85C12.4005 13.8528 12.4674 13.8411 12.5295 13.8156C12.5917 13.7902 12.6476 13.7516 12.6935 13.7026C12.7394 13.6535 12.7742 13.5951 12.7954 13.5314C12.8167 13.4677 12.8239 13.4001 12.8167 13.3334C12.8082 13.2199 12.7571 13.1138 12.6736 13.0365C12.5901 12.9592 12.4805 12.9164 12.3667 12.9167Z" fill="#6E9D3E"/>
<path d="M12.3 37.7833C11.5 37.7833 10.3167 37.6833 9.21667 37.5C8.87972 37.4678 8.54883 37.3893 8.23333 37.2667C8.05486 37.2172 7.88588 37.1384 7.73333 37.0333C7.56636 36.8246 7.45204 36.5788 7.4 36.3167C7.30254 35.9104 7.23019 35.4985 7.18333 35.0833C7.17201 34.9501 7.11394 34.8252 7.01939 34.7306C6.92484 34.6361 6.7999 34.578 6.66667 34.5667C6.59662 34.5688 6.52768 34.5848 6.46379 34.6136C6.39991 34.6424 6.34233 34.6835 6.29434 34.7346C6.24636 34.7857 6.20892 34.8457 6.18415 34.9113C6.15938 34.9768 6.14778 35.0466 6.15 35.1167C6.08327 35.7761 6.08327 36.4406 6.15 37.1C6.19804 37.5166 6.36594 37.9103 6.63333 38.2333C7.28863 38.867 8.15563 39.2352 9.06667 39.2667C10.1949 39.2095 11.3131 39.025 12.4 38.7167C12.5238 38.7167 12.6425 38.6675 12.73 38.58C12.8175 38.4925 12.8667 38.3738 12.8667 38.25C12.8667 38.1262 12.8175 38.0075 12.73 37.92C12.6425 37.8325 12.5238 37.7833 12.4 37.7833H12.3Z" fill="#6E9D3E"/>
</g>
<defs>
<clipPath id="clip0_1034_4719">
<rect width="40" height="40" fill="white"/>
</clipPath>
</defs>
</svg>
