<svg width="40" height="40" viewBox="0 0 40 40" fill="none" xmlns="http://www.w3.org/2000/svg">
<g clip-path="url(#clip0_1034_4034)">
<path d="M5.3 11.8L11.5167 12H20.05C22.9 12 25.7333 11.8833 28.5833 11.8333L34.0833 11.7167H36.9167C37.0686 11.7212 37.2164 11.6663 37.3284 11.5636C37.4405 11.4609 37.5081 11.3184 37.5167 11.1667C37.5189 11.0922 37.5064 11.0181 37.48 10.9485C37.4535 10.8789 37.4136 10.8152 37.3626 10.761C37.3115 10.7068 37.2502 10.6633 37.1823 10.6328C37.1144 10.6023 37.0411 10.5855 36.9667 10.5833L34.0833 10.3833L28.5833 10.2C25.7333 10.2 22.8833 10.0333 20.05 10.0333C17.2167 10.0333 14.35 10.1333 11.5 10.2167L5.31667 10.4667C4.65394 10.4463 3.99066 10.4798 3.33334 10.5667C2.81667 10.5667 2.55 11.7 3.33334 11.7167L5.3 11.8Z" fill="#6E9D3E"/>
<path d="M39.75 9.90002C39.8241 8.58799 39.7851 7.27202 39.6333 5.96669C39.5278 5.28916 39.2461 4.65123 38.8167 4.11669C38.476 3.73411 38.0293 3.46145 37.5333 3.33335C36.9867 3.19562 36.429 3.10638 35.8667 3.06669C34.9833 2.98335 34.1 2.93335 33.2167 2.88335H29.2833C25.4 2.88335 21.5333 2.70002 17.6167 2.66669C15.0167 2.66669 12.4167 2.66669 9.83334 2.78335L4.83334 3.15002C4.28334 3.15002 3.65 3.15002 3.05 3.26669C2.60961 3.34816 2.17527 3.45953 1.75 3.60002C1.53726 3.65798 1.3477 3.78045 1.20742 3.95058C1.06714 4.12071 0.983033 4.33013 0.96667 4.55002C0.900004 5.60002 0.81667 6.66669 0.750004 7.86669C0.600004 10.5 0.51667 13.1334 0.36667 15.7834C0.26667 17.3667 0.0833369 18.9334 0.0166702 20.5167V22.6C0.0166702 23.5667 0.250004 30.9334 0.483337 33.5C0.521089 34.1617 0.638607 34.8165 0.833337 35.45C0.897 35.6481 1.01899 35.8224 1.18334 35.95C1.45465 36.1544 1.7676 36.2967 2.1 36.3667C2.65222 36.455 3.20845 36.5162 3.76667 36.55L5.86667 36.6667L9 36.8834L13.9167 37C15.9167 37 17.9667 37.2334 20 37.3167H22.7C25.35 37.3167 31.35 37.1167 35.0167 36.8167C36.0098 36.7594 36.9965 36.62 37.9667 36.4C38.2625 36.3152 38.5246 36.1405 38.7167 35.9C39.0079 35.4798 39.2067 35.0027 39.3 34.5C39.4138 33.5935 39.4639 32.6802 39.45 31.7667L40 21.3167L39.75 9.90002ZM37.5333 31.75V33.9167C37.5043 34.1806 37.4369 34.4389 37.3333 34.6834C37.1333 34.6834 36.7667 34.8 36.4 34.8334C34.9833 35.0167 32.7167 35.15 30.3667 35.2667C27.4333 35.4 24.3833 35.4834 22.7 35.55H21.0333C18.7 35.55 16.3167 35.2834 14.0167 35.3H9.15L6.08334 35.15L4 35H2.65L2.26667 34.9167C2.26667 34.8167 2.16667 34.7 2.13334 34.5667C1.97586 33.5561 1.87016 32.5381 1.81667 31.5167C1.66667 29.0334 1.4 23.3334 1.35 22.5167C1.3 21.7 1.35 20.75 1.35 19.8834C1.35 18.5334 1.53334 17.2 1.58334 15.8334C1.63334 14.4667 1.78334 8.90002 1.83334 7.91669C1.88334 6.93335 1.93334 5.70002 2.01667 4.58335C2.1 4.58335 2.88334 4.33335 3.23334 4.30002C3.58334 4.26669 4.43334 4.30002 4.9 4.30002L9.81667 4.00002H17.5333C21.4 4.00002 25.2833 4.28335 29.2 4.38335C30.4833 4.38335 31.7833 4.38335 33.0833 4.51669C33.9333 4.51669 34.75 4.63335 35.6333 4.73335C36.0368 4.76063 36.4378 4.81632 36.8333 4.90002C37.0899 4.93854 37.3284 5.05489 37.5167 5.23335C37.8302 5.69681 38.0037 6.24065 38.0167 6.80002C38.1167 7.90002 38.0167 9.11669 38.0167 9.96669L38.1333 20.5667V21.9667L37.5333 31.75Z" fill="#6E9D3E"/>
<path d="M5.9 6.16667C5.56071 6.04574 5.18879 6.0539 4.85512 6.18958C4.52146 6.32526 4.24939 6.57898 4.09078 6.90238C3.93217 7.22578 3.89812 7.59623 3.9951 7.94313C4.09209 8.29002 4.31334 8.58909 4.61667 8.78334C5.88334 9.48334 8.33334 7.55 5.9 6.16667Z" fill="#6E9D3E"/>
<path d="M11.1667 6.28338C9.65 5.56671 8.33333 7.66671 9.78333 8.56671C10.15 8.6809 10.5403 8.69634 10.9149 8.61147C11.2895 8.52661 11.635 8.34445 11.9167 8.08338C12.2667 7.68338 12.2333 6.83338 11.1667 6.28338Z" fill="#6E9D3E"/>
<path d="M14.2333 8.33333C14.4356 8.49861 14.6739 8.61402 14.929 8.67027C15.1841 8.72652 15.4488 8.72202 15.7018 8.65714C15.9549 8.59226 16.1891 8.46882 16.3856 8.29677C16.5822 8.12472 16.7355 7.90888 16.8333 7.66666C16.8635 7.44067 16.8412 7.21076 16.7681 6.9948C16.695 6.77883 16.5732 6.58262 16.4119 6.4214C16.2507 6.26018 16.0545 6.13829 15.8385 6.06521C15.6226 5.99213 15.3927 5.96981 15.1667 6C14.887 5.97839 14.6078 6.04664 14.3696 6.19481C14.1315 6.34298 13.9469 6.56333 13.8427 6.82375C13.7386 7.08417 13.7203 7.37105 13.7905 7.64258C13.8608 7.91412 14.0159 8.15612 14.2333 8.33333Z" fill="#6E9D3E"/>
<path fill-rule="evenodd" clip-rule="evenodd" d="M13.6167 19.3333C13.0333 16 12.85 16 10.1 16.1667C7.63334 16.3 7.21667 15.9333 6.76667 18.0667C6.66667 18.6 6.63334 19.4833 6.53334 20.25C6.45174 20.7224 6.52788 21.2085 6.75001 21.6333C7.50001 22.9333 9.45001 22.9 10.7833 22.9333C13.2333 23 13.8167 21.6667 13.6167 19.3333ZM11.8167 20.5167C11.8167 21.0167 11.8167 20.9167 10.8167 21.05C7.13334 21.2 7.98334 21.25 8.15001 17.3833C9.31355 17.5632 10.4893 17.6524 11.6667 17.65C11.8571 18.593 11.9077 19.5589 11.8167 20.5167Z" fill="#6E9D3E"/>
<path fill-rule="evenodd" clip-rule="evenodd" d="M13.0667 26.3667C12.55 25.2667 11.1833 25.5334 10.1 25.6C7.61667 25.7167 7.21667 25.3667 6.76667 27.4834C6.66667 28.0167 6.63334 28.9167 6.53334 29.6834C6.45174 30.1558 6.52788 30.6419 6.75001 31.0667C7.50001 32.35 9.45001 32.3334 10.7833 32.3667C14.2333 32.45 13.9833 29.6167 13.0667 26.3667ZM11.8167 30C11.8167 30.4834 11.8167 30.3834 10.8167 30.5334C7.15001 30.6667 7.96667 30.7334 8.15001 26.8667C9.31646 27.0133 10.491 27.0857 11.6667 27.0834C11.8626 28.0426 11.9131 29.0258 11.8167 30Z" fill="#6E9D3E"/>
<path fill-rule="evenodd" clip-rule="evenodd" d="M23.95 19.3333C23.3667 16 23.1833 16 20.4333 16.1667C17.9667 16.3 17.55 15.9333 17.1 18.0667C17 18.6 16.95 19.4833 16.85 20.25C16.7735 20.7242 16.8555 21.2105 17.0833 21.6333C17.8167 22.9333 19.7667 22.9 21.1167 22.9333C23.5667 23 24.1333 21.6667 23.95 19.3333ZM22.1333 20.5167C22.1333 21.0167 22.1333 20.9167 21.15 21.05C17.4667 21.2 18.3 21.25 18.4833 17.3833C19.6469 17.5632 20.8226 17.6524 22 17.65C22.1778 18.5947 22.2227 19.5596 22.1333 20.5167Z" fill="#6E9D3E"/>
<path fill-rule="evenodd" clip-rule="evenodd" d="M23.3333 26.3667C22.8167 25.2667 21.45 25.5334 20.3833 25.6C17.9 25.7167 17.5 25.3667 17.05 27.4834C16.95 28.0167 16.9 28.9167 16.8 29.6834C16.7235 30.1576 16.8055 30.6438 17.0333 31.0667C17.7667 32.35 19.7167 32.3334 21.0667 32.3667C24.5667 32.45 24.3 29.6167 23.3333 26.3667ZM22.1333 30C22.1333 30.4834 22.1333 30.3834 21.15 30.5334C17.4667 30.6667 18.3 30.7334 18.4833 26.8667C19.6487 27.0301 20.8233 27.1191 22 27.1334C22.1782 28.078 22.2231 29.0429 22.1333 30Z" fill="#6E9D3E"/>
<path fill-rule="evenodd" clip-rule="evenodd" d="M34.2833 19.3333C33.6833 16 33.5 16 30.75 16.1667C28.2833 16.3 27.8667 15.9333 27.4167 18.0667C27.3 18.6 27.2667 19.4833 27.1667 20.25C27.0851 20.7224 27.1612 21.2085 27.3833 21.6333C28.1333 22.9333 30.0833 22.9 31.4167 22.9333C33.8833 23 34.4667 21.6667 34.2833 19.3333ZM32.4667 20.5167C32.3833 21.0167 32.4667 20.9167 31.4667 21.05C27.7833 21.2 28.6333 21.25 28.8 17.3833C29.9635 17.5632 31.1393 17.6524 32.3167 17.65C32.5071 18.593 32.5576 19.5589 32.4667 20.5167Z" fill="#6E9D3E"/>
<path fill-rule="evenodd" clip-rule="evenodd" d="M33.7167 26.3667C33.2 25.2667 31.8333 25.5334 30.75 25.6C28.2667 25.7167 27.8667 25.3667 27.4167 27.4834C27.3 28.0167 27.2667 28.9167 27.1667 29.6834C27.0851 30.1558 27.1612 30.6419 27.3833 31.0667C28.1333 32.35 30.0833 32.3334 31.4167 32.3667C34.8833 32.45 34.6333 29.6167 33.7167 26.3667ZM32.4667 30C32.3833 30.4834 32.4667 30.3834 31.4667 30.5334C27.8 30.6667 28.6333 30.7334 28.8 26.8667C29.9654 27.0301 31.14 27.1191 32.3167 27.1334C32.5076 28.0763 32.5581 29.0423 32.4667 30Z" fill="#6E9D3E"/>
</g>
<defs>
<clipPath id="clip0_1034_4034">
<rect width="40" height="40" fill="white"/>
</clipPath>
</defs>
</svg>
