<svg width="40" height="40" viewBox="0 0 40 40" fill="none" xmlns="http://www.w3.org/2000/svg">
<g clip-path="url(#clip0_1049_7596)">
<path fill-rule="evenodd" clip-rule="evenodd" d="M14.8333 23.4833C14.7164 23.2379 14.5321 23.0309 14.3019 22.8863C14.0717 22.7417 13.8052 22.6655 13.5333 22.6667C13.1902 22.6678 12.8591 22.7935 12.6016 23.0203C12.3441 23.2472 12.1777 23.5597 12.1333 23.9C12.1407 24.105 12.191 24.3062 12.281 24.4905C12.371 24.6748 12.4986 24.8383 12.6557 24.9702C12.8128 25.1021 12.9958 25.1997 13.1929 25.2565C13.39 25.3133 13.5968 25.3281 13.8 25.3C13.9972 25.2665 14.1844 25.1896 14.3482 25.0748C14.512 24.9601 14.6483 24.8104 14.7472 24.6366C14.8461 24.4627 14.9051 24.2691 14.92 24.0696C14.9349 23.8702 14.9053 23.6699 14.8333 23.4833Z" fill="#6E9D3E"/>
<path fill-rule="evenodd" clip-rule="evenodd" d="M14.05 30C14.2461 29.9578 14.4303 29.8724 14.5893 29.75C14.7482 29.6276 14.8779 29.4714 14.9689 29.2926C15.0599 29.1138 15.1099 28.917 15.1153 28.7165C15.1207 28.5159 15.0813 28.3167 15 28.1333C14.8742 27.8506 14.6592 27.6168 14.388 27.4678C14.1168 27.3187 13.8042 27.2626 13.4981 27.3079C13.192 27.3533 12.9091 27.4976 12.6927 27.7189C12.4764 27.9402 12.3384 28.2262 12.3 28.5333C12.2959 28.7523 12.3408 28.9694 12.4315 29.1687C12.5223 29.368 12.6565 29.5444 12.8243 29.6851C12.9922 29.8258 13.1894 29.9271 13.4015 29.9815C13.6135 30.036 13.8352 30.0423 14.05 30Z" fill="#6E9D3E"/>
<path fill-rule="evenodd" clip-rule="evenodd" d="M14.7333 34.5667C14.9261 34.5263 15.1079 34.4448 15.2662 34.3277C15.4245 34.2105 15.5556 34.0606 15.6506 33.888C15.7456 33.7155 15.8021 33.5245 15.8164 33.3281C15.8307 33.1316 15.8023 32.9345 15.7333 32.75C15.6156 32.504 15.4315 32.2956 15.2019 32.1484C14.9722 32.0012 14.7061 31.9209 14.4333 31.9167C14.0887 31.9219 13.7574 32.0511 13.5003 32.2807C13.2432 32.5102 13.0774 32.8248 13.0333 33.1667C13.0401 33.3749 13.0912 33.5794 13.1832 33.7663C13.2752 33.9533 13.406 34.1185 13.5668 34.251C13.7277 34.3834 13.9149 34.4801 14.1161 34.5345C14.3172 34.589 14.5276 34.5999 14.7333 34.5667Z" fill="#6E9D3E"/>
<path fill-rule="evenodd" clip-rule="evenodd" d="M17.35 25.1833C17.5469 25.1446 17.7327 25.0625 17.8939 24.943C18.0551 24.8235 18.1876 24.6695 18.2818 24.4923C18.376 24.3151 18.4295 24.1191 18.4384 23.9186C18.4473 23.7181 18.4114 23.5182 18.3333 23.3333C18.22 23.0874 18.0393 22.8786 17.8122 22.7311C17.585 22.5836 17.3208 22.5035 17.05 22.5C16.7043 22.5017 16.3712 22.6297 16.1133 22.8599C15.8554 23.0901 15.6907 23.4067 15.65 23.75C15.6493 23.962 15.695 24.1716 15.7841 24.364C15.8731 24.5564 16.0032 24.7269 16.1653 24.8636C16.3274 25.0003 16.5175 25.0997 16.7222 25.155C16.9269 25.2102 17.1412 25.2199 17.35 25.1833Z" fill="#6E9D3E"/>
<path fill-rule="evenodd" clip-rule="evenodd" d="M17.9167 29.5333C18.1109 29.4956 18.2944 29.4157 18.4543 29.2992C18.6142 29.1826 18.7466 29.0324 18.842 28.8591C18.9374 28.6858 18.9935 28.4936 19.0064 28.2962C19.0193 28.0988 18.9887 27.9009 18.9167 27.7167C18.7989 27.4706 18.6149 27.2623 18.3852 27.1151C18.1556 26.9679 17.8894 26.8876 17.6167 26.8833C17.272 26.8885 16.9408 27.0177 16.6836 27.2473C16.4265 27.4769 16.2607 27.7915 16.2167 28.1333C16.2235 28.3416 16.2746 28.546 16.3666 28.733C16.4586 28.92 16.5893 29.0852 16.7502 29.2176C16.911 29.3501 17.0983 29.4468 17.2994 29.5012C17.5005 29.5556 17.711 29.5666 17.9167 29.5333Z" fill="#6E9D3E"/>
<path fill-rule="evenodd" clip-rule="evenodd" d="M18.3333 34.1667C18.5255 34.1285 18.707 34.0489 18.8654 33.9334C19.0237 33.818 19.155 33.6695 19.2501 33.4982C19.3453 33.3269 19.402 33.137 19.4164 32.9416C19.4307 32.7462 19.4024 32.55 19.3333 32.3667C19.2205 32.1169 19.0376 31.9052 18.8069 31.7573C18.5761 31.6094 18.3074 31.5316 18.0333 31.5333C17.6866 31.5313 17.3515 31.6581 17.0929 31.889C16.8342 32.1199 16.6705 32.4386 16.6333 32.7833C16.6398 32.9911 16.6908 33.1951 16.7829 33.3814C16.8751 33.5677 17.0062 33.732 17.1674 33.8632C17.3287 33.9944 17.5162 34.0894 17.7174 34.1417C17.9185 34.1941 18.1286 34.2026 18.3333 34.1667Z" fill="#6E9D3E"/>
<path fill-rule="evenodd" clip-rule="evenodd" d="M21.35 24.8667C21.5422 24.8284 21.7237 24.7489 21.882 24.6334C22.0403 24.518 22.1716 24.3695 22.2668 24.1982C22.3619 24.0269 22.4187 23.837 22.433 23.6416C22.4474 23.4462 22.4191 23.25 22.35 23.0667C22.2231 22.7835 22.0067 22.5499 21.7341 22.4017C21.4616 22.2534 21.1479 22.1987 20.8412 22.2461C20.5346 22.2934 20.2519 22.4401 20.0367 22.6636C19.8215 22.8871 19.6857 23.1751 19.65 23.4833C19.6591 23.6902 19.7119 23.8927 19.8049 24.0777C19.8979 24.2627 20.029 24.4259 20.1895 24.5565C20.3501 24.6872 20.5365 24.7824 20.7366 24.8358C20.9366 24.8893 21.1456 24.8998 21.35 24.8667Z" fill="#6E9D3E"/>
<path fill-rule="evenodd" clip-rule="evenodd" d="M22.0167 29.3C22.2094 29.2597 22.3912 29.1781 22.5495 29.061C22.7078 28.9439 22.839 28.7939 22.9339 28.6214C23.0289 28.4488 23.0855 28.2578 23.0998 28.0614C23.114 27.865 23.0857 27.6678 23.0167 27.4833C22.8929 27.2327 22.7 27.0227 22.4608 26.878C22.2217 26.7333 21.9461 26.66 21.6667 26.6667C21.322 26.6719 20.9907 26.8011 20.7336 27.0307C20.4765 27.2602 20.3107 27.5748 20.2667 27.9167C20.2747 28.1285 20.3286 28.3362 20.4246 28.5252C20.5206 28.7143 20.6564 28.8803 20.8228 29.0118C20.9891 29.1433 21.182 29.2371 21.3881 29.2869C21.5942 29.3366 21.8087 29.3411 22.0167 29.3Z" fill="#6E9D3E"/>
<path fill-rule="evenodd" clip-rule="evenodd" d="M22.4833 33.9667C22.6769 33.9311 22.8603 33.8532 23.0202 33.7384C23.1801 33.6236 23.3127 33.4748 23.4083 33.3028C23.5039 33.1307 23.5602 32.9396 23.5732 32.7431C23.5861 32.5467 23.5555 32.3498 23.4833 32.1667C23.3564 31.8835 23.14 31.6499 22.8675 31.5017C22.5949 31.3534 22.2812 31.2988 21.9745 31.3461C21.6679 31.3934 21.3853 31.5401 21.1701 31.7636C20.9549 31.9871 20.819 32.2751 20.7833 32.5833C20.7924 32.7902 20.8452 32.9927 20.9382 33.1777C21.0312 33.3627 21.1623 33.5259 21.3229 33.6565C21.4834 33.7872 21.6699 33.8824 21.8699 33.9359C22.0699 33.9893 22.279 33.9998 22.4833 33.9667Z" fill="#6E9D3E"/>
<path fill-rule="evenodd" clip-rule="evenodd" d="M23.5833 37.4333L19.2833 37.6667L16.85 37.8333C16.0667 37.9167 15.2667 37.9833 14.4833 38.0167C13.458 38.1166 12.4254 38.1166 11.4 38.0167C10.594 37.9648 9.79543 37.8308 9.01667 37.6167C9.10683 37.5446 9.17117 37.4451 9.2 37.3333C9.7241 35.0057 10.031 32.6344 10.1167 30.25C10.1167 27.9167 10.1167 25.5667 9.91667 23.15C9.7 21.3 9.45 19.4 9.08333 17.5167C8.72415 15.6839 8.234 13.8793 7.61667 12.1167C8.83437 11.7908 10.0697 11.5348 11.3167 11.35C12.6167 11.1833 13.9333 11.1 15.25 11.0333C16.5667 10.9667 17.8833 10.9167 19.15 11.0333C19.8333 11.0333 20.8167 10.8833 21.8167 10.9333C22.2082 10.8954 22.6012 10.9893 22.9333 11.2C23.0722 11.3438 23.1901 11.5065 23.2833 11.6833C23.4833 12.0667 23.6333 12.5167 23.7833 12.8667C24.0833 13.6 24.35 14.3333 24.5833 15.0833C24.9333 16.2333 25.2167 17.4 25.5167 18.5667C25.5307 18.6423 25.5595 18.7144 25.6015 18.7788C25.6435 18.8433 25.6978 18.8988 25.7613 18.9421C25.8248 18.9855 25.8962 19.0159 25.9715 19.0315C26.0468 19.0472 26.1245 19.0478 26.2 19.0333C26.2758 19.0175 26.3478 18.9868 26.4116 18.9429C26.4754 18.899 26.5299 18.8429 26.5718 18.7777C26.6137 18.7125 26.6422 18.6397 26.6556 18.5634C26.669 18.4871 26.6671 18.4089 26.65 18.3333C26.45 17.1167 26.25 15.9 25.9833 14.7167C25.8021 13.9004 25.5796 13.0938 25.3167 12.3C25.1833 11.8833 25.0333 11.4 24.8667 10.95C24.7081 10.5684 24.4823 10.2184 24.2 9.91667C23.7412 9.47716 23.1602 9.18667 22.5333 9.08333C21.4242 8.99058 20.3092 8.99058 19.2 9.08333C17.8258 9.06531 16.4516 9.12094 15.0833 9.25C14.1833 9.35 13.2833 9.5 12.3833 9.66667C11.4833 9.83333 10.9167 10 10.1833 10.1833C10.3177 8.97896 10.284 7.76177 10.0833 6.56667C9.87707 5.55591 9.45651 4.60112 8.85 3.76667C8.6209 3.44024 8.35837 3.13861 8.06667 2.86667C7.89445 2.71869 7.71051 2.58491 7.51667 2.46667H7.9C8.98333 2.35 10.0833 2.35 11.2333 2.28333C12.3833 2.21667 13.4167 2.13333 14.5667 2.1C15.7167 2.06667 16.5167 1.66667 17.5333 1.66667C18.0481 1.68094 18.5609 1.73667 19.0667 1.83333C19.0667 2.31667 19.15 2.81667 19.2 3.31667C19.25 3.81667 19.3333 4.35 19.4167 4.88333C19.55 5.8 19.7833 6.7 19.9333 7.58333C19.9569 7.72322 20.0293 7.85023 20.1376 7.94182C20.2459 8.03342 20.3831 8.08368 20.525 8.08368C20.6669 8.08368 20.8041 8.03342 20.9124 7.94182C21.0207 7.85023 21.0931 7.72322 21.1167 7.58333C21.2404 6.72732 21.3127 5.86466 21.3333 5C21.3405 4.43904 21.279 3.87931 21.15 3.33333C20.2167 -0.316667 19.4833 0.6 17.65 0.316667C16.6667 0.116667 15.55 0.0833333 14.45 0H12.0167C11.1887 0.0550863 10.365 0.16084 9.55 0.316667C8.04219 0.619608 6.56826 1.07184 5.15 1.66667H5C4.75597 1.64641 4.51069 1.64641 4.26667 1.66667C3.27557 1.99472 2.45464 2.70179 1.98333 3.63333C-1.23333 10 3.08333 7.68333 3.16667 7.66667C3.56234 7.58349 3.97099 7.58349 4.36667 7.66667L5.7 8.23333C6.39926 8.41694 7.13407 8.41694 7.83333 8.23333C8.14218 8.13441 8.43858 8.00019 8.71667 7.83333C8.86106 8.6591 8.93909 9.49511 8.95 10.3333C7.91223 10.5148 6.93372 10.9445 6.09793 11.5859C5.26213 12.2272 4.59383 13.0612 4.15 14.0167C3.6958 15.41 3.47065 16.8679 3.48333 18.3333V22.9833C3.48333 24.55 3.65 26.1 3.85 27.65C4.23331 30.7476 5.02926 33.7801 6.21667 36.6667C6.26353 36.7732 6.34499 36.8608 6.44783 36.9152C6.55068 36.9696 6.6689 36.9878 6.78333 36.9667C6.72314 37.0551 6.69096 37.1597 6.69096 37.2667C6.69096 37.3737 6.72314 37.4782 6.78333 37.5667C7.21032 38.1317 7.78797 38.565 8.45 38.8167C9.31028 39.1708 10.2035 39.4387 11.1167 39.6167C12.2425 39.8762 13.3946 40.0049 14.55 40C15.3925 39.9782 16.2329 39.9058 17.0667 39.7833C17.8833 39.6667 18.7333 39.4833 19.5 39.3167L23.7833 38.45C23.9181 38.4257 24.0378 38.3488 24.1159 38.2363C24.194 38.1237 24.2243 37.9848 24.2 37.85C24.1881 37.7815 24.1625 37.7162 24.1247 37.6579C24.087 37.5996 24.0378 37.5495 23.9803 37.5106C23.9227 37.4717 23.8579 37.4448 23.7897 37.4315C23.7215 37.4182 23.6513 37.4189 23.5833 37.4333ZM7.55 6.66667C7.1165 6.67525 6.68744 6.578 6.3 6.38333C5.95 6.25 5.65 6.03333 5.3 5.9C5.05427 5.80875 4.79533 5.75809 4.53333 5.75C3.95734 5.74601 3.3878 5.87131 2.86667 6.11667C2.71667 6.11667 2.61667 6.28333 2.46667 6.35C2.58335 5.84328 2.75666 5.3513 2.98333 4.88333C3.13485 4.54606 3.36545 4.25029 3.65558 4.02109C3.94571 3.79189 4.28682 3.63601 4.65 3.56667H5.38333L6.23333 3.95C6.41117 4.04162 6.57413 4.15962 6.71667 4.3C6.88333 4.46667 7.05 4.65 7.2 4.83333C7.62173 5.32781 7.95445 5.89174 8.18333 6.5C7.98063 6.58365 7.76762 6.6397 7.55 6.66667ZM7.18333 36.6667C7.21732 36.5411 7.21732 36.4089 7.18333 36.2833C6.6495 34.5461 6.2593 32.7678 6.01667 30.9667C5.73333 28.8833 5.61667 26.75 5.5 24.6333C5.38333 22.5167 5.25 20.3667 5.2 18.3333C5.0713 17.0552 5.16148 15.7645 5.46667 14.5167C5.64292 13.8346 6.06416 13.2413 6.65 12.85C6.96741 14.1071 7.21226 15.3814 7.38333 16.6667C7.68333 18.9 7.83333 21.15 7.93333 23.3333C8.06667 24.7333 8.15 26.1167 8.23333 27.5C8.31667 28.8833 8.41667 30.25 8.41667 31.6333C8.42829 33.4627 8.30014 35.2902 8.03333 37.1C7.95 37.1 7.81667 37.0167 7.73333 36.9333C7.68406 36.8343 7.60335 36.7544 7.50383 36.7062C7.4043 36.6579 7.29159 36.644 7.18333 36.6667Z" fill="#6E9D3E"/>
<path fill-rule="evenodd" clip-rule="evenodd" d="M21.6667 18.1C21.6667 18.1 21.8 18.2167 21.8833 18.2167C21.9601 18.2284 22.0383 18.2248 22.1136 18.2059C22.1889 18.187 22.2596 18.1533 22.3217 18.1067C22.3838 18.0602 22.436 18.0017 22.4752 17.9347C22.5144 17.8677 22.5398 17.7936 22.55 17.7167C22.7683 17.0781 22.8809 16.4082 22.8833 15.7333C22.8866 15.4458 22.8473 15.1594 22.7667 14.8833C22.7134 14.6008 22.6238 14.3263 22.5 14.0667C22.1727 13.5172 21.7748 13.0129 21.3167 12.5667C21.2517 12.4587 21.1517 12.3764 21.0333 12.3333C21.0333 12.3333 20.95 12.3333 20.9 12.3333C20.1508 12.2834 19.3992 12.2834 18.65 12.3333C17.5167 12.3333 16.4 12.4333 15.3167 12.4833C14.5849 12.4795 13.8542 12.5408 13.1333 12.6667C12.7502 12.7482 12.3838 12.8948 12.05 13.1C11.6106 13.4654 11.2628 13.9285 11.0342 14.4523C10.8056 14.9761 10.7025 15.546 10.7333 16.1167C10.697 16.6974 10.8096 17.2778 11.0605 17.8028C11.3113 18.3278 11.6921 18.78 12.1667 19.1167C12.5989 19.3294 13.0691 19.454 13.55 19.4833C14.1051 19.5152 14.6616 19.5152 15.2167 19.4833C16.2 19.4833 17.2 19.3833 18.1833 19.2667C19.1734 19.1725 20.158 19.0278 21.1333 18.8333C21.2213 18.8321 21.3078 18.8103 21.3859 18.7698C21.464 18.7293 21.5316 18.6712 21.5834 18.6C21.6351 18.5289 21.6696 18.4466 21.6841 18.3599C21.6985 18.2731 21.6926 18.1841 21.6667 18.1ZM18.15 17.7H15.2667C14.8 17.7 14.25 17.7 13.75 17.6167C13.5194 17.5851 13.298 17.5056 13.1 17.3833C12.7333 17.1833 12.7167 16.6167 12.7167 16.0833C12.7167 15.55 12.7167 14.9167 13.1167 14.6833C13.3373 14.5329 13.5872 14.4307 13.85 14.3833C14.3999 14.2582 14.9563 14.1636 15.5167 14.1L18.7667 13.55L20.4333 13.4C20.5667 13.9167 20.6167 14.4333 20.7333 14.9667C20.7878 15.2597 20.8602 15.5491 20.95 15.8333C21.0333 16.1333 21.15 16.4 21.2333 16.7C21.2953 17.0028 21.3398 17.3088 21.3667 17.6167C21.2477 17.5408 21.1073 17.5057 20.9667 17.5167C20.0379 17.6343 19.1029 17.6956 18.1667 17.7H18.15Z" fill="#6E9D3E"/>
<path fill-rule="evenodd" clip-rule="evenodd" d="M27.8833 14.6333C28.3739 14.8097 28.8306 15.069 29.2333 15.4C29.4851 15.5474 29.7248 15.7146 29.95 15.9C30.1333 16.0167 30.3 16.1 30.45 16.2167C30.8167 16.4667 31.1333 16.7833 31.3833 17.15C31.4386 17.2959 31.5495 17.4138 31.6918 17.4779C31.834 17.542 31.9958 17.5469 32.1417 17.4917C32.2875 17.4364 32.4055 17.3255 32.4696 17.1833C32.5336 17.041 32.5386 16.8792 32.4833 16.7333C32.3524 16.0097 32.0366 15.3323 31.5667 14.7667C31.3786 14.5175 31.1539 14.2983 30.9 14.1167C30.6272 13.9215 30.3227 13.775 30 13.6833C29.3035 13.4647 28.5613 13.4359 27.85 13.6C27.713 13.6 27.5816 13.6544 27.4847 13.7513C27.3878 13.8482 27.3333 13.9796 27.3333 14.1167C27.3306 14.1881 27.3432 14.2594 27.3704 14.3256C27.3975 14.3917 27.4385 14.4513 27.4906 14.5003C27.5428 14.5493 27.6048 14.5865 27.6726 14.6094C27.7403 14.6324 27.8122 14.6405 27.8833 14.6333Z" fill="#6E9D3E"/>
<path fill-rule="evenodd" clip-rule="evenodd" d="M27.9667 10.75C29.062 10.9483 30.1088 11.3557 31.05 11.95C31.4459 12.1862 31.8297 12.442 32.2 12.7167C32.5686 12.9822 32.9194 13.2717 33.25 13.5833C34.0445 14.3052 34.6217 15.2345 34.9167 16.2667C34.9248 16.3429 34.9483 16.4167 34.9858 16.4836C35.0232 16.5505 35.0739 16.609 35.1346 16.6558C35.1954 16.7025 35.265 16.7365 35.3393 16.7555C35.4135 16.7746 35.4909 16.7784 35.5667 16.7667C35.7232 16.7459 35.8652 16.6642 35.9619 16.5394C36.0586 16.4146 36.1022 16.2567 36.0833 16.1C35.9926 14.7287 35.4804 13.4189 34.6167 12.35C34.2497 11.8799 33.8176 11.4646 33.3333 11.1167C32.874 10.7761 32.3761 10.4908 31.85 10.2667C30.609 9.76584 29.2642 9.577 27.9333 9.71666C27.8655 9.71444 27.7978 9.72561 27.7343 9.74954C27.6708 9.77347 27.6126 9.80969 27.563 9.85612C27.5135 9.90256 27.4736 9.9583 27.4456 10.0202C27.4177 10.082 27.4021 10.1488 27.4 10.2167C27.4021 10.2889 27.4185 10.36 27.4482 10.4259C27.4778 10.4918 27.5202 10.5512 27.5728 10.6008C27.6254 10.6503 27.6873 10.689 27.7549 10.7146C27.8225 10.7402 27.8944 10.7522 27.9667 10.75Z" fill="#6E9D3E"/>
<path fill-rule="evenodd" clip-rule="evenodd" d="M37.35 10.1167C36.8712 9.45486 36.3113 8.85574 35.6833 8.33333C35.0464 7.81858 34.3462 7.38732 33.6 7.04999C31.8631 6.26139 29.9471 5.9507 28.05 6.14999C27.9115 6.15432 27.78 6.21242 27.6836 6.31197C27.5872 6.41153 27.5333 6.54472 27.5333 6.68333C27.5355 6.75119 27.551 6.81796 27.579 6.87982C27.6069 6.94168 27.6468 6.99743 27.6964 7.04386C27.7459 7.0903 27.8041 7.12652 27.8676 7.15045C27.9312 7.17438 27.9988 7.18555 28.0667 7.18333C29.7231 7.3227 31.3227 7.85398 32.7333 8.73333C33.3185 9.07802 33.8758 9.46811 34.4 9.89999C34.9485 10.3179 35.4563 10.7866 35.9167 11.3C37.0399 12.4737 37.7783 13.9622 38.0333 15.5667C38.0461 15.7229 38.1195 15.8679 38.2379 15.9707C38.3563 16.0735 38.5102 16.1259 38.6667 16.1167C38.7448 16.1125 38.8213 16.0926 38.8917 16.0583C38.962 16.0239 39.0247 15.9757 39.076 15.9166C39.1273 15.8575 39.1662 15.7887 39.1904 15.7143C39.2145 15.6398 39.2235 15.5613 39.2167 15.4833C39.182 13.5413 38.528 11.661 37.35 10.1167Z" fill="#6E9D3E"/>
<path fill-rule="evenodd" clip-rule="evenodd" d="M35.6833 25.3833C34.9333 20.6167 35.4667 18.4167 30.1833 18.7167C29.3768 18.7521 28.577 18.8807 27.8 19.1C23.1 20.3833 23.5667 19.6833 23.7667 26.5167C23.7667 27.8 23.95 29.0667 24.0667 30.35C24.2167 31.3833 24.3 32.4833 24.5167 33.55C24.6469 34.2989 24.8592 35.0311 25.15 35.7333C25.2139 35.8777 25.3258 35.9955 25.4667 36.0667C25.3574 36.0526 25.2465 36.0764 25.1526 36.134C25.0586 36.1916 24.9871 36.2796 24.95 36.3833C24.9296 36.449 24.9224 36.518 24.929 36.5865C24.9356 36.6549 24.9558 36.7214 24.9884 36.7819C25.021 36.8424 25.0654 36.8958 25.1189 36.939C25.1724 36.9822 25.234 37.0143 25.3 37.0333C26.3853 37.556 27.5522 37.8886 28.75 38.0167C29.7741 38.1399 30.8119 38.0835 31.8167 37.85C33.8167 37.4333 36.1333 36.35 36.1333 35.85C36.1333 33.9667 36.2167 32.1 36.1333 30.2167C36.1333 29.4333 36.05 28.6333 35.9833 27.8333C35.9167 27.0333 35.8 26.1667 35.6833 25.3833ZM25.9167 36C26.0589 35.9473 26.175 35.8412 26.2404 35.7043C26.3057 35.5674 26.3151 35.4104 26.2667 35.2667C26.0937 34.6357 25.9931 33.9871 25.9667 33.3333V30.1667C25.9667 29.15 25.8667 27.6167 25.7333 26.35C25.55 24.6833 25.25 23.0167 25.0167 21.2333C25.5833 21.2333 26.2167 21.1167 26.8333 21.05V24.95C26.8333 25.6833 26.8333 26.4 26.9333 27.1333C27.0333 27.8667 27.1 28.55 27.1667 29.2667C27.3667 30.8 27.55 32.3333 27.7333 33.85C27.85 34.6167 27.9667 35.3667 28.1 36.1333C27.3698 36.1497 26.6395 36.1051 25.9167 36ZM32.0167 35.9167C31.1833 36 30.35 36 29.45 36.0333H29.35L29.1167 29.0333C29.0167 28.1833 28.9333 27.3667 28.8 26.4333C28.5 24.5833 28.1167 22.7667 27.9 20.9167H28.55L30.35 20.6333C30.9285 20.5328 31.5132 20.4715 32.1 20.45C32.6231 20.4497 33.1441 20.517 33.65 20.65C33.65 22.5833 33.65 24.5 33.8667 26.45C33.95 27.7 34.1 28.9667 34.25 30.2167C34.4667 32.0167 34.7333 33.7833 34.9 35.55H34.75C33.8522 35.7566 32.9372 35.8793 32.0167 35.9167Z" fill="#6E9D3E"/>
<path fill-rule="evenodd" clip-rule="evenodd" d="M32.7167 25V24.25C32.7167 24.0167 32.7167 23.7667 32.6 23.5333C32.05 21.2333 31.75 21.35 31.5167 21.3667C31.2833 21.3833 30.8833 21.15 30.7167 23.6667C30.6834 23.9156 30.6834 24.1678 30.7167 24.4167C30.7325 24.6632 30.7659 24.9083 30.8167 25.15C31.3167 27.2 31.4667 27.4167 31.9333 27.3833C32.4 27.35 32.5667 27.1667 32.7167 25Z" fill="#6E9D3E"/>
<path fill-rule="evenodd" clip-rule="evenodd" d="M33.4167 31.1333C32.8 29.2333 32.4667 29.3 32.2667 29.3167C32.0667 29.3333 31.65 29.1833 31.5333 31.35C31.5167 31.5552 31.5167 31.7615 31.5333 31.9667C31.5656 32.1652 31.6158 32.3605 31.6833 32.55C32.2167 34.35 32.4833 34.4667 32.85 34.4167C33.2167 34.3667 33.4667 34.2 33.5167 32.3167C33.5334 32.117 33.5334 31.9163 33.5167 31.7167C33.5 31.5167 33.4667 31.3167 33.4167 31.1333Z" fill="#6E9D3E"/>
</g>
<defs>
<clipPath id="clip0_1049_7596">
<rect width="40" height="40" fill="white"/>
</clipPath>
</defs>
</svg>
