<svg width="40" height="40" viewBox="0 0 40 40" fill="none" xmlns="http://www.w3.org/2000/svg">
<path d="M29.2833 32.8166C27.6399 31.1781 26.5452 29.0701 26.15 26.7833C25.6831 22.8293 25.5493 18.8431 25.75 14.8666C25.7284 14.7476 25.6656 14.6399 25.5727 14.5624C25.4798 14.4849 25.3627 14.4424 25.2417 14.4424C25.1207 14.4424 25.0035 14.4849 24.9106 14.5624C24.8177 14.6399 24.755 14.7476 24.7334 14.8666C24.4083 18.9268 24.4083 23.0065 24.7334 27.0666C24.9322 28.2459 25.2505 29.4018 25.6833 30.5166C26.2034 31.5271 26.8412 32.4726 27.5833 33.3333C24.5833 35 14.8667 34.2666 11.8333 34.1166C9.16668 33.9833 8.31668 34.5 7.85002 32.45C7.1732 27.6425 6.98335 22.7789 7.28335 17.9333C7.56828 16.1035 7.65211 14.248 7.53335 12.4C7.41668 11.5166 6.55002 11.9333 6.61668 12.6C6.03842 16.262 5.71542 19.9598 5.65002 23.6666C5.61197 26.9219 5.81811 30.1755 6.26668 33.4C6.39263 34.0207 6.70372 34.5886 7.15894 35.029C7.61416 35.4693 8.19214 35.7614 8.81668 35.8666C9.7595 36.0137 10.7125 36.0862 11.6667 36.0833C15.7284 36.4647 19.8151 36.5037 23.8833 36.2C26.3833 35.9 30.6833 34.8333 29.2833 32.8166Z" fill="#6E9D3E"/>
<path d="M9.36667 12.3833C12.2167 12.3833 24.0333 12.8833 26.5333 12.3833C26.8332 12.3206 27.11 12.1764 27.3333 11.9667C27.9432 11.2143 28.3668 10.3285 28.5695 9.3814C28.7722 8.43433 28.7484 7.45277 28.5 6.51665C27.6 3.54999 24.8167 3.56665 21.6667 3.56665C18.5167 3.56665 15.3 3.83332 13.0833 3.73332C10.8667 3.63332 7.71667 3.73332 7.58334 3.73332C5.13334 3.46665 2.33334 5.16665 1.23334 9.74999C0.608402 13.6124 0.207731 17.5079 0.0333408 21.4167C-0.0618491 25.4922 0.0549753 29.5699 0.383341 33.6333C0.437837 33.7636 0.537763 33.8697 0.664569 33.932C0.791376 33.9942 0.936448 34.0083 1.07286 33.9716C1.20927 33.935 1.32774 33.8501 1.4063 33.7327C1.48486 33.6153 1.51815 33.4734 1.50001 33.3333C1.29623 27.8729 1.5359 22.405 2.21667 16.9833C2.68334 13.65 2.60001 8.86665 4.85001 6.48332C5.14644 6.07797 5.54145 5.75501 5.99761 5.54501C6.45377 5.33502 6.95599 5.24495 7.4567 5.28334C7.95741 5.32173 8.44003 5.4873 8.85885 5.76438C9.27767 6.04145 9.61883 6.42085 9.85001 6.86665C10.0938 7.57809 10.1209 8.34585 9.92807 9.07274C9.73523 9.79962 9.33104 10.4529 8.76667 10.95C8.53334 11.1 8.16667 12.3667 9.36667 12.3833ZM11.0333 6.19999C10.3 4.84999 9.76667 4.83332 10 4.83332C11.15 4.83332 12.2667 4.96665 12.9 5.03332C16.0333 5.34999 22.2333 5.13332 25.0667 5.68332C25.5235 5.76035 25.9394 5.99355 26.2433 6.34312C26.5473 6.69268 26.7205 7.13692 26.7333 7.59999C27.1 11.2 25.3167 10.6 24.7333 10.6667C21.0833 11.05 13.5833 11.2333 9.91667 11.3167C10.5719 10.6594 11.0241 9.82742 11.2191 8.92008C11.4142 8.01275 11.3439 7.06844 11.0167 6.19999H11.0333Z" fill="#6E9D3E"/>
<path d="M14.2333 15.95C13.5358 16.5206 12.924 17.1885 12.4167 17.9333C11.35 19.4666 11.4333 19.8833 10.9167 19.6C10.8384 19.5353 10.7478 19.4872 10.6504 19.4585C10.553 19.4299 10.4508 19.4213 10.35 19.4333C9.21667 19.9 10.9833 21.8666 12.2833 21.1C14.2167 19.5833 14.1667 17.9666 15 16.75C15.0727 16.6426 15.1063 16.5136 15.0954 16.3845C15.0844 16.2553 15.0295 16.1338 14.9399 16.0402C14.8502 15.9467 14.7311 15.8867 14.6026 15.8702C14.474 15.8538 14.3437 15.8819 14.2333 15.95Z" fill="#6E9D3E"/>
<path d="M17.9333 20.75C19.0484 20.7205 20.1611 20.6315 21.2667 20.4833C21.417 20.4833 21.5611 20.4236 21.6674 20.3173C21.7736 20.2111 21.8333 20.0669 21.8333 19.9166C22.0833 18.35 15.4833 18.8 15.3833 19.6333C15.2833 20.4666 17.6667 20.7166 17.9333 20.75Z" fill="#6E9D3E"/>
<path d="M13.6667 24.1666C12.6833 25.6666 12.2167 26.05 11.2167 27.7166C11.0675 27.6893 10.9221 27.6446 10.7833 27.5833C10.7569 27.521 10.7181 27.4648 10.6693 27.4179C10.6205 27.3711 10.5627 27.3347 10.4994 27.3108C10.4361 27.287 10.3686 27.2762 10.301 27.2792C10.2334 27.2822 10.1672 27.2989 10.1062 27.3282C10.0453 27.3576 9.9909 27.399 9.94642 27.4499C9.90194 27.5009 9.86826 27.5604 9.84743 27.6247C9.82659 27.6891 9.81903 27.757 9.82521 27.8244C9.83138 27.8917 9.85116 27.9571 9.88335 28.0166C10.0989 28.4965 10.4312 28.9148 10.85 29.2333C12.5167 30.4 14.0833 26.5333 14.7 24.6666C14.7663 24.5296 14.7755 24.3718 14.7255 24.2281C14.6755 24.0843 14.5704 23.9663 14.4333 23.9C14.2963 23.8337 14.1386 23.8245 13.9948 23.8745C13.851 23.9245 13.733 24.0296 13.6667 24.1666Z" fill="#6E9D3E"/>
<path d="M21.6667 28.3333C21.7698 28.2223 21.8271 28.0765 21.8271 27.925C21.8271 27.7735 21.7698 27.6276 21.6667 27.5166C21.3167 27.0166 19.5167 26.8666 19.1167 26.8833C17.9119 26.9598 16.7204 27.178 15.5667 27.5333C15.3833 27.7833 15.3 27.9833 15.4667 28.1666C15.6333 28.35 15.25 28.2666 17.7 28.8166C19.0328 28.7592 20.3591 28.5976 21.6667 28.3333Z" fill="#6E9D3E"/>
<path d="M39.7667 5.34997C38.7833 2.38331 34.8667 3.89997 33.75 5.51664C33.548 5.81759 33.4379 6.17086 33.4333 6.53331C30.7167 6.89997 30.65 11.0166 30.6 13.5666C30.7167 17.25 30.6 18.2833 31.3167 18.2166C32.0333 18.15 31.85 17.55 32.3667 13.6666C32.8833 9.78331 32.5333 8.66664 33.45 7.73331C33.5833 7.73331 33.45 15.0833 33.7667 15.8166C33.3167 17.5833 33.0167 26.45 32.9 28.8666C32.7891 29.6839 32.7556 30.5098 32.8 31.3333C33.1771 32.7667 34.0743 34.0084 35.3167 34.8166C36.35 35.3333 36.9833 34.35 37.3333 33.6333C38.2595 32.5232 38.7458 31.1116 38.7 29.6666C38.7 25.7666 38.6 28.5833 39.0333 15.5333C39.3747 14.5682 39.5658 13.5564 39.6 12.5333C39.8167 10.35 40.2833 6.88331 39.7667 5.34997ZM35.2167 6.66664C35.6526 6.24013 36.1928 5.93553 36.7833 5.78331C37.6833 5.61664 37.7167 5.53331 37.8833 5.88331C38.0115 6.18455 38.0849 6.50627 38.1 6.83331C38.1623 9.51987 38.0677 12.2078 37.8167 14.8833C37.6667 14.8833 37.3833 15.0166 37.2833 15.0166H34.7833C34.6667 14.05 34.6333 16.2666 35.2167 6.66664ZM35.6833 32.7333C35.2326 32.2572 34.8913 31.6884 34.6833 31.0666C34.8167 26.7 34.3833 19.85 34.6833 16.25C35.7079 16.3501 36.7378 16.3835 37.7667 16.35L36.9833 26.6666C36.8167 31.2333 37 30.65 35.6833 32.6666V32.7333Z" fill="#6E9D3E"/>
</svg>
