<svg width="40" height="41" viewBox="0 0 40 41" fill="none" xmlns="http://www.w3.org/2000/svg">
<path fill-rule="evenodd" clip-rule="evenodd" d="M20.6667 15.35C21.2166 15.7503 21.8571 16.0081 22.5309 16.1003C23.2048 16.1926 23.891 16.1165 24.5282 15.8787C25.1655 15.641 25.7339 15.2491 26.1827 14.738C26.6315 14.2269 26.9466 13.6126 27.1 12.95C27.8729 13.8407 28.9357 14.4296 30.1007 14.6126C31.2657 14.7956 32.4579 14.5609 33.4667 13.95C32.9853 15.7154 33.0434 17.5845 33.6333 19.3167C33.6466 19.4493 33.712 19.5712 33.8151 19.6556C33.9183 19.74 34.0507 19.7799 34.1833 19.7667C34.3159 19.7534 34.4379 19.688 34.5222 19.5849C34.6066 19.4817 34.6466 19.3493 34.6333 19.2167C35.1553 17.138 35.2123 14.9698 34.8 12.8667C36.65 10.65 35.75 7.76666 34.8 5.25C34.1506 3.40185 32.9159 1.81605 31.2833 0.733331C29.8333 -0.400002 10.2 -2.12563e-06 6.23333 0.583331C6.15491 0.588125 6.07834 0.609175 6.00848 0.645146C5.93863 0.681116 5.87702 0.731221 5.82756 0.792277C5.77811 0.853332 5.74189 0.924005 5.72121 0.999807C5.70054 1.07561 5.69585 1.15488 5.70745 1.23259C5.71904 1.3103 5.74668 1.38475 5.78859 1.45121C5.8305 1.51767 5.88577 1.57469 5.9509 1.61864C6.01603 1.6626 6.08958 1.69253 6.1669 1.70653C6.24421 1.72054 6.32359 1.71831 6.4 1.7C7.46667 1.56666 9.05 1.46666 10.85 1.41666C10.0924 3.44973 9.60495 5.57341 9.4 7.73333C7.56282 8.21046 5.65731 8.36831 3.76667 8.2C3.31948 8.21055 2.87375 8.25513 2.43333 8.33333C3.08605 6.25947 3.90539 4.24179 4.88333 2.3C4.9013 2.18229 4.87806 2.06198 4.81754 1.95943C4.75701 1.85689 4.66293 1.77839 4.5512 1.73722C4.43946 1.69606 4.31694 1.69475 4.20435 1.73352C4.09177 1.77229 3.99603 1.84876 3.93333 1.95C3.2764 3.04239 2.71861 4.19143 2.26667 5.38333C-2.18334 14.6667 5.93333 17.1833 9.23333 12.7167C10.2833 14.3833 10.75 15.55 12.85 15.8333C14.1928 15.9874 15.5465 15.6563 16.6667 14.9C17.4245 14.4177 18.0491 13.753 18.4833 12.9667C18.9869 13.9406 19.7404 14.7632 20.6667 15.35ZM30.3667 2.01666C31.6966 2.91495 32.6927 4.22737 33.2 5.75C34.0289 7.37746 34.2191 9.25607 33.7333 11.0167C33.5026 11.4333 33.1828 11.7939 32.7965 12.0726C32.4103 12.3512 31.9673 12.5412 31.4992 12.6287C31.031 12.7163 30.5493 12.6994 30.0885 12.5792C29.6276 12.459 29.199 12.2384 28.8333 11.9333C26.9 9.63333 27.1667 9.65 27.25 9.13333C28.35 9.13333 29.4667 9 30.5833 8.98333C30.7336 8.98333 30.8778 8.92363 30.984 8.81736C31.0903 8.71109 31.15 8.56695 31.15 8.41666C31.15 8.26638 31.0903 8.12224 30.984 8.01597C30.8778 7.9097 30.7336 7.85 30.5833 7.85L27.25 7.75C27.124 5.69234 26.7833 3.65348 26.2333 1.66666C27.5833 1.66666 28.7 1.83333 29.5667 1.93333C29.9 1.98333 30.2833 2.21666 30.3667 2.1V2.01666ZM25 1.66666C24.9654 3.74075 25.0991 5.81422 25.4 7.86666L19.35 7.7C19.5167 5.62556 19.5167 3.5411 19.35 1.46666C21.3667 1.45 23.3333 1.51666 25 1.66666ZM12.0833 1.38333H18.1833C17.7832 3.40977 17.5656 5.46802 17.5333 7.53333C15.472 7.26852 13.3892 7.21268 11.3167 7.36666C11.6667 5.98333 12.0833 1.38333 12.0833 1.38333ZM8.05 11.85C7.63667 12.5305 7.00269 13.0488 6.25365 13.3187C5.50461 13.5886 4.68571 13.5938 3.93333 13.3333C2.26667 12.7 2.05 11.15 2.26667 9.43333C2.7654 9.38309 3.26793 9.38309 3.76667 9.43333C5.61472 9.74507 7.50194 9.74507 9.35 9.43333C9.31667 10.3667 8.51667 11.05 8.05 11.85ZM15.65 13.3333C14.3667 14.2333 12.3167 14.4667 11.5167 13.15C10.9204 11.901 10.7059 10.5037 10.9 9.13333C13.1582 9.02859 15.4211 9.10662 17.6667 9.36666C17.6381 10.1345 17.443 10.887 17.0948 11.5719C16.7466 12.2568 16.2536 12.8579 15.65 13.3333ZM19.1 9.4C21.2667 9.4 22.9167 9.4 25.7667 9.21666C26.0667 10.6 25.15 13.8833 23.6167 14.1167C22.9277 14.1277 22.2496 13.9443 21.66 13.5877C21.0704 13.231 20.5933 12.7154 20.2833 12.1C19.7858 11.2723 19.3885 10.3883 19.1 9.46666V9.4Z" fill="#6E9D3E"/>
<path fill-rule="evenodd" clip-rule="evenodd" d="M39.1 29.7667C38.9761 29.5306 38.7887 29.3338 38.5591 29.1984C38.3294 29.0629 38.0666 28.9942 37.8 29C37.35 25.45 36.95 22.5167 33.7 23.0833C33.7 21.5167 32.6667 21.3167 31.1167 21.25C26.2667 21.25 25.15 21.3333 24.3167 22.75C23.3905 22.666 22.4668 22.9354 21.731 23.5042C20.9953 24.0731 20.5019 24.8992 20.35 25.8167C20.0802 26.9059 19.9957 28.0327 20.1 29.15C19.9585 29.1813 19.8344 29.2656 19.7532 29.3856C19.672 29.5056 19.6398 29.6521 19.6633 29.7951C19.6867 29.9381 19.7641 30.0666 19.8794 30.1543C19.9947 30.242 20.1393 30.2822 20.2833 30.2667H23.5167C23.6 30.9 23.7333 31.8 23.85 33C22.6262 32.9724 21.4019 33.0169 20.1833 33.1333C19.9663 32.3156 19.6934 31.5137 19.3667 30.7333C19.2765 30.6695 19.1688 30.6352 19.0583 30.6352C18.9479 30.6352 18.8401 30.6695 18.75 30.7333C18.3333 31.0167 18.4667 30.9667 20.2 37.4C20.2819 38.1129 20.5272 38.7973 20.9167 39.4C21.6667 40.1833 23.7333 39.9667 24.6 39.9833C27.4504 40.0901 30.3044 40.0456 33.15 39.85C34.1667 39.7667 36.5833 40.3167 37.25 38.9833C38.0233 37.1308 38.5825 35.1961 38.9167 33.2167C39.0667 32.2333 39.7167 30.95 39.1 29.7667ZM25.9667 22.7C27.9565 22.9571 29.9603 23.0906 31.9667 23.1C31.9356 23.4635 31.8856 23.8251 31.8167 24.1833C31.8167 24.1833 25.8833 24.35 25.55 24.1833C25.2167 24.0167 25.2 24.0333 25.1833 23.8833C25.1684 23.6279 25.2367 23.3746 25.3779 23.1612C25.5192 22.9479 25.7257 22.786 25.9667 22.7ZM21.1667 29.0333C21.4118 28.2269 21.7068 27.4365 22.05 26.6667C22.9667 24.3333 22.4667 24.7667 23.9667 24.0167C23.9813 24.3276 24.0827 24.6283 24.2595 24.8846C24.4362 25.1408 24.6812 25.3425 24.9667 25.4667C25.8553 25.8018 26.8007 25.9603 27.75 25.9333C31.0833 26.1667 33.3 26.75 33.6 24.2667C33.7854 24.2781 33.9695 24.306 34.15 24.35C34.2833 24.35 35.3667 24.25 36.5 28.7333C31.3879 28.4931 26.2655 28.5933 21.1667 29.0333ZM30.2333 30.15C30.0829 31.0927 30.0049 32.0454 30 33C28 32.85 27.5 33 25.75 32.9167L25.45 31.8833C24.6333 30.05 24.7333 30.3667 24.7 30.2167C26.95 30.1333 28.2167 30.1 30.2333 30.15ZM37.0167 32.7333C36.7167 33.85 36.5333 35 36.25 36.0667C35.45 39.1 36.25 37.5833 32.9167 37.9C29.233 38.2486 25.5332 38.3989 21.8333 38.35L20.4833 34.1833C21.6795 34.2309 22.8711 34.359 24.05 34.5667C24.2988 35.5993 24.6506 36.6043 25.1 37.5667C26.0667 38.45 25.9833 34.9 25.9667 34.7667C27.3156 34.842 28.6677 34.842 30.0167 34.7667C30.1167 35.6833 30.15 37.65 31.0333 37.3667C31.9167 37.0833 31.4833 36.9333 31.7333 34.75C32.8929 34.8293 34.0576 34.7224 35.1833 34.4333C35.3336 34.4333 35.4778 34.3736 35.584 34.2674C35.6903 34.1611 35.75 34.017 35.75 33.8667C35.75 33.7164 35.6903 33.5722 35.584 33.466C35.4778 33.3597 35.3336 33.3 35.1833 33.3C34.078 33.5068 32.941 33.4727 31.85 33.2C31.85 32.25 31.7333 32.9667 31.6167 30.2C33.5833 30.3108 35.542 30.5334 37.4833 30.8667C37.3766 31.5001 37.2205 32.1242 37.0167 32.7333Z" fill="#6E9D3E"/>
<path fill-rule="evenodd" clip-rule="evenodd" d="M9.54999 26.55C10.6667 26.55 10.5333 23.65 9.64999 23.65C8.13333 23.6667 8.69999 26.55 9.54999 26.55Z" fill="#6E9D3E"/>
<path fill-rule="evenodd" clip-rule="evenodd" d="M13.5667 20.4333C13.7333 20.8 14.0833 24.3167 14.3167 26.8334C14.55 29.35 15.45 29.0334 15.7167 26.8334C15.7167 25.3167 15.8333 23.6833 15.8333 23.6C15.896 22.168 15.6634 20.7383 15.15 19.4C14.985 19.1292 14.732 18.9232 14.4333 18.8167C11.9592 18.5538 9.46806 18.487 6.98334 18.6167C6.55 18.7333 6.25 19.2167 6.71667 19.6167C6.85 19.7334 13.0167 20.4667 13.5667 20.4333Z" fill="#6E9D3E"/>
<path fill-rule="evenodd" clip-rule="evenodd" d="M5.68333 26.8333C6.21666 28.0833 6.78333 28.0167 7.35 26.8333C7.35 26.0667 7.35 25.35 7.45 25.1667V23.5C6.96666 20.1667 7.13333 20.45 6.75 20.2667C6.67909 20.238 6.60256 20.226 6.52628 20.2315C6.45001 20.2371 6.37602 20.2601 6.31002 20.2987C6.24402 20.3374 6.18776 20.3906 6.14557 20.4544C6.10338 20.5182 6.07639 20.5908 6.06666 20.6667C5.77031 22.3169 5.61973 23.99 5.61666 25.6667C5.55 25.9167 5.61666 26.3667 5.68333 26.8333Z" fill="#6E9D3E"/>
<path fill-rule="evenodd" clip-rule="evenodd" d="M16.2667 29.4667C15.2333 29.4667 5.2 28.9167 3.4 28.75C3.09496 28.725 2.78838 28.725 2.48333 28.75C2.18333 16.3 2.13333 26.8333 2.1 14.2C2.1 14.0674 2.04732 13.9402 1.95355 13.8465C1.85979 13.7527 1.73261 13.7 1.6 13.7C1.46739 13.7 1.34022 13.7527 1.24645 13.8465C1.15268 13.9402 1.1 14.0674 1.1 14.2C0.677874 19.144 0.588784 24.1107 0.833334 29.0667C0.933334 29.9167 1.2 30.3833 2.01667 30.5167C6.76164 30.8028 11.5187 30.8307 16.2667 30.6C16.417 30.6 16.5611 30.5403 16.6674 30.434C16.7736 30.3278 16.8333 30.1836 16.8333 30.0333C16.8333 29.8831 16.7736 29.7389 16.6674 29.6326C16.5611 29.5264 16.417 29.4667 16.2667 29.4667Z" fill="#6E9D3E"/>
</svg>
