<svg width="40" height="40" viewBox="0 0 40 40" fill="none" xmlns="http://www.w3.org/2000/svg">
<path fill-rule="evenodd" clip-rule="evenodd" d="M12.1667 11.7633C10.9909 8.23888 10.0521 4.63974 9.3567 0.989993C9.32985 0.82463 9.3653 0.655188 9.45619 0.514458C9.54708 0.373728 9.68694 0.271715 9.8487 0.228163C10.0105 0.18461 10.1826 0.202614 10.3319 0.27869C10.4812 0.354766 10.5969 0.483505 10.6567 0.639993C12.779 5.88185 14.4224 11.3051 15.5667 16.8433C15.5925 17.0153 15.5547 17.1908 15.4602 17.3369C15.3657 17.4829 15.2211 17.5894 15.0536 17.6363C14.8861 17.6832 14.7072 17.6672 14.5507 17.5915C14.3941 17.5158 14.2706 17.3854 14.2034 17.225C13.6904 15.9841 13.2075 14.7309 12.755 13.4667C11.4969 15.2213 10.6099 17.2142 10.1484 19.3233C14.7567 19.3217 19.3617 19.59 23.9417 20.125C24.1311 20.1139 24.3171 20.1786 24.4589 20.3047C24.6006 20.4308 24.6865 20.6081 24.6975 20.7975C24.7086 20.9869 24.6439 21.1729 24.5178 21.3147C24.3917 21.4564 24.2144 21.5423 24.025 21.5533C21.4962 21.4104 18.9644 21.3271 16.4317 21.3033C18.3337 26.8559 19.3834 32.6646 19.545 38.5317C19.5451 38.6499 19.5157 38.7664 19.4596 38.8705C19.4035 38.9746 19.3223 39.0632 19.2235 39.1281C19.1246 39.1931 19.0112 39.2325 18.8933 39.2427C18.7755 39.2529 18.6569 39.2336 18.5484 39.1867C18.365 39.58 17.3417 39.585 11.265 39.6133C9.0517 39.6233 6.16836 39.6367 2.4117 39.6733C2.13231 39.6685 1.86612 39.5536 1.67105 39.3535C1.47598 39.1534 1.36779 38.8844 1.37003 38.605C1.38336 35.8367 1.43836 32.7 1.5667 29.5667L1.59503 28.86C1.93503 20.5117 1.9717 19.6267 3.1567 19.5333C4.90225 19.429 6.6499 19.3634 8.39836 19.3367C8.27088 17.85 8.55505 16.357 9.21974 15.0212C9.88443 13.6853 10.904 12.5582 12.1667 11.7633ZM4.25336 21.6467C3.87503 26.235 3.58836 33.0533 3.49836 37.6C5.73503 37.6733 7.64003 37.7333 9.26503 37.7833C15.0067 37.9633 17.2234 38.0317 18.0717 38.2467C17.7267 36.24 15.5167 24.6 14.8667 21.2967C11.3267 21.2967 7.7867 21.4133 4.25336 21.6467Z" fill="#6E9D3E"/>
<path fill-rule="evenodd" clip-rule="evenodd" d="M34.4067 0.0767846C25.5233 -0.978215 24.215 9.13345 31.165 11.2701C32.4736 11.6371 33.8689 11.5394 35.1136 10.9935C36.3582 10.4476 37.3752 9.48734 37.9916 8.27605C38.6079 7.06477 38.7855 5.67733 38.4941 4.34986C38.2027 3.02239 37.4604 1.83689 36.3933 0.995118C36.2444 0.877539 36.0548 0.823951 35.8663 0.846142C35.6779 0.868334 35.5059 0.964488 35.3883 1.11345C35.2708 1.26241 35.2172 1.45198 35.2394 1.64046C35.2616 1.82893 35.3577 2.00087 35.5067 2.11845C36.1727 2.734 36.6168 3.55223 36.77 4.44608C36.9232 5.33993 36.777 6.25935 36.354 7.06157C35.9311 7.86378 35.255 8.50388 34.431 8.88245C33.6069 9.26102 32.6808 9.35687 31.7967 9.15512C27.4333 7.85512 27.605 1.37178 34.32 1.42678C34.496 1.43303 34.6675 1.37042 34.7981 1.25224C34.9287 1.13407 35.008 0.969643 35.0193 0.793895C35.0306 0.618147 34.9729 0.444924 34.8585 0.311023C34.7441 0.177121 34.582 0.0930922 34.4067 0.0767846Z" fill="#6E9D3E"/>
<path fill-rule="evenodd" clip-rule="evenodd" d="M36.67 15.0834C34.305 11.62 30.82 14.0467 29.0416 14.3384C27.0975 14.2816 25.1629 14.0428 23.2633 13.625C17.5133 13.4884 17.3033 20.8984 24.3766 21.6984C32.0016 22.5434 29.0366 16.3567 30.0266 34.1817C30.1866 37.2284 30.4833 40.26 34.0466 39.9817C37.4966 39.7234 38.0933 36.4417 38.36 32.9984C38.5566 30.5084 38.7433 18.1384 36.67 15.0834ZM35.4416 15.9467C33.7283 13.615 31.4866 15.6617 29.3683 16.0934C27.3166 16.1267 25.265 15.96 23.245 15.5967C19.8583 15.625 20.5183 19.125 24.6083 19.5467C33.7016 20.485 31.105 12.515 32.2183 34.0684C32.3233 36.2734 32.1233 37.9734 33.91 37.8634C37.0566 37.6634 36.6383 29.0034 36.6383 25.8767C37.0848 22.5187 36.6731 19.1024 35.4416 15.9467Z" fill="#6E9D3E"/>
</svg>
