<svg width="40" height="40" viewBox="0 0 40 40" fill="none" xmlns="http://www.w3.org/2000/svg">
<g clip-path="url(#clip0_1051_8944)">
<path fill-rule="evenodd" clip-rule="evenodd" d="M25.1 24.6667C25.1 24.6667 25.3 25.2333 25.5833 25.2833C25.6891 25.3374 25.8062 25.3657 25.925 25.3657C26.0438 25.3657 26.1609 25.3374 26.2667 25.2833C26.3283 25.2075 26.371 25.118 26.3913 25.0224C26.4116 24.9268 26.4089 24.8277 26.3833 24.7333C26.0676 23.5411 25.4913 22.4338 24.6958 21.4914C23.9003 20.5489 22.9056 19.7948 21.7833 19.2833C22.6903 18.7727 23.3989 17.9715 23.7949 17.009C24.191 16.0465 24.2514 14.9787 23.9665 13.9776C23.6816 12.9765 23.0679 12.1006 22.2244 11.4908C21.3808 10.8811 20.3566 10.5732 19.3167 10.6167C12.7667 11.0333 12.65 17.8167 16.0833 19.5667C15.0458 20.059 14.1377 20.7871 13.4316 21.6929C12.7255 22.5987 12.241 23.657 12.0167 24.7833C12.0167 25.3 12.9333 25.4167 13.1 24.7833C15 19.55 22.3667 17.7833 25.1 24.6667ZM15.55 17C14.8833 14.6833 16.05 12.6833 19.45 12.4333C19.8508 12.4035 20.2535 12.4568 20.6328 12.5899C21.0121 12.7231 21.3597 12.9332 21.6539 13.207C21.9482 13.4809 22.1826 13.8126 22.3425 14.1814C22.5025 14.5502 22.5844 14.948 22.5833 15.35C22.7167 19.45 16.45 20.1833 15.55 17Z" fill="#6E9D3E"/>
<path fill-rule="evenodd" clip-rule="evenodd" d="M38.2333 11.5333C38.0333 9.86665 38.0833 6.03331 36.8333 5.08331C35.213 4.08538 33.3672 3.51215 31.4667 3.41665C31.327 3.41312 31.191 3.46129 31.0847 3.55192C30.9784 3.64255 30.9093 3.76925 30.8907 3.90769C30.8721 4.04613 30.9053 4.18657 30.9839 4.30203C31.0625 4.4175 31.181 4.49986 31.3167 4.53331C33.0259 4.67783 34.671 5.25106 36.1 6.19998C36.8 6.76665 36.7833 10.4833 36.9167 11.8333C37.4332 16.4578 37.4332 21.1255 36.9167 25.75C36.8352 27.3073 36.578 28.8504 36.15 30.35C32.2 32.4833 5.04999 33.8166 3.48332 31.1C3.14068 29.89 2.95582 28.6407 2.93332 27.3833C3.14999 27.2833 10.3667 27.3833 10.5 27.3833C18.6667 27.5833 18.3667 27.05 31.7833 27.2166C35.7167 27.1 35.6 26.0833 31.7833 25.9833C31.7833 25.9833 23.6667 25.75 16.0333 25.85C9.36665 25.95 2.91665 26.4166 2.84999 26.4333C2.39994 20.5642 2.39994 14.6691 2.84999 8.79998C3.31665 5.46665 3.99999 5.46665 5.33332 5.03331C7.74999 4.34998 8.76665 4.74998 8.66665 3.93331C8.68432 3.86228 8.68563 3.78815 8.67047 3.71654C8.65531 3.64492 8.62408 3.57769 8.57913 3.5199C8.53419 3.46212 8.47671 3.4153 8.41103 3.38298C8.34535 3.35065 8.27319 3.33367 8.19999 3.33331C6.76665 3.48331 3.94999 3.81665 3.04999 4.86665C2.33934 5.89833 1.89294 7.08875 1.74999 8.33331C0.883319 13.6166 0.949986 29.75 2.04999 31.6666C3.33332 34.1666 11.05 34.3 13.95 34.3333C13.2256 35.5352 12.899 36.935 13.0167 38.3333L9.68332 38.5833C9.56843 38.6046 9.4646 38.6654 9.38987 38.7552C9.31514 38.845 9.27423 38.9581 9.27423 39.075C9.27423 39.1918 9.31514 39.305 9.38987 39.3948C9.4646 39.4846 9.56843 39.5454 9.68332 39.5666C13.8181 39.9124 17.9692 40.0237 22.1167 39.9C24.3167 39.8 26.5667 39.55 28.7833 39.3666C28.9149 39.3438 29.0341 39.2753 29.1201 39.1732C29.206 39.071 29.2532 38.9418 29.2532 38.8083C29.2532 38.6748 29.206 38.5456 29.1201 38.4435C29.0341 38.3413 28.9149 38.2728 28.7833 38.25H25.9C25.7085 36.7606 25.2868 35.3099 24.65 33.95C27.5217 33.739 30.3809 33.383 33.2167 32.8833C38.75 31.8166 37.9833 31.2166 38.6333 25.8C39.0265 21.0442 38.8924 16.2596 38.2333 11.5333ZM14.2833 38.3333C14.9399 37.1169 15.3371 35.7776 15.45 34.4C18 34.4 20.45 34.3 23.0167 34.1333C23.1995 35.6167 23.7244 37.0374 24.55 38.2833C20 38.1 17.9 38.0666 14.2833 38.3333Z" fill="#6E9D3E"/>
<path fill-rule="evenodd" clip-rule="evenodd" d="M13.1166 7.88334C14.5833 8.4854 16.1949 8.64192 17.75 8.33334C20.0923 8.40616 22.4362 8.25548 24.75 7.88334C25.6666 7.65001 27.9833 7.78334 28.3166 6.01668C28.3978 4.78468 28.3978 3.54867 28.3166 2.31668C28.2938 2.18514 28.2253 2.06588 28.1232 1.97992C28.021 1.89397 27.8918 1.84683 27.7583 1.84683C27.6248 1.84683 27.4956 1.89397 27.3935 1.97992C27.2913 2.06588 27.2228 2.18514 27.2 2.31668C27.0833 5.46668 27.2 4.86668 27.2 5.43334C27.2 6.00001 27.2 6.11668 26.2666 6.28334C25.6833 6.38334 25.05 6.36668 24.5 6.48334C20.9638 6.8137 17.3993 6.67359 13.9 6.06668C13.7869 5.93153 13.7276 5.75946 13.7333 5.58334C13.669 4.46353 13.7701 3.34035 14.0333 2.25001C14.2223 2.08412 14.4436 1.95926 14.6833 1.88334C18.5339 1.21334 22.4526 1.023 26.35 1.31668C26.4124 1.3309 26.4769 1.3327 26.54 1.32198C26.6031 1.31125 26.6634 1.2882 26.7176 1.25415C26.7717 1.22011 26.8187 1.17572 26.8557 1.12354C26.8927 1.07135 26.9191 1.01239 26.9333 0.950009C26.9475 0.887631 26.9493 0.823062 26.9386 0.759988C26.9279 0.696914 26.9048 0.636571 26.8708 0.582404C26.8367 0.528236 26.7924 0.481305 26.7402 0.444291C26.688 0.407276 26.629 0.380903 26.5666 0.366676C22.3657 -0.233228 18.1009 -0.233228 13.9 0.366676C13.4347 0.483747 13.0102 0.725715 12.6724 1.06645C12.3346 1.40718 12.0963 1.83372 11.9833 2.30001C11.8813 2.84931 11.8477 3.40912 11.8833 3.96668C11.8666 5.25001 11.3333 6.96668 13.1166 7.88334Z" fill="#6E9D3E"/>
<path fill-rule="evenodd" clip-rule="evenodd" d="M19.2 2.93332C18.9906 3.04007 18.8177 3.20678 18.7034 3.41217C18.5891 3.61756 18.5386 3.85234 18.5583 4.08656C18.5779 4.32079 18.6669 4.54385 18.8138 4.72731C18.9608 4.91077 19.159 5.04631 19.3833 5.11665C20.15 5.44998 21.7166 4.63332 21.25 3.59998C21.0426 3.26408 20.7227 3.01269 20.3473 2.8906C19.9718 2.76852 19.5653 2.78365 19.2 2.93332Z" fill="#6E9D3E"/>
</g>
<defs>
<clipPath id="clip0_1051_8944">
<rect width="40" height="40" fill="white"/>
</clipPath>
</defs>
</svg>
