<svg width="40" height="40" viewBox="0 0 40 40" fill="none" xmlns="http://www.w3.org/2000/svg">
<g clip-path="url(#clip0_1048_7419)">
<path d="M39.0667 27.3833C38.7401 26.2184 38.2698 25.0987 37.6667 24.05C36.7558 22.5247 35.5351 21.2074 34.0833 20.1833C34.3216 19.6725 34.533 19.1496 34.7167 18.6167C35.1099 17.5174 35.2633 16.3468 35.1667 15.1833C35.1099 14.6414 34.9303 14.1195 34.6415 13.6574C34.3527 13.1953 33.9623 12.8052 33.5 12.5167C32.9879 12.1924 32.3826 12.0475 31.7792 12.1048C31.1758 12.1622 30.6085 12.4184 30.1667 12.8333C29.2213 13.6652 28.4313 14.6584 27.8333 15.7667C27.2887 16.8501 26.8046 17.9629 26.3833 19.1C25.4098 19.2238 24.4667 19.523 23.6 19.9833C23.1366 20.229 22.7055 20.5313 22.3167 20.8833C21.9285 21.2574 21.5871 21.6771 21.3 22.1333L20.8333 23.1667C20.55 24.4 20.9667 25.05 21.6833 25.3167C22.3325 25.5327 23.0342 25.5327 23.6833 25.3167C23.6833 25.3167 21.7833 29.2167 21.7667 29.3833C21.5251 30.1281 21.3466 30.8919 21.2333 31.6667C21.1609 32.2199 21.1609 32.7801 21.2333 33.3333C21.2852 33.6503 21.3633 33.9625 21.4667 34.2667C21.5636 34.502 21.7329 34.7005 21.95 34.8333C22.2788 35.0195 22.6663 35.0731 23.0333 34.9833C23.5097 34.8555 23.9607 34.6469 24.3667 34.3667L25.3333 33.45L26.25 32.2833C26.4246 32.2467 26.593 32.1849 26.75 32.1C27.0974 31.878 27.4213 31.6211 27.7167 31.3333C28.1507 30.8985 28.5363 30.4179 28.8667 29.9C29.1438 29.4397 29.3889 28.9608 29.6 28.4667C29.7043 28.5227 29.8168 28.5621 29.9333 28.5833C30.2973 28.6823 30.6728 28.7327 31.05 28.7333H31.7167C31.6419 28.99 31.5862 29.2518 31.55 29.5167C31.5169 29.7823 31.5169 30.051 31.55 30.3167C31.6023 30.5793 31.6805 30.8361 31.7833 31.0833C32.0544 31.6741 32.4665 32.1892 32.9833 32.5833C33.0316 32.6343 33.0898 32.6748 33.1542 32.7026C33.2187 32.7303 33.2882 32.7446 33.3583 32.7446C33.4285 32.7446 33.498 32.7303 33.5624 32.7026C33.6269 32.6748 33.6851 32.6343 33.7333 32.5833C33.8321 32.4835 33.8874 32.3487 33.8874 32.2083C33.8874 32.0679 33.8321 31.9332 33.7333 31.8333C33.6119 31.6119 33.5168 31.3769 33.45 31.1333C33.45 30.8833 33.45 30.6333 33.35 30.3667C33.25 30.1 33.35 29.8667 33.2333 29.6C33 28.4 32.9833 28.1 32.9167 27.9333C32.9364 27.8143 32.9092 27.6922 32.8408 27.5928C32.7724 27.4933 32.6682 27.4242 32.55 27.4C32.4526 27.3779 32.3506 27.3888 32.26 27.431C32.1695 27.4733 32.0956 27.5445 32.05 27.6333C31.8003 27.6499 31.5497 27.6499 31.3 27.6333C30.9534 27.5844 30.6163 27.4832 30.3 27.3333C29.6199 26.9454 29.0692 26.3657 28.7167 25.6667C28.4833 25.2333 28.3833 24.75 28.95 24.4333L29.5167 24.1667C29.9863 24.0415 30.4804 24.0415 30.95 24.1667C31.4776 24.3131 31.9824 24.5318 32.45 24.8167C32.5074 24.8567 32.5724 24.8846 32.641 24.8987C32.7095 24.9129 32.7802 24.9129 32.8488 24.8989C32.9174 24.8849 32.9824 24.857 33.0399 24.8171C33.0974 24.7772 33.1462 24.726 33.1833 24.6667C33.2613 24.5512 33.291 24.4099 33.266 24.2728C33.2411 24.1358 33.1636 24.0139 33.05 23.9333C32.7368 23.6903 32.4083 23.4677 32.0667 23.2667C32.1415 23.2518 32.2125 23.222 32.2755 23.179C32.3385 23.1361 32.3922 23.0809 32.4333 23.0167C32.7667 22.4278 33.1 21.8111 33.4333 21.1667C34.454 22.2696 35.3075 23.5162 35.9667 24.8667C36.4665 25.8673 36.9062 26.8969 37.2833 27.95C37.8784 29.5867 38.3792 31.2561 38.7833 32.95C38.8116 33.0905 38.8936 33.2144 39.0119 33.2954C39.1302 33.3763 39.2755 33.4079 39.4167 33.3833C39.4858 33.3694 39.5515 33.342 39.6099 33.3025C39.6683 33.2631 39.7184 33.2125 39.7571 33.1536C39.7959 33.0947 39.8226 33.0287 39.8356 32.9594C39.8487 32.8901 39.8479 32.819 39.8333 32.75C39.7203 30.9436 39.464 29.1491 39.0667 27.3833ZM22.4 24.05C22.335 24.0268 22.2774 23.9865 22.2333 23.9333L22.7333 23.05C23.0714 22.5636 23.4628 22.1163 23.9 21.7167C24.1898 21.4325 24.4959 21.1654 24.8167 20.9167C25.1229 20.6968 25.4461 20.5017 25.7833 20.3333C25.7514 20.4197 25.7124 20.5034 25.6667 20.5833L24.1833 23.9167C23.6164 24.0226 23.0428 24.0894 22.4667 24.1167L22.4 24.05ZM22.9667 33.1667C22.9667 33.0333 22.6333 31.7833 22.6 31.25C22.5667 30.7167 22.6 30.3667 22.6 29.9333C23.0905 30.4292 23.6139 30.8914 24.1667 31.3167C24.4064 31.4932 24.6569 31.6546 24.9167 31.8C24.9167 31.8 23.2167 33.1667 23.0333 33.2333L22.9667 33.1667ZM31.6667 22.45C31.6213 22.5285 31.5974 22.6176 31.5974 22.7083C31.5974 22.799 31.6213 22.8881 31.6667 22.9667C31.4967 22.8721 31.3181 22.7939 31.1333 22.7333C30.5961 22.559 30.0264 22.5077 29.4667 22.5833L28.4167 22.9C28.1348 23.0001 27.8759 23.1557 27.6553 23.3578C27.4348 23.5598 27.257 23.8041 27.1327 24.0761C27.0083 24.3481 26.9399 24.6424 26.9314 24.9414C26.9229 25.2404 26.9746 25.538 27.0833 25.8167C27.2697 26.3717 27.5771 26.8784 27.9833 27.3C28.1782 27.4962 28.3902 27.6747 28.6167 27.8333C28.4167 28.1167 28.25 28.4167 28.0333 28.6833C27.6429 29.1851 27.1827 29.6285 26.6667 30C26.5333 30.1 26 30.45 26.0833 30.45C25.5958 30.3533 25.1206 30.2023 24.6667 30C24.1167 29.7167 23.6 29.4 23 29.1C23.3667 28.3667 23.7 27.7167 24 27.15C25 25.2667 25.7667 24.0167 27.1167 21.4167C27.85 19.9333 28.5 18.25 29.3333 16.7167C29.8103 15.7601 30.4473 14.892 31.2167 14.15C31.3861 13.9735 31.611 13.8607 31.8538 13.8303C32.0965 13.8 32.3423 13.854 32.55 13.9833C32.8138 14.1211 33.0425 14.3173 33.2188 14.5571C33.395 14.7969 33.514 15.0738 33.5667 15.3667C33.6931 16.3269 33.6193 17.303 33.35 18.2333C33.3333 18.6167 31.9833 21.7667 31.6667 22.45Z" fill="#6E9D3E"/>
<path d="M26.6667 34.6333C24.6107 35.8038 22.4584 36.7963 20.2333 37.6C18.8469 38.1287 17.3408 38.2614 15.8833 37.9833C15.2336 37.7586 14.6574 37.361 14.2167 36.8333C13.4709 35.9502 12.8227 34.9891 12.2833 33.9667C11.3833 32.4333 10.6167 30.8833 9.83333 29.3C8.68333 26.9 7.66667 24.4667 6.6 22C6.03333 20.75 5.56666 19.4833 5.11666 18.2167C4.38333 16.3 3.76666 14.3333 3.1 12.3667C2.96667 11.9833 2.2 10.7 1.83333 9.95001C2.39537 9.91784 2.95326 9.83416 3.5 9.70001C6.33564 8.96899 9.11955 8.0503 11.8333 6.95001C14.8979 5.80026 17.8728 4.42425 20.7333 2.83334C21.0044 2.6617 21.2511 2.45428 21.4667 2.21667C21.9091 2.86231 22.2992 3.54225 22.6333 4.25001C23.4833 6.15001 24.45 9.25001 25.4 11.7167C25.6833 12.4 25.9667 13.0333 26.2333 13.5667C26.2636 13.6305 26.3063 13.6876 26.3588 13.7347C26.4114 13.7819 26.4728 13.8182 26.5394 13.8414C26.6061 13.8647 26.6767 13.8745 26.7472 13.8702C26.8177 13.866 26.8866 13.8478 26.95 13.8167C27.0758 13.7522 27.1719 13.6418 27.2184 13.5084C27.265 13.3749 27.2584 13.2287 27.2 13.1C26.9105 12.5151 26.6545 11.9141 26.4333 11.3C25.5167 8.85001 24.6333 5.66667 23.8 3.73334C23.2672 2.61778 22.5455 1.60281 21.6667 0.733339C21.545 0.663125 21.4071 0.62616 21.2667 0.62616C21.1262 0.62616 20.9883 0.663125 20.8667 0.733339C20.4333 1.01667 20.7333 1.21667 19.8333 1.75001C16.3997 3.47609 12.8461 4.95214 9.2 6.16667C7.08225 6.93956 4.91659 7.57423 2.71666 8.06667C0.916665 8.33334 1.26666 7.86667 0.549998 8.21667C0.378335 8.30736 0.235693 8.44458 0.138419 8.6126C0.0411441 8.78062 -0.00682844 8.97265 -1.69064e-06 9.16667C0.347993 10.4686 0.81669 11.7352 1.4 12.95C2.06666 15 2.68333 16.9 3.33333 18.8333C3.81666 20.1333 4.31667 21.4333 4.9 22.7333C6.03333 25.1833 7.1 27.6167 8.23333 30C9.05 31.6667 9.9 33.1667 10.9 34.7167C11.5173 35.8122 12.2553 36.8352 13.1 37.7667C13.7261 38.4525 14.536 38.9443 15.4333 39.1833C17.1152 39.4904 18.8498 39.3112 20.4333 38.6667C22.6838 37.7674 24.8624 36.6976 26.95 35.4667C27.0582 35.4069 27.1383 35.3067 27.1727 35.1879C27.207 35.0692 27.1929 34.9417 27.1333 34.8333C27.0832 34.7585 27.0124 34.6998 26.9296 34.6643C26.8468 34.6288 26.7555 34.6181 26.6667 34.6333Z" fill="#6E9D3E"/>
<path d="M12.7333 12.9833C13.6039 12.8388 14.4842 12.7608 15.3667 12.75C16.3647 12.7311 17.3584 12.6139 18.3333 12.4C19.7061 12.1129 20.9371 11.359 21.8167 10.2667C21.9154 10.1668 21.9708 10.0321 21.9708 9.89166C21.9708 9.75125 21.9154 9.6165 21.8167 9.51666C21.7684 9.46572 21.7102 9.42515 21.6458 9.39743C21.5813 9.36971 21.5118 9.35541 21.4417 9.35541C21.3715 9.35541 21.302 9.36971 21.2376 9.39743C21.1731 9.42515 21.1149 9.46572 21.0667 9.51666C20.4694 10.1077 19.7284 10.5328 18.9167 10.75C17.9133 10.9513 16.8877 11.0185 15.8667 10.95C14.7148 10.9263 13.5637 11.0269 12.4333 11.25C11.5551 11.4797 10.7291 11.8758 10 12.4167C9.05198 13.1619 8.24484 14.0707 7.61667 15.1C7.57782 15.1958 7.57072 15.3016 7.59642 15.4017C7.62213 15.5019 7.67927 15.5912 7.75947 15.6565C7.83967 15.7217 7.93869 15.7596 8.04198 15.7644C8.14527 15.7692 8.24739 15.7408 8.33333 15.6833C8.93195 14.9917 9.62815 14.3909 10.4 13.9C11.1017 13.428 11.898 13.1151 12.7333 12.9833Z" fill="#6E9D3E"/>
<path d="M23 16.6667C23.0987 16.5668 23.1541 16.4321 23.1541 16.2917C23.1541 16.1513 23.0987 16.0165 23 15.9167C22.9517 15.8657 22.8936 15.8252 22.8291 15.7975C22.7646 15.7697 22.6952 15.7554 22.625 15.7554C22.5548 15.7554 22.4854 15.7697 22.4209 15.7975C22.3564 15.8252 22.2983 15.8657 22.25 15.9167C21.5747 16.3692 20.8151 16.6809 20.0167 16.8334C18.7667 17.1167 17.45 17.15 16.1167 17.3333C15.3599 17.4773 14.6218 17.7066 13.9167 18.0167C13.4413 18.2315 12.989 18.494 12.5667 18.8C11.5205 19.4974 10.6436 20.4199 10 21.5C9.93507 21.6049 9.91271 21.7307 9.9375 21.8515C9.96229 21.9724 10.0324 22.0792 10.1333 22.15C10.1852 22.187 10.2441 22.2129 10.3064 22.2262C10.3687 22.2395 10.433 22.2399 10.4955 22.2274C10.5579 22.215 10.6172 22.1898 10.6695 22.1536C10.7219 22.1173 10.7663 22.0707 10.8 22.0167C11.3562 21.3471 12.0279 20.7826 12.7833 20.35C13.3566 20.0314 13.9594 19.769 14.5833 19.5667C15.2014 19.3385 15.8368 19.1602 16.4833 19.0334C17.8167 18.7167 19.1667 18.55 20.4333 18.1167C21.3833 17.8239 22.2589 17.3293 23 16.6667Z" fill="#6E9D3E"/>
<path d="M16.5 24.7333C16.1602 24.8348 15.8309 24.9688 15.5167 25.1333C15.2088 25.2848 14.9182 25.4692 14.65 25.6833C14.0354 26.2074 13.4768 26.7939 12.9833 27.4333C12.8977 27.5232 12.85 27.6426 12.85 27.7667C12.85 27.8908 12.8977 28.0101 12.9833 28.1C13.0268 28.1443 13.0787 28.1796 13.1359 28.2036C13.1931 28.2277 13.2546 28.2401 13.3167 28.2401C13.3788 28.2401 13.4402 28.2277 13.4975 28.2036C13.5547 28.1796 13.6066 28.1443 13.65 28.1C14.3677 27.6771 15.1076 27.2932 15.8667 26.95C16.2167 26.7833 16.55 26.5833 16.9 26.4C17.25 26.2167 17.5833 26 17.95 25.8333C18.3104 25.6734 18.684 25.5452 19.0667 25.45C19.1368 25.4437 19.205 25.4236 19.2674 25.3909C19.3297 25.3581 19.385 25.3133 19.4299 25.2591C19.4748 25.2048 19.5086 25.1422 19.5292 25.0749C19.5498 25.0075 19.5569 24.9368 19.55 24.8667C19.546 24.7957 19.5274 24.7263 19.4954 24.6628C19.4634 24.5993 19.4185 24.5431 19.3638 24.4977C19.309 24.4524 19.2455 24.4188 19.1772 24.3991C19.1088 24.3794 19.0372 24.374 18.9667 24.3833C18.1303 24.3551 17.2955 24.4735 16.5 24.7333Z" fill="#6E9D3E"/>
</g>
<defs>
<clipPath id="clip0_1048_7419">
<rect width="40" height="40" fill="white"/>
</clipPath>
</defs>
</svg>
