<svg width="40" height="40" viewBox="0 0 40 40" fill="none" xmlns="http://www.w3.org/2000/svg">
<g clip-path="url(#clip0_1051_8727)">
<path fill-rule="evenodd" clip-rule="evenodd" d="M13 12.95C12.9459 12.9391 12.8899 12.9412 12.8367 12.9561C12.7836 12.9709 12.7347 12.9982 12.694 13.0356C12.6534 13.0729 12.6222 13.1194 12.6029 13.1712C12.5837 13.2229 12.577 13.2785 12.5833 13.3333C12.4333 14.2667 12.2333 15.2 12 16.1167C11.4333 18.2833 10.7 20.4333 10.1333 22.5833C9.96665 23.2333 9.48332 24.1 9.29999 24.9C9.18191 25.3422 9.18191 25.8077 9.29999 26.25C9.61344 26.9757 10.1746 27.5664 10.8833 27.9167C12.3098 28.5376 13.8115 28.9691 15.35 29.2C16.4667 29.45 17.5667 29.7 18.6833 29.9C19.4333 30.05 20.2 30.1667 20.95 30.2667C21.5393 30.3625 22.1376 30.3904 22.7333 30.35C23.2321 30.3013 23.7065 30.1104 24.1 29.8C24.6522 29.2966 25.0655 28.6595 25.3 27.95C25.6901 26.5304 25.9961 25.089 26.2167 23.6333C26.55 22.3833 27.25 19.8667 27.5833 18.6333C27.7247 18.1384 27.8141 17.6301 27.85 17.1167C27.8719 16.6807 27.7552 16.2489 27.5167 15.8833C27.1996 15.4657 26.7884 15.1288 26.3167 14.9C25.7139 14.5998 25.0831 14.3598 24.4333 14.1833C23.4158 13.8451 22.381 13.5614 21.3333 13.3333C18.9 12.85 16.3333 12.5667 13.9667 12.1167C13.8569 12.1008 13.7451 12.1261 13.6529 12.1876C13.5606 12.2492 13.4943 12.3426 13.4667 12.45C13.4468 12.5603 13.4704 12.6739 13.5326 12.7672C13.5947 12.8604 13.6906 12.9259 13.8 12.95C14.8167 13.1667 15.85 13.35 16.8833 13.5167C16.6333 14.5167 16.3667 15.5 16.1 16.4833L12.7667 16.1833C12.9667 15.25 13.15 14.3167 13.2667 13.3667C13.2822 13.2765 13.2635 13.1837 13.2142 13.1066C13.1648 13.0295 13.0884 12.9736 13 12.95ZM11.6667 20.7833C12.7531 20.9112 13.8323 21.0948 14.9 21.3333C14.9 21.5667 14.7833 21.7833 14.7333 22.0167C14.6167 22.5167 14.5167 23.0167 14.4 23.5167C13.2167 23.4167 12.0667 23.4 10.9333 23.4167C11.0167 23.1833 11.1 22.95 11.15 22.75C11.3 22.1 11.4833 21.45 11.6667 20.7833ZM10.4667 25.7833C10.3509 25.46 10.3509 25.1066 10.4667 24.7833C10.4667 24.6 10.5667 24.4333 10.6333 24.25L12.7167 24.55L14.0833 24.8167C13.9167 25.55 13.7333 26.2833 13.5333 27C13.5106 27.0889 13.5179 27.1829 13.554 27.2673C13.5902 27.3517 13.6532 27.4218 13.7333 27.4667C13.1675 27.3576 12.6105 27.2072 12.0667 27.0167C11.7231 26.9369 11.4008 26.784 11.1218 26.5683C10.8428 26.3525 10.6136 26.0791 10.45 25.7667L10.4667 25.7833ZM23.3333 28.65C23.0933 28.8136 22.8069 28.8954 22.5167 28.8833C22.1034 28.8859 21.6907 28.8524 21.2833 28.7833C20.3667 28.6667 19.45 28.5167 18.5333 28.35C17.6167 28.1833 16.6667 28 15.6833 27.8C15.2167 27.7 14.6167 27.6167 14.0167 27.5C14.0984 27.5025 14.1791 27.4799 14.2476 27.4352C14.3162 27.3905 14.3693 27.3259 14.4 27.25C14.6833 26.5 14.9667 25.7667 15.2333 25.0167L16.6833 25.2667C18.6667 25.6167 20.6833 25.95 22.55 26.4C22.6025 26.4153 22.6575 26.4201 22.7119 26.4142C22.7663 26.4082 22.819 26.3916 22.867 26.3653C22.915 26.339 22.9573 26.3035 22.9916 26.2609C23.0258 26.2182 23.0513 26.1692 23.0667 26.1167C23.0873 26.0643 23.0961 26.0081 23.0925 25.952C23.089 25.8959 23.0731 25.8412 23.0461 25.7919C23.019 25.7426 22.9815 25.6999 22.9361 25.6667C22.8907 25.6335 22.8385 25.6108 22.7833 25.6C21.4333 25.1 20.0167 24.6333 18.55 24.25C17.9333 24.0833 17.3167 23.95 16.6833 23.8333C16.35 23.8333 16.0167 23.7333 15.6667 23.6833C15.8 23.2833 15.9333 22.9 16.05 22.5167C16.1667 22.1333 16.2167 21.9167 16.2833 21.6333L17.2833 21.85L19.55 22.35C21.3667 22.75 23.1667 23.1667 24.9 23.6333C24.7167 24.5667 24.5667 25.7667 24.25 26.8667C24.1128 27.5336 23.7958 28.1503 23.3333 28.65ZM25 22.7833C23.6167 22.25 22.1833 21.7167 20.7167 21.2667C20.0333 21.0667 19.3667 20.8833 18.6667 20.7167C17.9667 20.55 17.2833 20.4333 16.5833 20.3333C16.7333 19.6667 16.8833 19.0167 17 18.35C17.0081 18.2001 17.0081 18.0499 17 17.9L19.3333 18.4167L21.7333 18.8833L25.9333 19.7L25 22.7833ZM21.1333 14.3333C22.15 14.5667 23.1667 14.8333 24.1667 15.15C24.7399 15.3319 25.2973 15.5604 25.8333 15.8333C26.1248 15.9897 26.3803 16.2055 26.5833 16.4667C26.6799 16.6328 26.7208 16.8256 26.7 17.0167C26.6546 17.436 26.5652 17.8494 26.4333 18.25L26.2667 18.75C24.85 18.3167 23.4333 17.8833 21.9833 17.5333C20.8333 17.25 19.6833 17.0167 18.5333 16.8167L17.25 16.65C17.4 15.65 17.5333 14.65 17.6667 13.6667C18.8167 13.8667 20 14.0833 21.1333 14.3333ZM15.5 18.75C15.3833 19.2167 15.2667 19.7167 15.1667 20.2C14.05 20.1 12.9333 20.05 11.8333 20.05C12.1167 19.0167 12.3667 17.9833 12.6167 16.95L15.8 17.6167L15.5 18.75Z" fill="#6E9D3E"/>
<path fill-rule="evenodd" clip-rule="evenodd" d="M27.1667 10.8833C26.823 10.844 26.483 10.7772 26.15 10.6833C26.2833 10.35 26.4833 9.96667 26.6667 9.55C27.6167 7.43333 28.2167 5.15 26.6667 3.45C26.6317 3.40732 26.5886 3.37196 26.5399 3.34593C26.4912 3.3199 26.4379 3.30371 26.3829 3.29829C26.272 3.28735 26.1612 3.32094 26.075 3.39167C25.9888 3.46239 25.9342 3.56446 25.9233 3.67542C25.9124 3.78638 25.9459 3.89714 26.0167 3.98333C27.6833 6.2 25 8.66667 24.4667 10.65C23.9333 12.6333 29.05 12.65 30.8833 12.0667L33.6333 11.3C34.3333 10.9833 33.9167 10.1667 33.5 10.25C30.1 11.0833 30 11.3 27.1667 10.8833Z" fill="#6E9D3E"/>
<path fill-rule="evenodd" clip-rule="evenodd" d="M28.5 2.29998C26.3833 1.86664 27.35 2.11664 13.1667 0.349976C13.0502 0.352111 12.9385 0.396217 12.852 0.47418C12.7655 0.552144 12.71 0.658723 12.6958 0.774314C12.6816 0.889904 12.7096 1.00673 12.7747 1.10331C12.8398 1.19989 12.9375 1.26973 13.05 1.29998C26.25 3.06664 26.6667 3.08331 28.3333 3.44998C30 3.81664 33.55 8.33331 34.4 9.99998C34.5928 10.2966 34.6862 10.6468 34.6667 11C34.2167 13.3666 32.3667 20.2333 31.8167 21.8C31.2667 23.3666 30.7667 24.5 30.3167 25.8833C30.1333 26.4166 28.65 32.9166 26.75 33.55C24.1333 34.4333 21.4667 33.3 18.85 33.2C17.1833 33.2 13.85 32.9666 11.7167 32.6333C3.38334 31.2833 3.75001 31.4666 1.61668 30.1C4.01668 27.55 6.23334 21.1666 7.43334 17.5166C8.4811 13.3939 9.29353 9.21496 9.86668 4.99998C10 4.26664 11.1833 0.483309 10 0.866642C9.50001 1.01664 9.56668 1.76664 9.51668 2.08331C9.18334 4.16664 7.73334 12.25 7.43334 13.5833C6.15729 18.5752 4.2178 23.3735 1.66668 27.85C1.35697 28.285 1.02312 28.7023 0.666677 29.1C0.400655 29.3649 0.175926 29.6683 1.05773e-05 30C-0.0519117 30.2362 -0.0302259 30.4826 0.0621485 30.7061C0.154523 30.9296 0.313151 31.1194 0.516677 31.25C1.41948 31.9348 2.42687 32.4694 3.50001 32.8333C8.5076 33.972 13.6044 34.6746 18.7333 34.9333C21.3833 35.0333 24.1833 36.2333 27.2167 35.2C29.9833 34.25 31.45 27.45 31.75 26.5C32.1833 25.1166 32.7333 23.7833 33.1833 22.4166C33.6333 21.05 35.4833 14.0833 35.95 11.3666C36.4 8.94998 30.6333 2.74998 28.5 2.29998Z" fill="#6E9D3E"/>
<path fill-rule="evenodd" clip-rule="evenodd" d="M38.5834 12.6333C38.1167 15 35.6334 24.4166 35.0834 25.9666C34.5334 27.5166 34.0334 28.6833 33.5834 30.0666C33.4 30.6 31.9167 37.0833 30.0167 37.7166C27.4 38.6 24.7334 37.4666 22.1167 37.3666C20.45 37.3666 17.1167 37.1333 14.9834 36.8C7.03335 35.5166 7.00002 35.85 5.16668 34.6833C4.08335 34.0833 3.66668 35.15 4.31668 35.7166C5.05216 36.2844 5.907 36.6776 6.81668 36.8666C11.8232 38.0142 16.9203 38.7225 22.05 38.9833C24.7 39.0833 27.5167 40.2666 30.5334 39.25C33.55 38.2333 34.7667 31.5 35 30.5333C35.4334 29.1666 35.9834 27.8333 36.4334 26.4666C36.8834 25.1 39.5 15.6833 40 13.0166C40.2167 11.6666 38.9167 11.2666 38.5834 12.6333Z" fill="#6E9D3E"/>
</g>
<defs>
<clipPath id="clip0_1051_8727">
<rect width="40" height="40" fill="white"/>
</clipPath>
</defs>
</svg>
