<svg width="40" height="40" viewBox="0 0 40 40" fill="none" xmlns="http://www.w3.org/2000/svg">
<g clip-path="url(#clip0_1035_4949)">
<path fill-rule="evenodd" clip-rule="evenodd" d="M39.8167 26.9333C38.9 25.1167 29.2167 25.7833 27.3333 26.3833C26.3167 26.7 26.2167 27.8667 25.9167 28.8167C25.0167 29.5333 17.05 29.45 15.9167 28.8167C15.6833 28.0667 15.7167 27.3167 15.15 26.75C14.3 25.9 12.6167 26.2167 7 26.3C5.42297 26.1573 3.83475 26.1964 2.26667 26.4167C1.01667 26.6667 -0.0999991 27.6833 8.70095e-07 28.7667C0.525011 30.9336 1.60483 32.9267 3.13333 34.55C6.26667 36.6167 10.9833 35.3167 14.5833 35.5167C28.9667 35.2 28.6667 34.9 30.4833 35.1667C30.549 35.1776 30.6162 35.1755 30.681 35.1605C30.7459 35.1455 30.8071 35.1178 30.8613 35.0791C30.9155 35.0405 30.9615 34.9915 30.9967 34.935C31.032 34.8785 31.0557 34.8157 31.0667 34.75C31.0776 34.6843 31.0755 34.6172 31.0605 34.5523C31.0455 34.4875 31.0178 34.4262 30.9791 34.372C30.9405 34.3179 30.8915 34.2719 30.835 34.2366C30.7785 34.2014 30.7157 34.1776 30.65 34.1667C28.8833 33.8667 29.0667 34.1667 14.6833 34.1667C11.35 33.8833 6.55 34.85 4.11667 33.1667C3.11038 31.8569 2.3585 30.3701 1.9 28.7833C2.63333 27.7833 5.55 28.2833 6.9 28.2833L12.3 28.1167C12.5833 28.1167 13.4167 28.5167 13.7 28.3167C13.8833 28.9833 13.9333 29.9 14.7167 30.4167C16.2 31.4 25.55 31.6833 27.1333 30.0667C27.6667 29.5333 27.6167 28.7167 27.9 28C29.7 27.4333 36.6 26.9667 38.5833 27.7C39.0333 28.85 36.9167 32.5333 35.9833 33.4333C35.5167 33.8833 33.4 33.8667 32.65 33.8667C32.5143 33.8899 32.3912 33.9603 32.3024 34.0655C32.2136 34.1708 32.1649 34.304 32.1649 34.4417C32.1649 34.5793 32.2136 34.7126 32.3024 34.8178C32.3912 34.923 32.5143 34.9935 32.65 35.0167C33.95 35.0167 35.9833 35.1 36.75 34.3333C38.3333 32.9833 40.7 28.7 39.8167 26.9333Z" fill="#6E9D3E"/>
<path fill-rule="evenodd" clip-rule="evenodd" d="M4 24.9C4.03758 25.0326 4.12629 25.1449 4.24662 25.2121C4.36696 25.2793 4.50906 25.2959 4.64167 25.2583C4.77428 25.2208 4.88653 25.1321 4.95373 25.0117C5.02093 24.8914 5.03758 24.7493 5 24.6167C4.07964 20.1303 3.61064 15.5631 3.6 10.9833C3.73334 8.91667 4.55 8.1 5.68334 7.73334C10.4667 6.06667 28.3333 5.38334 34.0167 7.38334C35.35 7.83334 35.8 7.85 36.1667 9.28334C36.2926 13.7325 36.1479 18.1851 35.7333 22.6167C35.7333 22.9667 35.5167 23.2833 35.6333 23.3167C35.5793 23.4374 35.5693 23.5733 35.6049 23.7007C35.6406 23.8281 35.7197 23.939 35.8285 24.0142C35.9374 24.0894 36.0691 24.1241 36.2009 24.1124C36.3326 24.1007 36.4562 24.0432 36.55 23.95C37.15 23.3667 38.0167 10.35 37.6833 8.95C37.2333 6.88334 36.3667 6.48334 34.5833 5.81667C28.1 3.33334 10.9667 4.03334 5.08334 6.13334C4.12628 6.49055 3.31287 7.15194 2.76793 8.01601C2.223 8.88008 1.97664 9.89909 2.06667 10.9167C2.24334 15.6306 2.89101 20.315 4 24.9Z" fill="#6E9D3E"/>
</g>
<defs>
<clipPath id="clip0_1035_4949">
<rect width="40" height="40" fill="white"/>
</clipPath>
</defs>
</svg>
