<svg width="40" height="40" viewBox="0 0 40 40" fill="none" xmlns="http://www.w3.org/2000/svg">
<g clip-path="url(#clip0_1048_7183)">
<path fill-rule="evenodd" clip-rule="evenodd" d="M39.3833 9.51668C39.1667 7.58335 39.2667 3.66668 37.8667 2.60001C34.6667 0.11668 27.6167 0.783347 23.1833 0.600014C17.3667 0.350014 11.25 0.833347 5.5 0.983347C5.34971 0.983347 5.20557 1.04305 5.0993 1.14932C4.99303 1.25559 4.93333 1.39972 4.93333 1.55001C4.93333 1.7003 4.99303 1.84444 5.0993 1.95071C5.20557 2.05698 5.34971 2.11668 5.5 2.11668C11.2667 2.03335 17.1667 1.65001 23.1 1.98335C27.1833 2.21668 34.1833 1.75001 36.85 3.86668C37.5167 4.40001 37.5333 8.31668 37.6667 9.68335C38.2276 14.5427 38.2723 19.4479 37.8 24.3167C37.723 25.9444 37.4715 27.5592 37.05 29.1333C33.1333 31.3167 4.3 33.0833 2.55 30.0333C2.05384 28.3973 1.75724 26.7073 1.66666 25C2.31666 24.85 13.1167 25 13.3333 25C21.6667 25 18.3333 24.5833 32.2 24.7667C37.2 24.6333 34.5 23.5833 32.2 23.5167C27.0333 23.15 24.4333 22.9 20.3167 22.95C14.6167 22.95 2.11666 23.85 1.63333 24.0167C1.13952 18.8858 1.20658 13.7164 1.83333 8.60001C1.83333 7.73335 1.98333 6.93335 2.1 6.03335C2.08589 4.97291 2.20346 3.91482 2.45 2.88335C2.52221 2.78706 2.55727 2.66796 2.54874 2.5479C2.54021 2.42785 2.48866 2.3149 2.40355 2.22979C2.31845 2.14469 2.2055 2.09314 2.08544 2.08461C1.96539 2.07607 1.84628 2.11113 1.75 2.18335C1.05 2.86668 1.18333 5.08335 1.06666 5.88335C0.949998 6.68335 0.833331 7.61668 0.733331 8.50001C0.073573 13.1692 -0.127386 17.8917 0.133331 22.6C0.174419 25.3628 0.549362 28.1105 1.25 30.7833C2.56666 33.2 10.85 33.3833 13.75 33.4333C12.9264 34.7326 12.5571 36.2684 12.7 37.8L9.11666 38.0667C9.04453 38.0533 8.97034 38.056 8.89936 38.0746C8.82838 38.0931 8.76235 38.1271 8.70596 38.174C8.64956 38.2209 8.60419 38.2797 8.57304 38.3461C8.5419 38.4125 8.52576 38.485 8.52576 38.5583C8.52576 38.6317 8.5419 38.7042 8.57304 38.7706C8.60419 38.837 8.64956 38.8958 8.70596 38.9427C8.76235 38.9896 8.82838 39.0236 8.89936 39.0421C8.97034 39.0607 9.04453 39.0634 9.11666 39.05C13.4737 39.4046 17.8472 39.5158 22.2167 39.3833C24.5167 39.2833 26.8833 39.0167 29.2833 38.8333C29.4149 38.8105 29.5341 38.742 29.6201 38.6399C29.706 38.5377 29.7532 38.4085 29.7532 38.275C29.7532 38.1415 29.706 38.0123 29.6201 37.9102C29.5341 37.808 29.4149 37.7395 29.2833 37.7167H26.2167C25.9981 36.1267 25.5489 34.5771 24.8833 33.1167C27.2 32.95 37.4667 32.1833 38.7 30.2167C39.3584 28.4103 39.7077 26.5058 39.7333 24.5833C40.2025 19.5646 40.085 14.5082 39.3833 9.51668ZM24.8667 37.6667C19.7 37.5333 17.7 37.5167 13.9667 37.6667C14.6622 36.3414 15.0871 34.8911 15.2167 33.4C17.6667 33.4 20.2167 33.4 23.2167 33.15C23.4122 34.7624 23.9769 36.3079 24.8667 37.6667Z" fill="#6E9D3E"/>
<path fill-rule="evenodd" clip-rule="evenodd" d="M19.8833 26.5C18.4667 25.75 16.7333 27.2 18 28.4834C18.1551 28.6297 18.3387 28.7424 18.5393 28.8145C18.7399 28.8867 18.9533 28.9166 19.166 28.9026C19.3788 28.8885 19.5863 28.8307 19.7757 28.7327C19.9651 28.6348 20.1322 28.4988 20.2667 28.3334C20.4172 28.029 20.4613 27.6829 20.3918 27.3505C20.3223 27.018 20.1433 26.7186 19.8833 26.5Z" fill="#6E9D3E"/>
<path fill-rule="evenodd" clip-rule="evenodd" d="M9.66666 17.15C9.60128 17.158 9.53823 17.1793 9.48137 17.2126C9.42452 17.2459 9.37507 17.2904 9.33605 17.3434C9.29703 17.3965 9.26927 17.457 9.25447 17.5212C9.23967 17.5854 9.23815 17.6519 9.24999 17.7167C9.36666 18.4834 10.0833 17.85 12.95 18.2167L13.0333 20.45C13.0192 20.5314 13.0231 20.6149 13.0446 20.6947C13.0662 20.7744 13.1049 20.8485 13.1581 20.9117C13.2113 20.9749 13.2776 21.0257 13.3525 21.0606C13.4274 21.0955 13.509 21.1135 13.5917 21.1135C13.6743 21.1135 13.7559 21.0955 13.8308 21.0606C13.9057 21.0257 13.972 20.9749 14.0252 20.9117C14.0784 20.8485 14.1172 20.7744 14.1387 20.6947C14.1603 20.6149 14.1641 20.5314 14.15 20.45L14.3167 18.3334C15.8515 18.4707 17.3939 18.5041 18.9333 18.4334C18.9333 19.6334 18.9333 19.4 19.0167 19.6334C19.0167 21.5 19.9333 21.7834 20.2667 18.4H25.0333C25.1167 19.1 25.0333 18.2667 25.2833 20.5667C25.1833 21.25 26.4167 21.3667 26.4333 20.4834V18.3834C29.1167 18.3834 29.4333 18.6167 29.4667 18.05C29.7667 17.1834 29.2667 17.2667 26.4667 17V13.5167L27.8833 13.3334C28.0155 13.3016 28.1318 13.2233 28.2111 13.1129C28.2903 13.0025 28.3273 12.8673 28.3151 12.7319C28.303 12.5965 28.2426 12.47 28.145 12.3754C28.0474 12.2808 27.919 12.2245 27.7833 12.2167H26.4667C26.4642 11.1021 26.3918 9.98885 26.25 8.88336C26.8106 8.84737 27.3677 8.76937 27.9167 8.65003C28.0426 8.56819 28.1308 8.43972 28.1621 8.29285C28.1933 8.14597 28.165 7.9927 28.0833 7.86669C27.7333 7.31669 26.7 7.25003 26.0333 7.25003C25.8852 6.33094 25.6736 5.42321 25.4 4.53336C25.394 4.46219 25.3729 4.39312 25.338 4.3308C25.3031 4.26849 25.2552 4.21437 25.1977 4.1721C25.1401 4.12983 25.0741 4.10039 25.0042 4.08575C24.9343 4.07111 24.8621 4.07162 24.7924 4.08724C24.7227 4.10286 24.6572 4.13323 24.6002 4.17631C24.5432 4.21939 24.4961 4.27417 24.4621 4.33697C24.4281 4.39977 24.4079 4.46913 24.4029 4.54038C24.398 4.61163 24.4083 4.68312 24.4333 4.75003C24.5547 5.58367 24.6215 6.42435 24.6333 7.26669C23.45 7.26669 23.15 7.10003 19.8333 7.16669C19.7858 6.29085 19.6347 5.4237 19.3833 4.58336C19.05 3.98336 18.5333 4.35003 18.5333 5.10003V7.21669C15.4 7.33336 16.6333 7.35003 14.5 7.46669C14.25 4.66669 14.5 4.93336 14.25 4.58336C14.1648 4.53362 14.0689 4.50503 13.9704 4.50001C13.8719 4.49498 13.7736 4.51366 13.6838 4.55448C13.594 4.5953 13.5153 4.65706 13.4543 4.73459C13.3934 4.81212 13.3519 4.90314 13.3333 5.00003C13.25 5.51669 13.1667 6.85003 13.1167 7.51669C12.9667 7.51669 10.5167 7.51669 10.3667 7.63336C10.26 7.66161 10.1657 7.72432 10.0984 7.81174C10.0312 7.89916 9.99468 8.00638 9.99468 8.11669C9.99468 8.22701 10.0312 8.33422 10.0984 8.42165C10.1657 8.50907 10.26 8.57178 10.3667 8.60003C11.2371 8.75084 12.117 8.83995 13 8.86669C12.9 10.0667 12.8833 10.2334 12.85 11.9334C11.8512 12.1418 10.8364 12.2645 9.81666 12.3C9.7531 12.2906 9.68831 12.294 9.62608 12.31C9.56384 12.3259 9.50541 12.3541 9.4542 12.3929C9.40299 12.4317 9.36003 12.4803 9.32783 12.5359C9.29563 12.5915 9.27483 12.653 9.26666 12.7167C9.14999 13.5667 10.7 13.3667 12.85 13.3334V16.8167C11.7815 16.8396 10.7167 16.951 9.66666 17.15ZM14.45 16.8C14.5333 15.6667 14.6167 14.55 14.6833 13.4667C16.8 13.6167 16.9667 13.6334 18.4667 13.6667C18.4667 14.65 18.6333 15.65 18.7333 16.6334L14.45 16.8ZM24.8833 16.8C23.3905 16.6144 21.8877 16.5197 20.3833 16.5167V13.6C21.1 13.6 24.6667 13.5 24.6667 13.5C24.7333 15.3834 24.7667 15.6334 24.8833 16.8167V16.8ZM24.6167 8.66669V12C22.7167 11.8334 22.95 11.8334 20.2833 11.7167C20.2833 10.7667 20.1333 9.83336 20.0333 8.90003L24.6167 8.66669ZM18.45 9.03336C18.3333 11.4167 18.3333 10.9834 18.3333 11.6667C17.1065 11.599 15.8768 11.599 14.65 11.6667C14.6679 10.7152 14.629 9.76352 14.5333 8.81669C15.8833 9.01669 17.1667 9.06669 18.45 9.03336Z" fill="#6E9D3E"/>
</g>
<defs>
<clipPath id="clip0_1048_7183">
<rect width="40" height="40" fill="white"/>
</clipPath>
</defs>
</svg>
