<svg width="40" height="40" viewBox="0 0 40 40" fill="none" xmlns="http://www.w3.org/2000/svg">
<path fill-rule="evenodd" clip-rule="evenodd" d="M39.6167 23.6C38.9167 22.9167 37.4333 23.2167 36.5 23.2167L28.65 23.5167C29.5833 22.8167 25.6667 12.9833 22.7333 6.48334L22.5333 5.78334C24.115 5.00915 25.8558 4.61534 27.6167 4.63334C27.6167 6.66667 31.6667 15.6833 33.0833 18.8333C33.0833 18.9667 34.6167 22.6667 34.75 22.8C34.861 22.9031 35.0068 22.9604 35.1583 22.9604C35.3098 22.9604 35.4557 22.9031 35.5667 22.8C35.9 22.4667 34.3667 18.1333 34.4167 18.2667C29.4167 5.26667 29.4167 3.11668 28.2167 2.93334C26.55 2.70001 23.5667 4.10001 22.1333 4.85001C20.7 5.60001 21.8 6.91667 22.3667 9.06667C22.5 9.45001 22.45 9.21668 21.9 9.21668C21.0258 9.24622 20.1558 9.35218 19.3 9.53334C18.95 7.86667 18.2833 7.63334 17.2833 7.51668C16.0331 7.42501 14.7769 7.45851 13.5333 7.61668C13.1008 7.60961 12.6692 7.66005 12.25 7.76667C12.5 5.61667 12.25 4.65001 10.4 3.96668C8.43913 3.22248 6.28524 3.15792 4.28333 3.78334C3.24999 4.15001 2.76666 4.70001 2.61666 6.33334C2.53333 7.21667 2.69999 23.2333 3.28333 24.8833C2.36999 25.0618 1.46833 25.2956 0.583327 25.5833C-0.750006 26.05 0.699994 28.9167 1.38333 30.2667C2.33333 32.1167 1.38333 31.1 5.28333 31.0833C4.73551 32.1841 4.47194 33.4046 4.51666 34.6333C4.68333 36.3 6.04999 37.6 8.98333 36.9C11.0833 36.2667 10.3167 33.75 10.2167 32.2667C10.2167 32.0667 10.05 31.3 9.96666 30.9667C12.4167 30.85 14.7167 30.7167 18.1 30.3833C19.8833 30.2 21.7167 30.3833 23.5167 30.2833C24.9833 30.2833 26.7667 29.8833 29.1 29.6167C28.9999 31.1094 28.9999 32.6072 29.1 34.1C29 35.15 29.4 35.8667 30.7667 36.3C31.4221 36.5786 32.1496 36.6398 32.8424 36.4749C33.5353 36.3099 34.157 35.9274 34.6167 35.3833C35.25 34.35 34.85 30.7833 34.6167 29.6C35.6426 30.0169 36.7907 30.0169 37.8167 29.6C38.719 28.9151 39.3173 27.904 39.4833 26.7833C39.5167 26.1667 40.5333 24.5167 39.6167 23.6ZM12.0833 8.96667C13.2778 8.80393 14.4888 8.80393 15.6833 8.96667C16.1218 9.00361 16.5566 9.07607 16.9833 9.18334C17.1333 9.18334 17.5167 9.18334 17.45 9.31668C17.0167 10 18.3333 23.3333 18.3333 23.3333C18.425 23.3973 18.5316 23.4366 18.6428 23.4473C18.7541 23.458 18.8662 23.4399 18.9684 23.3947C19.0706 23.3495 19.1594 23.2786 19.2263 23.1891C19.2931 23.0995 19.3357 22.9942 19.35 22.8833C19.6 21.4333 19.55 12.7833 19.5167 12.0833C19.3833 10.2833 19.25 10.4167 21.6 10.55C21.7643 10.5656 21.9263 10.5992 22.0833 10.65C22.2269 11.25 22.2886 11.8668 22.2667 12.4833C22.6 14.9167 22.2667 16.1 22.8167 19.8167L23.1 22.1833C23.2333 22.7333 22.95 23.55 23.65 23.4833C24.4667 23.7167 24.5167 23.15 24.3667 15.2667C24.6833 16.1667 25.05 17.0333 25.45 17.9C28.0667 23.7167 27.7667 23.4167 27.9333 23.5167C22.3711 23.3754 16.8054 23.5702 11.2667 24.1C11.25 23.8833 12 9.60001 12.0833 8.96667ZM4.43333 6.95001C4.74999 3.33334 10.25 6.16667 10.4 6.10001C10.4848 7.1343 10.4457 8.17502 10.2833 9.20001C10.1833 10.7 9.99999 17.9833 10.2833 21.95C10.2833 22.75 10.1333 23.45 10.1167 24.1833C8.16292 24.2263 6.21419 24.3989 4.28333 24.7C4.04999 23.7333 4.36666 10.8167 4.43333 6.95001ZM8.76666 34.2667C8.76666 34.4333 8.66666 35.0167 8.49999 35.05C7.95246 35.1836 7.38086 35.1836 6.83333 35.05C5.16666 34.55 6.43333 31.4667 6.03333 31C9.13333 31 8.71666 30.85 8.76666 31C8.46666 31.2667 9.04999 31.6667 8.76666 34.2667ZM33.1167 34.2667C32.9833 34.5833 31.2667 34.5833 30.7667 34.3667C30.7667 34.2 30.55 33.2333 30.0167 29.4833C31.1261 29.3983 32.2405 29.3983 33.35 29.4833C33.1645 31.0819 33.0865 32.691 33.1167 34.3V34.2667ZM37.5167 26.25C37.2 27.55 37.0667 28.2167 35.85 27.9167C32.3 27.0667 28.2167 27.9167 24.6833 28.5C22.55 28.8333 20.1333 28.6 17.9 28.8667C15.6667 29.1333 13.0333 29.4167 10.6 29.6C10.1667 29.6 2.46666 30.15 2.26666 29.7667C2.06666 29.3833 1.98333 26.95 1.29999 26.5333C5.54999 25.2833 10.0333 25.7333 14.6333 25.4167C19.7833 25.0667 24.9 25.4167 29.1833 25.4167C34.9 25.4167 35 25.0167 37.5167 25.3C37.5333 25.7167 37.5333 26.1667 37.5167 26.2833V26.25Z" fill="#6E9D3E"/>
<path fill-rule="evenodd" clip-rule="evenodd" d="M7.81667 17.4167H7.11667C6.89634 17.4313 6.67832 17.4704 6.46667 17.5334C5.95001 17.6667 5.51667 17.8834 4.98334 18.0167C4.85364 18.021 4.7307 18.0756 4.64051 18.1689C4.55032 18.2622 4.49993 18.3869 4.50001 18.5167C4.4994 18.6455 4.54692 18.7698 4.63325 18.8654C4.71957 18.961 4.83849 19.0209 4.96667 19.0334C5.57185 19.2248 6.19931 19.3368 6.83334 19.3667C7.1934 19.3728 7.55252 19.3279 7.90001 19.2334C8.41667 19.1334 8.90001 18.9334 9.41667 18.85C9.48893 18.8545 9.56136 18.8447 9.62983 18.8212C9.69829 18.7976 9.76143 18.7608 9.81562 18.7128C9.86982 18.6648 9.914 18.6066 9.94564 18.5415C9.97728 18.4763 9.99576 18.4056 10 18.3334C10.0093 18.1857 9.9604 18.0403 9.86385 17.9281C9.76731 17.816 9.63074 17.7461 9.48334 17.7334C8.93834 17.5783 8.38056 17.4723 7.81667 17.4167Z" fill="#6E9D3E"/>
<path fill-rule="evenodd" clip-rule="evenodd" d="M15.3333 17.4167H14.6C14.3631 17.4298 14.1283 17.4689 13.9 17.5334C13.3333 17.6667 12.8667 17.8834 12.2333 18.0167C12.1143 18.0383 12.0066 18.1011 11.9291 18.194C11.8515 18.2869 11.8091 18.404 11.8091 18.525C11.8091 18.646 11.8515 18.7632 11.9291 18.8561C12.0066 18.949 12.1143 19.0117 12.2333 19.0334C12.89 19.2239 13.5669 19.3358 14.25 19.3667C14.6376 19.3737 15.0243 19.3288 15.4 19.2334C15.95 19.1334 16.4667 18.9334 17.0667 18.85C17.2024 18.8268 17.3255 18.7564 17.4143 18.6512C17.5031 18.5459 17.5517 18.4127 17.5517 18.275C17.5517 18.1373 17.5031 18.0041 17.4143 17.8989C17.3255 17.7936 17.2024 17.7232 17.0667 17.7C16.4976 17.5584 15.9179 17.4636 15.3333 17.4167Z" fill="#6E9D3E"/>
<path fill-rule="evenodd" clip-rule="evenodd" d="M29.1167 14.3833C28.9395 14.4295 28.7667 14.4909 28.6 14.5667C28.4352 14.645 28.2788 14.7399 28.1333 14.85C27.7833 15.1167 27.5333 15.4333 27.1667 15.7C27.0641 15.7566 26.9866 15.8498 26.9495 15.9609C26.9125 16.0721 26.9186 16.1931 26.9667 16.3C27.05 16.5667 27.3 16.7333 27.4833 16.6667C28.0062 16.6829 28.5286 16.6211 29.0333 16.4833C29.3014 16.3871 29.5541 16.2524 29.7833 16.0833C30.15 15.8333 30.45 15.5333 30.8167 15.3C30.9359 15.2421 31.0283 15.1407 31.0748 15.0166C31.1214 14.8925 31.1184 14.7553 31.0667 14.6333C31.0384 14.5006 30.9607 14.3836 30.8492 14.3061C30.7377 14.2287 30.6009 14.1967 30.4667 14.2167C30.0113 14.2134 29.5575 14.2695 29.1167 14.3833Z" fill="#6E9D3E"/>
</svg>
