<svg width="40" height="40" viewBox="0 0 40 40" fill="none" xmlns="http://www.w3.org/2000/svg">
<g clip-path="url(#clip0_1051_8681)">
<path fill-rule="evenodd" clip-rule="evenodd" d="M9.01666 34.0333C8.88392 33.6058 8.64944 33.2169 8.33333 32.9C8.10835 32.6742 7.84253 32.4932 7.55 32.3667C8.18813 31.8202 8.64693 31.0942 8.86666 30.2833C9.01463 29.815 9.06332 29.3209 9.00962 28.8327C8.95592 28.3444 8.80102 27.8727 8.55479 27.4477C8.30856 27.0227 7.97643 26.6537 7.57959 26.3643C7.18274 26.0748 6.72991 25.8713 6.25 25.7667C6.5082 25.1895 6.80903 24.6325 7.15 24.1C7.3 23.8667 7.43333 23.6333 7.56666 23.4C7.69285 23.1486 7.83193 22.9038 7.98333 22.6667C8.12602 22.4577 8.28782 22.2624 8.46666 22.0833H8.58333C9.26582 22.1314 9.95084 22.1314 10.6333 22.0833C11.0667 22.5333 11.4 23.0167 11.7833 23.5C12.1667 23.9833 12.2167 24.0167 12.6333 24.5333C13.05 25.05 13.5667 24.2333 13.4667 23.3833C13.3667 22.5333 13.3667 22.4167 12.9333 22.0333C12.7177 21.7813 12.4714 21.5574 12.2 21.3667C12.8267 20.834 13.2795 20.1258 13.5 19.3333C13.6525 18.8514 13.7003 18.3424 13.6402 17.8405C13.5801 17.3386 13.4135 16.8553 13.1516 16.423C12.8897 15.9907 12.5384 15.6192 12.1214 15.3336C11.7043 15.048 11.2311 14.8547 10.7333 14.7667C10.1488 14.6659 9.55124 14.6659 8.96666 14.7667C8.51953 14.8438 8.09363 15.0142 7.71666 15.2667C7.11072 15.6906 6.62285 16.262 6.29915 16.9269C5.97545 17.5918 5.8266 18.3283 5.86666 19.0667C5.89622 19.5194 6.01789 19.9614 6.22423 20.3655C6.43057 20.7696 6.71724 21.1273 7.06666 21.4167C6.66404 21.5868 6.2835 21.8051 5.93333 22.0667C5.67513 22.322 5.4561 22.614 5.28333 22.9333C5.11585 23.252 4.9818 23.5871 4.88333 23.9333C4.75218 24.5183 4.69617 25.1176 4.71666 25.7167C4.58902 25.7083 4.46097 25.7083 4.33333 25.7167C3.8833 25.7924 3.45276 25.9567 3.06666 26.2C2.46525 26.6283 1.98081 27.2005 1.65763 27.8644C1.33444 28.5282 1.18283 29.2625 1.21666 30C1.24399 30.4556 1.3646 30.9008 1.57102 31.3079C1.77743 31.715 2.06526 32.0754 2.41666 32.3667C2.01458 32.531 1.634 32.7437 1.28333 33C1.02869 33.2645 0.810131 33.5615 0.63333 33.8833C0.463159 34.1949 0.328963 34.5248 0.23333 34.8667C0.0420374 35.6232 -0.036587 36.4038 -3.30593e-06 37.1833C-0.0167071 37.2679 -0.0159953 37.3549 0.00208869 37.4391C0.0201727 37.5233 0.0552486 37.603 0.105171 37.6732C0.155093 37.7434 0.218813 37.8027 0.292432 37.8474C0.366051 37.8921 0.448021 37.9214 0.53333 37.9333C0.704682 37.9533 0.877227 37.9076 1.01634 37.8056C1.15545 37.7036 1.25082 37.5528 1.28333 37.3833C1.57795 36.5401 1.98135 35.7389 2.48333 35C2.63333 34.7833 2.76666 34.55 2.9 34.3167C3.02803 34.0575 3.17278 33.807 3.33333 33.5667C3.48444 33.3642 3.64576 33.1695 3.81666 32.9833H3.93333C4.61614 33.0211 5.30052 33.0211 5.98333 32.9833C6.41666 33.45 6.75 33.9333 7.13333 34.4C7.51666 34.8667 7.58333 34.95 7.8 35.2167C7.9574 35.3835 8.10224 35.5618 8.23333 35.75C8.66666 36.3167 9.38333 35 9.01666 34.0333ZM8.85 17.0167C9.03707 16.909 9.25102 16.8569 9.46666 16.8667C9.74777 16.8165 10.0356 16.8165 10.3167 16.8667C10.5499 16.9026 10.7729 16.9877 10.9708 17.1163C11.1687 17.2449 11.337 17.4141 11.4646 17.6126C11.5923 17.8111 11.6763 18.0345 11.7111 18.2679C11.7459 18.5014 11.7308 18.7395 11.6667 18.9667C11.6246 19.3385 11.4955 19.6953 11.29 20.008C11.0844 20.3207 10.808 20.5806 10.4833 20.7667C10.3992 20.7825 10.3195 20.8166 10.25 20.8667C10.0243 20.9668 9.78021 21.0186 9.53333 21.0186C9.28645 21.0186 9.04232 20.9668 8.81666 20.8667C8.41341 20.7748 8.05872 20.5363 7.82154 20.1974C7.58436 19.8586 7.48164 19.4437 7.53333 19.0333C7.55895 18.6118 7.69381 18.2043 7.92467 17.8507C8.15552 17.4971 8.47441 17.2097 8.85 17.0167ZM7.08333 29.9C7.03326 30.2671 6.89886 30.6177 6.69067 30.9242C6.48248 31.2307 6.20615 31.4848 5.88333 31.6667C5.79946 31.692 5.72054 31.7314 5.65 31.7833C5.42435 31.8835 5.18021 31.9352 4.93333 31.9352C4.68645 31.9352 4.44232 31.8835 4.21666 31.7833C3.82288 31.6922 3.47563 31.4611 3.23954 31.1331C3.00346 30.805 2.89464 30.4023 2.93333 30C2.96103 29.5897 3.09158 29.1929 3.31294 28.8463C3.53431 28.4997 3.83937 28.2144 4.2 28.0167C4.39794 27.9219 4.61392 27.8708 4.83333 27.8667C5.11013 27.8336 5.38987 27.8336 5.66666 27.8667C5.89856 27.8956 6.12179 27.973 6.32185 28.0937C6.52191 28.2145 6.69433 28.376 6.82793 28.5678C6.96152 28.7595 7.0533 28.9772 7.0973 29.2067C7.1413 29.4362 7.13654 29.6725 7.08333 29.9Z" fill="#6E9D3E"/>
<path fill-rule="evenodd" clip-rule="evenodd" d="M27.9333 30.7834C27.5 29.5 27.0833 28.2 26.7333 26.8834L25.5 23C25.3839 22.612 25.239 22.2332 25.0667 21.8667C24.9677 21.6563 24.8257 21.469 24.65 21.3167C24.2439 21.1044 23.7916 20.9956 23.3333 21C21.9 21 18.4833 20.9 17.6167 20.8C17.1753 20.7353 16.7293 20.7074 16.2833 20.7167C15.9349 20.7415 15.6002 20.8626 15.3167 21.0667C15.1667 21.2399 15.0583 21.4451 15 21.6667C14.8776 21.9662 14.7719 22.2722 14.6833 22.5834C14.6833 22.5834 13.4667 25.5334 13.5 25.5834C13.5333 25.6334 9.35 34.8 9.2 37.0834C9.25343 37.2467 9.36932 37.3821 9.52236 37.4602C9.67539 37.5383 9.85311 37.5526 10.0167 37.5C10.1192 37.4655 10.2105 37.404 10.281 37.3218C10.3514 37.2397 10.3983 37.14 10.4167 37.0334C10.5426 36.9464 10.6317 36.8157 10.6667 36.6667L15.1833 26.3334L16.6667 23.3334C16.6667 23.3334 16.9167 22.9834 17 22.7667C17.1741 22.8333 17.3523 22.889 17.5333 22.9334C18.4167 23.0167 21.9 23.0334 23.35 23.1H23.5C23.5337 23.3023 23.5782 23.5026 23.6333 23.7L25.0167 27.3667C25.45 28.6834 25.95 30 26.4833 31.3C27.1833 32.9667 27.9333 34.6334 28.7 36.3C28.1942 36.1745 27.6825 36.0743 27.1667 36C26.0667 35.8667 24.9667 35.8167 23.8333 35.7C22.7 35.5834 22.1667 35.55 21.3 35.5167C20.0216 35.4778 18.7421 35.5056 17.4667 35.6C15.3342 35.8142 13.2183 36.1705 11.1333 36.6667C10.9916 36.7004 10.8676 36.7859 10.7857 36.9064C10.7038 37.0269 10.67 37.1737 10.6909 37.3179C10.7118 37.4621 10.7859 37.5933 10.8986 37.6856C11.0113 37.7779 11.1545 37.8247 11.3 37.8167C12.1333 37.8167 12.9667 37.7167 13.7833 37.7H18.7833C20.45 37.7 22.1167 37.6167 23.7833 37.7C24.8833 37.7 25.9833 37.5834 27.1167 37.5834C27.803 37.5753 28.4888 37.6255 29.1667 37.7334C29.6 37.7334 29.9667 37.5167 29.9667 37.2667C29.515 35.0411 28.8336 32.8683 27.9333 30.7834Z" fill="#6E9D3E"/>
<path fill-rule="evenodd" clip-rule="evenodd" d="M39.7667 34.8167C39.671 34.4748 39.5368 34.1449 39.3667 33.8333C39.1899 33.5115 38.9713 33.2145 38.7167 32.95C38.3657 32.7035 37.9917 32.4914 37.6 32.3167C37.9455 32.0311 38.2299 31.6787 38.4361 31.2806C38.6423 30.8826 38.766 30.447 38.8 30C38.8335 29.2607 38.68 28.525 38.3537 27.8607C38.0275 27.1965 37.5389 26.6253 36.9333 26.2C36.5537 25.9559 36.1284 25.7915 35.6833 25.7167C35.5501 25.7083 35.4165 25.7083 35.2833 25.7167C35.3038 25.1176 35.2478 24.5183 35.1167 23.9333C35.0182 23.5871 34.8841 23.252 34.7167 22.9333C34.5439 22.614 34.3249 22.322 34.0667 22.0667C33.7165 21.8051 33.3359 21.5868 32.9333 21.4167C33.2828 21.1273 33.5694 20.7696 33.7758 20.3655C33.9821 19.9614 34.1038 19.5194 34.1333 19.0667C34.1734 18.3283 34.0245 17.5918 33.7008 16.9269C33.3771 16.262 32.8893 15.6906 32.2833 15.2667C31.9064 15.0142 31.4805 14.8438 31.0333 14.7667C30.4487 14.6659 29.8512 14.6659 29.2667 14.7667C28.7689 14.8547 28.2956 15.048 27.8786 15.3336C27.4615 15.6192 27.1103 15.9907 26.8484 16.423C26.5864 16.8553 26.4199 17.3386 26.3598 17.8405C26.2997 18.3424 26.3475 18.8514 26.5 19.3333C26.7158 20.146 27.1753 20.873 27.8167 21.4167C27.3248 21.921 26.9344 22.5151 26.6667 23.1667C26.3 23.9333 26.9 24.8333 27.3667 24.5C27.25 24.5 28.1 23.8333 28.3167 23.55C28.5333 23.2667 29.0333 22.5833 29.4667 22.1333C30.1491 22.1814 30.8342 22.1814 31.5167 22.1333H31.6333C31.8122 22.3124 31.974 22.5077 32.1167 22.7167C32.2681 22.9538 32.4071 23.1986 32.5333 23.45C32.6667 23.6833 32.8 23.9167 32.95 24.15C33.2936 24.6809 33.5945 25.2382 33.85 25.8167C33.3722 25.9212 32.9215 26.1243 32.5266 26.4129C32.1317 26.7015 31.8014 27.0693 31.5567 27.4928C31.312 27.9163 31.1583 28.3861 31.1055 28.8724C31.0527 29.3586 31.1019 29.8505 31.25 30.3167C31.4699 31.1228 31.929 31.8434 32.5667 32.3833C32.2631 32.502 31.968 32.6412 31.6833 32.8C31.4207 32.9948 31.2044 33.2452 31.05 33.5333C30.714 34.0021 30.4966 34.5455 30.4167 35.1167C30.1833 36.5 31.0167 36.9 31.2333 36.5833C31.45 36.2667 32.0667 35.6167 32.3 35.3333C32.5333 35.05 32.75 34.8 32.9667 34.5167C33.1833 34.2333 33.6833 33.5667 34.1167 33.1C34.8048 33.1461 35.4952 33.1461 36.1833 33.1H36.2833C36.458 33.2769 36.6195 33.4663 36.7667 33.6667C36.9215 33.9075 37.0607 34.158 37.1833 34.4167C37.3167 34.65 37.45 34.8833 37.6 35.1C38.0962 35.8398 38.4939 36.6409 38.7833 37.4833C38.8158 37.6528 38.9112 37.8036 39.0503 37.9056C39.1894 38.0076 39.362 38.0533 39.5333 38.0333C39.6186 38.0214 39.7006 37.9921 39.7742 37.9474C39.8478 37.9027 39.9116 37.8434 39.9615 37.7732C40.0114 37.703 40.0465 37.6233 40.0646 37.5391C40.0826 37.4549 40.0834 37.3679 40.0667 37.2833C40.0968 36.4505 39.9956 35.618 39.7667 34.8167ZM29.7667 20.8667C29.6972 20.8166 29.6175 20.7825 29.5333 20.7667C29.2055 20.5826 28.9259 20.3235 28.7173 20.0107C28.5088 19.6978 28.3772 19.3401 28.3333 18.9667C28.2801 18.7404 28.2748 18.5054 28.3178 18.2769C28.3608 18.0484 28.4511 17.8314 28.583 17.6399C28.7148 17.4484 28.8853 17.2866 29.0834 17.165C29.2815 17.0433 29.5029 16.9644 29.7333 16.9333C30.0144 16.8831 30.3022 16.8831 30.5833 16.9333C30.799 16.9236 31.0129 16.9756 31.2 17.0833C31.5593 17.2783 31.8638 17.5608 32.0852 17.9045C32.3065 18.2482 32.4377 18.6422 32.4667 19.05C32.4578 19.375 32.3705 19.6929 32.2122 19.9769C32.0539 20.2608 31.8294 20.5023 31.5576 20.6807C31.2859 20.8591 30.9751 20.9692 30.6516 21.0016C30.3282 21.034 30.0017 20.9877 29.7 20.8667H29.7667ZM34.4 31.8C34.3387 31.7569 34.2713 31.7232 34.2 31.7C33.873 31.5149 33.5941 31.2555 33.3857 30.9429C33.1773 30.6302 33.0451 30.273 33 29.9C32.9468 29.6725 32.942 29.4362 32.986 29.2067C33.03 28.9772 33.1218 28.7595 33.2554 28.5678C33.389 28.376 33.5614 28.2145 33.7615 28.0937C33.9615 27.973 34.1848 27.8956 34.4167 27.8667C34.6935 27.8336 34.9732 27.8336 35.25 27.8667C35.4694 27.8708 35.6854 27.9219 35.8833 28.0167C36.2315 28.2225 36.5233 28.5114 36.7327 28.8574C36.9421 29.2035 37.0626 29.5961 37.0833 30C37.0746 30.3229 36.9879 30.6389 36.8305 30.921C36.673 31.203 36.4496 31.4428 36.1794 31.6197C35.9091 31.7966 35.6 31.9054 35.2785 31.9368C34.957 31.9682 34.6327 31.9213 34.3333 31.8H34.4Z" fill="#6E9D3E"/>
<path fill-rule="evenodd" clip-rule="evenodd" d="M22.3667 8.90002C22.25 9.03335 22.1167 9.13335 22 9.25002C21.3 9.35002 21.4333 10.3167 22 10.5167C22.4849 11.03 22.9202 11.5881 23.3 12.1834C23.5667 12.5722 23.8167 12.9722 24.05 13.3834C24.2269 13.6402 24.3883 13.9073 24.5333 14.1834C24.8757 14.788 25.1284 15.4393 25.2833 16.1167C25.292 16.2862 25.3665 16.4455 25.4911 16.5608C25.6157 16.676 25.7804 16.7379 25.95 16.7334C26.0346 16.7312 26.118 16.7122 26.1951 16.6773C26.2723 16.6424 26.3417 16.5924 26.3991 16.5303C26.4566 16.4681 26.5011 16.3951 26.5299 16.3154C26.5586 16.2358 26.5711 16.1512 26.5667 16.0667C26.6765 15.0567 26.5743 14.0349 26.2667 13.0667C26.1348 12.6503 25.9499 12.2526 25.7167 11.8834C25.4987 11.5038 25.2295 11.1561 24.9167 10.85C24.4387 10.4392 23.9058 10.097 23.3333 9.83335C23.5561 9.6217 23.7622 9.39325 23.95 9.15002C24.289 8.70372 24.5309 8.19142 24.6601 7.64604C24.7892 7.10067 24.8028 6.5343 24.7 5.98335C24.4995 4.85664 23.9096 3.83615 23.0333 3.10002C22.3933 2.54984 21.6045 2.20183 20.7667 2.10002C19.9429 2.00855 19.1096 2.13499 18.35 2.46669C17.6826 2.7971 17.0926 3.26488 16.6186 3.83934C16.1447 4.41381 15.7976 5.08197 15.6 5.80002C15.3847 6.51843 15.3802 7.28354 15.587 8.00443C15.7938 8.72532 16.2033 9.37168 16.7667 9.86669C16.7667 9.86669 16.9333 9.86669 17.0167 10.0167C16.6694 10.1735 16.3351 10.3574 16.0167 10.5667C15.6624 10.8428 15.3384 11.1557 15.05 11.5C14.7763 11.8453 14.5415 12.2198 14.35 12.6167C13.9184 13.5142 13.6154 14.468 13.45 15.45C13.421 15.531 13.4084 15.6169 13.4129 15.7027C13.4174 15.7886 13.4388 15.8727 13.476 15.9502C13.5132 16.0277 13.5655 16.097 13.6296 16.1542C13.6938 16.2114 13.7687 16.2553 13.85 16.2834C14.0114 16.3367 14.1873 16.3247 14.3399 16.2499C14.4926 16.1752 14.6099 16.0436 14.6667 15.8834C15.1928 14.967 15.8188 14.1118 16.5333 13.3334C16.7833 13.0334 17.0333 12.7334 17.3 12.45C17.5667 12.1667 17.6 12.0334 17.7833 11.85C18.8 10.7834 19.6333 9.81669 18.5833 9.33335C18.3203 9.22123 18.0865 9.05016 17.9 8.83335C17.6218 8.49298 17.4446 8.08138 17.3886 7.64534C17.3327 7.2093 17.4001 6.7663 17.5833 6.36669C17.7206 5.95909 17.9391 5.58354 18.2255 5.26271C18.512 4.94189 18.8605 4.68244 19.25 4.50002C19.6674 4.31029 20.1263 4.22999 20.5833 4.26669C21.0281 4.31218 21.4532 4.47304 21.8167 4.73335C22.3808 5.13303 22.7783 5.72624 22.9333 6.40002C23.145 7.0369 23.0971 7.73157 22.8 8.33335C22.6698 8.53273 22.525 8.72214 22.3667 8.90002Z" fill="#6E9D3E"/>
</g>
<defs>
<clipPath id="clip0_1051_8681">
<rect width="40" height="40" fill="white"/>
</clipPath>
</defs>
</svg>
