<svg width="40" height="41" viewBox="0 0 40 41" fill="none" xmlns="http://www.w3.org/2000/svg">
<path fill-rule="evenodd" clip-rule="evenodd" d="M18.3333 10.8167C17.6186 10.3431 16.8123 10.0251 15.9667 9.88333C15.6987 9.83513 15.44 9.74514 15.2 9.61667C15 9.55 15 9.48333 15 9.33333C14.7 7.9 17.2833 8.35 17.9 8.66667C18.0069 8.72997 18.134 8.74971 18.255 8.72178C18.3761 8.69385 18.4817 8.6204 18.55 8.51667C18.6078 8.40694 18.6227 8.27967 18.5919 8.15955C18.5611 8.03944 18.4868 7.93506 18.3833 7.86667C18.0664 7.67818 17.7314 7.52184 17.3833 7.4C17.4446 7.30234 17.4896 7.1954 17.5167 7.08333V6.73333V5.88333C17.5584 5.74851 17.545 5.60265 17.4794 5.47769C17.4138 5.35273 17.3013 5.25887 17.1667 5.21667C17.101 5.19622 17.032 5.18909 16.9635 5.19569C16.8951 5.20228 16.8286 5.22246 16.7681 5.25506C16.7076 5.28766 16.6542 5.33201 16.611 5.38552C16.5678 5.43902 16.5357 5.50061 16.5167 5.56667C16.3242 5.80008 16.1461 6.04498 15.9833 6.3C15.9318 6.40813 15.8872 6.51947 15.85 6.63333C15.8266 6.75444 15.8266 6.8789 15.85 7C15.842 7.06642 15.842 7.13357 15.85 7.2C15.5581 7.1974 15.267 7.23099 14.9833 7.3C14.4661 7.38608 14.0033 7.67187 13.6947 8.09582C13.3861 8.51977 13.2563 9.04797 13.3333 9.56667C13.3655 9.86002 13.4649 10.142 13.6239 10.3906C13.7829 10.6392 13.9972 10.8478 14.25 11C14.9629 11.3824 15.7259 11.6629 16.5167 11.8333C16.8833 11.95 17.2833 11.9833 17.2833 12.4167C17.2833 12.85 16.8167 13.1 16.3167 13.2C15.6294 13.3514 14.9118 13.2814 14.2667 13C14.0877 12.926 13.928 12.812 13.8 12.6667C13.629 12.4791 13.473 12.2785 13.3333 12.0667C13.266 11.9438 13.1544 11.8513 13.0213 11.8079C12.8881 11.7646 12.7434 11.7737 12.6167 11.8333C12.4937 11.9004 12.402 12.0132 12.3614 12.1473C12.3209 12.2814 12.3348 12.426 12.4 12.55C12.5366 12.8966 12.7218 13.2221 12.95 13.5167C13.1309 13.743 13.3511 13.9349 13.6 14.0833C13.7791 14.1874 13.9691 14.2712 14.1667 14.3333C14.1082 14.4306 14.0686 14.538 14.05 14.65C14.0336 14.7661 14.0336 14.8839 14.05 15V15.85C14.008 15.9826 14.0204 16.1265 14.0845 16.2499C14.1486 16.3734 14.2591 16.4663 14.3917 16.5083C14.5243 16.5503 14.6681 16.5379 14.7916 16.4738C14.9151 16.4098 15.008 16.2993 15.05 16.1667C15.248 15.9317 15.4264 15.6808 15.5833 15.4167C15.6531 15.3155 15.7039 15.2026 15.7333 15.0833C15.7581 14.968 15.7581 14.8487 15.7333 14.7333C16.185 14.7737 16.6401 14.7456 17.0833 14.65C17.5924 14.5601 18.0559 14.3001 18.398 13.9126C18.7401 13.5251 18.9406 13.0329 18.9667 12.5167C18.9999 12.2036 18.96 11.8871 18.8501 11.5921C18.7402 11.2971 18.5633 11.0317 18.3333 10.8167Z" fill="#6E9D3E"/>
<path fill-rule="evenodd" clip-rule="evenodd" d="M17.1333 27.05C17.641 26.9636 18.1041 26.7069 18.4464 26.3222C18.7888 25.9374 18.9899 25.4476 19.0167 24.9333C19.0377 24.6202 18.9854 24.3065 18.8639 24.0172C18.7423 23.7278 18.555 23.4708 18.3167 23.2667C17.6019 22.7931 16.7956 22.4751 15.95 22.3333C15.6863 22.2699 15.4295 22.1806 15.1833 22.0667C15.0667 22.0667 14.95 21.9333 14.9167 21.7833C14.7833 21.2 15.1667 20.9 15.6667 20.8167C16.3969 20.75 17.1326 20.8526 17.8167 21.1167C17.87 21.1495 17.9294 21.1712 17.9913 21.1806C18.0532 21.1899 18.1163 21.1867 18.177 21.1712C18.2376 21.1556 18.2945 21.128 18.3443 21.09C18.3941 21.052 18.4357 21.0044 18.4667 20.95C18.5234 20.8428 18.5378 20.7181 18.5069 20.6008C18.4761 20.4835 18.4022 20.382 18.3 20.3167C17.983 20.1282 17.648 19.9718 17.3 19.85C17.3613 19.7523 17.4063 19.6454 17.4333 19.5333V19.1833V18.3333C17.4751 18.1985 17.4617 18.0526 17.3961 17.9277C17.3305 17.8027 17.218 17.7089 17.0833 17.6667C17.0177 17.6462 16.9486 17.6391 16.8802 17.6457C16.8117 17.6523 16.7453 17.6725 16.6848 17.7051C16.6242 17.7377 16.5708 17.782 16.5276 17.8355C16.4845 17.889 16.4524 17.9506 16.4333 18.0167C16.2408 18.2501 16.0627 18.495 15.9 18.75C15.8484 18.8581 15.8039 18.9695 15.7667 19.0833C15.7433 19.2044 15.7433 19.3289 15.7667 19.45C15.7586 19.5164 15.7586 19.5836 15.7667 19.65C15.4747 19.6474 15.1836 19.681 14.9 19.75C14.3981 19.8549 13.9556 20.1487 13.6641 20.5705C13.3725 20.9923 13.2541 21.51 13.3333 22.0167C13.3587 22.3166 13.4531 22.6066 13.6093 22.8639C13.7654 23.1213 13.979 23.339 14.2333 23.5C14.9462 23.8824 15.7092 24.1629 16.5 24.3333C16.8667 24.4333 17.2667 24.4833 17.2667 24.9167C17.2667 25.35 16.8 25.6 16.3 25.7C15.6127 25.8514 14.8951 25.7814 14.25 25.5C14.0728 25.4154 13.9142 25.2964 13.7833 25.15C13.6174 24.9565 13.4669 24.7504 13.3333 24.5333C13.2652 24.4296 13.163 24.3528 13.0443 24.3163C12.9257 24.2798 12.798 24.2858 12.6833 24.3333C12.5603 24.4004 12.4686 24.5132 12.4281 24.6473C12.3876 24.7814 12.4014 24.926 12.4667 25.05C12.6107 25.3931 12.7953 25.7176 13.0167 26.0167C13.1976 26.243 13.4178 26.4349 13.6667 26.5833C13.8246 26.6831 13.9921 26.7669 14.1667 26.8333C14.1081 26.9306 14.0686 27.038 14.05 27.15C14.0336 27.2661 14.0336 27.3839 14.05 27.5V28.35C14.008 28.4826 14.0204 28.6265 14.0845 28.7499C14.1485 28.8734 14.259 28.9663 14.3917 29.0083C14.5243 29.0503 14.6681 29.0379 14.7916 28.9738C14.915 28.9098 15.008 28.7993 15.05 28.6667C15.248 28.4317 15.4264 28.1808 15.5833 27.9167C15.653 27.8155 15.7039 27.7026 15.7333 27.5833C15.7571 27.4679 15.7571 27.3488 15.7333 27.2333C16.2067 27.2463 16.6792 27.1844 17.1333 27.05Z" fill="#6E9D3E"/>
<path fill-rule="evenodd" clip-rule="evenodd" d="M27.2667 12.1667C27.31 12.0362 27.3013 11.8939 27.2423 11.7697C27.1833 11.6455 27.0786 11.5489 26.95 11.5C26.2955 11.1578 25.5932 10.9162 24.8667 10.7833C24.56 10.7172 24.2471 10.6837 23.9333 10.6833C23.6283 10.6585 23.3217 10.6585 23.0167 10.6833C22.3269 10.8403 21.6478 11.0407 20.9833 11.2833C20.924 11.2915 20.8668 11.3114 20.8152 11.3419C20.7637 11.3724 20.7187 11.4129 20.683 11.461C20.6473 11.5092 20.6216 11.5639 20.6073 11.6221C20.5931 11.6804 20.5906 11.7408 20.6 11.8C20.6166 11.921 20.68 12.0307 20.7766 12.1055C20.8732 12.1803 20.9953 12.2142 21.1167 12.2C21.8833 12.2 22.6167 12.3667 23.3833 12.3833H24.6833C25.3466 12.361 26.0106 12.4001 26.6667 12.5C26.7903 12.5315 26.9213 12.5145 27.0329 12.4525C27.1444 12.3906 27.2281 12.2883 27.2667 12.1667Z" fill="#6E9D3E"/>
<path fill-rule="evenodd" clip-rule="evenodd" d="M24.45 23.2167C24.1434 23.1496 23.8305 23.1161 23.5167 23.1167C23.2116 23.0925 22.9051 23.0925 22.6 23.1167C21.9157 23.2736 21.2421 23.4741 20.5833 23.7167C20.4749 23.7464 20.3809 23.8142 20.3185 23.9078C20.2562 24.0013 20.2296 24.1141 20.2438 24.2256C20.258 24.3371 20.312 24.4398 20.3958 24.5147C20.4796 24.5896 20.5876 24.6317 20.7 24.6333C21.4667 24.6333 22.2 24.8 22.9833 24.8167H24.2667C24.9098 24.7584 25.5569 24.7584 26.2 24.8167C26.3326 24.8592 26.4766 24.8481 26.6012 24.7858C26.7258 24.7235 26.8211 24.6149 26.8667 24.4833C26.89 24.4178 26.8999 24.3481 26.8956 24.2786C26.8914 24.2092 26.8732 24.1412 26.842 24.079C26.8109 24.0167 26.7675 23.9614 26.7145 23.9163C26.6614 23.8712 26.5998 23.8373 26.5333 23.8167C25.8732 23.5124 25.1708 23.3101 24.45 23.2167Z" fill="#6E9D3E"/>
<path fill-rule="evenodd" clip-rule="evenodd" d="M8.61665 26.9667C8.61665 28.3833 8.73332 29.35 8.78332 29.6667C8.79127 29.7277 8.81167 29.7865 8.84325 29.8393C8.87483 29.8922 8.91691 29.938 8.96691 29.9739C9.0169 30.0099 9.07373 30.0351 9.13389 30.0482C9.19405 30.0613 9.25625 30.0619 9.31665 30.05C9.43793 30.0296 9.54624 29.9621 9.61803 29.8622C9.68981 29.7623 9.71926 29.6381 9.69998 29.5167C9.48332 28.1 9.61665 12.2 9.54998 5.76667V3.38333C9.91665 3.3 10.65 3.25 11.2166 3.16667C14.8199 2.78451 18.4467 2.67309 22.0666 2.83333C24.4388 2.84191 26.8029 3.11018 29.1166 3.63333C29.4092 3.7032 29.6899 3.8155 29.95 3.96667C30.0025 3.99608 30.0526 4.02951 30.1 4.06667C30.7666 6.46667 29.3833 17.2833 29.0833 24.3333C28.9643 26.0888 29.0033 27.8515 29.2 29.6C29.2101 29.6682 29.2337 29.7338 29.2696 29.7927C29.3054 29.8517 29.3527 29.9028 29.4086 29.9432C29.4645 29.9836 29.5279 30.0124 29.5952 30.0279C29.6624 30.0433 29.732 30.0452 29.8 30.0333C29.8692 30.0255 29.9361 30.0034 29.9963 29.9682C30.0564 29.9331 30.1086 29.8857 30.1494 29.8292C30.1902 29.7727 30.2188 29.7083 30.2332 29.6401C30.2477 29.572 30.2477 29.5015 30.2333 29.4333C29.6333 25.4167 31.6666 12.3167 31.9 6.36667C31.9501 5.42154 31.8716 4.47399 31.6666 3.55C31.4833 2.93333 30.6333 2.26667 29.1333 1.88333C26.0742 1.25462 22.9561 0.958456 19.8333 1C16.3162 0.889152 12.7971 1.1461 9.33332 1.76667C8.89124 1.85517 8.47514 2.04326 8.11665 2.31667C7.97646 2.4381 7.87153 2.59502 7.81288 2.77097C7.75423 2.94692 7.74402 3.13541 7.78332 3.31667C7.99998 4.33333 8.33332 20.4333 8.61665 26.9667Z" fill="#6E9D3E"/>
<path fill-rule="evenodd" clip-rule="evenodd" d="M38.3333 17.7667C38.2559 16.3189 38.0269 14.8833 37.65 13.4833C37.4934 12.7401 37.1089 12.0643 36.55 11.55C36.2328 11.3488 35.8569 11.2608 35.4833 11.3C34.9333 11.3 34.0667 11.4667 32.55 11.5833C32.4262 11.5833 32.3075 11.6325 32.22 11.72C32.1325 11.8075 32.0833 11.9262 32.0833 12.05C32.0918 12.1723 32.1464 12.2869 32.2362 12.3704C32.3259 12.454 32.444 12.5003 32.5667 12.5H35.15C35.7167 12.5 35.6833 12.5 35.8167 12.6C35.95 12.7 36.1333 13.2333 36.25 13.85C36.4599 15.1789 36.5713 16.5214 36.5833 17.8667C36.5833 19.5333 36.7 21.5167 36.7167 23.4V31.7333V31.8333L22.1833 32.1C19.9667 32.1 17.7667 32.3167 15.5167 32.3833C14.0732 32.4583 12.6268 32.4583 11.1833 32.3833L5.11666 32.1667C4.74216 32.144 4.3693 32.0995 4 32.0333C3.80869 32.0128 3.63118 31.9241 3.5 31.7833C3.37447 31.5422 3.31686 31.2714 3.33333 31C3.33333 30.2833 3.43333 29.5 3.33333 28.9833L3.41666 19.9333C3.41666 18.6667 3.31666 16.95 3.33333 15.3C3.31443 14.301 3.38695 13.3024 3.55 12.3167C3.58767 12.1221 3.67966 11.9421 3.81533 11.7976C3.951 11.653 4.12482 11.5499 4.31666 11.5C4.7999 11.3949 5.30009 11.3949 5.78333 11.5C5.86018 11.5287 5.94307 11.5373 6.02418 11.5251C6.1053 11.5129 6.18198 11.4803 6.247 11.4303C6.31201 11.3803 6.36323 11.3145 6.39583 11.2392C6.42843 11.164 6.44133 11.0816 6.43333 11C6.45831 10.8808 6.43569 10.7565 6.37029 10.6538C6.30489 10.551 6.20191 10.4779 6.08333 10.45C5.29809 10.2653 4.4762 10.3116 3.71666 10.5833C3.43454 10.7115 3.18735 10.9055 2.99591 11.1492C2.80448 11.3928 2.67441 11.6789 2.61666 11.9833C2.3989 13.0256 2.27618 14.0855 2.25 15.15C2.16666 16.8167 2.25 18.4833 2.16666 19.8L1.66666 28.9C1.66666 29.5333 1.48333 30.5667 1.55 31.3667C1.57984 31.8538 1.72248 32.3274 1.96666 32.75C2.19915 33.0926 2.52229 33.3638 2.9 33.5333C3.57136 33.786 4.28268 33.9158 5 33.9167C5.61666 33.9167 6.23333 34.0167 6.85 34.05C8.25 34.05 9.63333 34.05 11.0333 34.1333H14.3667L16.6667 33.9667C16.55 34.2 16.4333 34.4167 16.3333 34.65C15.8 35.8167 15.3167 37 14.7833 38.1667C14.7833 38.3167 14.2167 39.2167 14.1 39.6167C14.02 39.8489 14.02 40.1011 14.1 40.3333C14.1542 40.4536 14.2325 40.5614 14.3299 40.6503C14.4274 40.7391 14.542 40.8071 14.6667 40.85C14.8753 40.9015 15.0867 40.9405 15.3 40.9667C15.6053 40.9833 15.9113 40.9833 16.2167 40.9667C16.65 40.9667 17.0667 40.9667 17.4833 40.85C18.9933 40.5765 20.5182 40.3928 22.05 40.3C25.5833 40.1167 26.1833 40.9667 25.3833 37.4167C25.2954 37.0215 25.1841 36.6319 25.05 36.25C24.9188 35.8735 24.7629 35.506 24.5833 35.15C24.296 34.5782 23.9789 34.0219 23.6333 33.4833L36.6667 32.8667C37.0627 32.5541 37.4207 32.1961 37.7333 31.8C37.95 29.8833 38.3833 25.9 38.45 22C38.4167 20.5333 38.3333 19.0833 38.3333 17.7667ZM23.1 36.1C23.2833 36.6833 23.5167 37.25 23.7333 37.7667L24.2833 39.05C23.2719 38.9143 22.2536 38.8364 21.2333 38.8167C19.9167 38.8167 18.6 38.8167 17.2667 39H16.0167C16.15 38.7833 16.2667 38.6 16.2833 38.55C16.6667 37.3333 16.9667 36.0833 17.3667 34.8667C17.4889 34.4889 17.6222 34.1056 17.7667 33.7167C19.2167 33.6 20.6667 33.4833 22.1333 33.4H22.4C22.5667 34.4167 22.7667 35.2833 23.05 36.1667L23.1 36.1Z" fill="#6E9D3E"/>
</svg>
