<svg width="40" height="40" viewBox="0 0 40 40" fill="none" xmlns="http://www.w3.org/2000/svg">
<g clip-path="url(#clip0_1034_4130)">
<path d="M11.4333 21.6667C11.4546 21.7815 11.5154 21.8854 11.6052 21.9601C11.695 22.0348 11.8082 22.0757 11.925 22.0757C12.0418 22.0757 12.155 22.0348 12.2448 21.9601C12.3346 21.8854 12.3954 21.7815 12.4167 21.6667C12.477 20.6722 12.737 19.7 13.1813 18.8082C13.6256 17.9165 14.245 17.1234 15.0026 16.4763C15.7601 15.8291 16.6403 15.3413 17.5906 15.0418C18.5408 14.7424 19.5416 14.6375 20.5333 14.7333C22.0011 14.9996 23.3203 15.7945 24.2417 16.9677C25.163 18.1409 25.6225 19.611 25.5333 21.1C25.5192 21.1814 25.5231 21.2649 25.5446 21.3446C25.5662 21.4244 25.6049 21.4985 25.6581 21.5617C25.7113 21.6249 25.7777 21.6757 25.8525 21.7106C25.9274 21.7454 26.0091 21.7635 26.0917 21.7635C26.1743 21.7635 26.2559 21.7454 26.3308 21.7106C26.4057 21.6757 26.4721 21.6249 26.5252 21.5617C26.5784 21.4985 26.6172 21.4244 26.6387 21.3446C26.6603 21.2649 26.6641 21.1814 26.65 21.1C26.8182 19.5626 26.5145 18.0104 25.7791 16.6498C25.0438 15.2893 23.9117 14.1848 22.5333 13.4833C24.2 12.4 26.0833 10.15 25.65 8.18332C25.4228 7.48351 25.0519 6.83887 24.5612 6.29069C24.0704 5.74252 23.4705 5.3029 22.8 4.99998C19.8 3.23332 20.1167 5.43332 20.95 5.43332C21.5118 5.59348 22.0302 5.87833 22.4667 6.26665C23.5333 7.06665 24.6167 8.13332 24.0333 9.33332C24.0117 9.38132 23.9837 9.42617 23.95 9.46665C23.75 9.21665 23.1833 9.11665 22.6833 8.89998C21.4167 8.36665 21.4833 7.98332 21.35 7.56665C20.4 4.84998 17.3833 8.36665 15.2333 9.13332C15.1891 8.24627 15.4516 7.37105 15.9767 6.65475C16.5018 5.93845 17.2574 5.42475 18.1167 5.19998C18.1875 5.19921 18.2574 5.18339 18.3217 5.15355C18.386 5.12371 18.4432 5.08054 18.4896 5.02691C18.5359 4.97328 18.5703 4.91041 18.5905 4.84246C18.6107 4.77452 18.6162 4.70307 18.6067 4.63283C18.5972 4.56259 18.5728 4.49519 18.5353 4.43508C18.4977 4.37497 18.4478 4.32353 18.3889 4.28417C18.3299 4.24482 18.2633 4.21844 18.1934 4.2068C18.1234 4.19516 18.0519 4.19852 17.9833 4.21665C16.9668 4.41303 16.0303 4.90376 15.2903 5.62788C14.5503 6.352 14.0394 7.27758 13.821 8.28964C13.6026 9.3017 13.6864 10.3556 14.0619 11.3205C14.4375 12.2853 15.0882 13.1185 15.9333 13.7166C14.5361 14.5128 13.3801 15.6721 12.5879 17.0716C11.7957 18.4711 11.3968 20.0589 11.4333 21.6667ZM19.35 8.89998C20.85 8.09998 19.7 9.19998 21.1333 9.78332C21.8405 10.0622 22.5794 10.2525 23.3333 10.35C21.2167 13.1833 16.6667 13.8 15.4167 10.25C16.7973 10.0268 18.1284 9.56429 19.35 8.88332V8.89998Z" fill="#6E9D3E"/>
<path d="M39.3833 9.13331C39.1667 7.19997 39.2667 3.29997 37.8667 2.21664C34.6667 -0.250028 27.65 0.399972 23.1833 0.216638C17.35 -2.84711e-05 11.25 0.449972 5.5 0.616638C5.34971 0.616638 5.20558 0.67634 5.09931 0.782611C4.99303 0.888882 4.93333 1.03302 4.93333 1.1833C4.93333 1.33359 4.99303 1.47773 5.09931 1.584C5.20558 1.69027 5.34971 1.74997 5.5 1.74997C11.25 1.66664 17.2833 1.2833 23.1167 1.66664C27.2333 1.89997 34.2333 1.4333 36.8667 3.54997C37.5333 4.0833 37.55 7.99997 37.6833 9.36664C38.2525 14.2199 38.2972 19.1204 37.8167 23.9833C37.7367 25.6162 37.4853 27.2363 37.0667 28.8166C32.9333 31.1 4.3 32.7 2.56667 29.7166C2.2551 28.8173 2.05908 27.882 1.98333 26.9333C2.68333 26.8333 0.866666 27.0333 9.65 26.9333C16.15 27.15 25.8 26.4 34.0333 26.8166C34.7 26.8166 34.75 25.7333 34.0333 25.6833C25.1167 24.75 18.4167 24.6 3.78333 25.8333C3.11266 25.7688 2.43734 25.7688 1.76667 25.8333C1.03341 19.9672 1.03341 14.0327 1.76667 8.16664C1.76667 7.31664 1.91667 6.49997 2.03333 5.59997C2.04711 4.55365 2.18701 3.5128 2.45 2.49997C2.52221 2.40369 2.55727 2.28458 2.54874 2.16453C2.54021 2.04447 2.48866 1.93152 2.40355 1.84642C2.31845 1.76131 2.2055 1.70976 2.08544 1.70123C1.96539 1.6927 1.84629 1.72776 1.75 1.79997C1.05 2.49997 1.18333 4.71664 1.06667 5.49997C0.949999 6.2833 0.833332 7.16664 0.733332 8.11664C0.0793802 12.7919 -0.127111 17.5188 0.116666 22.2333C0.168161 24.9953 0.542936 27.7418 1.23333 30.4166C2.58333 32.8666 11.0833 33.0333 13.9667 33.0666C13.0333 35.2833 11.8667 37.3166 12.9667 38.5333C13.8863 39.2094 15.0097 39.5506 16.15 39.5C21.35 39.9166 21.85 40.1666 26.0333 38.9666C26.257 38.864 26.4509 38.7061 26.5966 38.5078C26.7424 38.3095 26.8354 38.0774 26.8667 37.8333C26.8268 36.0503 26.4478 34.2912 25.75 32.65C29.2391 32.4182 32.705 31.9168 36.1167 31.15C38.5333 30.4833 38.9333 29.8333 39.25 27.9333C40.2103 21.7066 40.2552 15.373 39.3833 9.13331ZM25.2333 37.4666C21.1667 38.2666 20.2333 37.75 16.2333 37.65C13.3333 37.6166 13.5 38.0833 15 33.0833C18.3333 33.0833 21.6667 32.95 24.7167 32.7166C25.1182 34.2836 25.2922 35.9001 25.2333 37.5166V37.4666Z" fill="#6E9D3E"/>
</g>
<defs>
<clipPath id="clip0_1034_4130">
<rect width="40" height="40" fill="white"/>
</clipPath>
</defs>
</svg>
