<svg width="40" height="40" viewBox="0 0 40 40" fill="none" xmlns="http://www.w3.org/2000/svg">
<g clip-path="url(#clip0_1048_7074)">
<path fill-rule="evenodd" clip-rule="evenodd" d="M5.41666 24.7333C5.26637 24.7333 5.12224 24.793 5.01597 24.8993C4.9097 25.0056 4.85 25.1497 4.85 25.3C4.85 25.4503 4.9097 25.5944 5.01597 25.7007C5.12224 25.807 5.26637 25.8667 5.41666 25.8667C13.4833 25.9833 27.65 24.1 30.7 25.7C30.8 25.7 30.9667 26.0333 31.1333 26.1167C30 27.6667 26.0333 27.15 23.9833 27.3333C20.5167 27.6667 17 27.45 13.5167 27.6167C9.1 27.8 5.45 28.8667 1.85 28.2167C0.599997 27.9833 0.966664 26.55 2.15 26.35C2.15 26.35 4.18333 25.8333 4.2 25.7667C4.21977 25.6772 4.21757 25.5843 4.19359 25.4959C4.16961 25.4076 4.12457 25.3263 4.06231 25.2591C4.00005 25.1919 3.92243 25.1409 3.83611 25.1102C3.74979 25.0796 3.65734 25.0704 3.56666 25.0833C3.16666 25.0833 2.13333 25.2833 1.9 25.3167C-0.433336 25.75 -0.950003 28.8167 1.58333 29.3833C2.78326 29.635 4.00745 29.7524 5.23333 29.7333C5.23333 29.9 3.56666 35.0333 3.16666 37.25C2.63333 40.2167 6.78333 40.7333 7.9 38.1167C8.35725 36.9173 8.74676 35.6931 9.06666 34.45C9.51427 34.5157 9.96906 34.5157 10.4167 34.45C12.9589 34.7706 15.525 34.8599 18.0833 34.7167C23.0833 34.45 21.8333 34.7167 23.0833 34.5833C24.3333 34.45 23.4 33.4667 25.1833 38.0833C26.2833 40.6833 30.4333 40.1833 29.9 37.2C29.5667 35.6333 27.9333 29.7 27.5833 29.0833C28.4921 29.0759 29.3953 28.9413 30.2667 28.6833C31.8333 28.2 33.5167 26.6667 32.8333 25.2667C31.1 21.35 15.9 24.5833 5.41666 24.7333ZM6.26666 37.3833C6 38 5.01666 38.1167 5.1 37.55C6.06666 31.6333 6.25 30.3167 6.43333 29.7C7.31666 29.7 8.2 29.6 9.06666 29.5167C8.35093 32.2113 7.41443 34.8424 6.26666 37.3833ZM22.9333 33.3833C18.7167 33.0167 21.6833 32.5667 9.41666 33.3833C9.71666 32.1333 10 30.8333 10.25 29.4667C15.25 29.0333 18.2 29.5667 22.9833 29.3167C23.25 30.7333 23.5333 32.0833 23.8667 33.3833C23.5672 33.4425 23.2577 33.4253 22.9667 33.3333L22.9333 33.3833ZM28.2 37.55C28.2 38.1167 27.3 37.9833 27.0333 37.3833C25.8476 34.74 24.8832 32.0028 24.15 29.2H26.7167C26.6667 29.3167 26.6667 27.5333 28.2333 37.55H28.2Z" fill="#6E9D3E"/>
<path fill-rule="evenodd" clip-rule="evenodd" d="M2.63332 24.4333C2.65542 24.5615 2.72754 24.6757 2.83381 24.7507C2.94008 24.8257 3.0718 24.8554 3.19999 24.8333C3.32818 24.8112 3.44233 24.7391 3.51735 24.6329C3.59236 24.5266 3.62209 24.3949 3.59999 24.2667C3.49555 22.3606 3.54013 20.4492 3.73332 18.55C3.64437 16.3566 3.74474 14.1595 4.03332 11.9833C4.43332 10.3167 4.19999 10.6333 7.73332 10.1167C10.7308 9.55714 13.7683 9.23945 16.8167 9.16668C16.9669 9.16668 17.1111 9.10698 17.2173 9.00071C17.3236 8.89444 17.3833 8.7503 17.3833 8.60001C17.3833 8.44972 17.3236 8.30559 17.2173 8.19932C17.1111 8.09305 16.9669 8.03335 16.8167 8.03335H16.15C16.2318 7.98613 16.2996 7.91805 16.3464 7.83606C16.3933 7.75407 16.4175 7.66111 16.4167 7.56668C16.5057 6.70784 16.4494 5.84013 16.25 5.00001C15.1667 1.25001 11.5667 3.11668 12.1 8.05001C11.0833 8.05001 5.33332 8.46668 4.34999 8.73335C1.96665 9.36668 2.36665 10.7333 2.18332 11.55C1.85658 13.8719 1.85658 16.2281 2.18332 18.55C2.18686 20.5196 2.33728 22.4861 2.63332 24.4333ZM14.4667 5.00001C15.4667 8.21668 15.3833 7.98335 15.5333 8.08335H13.4667C13.5314 6.98706 13.8756 5.92559 14.4667 5.00001Z" fill="#6E9D3E"/>
<path fill-rule="evenodd" clip-rule="evenodd" d="M30.2833 18.65C30.2833 18.5174 30.2307 18.3902 30.1369 18.2964C30.0431 18.2026 29.9159 18.15 29.7833 18.15C29.6507 18.15 29.5235 18.2026 29.4298 18.2964C29.336 18.3902 29.2833 18.5174 29.2833 18.65C28.9244 19.3037 28.7363 20.0375 28.7363 20.7833C28.7363 21.5291 28.9244 22.2629 29.2833 22.9166C29.6833 23.85 30.5333 23.25 30.4667 22.9166C30.4333 20.3666 30.95 21.2333 30.2833 18.65Z" fill="#6E9D3E"/>
<path fill-rule="evenodd" clip-rule="evenodd" d="M39.7333 4.71666C39.2333 3.89999 38.4167 3.59999 36.2 2.44999C30.4833 0.266657 30.2 -9.26852e-06 29.7833 0.349991C29.7314 0.401161 29.6902 0.462137 29.6621 0.529375C29.6339 0.596613 29.6195 0.668772 29.6195 0.741657C29.6195 0.814543 29.6339 0.886702 29.6621 0.95394C29.6902 1.02118 29.7314 1.08215 29.7833 1.13332C31.686 2.13619 33.6512 3.01578 35.6667 3.76666C35.8 3.86666 38.1167 5.54999 38.25 5.58332C38.3833 5.61666 32.3667 8.41666 32.05 8.54999C31.5622 8.90852 30.9861 9.12746 30.3833 9.18332C30.2333 9.18332 22.2167 6.34999 21.5167 5.84999C22.1333 5.53332 19.25 7.33332 27.7167 1.96666C27.8278 1.90153 27.9095 1.79605 27.9447 1.67218C27.98 1.5483 27.9661 1.41561 27.9059 1.30173C27.8458 1.18785 27.744 1.10158 27.6218 1.0609C27.4996 1.02021 27.3664 1.02824 27.25 1.08332L22.15 3.64999C20.7 4.31666 18.8167 5.21666 19.9 6.46666C19.6485 8.81342 19.5872 11.1767 19.7167 13.5333C19.279 13.6574 18.8819 13.8948 18.5654 14.2216C18.249 14.5484 18.0245 14.953 17.9145 15.3944C17.8046 15.8358 17.8132 16.2984 17.9394 16.7355C18.0656 17.1725 18.305 17.5685 18.6333 17.8833C19.9667 19.35 22.7 19.25 23.25 17.2167C23.368 16.8413 23.4071 16.4457 23.3647 16.0545C23.3223 15.6634 23.1994 15.2852 23.0037 14.9439C22.808 14.6026 22.5437 14.3055 22.2276 14.0714C21.9114 13.8372 21.5502 13.671 21.1667 13.5833C21.4885 11.6112 21.5558 9.60591 21.3667 7.61666C22.2667 8.11666 23.8833 8.71666 27.5833 10.1833C28.3667 10.45 29.75 11.4833 30.7833 11.1333C33.8585 9.89008 36.8103 8.36117 39.6 6.56666C39.8292 6.31935 39.9672 6.00136 39.9915 5.66507C40.0157 5.32878 39.9247 4.99427 39.7333 4.71666ZM21.5167 15C21.9667 15.55 21.7833 17.3 21.0167 17.3333C20.25 17.3667 19.35 16.0167 19.5333 15.3167C19.8833 14.0833 21.4 14.8667 21.5167 15Z" fill="#6E9D3E"/>
<path fill-rule="evenodd" clip-rule="evenodd" d="M36.25 9.73335C35.4667 9.73335 35.6833 10.5667 35.5 11.4C35.3167 12.2333 34.3333 12.2167 33.2333 12.7167C32.1333 13.2167 31 14 30 14.3833C28.3382 13.9874 26.7193 13.4292 25.1667 12.7167C24.9333 11.55 25.1667 10.9167 24.4833 10.9167C24.3507 10.9167 24.2236 10.9694 24.1298 11.0631C24.036 11.1569 23.9833 11.2841 23.9833 11.4167C23.9833 11.4167 23.9833 12.6 23.9833 13.0833C23.9897 13.2845 24.0733 13.4755 24.2167 13.6167C25.0833 14.5 29.2167 16.6667 30.2833 16.3833C31.6148 15.8872 32.8626 15.1902 33.9833 14.3167C34.8321 13.9482 35.6104 13.435 36.2833 12.8C36.8333 12.1 36.7167 11.4667 36.7333 10.5667C36.7841 10.4824 36.8112 10.386 36.812 10.2876C36.8128 10.1892 36.7871 10.0924 36.7378 10.0073C36.6884 9.92215 36.6171 9.85184 36.5313 9.80366C36.4455 9.75548 36.3484 9.7312 36.25 9.73335Z" fill="#6E9D3E"/>
</g>
<defs>
<clipPath id="clip0_1048_7074">
<rect width="40" height="40" fill="white"/>
</clipPath>
</defs>
</svg>
