<svg width="40" height="40" viewBox="0 0 40 40" fill="none" xmlns="http://www.w3.org/2000/svg">
<path fill-rule="evenodd" clip-rule="evenodd" d="M9.45938 1.861C11.1177 2.07477 11.9635 3.9987 12.4942 6.3288C13.3563 10.6406 13.3563 15.1638 12.4942 19.4757C12.2111 20.1093 11.7902 20.6221 11.2836 20.9507C10.4378 21.6134 9.42622 20.0101 9.21063 18.813C8.6091 16.4829 8.50598 13.9868 8.91213 11.5875C9.09455 10.8821 10.1061 10.198 10.3549 10.8821C10.9519 12.5709 9.99005 15.3285 11.1675 15.3285C11.3156 15.3078 11.4529 15.2183 11.5536 15.0766C11.6543 14.935 11.7116 14.751 11.7147 14.5589C11.7147 13.6611 11.8474 12.6136 11.7977 11.6517C11.5655 7.37627 8.14929 8.50925 7.40303 10.9035C6.78455 13.698 6.78455 16.6598 7.40303 19.4543C7.67988 21.0125 8.40997 22.3745 9.4428 23.2594C9.86777 23.6027 10.3592 23.7848 10.8607 23.7848C11.3622 23.7848 11.8536 23.6027 12.2786 23.2594C13.1398 22.7098 13.8469 21.8282 14.3018 20.7369C15.844 16.9745 15.9601 0.32186 9.57547 0.00120508C8.20311 -0.0314815 6.87132 0.601805 5.84419 1.7755C5.16414 2.37014 4.67956 3.26904 4.48434 4.29798C4.25218 5.87988 5.36327 5.53785 5.56227 4.85378C5.89619 3.90079 6.44893 3.10283 7.14584 2.56764C7.84275 2.03245 8.65027 1.7858 9.45938 1.861Z" fill="#6E9D3E"/>
<path fill-rule="evenodd" clip-rule="evenodd" d="M39.9896 22.1264C39.9896 16.4188 40.172 6.41434 39.0111 3.0154C38.7458 2.2672 38.0327 2.22445 37.3528 2.13894C30.238 1.68089 23.1055 2.13201 16.0596 3.48569C15.9801 3.50534 15.9044 3.54498 15.8368 3.60235C15.7692 3.65972 15.711 3.73369 15.6656 3.82004C15.6202 3.90639 15.5884 4.00342 15.5721 4.10561C15.5557 4.20779 15.5552 4.31313 15.5704 4.41559C15.5857 4.51806 15.6164 4.61565 15.6609 4.70279C15.7054 4.78994 15.7628 4.86493 15.8298 4.92349C15.8968 4.98205 15.9721 5.02303 16.0513 5.04408C16.1306 5.06514 16.2123 5.06587 16.2918 5.04621C17.8175 4.68281 19.1607 4.64005 28.0661 3.74222C31.261 3.67719 34.4561 3.85565 37.6347 4.27664C38.4307 7.76109 38.182 13.3191 38.1156 22.1264C37.7176 37.5393 37.8669 35.1664 36.2749 35.7436C33.7874 36.6628 29.2269 35.8505 19.5919 36.2139C13.1409 36.449 10.8193 37.3255 7.98348 37.4751C6.45689 37.5767 4.92632 37.4476 3.42303 37.0903C3.02502 36.7056 3.14111 33.9265 3.07477 33.0287C2.0466 18.5137 1.76468 13.5756 1.61543 11.2028C1.60373 10.829 1.68627 10.4603 1.85069 10.1521C2.01512 9.84376 2.25257 9.61241 2.52752 9.49263C4.76117 8.40962 7.04946 7.52398 9.37649 6.84188C9.45506 6.84758 9.53367 6.83136 9.60694 6.79434C9.68021 6.75732 9.74642 6.70036 9.80106 6.62735C9.8557 6.55434 9.89748 6.467 9.92356 6.37128C9.94963 6.27557 9.95939 6.17373 9.95215 6.07271C9.94492 5.9717 9.92087 5.87388 9.88164 5.78593C9.84242 5.69799 9.78894 5.62198 9.72485 5.5631C9.66077 5.50422 9.58758 5.46385 9.51029 5.44474C9.433 5.42563 9.35343 5.42824 9.27699 5.45238C8.39807 5.55926 1.23401 6.79913 0.338501 8.35965C-0.557006 9.92017 0.520919 18.3427 1.30034 33.2425C1.38326 34.7175 1.00184 37.7103 2.2456 38.9929C3.0443 39.5716 3.94993 39.8597 4.86579 39.8266C7.3863 40.1334 9.92668 40.0328 12.4278 39.5273C21.4327 38.1806 33.5883 39.5273 36.8221 38.373C38.2483 37.8599 39.774 37.8172 39.9067 34.9526C40.0227 33.5204 39.7906 37.4751 39.9896 22.1264Z" fill="#6E9D3E"/>
<path fill-rule="evenodd" clip-rule="evenodd" d="M34.799 11.4379C34.9617 11.4379 35.1178 11.3545 35.2328 11.2062C35.3479 11.0579 35.4126 10.8567 35.4126 10.6469C35.4126 10.4372 35.3479 10.236 35.2328 10.0876C35.1178 9.93931 34.9617 9.85598 34.799 9.85598C29.2435 9.68496 25.0147 9.02227 18.3482 11.2241C18.2052 11.2581 18.0786 11.3639 17.9962 11.5183C17.9138 11.6726 17.8823 11.8629 17.9087 12.0471C17.9351 12.2314 18.0172 12.3946 18.1369 12.5008C18.2567 12.6071 18.4042 12.6476 18.5472 12.6136C21.6649 12.2716 22.5106 13.1267 34.799 11.4379Z" fill="#6E9D3E"/>
<path fill-rule="evenodd" clip-rule="evenodd" d="M17.7014 21.8272C23.0574 22.1568 28.4252 21.7123 33.7044 20.5018C33.785 20.492 33.8633 20.4618 33.9348 20.413C34.0063 20.3641 34.0697 20.2976 34.1213 20.2172C34.1729 20.1368 34.2117 20.0441 34.2355 19.9444C34.2593 19.8447 34.2676 19.7399 34.26 19.636C34.2523 19.5322 34.2289 19.4313 34.191 19.3391C34.1532 19.2469 34.1016 19.1652 34.0392 19.0987C33.9768 19.0322 33.9049 18.9822 33.8276 18.9515C33.7502 18.9208 33.6689 18.9101 33.5883 18.9199C27.2535 19.1551 26.872 18.3855 17.5853 20.4377C17.5071 20.4346 17.4293 20.4532 17.3572 20.4922C17.2851 20.5311 17.2203 20.5895 17.1671 20.6635C17.114 20.7375 17.0738 20.8253 17.0492 20.921C17.0246 21.0167 17.0162 21.1181 17.0246 21.2183C17.0329 21.3186 17.0579 21.4153 17.0977 21.5021C17.1376 21.5888 17.1914 21.6636 17.2555 21.7213C17.3196 21.779 17.3926 21.8183 17.4695 21.8366C17.5464 21.8548 17.6255 21.8516 17.7014 21.8272Z" fill="#6E9D3E"/>
<path fill-rule="evenodd" clip-rule="evenodd" d="M10.7032 29.2449C10.1559 29.2449 9.04482 29.2449 8.84581 29.9717C8.80375 30.1475 8.81662 30.3375 8.88168 30.5013C8.94673 30.665 9.05883 30.7895 9.19407 30.8482C9.73894 31.0187 10.3075 31.0187 10.8524 30.8482C18.8739 30.8325 26.8853 30.1183 34.8321 28.7105C34.9948 28.7105 35.1509 28.6272 35.266 28.4788C35.381 28.3305 35.4457 28.1293 35.4457 27.9195C35.4457 27.7098 35.381 27.5086 35.266 27.3603C35.1509 27.2119 34.9948 27.1286 34.8321 27.1286C19.3431 27.6203 21.7643 27.4065 10.7032 29.2449Z" fill="#6E9D3E"/>
</svg>
