<svg width="40" height="40" viewBox="0 0 40 40" fill="none" xmlns="http://www.w3.org/2000/svg">
<g clip-path="url(#clip0_1051_8634)">
<path fill-rule="evenodd" clip-rule="evenodd" d="M26.35 32.3333C25.9779 32.0736 25.5816 31.8504 25.1667 31.6666C22.6167 30.6666 22.8667 31.4166 24.1333 30.4333C28.1833 27.3333 27.65 19.7 22.2833 18.65C22.1376 18.6202 21.986 18.649 21.8612 18.7301C21.7365 18.8112 21.6487 18.938 21.6167 19.0833C21.4 20.0833 22.9333 19.4333 24.4 21.3C26.7 24.2666 24.9667 31.4666 17.5 29.7333C11.75 28.5666 12.5 18.45 20.35 18.9666C20.4198 18.9847 20.4926 18.9875 20.5636 18.9748C20.6345 18.9622 20.7019 18.9343 20.7611 18.8931C20.8202 18.8519 20.8698 18.7985 20.9064 18.7364C20.943 18.6742 20.9657 18.605 20.973 18.5332C20.9802 18.4615 20.972 18.3891 20.9486 18.3209C20.9253 18.2527 20.8875 18.1903 20.8378 18.1381C20.7882 18.0859 20.7278 18.045 20.6609 18.0183C20.5939 17.9916 20.522 17.9796 20.45 17.9833C18.7988 17.6733 17.0912 17.9617 15.6334 18.7967C14.1756 19.6318 13.063 20.9589 12.4952 22.5401C11.9274 24.1212 11.9414 25.853 12.5348 27.4247C13.1282 28.9964 14.2622 30.3053 15.7333 31.1166C12.0833 32.6 9.06666 35.5666 9.61666 39.45C9.61666 39.5826 9.66934 39.7098 9.76311 39.8035C9.85687 39.8973 9.98405 39.95 10.1167 39.95C10.2493 39.95 10.3764 39.8973 10.4702 39.8035C10.564 39.7098 10.6167 39.5826 10.6167 39.45C10.7732 38.3323 11.2411 37.2811 11.9667 36.4166C13.044 35.0366 14.2866 33.794 15.6667 32.7166C17.2333 31.7666 17.15 31.8333 17.25 31.7C17.8001 31.8092 18.3569 31.8816 18.9167 31.9166C18.335 34.0616 18.2892 36.3165 18.7833 38.4833C18.7755 38.5162 18.7755 38.5504 18.7833 38.5833C18.7963 38.6515 18.8237 38.7162 18.8639 38.7729C18.904 38.8295 18.9559 38.8768 19.016 38.9116C19.0761 38.9464 19.143 38.9679 19.2122 38.9745C19.2813 38.9811 19.351 38.9727 19.4167 38.95C19.5183 38.9534 19.6181 38.9224 19.6998 38.8618C19.7815 38.8013 19.8404 38.7149 19.8667 38.6166C19.8745 38.567 19.8745 38.5163 19.8667 38.4666C20.1815 36.8193 20.3211 35.1433 20.2833 33.4666C20 31.8 20.0333 32.1333 20.05 31.9666C20.6713 31.9442 21.2873 31.8434 21.8833 31.6666C23.0378 32.3076 24.1511 33.0201 25.2167 33.8C26.7668 35.3884 27.9451 37.3011 28.6667 39.4C28.6734 39.4801 28.6971 39.5578 28.7362 39.6281C28.7753 39.6983 28.8289 39.7594 28.8934 39.8074C28.9579 39.8553 29.0319 39.889 29.1105 39.9061C29.189 39.9233 29.2703 39.9235 29.3489 39.9068C29.4276 39.8901 29.5017 39.8569 29.5666 39.8094C29.6314 39.7618 29.6853 39.701 29.7248 39.631C29.7643 39.561 29.7885 39.4834 29.7957 39.4033C29.8029 39.3233 29.793 39.2426 29.7667 39.1666C29.6894 37.8557 29.3467 36.574 28.7594 35.3994C28.1721 34.2248 27.3524 33.1817 26.35 32.3333Z" fill="#6E9D3E"/>
<path fill-rule="evenodd" clip-rule="evenodd" d="M18.65 23.2334C17.4602 23.9683 16.0813 24.3391 14.6833 24.3C14.5651 24.3092 14.454 24.3602 14.3698 24.4438C14.2857 24.5273 14.234 24.6381 14.224 24.7563C14.2139 24.8745 14.2463 24.9924 14.3151 25.0889C14.384 25.1855 14.485 25.2544 14.6 25.2834C17.9333 25.9167 19.2167 25.2834 21.95 23.5C22.9833 24.5334 23.9167 25.85 24.5167 25.1667C24.6225 25.0605 24.6819 24.9166 24.6819 24.7667C24.6819 24.6167 24.6225 24.4729 24.5167 24.3667C23.1 22.8834 22.9667 21.25 21.5 21.6667C20.521 22.1344 19.5695 22.6575 18.65 23.2334Z" fill="#6E9D3E"/>
<path fill-rule="evenodd" clip-rule="evenodd" d="M16.7833 9.06668C15.9667 10.6167 13.95 13.5833 15.7 14.0667C17.1833 14.5 18.7333 12.8 19.7333 11.65C19.7333 11.65 20.0833 11.4167 20.3333 11.2C20.7333 11.6167 21.1667 12.0333 21.6167 12.4167C22.4734 13.1448 23.4563 13.7097 24.5167 14.0833C26.3 14.25 25.5833 11.1167 25.2667 9.33334L25 8.96668C26.2667 8.35001 28.5167 7.30001 28.4167 5.85001C28.3 4.18334 25.9 4.35001 24.05 4.18334H23.5667L21.8667 1.05001C20.6667 -0.449991 19.2833 -0.183324 18.5333 1.31668L17.4167 3.78334C17.4167 3.88334 17.1667 4.10001 17.1167 4.25001C15.8365 4.17497 14.5535 4.33887 13.3333 4.73334C12.5167 5.20001 12.55 6.21667 13.2333 6.96667C14.312 7.83022 15.5071 8.53719 16.7833 9.06668ZM16.7833 5.73334C17.1 5.73334 17.4667 5.96668 17.9667 5.73334C18.4667 5.50001 18.6167 4.81668 20.1167 1.90001C20.237 1.98297 20.3487 2.07789 20.45 2.18334C20.7 2.51668 21.85 5.10001 22.35 5.65001C22.5364 5.83723 22.7743 5.96486 23.0333 6.01667C24.1539 6.04049 25.2699 6.16882 26.3667 6.40001C25.4607 6.89896 24.5126 7.31724 23.5333 7.65001C23.3491 7.78009 23.2079 7.96218 23.1277 8.17298C23.0475 8.38379 23.0321 8.61371 23.0833 8.83334C23.4041 9.86004 23.6273 10.9147 23.75 11.9833C22.6671 11.3483 21.6842 10.5563 20.8333 9.63334C19.4833 8.25001 18.0167 12.6167 16.25 12.9667C16.2416 12.8613 16.2416 12.7554 16.25 12.65C16.4333 11.75 17.6 9.85001 17.9167 8.93334C17.9167 9.16668 18.1 8.18334 17.45 8.18334L15.9167 7.43334C15.65 7.23334 14.25 6.45001 14.0167 6.03334C14.2167 5.98334 16.6667 5.70001 16.8167 5.68334L16.7833 5.73334Z" fill="#6E9D3E"/>
<path fill-rule="evenodd" clip-rule="evenodd" d="M40 10.6667C39.8333 9.00002 37.5333 9.28336 35.7333 9.10002C35.5339 9.07916 35.3328 9.07916 35.1333 9.10002L33.4667 6.30002C32.35 5.00002 31.1833 5.25002 30.55 6.53336L29.4833 8.85002C29.4215 8.98426 29.4146 9.13734 29.464 9.27662C29.5134 9.41589 29.6153 9.53035 29.748 9.59557C29.8806 9.66079 30.0334 9.67162 30.1739 9.62575C30.3144 9.57988 30.4314 9.48094 30.5 9.35002C32.0167 6.30002 31.85 6.45002 32.3833 7.16669C32.6 7.45002 33.7667 9.95002 34.2167 10.5C34.6667 11.05 35.3167 10.8 35.5833 10.85C36.3667 10.9667 37.7333 10.85 38.2667 11.0334C38.2667 11.0334 35.4833 12.2667 35.2833 12.3667C35.0874 12.4905 34.9364 12.6739 34.8524 12.8898C34.7684 13.1058 34.7559 13.3431 34.8167 13.5667C35.0991 14.4691 35.2999 15.395 35.4167 16.3334C32.0833 14.5834 32.6833 12.4667 30.4167 15.35C30.15 15.6667 28.8833 17.4167 28.1667 17.5334C27.9728 16.5091 27.9728 15.4576 28.1667 14.4334C28.2153 14.3096 28.2128 14.1716 28.1596 14.0497C28.1065 13.9278 28.0071 13.832 27.8833 13.7834C27.7596 13.7347 27.6216 13.7373 27.4997 13.7904C27.3778 13.8435 27.282 13.9429 27.2333 14.0667C26.9331 15.1508 26.8148 16.2772 26.8833 17.4C27 18.85 28.05 19.0667 29.25 18.3667C30.0988 17.7547 30.8564 17.0251 31.5 16.2L32.0333 15.8167C32.8252 16.6549 33.7347 17.3735 34.7333 17.95C35.5833 18.4 36.4 18.8834 37 18.2334C37.6 17.5834 37 14.9 36.8833 13.55C38.05 12.9834 40.1167 11.95 40 10.6667Z" fill="#6E9D3E"/>
<path fill-rule="evenodd" clip-rule="evenodd" d="M3.11667 13.6334C2.90521 14.7005 2.76601 15.7808 2.70001 16.8667C2.64401 17.1185 2.64179 17.3793 2.69348 17.632C2.74518 17.8848 2.84963 18.1238 3.00001 18.3334C3.65001 18.9834 4.41667 18.5 5.26667 18.05C6.26637 17.4684 7.17594 16.7441 7.96667 15.9L8.50001 16.2834C9.15614 17.0631 9.91273 17.7524 10.75 18.3334C11.9333 19 13 18.8334 13.1167 17.3667C13.1862 16.2438 13.0679 15.1173 12.7667 14.0334C12.7426 13.9721 12.7067 13.9161 12.661 13.8687C12.6153 13.8213 12.5607 13.7834 12.5004 13.7571C12.44 13.7308 12.375 13.7166 12.3092 13.7154C12.2434 13.7142 12.178 13.7259 12.1167 13.75C12.0554 13.7741 11.9994 13.81 11.952 13.8557C11.9046 13.9014 11.8667 13.956 11.8404 14.0163C11.8141 14.0767 11.7999 14.1416 11.7987 14.2075C11.7975 14.2733 11.8093 14.3387 11.8333 14.4C12.0272 15.4243 12.0272 16.4758 11.8333 17.5C11.1 17.3834 9.81667 15.6 9.58334 15.3167C7.30001 12.4334 7.91667 14.55 4.58334 16.3C4.70205 15.362 4.90282 14.4363 5.18334 13.5334C5.24413 13.3097 5.23162 13.0725 5.14762 12.8565C5.06362 12.6405 4.91258 12.4572 4.71667 12.3334C4.51667 12.2167 1.75001 10.9667 1.73334 11C2.26667 10.8667 3.63334 11 4.41667 10.8167C4.68334 10.8167 5.38334 10.8167 5.78334 10.4667C6.18334 10.1167 7.76667 6.66669 8.06667 6.75002C8.36667 6.83336 8.38334 7.01669 9.55001 9.35002C9.61858 9.48094 9.7356 9.57988 9.87609 9.62575C10.0166 9.67162 10.1694 9.66079 10.302 9.59557C10.4347 9.53035 10.5366 9.41589 10.586 9.27662C10.6354 9.13734 10.6285 8.98426 10.5667 8.85002L9.50001 6.53336C8.86667 5.25002 7.70001 5.00002 6.66667 6.30002L5.00001 9.10002C4.80055 9.07916 4.59946 9.07916 4.40001 9.10002C2.48334 9.36669 0.166673 9.11669 5.88197e-06 10.75C-0.116661 12.0334 1.95001 13.05 3.11667 13.6334Z" fill="#6E9D3E"/>
</g>
<defs>
<clipPath id="clip0_1051_8634">
<rect width="40" height="40" fill="white"/>
</clipPath>
</defs>
</svg>
