<svg width="40" height="40" viewBox="0 0 40 40" fill="none" xmlns="http://www.w3.org/2000/svg">
<path fill-rule="evenodd" clip-rule="evenodd" d="M13.3333 32.8C13.117 32.3932 12.8541 32.0128 12.55 31.6667C12.1288 31.2311 11.659 30.8453 11.15 30.5167C11.7166 29.9312 12.1512 29.231 12.4243 28.4634C12.6974 27.6958 12.8028 26.8785 12.7333 26.0667C12.7245 24.6772 12.1652 23.3479 11.178 22.37C10.1908 21.3922 8.85618 20.8456 7.46666 20.85C5.98043 20.8138 4.53948 21.3631 3.45451 22.3795C2.36953 23.3959 1.72744 24.7979 1.66666 26.2833C1.63998 27.2192 1.88565 28.1426 2.37384 28.9415C2.86202 29.7403 3.57171 30.3802 4.41666 30.7833C3.71625 31.1535 3.05222 31.5888 2.43333 32.0833C1.83959 32.5951 1.32312 33.1902 0.899997 33.85C0.518458 34.4253 0.256863 35.0716 0.13086 35.7503C0.00485699 36.429 0.0170343 37.1261 0.166664 37.8C0.166521 37.8729 0.181339 37.9451 0.210201 38.0121C0.239064 38.0791 0.281358 38.1394 0.334468 38.1894C0.387578 38.2394 0.450377 38.278 0.518982 38.3027C0.587586 38.3275 0.660539 38.3379 0.73333 38.3333C0.873391 38.3126 1.00007 38.2387 1.08699 38.1269C1.17392 38.0152 1.21439 37.8742 1.2 37.7333C1.19228 36.9595 1.42524 36.2023 1.86666 35.5667C2.29617 34.9052 2.78725 34.2858 3.33333 33.7167C4.15 32.8167 5 31.9167 5.7 31.2333C6.20755 31.3602 6.72712 31.4328 7.25 31.45C7.36074 31.4292 7.46072 31.3703 7.53266 31.2836C7.60459 31.1968 7.64396 31.0877 7.64396 30.975C7.64396 30.8623 7.60459 30.7532 7.53266 30.6665C7.46072 30.5797 7.36074 30.5208 7.25 30.5C4.3 30.2 3.01666 28.3333 3.16666 26.35C3.28048 25.2991 3.79737 24.3333 4.60863 23.6557C5.41989 22.9781 6.46231 22.6415 7.51666 22.7167C8.4791 22.6987 9.40967 23.0617 10.1058 23.7266C10.8019 24.3915 11.2071 25.3044 11.2333 26.2667C11.4318 27.2427 11.239 28.2576 10.6967 29.093C10.1543 29.9284 9.30564 30.5174 8.33333 30.7333C8.19023 30.7501 8.05943 30.8224 7.96905 30.9346C7.87867 31.0468 7.83592 31.19 7.85 31.3333C7.8744 31.4717 7.94929 31.596 8.06015 31.6822C8.17101 31.7684 8.30994 31.8104 8.45 31.8C9.03123 31.7355 9.59593 31.5661 10.1167 31.3C10.5152 31.77 10.8826 32.2655 11.2167 32.7833C11.4167 33.0833 11.6 33.4 11.7667 33.7C11.9333 34 12.1333 34.3167 12.3 34.6333C12.7103 35.4206 13.0559 36.24 13.3333 37.0833C13.3653 37.2208 13.4489 37.3407 13.5667 37.4182C13.6846 37.4958 13.8278 37.5251 13.9667 37.5C14.0369 37.4883 14.1039 37.4622 14.1636 37.4234C14.2232 37.3846 14.2742 37.3338 14.3133 37.2744C14.3524 37.2149 14.3789 37.148 14.3909 37.0778C14.403 37.0077 14.4004 36.9358 14.3833 36.8667C14.327 35.8951 14.1593 34.9333 13.8833 34C13.7348 33.5849 13.5508 33.1835 13.3333 32.8Z" fill="#6E9D3E"/>
<path fill-rule="evenodd" clip-rule="evenodd" d="M39.4833 34C39.3456 33.5861 39.1727 33.1846 38.9667 32.8C38.7513 32.4173 38.4941 32.0595 38.2 31.7334C37.7788 31.2978 37.309 30.912 36.8 30.5834C37.3816 30.0052 37.8315 29.3083 38.1192 28.5403C38.4068 27.7723 38.5253 26.9513 38.4667 26.1334C38.4578 24.7439 37.8985 23.4145 36.9113 22.4367C35.9241 21.4588 34.5895 20.9123 33.2 20.9167C31.7191 20.8711 30.2792 21.4073 29.1889 22.4104C28.0985 23.4135 27.4444 24.8038 27.3667 26.2834C27.3253 27.2074 27.5519 28.1237 28.0191 28.9221C28.4862 29.7204 29.1741 30.3668 30 30.7834C29.2973 31.1497 28.6329 31.5852 28.0167 32.0834C27.4186 32.5907 26.9015 33.1865 26.4833 33.85C26.1018 34.4253 25.8402 35.0716 25.7142 35.7503C25.5882 36.429 25.6004 37.1261 25.75 37.8C25.7823 37.9277 25.8607 38.0388 25.9701 38.1121C26.0795 38.1854 26.2121 38.2157 26.3424 38.197C26.4728 38.1784 26.5916 38.1122 26.6761 38.0113C26.7606 37.9103 26.8047 37.7816 26.8 37.65C26.8067 36.8758 27.0447 36.1213 27.4833 35.4834C27.8959 34.8536 28.3645 34.2623 28.8833 33.7167C29.7 32.8167 30.55 31.9167 31.25 31.2334C31.7575 31.3602 32.2771 31.4328 32.8 31.45C32.9107 31.4292 33.0107 31.3703 33.0827 31.2836C33.1546 31.1968 33.194 31.0877 33.194 30.975C33.194 30.8623 33.1546 30.7532 33.0827 30.6665C33.0107 30.5797 32.9107 30.5209 32.8 30.5C30 30.2 28.6667 28.3334 28.8167 26.35C28.9305 25.2991 29.4474 24.3333 30.2586 23.6557C31.0699 22.9781 32.1123 22.6415 33.1667 22.7167C34.1291 22.6988 35.0597 23.0617 35.7558 23.7266C36.4519 24.3915 36.8571 25.3044 36.8833 26.2667C37.0799 27.2522 36.8782 28.2754 36.3222 29.1125C35.7662 29.9496 34.9013 30.5324 33.9167 30.7334C33.8466 30.741 33.7788 30.7624 33.717 30.7963C33.6552 30.8302 33.6007 30.8759 33.5566 30.9308C33.5125 30.9858 33.4797 31.0488 33.4599 31.1165C33.4402 31.1841 33.434 31.255 33.4417 31.325C33.4493 31.3951 33.4707 31.4629 33.5046 31.5247C33.5385 31.5865 33.5842 31.641 33.6391 31.6851C33.6941 31.7292 33.7571 31.762 33.8248 31.7817C33.8924 31.8015 33.9633 31.8077 34.0333 31.8C34.6146 31.7356 35.1793 31.5661 35.7 31.3C36.0985 31.77 36.466 32.2655 36.8 32.7834C37 33.0834 37.1833 33.4 37.35 33.7C37.5167 34 37.7167 34.3167 37.8833 34.6334C38.2879 35.4212 38.6279 36.2405 38.9 37.0834C38.932 37.2208 39.0155 37.3407 39.1334 37.4182C39.2513 37.4958 39.3945 37.5251 39.5333 37.5C39.6024 37.4861 39.6681 37.4587 39.7266 37.4192C39.785 37.3798 39.835 37.3292 39.8738 37.2703C39.9125 37.2114 39.9392 37.1454 39.9523 37.0761C39.9654 37.0068 39.9646 36.9357 39.95 36.8667C39.9046 35.8964 39.748 34.9346 39.4833 34Z" fill="#6E9D3E"/>
<path fill-rule="evenodd" clip-rule="evenodd" d="M21.55 10.75C21.3 11.25 21.0833 11.75 20.8167 12.4167L20.2667 13.8667L19.8833 15L19.6333 15.8333L18.5667 14.8833L17.2333 13.7167L15.1167 11.7667C15.0732 11.7223 15.0214 11.6871 14.9641 11.663C14.9069 11.639 14.8454 11.6266 14.7833 11.6266C14.7213 11.6266 14.6598 11.639 14.6026 11.663C14.5453 11.6871 14.4935 11.7223 14.45 11.7667C14.4057 11.8101 14.3704 11.862 14.3464 11.9192C14.3223 11.9765 14.3099 12.0379 14.3099 12.1C14.3099 12.1621 14.3223 12.2236 14.3464 12.2808C14.3704 12.338 14.4057 12.3899 14.45 12.4333L16.4167 14.6L17.6333 15.8667L18.8333 17.15C19 17.3167 19.1667 17.75 19.3167 17.8833C19.4797 18.0239 19.685 18.106 19.9 18.1167C20.0381 18.1161 20.1743 18.0843 20.2984 18.0237C20.4225 17.9631 20.5313 17.8752 20.6167 17.7667C20.8039 17.541 20.9557 17.2881 21.0667 17.0167C21.2833 16.5333 21.4333 15.95 21.5667 15.5833L21.9667 14.45L22.5167 13.0833L23.9167 10C24.6192 8.63183 25.4213 7.31718 26.3167 6.06668C27.2084 4.8422 28.2373 3.72381 29.3833 2.73334C29.4938 2.64494 29.5647 2.51625 29.5803 2.3756C29.596 2.23495 29.5551 2.09385 29.4667 1.98334C29.3783 1.87284 29.2496 1.80197 29.1089 1.78635C28.9683 1.77072 28.8272 1.8116 28.7167 1.90001C27.4213 2.86765 26.2463 3.9867 25.2167 5.23334C24.1774 6.47548 23.2357 7.79608 22.4 9.18334C22.0667 9.76668 21.8 10.25 21.55 10.75Z" fill="#6E9D3E"/>
<path fill-rule="evenodd" clip-rule="evenodd" d="M33.0167 10.9834C32.7068 10.1906 32.298 9.44024 31.8 8.75004C31.0801 7.76398 30.3067 6.81812 29.4833 5.9167C29.4038 5.82167 29.2897 5.76213 29.1662 5.75119C29.0428 5.74025 28.92 5.77881 28.825 5.85837C28.73 5.93794 28.6704 6.052 28.6595 6.17546C28.6485 6.29892 28.6871 6.42167 28.7667 6.5167C29.5348 7.42097 30.2525 8.36684 30.9167 9.35004C31.3492 9.97933 31.6966 10.663 31.95 11.3834C32.3912 12.4832 32.4968 13.6889 32.2536 14.8487C32.0103 16.0084 31.4292 17.0702 30.5833 17.9C29.1859 19.0928 27.5569 19.9838 25.7988 20.5173C24.0407 21.0508 22.1913 21.2151 20.3667 21C15.4667 20.75 12.15 19.5167 10.15 17.7834C9.26546 17.0983 8.60788 16.1626 8.26301 15.0982C7.91814 14.0339 7.90199 12.8904 8.21666 11.8167C9.46666 7.58337 15.2333 4.00004 23.6167 5.28337C23.6867 5.29541 23.7584 5.29353 23.8277 5.27785C23.897 5.26217 23.9626 5.23299 24.0206 5.19198C24.0787 5.15097 24.1281 5.09893 24.166 5.03882C24.2039 4.97872 24.2296 4.91174 24.2417 4.8417C24.2537 4.77167 24.2518 4.69994 24.2361 4.63063C24.2205 4.56132 24.1913 4.49577 24.1503 4.43773C24.1093 4.3797 24.0572 4.33031 23.9971 4.29238C23.937 4.25446 23.87 4.22874 23.8 4.2167C14.55 2.55004 8.18333 6.66671 6.66666 11.3334C5.63333 14.5167 6.66666 18 10.65 20.35C13.6125 21.9089 16.9026 22.7428 20.25 22.7834C22.3193 22.959 24.4025 22.7031 26.3677 22.0318C28.3329 21.3604 30.1373 20.2883 31.6667 18.8834C32.6473 17.8474 33.2988 16.5441 33.5391 15.138C33.7794 13.7319 33.5976 12.2862 33.0167 10.9834Z" fill="#6E9D3E"/>
</svg>
