<svg width="40" height="40" viewBox="0 0 40 40" fill="none" xmlns="http://www.w3.org/2000/svg">
<g clip-path="url(#clip0_1051_8950)">
<path d="M39.8 12.0834C39.818 10.147 39.7345 8.21101 39.55 6.28336C39.4 4.73336 39.55 2.38336 38.4833 1.55003C37.3214 0.77398 35.9772 0.314409 34.5833 0.216695C28.8415 -0.0968425 23.0855 -0.0467423 17.35 0.366695C16.4675 0.511568 15.6489 0.917994 15 1.53336C13.7333 3.08336 13.6667 11.95 13.6333 13.95C13.6333 14.1003 13.693 14.2445 13.7993 14.3507C13.9056 14.457 14.0497 14.5167 14.2 14.5167C14.3503 14.5167 14.4944 14.457 14.6007 14.3507C14.707 14.2445 14.7667 14.1003 14.7667 13.95C14.7667 12.5167 15.2 3.53336 16.1333 2.4667C16.5441 2.16959 17.0172 1.97009 17.5167 1.88336C20.0167 1.6167 32.5167 1.88336 34.3333 2.0667C34.9942 2.14018 35.6469 2.27407 36.2833 2.4667C37.7833 2.98336 37.3667 3.10003 37.7333 6.43336C38.1718 9.52424 38.278 12.6532 38.05 15.7667C38.0148 16.7938 37.8809 17.8152 37.65 18.8167C37.3167 18.5834 38.5833 19.5 29.55 20.3334C29.4174 20.3334 29.2902 20.386 29.1964 20.4798C29.1027 20.5736 29.05 20.7008 29.05 20.8334C29.05 20.966 29.1027 21.0931 29.1964 21.1869C29.2902 21.2807 29.4174 21.3334 29.55 21.3334L30.85 21.2334C30.7526 22.2679 31.0437 23.3017 31.6667 24.1334C30.7933 24.1903 29.9308 24.3583 29.1 24.6334C28.9851 24.6546 28.8813 24.7154 28.8065 24.8052C28.7318 24.895 28.6909 25.0082 28.6909 25.125C28.6909 25.2419 28.7318 25.355 28.8065 25.4448C28.8813 25.5346 28.9851 25.5955 29.1 25.6167C30.8142 26.2256 32.6858 26.2256 34.4 25.6167C34.5315 25.5939 34.6508 25.5254 34.7368 25.4232C34.8227 25.3211 34.8698 25.1919 34.8698 25.0584C34.8698 24.9249 34.8227 24.7957 34.7368 24.6935C34.6508 24.5914 34.5315 24.5228 34.4 24.5L33.15 24.3167C33.218 23.2329 32.9313 22.1564 32.3333 21.25C33.5667 21.1334 38.15 20.7334 38.8333 19.7C39.5167 18.6667 39.7833 13.3334 39.8 12.0834Z" fill="#6E9D3E"/>
<path d="M27.3167 12.1833C27.6924 12.2397 28.0576 12.352 28.4 12.5167C29.3458 13.047 30.0987 13.8641 30.55 14.85C30.55 15.2 31.8167 15.3 31.8167 14.6833C31.6017 13.8009 31.1903 12.9784 30.6131 12.2772C30.036 11.5759 29.3079 11.014 28.4833 10.6333C31.8167 8.46668 30.3333 2.86668 26.3 3.13335C25.3832 3.0746 24.4715 3.30991 23.6976 3.80503C22.9237 4.30016 22.328 5.02927 21.9971 5.88632C21.6661 6.74337 21.6173 7.68365 21.8576 8.57038C22.098 9.4571 22.6149 10.244 23.3333 10.8167C23.55 10.9667 23.5167 10.8167 22.9333 11.2333C22.2971 11.608 21.7442 12.1088 21.3085 12.705C20.8729 13.3011 20.5637 13.98 20.4 14.7C20.4 15.4667 20.95 15.5 21.5667 15.0667C22.0132 13.9711 22.8423 13.0749 23.8999 12.5445C24.9574 12.0142 26.1716 11.8859 27.3167 12.1833ZM23.3333 8.71668C22.8333 6.78335 23.8333 5.15002 26.3167 5.01668C26.6261 5.00226 26.9352 5.05287 27.2239 5.16525C27.5126 5.27764 27.7746 5.44929 27.9929 5.66915C28.2112 5.88901 28.381 6.15219 28.4913 6.4417C28.6016 6.73122 28.65 7.04064 28.6333 7.35002C28.8333 10.6833 24.0667 11.4 23.3333 8.71668Z" fill="#6E9D3E"/>
<path d="M34.7833 15.7167C31.45 15.4 19.3833 15.7167 19.0333 15.7167C18.9184 15.7379 18.8146 15.7987 18.7399 15.8885C18.6652 15.9783 18.6242 16.0915 18.6242 16.2083C18.6242 16.3252 18.6652 16.4383 18.7399 16.5281C18.8146 16.618 18.9184 16.6788 19.0333 16.7C24.2745 17.0822 29.5336 17.1546 34.7833 16.9167C35.85 16.9167 36.45 17.1333 36.45 16.5333C36.7667 15.7 35.75 15.7667 34.7833 15.7167Z" fill="#6E9D3E"/>
<path d="M11.1833 17.1167C0.049986 18.0334 2.38332 31.3334 9.51665 30.6334C9.59805 30.6475 9.68155 30.6436 9.7613 30.6221C9.84105 30.6005 9.91513 30.5618 9.97834 30.5086C10.0415 30.4554 10.0924 30.389 10.1272 30.3142C10.1621 30.2393 10.1801 30.1576 10.1801 30.075C10.1801 29.9924 10.1621 29.9108 10.1272 29.8359C10.0924 29.761 10.0415 29.6946 9.97834 29.6415C9.91513 29.5883 9.84105 29.5495 9.7613 29.528C9.68155 29.5064 9.59805 29.5026 9.51665 29.5167C4.09999 29.7834 2.56665 19.5167 11.4 19C17.05 18.5 18.8667 28.0834 11.4 29.7834C11.3354 29.7954 11.2739 29.82 11.2188 29.8559C11.1638 29.8917 11.1163 29.938 11.0792 29.9922C11.042 30.0464 11.0159 30.1073 11.0023 30.1716C10.9887 30.2358 10.9879 30.3021 11 30.3667C11.012 30.4313 11.0367 30.4928 11.0725 30.5479C11.1083 30.6029 11.1546 30.6504 11.2088 30.6875C11.263 30.7247 11.3239 30.7508 11.3882 30.7644C11.4524 30.7779 11.5188 30.7787 11.5833 30.7667C20.85 29.25 19.1 16.6667 11.1833 17.1167Z" fill="#6E9D3E"/>
<path d="M13.3333 25.2833C13.3333 24.9333 13 23.8 12.3833 24.7167C11.9184 25.1825 11.4228 25.6168 10.9 26.0167C10.2402 25.6322 9.55535 25.2925 8.84998 25C8.68331 25 8.46665 25.1 8.44998 25.35C8.48764 25.7955 8.6543 26.2203 8.92958 26.5725C9.20486 26.9248 9.57683 27.1891 9.99998 27.3333C10.3809 27.46 10.7865 27.4942 11.1833 27.4333C12.3833 27.1833 13.3333 25.4333 13.3333 25.2833Z" fill="#6E9D3E"/>
<path d="M6.38333 30.7334C4.91993 31.2838 3.61857 32.1936 2.59916 33.379C1.57974 34.5645 0.875045 35.9874 0.549994 37.5167C0.433327 38.0167 0.316661 38.6334 0.199994 39.3334C0.174265 39.3999 0.163063 39.4711 0.167138 39.5423C0.171213 39.6135 0.190472 39.683 0.223622 39.7462C0.256772 39.8093 0.303046 39.8646 0.359337 39.9084C0.415629 39.9522 0.480636 39.9834 0.549994 40C1.14999 40.1667 1.13333 39.55 1.86666 38.0334C2.37573 37.0893 2.93199 36.1715 3.53333 35.2834C4.28436 33.8657 5.40066 32.6746 6.76666 31.8334C6.91253 31.7825 7.03223 31.6758 7.09943 31.5367C7.16663 31.3977 7.17583 31.2376 7.12499 31.0917C7.07416 30.9458 6.96746 30.8261 6.82837 30.7589C6.68928 30.6917 6.5292 30.6825 6.38333 30.7334Z" fill="#6E9D3E"/>
<path d="M25.7166 20.7667C25.2917 20.5566 24.824 20.4473 24.35 20.4473C23.8759 20.4473 23.4083 20.5566 22.9833 20.7667C20.9839 22.6348 19.0814 24.6041 17.2833 26.6667C17.1839 26.7507 17.1218 26.8707 17.1109 27.0004C17.1 27.1302 17.141 27.2589 17.225 27.3584C17.309 27.4578 17.429 27.5198 17.5587 27.5308C17.6884 27.5417 17.8172 27.5007 17.9166 27.4167C19.7969 25.6128 21.7719 23.9104 23.8333 22.3167C24.05 22.2 25.7333 21.9667 25.1666 23.8334C24.7807 24.9405 24.2541 25.9936 23.6 26.9667C20.8166 31.45 19.7833 31.7667 19.75 33.5C19.75 34.6167 20.3166 36.0334 20.4166 39.5167C20.4166 39.667 20.4763 39.8111 20.5826 39.9174C20.6889 40.0237 20.833 40.0834 20.9833 40.0834C21.1336 40.0834 21.2777 40.0237 21.384 39.9174C21.4903 39.8111 21.55 39.667 21.55 39.5167C21.6333 36.3334 21.1833 34.3334 21.25 33.5667C21.3333 32.4834 22.7833 31.6667 25.1833 27.9834C25.9476 26.8633 26.5481 25.6398 26.9666 24.35C27.2833 23.1167 26.95 21.15 25.7166 20.7667Z" fill="#6E9D3E"/>
</g>
<defs>
<clipPath id="clip0_1051_8950">
<rect width="40" height="40" fill="white"/>
</clipPath>
</defs>
</svg>
