<svg width="41" height="40" viewBox="0 0 41 40" fill="none" xmlns="http://www.w3.org/2000/svg">
<path fill-rule="evenodd" clip-rule="evenodd" d="M40.8334 9.15001C40.7852 7.31983 40.5845 5.49684 40.2334 3.70001C40.1338 3.06486 39.8295 2.47962 39.3667 2.03335C37.896 1.4419 36.3341 1.10922 34.75 1.05001C28.9436 0.524124 23.1122 0.323811 17.2834 0.450012C13.3778 0.452024 9.47799 0.747299 5.61669 1.33335C4.41653 1.45171 3.27625 1.91477 2.33336 2.66668C1.70775 3.85579 1.36551 5.17343 1.33336 6.51668C0.969849 11.1519 0.891924 15.8052 1.10003 20.45C1.19778 25.695 1.72173 30.9233 2.66669 36.0833C2.79485 36.8066 3.09812 37.4876 3.55003 38.0667C4.47242 38.6309 5.52041 38.9573 6.60003 39.0167C10.285 39.4315 13.9919 39.6207 17.7 39.5833C24.6233 39.6749 31.5447 39.2962 38.4167 38.45C38.4821 38.442 38.5451 38.4207 38.602 38.3874C38.6588 38.3542 38.7083 38.3097 38.7473 38.2566C38.7863 38.2035 38.8141 38.143 38.8289 38.0789C38.8437 38.0147 38.8452 37.9481 38.8334 37.8833C38.8128 37.7489 38.74 37.6279 38.6307 37.5468C38.5215 37.4657 38.3847 37.4309 38.25 37.45C31.4141 38.1705 24.5372 38.4267 17.6667 38.2167C14.0276 38.1872 10.3935 37.9423 6.78336 37.4833C6.02119 37.4409 5.27685 37.2363 4.60003 36.8833C4.18751 35.9932 3.95527 35.0303 3.91669 34.05C3.35587 29.5203 3.03874 24.9637 2.96669 20.4C2.79212 15.8204 2.8923 11.2343 3.26669 6.66668C3.27197 5.71618 3.46453 4.77604 3.83336 3.90001C3.98476 3.78912 4.15381 3.7046 4.33336 3.65001C5.079 3.41151 5.84256 3.23316 6.61669 3.11668C11.3868 2.51409 16.1923 2.23567 21 2.28335C26.45 2.28335 31.9167 2.41668 35.3667 2.78335C36.3977 2.8317 37.4177 3.01664 38.4 3.33335C38.1834 3.51668 38.7 4.03335 38.8167 4.68335C39.2076 7.28293 39.4303 9.90506 39.4834 12.5333C39.75 19.8833 39.6 29.6667 39.4834 35.8667C39.4833 36.0185 39.5425 36.1644 39.6483 36.2734C39.7541 36.3823 39.8982 36.4457 40.05 36.45C40.2019 36.4501 40.3478 36.3909 40.4567 36.2851C40.5657 36.1793 40.629 36.0351 40.6334 35.8833C40.8667 28.6833 41.2 16.6667 40.8334 9.15001Z" fill="#6E9D3E"/>
<path fill-rule="evenodd" clip-rule="evenodd" d="M8.15 13.8833C9.3337 14.0202 10.5254 14.0758 11.7167 14.05C12.3685 14.0557 13.0183 13.9772 13.65 13.8167C13.8675 13.7458 14.0628 13.6194 14.2167 13.45C14.3832 13.243 14.4924 12.9959 14.5333 12.7333C14.6512 11.8272 14.6791 10.9116 14.6167 10C14.6067 9.05454 14.5119 8.11187 14.3333 7.18335C14.2642 6.93583 14.1387 6.70766 13.9667 6.51668C13.4508 6.25767 12.8765 6.13707 12.3 6.16668C10.6877 6.15662 9.0772 6.27365 7.48334 6.51668C7.40071 6.53392 7.32315 6.56994 7.25668 6.62197C7.1902 6.67399 7.1366 6.74061 7.10001 6.81668C6.98104 6.84641 6.87542 6.91504 6.79992 7.01167C6.72443 7.1083 6.6834 7.22739 6.68334 7.35002C6.5362 9.04583 6.47501 10.748 6.5 12.45C6.51426 12.8618 6.68051 13.2536 6.96667 13.55C7.33704 13.7335 7.73831 13.8466 8.15 13.8833ZM9.81667 7.50002C10.7716 7.51192 11.7243 7.59549 12.6667 7.75002C12.7373 8.91561 12.7373 10.0844 12.6667 11.25V12.0333C11.2735 12.2022 9.86888 12.2579 8.46667 12.2H7.93334C7.8023 10.637 7.75223 9.06822 7.78334 7.50002C8.28334 7.46668 9.06667 7.46668 9.86667 7.50002H9.81667Z" fill="#6E9D3E"/>
<path fill-rule="evenodd" clip-rule="evenodd" d="M7.15006 23.7167C7.53374 23.9118 7.95367 24.0252 8.38339 24.05C9.56736 24.1846 10.7585 24.2458 11.9501 24.2333C12.6026 24.2343 13.2525 24.1502 13.8834 23.9833C14.0985 23.9074 14.2926 23.7818 14.4501 23.6167C14.6111 23.4063 14.7196 23.1607 14.7667 22.9C14.8802 21.9768 14.9081 21.045 14.8501 20.1167C14.8116 19.1908 14.6889 18.2703 14.4834 17.3667C14.4345 17.1114 14.3061 16.878 14.1167 16.7C13.6008 16.441 13.0265 16.3204 12.4501 16.35C10.8498 16.3293 9.25033 16.4352 7.66672 16.6667C7.58326 16.6751 7.50361 16.7058 7.43615 16.7557C7.36869 16.8056 7.31592 16.8727 7.28339 16.95C7.164 16.9816 7.05772 17.0502 6.97985 17.1461C6.90198 17.2419 6.85653 17.36 6.85006 17.4833C6.85006 18.9167 6.60006 21.4667 6.68339 22.6C6.68134 22.8081 6.72166 23.0143 6.80189 23.2063C6.88212 23.3983 7.00058 23.5719 7.15006 23.7167ZM10.0834 17.6667C11.0267 17.6886 11.9676 17.7721 12.9001 17.9167C12.978 19.0709 12.978 20.2291 12.9001 21.3833V22.1667C11.5068 22.3355 10.1023 22.3912 8.70005 22.3333H8.16672C8.00006 21.2833 7.96672 19 7.93339 17.6167C8.51672 17.65 9.33339 17.65 10.0834 17.6667Z" fill="#6E9D3E"/>
<path fill-rule="evenodd" clip-rule="evenodd" d="M7.50003 34.2167C7.88371 34.4118 8.30364 34.5252 8.73336 34.55C9.91706 34.6868 11.1087 34.7425 12.3 34.7167C12.9463 34.7225 13.5907 34.6441 14.2167 34.4833C14.4386 34.4116 14.6392 34.2856 14.8 34.1167C14.9711 33.8871 15.0802 33.6173 15.1167 33.3333C15.2027 32.402 15.2027 31.4647 15.1167 30.5333C15.0787 29.6129 14.9559 28.6979 14.75 27.8C14.6955 27.5419 14.5682 27.3048 14.3834 27.1167C13.8659 26.8634 13.2917 26.7486 12.7167 26.7833C11.1049 26.7673 9.49428 26.8787 7.90003 27.1167C7.8164 27.1313 7.73768 27.1664 7.67082 27.2187C7.60396 27.271 7.55102 27.339 7.51669 27.4167C7.39731 27.4483 7.29103 27.5169 7.21316 27.6128C7.13529 27.7086 7.08984 27.8267 7.08336 27.95C7.00003 29.3833 6.83336 31.9333 6.91669 33.05C6.93049 33.2737 6.98926 33.4923 7.08949 33.6928C7.18972 33.8932 7.32935 34.0714 7.50003 34.2167ZM10.4334 28.1667C11.3767 28.1886 12.3176 28.2721 13.25 28.4167C13.328 29.5709 13.328 30.7291 13.25 31.8833V32.6667C11.8555 32.8188 10.4522 32.8745 9.05003 32.8333C8.86708 32.8164 8.68297 32.8164 8.50003 32.8333C8.35003 31.7833 8.31669 29.5 8.28336 28.1C8.86669 28.1333 9.63336 28.1333 10.4334 28.1667Z" fill="#6E9D3E"/>
<path fill-rule="evenodd" clip-rule="evenodd" d="M24.0334 9.25002C24.3 9.25002 24.95 9.05002 25.15 9.03335H27.9834H29.4334C30.5 9.03335 31.5667 8.86669 32.65 8.90002L36.1834 9.00002C36.3337 9.00002 36.4778 8.94032 36.5841 8.83405C36.6903 8.72778 36.75 8.58364 36.75 8.43335C36.7501 8.28149 36.6909 8.13559 36.5851 8.02666C36.4793 7.91773 36.3352 7.85436 36.1834 7.85002L32.6667 7.18335C32.0202 7.09748 31.3689 7.05295 30.7167 7.05002C29.7834 7.05002 28.85 7.15002 27.9167 7.16669C27.4913 7.20327 27.0684 7.26449 26.65 7.35002L24.9834 7.78335C24.7667 7.78335 23.5 8.35002 23.4834 8.36668C23.4667 8.38335 23.2167 9.41669 24.0334 9.25002Z" fill="#6E9D3E"/>
<path fill-rule="evenodd" clip-rule="evenodd" d="M19.4667 16C19.4667 16 19.0834 16.8833 19.8001 16.9167H20.2667C21.0667 16.9167 22.7501 17.0167 24.7501 17.05H26.6001C27.5167 17.05 28.4501 17.05 29.3667 16.9167C32.7001 16.65 35.7667 16.25 36.2667 16.2333C36.4185 16.229 36.5627 16.1656 36.6685 16.0567C36.7743 15.9478 36.8334 15.8019 36.8334 15.65C36.8334 15.4997 36.7737 15.3556 36.6674 15.2493C36.5611 15.143 36.417 15.0833 36.2667 15.0833C35.7667 15 32.6667 15 29.3334 15C28.4167 15 27.4667 15 26.5501 15.1333L24.7167 15.3167C22.7334 15.5333 21.0667 15.7667 20.2667 15.85C19.4667 15.9333 19.6001 15.9 19.4667 16Z" fill="#6E9D3E"/>
<path fill-rule="evenodd" clip-rule="evenodd" d="M36.2667 24.2333C36.417 24.2333 36.5611 24.1736 36.6674 24.0674C36.7737 23.9611 36.8334 23.817 36.8334 23.6667C36.8335 23.5148 36.7743 23.3689 36.6685 23.26C36.5627 23.151 36.4185 23.0877 36.2667 23.0833C35.7667 23.0833 32.6667 22.95 29.2834 23.0833C28.3667 23.0833 27.4167 23.0833 26.5001 23.2167L24.6667 23.3333C22.6834 23.55 21.0167 23.7667 20.2167 23.8667C18.7167 24.0167 19.4001 24.9 19.8001 24.9167H20.2667C21.0667 24.9167 22.7501 25.0167 24.7501 25.05H26.6001C27.5167 25.05 28.4501 25.05 29.3667 24.9167C32.6667 24.6667 35.7667 24.2667 36.2667 24.2333Z" fill="#6E9D3E"/>
<path fill-rule="evenodd" clip-rule="evenodd" d="M24.4167 30.9833H23.1L22.2334 31.1167C17.8334 31.9 20.1334 32.6 20.2 32.6167C20.55 32.6167 21.3 32.7667 22.3167 32.85C22.6109 32.8676 22.9058 32.8676 23.2 32.85C23.6327 32.8824 24.0673 32.8824 24.5 32.85C25.5334 32.75 26.6334 32.5 27.8334 32.3167C27.9078 32.3124 27.9807 32.2935 28.0478 32.261C28.115 32.2286 28.175 32.1831 28.2246 32.1274C28.2741 32.0717 28.3122 32.0067 28.3366 31.9362C28.361 31.8657 28.3712 31.7911 28.3667 31.7167C28.3581 31.5649 28.2905 31.4225 28.1785 31.3197C28.0664 31.217 27.9186 31.1621 27.7667 31.1667C26.5667 31.1333 25.45 31 24.4167 30.9833Z" fill="#6E9D3E"/>
</svg>
