<svg width="40" height="40" viewBox="0 0 40 40" fill="none" xmlns="http://www.w3.org/2000/svg">
<g clip-path="url(#clip0_1034_4091)">
<path fill-rule="evenodd" clip-rule="evenodd" d="M16.9167 28.5C13.5833 28.5 6.43332 28.2667 3.39999 27.0167C2.94999 26.8333 2.59999 26.7167 2.54999 26.4667C2.06665 24.4167 1.13332 5.83334 1.83332 1.88334C1.86205 1.75294 1.83781 1.61647 1.76592 1.50395C1.69403 1.39143 1.58038 1.31207 1.44999 1.28334C1.31959 1.25461 1.18312 1.27885 1.0706 1.35074C0.958074 1.42263 0.878718 1.53628 0.849986 1.66667C-0.16668 5.91667 -0.333347 22.3833 0.73332 26.9C0.87765 27.4228 1.21004 27.8739 1.66665 28.1667C4.46665 30.0167 13.5667 29.8333 16.9167 29.6333C17.0669 29.6333 17.2111 29.5736 17.3173 29.4674C17.4236 29.3611 17.4833 29.217 17.4833 29.0667C17.4833 28.9164 17.4236 28.7722 17.3173 28.666C17.2111 28.5597 17.0669 28.5 16.9167 28.5Z" fill="#6E9D3E"/>
<path fill-rule="evenodd" clip-rule="evenodd" d="M3.51664 1.66665C6.99998 1.51665 29.2833 1.91665 32.1333 2.78332C32.65 3.31665 32.9666 7.78332 33.1 8.83332C33.4166 11.2166 33.6333 13.2333 33.7666 15.6666C33.7666 15.7993 33.8193 15.9264 33.9131 16.0202C34.0069 16.114 34.134 16.1666 34.2666 16.1666C34.3993 16.1666 34.5264 16.114 34.6202 16.0202C34.714 15.9264 34.7666 15.7993 34.7666 15.6666C34.7666 13.4833 34.6333 10.9166 34.4833 8.69998C34.35 6.76665 34.4833 2.53332 33.2333 1.41665C30.8666 -0.73335 7.13331 0.149983 3.44998 0.466649C3.37118 0.471027 3.29403 0.490881 3.22291 0.525078C3.15179 0.559275 3.0881 0.607145 3.03548 0.665956C2.92921 0.784729 2.87447 0.940853 2.88331 1.09998C2.89215 1.25911 2.96384 1.40821 3.08262 1.51448C3.20139 1.62075 3.35751 1.67549 3.51664 1.66665Z" fill="#6E9D3E"/>
<path fill-rule="evenodd" clip-rule="evenodd" d="M5.24999 4.99997C5.48437 5.23405 5.80208 5.36553 6.13333 5.36553C6.46458 5.36553 6.78229 5.23405 7.01666 4.99997C7.15939 4.76048 7.20267 4.47463 7.13726 4.20362C7.07184 3.93261 6.90292 3.69798 6.66666 3.54997C5.61666 3.01663 4.26666 4.0833 5.24999 4.99997Z" fill="#6E9D3E"/>
<path fill-rule="evenodd" clip-rule="evenodd" d="M9.03333 4.64998C9.2726 4.88114 9.5923 5.01034 9.925 5.01034C10.2577 5.01034 10.5774 4.88114 10.8167 4.64998C10.9492 4.42097 10.9919 4.15088 10.9365 3.89216C10.881 3.63344 10.7314 3.40456 10.5167 3.24998C9.41666 2.63331 8.05 3.69998 9.03333 4.64998Z" fill="#6E9D3E"/>
<path fill-rule="evenodd" clip-rule="evenodd" d="M13.1833 4.64999C13.3058 4.76723 13.4505 4.85869 13.609 4.91897C13.7674 4.97924 13.9364 5.00709 14.1058 5.00087C14.2752 4.99466 14.4416 4.9545 14.5952 4.88277C14.7488 4.81105 14.8865 4.70922 15 4.58333C15.1325 4.35432 15.1752 4.08423 15.1198 3.82551C15.0644 3.56679 14.9147 3.33791 14.7 3.18333C13.55 2.63333 12.2 3.69999 13.1833 4.64999Z" fill="#6E9D3E"/>
<path fill-rule="evenodd" clip-rule="evenodd" d="M2.61666 8.09999C4.71666 8.09999 10.0333 8.53333 16.5 8.53333C22.3333 8.53333 26.1333 8.26666 30.4 8.14999C30.5503 8.14999 30.6944 8.09029 30.8007 7.98402C30.907 7.87775 30.9667 7.73362 30.9667 7.58333C30.9667 7.43304 30.907 7.2889 30.8007 7.18263C30.6944 7.07636 30.5503 7.01666 30.4 7.01666C21.1167 7.01666 20.3 6.09999 2.58333 7.01666C2.5122 7.01885 2.44219 7.03503 2.37731 7.06427C2.31243 7.09351 2.25395 7.13525 2.2052 7.1871C2.15645 7.23894 2.11838 7.29988 2.09319 7.36644C2.06799 7.43299 2.05614 7.50386 2.05833 7.57499C2.06052 7.64613 2.0767 7.71613 2.10594 7.78101C2.13518 7.84589 2.17692 7.90438 2.22877 7.95313C2.28061 8.00188 2.34155 8.03994 2.40811 8.06514C2.47466 8.09034 2.54553 8.10218 2.61666 8.09999Z" fill="#6E9D3E"/>
<path fill-rule="evenodd" clip-rule="evenodd" d="M38.55 34.3666C37.2459 32.7489 35.5133 31.5303 33.55 30.85C38.2166 27.9833 37.8833 19.6833 32.2333 18.5833C32.16 18.5688 32.0845 18.5689 32.0112 18.5837C31.9379 18.5985 31.8683 18.6277 31.8063 18.6695C31.7443 18.7113 31.6912 18.765 31.6501 18.8275C31.609 18.8899 31.5806 18.9599 31.5666 19.0333C31.35 20.0333 32.8833 19.3666 34.3666 21.25C36.6333 24.1666 35.0166 31.5333 27.4 29.7666C21.6166 28.5833 22.3 18.3833 30.2833 18.9C30.349 18.9065 30.4153 18.9001 30.4785 18.881C30.5416 18.862 30.6004 18.8307 30.6515 18.7889C30.7026 18.7471 30.7449 18.6957 30.7761 18.6375C30.8073 18.5794 30.8267 18.5156 30.8333 18.45C30.8399 18.3843 30.8334 18.318 30.8144 18.2548C30.7953 18.1917 30.764 18.1328 30.7222 18.0818C30.6804 18.0307 30.629 17.9884 30.5708 17.9572C30.5127 17.926 30.449 17.9065 30.3833 17.9C28.6868 17.5267 26.9125 17.7853 25.3931 18.6272C23.8738 19.4691 22.7138 20.8365 22.1309 22.4728C21.5479 24.1091 21.5821 25.9019 22.2269 27.5148C22.8718 29.1277 24.083 30.4499 25.6333 31.2333C21.9666 32.7 18.9666 35.6833 19.4666 39.5666C19.4666 39.6992 19.5193 39.8264 19.6131 39.9202C19.7069 40.014 19.834 40.0666 19.9666 40.0666C20.0992 40.0666 20.2264 40.014 20.3202 39.9202C20.414 39.8264 20.4666 39.6992 20.4666 39.5666C20.65 37.15 23.8 34.1 25.5666 32.7833C27.0666 31.8666 27.0333 31.9166 27.2333 31.75C28.933 32.1487 30.7101 32.0679 32.3666 31.5166C33.662 32.354 34.8782 33.3079 36 34.3666C37.5456 35.6524 38.6284 37.4083 39.0833 39.3666C39.0833 39.4993 39.136 39.6264 39.2298 39.7202C39.3235 39.814 39.4507 39.8666 39.5833 39.8666C39.7159 39.8666 39.8431 39.814 39.9369 39.7202C40.0306 39.6264 40.0833 39.4993 40.0833 39.3666C40.2356 37.5647 39.6863 35.7734 38.55 34.3666Z" fill="#6E9D3E"/>
<path fill-rule="evenodd" clip-rule="evenodd" d="M28.5167 23.15C27.3153 23.8867 25.9253 24.2574 24.5167 24.2166C24.451 24.2112 24.3849 24.2187 24.3222 24.2388C24.2594 24.2588 24.2012 24.2911 24.1509 24.3336C24.1006 24.3762 24.0592 24.4282 24.029 24.4868C23.9988 24.5454 23.9805 24.6093 23.975 24.675C23.9695 24.7406 23.977 24.8067 23.9971 24.8695C24.0172 24.9322 24.0494 24.9904 24.092 25.0407C24.1345 25.091 24.1866 25.1325 24.2452 25.1626C24.3037 25.1928 24.3677 25.2112 24.4333 25.2166C27.7667 25.8333 29.0833 25.2166 31.8333 23.4C32.8667 24.4166 33.8167 25.7833 34.4333 25.0666C34.5392 24.9604 34.5986 24.8166 34.5986 24.6666C34.5986 24.5167 34.5392 24.3729 34.4333 24.2666C33.0167 22.7833 32.8833 21.1166 31.4 21.55C30.3987 22.0075 29.4347 22.5424 28.5167 23.15Z" fill="#6E9D3E"/>
<path fill-rule="evenodd" clip-rule="evenodd" d="M9.55 11.9C9.20249 11.3569 8.69593 10.9342 8.09939 10.6897C7.50285 10.4451 6.84538 10.3905 6.21666 10.5333C5.82785 10.6614 5.47451 10.8789 5.18504 11.1683C4.89558 11.4578 4.67807 11.8111 4.55 12.2C4.4127 12.5996 4.38731 13.0291 4.47657 13.4421C4.56584 13.8551 4.76637 14.2359 5.05644 14.5431C5.34652 14.8504 5.71511 15.0724 6.12231 15.1853C6.52951 15.2981 6.95982 15.2974 7.36666 15.1833C8.09003 15.0345 8.72534 14.606 9.13426 13.9911C9.54319 13.3762 9.69261 12.6246 9.55 11.9ZM7.16666 13.3333C6.43333 13.5666 6.06666 13 6.26666 12.4666C7.01666 10.55 9.81666 12.55 7.16666 13.3333Z" fill="#6E9D3E"/>
<path fill-rule="evenodd" clip-rule="evenodd" d="M26.5 12.75C26.3166 12.75 21.5 12.25 21.3 12.2333C20.2666 12.1 20.0666 10.7167 17.2166 12.2333C16.4333 12.65 16.55 12.6 15.55 12.15C15.1333 11.9333 14.2 11.2 13.4166 11.45C12.6333 11.7 12.65 12.15 12.4666 12.75C12.4666 12.9167 12.05 13.35 12.3833 13.6833C12.4463 13.766 12.532 13.8285 12.63 13.8631C12.728 13.8977 12.8339 13.9029 12.9348 13.8781C13.0357 13.8533 13.1272 13.7996 13.198 13.7236C13.2688 13.6475 13.3158 13.5524 13.3333 13.45C13.4123 13.346 13.4691 13.2269 13.5 13.1C13.5 12.9833 13.8 12.8 13.8333 12.65C15.1666 13.6167 15.85 14.4333 17.35 14.0667C17.959 13.8034 18.589 13.5916 19.2333 13.4333C19.4135 13.4481 19.5863 13.5115 19.7333 13.6167C20.1613 13.8763 20.6376 14.0464 21.1333 14.1167H26.5666C27.3532 14.0535 28.1303 13.9026 28.8833 13.6667C29.0107 13.6117 29.1144 13.5132 29.1757 13.3887C29.237 13.2642 29.252 13.122 29.2178 12.9875C29.1837 12.853 29.1028 12.7351 28.9895 12.6549C28.8763 12.5747 28.7382 12.5375 28.6 12.55C27.9064 12.672 27.2042 12.7389 26.5 12.75Z" fill="#6E9D3E"/>
<path fill-rule="evenodd" clip-rule="evenodd" d="M20.2667 21.5167C20.2667 20.3833 18.1167 21.3833 17.4167 21.5167C16.7167 21.65 15.1833 19.85 13.95 20.3C13.6986 20.4167 13.485 20.6015 13.3333 20.8333C13.046 21.3626 12.8169 21.9214 12.65 22.5C12.5947 22.6216 12.59 22.7601 12.6369 22.8851C12.6838 23.0101 12.7784 23.1114 12.9 23.1667C13.0215 23.2219 13.1601 23.2266 13.2851 23.1797C13.4101 23.1329 13.5114 23.0382 13.5667 22.9167C13.8 22.5667 14.3167 22.25 14.5 22C15.1047 22.5381 15.806 22.9566 16.5667 23.2333C18.4 23.4833 18.6167 22.3333 19.9 22.1167C20.0215 22.0752 20.1248 21.9925 20.1917 21.8829C20.2587 21.7733 20.2852 21.6438 20.2667 21.5167Z" fill="#6E9D3E"/>
<path fill-rule="evenodd" clip-rule="evenodd" d="M4.54999 21.7667C4.51437 22.1774 4.58743 22.5902 4.76182 22.9638C4.93622 23.3374 5.20582 23.6585 5.54356 23.8949C5.8813 24.1313 6.27529 24.2747 6.68598 24.3107C7.09667 24.3467 7.5096 24.274 7.88332 24.1C8.24175 23.9573 8.56141 23.7319 8.81627 23.4423C9.07114 23.1527 9.254 22.807 9.34999 22.4333C9.99999 19.2167 4.78332 18.3333 4.54999 21.7667ZM7.88332 22C7.82335 22.1087 7.74153 22.2038 7.64303 22.2794C7.54452 22.3549 7.43144 22.4093 7.31091 22.439C7.19038 22.4688 7.065 22.4732 6.94266 22.4522C6.82031 22.4311 6.70364 22.385 6.59999 22.3167C6.44949 22.1494 6.35305 21.9405 6.32331 21.7174C6.29357 21.4944 6.33192 21.2675 6.43332 21.0667C6.56526 20.9295 6.73252 20.8315 6.91665 20.7833C8.21665 20.55 7.99999 21.8667 7.93332 22H7.88332Z" fill="#6E9D3E"/>
</g>
<defs>
<clipPath id="clip0_1034_4091">
<rect width="40" height="40" fill="white"/>
</clipPath>
</defs>
</svg>
