<svg width="40" height="41" viewBox="0 0 40 41" fill="none" xmlns="http://www.w3.org/2000/svg">
<path fill-rule="evenodd" clip-rule="evenodd" d="M19.5667 19.3333C19.6983 19.3026 19.8146 19.2259 19.8946 19.1169C19.9746 19.008 20.013 18.8741 20.0029 18.7393C19.9929 18.6046 19.935 18.4778 19.8397 18.382C19.7444 18.2861 19.618 18.2275 19.4833 18.2167C18.1495 18.2783 16.834 17.887 15.7507 17.1064C14.6674 16.3257 13.8801 15.2015 13.5167 13.9167C13.0341 12.2893 12.9996 10.562 13.4167 8.91665C13.5032 8.99393 13.5982 9.06104 13.7 9.11665C15.4047 9.81518 17.2715 10.0199 19.087 9.70753C20.9026 9.39511 22.5935 8.57813 23.9667 7.34999C24.271 8.00354 24.6514 8.6189 25.1 9.18332C26.4 10.4333 28.5667 10.6667 29.0667 11.4333C29.1121 11.5378 29.1955 11.6212 29.3 11.6667C28.9725 13.4445 28.0921 15.0736 26.7842 16.3216C25.4764 17.5696 23.8079 18.3728 22.0167 18.6167C21.9074 18.6587 21.8163 18.7378 21.7593 18.8401C21.7023 18.9424 21.6831 19.0614 21.7049 19.1765C21.7267 19.2916 21.7882 19.3953 21.8787 19.4697C21.9692 19.544 22.0829 19.5842 22.2 19.5833C35 17.3667 32.7333 0.433319 22.1 0.999986C7.03333 2.14999 9.78333 20.1333 19.5667 19.3333ZM29.4 9.86665C27.8704 8.70608 26.2731 7.63753 24.6167 6.66665C25.356 5.88676 26.041 5.05703 26.6667 4.18332C27.493 4.8771 28.1636 5.73748 28.6346 6.70823C29.1057 7.67897 29.3665 8.7382 29.4 9.81665V9.86665ZM25.6833 3.56665C24.1165 5.37703 22.0981 6.73994 19.8333 7.51665C18.3333 7.98332 15 8.56665 13.9167 7.83332C13.9385 7.76275 13.9385 7.68723 13.9167 7.61665C15.9167 3.31665 22.4667 1.89999 25.6833 3.56665Z" fill="#6E9D3E"/>
<path fill-rule="evenodd" clip-rule="evenodd" d="M18.5 12.9667C18.5512 13.0186 18.6122 13.0598 18.6794 13.0879C18.7466 13.116 18.8188 13.1305 18.8917 13.1305C18.9646 13.1305 19.0367 13.116 19.104 13.0879C19.1712 13.0598 19.2322 13.0186 19.2834 12.9667C19.7 12.5667 19.15 10.4333 17.3 10.6C15.1667 10.8333 15.1667 13.1667 16.1167 13.0333C17.0667 12.9 17.1334 11.1833 18.5 12.9667Z" fill="#6E9D3E"/>
<path fill-rule="evenodd" clip-rule="evenodd" d="M26.0833 13.2C26.5 12.8 25.5167 10.1667 23.85 10.4C22.8833 10.6667 21.7833 12.2833 22.4 12.65C22.4625 12.7171 22.5418 12.7664 22.6297 12.7928C22.7175 12.8191 22.8108 12.8216 22.9 12.8C23.0193 12.7876 23.1298 12.7312 23.2099 12.6419C23.29 12.5526 23.334 12.4366 23.3333 12.3167C24.6167 11.3333 25.15 14.0667 26.0833 13.2Z" fill="#6E9D3E"/>
<path fill-rule="evenodd" clip-rule="evenodd" d="M22.9667 16C23.0432 15.8884 23.0773 15.753 23.0627 15.6185C23.0481 15.4839 22.9859 15.359 22.8872 15.2663C22.7885 15.1737 22.6599 15.1195 22.5247 15.1134C22.3895 15.1073 22.2566 15.1499 22.15 15.2333C21.8167 15.4666 21.45 15.4166 20.2667 15.4166C19.9214 15.5089 19.5545 15.4734 19.2333 15.3166C19.1494 15.2172 19.0293 15.1552 18.8996 15.1442C18.7699 15.1333 18.6411 15.1743 18.5417 15.2583C18.4422 15.3423 18.3802 15.4623 18.3693 15.5921C18.3583 15.7218 18.3994 15.8505 18.4833 15.95C18.705 16.3473 19.0278 16.6791 19.4188 16.9117C19.8099 17.1443 20.2555 17.2694 20.7105 17.2745C21.1655 17.2796 21.6138 17.1644 22.01 16.9406C22.4061 16.7168 22.7362 16.3923 22.9667 16Z" fill="#6E9D3E"/>
<path fill-rule="evenodd" clip-rule="evenodd" d="M32.8 36.7C29.6294 37.0579 26.5096 37.7736 23.5 38.8333C22.6156 39.125 21.7477 39.4644 20.9 39.85C21 39.55 22.1 25.2166 21.3333 24.4666C21.1723 24.2763 20.9469 24.1517 20.7 24.1166C19.5167 24 18.2167 21.2833 14.25 19.9833C12.4766 19.4811 10.6431 19.2232 8.8 19.2166C8.18333 19.2166 6.95 19.1 6.65 19.6833C6.62052 19.7638 6.6109 19.8503 6.62194 19.9353C6.63298 20.0204 6.66436 20.1015 6.71343 20.1718C6.7625 20.2421 6.8278 20.2996 6.90379 20.3393C6.97979 20.379 7.06425 20.3998 7.15 20.4H8.65C13.1 21.4833 15.7667 21.8666 19.4667 24.9C20.6 25.9666 19.3333 29.3 19.8 39.1333C18.5866 38.6354 17.3317 38.245 16.05 37.9666C12.9333 36.8333 10.2667 37.1833 7.31667 36.8333H5.2C4.46667 36.8333 4.26667 36.8333 4.26667 35.6666C4.26667 34 4.78333 33.1 4 33.0333C3.87094 33.0281 3.7446 33.0714 3.64588 33.1547C3.54717 33.238 3.48323 33.3552 3.46667 33.4833C3.26667 35.2666 2.1 37.5 4.56667 38.2666C5.38218 38.4191 6.20575 38.5249 7.03333 38.5833C9.95 39.15 12.9 38.75 15.5833 39.45C17.1107 40.2057 18.768 40.6638 20.4667 40.8C20.4667 40.9833 21.0667 41.4833 32.75 38.05C33.1055 37.8804 33.4318 37.6554 33.7167 37.3833C33.7582 37.263 33.7603 37.1326 33.7228 37.0109C33.6853 36.8893 33.6101 36.7827 33.508 36.7067C33.406 36.6306 33.2824 36.5889 33.1551 36.5877C33.0278 36.5865 32.9035 36.6258 32.8 36.7Z" fill="#6E9D3E"/>
<path fill-rule="evenodd" clip-rule="evenodd" d="M10.15 26.6333C10 26 9.78334 24.85 8.90001 24.3333C7.14515 23.7027 5.21715 23.7563 3.50001 24.4833C2.94489 24.9728 2.51005 25.5837 2.22922 26.2684C1.9484 26.9532 1.82915 27.6934 1.88073 28.4318C1.93232 29.1701 2.15335 29.8866 2.52667 30.5256C2.89999 31.1647 3.41555 31.7091 4.03334 32.1167C4.61796 32.6257 5.32931 32.9672 6.09213 33.1051C6.85494 33.243 7.64084 33.1721 8.36667 32.9C10.5667 31.7167 10.85 29.0667 10.15 26.6333ZM7.45001 31.3C7.28205 31.3744 7.10038 31.4128 6.91667 31.4128C6.73297 31.4128 6.5513 31.3744 6.38334 31.3C2.78334 30.3333 2.56667 27.0167 4.28334 25.2833C5.43334 25.95 7.25001 25.05 8.08334 25.6167C8.33334 25.8167 9.55001 30.1333 7.45001 31.3Z" fill="#6E9D3E"/>
<path fill-rule="evenodd" clip-rule="evenodd" d="M5.00001 22.9C5.23335 21.5 5.45001 19.5667 4.51668 19.5667C4.36668 19.5667 4.16668 19.5666 4.06668 19.7166C3.74704 20.7194 3.57852 21.7642 3.56668 22.8167C3.65001 23.9833 4.90001 23.7667 5.00001 22.9Z" fill="#6E9D3E"/>
<path fill-rule="evenodd" clip-rule="evenodd" d="M34 21C34.1667 21.7333 34.2833 22.3 34.3833 22.7666C34.8 23.9 35.9 23.5833 35.7 22.3C35.4696 21.4371 35.3135 20.5561 35.2333 19.6666C35.2001 19.1591 35.0077 18.6751 34.6833 18.2833C34.3865 18.033 34.0041 17.9075 33.6167 17.9333C31.6782 18.1779 29.7793 18.6708 27.9667 19.4C26.6667 19.9166 21.3 22.5833 21.1833 23.55C21.176 23.6819 21.2164 23.812 21.2972 23.9165C21.3779 24.0211 21.4936 24.0931 21.623 24.1194C21.7525 24.1457 21.8871 24.1245 22.0022 24.0597C22.1173 23.995 22.2053 23.8909 22.25 23.7666C25.3487 22.2101 28.5991 20.9758 31.95 20.0833C33.1667 19.75 33.45 18.7 34 21Z" fill="#6E9D3E"/>
<path fill-rule="evenodd" clip-rule="evenodd" d="M34.5667 33.95C34.519 35.127 34.6654 36.3038 35 37.4333C35.15 37.6333 35.75 37.7666 36.0167 36.9833C36.2759 36.0679 36.3885 35.1173 36.35 34.1666C36.2796 33.9983 36.1658 33.8515 36.0202 33.7414C35.8747 33.6313 35.7025 33.5617 35.5213 33.5396C35.3401 33.5176 35.1564 33.544 34.9887 33.6161C34.821 33.6882 34.6754 33.8034 34.5667 33.95Z" fill="#6E9D3E"/>
<path fill-rule="evenodd" clip-rule="evenodd" d="M38.0833 26.7667C37.9486 25.7453 37.4447 24.8086 36.6667 24.1333C36.4833 23.9667 36.35 24 36 23.9833C35.7567 23.9704 35.5133 24.0065 35.2842 24.0895C35.0552 24.1725 34.8451 24.3008 34.6667 24.4667C33.9333 26.1333 32 25.0333 30.65 26.1333C30.3081 26.4832 30.0519 26.9076 29.9015 27.3732C29.7511 27.8388 29.7107 28.3328 29.7833 28.8167C30.1099 30.2396 30.8945 31.5161 32.0167 32.45C32.359 32.7926 32.7872 33.0368 33.2564 33.157C33.7255 33.2773 34.2184 33.2691 34.6833 33.1333C37.1 32.4167 38.3333 28.85 38.0833 26.7667ZM33.3333 31C33.2333 30.8666 32.0333 28.85 31.6667 28.1333C31.6667 27.5667 31.6667 27.2833 32.0167 27.15C32.9833 26.7 35.1833 26.7333 35.9 24.7667C36.2472 25.1023 36.5144 25.5118 36.6817 25.9647C36.8491 26.4177 36.9123 26.9026 36.8667 27.3833C36.7232 28.3661 36.3647 29.3051 35.8167 30.1333C35.2167 31 34.0333 31.7833 33.3333 31Z" fill="#6E9D3E"/>
</svg>
