<svg width="40" height="40" viewBox="0 0 40 40" fill="none" xmlns="http://www.w3.org/2000/svg">
<path fill-rule="evenodd" clip-rule="evenodd" d="M28.629 19.7422C28.7564 19.7352 28.8772 19.6827 28.9693 19.5943C29.0613 19.5058 29.1186 19.3873 29.1307 19.2602C29.1429 19.1331 29.109 19.0059 29.0352 18.9016C28.9615 18.7974 28.8528 18.7231 28.729 18.6922C27.829 18.5588 26.929 18.4922 26.029 18.4422H25.679C25.666 17.7434 25.5652 17.0491 25.379 16.3755C25.2885 16.0689 25.1655 15.7728 25.0123 15.4922C24.8703 15.1993 24.6848 14.9296 24.4623 14.6922C24.174 14.4445 23.8613 14.2267 23.529 14.0422C23.9032 13.6124 24.1887 13.1128 24.3689 12.5722C24.5492 12.0315 24.6205 11.4605 24.579 10.8922C24.59 10.3665 24.4961 9.84387 24.3025 9.35497C24.109 8.86608 23.8198 8.42074 23.4519 8.04508C23.084 7.66941 22.6448 7.37098 22.16 7.16729C21.6753 6.96359 21.1548 6.85873 20.629 6.85884C19.5112 6.82706 18.4256 7.23538 17.6058 7.99593C16.786 8.75648 16.2976 9.80847 16.2456 10.9255C16.2319 11.5776 16.3932 12.2215 16.7127 12.7901C17.0322 13.3587 17.4982 13.8314 18.0623 14.1588C17.6306 14.3703 17.2227 14.6274 16.8456 14.9255C16.3911 15.2789 16.0067 15.7141 15.7123 16.2088C15.1841 17.0525 15.0048 18.0686 15.2123 19.0422C14.3456 19.2088 13.5456 19.4088 12.6456 19.6422C12.5861 19.6522 12.5291 19.674 12.4782 19.7065C12.4272 19.7389 12.3834 19.7813 12.3491 19.8311C12.3149 19.8808 12.2911 19.937 12.279 19.9961C12.267 20.0553 12.2669 20.1163 12.279 20.1755C12.3031 20.2904 12.3698 20.392 12.4655 20.46C12.5613 20.5279 12.6792 20.5573 12.7956 20.5422C13.7123 20.4255 14.629 20.3588 15.5623 20.2922C16.4956 20.2255 17.7123 20.2922 18.7956 20.2922C19.879 20.2922 20.9623 20.1922 22.129 20.1755C23.6456 20.0588 25.1956 19.8922 26.729 19.8255C27.3605 19.7661 27.9946 19.7383 28.629 19.7422ZM20.6623 8.64218C21.2932 8.62865 21.9041 8.86419 22.3627 9.29778C22.8212 9.73137 23.0905 10.3281 23.1123 10.9588C23.6623 15.4588 17.4623 14.2922 17.7623 10.9588C17.8579 10.2752 18.2117 9.65405 18.7511 9.22317C19.2904 8.7923 19.9744 8.58439 20.6623 8.64218ZM22.029 18.3422C20.779 18.3422 19.5123 18.3422 18.2623 18.5422C17.6123 18.5422 16.9623 18.7255 16.329 18.8255C16.3929 18.3878 16.5584 17.9711 16.8123 17.6088C16.9623 17.4088 17.129 17.2255 17.2956 17.0255L18.0623 16.1088C18.529 15.5922 18.9456 15.0755 19.3456 14.6422C21.6623 15.1088 21.679 15.0755 22.4623 14.7255C22.6456 14.9922 22.829 15.2422 22.979 15.5088C23.129 15.7755 23.1456 15.8422 23.2456 15.9922C23.3456 16.1422 23.5123 16.4755 23.6623 16.7088C23.9814 17.2454 24.2653 17.8022 24.5123 18.3755L22.029 18.3422Z" fill="#6E9D3E"/>
<path fill-rule="evenodd" clip-rule="evenodd" d="M22.879 23.1922C22.8812 23.123 22.8695 23.054 22.8445 22.9894C22.8196 22.9248 22.7819 22.8658 22.7337 22.8161C22.6855 22.7663 22.6277 22.7268 22.5639 22.6998C22.5001 22.6728 22.4316 22.6589 22.3623 22.6589C21.3623 22.5422 20.4123 22.4089 19.429 22.3256H18.129C17.3123 22.3256 16.4623 22.4089 15.679 22.5256C14.479 22.7089 13.329 23.0256 12.129 23.1756C12.0052 23.1756 11.8865 23.2247 11.799 23.3122C11.7115 23.3998 11.6623 23.5185 11.6623 23.6422C11.6623 23.766 11.7115 23.8847 11.799 23.9722C11.8865 24.0597 12.0052 24.1089 12.129 24.1089C13.3534 24.2199 14.583 24.2644 15.8123 24.2422C16.6123 24.2422 17.479 24.1089 18.1956 24.0756L22.3123 23.7756C22.3902 23.7839 22.469 23.7743 22.5427 23.7477C22.6163 23.721 22.683 23.678 22.7376 23.6218C22.7922 23.5656 22.8333 23.4977 22.8578 23.4233C22.8823 23.3489 22.8895 23.2699 22.879 23.1922Z" fill="#6E9D3E"/>
<path fill-rule="evenodd" clip-rule="evenodd" d="M17.2789 26.2589H15.9789C15.5542 26.2842 15.1312 26.3342 14.7123 26.4089C13.7289 26.5922 12.8123 26.8755 11.8623 27.0755C11.74 27.0881 11.6271 27.1469 11.5466 27.2397C11.4661 27.3326 11.4241 27.4527 11.4289 27.5755C11.4332 27.6369 11.4495 27.6968 11.4769 27.7518C11.5044 27.8068 11.5424 27.8558 11.5889 27.8961C11.6353 27.9364 11.6893 27.9671 11.7477 27.9864C11.806 28.0058 11.8676 28.0134 11.9289 28.0088C13.0289 28.0088 14.1456 28.1422 15.2623 28.0922C15.8956 28.0922 16.5456 27.9922 17.1789 27.9589C18.1263 27.859 19.0816 27.859 20.0289 27.9589C20.1655 27.9845 20.3067 27.9575 20.4242 27.8833C20.5417 27.8091 20.6268 27.6932 20.6623 27.5589C20.6794 27.4909 20.6826 27.4202 20.6716 27.351C20.6606 27.2818 20.6356 27.2156 20.5982 27.1563C20.5608 27.0971 20.5117 27.0461 20.454 27.0064C20.3962 26.9667 20.331 26.9392 20.2623 26.9255C19.3022 26.5706 18.2988 26.3463 17.2789 26.2589Z" fill="#6E9D3E"/>
<path fill-rule="evenodd" clip-rule="evenodd" d="M28.5276 4.23571C26.4109 3.80237 27.3776 4.05237 13.1943 2.28571C13.0778 2.28784 12.9661 2.33195 12.8796 2.40991C12.793 2.48787 12.7376 2.59445 12.7234 2.71004C12.7092 2.82563 12.7372 2.94246 12.8023 3.03904C12.8674 3.13562 12.9651 3.20546 13.0776 3.23571C26.2776 5.00237 26.6943 5.01904 28.3609 5.38571C30.0276 5.75237 33.5776 10.269 34.4276 11.9357C34.6204 12.2323 34.7137 12.5825 34.6943 12.9357C34.2443 15.3024 32.3943 22.169 31.8443 23.7357C31.2943 25.3024 30.7943 26.4357 30.3443 27.819C30.1609 28.3524 28.6776 34.8524 26.7776 35.4857C24.1609 36.369 21.4943 35.2357 18.8776 35.1357C17.2109 35.1357 13.8776 34.9024 11.7443 34.569C3.41093 33.219 3.7776 33.4024 1.64427 32.0357C4.04427 29.4857 6.26093 23.1024 7.46093 19.4524C8.50869 15.3297 9.32111 11.1507 9.89427 6.93571C10.0276 6.20237 11.2109 2.41904 10.0276 2.80237C9.5276 2.95237 9.59427 3.70237 9.54427 4.01904C9.21093 6.10237 7.76093 14.1857 7.46093 15.519C6.18488 20.5109 4.24538 25.3092 1.69427 29.7857C1.38456 30.2207 1.0507 30.6381 0.694265 31.0357C0.428242 31.3006 0.203514 31.604 0.0275985 31.9357C-0.0243238 32.1719 -0.00263802 32.4183 0.0897364 32.6418C0.182111 32.8653 0.340739 33.0551 0.544265 33.1857C1.44707 33.8705 2.45446 34.4052 3.5276 34.769C8.53519 35.9077 13.632 36.6103 18.7609 36.869C21.4109 36.969 24.2109 38.169 27.2443 37.1357C30.0109 36.1857 31.4776 29.3857 31.7776 28.4357C32.2109 27.0524 32.7609 25.719 33.2109 24.3524C33.6609 22.9857 35.5109 16.019 35.9776 13.3024C36.4276 10.8857 30.6609 4.68571 28.5276 4.23571Z" fill="#6E9D3E"/>
</svg>
