<svg width="40" height="40" viewBox="0 0 40 40" fill="none" xmlns="http://www.w3.org/2000/svg">
<path fill-rule="evenodd" clip-rule="evenodd" d="M22.5987 17.4663C22.2162 17.0626 21.7555 16.7532 21.2488 16.5599C20.3 16.2431 19.3224 16.0345 18.3323 15.9378C17.9823 15.9378 17.6157 15.849 17.2657 15.8312H16.9824C17.7836 15.1064 18.3995 14.1769 18.7725 13.1295C19.1456 12.0821 19.2636 10.9509 19.1156 9.84169C18.8515 8.00576 17.9241 6.35297 16.5319 5.23693C15.1396 4.12089 13.3931 3.63025 11.666 3.86997C10.0497 3.87298 8.4934 4.52305 7.30515 5.6915C6.1169 6.85995 5.38335 8.46161 5.2497 10.1794C5.22107 10.9396 5.33946 11.6981 5.5975 12.4074C5.85554 13.1168 6.24772 13.7619 6.74962 14.3027C5.11647 16.8457 3.95663 19.6997 3.33314 22.7093C3.03335 23.732 2.94664 24.8123 3.07905 25.8744C3.21147 26.9366 3.55982 27.9551 4.09977 28.8588H3.84978C3.34767 28.8129 2.86257 28.6425 2.43319 28.3611C2.43319 28.3611 2.43319 28.219 2.43319 28.1123C2.32142 27.7804 2.25409 27.4334 2.23321 27.0815C2.14988 26.335 2.14988 25.5708 2.11655 25.2153L1.66657 19.5991C1.56658 18.195 1.38325 16.8976 1.26659 15.5468C1.17718 14.6556 1.13822 13.7594 1.14993 12.8631C1.14993 12.7264 1.09902 12.5953 1.00838 12.4986C0.91774 12.402 0.794809 12.3477 0.666629 12.3477C0.538448 12.3477 0.415517 12.402 0.32488 12.4986C0.234242 12.5953 0.183323 12.7264 0.183323 12.8631C0.0743345 13.7711 0.013131 14.6849 0 15.6001L0 19.7057C0 21.0742 0 21.9806 0.0833286 23.1181C0.107876 23.8977 0.17465 24.675 0.283317 25.4464C0.349651 26.3626 0.483388 27.2718 0.683294 28.1656C0.803647 28.7308 1.09678 29.2372 1.51658 29.6052C1.8625 29.8197 2.24008 29.97 2.63318 30.0496L1.93322 32.6267C1.7999 33.1065 1.6999 33.5864 1.59991 34.084C1.49991 34.5817 1.43325 35.0793 1.36659 35.577C1.2166 36.75 1.09994 37.923 0.983277 39.1316C0.956547 39.2108 0.94612 39.2952 0.952705 39.3791C0.959291 39.463 0.982734 39.5444 1.02144 39.6178C1.06015 39.6911 1.11321 39.7548 1.17703 39.8043C1.24085 39.8539 1.31392 39.8882 1.39128 39.9049C1.46864 39.9217 1.54848 39.9205 1.62537 39.9014C1.70226 39.8823 1.77439 39.8458 1.83687 39.7944C1.89936 39.7429 1.95072 39.6778 1.98748 39.6032C2.02423 39.5287 2.04552 39.4467 2.04988 39.3626C2.3832 38.2251 2.74984 37.1232 3.06649 35.9858C3.19982 35.4881 3.31648 35.0082 3.41647 34.5106C3.52399 34.0119 3.60743 33.5077 3.66646 32.9999C3.76645 32.0757 3.78312 31.2226 3.79978 30.2273H6.13298C6.79961 30.2273 7.26625 30.5117 7.79956 30.6361C8.65646 30.7164 9.47568 31.0486 10.1661 31.5958C10.4344 31.8438 10.6749 32.1241 10.8827 32.4312C11.116 32.7688 11.2994 33.1243 11.4993 33.4798C11.9327 34.404 12.416 37.7275 13.3992 39.0783C13.5541 39.3159 13.7517 39.5185 13.9806 39.6741C14.2095 39.8297 14.4651 39.9352 14.7325 39.9847C15.1076 40.0301 15.4874 39.9741 15.8369 39.8219C16.1863 39.6698 16.4943 39.4262 16.7324 39.1138C17.9082 37.3831 18.496 35.2768 18.399 33.1421C18.5298 31.0748 18.0457 29.0161 17.0157 27.2592C16.675 26.8106 16.2563 26.4364 15.7824 26.1573C14.9491 25.6596 13.9992 25.4819 13.1493 24.9843C13.095 23.895 13.095 22.8034 13.1493 21.714C13.1974 21.5679 13.1893 21.4074 13.1269 21.2675C13.0645 21.1277 12.9527 21.0198 12.8159 20.9676C12.6766 20.9156 12.5238 20.9237 12.3899 20.9901C12.2561 21.0565 12.1518 21.1759 12.0993 21.323C12.0993 21.5008 11.966 24.0245 11.966 25.0376C11.9597 25.3717 12.0729 25.6957 12.2826 25.944C13.1992 26.5838 14.2492 26.8149 15.1658 27.4014C15.4783 27.6032 15.7501 27.869 15.9658 28.1834C16.7289 29.6882 17.0374 31.4076 16.849 33.1065C16.9136 34.7642 16.456 36.3972 15.5491 37.7453C15.3658 37.9408 15.2325 38.083 15.0825 38.083C14.9325 38.083 14.9991 38.083 14.9658 37.9586C14.8283 37.775 14.7161 37.5716 14.6325 37.3543C13.9325 35.808 13.5659 33.3376 13.1992 32.5733C12.9755 32.1204 12.7192 31.6866 12.4326 31.2759C12.1426 30.8398 11.8009 30.4455 11.416 30.1029C11.0174 29.7487 10.567 29.4665 10.0828 29.2676C9.22252 28.9647 8.33406 28.7621 7.43291 28.6633C6.72841 28.6106 6.04971 28.3591 5.46636 27.9346C4.38308 26.9926 4.34975 25.0731 4.6664 23.047C5.10496 20.1934 6.06169 17.4585 7.48291 14.9959C8.62205 15.8322 9.9525 16.3236 11.3327 16.4177C11.3953 16.4277 11.4592 16.4239 11.5204 16.4067C11.5816 16.3895 11.6389 16.3592 11.6888 16.3177C11.7387 16.2761 11.7801 16.2241 11.8106 16.1649C11.8411 16.1058 11.8599 16.0406 11.866 15.9734C11.8753 15.9066 11.8718 15.8385 11.8557 15.7732C11.8396 15.7079 11.8112 15.6468 11.7722 15.5936C11.7332 15.5404 11.6845 15.4962 11.629 15.4637C11.5735 15.4312 11.5124 15.4111 11.4493 15.4046C8.06621 14.8181 6.66629 12.5254 6.76628 10.286C6.93472 9.01613 7.5396 7.85827 8.46348 7.03721C9.38737 6.21615 10.5644 5.79046 11.766 5.84277C13.0547 5.614 14.3762 5.93227 15.4477 6.72947C16.5191 7.52667 17.2554 8.73945 17.499 10.1083C17.7286 11.5207 17.4295 12.9727 16.666 14.1525C15.9025 15.3322 14.7356 16.1456 13.4159 16.4177C13.344 16.4344 13.2759 16.4664 13.2158 16.5117C13.1556 16.557 13.1046 16.6147 13.0658 16.6814C13.027 16.7481 13.0011 16.8225 12.9897 16.9C12.9783 16.9776 12.9817 17.0568 12.9995 17.133C13.0174 17.2092 13.0494 17.2807 13.0937 17.3435C13.1379 17.4062 13.1936 17.4588 13.2573 17.4982C13.321 17.5376 13.3914 17.5629 13.4645 17.5727C13.5376 17.5825 13.6117 17.5765 13.6826 17.5552C14.2542 17.4161 14.8122 17.2198 15.3491 16.9687L16.8157 17.1642C17.2223 17.2153 17.6238 17.3045 18.0156 17.4308C18.9012 17.6623 19.7657 17.9775 20.5988 18.3727C20.8715 18.4641 21.1105 18.6444 21.2821 18.8881C21.2821 18.977 21.2821 19.0481 21.0988 19.1903L20.6822 19.5813L19.7822 20.0789C19.0908 20.3334 18.3637 20.4597 17.6323 20.4522C16.3657 20.4522 15.0658 20.3278 13.9659 20.31C13.8936 20.3026 13.8207 20.3107 13.7513 20.3335C13.6819 20.3564 13.6175 20.3937 13.5617 20.4433C13.506 20.4929 13.4599 20.5537 13.4263 20.6223C13.3927 20.691 13.3722 20.766 13.3659 20.8432C13.3614 20.9202 13.3712 20.9975 13.3947 21.0705C13.4183 21.1435 13.4551 21.2108 13.5031 21.2686C13.5511 21.3264 13.6093 21.3735 13.6744 21.4073C13.7396 21.441 13.8103 21.4607 13.8825 21.4652C15.1825 21.643 16.7824 22.034 18.249 22.0873C18.9553 22.0861 19.6574 21.9723 20.3322 21.7496C20.5206 21.6943 20.7045 21.623 20.8821 21.5363C21.1488 21.4252 21.4054 21.2884 21.6488 21.1275L22.5154 20.3455C23.332 18.9415 23.1653 18.0884 22.5987 17.4663Z" fill="#6E9D3E"/>
<path fill-rule="evenodd" clip-rule="evenodd" d="M35.1647 9.30855C35.0336 9.24541 34.8848 9.23782 34.7487 9.28733C34.6125 9.33684 34.4991 9.43974 34.4314 9.57515C34.1648 10.1261 33.9148 10.6948 33.6814 11.2636C33.3648 12.0989 33.0815 13.0409 32.8148 13.8229C32.5482 14.6049 32.3482 15.227 32.1649 15.9379C32.0331 16.4337 31.9329 16.9384 31.8649 17.4486L31.7816 18.6038H30.3316C29.115 18.746 27.8984 18.8882 26.6652 19.1015C25.4319 19.3147 25.1819 19.3325 23.9987 19.6169C22.8154 19.9013 23.2487 20.8077 23.7653 20.6833C24.732 20.5766 25.1319 20.6833 26.0985 20.6833C27.5318 20.6833 28.965 20.5766 30.3983 20.6833H32.4482C32.6628 20.6769 32.8719 20.6092 33.0536 20.4873C33.2354 20.3654 33.3831 20.1937 33.4815 19.9901C33.5679 19.7205 33.6184 19.4394 33.6314 19.1548V17.7863C33.6558 17.345 33.7059 16.9057 33.7814 16.4711C33.8981 15.7779 34.0648 15.0848 34.2147 14.4094C34.3647 13.734 34.5981 12.6321 34.8314 11.8323C34.998 11.2814 35.1814 10.7482 35.3813 10.215C35.438 10.1456 35.4779 10.0626 35.4979 9.97312C35.5178 9.88364 35.5171 9.79034 35.4958 9.70122C35.4745 9.6121 35.4332 9.52981 35.3756 9.46143C35.3179 9.39304 35.2455 9.34058 35.1647 9.30855Z" fill="#6E9D3E"/>
<path fill-rule="evenodd" clip-rule="evenodd" d="M39.4645 22.9404C37.1979 22.7093 34.9481 22.5138 32.6815 22.4605H29.765C28.7984 22.4605 27.8151 22.4605 26.8485 22.6382C24.5986 22.8693 22.3654 23.2781 20.1822 23.6868C20.0707 23.7183 19.9734 23.7913 19.908 23.8926C19.8425 23.9938 19.8132 24.1167 19.8252 24.2391C19.8373 24.3614 19.89 24.4751 19.9738 24.5596C20.0576 24.6441 20.167 24.6939 20.2822 24.6999C22.8654 24.5577 25.4153 24.5577 27.9651 24.5044H29.0984C28.9651 25.8018 28.7984 27.0815 28.7651 28.3789V31.116C28.7651 32.289 28.9317 33.4442 29.0151 34.6706C28.4791 34.7031 27.9482 34.7985 27.4318 34.9549C26.0394 35.4316 24.7363 36.1655 23.582 37.1232C23.4773 37.1993 23.4025 37.3138 23.3718 37.4449C23.3411 37.5759 23.3566 37.7145 23.4154 37.8341C23.4841 37.949 23.5915 38.0314 23.7155 38.0645C23.8395 38.0975 23.9706 38.0787 24.082 38.0119C25.266 37.4177 26.5228 37.0049 27.8151 36.7855C28.3393 36.6978 28.8681 36.6444 29.3984 36.6256C29.9197 36.5813 30.4436 36.5813 30.9649 36.6256C32.2315 36.806 33.4442 37.2857 34.5147 38.0296C34.6319 38.1239 34.7793 38.1647 34.9247 38.143C35.07 38.1214 35.2013 38.039 35.2897 37.9141C35.3781 37.7892 35.4163 37.632 35.396 37.477C35.3757 37.322 35.2985 37.1819 35.1814 37.0877C34.0825 35.9998 32.7486 35.2183 31.2983 34.8127C30.9437 34.7117 30.581 34.6462 30.215 34.6172C30.3483 33.4975 30.4483 32.3601 30.515 31.2404V29.4631V27.6858C30.4316 26.5661 30.2983 25.4641 30.1817 24.3622H31.7649L35.6147 24.1667H39.4478C39.5244 24.1671 39.6003 24.1503 39.6705 24.1176C39.7407 24.0848 39.8037 24.0368 39.8555 23.9765C39.9073 23.9163 39.9467 23.8452 39.9712 23.7677C39.9957 23.6903 40.0047 23.6083 39.9978 23.5269C39.9978 23.3744 39.9422 23.2278 39.8426 23.1183C39.7431 23.0088 39.6074 22.945 39.4645 22.9404Z" fill="#6E9D3E"/>
<path fill-rule="evenodd" clip-rule="evenodd" d="M27.4985 5.59397C27.1286 5.53175 26.7518 5.53175 26.3819 5.59397C25.9973 5.62126 25.6199 5.71739 25.2653 5.87834C24.454 6.26124 23.7772 6.9083 23.332 7.72673C23.2503 7.83279 23.2114 7.96914 23.2239 8.1058C23.2364 8.24246 23.2992 8.36822 23.3987 8.45542C23.4981 8.54263 23.626 8.58413 23.7542 8.57079C23.8823 8.55746 24.0002 8.49039 24.082 8.38433C24.5998 7.96647 25.2182 7.7138 25.8652 7.65564L26.6652 7.53123C26.9371 7.51343 27.2098 7.51343 27.4818 7.53123C28.141 7.45644 28.8076 7.5415 29.4317 7.78005C29.4901 7.82193 29.556 7.85063 29.6253 7.86438C29.6945 7.87812 29.7656 7.87663 29.8343 7.85998C29.903 7.84334 29.9677 7.8119 30.0246 7.76759C30.0815 7.72328 30.1292 7.66704 30.165 7.60232C30.205 7.53718 30.2325 7.46418 30.2458 7.3876C30.259 7.31102 30.2579 7.23238 30.2424 7.15628C30.2269 7.08017 30.1973 7.00812 30.1554 6.94434C30.1135 6.88055 30.0601 6.8263 29.9983 6.78476C29.2819 6.15302 28.4177 5.74135 27.4985 5.59397Z" fill="#6E9D3E"/>
<path fill-rule="evenodd" clip-rule="evenodd" d="M21.2821 4.3499C22.4991 3.41062 23.8827 2.74543 25.3485 2.39487C26.2888 2.11848 27.2568 1.96334 28.2317 1.93277C29.8301 1.79035 31.4198 2.29832 32.6814 3.35461C32.7326 3.40996 32.7936 3.45391 32.8608 3.48391C32.928 3.51391 33.0002 3.52936 33.0731 3.52936C33.146 3.52936 33.2181 3.51391 33.2853 3.48391C33.3526 3.45391 33.4136 3.40996 33.4647 3.35461C33.5608 3.24311 33.614 3.09723 33.614 2.94583C33.614 2.79444 33.5608 2.64856 33.4647 2.53706C32.3045 1.15589 30.7093 0.276835 28.9816 0.0666113C28.2507 -0.0222038 27.5127 -0.0222038 26.7818 0.0666113C26.0708 0.170027 25.3724 0.354745 24.6986 0.617574C23.1386 1.25156 21.7441 2.27552 20.6321 3.60343C20.5415 3.70009 20.4907 3.83114 20.4907 3.96778C20.4907 4.10442 20.5415 4.23548 20.6321 4.33213C20.7207 4.41724 20.8348 4.46581 20.954 4.46907C21.0732 4.47233 21.1895 4.43006 21.2821 4.3499Z" fill="#6E9D3E"/>
</svg>
