<svg width="40" height="40" viewBox="0 0 40 40" fill="none" xmlns="http://www.w3.org/2000/svg">
<g clip-path="url(#clip0_1034_4504)">
<path d="M23.85 32.7C22.6619 33.4231 21.262 33.7172 19.8833 33.5333C19.3171 33.4751 18.7585 33.3578 18.2167 33.1833C17.6783 33.015 17.1632 32.7798 16.6833 32.4833C16.09 32.168 15.5706 31.73 15.1596 31.1983C14.7487 30.6667 14.4557 30.0537 14.3 29.4C14.3 28.9167 14.1667 28.4667 14.1667 27.9667C14.2475 26.7032 14.1916 25.4348 14 24.1833C13.8602 23.4802 13.5117 22.8355 13 22.3333C12.7633 22.1281 12.4632 22.0104 12.15 22C11.8083 22.0192 11.4685 22.0637 11.1333 22.1333H7.90001H6.53335C6.24718 21.6696 5.99647 21.1849 5.78335 20.6833C5.59501 20.2019 5.4717 19.6974 5.41668 19.1833C5.36683 18.7905 5.36683 18.3929 5.41668 18C5.47328 17.6102 5.57971 17.2293 5.73335 16.8667C6.09147 15.7593 6.83713 14.8184 7.83335 14.2167C8.58755 13.8345 9.42117 13.6353 10.2667 13.6353C11.1122 13.6353 11.9458 13.8345 12.7 14.2167C13.55 14.6 18.45 17.2 15.1833 21.8167C15.1017 21.9427 15.0733 22.0959 15.1046 22.2428C15.1358 22.3897 15.2241 22.5182 15.35 22.6C15.9102 23.0933 16.4084 23.653 16.8333 24.2667C17.2517 24.8747 17.5985 25.529 17.8667 26.2167C18.1304 26.9054 18.3421 27.6129 18.5 28.3333C18.6701 28.9397 18.959 29.5063 19.35 30C19.7234 30.4399 20.2182 30.76 20.7726 30.92C21.327 31.0801 21.9163 31.0732 22.4667 30.9C22.7212 30.8375 22.9716 30.7596 23.2167 30.6667L23.8833 30.35C23.96 30.315 24.0289 30.2652 24.0863 30.2036C24.1437 30.1419 24.1883 30.0695 24.2177 29.9906C24.2471 29.9117 24.2607 29.8277 24.2577 29.7435C24.2546 29.6594 24.235 29.5766 24.2 29.5C24.165 29.4234 24.1152 29.3544 24.0536 29.2971C23.9919 29.2397 23.9195 29.195 23.8406 29.1656C23.7617 29.1362 23.6777 29.1227 23.5935 29.1257C23.5094 29.1287 23.4266 29.1483 23.35 29.1833L22.2667 29.4C22.011 29.4454 21.7476 29.4161 21.5082 29.3156C21.2687 29.2151 21.0634 29.0476 20.9167 28.8333C20.6822 28.3909 20.5244 27.9119 20.45 27.4167C20.2975 26.748 20.0682 26.0993 19.7667 25.4833C19.3045 24.714 18.7443 24.0081 18.1 23.3833C17.6297 22.9581 17.1157 22.5838 16.5667 22.2667C16.5667 22.2667 16.7 22.2667 16.75 22.15C19.45 18.3167 17.1 14.25 13.6167 12.5C12.7427 12.0302 11.7827 11.7423 10.7945 11.6535C9.80632 11.5647 8.81036 11.6769 7.86668 11.9833C6.939 12.3401 6.11007 12.9134 5.44904 13.6556C4.78801 14.3979 4.31404 15.2874 4.06668 16.25C3.93096 16.7506 3.85268 17.265 3.83335 17.7833C3.79684 18.3085 3.83613 18.8361 3.95001 19.35C4.08875 19.9753 4.3072 20.5803 4.60001 21.15C4.78593 21.4897 4.99185 21.8181 5.21668 22.1333C4.65913 22.1477 4.10276 22.1922 3.55001 22.2667C3.07175 22.3217 2.60176 22.4336 2.15001 22.6C1.82767 22.7209 1.54503 22.9285 1.33335 23.2C1.02387 23.6283 0.792532 24.1079 0.650014 24.6167C0.424973 25.569 0.285529 26.5395 0.233348 27.5167C-0.0299335 29.944 0.054247 32.3964 0.483348 34.8C0.771637 36.4462 1.41424 38.0101 2.36668 39.3833C2.45669 39.505 2.59045 39.5869 2.73972 39.6118C2.88899 39.6367 3.04208 39.6026 3.16668 39.5167C3.2872 39.4297 3.36871 39.2988 3.39365 39.1523C3.41859 39.0058 3.38496 38.8553 3.30001 38.7333C2.5265 37.4671 2.048 36.043 1.90001 34.5667C1.64269 32.307 1.71567 30.022 2.11668 27.7833C2.21668 27.1667 2.33335 26.3167 2.53335 25.55C2.6133 25.203 2.74834 24.871 2.93335 24.5667C2.78335 24.3 3.60001 24.4333 3.85001 24.4C4.36366 24.328 4.88139 24.2891 5.40001 24.2833H7.91668C12.45 24.1167 12.0333 23.7667 12.25 25.0167C12.3752 25.984 12.442 26.958 12.45 27.9333C12.5155 29.5929 12.7557 31.2408 13.1667 32.85C13.5517 34.4442 14.0645 36.0048 14.7 37.5167C14.7597 37.6758 14.8801 37.8047 15.0348 37.875C15.1896 37.9454 15.3659 37.9513 15.525 37.8917C15.6841 37.832 15.8131 37.7116 15.8834 37.5568C15.9537 37.4021 15.9597 37.2258 15.9 37.0667C15.503 35.898 15.1747 34.707 14.9167 33.5C15.1166 33.7277 15.3339 33.9394 15.5667 34.1333C16.1877 34.6034 16.8875 34.959 17.6333 35.1833C18.3594 35.4197 19.12 35.5324 19.8833 35.5167C21.6691 35.5095 23.3897 34.845 24.7167 33.65C24.7844 33.5993 24.8412 33.5355 24.8839 33.4624C24.9265 33.3894 24.9541 33.3085 24.9649 33.2246C24.9758 33.1407 24.9698 33.0555 24.9472 32.974C24.9246 32.8925 24.8859 32.8163 24.8333 32.75C24.776 32.6762 24.7034 32.6157 24.6205 32.5725C24.5377 32.5293 24.4465 32.5045 24.3531 32.4997C24.2598 32.495 24.1666 32.5104 24.0797 32.545C23.9929 32.5795 23.9146 32.6324 23.85 32.7Z" fill="#6E9D3E"/>
<path d="M39.8333 8.33333C38.85 -0.633336 41.1833 2.25 32.9 1.06666C30.2825 0.683005 27.6445 0.454827 25 0.383331C23.6667 0.383331 22.35 0.383331 21.0333 0.499998C19.7167 0.616665 18.3333 0.783331 17.05 0.983331C15.7667 1.18333 14.6167 1.26666 13.3333 1.46666C10.1167 2.01666 10 0.933331 9.88334 5C9.85834 5.36068 9.85834 5.72265 9.88334 6.08333C9.89972 6.41339 9.93871 6.74194 10 7.06666C10.1667 7.9 10.4667 8.73333 10.6333 9.48333C10.6393 9.56103 10.6613 9.63665 10.6978 9.70548C10.7344 9.7743 10.7847 9.83486 10.8457 9.88334C10.9067 9.93183 10.9771 9.96722 11.0524 9.98729C11.1277 10.0074 11.2063 10.0117 11.2833 10C11.3571 9.9979 11.4296 9.981 11.4966 9.95031C11.5637 9.91962 11.6239 9.87576 11.6736 9.82134C11.7234 9.76692 11.7617 9.70306 11.7863 9.63354C11.8108 9.56402 11.8212 9.49026 11.8167 9.41666C11.9935 8.45949 12.0938 7.48976 12.1167 6.51666C12.1051 5.95677 12.0437 5.39902 11.9333 4.85C11.85 4.25 11.6667 3.66666 11.6667 3.06666C12.305 2.9415 12.9508 2.85799 13.6 2.81666C14.8333 2.73333 16.0667 2.73333 17.2667 2.68333C18.4667 2.63333 19.85 2.6 21.15 2.58333C22.45 2.56666 23.7333 2.58333 25.0167 2.58333C27.6 2.58333 30.1667 2.58333 32.7667 2.78333C34.1833 2.88333 35.6833 2.78333 37.1333 2.78333H37.3667C37.4667 3.56666 37.5833 4.35 37.6333 5.15C37.6833 5.95 37.6333 6.81666 37.7333 7.75C37.8333 8.68333 37.8167 9.41666 37.8667 10.35C38.05 13.0167 38.25 15.6667 38.3167 18.25C38.3295 18.3612 38.3761 18.4659 38.45 18.55C36.0274 18.898 33.5741 18.9818 31.1333 18.8L28.1 18.7H26.05C24.1858 18.7383 22.3262 18.8998 20.4833 19.1833C20.4018 19.1768 20.3198 19.1879 20.243 19.2161C20.1662 19.2442 20.0964 19.2886 20.0383 19.3463C19.9803 19.404 19.9355 19.4735 19.9069 19.5502C19.8783 19.6268 19.8667 19.7088 19.8728 19.7903C19.8788 19.8719 19.9025 19.9512 19.9422 20.0228C19.9818 20.0943 20.0365 20.1565 20.1024 20.2049C20.1683 20.2533 20.244 20.2869 20.3241 20.3033C20.4043 20.3197 20.487 20.3186 20.5667 20.3C21.8167 20.3 23.05 20.3 24.2667 20.5C24.145 20.9269 24.0503 21.3611 23.9833 21.8C23.9585 22.105 23.9585 22.4116 23.9833 22.7167V23.6333C23.9833 24.3667 24.1667 25.05 24.2333 25.7667C24.2194 25.9365 24.2727 26.1051 24.3818 26.236C24.4909 26.3669 24.6471 26.4498 24.8167 26.4667C24.9003 26.4759 24.985 26.4678 25.0654 26.4431C25.1459 26.4183 25.2204 26.3774 25.2844 26.3227C25.3484 26.2681 25.4006 26.2009 25.4377 26.1253C25.4748 26.0498 25.496 25.9674 25.5 25.8833C25.7 25.15 25.8833 24.45 26.0167 23.7C26.0421 23.3894 26.0421 23.0773 26.0167 22.7667C26.0499 22.4564 26.0499 22.1436 26.0167 21.8333C25.959 21.4284 25.8755 21.0276 25.7667 20.6333L27.05 20.75C28.5132 20.8749 29.9817 20.9249 31.45 20.9C33.9635 20.8756 36.4607 20.4941 38.8667 19.7667C38.9492 19.749 39.0275 19.715 39.0967 19.6666C39.1659 19.6183 39.2248 19.5566 39.2698 19.4851C39.3148 19.4137 39.3451 19.334 39.3589 19.2507C39.3727 19.1674 39.3697 19.0821 39.35 19C39.35 18.9 39.25 18.85 39.2 18.7833C39.3101 18.7432 39.4055 18.6709 39.4739 18.5757C39.5422 18.4806 39.5804 18.3671 39.5833 18.25C39.7667 16.3 39.9833 14.2833 40.0167 12.25C40.042 10.9418 39.9808 9.63342 39.8333 8.33333Z" fill="#6E9D3E"/>
<path d="M37.5833 29.75C37.4652 29.18 37.1383 28.6747 36.6667 28.3333C36.2859 28.0956 35.8487 27.9633 35.4 27.95C34.7248 27.9601 34.051 28.0158 33.3833 28.1167L27.4333 28.95C27.3593 28.9581 27.2876 28.9812 27.2228 29.0178C27.1579 29.0544 27.1011 29.1039 27.0559 29.1631C27.0107 29.2223 26.978 29.2901 26.9598 29.3623C26.9416 29.4346 26.9383 29.5098 26.95 29.5833C26.9581 29.6574 26.9812 29.729 27.0178 29.7939C27.0544 29.8588 27.1038 29.9156 27.1631 29.9608C27.2223 30.006 27.2901 30.0387 27.3623 30.0569C27.4346 30.0751 27.5098 30.0784 27.5833 30.0667L33.6167 30H34.85C36.3 30 35.4667 29.8 35.6333 32.15C35.7833 33.8167 37.1 33.8167 34.0667 33.9167L27.6667 34.4C27.4972 34.4087 27.3378 34.4832 27.2226 34.6078C27.1074 34.7324 27.0454 34.8971 27.05 35.0667C27.0521 35.1513 27.0712 35.2347 27.1061 35.3118C27.1409 35.389 27.1909 35.4583 27.2531 35.5158C27.3152 35.5733 27.3883 35.6178 27.4679 35.6465C27.5475 35.6753 27.6321 35.6878 27.7167 35.6833L34.0333 35.7833C34.781 35.8671 35.5357 35.8671 36.2833 35.7833C36.7759 35.6986 37.2332 35.4728 37.6 35.1333C37.8558 34.7925 37.9907 34.3761 37.9833 33.95C37.9525 33.2968 37.8857 32.6458 37.7833 32C37.7823 31.2456 37.7153 30.4928 37.5833 29.75Z" fill="#6E9D3E"/>
</g>
<defs>
<clipPath id="clip0_1034_4504">
<rect width="40" height="40" fill="white"/>
</clipPath>
</defs>
</svg>
