<svg width="40" height="40" viewBox="0 0 40 40" fill="none" xmlns="http://www.w3.org/2000/svg">
<path d="M19.15 18.9C18.5 18.35 18.5 17.95 16.6833 17.9667C16.0077 18.0666 15.3772 18.3658 14.8724 18.826C14.3677 19.2862 14.0117 19.8864 13.85 20.55C13.6993 21.0489 13.703 21.5817 13.8607 22.0785C14.0183 22.5752 14.3225 23.0127 14.7333 23.3334C15.3081 23.6585 15.9644 23.811 16.6236 23.7725C17.2828 23.7341 17.9169 23.5064 18.45 23.1167C19.0172 22.794 19.4591 22.2894 19.7041 21.6846C19.9491 21.0797 19.9828 20.4098 19.8 19.7834C19.6589 19.4401 19.4357 19.1368 19.15 18.9ZM17.4833 21.75C17.2294 21.9394 16.9269 22.0525 16.611 22.0761C16.2952 22.0997 15.9792 22.0329 15.7 21.8834C15.2833 21.6167 15.35 21.05 15.5167 20.55C15.6833 20.05 16.1333 19.25 16.7 19.15C16.9641 19.1181 17.2321 19.1498 17.4814 19.2426C17.7308 19.3354 17.9543 19.4865 18.1333 19.6834C18.2992 19.8273 18.4158 20.0197 18.4666 20.2334C18.7 20.8834 18.15 21.4167 17.55 21.75H17.4833Z" fill="#6E9D3E"/>
<path d="M9.28334 27.6334C8.63334 27.0834 8.63334 26.6834 6.80001 26.7C6.12736 26.803 5.50048 27.1036 4.99898 27.5635C4.49748 28.0235 4.14397 28.6221 3.98334 29.2834C3.81772 29.7914 3.81374 30.3384 3.97194 30.8488C4.13015 31.3592 4.44275 31.808 4.86667 32.1334C5.44141 32.4585 6.09772 32.611 6.75692 32.5725C7.41613 32.5341 8.05027 32.3064 8.58334 31.9167C9.15061 31.594 9.59245 31.0894 9.83743 30.4846C10.0824 29.8797 10.1162 29.2098 9.93334 28.5834C9.80203 28.216 9.57814 27.8888 9.28334 27.6334ZM7.61667 30.4834C7.36281 30.6727 7.06024 30.7858 6.7444 30.8095C6.42857 30.8331 6.11254 30.7662 5.83334 30.6167C5.41667 30.35 5.48334 29.7834 5.65001 29.2834C5.81667 28.7834 6.25001 27.9834 6.83334 27.8834C7.09481 27.8541 7.35949 27.8872 7.60571 27.9799C7.85194 28.0726 8.07273 28.2223 8.25 28.4167C8.42038 28.5597 8.54258 28.7518 8.6 28.9667C8.83334 29.6167 8.33334 30.15 7.68334 30.4834H7.61667Z" fill="#6E9D3E"/>
<path d="M27.95 18.6833C27.2666 18.1 27.2666 17.7333 25.4666 17.7333C24.7918 17.8375 24.1634 18.1405 23.6617 18.6037C23.16 19.0668 22.8077 19.669 22.65 20.3333C22.4857 20.8389 22.4824 21.3831 22.6406 21.8906C22.7988 22.3982 23.1108 22.844 23.5333 23.1667C24.1041 23.5044 24.7626 23.6642 25.4247 23.6256C26.0868 23.587 26.7223 23.3518 27.25 22.95C27.8172 22.6273 28.2591 22.1228 28.5041 21.5179C28.7491 20.913 28.7828 20.2431 28.6 19.6167C28.4689 19.254 28.2447 18.9321 27.95 18.6833ZM26.2833 21.5333C26.0294 21.7227 25.7269 21.8358 25.411 21.8594C25.0952 21.8831 24.7792 21.8162 24.5 21.6667C24.0833 21.4 24.15 20.8167 24.3166 20.3167C24.4833 19.8167 24.9166 19.0167 25.5 18.9333C25.8819 18.8706 26.2737 18.9428 26.6082 19.1374C26.9427 19.332 27.1991 19.637 27.3333 20C27.5 20.6667 26.95 21.1833 26.35 21.5333H26.2833Z" fill="#6E9D3E"/>
<path d="M18.0833 27.4167C17.4333 26.8667 17.4333 26.4667 15.6 26.4667C14.92 26.5575 14.2846 26.856 13.7806 27.3213C13.2765 27.7866 12.9282 28.3961 12.7833 29.0667C12.6165 29.5721 12.6119 30.117 12.7704 30.6251C12.9288 31.1332 13.2422 31.579 13.6667 31.9C14.2391 32.2354 14.8985 32.3923 15.5606 32.3508C16.2227 32.3092 16.8574 32.071 17.3833 31.6667C17.9506 31.344 18.3925 30.8394 18.6374 30.2345C18.8824 29.6297 18.9162 28.9598 18.7333 28.3333C18.5997 27.9767 18.3757 27.6608 18.0833 27.4167ZM16.4167 30.2667C16.1628 30.456 15.8602 30.5692 15.5444 30.5928C15.2286 30.6164 14.9125 30.5495 14.6333 30.4C14.2 30.1333 14.2833 29.55 14.45 29.05C14.6167 28.55 15.05 27.75 15.6333 27.6667C15.8935 27.6354 16.1573 27.6659 16.4034 27.7556C16.6496 27.8454 16.8711 27.9919 17.05 28.1833C17.2204 28.3264 17.3426 28.5184 17.4 28.7333C17.6167 29.4 17.0833 30 16.4833 30.2667H16.4167Z" fill="#6E9D3E"/>
<path d="M35.5 18.85C34.85 18.2834 34.8333 17.9 33.0167 17.9C32.3367 17.9909 31.7013 18.2893 31.1972 18.7546C30.6931 19.22 30.3449 19.8295 30.2 20.5C30.0331 21.0054 30.0286 21.5503 30.187 22.0584C30.3454 22.5665 30.6588 23.0123 31.0833 23.3334C31.6541 23.6711 32.3126 23.8309 32.9747 23.7923C33.6368 23.7537 34.2723 23.5184 34.8 23.1167C35.3673 22.794 35.8091 22.2894 36.0541 21.6846C36.2991 21.0797 36.3329 20.4098 36.15 19.7834C36.0189 19.4207 35.7947 19.0988 35.5 18.85ZM33.8333 21.7C33.5795 21.8894 33.2769 22.0025 32.9611 22.0261C32.6452 22.0497 32.3292 21.9829 32.05 21.8334C31.6167 21.5667 31.7 20.9834 31.8667 20.4834C32.0333 19.9834 32.4667 19.1834 33.05 19.1C33.4215 19.0536 33.7978 19.1335 34.1183 19.327C34.4388 19.5205 34.6848 19.8163 34.8167 20.1667C35 20.8334 34.5 21.35 33.9 21.6667L33.8333 21.7Z" fill="#6E9D3E"/>
<path d="M24.25 26.6667C23.5773 26.7697 22.9505 27.0702 22.449 27.5302C21.9475 27.9902 21.594 28.5888 21.4333 29.25C21.2677 29.7581 21.2637 30.305 21.4219 30.8155C21.5801 31.3259 21.8927 31.7747 22.3167 32.1C22.8926 32.4211 23.5482 32.5713 24.2065 32.533C24.8649 32.4946 25.4986 32.2692 26.0333 31.8834C26.6006 31.5607 27.0424 31.0561 27.2874 30.4512C27.5324 29.8463 27.5662 29.1765 27.3833 28.55C27.1239 27.9477 26.6819 27.4419 26.1198 27.104C25.5577 26.7662 24.9037 26.6132 24.25 26.6667ZM25.1333 30.45C24.8795 30.6394 24.5769 30.7525 24.2611 30.7761C23.9452 30.7997 23.6292 30.7329 23.35 30.5834C22.9333 30.3167 23 29.75 23.1667 29.2334C23.3333 28.7167 23.7833 27.95 24.35 27.85C24.6101 27.8187 24.874 27.8492 25.1201 27.939C25.3662 28.0288 25.5877 28.1753 25.7667 28.3667C25.9339 28.5124 26.0555 28.7034 26.1167 28.9167C26.2833 29.5334 25.7333 30 25.1333 30.4V30.45Z" fill="#6E9D3E"/>
<path d="M26.2667 6.45003C26.0784 7.7137 26.2161 9.0045 26.6667 10.2C26.9679 10.7862 27.4731 11.2419 28.0871 11.4814C28.7011 11.7209 29.3815 11.7275 30 11.5C30.4208 11.3981 30.8092 11.1921 31.1295 10.9008C31.4499 10.6096 31.6919 10.2425 31.8333 9.83336C32.1059 8.89811 32.2075 7.92136 32.1333 6.95003V6.38336V4.5167C32.1582 4.14767 32.1026 3.77765 31.9702 3.4323C31.8378 3.08694 31.6319 2.77452 31.3667 2.5167C30.4782 1.91395 29.3945 1.66982 28.3333 1.83336C28.2619 1.83113 28.1908 1.84327 28.1241 1.86908C28.0575 1.89488 27.9967 1.93381 27.9454 1.98356C27.8941 2.0333 27.8533 2.09286 27.8255 2.15867C27.7976 2.22449 27.7833 2.29523 27.7833 2.3667C27.7424 2.26392 27.6664 2.17902 27.5687 2.12713C27.471 2.07523 27.3581 2.05972 27.25 2.08336C27.141 2.11387 27.0414 2.17096 26.9599 2.2495C26.8785 2.32804 26.8178 2.42558 26.7833 2.53336C26.684 3.1167 26.6449 3.7087 26.6667 4.30003L26.4333 5.3167C26.3465 5.6892 26.2907 6.06829 26.2667 6.45003ZM27.65 5.7667C27.65 5.7667 27.9167 2.6667 27.9167 2.55003C27.9587 2.6481 28.0283 2.73183 28.1171 2.79102C28.2059 2.8502 28.31 2.88229 28.4167 2.88336C29.9167 2.88336 30.55 3.1667 30.7167 3.75003C30.7708 4.81045 30.6981 5.87353 30.5 6.9167C30.5045 7.56194 30.4318 8.20541 30.2833 8.83336C30.1667 9.23336 30.0167 9.63336 29.6 9.73336C29.4374 9.80702 29.2604 9.84347 29.0819 9.84005C28.9034 9.83662 28.7279 9.79342 28.5682 9.71358C28.4086 9.63374 28.2687 9.51928 28.1589 9.37854C28.049 9.2378 27.972 9.07432 27.9333 8.90003C27.6684 7.87806 27.5727 6.81961 27.65 5.7667Z" fill="#6E9D3E"/>
<path d="M14.25 5.93335C14.25 6.10001 14.3667 6.26668 15.0167 6.33335C15.95 6.33335 16.35 6.63335 17.6333 6.70001H19.7333H21.8166C22.9666 6.70001 23.6666 6.60001 24.8333 6.51668C25.3833 6.51668 25.8166 5.45001 25.0833 5.26668C23.8166 5.21668 22.95 5.00001 21.6666 5.00001H18.3333C17.3027 4.99661 16.2729 5.05784 15.25 5.18335C14.55 5.23335 14.2333 5.68335 14.25 5.93335Z" fill="#6E9D3E"/>
<path d="M38.3333 6.78334C37.7709 6.17148 37.0305 5.75172 36.2167 5.58334C35.4454 5.37934 34.6463 5.30056 33.85 5.35001C32.6667 5.51667 32.9833 6.33334 33.6 6.33334C34.1584 6.32774 34.7162 6.37237 35.2667 6.46667C36.098 6.52603 36.877 6.89471 37.45 7.50001C37.8384 8.27898 38.0598 9.1305 38.1 10C38.2667 11.3 38.4 12.9833 38.4833 14.8333C36.0333 14.8333 31.1167 14.6333 25.6 14.5333H19.95H14.3C8.33333 14.5833 3.14999 14.7833 1.51666 14.85C1.50608 12.3354 1.76308 9.82687 2.28333 7.36667C2.44728 7.06569 2.68767 6.81323 2.98027 6.63475C3.27287 6.45626 3.60734 6.35805 3.94999 6.35001C4.6422 6.18157 5.35515 6.11421 6.06666 6.15001C6.16087 6.13379 6.24747 6.088 6.31391 6.01926C6.38034 5.95053 6.42316 5.86242 6.43616 5.76771C6.44916 5.67301 6.43166 5.57662 6.3862 5.49253C6.34074 5.40843 6.26968 5.341 6.18333 5.30001C5.15085 5.07635 4.08246 5.07635 3.04999 5.30001C2.64103 5.3984 2.26009 5.58929 1.93647 5.85801C1.61286 6.12672 1.3552 6.46609 1.18333 6.85001C0.533326 8.38334 -0.133341 16.85 0.0166592 24.35C0.133326 29.8 0.783326 34.6833 1.98333 36.15C2.86666 37.2167 5.16666 37.8167 8.06666 38.05C12.5833 38.35 18.5833 37.85 21.6833 37.85C25.5764 37.9733 29.4734 37.8452 33.35 37.4667C35.0976 37.3149 36.7973 36.8163 38.35 36C38.8022 35.6166 39.1035 35.085 39.2 34.5C39.7934 31.0775 40.0613 27.6064 40 24.1333C40 16.6667 39.3833 8.01667 38.3333 6.78334ZM37.9167 32.55C37.8238 33.2814 37.639 33.9982 37.3667 34.6833C35.5016 35.464 33.5049 35.8826 31.4833 35.9167C27.5833 36.2333 23.2833 36.0833 21.6833 36.0833C18.6167 36.0833 12.6667 36.6 8.18333 36.3333C5.88333 36.2 3.98333 35.9667 3.28333 35.1333C2.14999 33.8167 1.66666 29.3333 1.51666 24.3833C1.40586 21.5346 1.39474 18.6829 1.48333 15.8333C3.14999 15.8333 8.23333 16.1 14.3 16.2167H19.95H25.6C31.15 16.1167 36.0833 15.9667 38.5167 15.9C38.5167 17.5667 38.6 19.45 38.5167 21.2833C38.5501 25.0477 38.3497 28.8105 37.9167 32.55Z" fill="#6E9D3E"/>
<path d="M7.46666 6.40002C7.33838 7.73459 7.46853 9.08138 7.84999 10.3667C8.15121 10.9529 8.65643 11.4086 9.27042 11.6481C9.88441 11.8875 10.5648 11.8941 11.1833 11.6667C11.6078 11.5687 12.0003 11.3643 12.324 11.0727C12.6476 10.7811 12.8917 10.412 13.0333 10C13.3168 9.0555 13.4186 8.0658 13.3333 7.08335V5.31669V4.65002C13.356 4.28122 13.2993 3.91184 13.167 3.56682C13.0348 3.2218 12.83 2.90917 12.5667 2.65002C11.6811 2.03989 10.5966 1.78962 9.53332 1.95002C9.38745 1.95002 9.24756 2.00797 9.14441 2.11111C9.04127 2.21426 8.98332 2.35415 8.98332 2.50002C8.94242 2.39725 8.86635 2.31234 8.76867 2.26045C8.67098 2.20856 8.55804 2.19305 8.44999 2.21669C8.34103 2.24719 8.24135 2.30428 8.15989 2.38282C8.07844 2.46137 8.01777 2.55891 7.98332 2.66669C7.85819 3.21408 7.78564 3.77217 7.76666 4.33335L7.58332 5.21669V5.65002L7.46666 6.40002ZM8.83332 5.91669C8.83332 5.91669 9.09999 2.83335 9.09999 2.70002C9.13751 2.80251 9.20556 2.89102 9.29497 2.95361C9.38439 3.0162 9.49085 3.04985 9.59999 3.05002C11.1 3.05002 11.7333 3.33335 11.9 3.91669C11.9486 4.97777 11.8703 6.04086 11.6667 7.08335C11.6681 7.72843 11.5954 8.37155 11.45 9.00002C11.35 9.38335 11.2 9.78335 10.7833 9.88335C10.6207 9.95701 10.4437 9.99346 10.2652 9.99004C10.0867 9.98662 9.91123 9.94341 9.75155 9.86357C9.59187 9.78373 9.45202 9.66927 9.34218 9.52853C9.23235 9.38779 9.1553 9.22431 9.11666 9.05002C8.84872 8.02858 8.75296 6.96962 8.83332 5.91669Z" fill="#6E9D3E"/>
</svg>
