<svg width="40" height="40" viewBox="0 0 40 40" fill="none" xmlns="http://www.w3.org/2000/svg">
<g clip-path="url(#clip0_1051_8902)">
<path fill-rule="evenodd" clip-rule="evenodd" d="M38.3333 30.6834C39.0555 30.1204 39.5617 29.3258 39.7667 28.4334C39.7758 28.2062 39.6953 27.9846 39.5425 27.8162C39.3898 27.6479 39.177 27.5463 38.95 27.5334H38.3667C36.6286 27.5731 34.8901 27.4783 33.1667 27.25L32.65 26.3C32.25 25.4834 31.8667 24.6334 31.45 23.9C31.0333 23.1667 30.85 22.8334 30.5 22.2334C30.4115 22.116 30.2969 22.0208 30.1653 21.9553C30.0337 21.8897 29.8887 21.8556 29.7417 21.8556C29.5947 21.8556 29.4496 21.8897 29.3181 21.9553C29.1865 22.0208 29.0719 22.116 28.9833 22.2334C28.6365 22.7712 28.3194 23.3276 28.0333 23.9C27.6 24.6667 27.2167 25.4834 26.8167 26.2834L26.3 27.2334C24.5834 27.4751 22.8498 27.5754 21.1167 27.5334H20.5167C20.2883 27.5505 20.0754 27.6556 19.9231 27.8266C19.7707 27.9977 19.6907 28.2212 19.7 28.45C19.9054 29.3465 20.4185 30.1426 21.15 30.7C22.366 31.6724 23.6529 32.5526 25 33.3334L24.8333 33.7C24.5833 34.35 23.5167 36.4 23.1667 37.7167C23.0315 38.0671 22.9692 38.4414 22.9833 38.8167C22.9931 38.9347 23.0279 39.0492 23.0854 39.1526C23.1428 39.2561 23.2217 39.3461 23.3167 39.4167C23.6813 39.6649 24.1004 39.8217 24.5384 39.8739C24.9764 39.9261 25.4205 39.8722 25.8333 39.7167C27.2981 39.127 28.6425 38.274 29.8 37.2C31.0329 38.2438 32.4294 39.0772 33.9333 39.6667C34.3507 39.8361 34.8021 39.9047 35.2509 39.8671C35.6997 39.8294 36.1334 39.6866 36.5167 39.45C36.6189 39.3776 36.7034 39.283 36.764 39.1733C36.8246 39.0637 36.8597 38.9418 36.8667 38.8167C36.8883 38.4355 36.8257 38.0543 36.6833 37.7C36.2833 36.4 35.1833 34.3667 34.9333 33.6834C34.9333 33.6834 34.9333 33.45 34.85 33.3L35.15 33.1167C36.266 32.3801 37.3297 31.567 38.3333 30.6834ZM33.5167 34.1667C34.2724 35.5612 34.9242 37.0096 35.4667 38.5C34.8298 38.6899 34.1445 38.6303 33.55 38.3334C32.3091 37.7671 31.149 37.0385 30.1 36.1667C30.0013 36.1008 29.8853 36.0656 29.7667 36.0656C29.648 36.0656 29.532 36.1008 29.4333 36.1667C28.4124 37.0518 27.2941 37.8178 26.1 38.45C25.7996 38.6169 25.4661 38.7154 25.1232 38.7385C24.7804 38.7615 24.4367 38.7086 24.1167 38.5834C24.6662 37.0958 25.3293 35.6527 26.1 34.2667C26.2602 33.962 26.394 33.6442 26.5 33.3167C26.5368 33.1633 26.5368 33.0034 26.5 32.85C26.3598 32.6037 26.159 32.3972 25.9167 32.25C25.3167 31.8334 23.9667 30.9667 22.8667 30.05C22.5683 29.8058 22.2844 29.5442 22.0167 29.2667C23.6531 29.3182 25.2911 29.2458 26.9167 29.05C27.2593 28.9568 27.5703 28.7725 27.8167 28.5167C28.1324 28.0947 28.3954 27.6357 28.6 27.15C28.9833 26.35 29.3667 25.6 29.7667 24.8334L29.9 24.6334L30 24.8334C30.4333 25.5834 30.8 26.35 31.1833 27.15C31.3835 27.6363 31.6529 28.091 31.9833 28.5C32.2235 28.7552 32.529 28.9397 32.8667 29.0334C34.4972 29.2366 36.1409 29.3146 37.7833 29.2667C37.5078 29.5484 37.2126 29.8101 36.9 30.05C35.9224 30.8309 34.9043 31.5596 33.85 32.2334C33.6104 32.3909 33.4107 32.6021 33.2667 32.85C33.2208 33.0079 33.2208 33.1755 33.2667 33.3334C33.3234 33.6185 33.4071 33.8975 33.5167 34.1667Z" fill="#6E9D3E"/>
<path fill-rule="evenodd" clip-rule="evenodd" d="M8.01667 2.35003C7.85166 2.31681 7.68168 2.31681 7.51667 2.35003C7.17912 2.28006 6.8296 2.29359 6.49847 2.38944C6.16735 2.48529 5.86464 2.66057 5.61667 2.90003C5 3.98337 4.88334 4.70003 3.8 12C3.46667 14.25 2.88333 16.3167 2.48333 18.3C2.08333 20.2834 1.66667 22.6167 1.21667 24.5834C0.797085 26.037 0.45219 27.5111 0.183335 29C0.142687 29.2426 0.165876 29.4915 0.250623 29.7224C0.335369 29.9532 0.478752 30.1581 0.666668 30.3167C2.19131 30.9188 3.771 31.371 5.38334 31.6667C9.55 32.5834 15.1167 33.55 16.0667 33.7167C16.1963 33.7379 16.3293 33.7106 16.44 33.6398C16.5507 33.5691 16.6314 33.4599 16.6667 33.3334C16.6811 33.2654 16.6818 33.1952 16.6685 33.127C16.6552 33.0588 16.6283 32.994 16.5894 32.9364C16.5505 32.8789 16.5004 32.8297 16.4421 32.792C16.3838 32.7542 16.3185 32.7286 16.25 32.7167C15.3 32.5 9.8 31.3 5.7 30.2167C4.42437 29.9159 3.16681 29.5431 1.93333 29.1C2.11667 27.8667 2.91667 25.2334 2.95 25.05C3.25 23.7 3.55 22.3 3.8 20.8167C4.66667 15.9167 5.15 11.5 6.46667 5.00003C6.46667 5.00003 6.6 4.1667 6.61667 4.15003C6.80042 4.02039 7.0027 3.91925 7.21667 3.85003C7.6 3.85003 7.9 3.85003 8.03334 3.75003C8.43334 3.33337 8.45 2.45003 8.01667 2.35003Z" fill="#6E9D3E"/>
<path fill-rule="evenodd" clip-rule="evenodd" d="M30 15.2667C30.1333 14.7 30.2333 14.15 30.3167 13.6C30.4 13.05 30.4833 12.4834 30.55 11.9334C30.6833 10.7334 30.75 9.48337 30.8833 7.96671C30.9081 7.87388 30.9081 7.7762 30.8833 7.68337C30.8833 7.68337 31.0167 7.56671 31.0333 7.46671C31.0632 7.32535 31.0362 7.17793 30.9582 7.05631C30.8803 6.93468 30.7576 6.84862 30.6167 6.81671C30.154 6.55689 29.644 6.39254 29.1167 6.33337C28.6333 6.33337 28.0667 7.16671 28.4333 7.56671C28.586 7.75859 28.807 7.884 29.05 7.91671H29.85C29.5167 9.33337 29.2 10.5334 28.9333 11.6667C28.8167 12.2334 28.7 12.7834 28.6 13.3334C28.5 13.8834 28.4167 14.4334 28.35 15C28.2333 16.1834 27.7167 19.1834 27.6 20.7C27.5891 20.7613 27.5903 20.8242 27.6036 20.885C27.617 20.9458 27.6422 21.0034 27.6778 21.0544C27.7134 21.1055 27.7587 21.1491 27.8111 21.1826C27.8635 21.2162 27.9221 21.2391 27.9833 21.25C28.0446 21.261 28.1075 21.2597 28.1683 21.2464C28.2291 21.2331 28.2867 21.2079 28.3377 21.1723C28.3888 21.1367 28.4324 21.0914 28.4659 21.0389C28.4995 20.9865 28.5224 20.928 28.5333 20.8667C28.5167 20.4334 29.8 15.8 30 15.2667Z" fill="#6E9D3E"/>
<path fill-rule="evenodd" clip-rule="evenodd" d="M34.55 6.35001C34.4068 5.7432 34.1339 5.17461 33.75 4.68335C33.3431 4.12173 32.7872 3.68517 32.1451 3.42304C31.503 3.1609 30.8004 3.08365 30.1167 3.20001L29.5 3.08335C27.6167 2.70001 26.25 2.26668 24.3833 1.85001C23.7167 1.70001 22.9833 1.58335 22.1333 1.43335C21.2833 1.28335 20.1167 1.10001 19.1333 1.00001C12.0167 0.233348 11.7667 -0.483318 10 1.18335C9.77655 1.3737 9.58521 1.59881 9.43334 1.85001C8.11667 3.83335 7.86668 7.26668 5.41668 20.2667C5.21668 21.2667 4.60001 22.85 4.40001 24.25C4.24529 24.9358 4.24529 25.6475 4.40001 26.3333C4.53651 26.6206 4.73904 26.8716 4.99104 27.0656C5.24305 27.2597 5.53738 27.3914 5.85001 27.45C7.73334 27.9833 12.1167 28.1667 15.6 28.85C15.669 28.8673 15.7407 28.8706 15.811 28.8598C15.8813 28.849 15.9487 28.8242 16.0093 28.7869C16.0698 28.7496 16.1223 28.7006 16.1637 28.6428C16.205 28.5849 16.2344 28.5194 16.25 28.45C16.2804 28.311 16.2557 28.1656 16.1811 28.0443C16.1065 27.9231 15.9878 27.8355 15.85 27.8C13.4 27.1833 10.4833 26.7833 8.35001 26.3667C7.18334 26.15 5.63334 26.0333 5.91667 25.6833C5.91667 25.6 6.01667 25.8 6.03334 25.8667C5.93389 25.2425 5.97951 24.6037 6.16668 24C6.43334 22.8 6.88334 21.5167 7.08334 20.6667C7.40001 19.25 7.78334 17.8333 8.00001 16.4C9.66668 5.15002 8.90001 6.40001 10.3167 3.60001C10.5381 3.16647 10.8064 2.75848 11.1167 2.38335C11.542 1.84264 12.1241 1.44676 12.7833 1.25001C14.2333 1.66668 15.6667 2.01668 17.1333 2.31668C18.6 2.61668 20.1667 2.85001 21.7667 3.16668C24.1167 3.46668 25.6333 3.78335 27.3333 4.03335L28.0333 4.13335C26 5.80001 26.05 6.71668 24.4667 12.4667C24.3333 12.9833 24.2167 13.4833 24.1167 14C24.0167 14.5167 23.95 15.0167 23.8833 15.5333C23.7167 16.75 23.0167 22 22.9167 23.2167C22.8982 23.3533 22.9333 23.4919 23.0148 23.6032C23.0962 23.7145 23.2176 23.7899 23.3535 23.8136C23.4893 23.8373 23.6291 23.8075 23.7434 23.7304C23.8578 23.6533 23.9378 23.5349 23.9667 23.4C24.2833 22.2167 25.25 17.0333 25.6333 15.8667C25.7667 15.3667 25.8833 14.85 25.9833 14.35C26.0833 13.85 26.2 13.3333 26.25 12.8167C26.7 8.65001 28.0167 5.90001 28.9333 5.21668C29.1789 4.99722 29.4696 4.83433 29.785 4.73952C30.1004 4.6447 30.4327 4.62028 30.7586 4.66796C31.0844 4.71565 31.3958 4.83428 31.6708 5.01549C31.9458 5.1967 32.1777 5.43606 32.35 5.71668C32.6266 6.09786 32.7937 6.54739 32.8333 7.01668C32.8902 7.57078 32.8902 8.12925 32.8333 8.68335C32.8333 9.68335 32.6833 10.7167 32.55 11.75C32.4251 12.7752 32.2471 13.7933 32.0167 14.8L31.5167 16.85C31.4644 16.9791 31.4253 17.1131 31.4 17.25H30.9833C30.7546 17.2356 30.5296 17.185 30.3167 17.1C29.8167 17.1 29.45 17.85 30.3167 18.2C30.5766 18.3512 30.867 18.4423 31.1667 18.4667C31.5516 18.4952 31.9371 18.4204 32.2833 18.25C32.4374 18.1752 32.5568 18.0439 32.6167 17.8833C32.6946 17.6547 32.7559 17.4208 32.8 17.1833L33.45 15.1833C33.7717 14.1437 34.0333 13.0864 34.2333 12.0167C34.4333 10.9333 34.55 9.85001 34.65 8.80001C34.7282 7.9826 34.6945 7.15834 34.55 6.35001Z" fill="#6E9D3E"/>
<path fill-rule="evenodd" clip-rule="evenodd" d="M24.5833 8.6667C24.6037 8.59885 24.6103 8.52764 24.6028 8.45721C24.5954 8.38678 24.5739 8.31854 24.5398 8.25648C24.5057 8.19442 24.4595 8.13978 24.404 8.09575C24.3486 8.05172 24.2849 8.01918 24.2167 8.00003C22.7 7.48336 21.1667 6.98336 19.6 6.60003C18.2571 6.27438 16.8924 6.04601 15.5167 5.9167C13.85 5.80003 12.3 5.8167 10.7 5.9167C10.5744 5.90737 10.4501 5.94744 10.3536 6.02838C10.2571 6.10931 10.196 6.22472 10.1833 6.35003C10.1788 6.41268 10.187 6.4756 10.2074 6.53501C10.2277 6.59443 10.2599 6.64912 10.3019 6.6958C10.3439 6.74249 10.395 6.78022 10.4519 6.80672C10.5089 6.83322 10.5706 6.84795 10.6333 6.85003C12.4167 7.1167 14.1667 7.50003 15.95 7.8167C17.0167 8.0167 18.0833 8.15003 19.1333 8.3167C20.8 8.5667 22.35 8.78336 23.9333 9.1167C24.0059 9.13362 24.0811 9.13517 24.1543 9.12124C24.2275 9.10731 24.2969 9.07821 24.3581 9.03582C24.4193 8.99343 24.471 8.93868 24.5098 8.87511C24.5486 8.81153 24.5737 8.74054 24.5833 8.6667Z" fill="#6E9D3E"/>
<path fill-rule="evenodd" clip-rule="evenodd" d="M21.35 14.0667C21.3809 14.0011 21.3985 13.93 21.4018 13.8575C21.4051 13.7851 21.394 13.7127 21.3692 13.6445C21.3445 13.5764 21.3064 13.5138 21.2574 13.4604C21.2083 13.407 21.1492 13.3638 21.0833 13.3334C20.738 13.1479 20.3751 12.9972 20 12.8834C19.45 12.7167 18.8667 12.6 18.3333 12.4667C17.8 12.3334 17.4833 12.2834 17.05 12.2167C16.3705 12.1283 15.6849 12.0949 15 12.1167C13.8987 12.1822 12.8084 12.3723 11.75 12.6834C11.6887 12.6921 11.6298 12.7129 11.5765 12.7444C11.5232 12.7759 11.4767 12.8177 11.4395 12.8672C11.4024 12.9167 11.3754 12.9731 11.36 13.033C11.3446 13.093 11.3412 13.1554 11.35 13.2167C11.3588 13.278 11.3795 13.3369 11.411 13.3902C11.4426 13.4435 11.4843 13.49 11.5338 13.5271C11.5833 13.5643 11.6397 13.5913 11.6997 13.6067C11.7596 13.622 11.822 13.6254 11.8833 13.6167H13.1167C13.95 13.6167 14.7833 13.8167 15.55 13.9C16.3167 13.9834 17.2167 13.9 18 14.0667H19.6667C19.9891 14.0924 20.3078 14.1539 20.6167 14.25C20.7392 14.319 20.8834 14.3384 21.0198 14.3043C21.1562 14.2702 21.2743 14.1852 21.35 14.0667Z" fill="#6E9D3E"/>
<path fill-rule="evenodd" clip-rule="evenodd" d="M16.9667 18.2C16.5195 18.0612 16.0627 17.9553 15.6 17.8834C15.1378 17.7949 14.67 17.7392 14.2 17.7167C13.0863 17.6874 11.9719 17.7431 10.8667 17.8834C10.7559 17.9042 10.6559 17.9631 10.584 18.0498C10.5121 18.1365 10.4727 18.2457 10.4727 18.3584C10.4727 18.471 10.5121 18.5802 10.584 18.6669C10.6559 18.7536 10.7559 18.8125 10.8667 18.8334C12.0833 19 13.2167 19.3 14.3833 19.5167C15.1 19.65 15.7833 19.7334 16.5 19.85C17.55 20 18.6167 20.1334 19.6667 20.3667C19.8037 20.409 19.9519 20.396 20.0795 20.3306C20.2072 20.2653 20.3042 20.1526 20.35 20.0167C20.3923 19.8796 20.3793 19.7315 20.314 19.6038C20.2486 19.4762 20.1359 19.3791 20 19.3334C19.0133 18.8932 18.0003 18.5147 16.9667 18.2Z" fill="#6E9D3E"/>
</g>
<defs>
<clipPath id="clip0_1051_8902">
<rect width="40" height="40" fill="white"/>
</clipPath>
</defs>
</svg>
