<svg width="41" height="40" viewBox="0 0 41 40" fill="none" xmlns="http://www.w3.org/2000/svg">
<path fill-rule="evenodd" clip-rule="evenodd" d="M18.7783 5.01166C17.8417 3.92362 16.9697 2.78166 16.1666 1.59166C16.1079 1.52869 16.0622 1.45467 16.0322 1.3739C16.0023 1.29312 15.9887 1.2072 15.9923 1.12114C15.9959 1.03507 16.0165 0.950567 16.053 0.872545C16.0895 0.794524 16.1412 0.724538 16.205 0.666655C17 -0.066678 20.1983 3.45332 21.3683 4.74166L21.6316 5.02999C22.5 6.01999 21.0166 7.47165 18.7266 9.71332C18.3766 10.055 18.01 10.4133 17.6283 10.7933C17.5097 10.9272 17.3437 11.0099 17.1654 11.0238C16.987 11.0377 16.8103 10.9818 16.6723 10.8678C16.5344 10.7539 16.4461 10.5909 16.4261 10.4131C16.4061 10.2353 16.4559 10.0567 16.565 9.91499C16.9916 9.28832 17.2783 8.85166 17.5216 8.48166C17.93 7.85832 18.215 7.42666 18.825 6.60999H18.6683C17.72 6.60999 16.455 6.60832 14.7683 6.64666C10.8216 6.74166 8.81498 6.65166 7.71831 7.60832C6.28998 8.85665 6.41664 11.885 5.80664 19.43C5.80184 19.6039 5.72859 19.7688 5.60281 19.889C5.47703 20.0091 5.3089 20.0748 5.13498 20.0717C4.41831 20.05 4.40164 19.795 4.33498 14.5233C4.20664 4.03999 7.52331 3.92832 18.7783 5.01166Z" fill="#6E9D3E"/>
<path fill-rule="evenodd" clip-rule="evenodd" d="M33.945 32.495C35.1733 28.795 35.555 24.8683 35.0617 21.0016C35.0369 20.8321 35.0795 20.6596 35.1804 20.5211C35.2813 20.3826 35.4324 20.2892 35.6014 20.2609C35.7704 20.2325 35.9437 20.2715 36.0843 20.3695C36.2249 20.4675 36.3214 20.6166 36.3533 20.785C36.9867 23.545 37.195 26.385 36.9717 29.2083C36.3083 36.6416 32.0017 36.1366 23.225 35.1083L22.1583 34.9833C23.0687 36.0734 23.9167 37.2142 24.6983 38.4C24.7576 38.4645 24.8034 38.5403 24.8329 38.6228C24.8624 38.7053 24.875 38.7929 24.8701 38.8804C24.8651 38.9679 24.8426 39.0535 24.8039 39.1322C24.7653 39.2108 24.7112 39.2809 24.645 39.3383C23.8483 40.055 20.7283 36.5433 19.5533 35.2216C19.4599 35.1157 19.366 35.0102 19.2717 34.905C18.4133 33.9033 19.92 32.47 22.2433 30.2583C22.5967 29.9216 22.9683 29.5683 23.3533 29.195C23.4765 29.0808 23.637 29.0155 23.8048 29.0113C23.9727 29.007 24.1363 29.0641 24.2651 29.1718C24.3939 29.2795 24.4789 29.4305 24.5044 29.5965C24.5298 29.7624 24.4939 29.9319 24.4033 30.0733C23.9733 30.6883 23.6817 31.12 23.4367 31.485C22.9967 32.135 22.7 32.575 22.02 33.4566C22.795 33.4766 23.5433 33.5 24.2633 33.5216C29.2917 33.675 32.9117 33.7883 33.945 32.495Z" fill="#6E9D3E"/>
<path fill-rule="evenodd" clip-rule="evenodd" d="M23.9617 15.52C23.26 15.6083 22.5583 15.7083 21.86 15.8217C21.6863 15.8309 21.5234 15.9089 21.4071 16.0383C21.2908 16.1677 21.2307 16.3379 21.24 16.5117C21.2493 16.6854 21.3272 16.8483 21.4566 16.9646C21.586 17.0808 21.7563 17.1409 21.93 17.1317C31.3883 17.32 38.2817 17.0383 39.3367 16.915C39.429 16.9142 39.5203 16.8949 39.6051 16.8582C39.6899 16.8215 39.7664 16.7682 39.8302 16.7013C39.8939 16.6345 39.9436 16.5555 39.9763 16.4691C40.009 16.3827 40.024 16.2906 40.0204 16.1983C40.0168 16.106 39.9948 16.0154 39.9555 15.9318C39.9163 15.8482 39.8606 15.7733 39.7919 15.7116C39.7231 15.6499 39.6427 15.6026 39.5553 15.5725C39.468 15.5425 39.3755 15.5303 39.2833 15.5367C38.5084 15.4372 37.7316 15.3528 36.9533 15.2833L36.9867 14.75C37.0117 14.2783 37.0433 13.7117 37.1083 13.0417C37.19 12.1783 37.315 11.2883 37.4417 10.4C37.9967 6.48 38.5467 2.6 35.1967 1.31167C32.9305 0.770866 30.6018 0.537107 28.2733 0.616666C26.74 0.586666 25.0933 0.616666 24.2767 2.005C23.7167 6.48833 23.61 11.0167 23.96 15.5217L23.9617 15.52ZM25.3367 15.3633C28.6894 15.0195 32.0648 14.9543 35.4283 15.1683C35.425 14.7183 35.45 14.1683 35.4783 13.5183C35.4983 13.1117 35.52 12.665 35.535 12.18L35.5467 11.87C27.4417 12.8167 27.2633 8.33833 35.6283 10.37C35.6583 9.91167 35.69 9.47333 35.7217 9.055C35.76 8.525 35.7983 8.02667 35.8233 7.56167C25.9033 8.44333 28.57 4.205 35.8583 6.06667C35.82 4.62833 35.495 3.68167 34.45 3.29167C31.6914 2.71859 28.8519 2.64857 26.0683 3.085C25.825 3.48667 25.42 12.5017 25.3367 15.3633Z" fill="#6E9D3E"/>
<path fill-rule="evenodd" clip-rule="evenodd" d="M3.81166 27.6167L1.06666 29.42C0.926792 29.5173 0.754868 29.557 0.586516 29.5309C0.418165 29.5048 0.266294 29.415 0.162375 29.28C0.0584548 29.145 0.0104533 28.9752 0.0283171 28.8058C0.046181 28.6364 0.128541 28.4804 0.258329 28.37C1.41833 27.3367 9.17666 20.5467 10.57 21.24C14.0307 23.0014 17.2918 25.1304 20.2967 27.59C20.3713 27.6414 20.4351 27.7071 20.4843 27.7832C20.5336 27.8592 20.5674 27.9443 20.5838 28.0334C20.6002 28.1226 20.5989 28.2141 20.58 28.3027C20.561 28.3913 20.5248 28.4754 20.4733 28.55C20.4219 28.6246 20.3563 28.6884 20.2802 28.7377C20.2041 28.787 20.1191 28.8208 20.0299 28.8372C19.9408 28.8536 19.8493 28.8523 19.7606 28.8333C19.672 28.8143 19.588 28.7781 19.5133 28.7267C18.9917 28.415 18.0367 27.8567 16.905 27.2033C16.985 27.9783 17.0783 28.7317 17.1667 29.455C17.6667 33.505 18.05 36.6267 15.565 37.6133C12.3221 38.2598 8.97719 38.1916 5.76333 37.4133C3.61333 36.465 3.66666 34.325 3.76333 30.3833C3.785 29.5467 3.80833 28.6267 3.81333 27.62L3.81166 27.6167ZM4.97833 26.8517C5.06676 26.9594 5.1187 27.0925 5.12666 27.2317C5.82333 34.4367 5.83166 34.62 5.84833 34.62C5.85166 34.62 5.855 34.6133 5.865 34.655C6.30333 36.47 13.8867 35.8983 14.6517 35.6967C15.5667 35.4633 15.5517 34.5767 15.495 30.8717C15.4783 29.7233 15.455 28.305 15.455 26.55C15.4498 26.4916 15.452 26.4328 15.4617 26.375C13.5583 25.2883 11.4783 24.1267 10.1617 23.4533L4.97833 26.8517Z" fill="#6E9D3E"/>
</svg>
