<svg width="40" height="40" viewBox="0 0 40 40" fill="none" xmlns="http://www.w3.org/2000/svg">
<g clip-path="url(#clip0_1034_4751)">
<path fill-rule="evenodd" clip-rule="evenodd" d="M39.85 15.3333C39.55 14.3667 37.55 14.3333 36.1667 14.2667C36.4331 12.9421 36.6002 11.5995 36.6667 10.25L39.1167 10.0833C39.2714 10.0833 39.4198 10.0219 39.5291 9.91247C39.6385 9.80307 39.7 9.6547 39.7 9.49999C39.7 9.34528 39.6385 9.19691 39.5291 9.08751C39.4198 8.97811 39.2714 8.91666 39.1167 8.91666L36.6667 8.76666C36.6667 7.46666 36.5 6.64999 36.3167 5.13332C36.3167 4.97861 36.2552 4.83024 36.1458 4.72084C36.0364 4.61145 35.888 4.54999 35.7333 4.54999C35.5786 4.54999 35.4303 4.61145 35.3209 4.72084C35.2115 4.83024 35.15 4.97861 35.15 5.13332C35.15 6.23332 34.8833 7.38332 34.7833 8.64999C33.0295 8.54072 31.2705 8.54072 29.5167 8.64999C29.4167 6.63332 29.3 6.09999 29.15 4.21666C29.1264 4.07677 29.0541 3.94976 28.9458 3.85816C28.8375 3.76657 28.7002 3.71631 28.5583 3.71631C28.4165 3.71631 28.2792 3.76657 28.1709 3.85816C28.0626 3.94976 27.9902 4.07677 27.9667 4.21666C27.7167 6.69999 27.65 7.06666 27.6 8.78332C26.0333 8.93332 24.4667 9.13332 22.8667 9.33332C22.8667 7.56666 23.05 4.33332 21.8833 3.79999C18.1 1.86666 5.91667 2.13332 1.88333 3.08332C1.22925 3.15908 0.630914 3.48817 0.216667 3.99999C-0.433333 5.33332 0.216667 35.1167 2.15 36.3833C5.13333 38.35 32.6667 37.55 36.8833 37.1167C37.7667 37.0333 38.85 36.9667 39.1 36.45C39.1365 36.3816 39.1586 36.3064 39.1649 36.229C39.1712 36.1517 39.1616 36.0739 39.1366 36.0005C39.1116 35.9271 39.0717 35.8595 39.0196 35.8021C38.9674 35.7447 38.904 35.6986 38.8333 35.6667C38.4 35.45 37 35.9167 36.4167 35.9667C26.1223 36.4709 15.806 36.3039 5.53333 35.4667C2.66667 35.1 3.33333 35.2333 3.11667 34.3333C2.38333 30.2167 2.03333 16.4 1.96667 11.9667C3.18333 12.0833 19.0333 11.7167 19.65 11.5C19.7776 11.4661 19.8899 11.39 19.9686 11.284C20.0473 11.1781 20.0878 11.0486 20.0833 10.9167C20.0833 10.0333 18.85 10.4333 17.9167 10.3L12.3833 9.99999C6 9.61666 4.78333 10.8333 1.96667 10.9V5.11666C5.7205 4.48173 9.52789 4.21934 13.3333 4.33332C15.8661 4.26889 18.3928 4.61216 20.8167 5.34999C21.1314 8.0828 21.1983 10.8385 21.0167 13.5833C21.0167 14.3667 20.8667 15.0667 21.5167 15.4667C23.1833 16.4833 35.3167 15.1 38.6333 15.9C38.7833 17.4333 39 28.6167 38.75 32.8167C38.75 32.9537 38.8044 33.0851 38.9013 33.182C38.9982 33.2789 39.1296 33.3333 39.2667 33.3333C39.4037 33.3333 39.5351 33.2789 39.632 33.182C39.7289 33.0851 39.7833 32.9537 39.7833 32.8167C40 29.2833 40.1 16.1167 39.85 15.3333ZM22.6333 14.0167C22.6333 13.6 22.7833 10.8667 22.8 10.4667L27.5667 10.6C27.6483 11.825 27.8041 13.0439 28.0333 14.25C26.23 14.3414 24.4221 14.2632 22.6333 14.0167ZM29.1833 14.2333C29.3167 12.7 29.4167 12.15 29.4833 10.6C30.7333 10.6 31.15 10.6 34.6667 10.3833C34.6666 11.6739 34.7781 12.962 35 14.2333C33.2167 14.2 31.15 14.2167 29.1833 14.2333Z" fill="#6E9D3E"/>
<path fill-rule="evenodd" clip-rule="evenodd" d="M5.9 8.48334C7 8.01667 6.48334 5.91667 5.15 6.06667C4.95434 6.08019 4.76427 6.1378 4.59403 6.23519C4.4238 6.33259 4.2778 6.46724 4.16699 6.62906C4.05617 6.79088 3.98341 6.97568 3.95414 7.16961C3.92488 7.36354 3.93987 7.56158 3.99801 7.7489C4.05614 7.93621 4.1559 8.10795 4.28982 8.25124C4.42374 8.39453 4.58834 8.50566 4.77131 8.57631C4.95427 8.64696 5.15084 8.67529 5.34631 8.65919C5.54178 8.64309 5.73107 8.58297 5.9 8.48334Z" fill="#6E9D3E"/>
<path fill-rule="evenodd" clip-rule="evenodd" d="M10.9667 8.48334C12.05 8.01667 11.5333 5.91667 10.2 6.06667C9.99684 6.07349 9.79802 6.12726 9.61911 6.22377C9.4402 6.32027 9.28607 6.45689 9.16878 6.62292C9.0515 6.78895 8.97425 6.97988 8.94308 7.18075C8.91192 7.38162 8.92769 7.58698 8.98916 7.78074C9.05063 7.9745 9.15613 8.1514 9.29739 8.29757C9.43865 8.44375 9.61183 8.55523 9.80338 8.62328C9.99493 8.69134 10.1996 8.71412 10.4014 8.68984C10.6033 8.66556 10.7967 8.59488 10.9667 8.48334Z" fill="#6E9D3E"/>
<path fill-rule="evenodd" clip-rule="evenodd" d="M20.8 27.7C20.8 25.4166 20.7167 23.65 20.5 21.4C20.2 18.3666 20.3667 18.4 16.9333 18.1833C13.6728 17.9367 10.4012 17.87 7.13334 17.9833C6.25 18.1833 6.51667 19.65 7.4 19.45C8.28334 19.25 15.7333 20.05 17.4 20.2666C15.6101 21.5471 13.7079 22.6627 11.7167 23.6C10.6 23 10.05 22.7666 9.38334 22.3666C5.9 19.6666 4 17.9166 3.86667 19.2833C3.68333 21.3833 3.23334 29.1666 4.05 31.1C4.28334 31.7 4.96667 31.7333 5.53333 31.8C10.0811 32.2315 14.6615 32.1868 19.2 31.6666C19.6731 31.6283 20.1125 31.4062 20.424 31.048C20.7355 30.6898 20.8944 30.2239 20.8667 29.75C20.95 29.0666 20.8 27.9166 20.8 27.7ZM19.2333 20.5833C19.2333 20.8333 19.1333 20 19.2333 27.25C19.1912 27.8715 19.1912 28.4951 19.2333 29.1166C18.2 28.3333 15.4833 25.9 14.0667 25C15.9608 23.7416 17.6956 22.2586 19.2333 20.5833ZM8.33334 24.25C9.73334 25.3333 9.7 24.9166 9.13334 25.35C9.13334 25.35 5.25 29.4666 5.06667 29.6833C4.8497 26.754 4.8497 23.8126 5.06667 20.8833C5.35 21.1666 5 20.8333 8.33334 24.25ZM6.26667 30.4833C10.7 27.3666 11.0167 26.9166 11.75 26.4666C13.7749 27.4714 15.7444 28.5841 17.65 29.8C14.7833 30 8.88334 30.5 6.26667 30.4833Z" fill="#6E9D3E"/>
<path fill-rule="evenodd" clip-rule="evenodd" d="M34.2667 27.2667C32.1036 26.6326 29.8526 26.3512 27.6 26.4333C26.6 26.5667 24.2667 26.8833 24 26.9667C23.8671 27.0125 23.7559 27.1061 23.6881 27.2293C23.6204 27.3525 23.6008 27.4965 23.6333 27.6333C23.8333 28.3167 25.15 28.0833 25.3 28.0833C33.15 28.8833 29.0667 28.0833 34.2833 28.4333C34.9 28.4333 34.9 27.2667 34.2667 27.2667Z" fill="#6E9D3E"/>
<path fill-rule="evenodd" clip-rule="evenodd" d="M34.2667 20.4333C32.1032 19.8023 29.8518 19.5265 27.6 19.6166C26.6 19.75 24.2667 20.05 24 20.1333C23.8658 20.1825 23.7543 20.2793 23.6867 20.4052C23.6191 20.5312 23.6001 20.6776 23.6333 20.8166C23.8333 21.5 25.15 21.25 25.3 21.2666C33.15 22.0666 29.0667 21.2666 34.2833 21.6C34.9 21.6666 34.9 20.4333 34.2667 20.4333Z" fill="#6E9D3E"/>
</g>
<defs>
<clipPath id="clip0_1034_4751">
<rect width="40" height="40" fill="white"/>
</clipPath>
</defs>
</svg>
