<svg width="60" height="60" viewBox="0 0 60 60" fill="none" xmlns="http://www.w3.org/2000/svg">
<g clip-path="url(#clip0_1049_7512)">
<path fill-rule="evenodd" clip-rule="evenodd" d="M43.7 44.15C43.2601 44.1949 42.8251 44.2785 42.4 44.4C42.6389 43.5894 42.6098 42.7233 42.317 41.9306C42.0243 41.1378 41.4834 40.4607 40.775 40C40.4109 39.707 39.9926 39.4887 39.544 39.3577C39.0954 39.2267 38.6253 39.1855 38.1608 39.2366C37.6962 39.2877 37.2463 39.4301 36.8369 39.6554C36.4275 39.8808 36.0666 40.1848 35.775 40.55C34.8261 41.8695 33.5967 42.9624 32.175 43.75C30.7518 44.5332 29.2299 45.1218 27.65 45.5C26.675 45.375 25.775 45.225 25.15 45.075V44.825C25.0713 44.5816 25.021 44.3299 25 44.075C24.9212 42.7908 24.6776 41.522 24.275 40.3C24.1041 39.9318 23.8578 39.6036 23.552 39.3366C23.2463 39.0696 22.8879 38.8697 22.5 38.75C22.0432 38.4661 21.507 38.3371 20.9711 38.3822C20.4351 38.4272 19.928 38.6439 19.525 39C18.9009 39.7124 18.4705 40.5733 18.275 41.5C18.2139 42.1104 17.9988 42.6954 17.65 43.2C17.2506 43.5318 16.7927 43.7861 16.3 43.95C15.15 44.375 13.8 44.625 12.75 44.975C12.2742 44.6619 11.8449 44.2832 11.475 43.85C11.75 43.15 12.725 42.05 12.975 41.55L13.175 41.175C13.1911 41.0589 13.1911 40.9411 13.175 40.825C13.175 39.95 12.725 39.725 12.3 39.7C11.4324 39.6898 10.567 39.7906 9.725 40C7.775 40.375 5.75 41.1 4.025 41.425C3.846 41.4614 3.68734 41.564 3.58074 41.7123C3.47413 41.8607 3.42744 42.0437 3.45 42.225C3.48066 42.4069 3.58191 42.5694 3.73172 42.6771C3.88153 42.7847 4.06779 42.8289 4.25 42.8C6 42.5 8.05 41.975 10 41.75H10.6C10.175 42.475 9.675 43.275 9.475 43.725C9.35666 43.9528 9.29489 44.2058 9.29489 44.4625C9.29489 44.7192 9.35666 44.9722 9.475 45.2C9.98737 45.9496 10.621 46.6086 11.35 47.15C12.0613 47.6748 12.8336 48.1113 13.65 48.45C13.65 48.45 14.225 48.45 14.675 48.6V48.85C14.25 49.325 13.75 49.85 13.375 50.3C13.0082 50.723 12.7507 51.2294 12.625 51.775C12.625 51.975 13.225 55.275 13.55 57.325C11.9526 56.5898 10.2744 56.0444 8.55 55.7C7.7 55.7 7 55.55 6.375 55.525C4.78451 55.6117 3.19048 55.6117 1.6 55.525C1.39039 55.5166 1.18507 55.586 1.02354 55.7198C0.862012 55.8536 0.755678 56.0425 0.724998 56.25C0.710092 56.4572 0.773891 56.6624 0.903654 56.8246C1.03342 56.9868 1.21959 57.0941 1.425 57.125C3.675 57.4 4.825 57.275 6.275 57.4C6.92276 57.4422 7.56632 57.5342 8.2 57.675C10.1397 58.2831 12.022 59.0612 13.825 60C14.0968 60.089 14.3843 60.1194 14.6687 60.0893C14.9531 60.0591 15.2279 59.969 15.475 59.825C15.6214 59.7267 15.7444 59.5973 15.8351 59.4461C15.9259 59.2949 15.9822 59.1255 16 58.95C16.0264 58.6506 16.0264 58.3494 16 58.05C16 57.475 15.825 56.6 15.7 55.7C19.9 55.85 25.425 56.15 29.925 56.175C32.2966 56.2627 34.6704 56.0781 37 55.625C39.4449 54.9261 41.747 53.8004 43.8 52.3C44.6004 51.7462 45.2794 51.0349 45.7952 50.2095C46.3111 49.3842 46.653 48.4622 46.8 47.5C46.93 46.6634 46.7233 45.8094 46.225 45.125C45.9289 44.7526 45.5388 44.466 45.0949 44.2946C44.6511 44.1232 44.1696 44.0733 43.7 44.15ZM34.15 45.2C35.5342 44.4338 36.7703 43.4263 37.8 42.225C38.225 41.725 38.825 41.9 39.3 42.225C39.6152 42.43 39.8801 42.7035 40.075 43.025C40.075 43.25 40.325 43.475 40.225 43.7C39.9708 44.3632 39.5487 44.949 39 45.4C38.9224 45.4591 38.8386 45.5094 38.75 45.55L37.925 45.75C36.1601 45.9821 34.3774 46.0491 32.6 45.95C33.1331 45.7354 33.6509 45.4849 34.15 45.2ZM42.175 50.2C40.4085 51.5558 38.4209 52.5962 36.3 53.275C34.1936 53.7672 32.0381 54.0188 29.875 54.025C25.325 54.2 19.675 54.025 15.475 54.15C15.325 53.25 15.2 52.475 15.175 52.2C15.15 51.925 15.625 51.6 15.95 51.25C16.5119 50.7021 16.9843 50.0694 17.35 49.375C17.5165 49.0545 17.6035 48.6987 17.6035 48.3375C17.6035 47.9763 17.5165 47.6205 17.35 47.3C17.1851 46.9895 16.9211 46.7431 16.6 46.6C16.0842 46.3816 15.5483 46.2142 15 46.1C15.6342 45.9913 16.2605 45.841 16.875 45.65C17.5711 45.4339 18.2229 45.0952 18.8 44.65C19.2173 44.2701 19.5277 43.7874 19.7 43.25C19.9488 42.3958 20.2579 41.5604 20.625 40.75C20.825 40.425 21.15 40.325 21.675 40.575C22.2 40.825 22.3 41.6 22.4 42.325C22.4531 43.3728 22.57 44.4164 22.75 45.45C22.8409 45.8855 23.0464 46.2889 23.3452 46.6185C23.644 46.9481 24.0254 47.192 24.45 47.325C26.707 47.8732 29.0073 48.2245 31.325 48.375C33.6604 48.6167 36.0146 48.6167 38.35 48.375C39.925 48.1 41.425 47.4 42.975 47.025C43.2952 46.9425 43.6211 46.884 43.95 46.85H44.075V47.25C43.8487 48.4427 43.1673 49.5007 42.175 50.2Z" fill="#6E9D3E"/>
<path fill-rule="evenodd" clip-rule="evenodd" d="M19.8 29.2C19.7739 29.4075 19.7739 29.6175 19.8 29.825V31.35C19.7304 31.4359 19.6801 31.5358 19.6523 31.6428C19.6245 31.7498 19.6199 31.8615 19.6388 31.9704C19.6578 32.0794 19.6998 32.183 19.7621 32.2743C19.8244 32.3657 19.9055 32.4426 20 32.5C20.0966 32.5401 20.2003 32.5602 20.3049 32.5591C20.4095 32.5581 20.5128 32.5359 20.6086 32.4938C20.7043 32.4518 20.7906 32.3908 20.8622 32.3145C20.9337 32.2382 20.9891 32.1483 21.025 32.05C21.3832 31.6604 21.7093 31.2423 22 30.8C22.1337 30.5472 22.2346 30.2784 22.3 30C22.388 29.8251 22.4551 29.6405 22.5 29.45C22.5125 29.3504 22.5125 29.2496 22.5 29.15C23.4022 29.2992 24.3228 29.2992 25.225 29.15C26.1214 29.0908 26.9703 28.7258 27.63 28.1161C28.2897 27.5065 28.7204 26.6889 28.85 25.8C28.9274 25.266 28.8746 24.7211 28.6961 24.2118C28.5177 23.7026 28.2188 23.244 27.825 22.875C26.5931 21.9684 25.1896 21.322 23.7 20.975C23.1728 20.816 22.6686 20.5891 22.2 20.3C22.0587 20.2297 21.9355 20.1277 21.8401 20.0019C21.7447 19.8761 21.6797 19.7301 21.65 19.575C21.5 18.325 22.425 17.825 23.525 17.725C24.9157 17.6956 26.2888 18.041 27.5 18.725C27.6535 18.821 27.8382 18.8538 28.0153 18.8165C28.1924 18.7792 28.3482 18.6747 28.45 18.525C28.5226 18.4569 28.5785 18.3731 28.6136 18.28C28.6486 18.1869 28.6618 18.0869 28.6521 17.9879C28.6425 17.8889 28.6102 17.7934 28.5578 17.7088C28.5054 17.6242 28.4343 17.5528 28.35 17.5C27.7184 17.0421 27.018 16.6877 26.275 16.45C26.3492 16.373 26.4161 16.2893 26.475 16.2C26.5815 16.0158 26.6735 15.8236 26.75 15.625C26.75 15.425 26.75 15.225 26.875 15C27 14.775 26.875 14 26.875 13.475C26.9318 13.3752 26.9664 13.2643 26.9765 13.1499C26.9866 13.0355 26.972 12.9202 26.9335 12.812C26.8951 12.7037 26.8339 12.605 26.7539 12.5226C26.674 12.4401 26.5772 12.3759 26.4702 12.3341C26.3632 12.2924 26.2484 12.2742 26.1338 12.2808C26.0191 12.2874 25.9072 12.3186 25.8056 12.3723C25.7041 12.426 25.6153 12.5009 25.5453 12.592C25.4753 12.683 25.4258 12.7881 25.4 12.9C25.0418 13.2897 24.7157 13.7077 24.425 14.15C24.3052 14.3395 24.2047 14.5405 24.125 14.75C24.0483 14.951 23.9979 15.1611 23.975 15.375C23.9625 15.5498 23.9625 15.7252 23.975 15.9C23.3774 15.8245 22.7726 15.8245 22.175 15.9C21.7267 15.9582 21.2945 16.1052 20.9036 16.3324C20.5128 16.5596 20.1712 16.8625 19.8989 17.2233C19.6265 17.5842 19.4288 17.9957 19.3174 18.4338C19.206 18.872 19.1831 19.3279 19.25 19.775C19.2478 20.3082 19.3738 20.8341 19.6175 21.3084C19.8611 21.7826 20.2153 22.1913 20.65 22.5C21.905 23.242 23.249 23.8216 24.65 24.225C25.475 24.525 26.3 24.75 26.225 25.675C26.15 26.6 25.075 27.05 23.95 27.175C22.585 27.2737 21.219 26.9971 20 26.375C19.6584 26.1687 19.361 25.8968 19.125 25.575C18.8789 25.2004 18.6616 24.8076 18.475 24.4C18.3928 24.222 18.2481 24.0804 18.0684 24.002C17.8886 23.9237 17.6864 23.9141 17.5 23.975C17.3087 24.0623 17.1595 24.2215 17.0846 24.418C17.0098 24.6145 17.0153 24.8326 17.1 25.025C17.3238 25.6602 17.6261 26.2649 18 26.825C18.2874 27.241 18.6524 27.5975 19.075 27.875C19.4293 28.1328 19.8159 28.343 20.225 28.5C20.0458 28.7084 19.9022 28.9449 19.8 29.2Z" fill="#6E9D3E"/>
<path fill-rule="evenodd" clip-rule="evenodd" d="M20.175 8.27501C17.6351 8.70043 15.2475 9.77261 13.2421 11.3883C11.2367 13.004 9.68109 15.1088 8.72499 17.5C7.62926 19.9736 7.32938 22.7265 7.86684 25.378C8.4043 28.0295 9.75253 30.4484 11.725 32.3C12.4544 33.0102 13.2312 33.67 14.05 34.275C14.8923 34.8865 15.8077 35.3904 16.775 35.775C17.9067 36.1932 19.0951 36.4377 20.3 36.5C22.0399 36.5686 23.7822 36.4597 25.5 36.175C25.677 36.1443 25.8353 36.0467 25.9424 35.9024C26.0494 35.7582 26.0969 35.5783 26.075 35.4C26.0659 35.3087 26.0383 35.2203 25.9938 35.14C25.9494 35.0598 25.8891 34.9895 25.8165 34.9333C25.744 34.8772 25.6608 34.8364 25.572 34.8135C25.4832 34.7905 25.3906 34.786 25.3 34.8C23.6874 34.9631 22.0625 34.9631 20.45 34.8C19.4355 34.6655 18.4434 34.3965 17.5 34C16.6827 33.5958 15.9185 33.092 15.225 32.5C14.5266 31.9183 13.8747 31.283 13.275 30.6C11.7214 29.0086 10.6867 26.9837 10.3074 24.7923C9.928 22.6009 10.2218 20.346 11.15 18.325C12.0472 16.2606 13.4215 14.4386 15.1599 13.0088C16.8983 11.5789 18.9513 10.582 21.15 10.1C23.9367 9.57586 26.8162 9.88903 29.425 11C31.7882 11.6829 33.8337 13.1795 35.2 15.225C35.75 15.75 36.65 15.225 36.575 14.35C31.7 6.55001 22.025 7.95001 20.175 8.27501Z" fill="#6E9D3E"/>
<path fill-rule="evenodd" clip-rule="evenodd" d="M35.375 27.5C35 28.15 34.6 28.75 34.175 29.35C33.75 29.95 33.275 30.5 32.775 31.025C31.6082 32.3095 30.163 33.3101 28.55 33.95C28.4496 33.973 28.355 34.0164 28.2722 34.0775C28.1893 34.1387 28.1199 34.2162 28.0683 34.3053C28.0167 34.3945 27.984 34.4933 27.9722 34.5956C27.9605 34.6979 27.9699 34.8015 28 34.9C28.0259 35.0013 28.072 35.0964 28.1356 35.1794C28.1993 35.2625 28.279 35.3317 28.3701 35.3831C28.4612 35.4345 28.5618 35.4669 28.6657 35.4784C28.7697 35.4899 28.8749 35.4803 28.975 35.45C31.8971 34.8943 34.513 33.2838 36.325 30.925C36.8582 30.2192 37.2953 29.4458 37.625 28.625C38.1546 27.3601 38.4754 26.0177 38.575 24.65L36.95 23.95C36.5601 25.1888 36.0318 26.3796 35.375 27.5Z" fill="#6E9D3E"/>
<path fill-rule="evenodd" clip-rule="evenodd" d="M57.75 16.6C57.6602 16.5472 57.5607 16.513 57.4574 16.4995C57.354 16.486 57.2491 16.4935 57.1487 16.5215C57.0484 16.5495 56.9547 16.5975 56.8733 16.6625C56.7919 16.7275 56.7245 16.8083 56.675 16.9C56.3271 17.498 55.8589 18.0173 55.3 18.425C54.7519 18.8333 54.12 19.1151 53.45 19.25C53.1261 19.2874 52.7989 19.2874 52.475 19.25C50.8294 18.9025 49.1561 18.7017 47.475 18.65C45.625 18.875 42.475 20.825 39.8 21.3C39.2079 21.5218 38.5537 21.5111 37.9692 21.2698C37.3847 21.0286 36.9133 20.5749 36.65 20C36.225 19.2 36.975 18.825 37.725 18.325C39.575 17.125 42.15 15.975 43.15 14.2C43.47 13.6853 43.664 13.1023 43.7161 12.4984C43.7682 11.8946 43.677 11.287 43.45 10.725C42.4 7.75 40.575 6.925 38.7 7.225C37.8059 7.32946 36.9465 7.63295 36.1851 8.11317C35.4236 8.59339 34.7795 9.23813 34.3 10C34.2248 10.0736 34.166 10.1621 34.1273 10.2599C34.0886 10.3577 34.0709 10.4625 34.0753 10.5676C34.0797 10.6726 34.1062 10.7756 34.153 10.8698C34.1998 10.9639 34.2659 11.0472 34.347 11.1142C34.4281 11.1812 34.5223 11.2303 34.6236 11.2585C34.7249 11.2867 34.831 11.2933 34.9351 11.2778C35.0391 11.2623 35.1387 11.2251 35.2274 11.1686C35.3161 11.1122 35.3919 11.0377 35.45 10.95C36.0533 10.1027 36.9402 9.49955 37.95 9.25C39.35 8.7 40.725 9.25 41.35 11.325C41.75 12.775 40.625 13.45 39.525 14.25C37.375 15.85 36.825 15.4 34.825 17.25C34.2662 17.7226 33.9031 18.386 33.806 19.1113C33.709 19.8367 33.8851 20.5722 34.3 21.175C36.175 24.5 40.225 24.225 43.7 22.575C44.9847 21.8443 46.342 21.2494 47.75 20.8C49.3414 20.7825 50.9311 20.908 52.5 21.175C52.9889 21.1799 53.4763 21.1211 53.95 21C54.8679 20.7799 55.7232 20.3523 56.45 19.75C57.167 19.1899 57.7553 18.4823 58.175 17.675C58.2239 17.5775 58.2518 17.4707 58.2566 17.3617C58.2614 17.2527 58.2432 17.1439 58.2031 17.0424C58.163 16.9409 58.1019 16.849 58.0238 16.7728C57.9457 16.6966 57.8524 16.6377 57.75 16.6Z" fill="#6E9D3E"/>
<path fill-rule="evenodd" clip-rule="evenodd" d="M58.8 9.65001L52.5 6.30001C50.7 5.20001 49 3.60001 47.2 2.32501C45.8847 1.33291 44.3909 0.602986 42.8 0.175007C41.383 -0.100576 39.9195 -0.0161059 38.5437 0.420677C37.1678 0.857459 35.9236 1.63258 34.925 2.67501C33.5812 3.96797 32.3901 5.41073 31.375 6.97501C30.525 8.30001 31.8 8.97501 32.7 8.02501C33.8575 6.7422 35.0843 5.52371 36.375 4.37501C37.143 3.64591 38.0769 3.1147 39.0961 2.82723C40.1153 2.53976 41.1892 2.50468 42.225 2.72501C43.8411 3.20854 45.357 3.97917 46.7 5.00001C48.2406 6.13785 49.843 7.18946 51.5 8.15001L58.125 11.075C58.3114 11.1632 58.5247 11.1761 58.7203 11.1109C58.9159 11.0457 59.0788 10.9074 59.175 10.725C59.2626 10.532 59.2725 10.3126 59.2027 10.1125C59.1328 9.9123 58.9886 9.7467 58.8 9.65001Z" fill="#6E9D3E"/>
</g>
<defs>
<clipPath id="clip0_1049_7512">
<rect width="60" height="60" fill="white"/>
</clipPath>
</defs>
</svg>
