<svg width="60" height="60" viewBox="0 0 60 60" fill="none" xmlns="http://www.w3.org/2000/svg">
<path fill-rule="evenodd" clip-rule="evenodd" d="M35.65 49.6C40.1884 49.0796 44.5047 47.3531 48.15 44.6C48.2422 44.5376 48.3209 44.4571 48.3812 44.3635C48.4415 44.2699 48.4822 44.165 48.5009 44.0552C48.5196 43.9454 48.5158 43.833 48.4899 43.7247C48.464 43.6163 48.4164 43.5144 48.35 43.425C47.525 42.225 46.95 44.125 41.575 45.925C39.6375 46.5753 37.6172 46.9457 35.575 47.025C22.75 47.775 17.875 46.675 10.925 43.3C10.2 42.675 9.725 44.125 11.075 45.25C20.4 50.8 25.9 50.5 35.65 49.6Z" fill="#6E9D3E"/>
<path fill-rule="evenodd" clip-rule="evenodd" d="M52.65 15C52.65 14.7746 52.5604 14.5584 52.401 14.399C52.2416 14.2396 52.0254 14.15 51.8 14.15C51.5746 14.15 51.3584 14.2396 51.199 14.399C51.0396 14.5584 50.95 14.7746 50.95 15C50.95 15 51.15 32.675 51.15 33.85C51.15 36.5 51.725 48.4 50.175 50.175C45.7 55.375 32.275 59.675 17.875 55.3C15.351 54.606 12.966 53.4811 10.825 51.975C8.325 49.825 8.175 14.475 8.325 11.15C9.77441 12.6642 11.5072 13.8789 13.425 14.725C19.15 17.425 26.85 16.875 33.2 16.65C40.025 16.35 52.775 14.65 52.65 7.85C52.65 4.225 47.15 1.05 43.9 1.1C43.6746 1.1 43.4584 1.18955 43.299 1.34896C43.1396 1.50837 43.05 1.72457 43.05 1.95C43.05 2.17543 43.1396 2.39163 43.299 2.55104C43.4584 2.71045 43.6746 2.8 43.9 2.8C46.4 2.8 50.7 5.475 50.675 7.8C50.675 9.4 49.2 11.05 45.45 12.3C41.4498 13.475 37.2934 14.0314 33.125 13.95C27.65 14.075 19.6 14.45 14.625 12.1C11.45 10.625 8.125 8.75 10.65 6.325C13 5 15 2.775 24.275 2.1C29.6586 1.87028 35.0511 1.95375 40.425 2.35C40.5203 2.37187 40.6191 2.37421 40.7154 2.35689C40.8117 2.33957 40.9035 2.30295 40.9852 2.24923C41.067 2.19551 41.137 2.1258 41.1911 2.0443C41.2452 1.9628 41.2822 1.87119 41.3 1.775C41.5 0.85 40.325 0.775 39.375 0.675C39.125 0.65 28.8 0 24.175 0C21.1433 0.045845 18.1288 0.465685 15.2 1.25C11.825 2.225 6.65 4.6 6.95 8.35C6.2 13.925 6.95 20.725 6.675 24.425C6.30574 32.3224 6.36416 40.2339 6.85 48.125C7.08308 50.7614 8.29627 53.2145 10.25 55C12.2668 56.4908 14.5893 57.5154 17.05 58C32.725 62.8 47.05 58 52.05 51.775C54.475 49 53.425 39.3 52.65 15Z" fill="#6E9D3E"/>
<path fill-rule="evenodd" clip-rule="evenodd" d="M44.55 36.5C46.3959 36.0877 48.1126 35.2293 49.55 34C50.65 32.725 49.55 31.9 48.675 32.5C47.8 33.1 48.425 33.075 43.95 34.45C32.975 37.8 16.45 36.125 10.55 33.125C9.525 32.425 9.225 34.325 10.55 34.975C17.275 38.725 31.675 41.225 44.55 36.5Z" fill="#6E9D3E"/>
<path fill-rule="evenodd" clip-rule="evenodd" d="M19.3 27.5C26.6644 28.3388 34.1125 28.0776 41.4 26.725C43.4699 26.294 45.4547 25.5254 47.275 24.45C47.3849 24.3993 47.4827 24.3258 47.5618 24.2342C47.641 24.1427 47.6997 24.0354 47.734 23.9193C47.7684 23.8033 47.7775 23.6813 47.7609 23.5614C47.7443 23.4415 47.7022 23.3266 47.6376 23.2243C47.573 23.122 47.4873 23.0347 47.3862 22.9681C47.2851 22.9016 47.171 22.8575 47.0515 22.8386C46.9319 22.8197 46.8098 22.8266 46.6931 22.8587C46.5764 22.8909 46.468 22.9476 46.375 23.025C41.7 25.725 32.725 25.175 28.875 25.075C23.575 25.075 15.675 26.475 10.3 22.275C9.22501 22 9.40001 23.4 10.125 24.325C12.65 26.55 15.9 26.8 19.3 27.5Z" fill="#6E9D3E"/>
</svg>
