<svg width="60" height="60" viewBox="0 0 60 60" fill="none" xmlns="http://www.w3.org/2000/svg">
<g clip-path="url(#clip0_1046_5828)">
<path d="M35.375 44.175C35.1737 44.1749 34.9803 44.2531 34.8356 44.3931C34.691 44.5331 34.6065 44.7238 34.6 44.925V46.85C30.7 46.675 26.8 46.275 22.925 46.025C20.2 45.875 17.5 45.725 15 45.75C11.0566 45.8307 7.123 46.1732 3.225 46.775C2.95 40.875 2.8 32.3 2.925 24.425C2.925 15.375 3.35 7.25 4.55 5.325C4.775 4.975 5.45 4.775 6.325 4.5C8.4137 3.95709 10.5475 3.60564 12.7 3.45C17.4064 3.0104 22.1436 3.0104 26.85 3.45C28.1418 3.57971 29.421 3.81381 30.675 4.15C31.55 4.4 32.225 4.625 32.45 5C32.5997 5.32511 32.7008 5.67047 32.75 6.025C32.9013 6.65147 33.0181 7.28575 33.1 7.925C33.137 8.1504 33.2583 8.3533 33.4394 8.49257C33.6204 8.63184 33.8477 8.69705 34.075 8.675C34.2986 8.63801 34.4991 8.51571 34.6343 8.33385C34.7695 8.152 34.8289 7.92477 34.8 7.7C34.7137 6.85982 34.5802 6.02517 34.4 5.2C34.3422 4.78656 34.2065 4.38784 34 4.025C33.4905 3.30118 32.7499 2.7722 31.9 2.525C30.3438 2.06029 28.7436 1.75866 27.125 1.625C21.4425 0.917562 15.6991 0.842102 10 1.4C7.95743 1.55244 5.94626 1.99002 4.025 2.7C3.41569 2.98711 2.89051 3.42619 2.5 3.975C1.125 6 0.25 14.675 -3.19444e-07 24.375C-0.2 37.5 0.575 52.325 1.35 54.675C1.69071 55.369 2.17778 55.9809 2.77768 56.4686C3.37758 56.9563 4.07605 57.3082 4.825 57.5C9.31829 58.7184 13.9749 59.2245 18.625 59C23.2418 59.0281 27.836 58.3537 32.25 57C33.5331 56.6183 34.6566 55.8283 35.45 54.75C35.7823 53.7324 35.9593 52.6704 35.975 51.6C35.975 49.95 36.125 47.675 36.125 45C36.1355 44.8954 36.1239 44.7897 36.091 44.6899C36.058 44.5901 36.0044 44.4983 35.9337 44.4205C35.863 44.3427 35.7767 44.2806 35.6805 44.2384C35.5842 44.1961 35.4801 44.1745 35.375 44.175ZM33.95 53.8C33.3399 54.51 32.5148 55.0016 31.6 55.2C27.3678 56.3565 22.9843 56.8623 18.6 56.7C14.2457 56.8129 9.90077 56.2392 5.725 55C4.825 54.65 4.1 54.375 3.925 53.875C3.57999 52.0941 3.37934 50.2882 3.325 48.475C6.8 48.475 10.225 48.475 13.625 48.625L21.425 48.825C25.8083 48.825 30.1583 48.75 34.475 48.6V50.55C34.4273 51.6501 34.2511 52.7408 33.95 53.8Z" fill="#6E9D3E"/>
<path d="M33.35 11.7C30.9544 11.3953 28.5393 11.27 26.125 11.325C20.2781 11.1064 14.4232 11.3908 8.625 12.175C7.475 12.425 7.225 13.025 7.125 13.325C6.70062 14.958 6.48226 16.6378 6.475 18.325C6.40957 19.3873 6.52798 20.453 6.825 21.475C6.94694 21.8744 7.18127 22.2302 7.5 22.5C9.76192 23.0931 12.0869 23.412 14.425 23.45C19.875 23.8 27.125 24 29.675 24.05C30.9202 24.0957 32.1669 24.0288 33.4 23.85C34.2245 23.7376 34.9799 23.3288 35.525 22.7C35.7833 22.3494 35.9391 21.934 35.975 21.5C36.1132 19.8362 36.1132 18.1638 35.975 16.5C35.9182 15.4625 35.7248 14.437 35.4 13.45C35.2354 12.9967 34.9705 12.5865 34.625 12.25C34.2471 11.9726 33.8111 11.7846 33.35 11.7ZM33.175 20.875C33.175 20.875 32.45 21.025 32.1 21.05H29.75H14.6C12.5953 21.1006 10.5897 21.0003 8.6 20.75C8.50307 20.5614 8.43562 20.3591 8.4 20.15C8.25312 19.5188 8.17765 18.8731 8.175 18.225C8.12488 16.8774 8.21705 15.5283 8.45 14.2C8.4622 14.0753 8.4622 13.9497 8.45 13.825C9.45 13.575 16.925 13.525 23.45 13.675C26.675 13.675 29.65 13.925 31.55 14.175C32.15 14.175 32.925 14.35 32.925 14.35V15.65C33.1118 17.3852 33.1952 19.1299 33.175 20.875Z" fill="#6E9D3E"/>
<path d="M41 30.125C40.843 29.6752 40.5767 29.2714 40.225 28.95C39.8254 28.6833 39.3738 28.5044 38.9 28.425C36.515 28.0947 34.1069 27.9609 31.7 28.025C19.5 28.025 15.625 28.375 14.05 28.9C12.975 29.25 12.725 29.75 12.65 30.025C12.2302 31.6595 12.0037 33.3377 11.975 35.025C11.9175 36.0805 12.0444 37.138 12.35 38.15C12.4984 38.5694 12.7792 38.9292 13.15 39.175C15.3921 39.723 17.6919 40 20 40C25.45 40.375 32.725 40.575 35.275 40.625C36.5128 40.6754 37.7525 40.6 38.975 40.4C39.8016 40.2892 40.5627 39.8909 41.125 39.275C41.3669 38.9065 41.5209 38.4874 41.575 38.05C41.7132 36.3862 41.7132 34.7138 41.575 33.05C41.5054 32.0549 41.3122 31.0724 41 30.125ZM38.75 37.5H38.625C38.322 37.5788 38.0123 37.6291 37.7 37.65H35.35H20.175C18.1743 37.7673 16.1673 37.7171 14.175 37.5C14.0746 37.3105 13.999 37.1088 13.95 36.9C13.813 36.276 13.7459 35.6388 13.75 35C13.7821 33.5287 13.8906 32.06 14.075 30.6C15.075 30.375 22.55 30.3 29.075 30.45C32.3 30.45 36.3 30.775 38.2 30.9C38.575 30.9 38.55 32.075 38.6 32.45C38.8179 34.1241 38.8681 35.8159 38.75 37.5Z" fill="#6E9D3E"/>
<path d="M40.375 16.05C41.3215 16.3095 42.2812 16.5181 43.25 16.675C43.6574 16.7131 44.0676 16.7131 44.475 16.675C44.8829 16.7006 45.2921 16.7006 45.7 16.675C46.8 16.525 47.775 16.3 48.575 16.175C48.8071 16.175 49.0296 16.0828 49.1937 15.9187C49.3578 15.7546 49.45 15.5321 49.45 15.3C49.4435 15.0723 49.3484 14.8561 49.185 14.6974C49.0216 14.5387 48.8028 14.4499 48.575 14.45C47.775 14.3 46.8 14.075 45.7 13.95C44.8711 13.8286 44.0289 13.8286 43.2 13.95C42.2312 14.1069 41.2715 14.3155 40.325 14.575C40.1261 14.575 39.9353 14.654 39.7947 14.7947C39.654 14.9353 39.575 15.1261 39.575 15.325C39.575 15.5239 39.654 15.7147 39.7947 15.8553C39.9353 15.996 40.1261 16.075 40.325 16.075L40.375 16.05Z" fill="#6E9D3E"/>
<path d="M51.625 33.05C52.475 32.925 53.2 32.7 53.85 32.55C54.0754 32.55 54.2916 32.4604 54.451 32.301C54.6104 32.1416 54.7 31.9254 54.7 31.7C54.7 31.4746 54.6104 31.2584 54.451 31.0989C54.2916 30.9395 54.0754 30.85 53.85 30.85C53.2 30.7 52.475 30.475 51.625 30.325C51.3005 30.3002 50.9745 30.3002 50.65 30.325C50.3345 30.2868 50.0155 30.2868 49.7 30.325C48.9449 30.482 48.2014 30.6908 47.475 30.95C47.2761 30.95 47.0853 31.029 46.9447 31.1697C46.804 31.3103 46.725 31.5011 46.725 31.7C46.725 31.8989 46.804 32.0897 46.9447 32.2303C47.0853 32.371 47.2761 32.45 47.475 32.45C48.2014 32.7091 48.9449 32.918 49.7 33.075C50.0161 33.1007 50.3339 33.1007 50.65 33.075C50.9752 33.0913 51.3011 33.0829 51.625 33.05Z" fill="#6E9D3E"/>
<path d="M50 22.5C51.8 22.5 53.6 22.125 55.4 21.925C55.6254 21.925 55.8416 21.8354 56.001 21.676C56.1604 21.5166 56.25 21.3004 56.25 21.075C56.25 20.8496 56.1604 20.6334 56.001 20.474C55.8416 20.3145 55.6254 20.225 55.4 20.225C53.6 20 51.8 19.625 50 19.525C49.2842 19.475 48.5658 19.475 47.85 19.525C47.3648 19.5407 46.8808 19.5825 46.4 19.65C45.825 19.65 44.9 19.925 44.05 20C43.62 20.0757 43.18 20.0757 42.75 20C42.6581 19.9606 42.5593 19.9397 42.4593 19.9385C42.3593 19.9373 42.26 19.9557 42.1672 19.9929C42.0743 20.03 41.9897 20.0851 41.9181 20.155C41.8465 20.2248 41.7894 20.3081 41.75 20.4C41.7106 20.4919 41.6897 20.5907 41.6885 20.6907C41.6873 20.7907 41.7057 20.89 41.7429 20.9828C41.78 21.0757 41.8351 21.1603 41.905 21.2319C41.9748 21.3035 42.0581 21.3606 42.15 21.4C42.5919 21.6182 43.0637 21.7698 43.55 21.85C44.525 22.075 45.7 22.15 46.4 22.25C47.1 22.35 47.35 22.25 47.85 22.4C48.5644 22.4708 49.2821 22.5042 50 22.5Z" fill="#6E9D3E"/>
<path d="M59.15 36.3C58.3 36.15 57.3 35.925 56.225 35.8C55.8087 35.7751 55.3913 35.7751 54.975 35.8C54.5592 35.7621 54.1408 35.7621 53.725 35.8C52.625 35.95 51.65 36.25 50.8 36.425C50.6214 36.4575 50.4599 36.5516 50.3436 36.6909C50.2273 36.8303 50.1636 37.006 50.1636 37.1875C50.1636 37.369 50.2273 37.5448 50.3436 37.6841C50.4599 37.8234 50.6214 37.9175 50.8 37.95C51.65 38.125 52.625 38.425 53.725 38.575C54.1413 38.6006 54.5587 38.6006 54.975 38.575H56.225C57.3 38.45 58.3 38.225 59.15 38.075C59.3536 38.0402 59.5383 37.9346 59.6714 37.7767C59.8046 37.6189 59.8776 37.419 59.8776 37.2125C59.8776 37.006 59.8046 36.8061 59.6714 36.6483C59.5383 36.4905 59.3536 36.3848 59.15 36.35V36.3Z" fill="#6E9D3E"/>
</g>
<defs>
<clipPath id="clip0_1046_5828">
<rect width="60" height="60" fill="white"/>
</clipPath>
</defs>
</svg>
