<svg width="60" height="60" viewBox="0 0 60 60" fill="none" xmlns="http://www.w3.org/2000/svg">
<g clip-path="url(#clip0_1035_4850)">
<path fill-rule="evenodd" clip-rule="evenodd" d="M45.275 34.25C45.6435 34.0511 46.0562 33.9479 46.475 33.95C46.75 33.95 47.075 33.95 47.2 34.175C47.2332 34.2662 47.2844 34.3498 47.3506 34.4208C47.4167 34.4918 47.4965 34.5489 47.5851 34.5885C47.6737 34.6281 47.7693 34.6496 47.8664 34.6515C47.9634 34.6535 48.0599 34.636 48.15 34.6C48.2403 34.5695 48.3234 34.5208 48.3942 34.4571C48.465 34.3933 48.5221 34.3157 48.5619 34.2291C48.6017 34.1425 48.6234 34.0487 48.6256 33.9534C48.6279 33.8581 48.6106 33.7634 48.575 33.675C48.4648 33.3385 48.2683 33.0367 48.0051 32.7998C47.7419 32.563 47.4212 32.3992 47.075 32.325C46.2582 32.0902 45.3918 32.0902 44.575 32.325C43.7769 32.5307 43.042 32.9304 42.4358 33.4887C41.8295 34.047 41.3706 34.7465 41.1 35.525C40.9332 36.1094 40.8961 36.7231 40.9911 37.3233C41.0861 37.9235 41.3109 38.4957 41.65 39C42.2621 39.9519 43.128 40.7138 44.15 41.2C45.2222 41.7554 46.4684 41.872 47.625 41.525C48.2789 41.306 48.8738 40.9396 49.3636 40.4541C49.8535 39.9686 50.2252 39.377 50.45 38.725C50.6607 38.0697 50.6735 37.3667 50.4867 36.7042C50.2999 36.0416 49.9219 35.4488 49.4 35C49.3228 34.9229 49.2312 34.8617 49.1304 34.8199C49.0296 34.7781 48.9216 34.7567 48.8125 34.7567C48.7034 34.7567 48.5953 34.7781 48.4945 34.8199C48.3937 34.8617 48.3021 34.9229 48.225 35C48.1478 35.0772 48.0866 35.1687 48.0449 35.2695C48.0031 35.3704 47.9816 35.4784 47.9816 35.5875C47.9816 35.6966 48.0031 35.8047 48.0449 35.9055C48.0866 36.0063 48.1478 36.0979 48.225 36.175C48.4335 36.4317 48.5614 36.7443 48.5926 37.0735C48.6237 37.4027 48.5567 37.7338 48.4 38.025C48.2486 38.319 48.0328 38.575 47.7688 38.7741C47.5048 38.9732 47.1993 39.1103 46.875 39.175C46.3301 39.2389 45.7804 39.1059 45.325 38.8C44.7773 38.4899 44.3204 38.0417 44 37.5C43.8158 37.272 43.6937 37.0003 43.6455 36.7112C43.5973 36.4221 43.6247 36.1254 43.725 35.85C44.0334 35.1482 44.5834 34.5805 45.275 34.25Z" fill="#6E9D3E"/>
<path fill-rule="evenodd" clip-rule="evenodd" d="M52.925 13.125C47.9564 12.243 42.8649 12.3193 37.925 13.35C37.7327 13.35 37.5483 13.4264 37.4123 13.5623C37.2764 13.6983 37.2 13.8827 37.2 14.075C37.2 14.2673 37.2764 14.4517 37.4123 14.5877C37.5483 14.7236 37.7327 14.8 37.925 14.8C42.8992 15.518 47.9508 15.518 52.925 14.8C53.1223 14.7658 53.3012 14.663 53.4301 14.5098C53.5591 14.3566 53.6298 14.1628 53.6298 13.9625C53.6298 13.7623 53.5591 13.5684 53.4301 13.4152C53.3012 13.262 53.1223 13.1592 52.925 13.125Z" fill="#6E9D3E"/>
<path fill-rule="evenodd" clip-rule="evenodd" d="M53.075 22.5C49.8244 21.6608 46.404 21.7474 43.2 22.75C43.0277 22.7819 42.8719 22.8731 42.7598 23.0078C42.6477 23.1425 42.5864 23.3122 42.5864 23.4875C42.5864 23.6628 42.6477 23.8325 42.7598 23.9672C42.8719 24.1019 43.0277 24.1931 43.2 24.225C46.4192 25.0124 49.7808 25.0124 53 24.225C53.2288 24.2349 53.4521 24.1536 53.6209 23.9989C53.7897 23.8442 53.8901 23.6288 53.9 23.4C53.9099 23.1713 53.8286 22.9479 53.6739 22.7791C53.5192 22.6104 53.3038 22.5099 53.075 22.5Z" fill="#6E9D3E"/>
<path fill-rule="evenodd" clip-rule="evenodd" d="M24.3 47.1C28.55 47.1 32.375 46.875 34.6 46.725C37.325 46.5 38.525 47.1 39.275 39.225C39.8786 32.8836 39.9455 26.5026 39.475 20.15C39.3532 19.2096 38.9325 18.3332 38.275 17.65C34.325 14.6 7.5 16.425 3.875 17.2C3.753 17.2058 3.63369 17.2379 3.52519 17.2939C3.41669 17.35 3.32155 17.4288 3.24624 17.525C3.17094 17.6211 3.11725 17.7324 3.08882 17.8512C3.06039 17.97 3.05789 18.0935 3.08149 18.2133C3.1051 18.3331 3.15425 18.4465 3.2256 18.5456C3.29695 18.6447 3.38883 18.7273 3.49497 18.7877C3.60111 18.8482 3.71903 18.885 3.84069 18.8957C3.96236 18.9065 4.08491 18.8909 4.2 18.85C7.875 18.15 33.775 17.175 36.7 19.6C36.7 19.6 36.7 19.9 36.85 20.15C37.575 23.1 36.85 35.15 36.5 38.3C36.3564 38.1227 36.1509 38.0065 35.925 37.975C25.4583 37.0254 14.9185 37.2434 4.5 38.625C4.32766 38.6569 4.17192 38.7481 4.05983 38.8828C3.94773 39.0175 3.88636 39.1872 3.88636 39.3625C3.88636 39.5378 3.94773 39.7075 4.05983 39.8422C4.17192 39.9769 4.32766 40.0681 4.5 40.1C7.6 40.1 12.2 40.275 17 40.25C23.875 40.25 33.4 39.475 35.65 39.625C35.7625 39.6394 35.8767 39.629 35.9847 39.5944C36.0927 39.5599 36.1918 39.502 36.275 39.425C36.1714 40.935 35.8946 42.4282 35.45 43.875C34.3 43.875 12.95 45.025 4.425 44.25C3.5 44.25 2.65 43.65 2.4 43.85C1.525 41.625 2.175 21.85 2.325 19.7C2.39993 19.5175 2.39997 19.3129 2.3251 19.1304C2.25023 18.9479 2.10649 18.8023 1.925 18.725C1.8015 18.7038 1.67497 18.7078 1.55309 18.737C1.43122 18.7661 1.31653 18.8197 1.216 18.8946C1.11547 18.9694 1.03119 19.0638 0.968274 19.1722C0.905358 19.2806 0.865118 19.4006 0.849996 19.525C0.599996 21.275 -0.0250038 34.525 -3.80726e-06 39.725C0.0249962 44.925 0.224996 45.8 2.875 46.3C6.81058 46.8359 10.7781 47.1032 14.75 47.1C14.0698 49.047 13.6331 51.0707 13.45 53.125C13.588 53.4808 13.8226 53.7909 14.1274 54.0206C14.4321 54.2503 14.795 54.3903 15.175 54.425C29.55 56.275 25.675 53.525 24.35 47.2C24.3242 47.1721 24.3068 47.1374 24.3 47.1ZM15.825 51.925C15.7684 50.4414 15.8858 48.9563 16.175 47.5C16.35 46.925 14.875 47.225 22.7 47.15C22.55 47.675 23.275 50.85 23.375 52.15C22.5 52.225 18.525 51.925 15.825 51.925Z" fill="#6E9D3E"/>
<path fill-rule="evenodd" clip-rule="evenodd" d="M58.85 8.375C57.35 3.975 43.55 4.9 39.3 5.625C33.525 6.625 31.65 6.825 31.8 12.55C31.8 12.8 31.8 13.9 32.125 14.15C32.2253 14.2643 32.357 14.3466 32.5037 14.3866C32.6504 14.4266 32.8056 14.4226 32.95 14.375C33.95 14.125 33.1 13.6 33.425 10.9C33.75 8.2 34.4 8.225 39.675 7.5C43.4 7 52.175 6.95 55.55 8.475C56 8.675 56.375 8.85 56.475 9.15C58.05 14.15 56.825 31.275 56.85 39.85C56.85 41.6 56.85 44.425 56.675 46.9C56.2 51.1 55.525 50.95 54.175 51.275C50.15 52.225 37.45 52.6 35 50.3C34.835 50.1824 34.6335 50.1276 34.4316 50.1455C34.2298 50.1633 34.041 50.2527 33.8993 50.3975C33.7575 50.5422 33.6721 50.7329 33.6585 50.935C33.6449 51.1372 33.7039 51.3375 33.825 51.5C36.75 54.4 49.975 54.425 54.675 53.475C57.175 52.975 58.275 52.15 59 48.475C59.4311 45.6294 59.6234 42.7527 59.575 39.875C59.45 31.175 61.025 14.8 58.85 8.375Z" fill="#6E9D3E"/>
</g>
<defs>
<clipPath id="clip0_1035_4850">
<rect width="60" height="60" fill="white"/>
</clipPath>
</defs>
</svg>
