<svg width="60" height="60" viewBox="0 0 60 60" fill="none" xmlns="http://www.w3.org/2000/svg">
<path fill-rule="evenodd" clip-rule="evenodd" d="M25 48.625C5.94999 48.925 14.05 48.925 5.72499 47.95C4.47499 47.8 3.89999 46.875 3.54999 45.75C2.89999 43.65 3.07499 43.25 3.37499 21.925C3.0236 17.6863 3.19995 13.4203 3.89999 9.22501C4.59999 6.55001 3.87499 5.67501 7.49999 5.75001C7.49999 6.62501 7.24999 10 7.32499 10.475C7.57499 12.425 9.47499 12.125 10.225 12.325C14.1 13.275 15.55 10.35 15.225 6.27501C16.4289 6.67369 17.7221 6.71708 18.95 6.40001C18.95 6.67501 18.725 9.92501 18.775 10.375C19.025 12.3 20.9 12.025 21.675 12.225C25.5 13.125 26.95 10.325 26.675 6.32501C28.4 6.85001 28.525 6.75001 31.1 6.17501C31.1 6.45001 30.9 9.70001 30.95 10.025C30.967 10.3994 31.1056 10.7581 31.3446 11.0468C31.5837 11.3355 31.9103 11.5385 32.275 11.625C36.375 12.725 38.75 11.625 38.9 7.20001C39.7371 7.22437 40.572 7.29951 41.4 7.42501C42.05 7.42501 42.55 7.65001 42.6 8.15001L43.55 25.875C43.55 26.0739 43.629 26.2647 43.7697 26.4053C43.9103 26.546 44.1011 26.625 44.3 26.625C44.4989 26.625 44.6897 26.546 44.8303 26.4053C44.971 26.2647 45.05 26.0739 45.05 25.875C46.1618 19.8829 46.1448 13.7359 45 7.75001C44.4 5.10001 41.65 5.25001 38.925 5.42501C38.8123 3.8902 38.4403 2.38558 37.825 0.975012C37.4569 0.637167 37.0238 0.377923 36.5521 0.213123C36.0805 0.0483229 35.5802 -0.0185722 35.0818 0.0165256C34.5834 0.0516233 34.0974 0.187977 33.6535 0.417253C33.2096 0.64653 32.8171 0.963915 32.5 1.35001C32.0003 2.10947 31.6523 2.95839 31.475 3.85001C29.8065 3.471 28.062 3.61056 26.475 4.25001C26.3725 3.20739 26.0846 2.19144 25.625 1.25001C25.2516 0.91241 24.8128 0.655123 24.3358 0.494106C23.8589 0.333088 23.354 0.271775 22.8523 0.313967C22.3507 0.35616 21.8631 0.500959 21.4197 0.739385C20.9764 0.977811 20.5868 1.30478 20.275 1.70001C19.8485 2.36597 19.5438 3.10242 19.375 3.87501C17.9132 3.60099 16.4052 3.71302 15 4.20001C14.888 3.23891 14.5999 2.30667 14.15 1.45001C13.7865 1.01553 13.3056 0.694904 12.7647 0.526439C12.2238 0.357975 11.6459 0.348801 11.1 0.500012C9.07499 0.825012 8.29999 2.22501 7.84999 4.20001C6.48146 3.96833 5.07474 4.19692 3.84999 4.85001C2.49999 5.72501 2.49999 7.50001 2.12499 8.72501C1.13267 13.0519 0.695816 17.4877 0.824988 21.925C0.349988 33.9 0.449988 30 0.299988 39.025C0.299988 43.875 0.299988 50.075 5.52499 50.475C14.075 51.1 5.84999 51.425 25.1 50.325C25.2116 50.3184 25.3208 50.29 25.4215 50.2412C25.5221 50.1924 25.6121 50.1243 25.6864 50.0407C25.7607 49.9571 25.8178 49.8597 25.8544 49.7541C25.8911 49.6485 25.9066 49.5366 25.9 49.425C25.8934 49.3134 25.8649 49.2042 25.8162 49.1035C25.7674 49.0029 25.6992 48.9129 25.6157 48.8386C25.5321 48.7643 25.4347 48.7072 25.3291 48.6706C25.2234 48.6339 25.1116 48.6184 25 48.625ZM33.7 4.50001C33.9 0.675012 36.2 1.62501 36.4 2.37501C36.747 4.25077 36.747 6.17426 36.4 8.05001C35.975 9.45001 35.275 9.12501 33.9 9.07501C33.975 7.50001 33.575 6.47501 33.7 4.50001ZM21.95 2.67501C22.45 1.67501 23.925 2.35001 24.15 2.27501C24.5389 4.29816 24.5389 6.37686 24.15 8.40001C23.925 9.17501 23.475 9.72501 22.5 9.42501H21.55C21.6203 9.17104 21.6705 8.91189 21.7 8.65001C21.373 6.66225 21.4581 4.62851 21.95 2.67501ZM10.475 2.80001C10.975 1.77501 12.5 2.50001 12.675 2.50001C13.0639 4.52316 13.0639 6.60186 12.675 8.62501C12.45 9.37501 12 9.92501 11.025 9.62501H10.075C10.075 9.32501 10.25 8.97501 10.25 8.85001C9.89 6.84056 9.96674 4.77717 10.475 2.80001Z" fill="#6E9D3E"/>
<path fill-rule="evenodd" clip-rule="evenodd" d="M35.475 21.1C35.6723 20.9343 35.7981 20.6988 35.826 20.4426C35.854 20.1864 35.782 19.9294 35.625 19.725C35.075 18.925 21.125 17.75 14.325 18.175C6.82498 18.675 7.74998 19.95 8.99998 20.25C11.65 21.05 35.425 21.15 35.475 21.1Z" fill="#6E9D3E"/>
<path fill-rule="evenodd" clip-rule="evenodd" d="M27.5 29.025C26.7 28.825 20.5 28.5 19.3 28.5C18.1 28.5 9.49999 28.75 9.29999 29.7C9.27711 29.8088 9.2787 29.9213 9.30465 30.0294C9.33059 30.1375 9.38023 30.2385 9.44999 30.325C10.9943 30.8983 12.6277 31.1945 14.275 31.2C18.6837 31.5073 23.1117 31.3985 27.5 30.875C28.525 30.875 28.85 29.375 27.5 29.025Z" fill="#6E9D3E"/>
<path fill-rule="evenodd" clip-rule="evenodd" d="M9.79999 41C13.6394 41.8507 17.6118 41.9102 21.475 41.175C21.6338 41.0157 21.7229 40.7999 21.7229 40.575C21.7229 40.3501 21.6338 40.1343 21.475 39.975C19.0563 39.182 16.5195 38.81 13.975 38.875C8.22499 39.125 7.12499 40.425 9.79999 41Z" fill="#6E9D3E"/>
<path fill-rule="evenodd" clip-rule="evenodd" d="M56.275 36.4C54.7835 34.6285 52.8978 33.231 50.769 32.3196C48.6402 31.4081 46.3274 31.0081 44.0161 31.1515C41.7048 31.2949 39.4592 31.9777 37.4594 33.1453C35.4595 34.3129 33.761 35.9327 32.5 37.875C28.3 44.075 30.475 53.2 34.675 55.875C34.7575 55.9502 34.8553 56.0067 34.9616 56.0406C35.068 56.0745 35.1804 56.085 35.2912 56.0714C35.402 56.0578 35.5086 56.0205 35.6036 55.9619C35.6987 55.9034 35.7799 55.8249 35.8418 55.7321C35.9038 55.6392 35.9449 55.534 35.9624 55.4238C35.9799 55.3135 35.9734 55.2008 35.9433 55.0933C35.9132 54.9858 35.8603 54.8861 35.7881 54.8009C35.7159 54.7158 35.6261 54.6472 35.525 54.6C32.2 52.275 30.7 44.275 34.475 39.275C35.5691 37.748 36.9933 36.4872 38.6418 35.5864C40.2902 34.6856 42.1205 34.1679 43.9966 34.0718C45.8727 33.9757 47.7463 34.3037 49.4781 35.0314C51.21 35.7591 52.7556 36.8678 54 38.275C60.2 45.6 56.5 56.675 45.65 57.95C43.6573 58.2285 41.6281 58.0751 39.7 57.5C39.59 57.4639 39.474 57.4498 39.3586 57.4585C39.2431 57.4672 39.1305 57.4986 39.0272 57.5508C38.9239 57.6031 38.8319 57.6751 38.7565 57.7629C38.681 57.8507 38.6236 57.9525 38.5875 58.0625C38.5514 58.1725 38.5373 58.2885 38.546 58.4039C38.5547 58.5194 38.5861 58.6319 38.6383 58.7352C38.6906 58.8385 38.7626 58.9306 38.8504 59.006C38.9382 59.0815 39.04 59.1389 39.15 59.175C41.3067 59.8888 43.5905 60.136 45.85 59.9C48.5463 59.8425 51.1704 59.0183 53.4154 57.5239C55.6605 56.0295 57.4335 53.9266 58.5271 51.4614C59.6207 48.9962 59.9897 46.2705 59.5909 43.6033C59.192 40.936 58.0419 38.4375 56.275 36.4Z" fill="#6E9D3E"/>
<path fill-rule="evenodd" clip-rule="evenodd" d="M43.6 47.5C43.767 49.3463 43.767 51.2038 43.6 53.05C43.5304 53.2721 43.5518 53.5128 43.6597 53.7191C43.7675 53.9254 43.9529 54.0804 44.175 54.15C44.3971 54.2196 44.6378 54.1982 44.8441 54.0903C45.0504 53.9825 45.2054 53.7971 45.275 53.575C45.9552 51.5908 46.3508 49.5202 46.45 47.425C48.2555 47.2831 50.0694 47.2831 51.875 47.425C51.9883 47.4496 52.1053 47.4517 52.2193 47.4311C52.3334 47.4105 52.4423 47.3677 52.5398 47.305C52.6373 47.2423 52.7215 47.161 52.7876 47.0658C52.8537 46.9706 52.9004 46.8633 52.925 46.75C52.9496 46.6368 52.9517 46.5198 52.9311 46.4057C52.9105 46.2916 52.8676 46.1827 52.805 46.0852C52.7423 45.9877 52.661 45.9035 52.5658 45.8374C52.4706 45.7713 52.3633 45.7246 52.25 45.7C50.5455 45.1472 48.7846 44.7867 47 44.625C46.375 44.625 46.55 44.625 46.525 44.3C46.3574 42.346 46.0904 40.4019 45.725 38.475C45.725 38.475 45.725 37 45.1 36.9C44.475 36.8 44.025 37.225 44.15 38.475C43.875 41.975 43.725 41.6 43.6 44.6C41.469 44.7753 39.3688 45.2205 37.35 45.925C37.248 45.941 37.1502 45.9773 37.0624 46.0316C36.9746 46.0859 36.8985 46.1572 36.8386 46.2414C36.7788 46.3255 36.7363 46.4208 36.7138 46.5215C36.6912 46.6223 36.6891 46.7266 36.7074 46.8282C36.7257 46.9298 36.7642 47.0268 36.8205 47.1133C36.8768 47.1999 36.9498 47.2743 37.0353 47.3322C37.1208 47.3902 37.217 47.4304 37.3183 47.4506C37.4195 47.4709 37.5238 47.4707 37.625 47.45C39.3 47.225 40.75 47.35 43.6 47.5Z" fill="#6E9D3E"/>
</svg>
