<svg width="60" height="60" viewBox="0 0 60 60" fill="none" xmlns="http://www.w3.org/2000/svg">
<g clip-path="url(#clip0_1034_4363)">
<path d="M29.425 33.575C29.817 33.5429 30.1857 33.3758 30.4684 33.1023C30.751 32.8288 30.93 32.4657 30.975 32.075C31.1821 26.2408 31.0903 20.3998 30.7 14.575C30.4 13.925 30.7 13.925 29.8 13.375C28 12.25 15.85 8.47499 14.425 9.99999C13.175 13.225 13.725 26.925 13.9 27.5C14.55 29.575 26.725 34.025 29.425 33.575ZM15.525 11.375H16.4C20.4867 12.1797 24.4819 13.3942 28.325 15C28.325 15.6 28.95 15.3 28.325 30.75C24.0391 29.8833 19.8866 28.4543 15.975 26.5C15.95 26.35 15.375 18.225 15.525 11.375Z" fill="#6E9D3E"/>
<path d="M41.25 10.25C41.25 10.45 42.375 24.35 42.25 25.25C42.25 25.25 38.15 27.925 37.425 28.3C35.35 29.425 32.85 30.5 31.95 30.8C31.45 31.4 31.375 32.55 32.675 32.2C36.4038 31.0198 39.979 29.4 43.325 27.375C44.5579 27.6152 45.7765 27.924 46.975 28.3C51.4 29.45 53.45 29.025 53.975 29.425C54.725 30.25 57.625 28.55 50.925 26.375C48.9117 25.7934 46.8195 25.5319 44.725 25.6C44.9447 20.0858 44.5844 14.5638 43.65 9.12496C43.6106 8.89185 43.5257 8.66878 43.4001 8.46849C43.2745 8.26821 43.1107 8.09462 42.918 7.95765C42.7253 7.82068 42.5076 7.72301 42.2771 7.67021C42.0467 7.61742 41.8081 7.61054 41.575 7.64996C38.0249 8.60027 34.6491 10.1109 31.575 12.125C30.975 12.825 31.075 13.725 31.925 13.8C34.8769 12.2407 38.0085 11.0485 41.25 10.25Z" fill="#6E9D3E"/>
<path d="M8.85 30.975C10.2963 30.4285 11.666 29.6974 12.925 28.8C13.0914 28.7364 13.2298 28.6158 13.3154 28.4595C13.401 28.3033 13.4281 28.1217 13.392 27.9473C13.3559 27.7729 13.2589 27.617 13.1184 27.5075C12.9779 27.3981 12.803 27.3422 12.625 27.35C7.625 27.35 4.3 30.55 4.9 31.625C5.5 32.7 7.05 31.6 8.85 30.975Z" fill="#6E9D3E"/>
<path d="M18.65 8.79998C20.375 7.97498 27.95 5.49998 28.15 5.44998C31.6991 5.65749 35.2265 6.1423 38.7 6.89998C38.8326 7.03921 39.0151 7.12007 39.2073 7.12476C39.3995 7.12945 39.5858 7.05758 39.725 6.92498C39.8642 6.79237 39.9451 6.60988 39.9498 6.41765C39.9545 6.22543 39.8826 6.03921 39.75 5.89998C35.9427 3.97243 31.7642 2.88943 27.5 2.72498C24.4664 3.74491 21.5366 5.05078 18.75 6.62498C17.775 7.14998 16.1 7.99998 16.5 9.12498C16.9 10.25 18.325 8.94998 18.65 8.79998Z" fill="#6E9D3E"/>
<path d="M46.3 53.5C46.5037 47.9724 46.3784 42.4377 45.925 36.925C45.925 36.25 45.925 36.25 45.025 35.75C43.2 34.8 30.925 32.575 29.525 34.1C29.375 34.45 29.075 33.525 28.925 39.1C28.725 46.775 28.925 49.425 29.85 50.8C31.675 52.35 41.825 56.65 44.65 55.975C45.375 55.85 46.375 55.95 46.3 53.5ZM43.5 53.225C39.9471 52.5133 36.4783 51.4325 33.15 50C32.5286 49.8023 31.9192 49.5686 31.325 49.3C30.767 44.6971 30.5331 40.0607 30.625 35.425C30.85 34.525 42.325 37 43.575 37.725C43.925 40.15 43.55 52.3 43.5 53.225Z" fill="#6E9D3E"/>
<path d="M25.4 51.05C24.275 51.55 23.075 52.175 22 52.75C20.35 53.625 20.15 53.75 19.5 54.025C18.175 54.875 17.5 56.225 19.5 56.225C22.4712 55.5014 25.2845 54.2388 27.8 52.5C29.375 50.725 29.025 49.275 27.8 50L25.4 51.05Z" fill="#6E9D3E"/>
<path d="M17.65 53.775C17.725 50 17.5 40 17.5 38.65C17.4067 38.1927 17.178 37.7741 16.8436 37.4487C16.5092 37.1232 16.0846 36.9059 15.625 36.825C13.675 36.5 2.5 32.35 0.924999 33.975L0.574999 35C-0.475001 36.075 0.174999 50.675 0.424999 51.45C0.974999 53.225 9.4 56.1 11.175 56.65C12.7954 57.1332 14.4863 57.3361 16.175 57.25C16.4946 57.228 16.798 57.1008 17.0377 56.8882C17.2774 56.6757 17.44 56.3897 17.5 56.075C17.5 55.55 17.65 53.775 17.65 53.775ZM14.8 54.7C11.2447 53.9627 7.7759 52.8568 4.45 51.4C3.525 51 2.225 50.725 2.5 50.425C2.53108 50.1174 2.53108 49.8075 2.5 49.5C2.5 49.5 1.15 35 2.925 35.275C7.01264 36.0991 11.0075 37.3302 14.85 38.95C14.85 39.55 15.45 39.3 14.8 54.7Z" fill="#6E9D3E"/>
<path d="M26.475 35.3C26.5768 35.2589 26.6695 35.1982 26.7478 35.1214C26.8261 35.0445 26.8885 34.953 26.9315 34.852C26.9744 34.751 26.9971 34.6426 26.9981 34.5328C26.9991 34.4231 26.9785 34.3142 26.9375 34.2125C26.8965 34.1107 26.8358 34.018 26.7589 33.9397C26.682 33.8613 26.5905 33.7989 26.4895 33.756C26.3885 33.713 26.2801 33.6904 26.1704 33.6894C26.0606 33.6883 25.9518 33.7089 25.85 33.75C23.7202 34.154 21.6229 34.7138 19.575 35.425C19.0032 35.7125 18.4663 36.0648 17.975 36.475C17.15 37.5 17.65 37.725 19.125 37.95C21.754 37.6775 24.277 36.7679 26.475 35.3Z" fill="#6E9D3E"/>
<path d="M58.9 31.625C58.8261 31.1547 58.5689 30.7328 58.1847 30.4517C57.8005 30.1705 57.3206 30.0531 56.85 30.125C53.1283 31.222 49.5898 32.8649 46.35 35C45.3 35.675 45.925 37.025 47.2 36.375C50.156 34.8255 53.2752 33.6097 56.5 32.75C56.5 34.15 56.65 32.425 57.15 42.1C57.5 48.6 57.65 47.45 57 47.975C54.1796 50.0029 51.1241 51.6818 47.9 52.975C46.525 53.975 46.325 55.125 47.9 54.975C52.225 53.25 59.425 49.975 59.925 48.425C60.1978 42.8043 59.8541 37.1707 58.9 31.625Z" fill="#6E9D3E"/>
</g>
<defs>
<clipPath id="clip0_1034_4363">
<rect width="60" height="60" fill="white"/>
</clipPath>
</defs>
</svg>
