<svg width="60" height="60" viewBox="0 0 60 60" fill="none" xmlns="http://www.w3.org/2000/svg">
<path fill-rule="evenodd" clip-rule="evenodd" d="M57.225 6.79999C48.475 -2.77501 17.225 -1.47501 3.42499 5.89999C3.21282 6.00939 3.0528 6.1986 2.98013 6.42599C2.90746 6.65338 2.92809 6.90032 3.03749 7.11249C3.1469 7.32467 3.3361 7.48469 3.56349 7.55736C3.79088 7.63003 4.03782 7.60939 4.24999 7.49999C17.875 0.524993 47.75 0.174993 55.225 8.59999C56.575 10.15 54.225 31.1 52.925 36.7C51.625 42.3 40.425 52.2 34.875 55.525C31.225 57.725 30.8 57.65 27.225 55.525C20.425 51.375 7.64999 39.575 7.22499 36.65C7.22499 36.225 2.64999 12.625 3.07499 10.95C3.09104 10.7621 3.04024 10.5747 2.93154 10.4206C2.82284 10.2666 2.66323 10.1559 2.48087 10.1081C2.29851 10.0602 2.10511 10.0783 1.9348 10.1592C1.76449 10.24 1.62821 10.3785 1.54999 10.55C1.07499 12.675 5.19999 35.925 5.24999 36.75C5.57499 41.325 25.25 60.05 31.15 60C37.05 59.95 54.075 45.225 55.875 37.5C56.75 33.45 60.125 9.99999 57.225 6.79999Z" fill="#6E9D3E"/>
<path fill-rule="evenodd" clip-rule="evenodd" d="M27.775 30.2C31.375 32.3 37.6 28.975 35.675 25.025C35.5855 24.8029 35.4114 24.6254 35.1911 24.5316C34.9707 24.4379 34.7221 24.4355 34.5 24.525C34.2779 24.6145 34.1004 24.7886 34.0067 25.0089C33.9129 25.2293 33.9105 25.4779 34 25.7C34.65 27.65 30.875 28.825 29.425 27.725C28.9744 27.2588 28.7225 26.6358 28.7225 25.9875C28.7225 25.3391 28.9744 24.7162 29.425 24.25C30.0175 23.826 30.7134 23.5697 31.4394 23.5081C32.1654 23.4465 32.8945 23.5819 33.55 23.9C33.7252 23.9372 33.9079 23.9146 34.0687 23.8357C34.2295 23.7568 34.3592 23.6263 34.437 23.4649C34.5148 23.3036 34.5362 23.1208 34.4977 22.9458C34.4593 22.7709 34.3633 22.6139 34.225 22.5C27.225 18.525 22.85 26.9 27.775 30.2Z" fill="#6E9D3E"/>
<path fill-rule="evenodd" clip-rule="evenodd" d="M17.75 34.225C18.05 34.7 19.425 36.725 19.65 37C20.0491 37.3112 20.5264 37.5062 21.0293 37.5635C21.5321 37.6209 22.041 37.5383 22.5 37.325C23.3741 36.9156 24.2106 36.4304 25 35.875C25.4457 36.1249 25.9047 36.3502 26.375 36.55C26.375 38.525 25.95 40.675 27.55 41.55C28.7577 42.0557 30.0721 42.2532 31.375 42.125C31.975 42.125 34.45 41.85 34.725 41.775C35.153 41.6144 35.5321 41.3458 35.8257 40.9954C36.1192 40.6449 36.317 40.2245 36.4 39.775C36.5752 38.682 36.5752 37.568 36.4 36.475C36.75 36.3 36.925 36.225 37.3 36C38.3493 36.7468 39.589 37.1803 40.875 37.25C43.6 36.95 44.525 33.75 45.5 32.075C45.6577 31.8135 45.7303 31.5096 45.7079 31.2051C45.6855 30.9006 45.5692 30.6106 45.375 30.375C41.55 25.9 41.8 28.15 41.7 25.925C42.5 25.35 44.5 24.325 45 23.075C45.975 20.575 43.65 18.4 42.65 16.725C42.5249 16.5145 42.3372 16.3484 42.1131 16.2497C41.889 16.1511 41.6397 16.125 41.4 16.175C40.4697 16.3822 39.5516 16.6409 38.65 16.95C35.775 17.925 37.65 17.95 35.35 17.075C35 15 35.575 12.325 32.5 11.85C31.062 11.8011 29.6226 11.8848 28.2 12.1C28.0213 12.1063 27.8489 12.1672 27.7058 12.2744C27.5628 12.3817 27.4561 12.5302 27.4 12.7C26.9958 14.08 26.7196 15.4943 26.575 16.925C26.0295 17.0994 25.5086 17.3431 25.025 17.65C22.05 15.675 20.95 14.325 18.35 18.675C18.075 19.15 16.95 21.325 16.875 21.6C16.3 23.625 19.375 24.925 20.425 25.55C20.3877 26.1828 20.3877 26.8172 20.425 27.45C16.85 29.25 15 29.675 17.75 34.225ZM22.125 29.225C22.3355 29.1101 22.5059 28.9336 22.6131 28.719C22.7204 28.5045 22.7594 28.2623 22.725 28.025C22.125 24.125 23.95 24.975 20.575 23.175C20.25 23 19.125 22.525 18.875 22.075C19.4754 20.526 20.3194 19.0828 21.375 17.8C22.575 18.1 24.425 20.3 25.4 19.55C26.75 18.525 28.05 18.575 28.075 17.675C28.0523 16.3647 28.264 15.0608 28.7 13.825C34.025 13.4 32.95 13.6 33.325 18.05C33.3455 18.2506 33.4221 18.4413 33.5459 18.6004C33.6696 18.7596 33.8357 18.8807 34.025 18.95C38.25 21.15 35.35 20.05 41.025 18.75C41.525 19.5 42.95 21.25 42.6 22.2C38.375 25.025 38.95 23.95 38.95 27.85C38.95 29.15 39.775 28.675 42.45 31.65C42.15 32.275 41.2 34.325 40.5 34.4C35.5 31.9 38 32.925 34.325 34.15C32.575 34.725 33.575 36.95 33.5 38.925C32.7558 39.1945 31.9655 39.3135 31.175 39.275C30.5531 39.3629 29.9219 39.3629 29.3 39.275V35.75C29.3071 35.4363 29.2105 35.1291 29.0251 34.876C28.8398 34.6229 28.5761 34.438 28.275 34.35C25.775 33.65 25.45 32.45 24.275 33.225C20.875 35.425 21.525 35.225 21.025 34.55C20.178 33.5144 19.5028 32.3496 19.025 31.1C20.0061 30.3778 21.0427 29.7342 22.125 29.175V29.225Z" fill="#6E9D3E"/>
</svg>
