<svg width="60" height="61" viewBox="0 0 60 61" fill="none" xmlns="http://www.w3.org/2000/svg">
<path d="M50.0001 8.82501C49.4501 8.82501 45.6501 8.37501 42.7501 8.20001H39.5001L30.9 9.10001C30.8025 9.10621 30.7071 9.13209 30.6198 9.17608C30.5325 9.22008 30.455 9.28129 30.3919 9.35602C30.3288 9.43076 30.2816 9.51748 30.2529 9.61097C30.2242 9.70445 30.2147 9.80277 30.2251 9.90001C30.2312 9.9976 30.2571 10.0929 30.3011 10.1803C30.3451 10.2676 30.4063 10.3451 30.4811 10.4082C30.5558 10.4712 30.6425 10.5185 30.736 10.5472C30.8295 10.5759 30.9278 10.5853 31.0251 10.575C32.9501 10.575 34.7501 10.95 37.9001 11.05H39.6501H42.7001C45.6751 11.05 49.5751 10.7 50.2001 10.6C50.3098 10.594 50.4172 10.5655 50.5154 10.5162C50.6137 10.4668 50.7007 10.3978 50.7711 10.3133C50.8414 10.2289 50.8936 10.1309 50.9244 10.0253C50.9552 9.9198 50.964 9.80906 50.95 9.70001C50.9545 9.57737 50.9324 9.45522 50.8852 9.34194C50.8379 9.22867 50.7667 9.12697 50.6765 9.04383C50.5862 8.96069 50.479 8.89808 50.3622 8.86031C50.2455 8.82253 50.1219 8.81049 50.0001 8.82501Z" fill="#6E9D3E"/>
<path d="M42.85 18.025H39.625L31.225 18.8C31.0261 18.8 30.8354 18.879 30.6947 19.0197C30.5541 19.1603 30.475 19.3511 30.475 19.55C30.475 19.7489 30.5541 19.9397 30.6947 20.0804C30.8354 20.221 31.0261 20.3 31.225 20.3C32.825 20.5 34.575 20.625 36.225 20.7L39.55 20.825H42.825C45.325 20.675 48.125 20.325 50.325 20.15C50.4471 20.1712 50.5724 20.1654 50.692 20.1331C50.8116 20.1008 50.9227 20.0427 51.0176 19.9629C51.1124 19.8831 51.1886 19.7836 51.2409 19.6712C51.2932 19.5589 51.3203 19.4364 51.3203 19.3125C51.3203 19.1886 51.2932 19.0662 51.2409 18.9538C51.1886 18.8415 51.1124 18.7419 51.0176 18.6622C50.9227 18.5824 50.8116 18.5243 50.692 18.492C50.5724 18.4596 50.4471 18.4539 50.325 18.475C48.175 18.275 45.475 18.075 42.85 18.025Z" fill="#6E9D3E"/>
<path d="M59.1251 12.975V3.55C59.1129 2.82877 58.8574 2.1328 58.4001 1.575C56.821 0.916772 55.135 0.552462 53.4251 0.5C50.4001 0.2 46.3751 0 43.4251 0C42.5001 0 32.8001 0 27.1751 0.425C25.5657 0.419291 23.973 0.751452 22.5001 1.4C22.2758 1.60743 22.1191 1.87743 22.0501 2.175C21.8179 3.22636 21.6922 4.29844 21.6751 5.375C21.4251 9.725 21.5001 17.025 21.5251 18.75C21.5273 18.8709 21.5553 18.9898 21.6072 19.099C21.659 19.2082 21.7336 19.3051 21.8259 19.3831C21.9181 19.4612 22.026 19.5187 22.1423 19.5518C22.2585 19.5849 22.3805 19.5928 22.5001 19.575C22.7212 19.5751 22.9337 19.489 23.0924 19.3349C23.2511 19.1809 23.3436 18.9711 23.3501 18.75C23.3501 17.425 23.3501 12.825 23.5751 8.75C23.5751 6.65 23.8001 4.75 23.9751 3.55C24.0124 3.30589 24.0625 3.06389 24.1251 2.825H25.0001C26.4501 2.5 28.8251 2.5 31.3501 2.5H43.4751C45.8501 2.5 49.0501 2.775 51.7501 3.025C53.5001 3.2 56.1251 3.625 56.1751 3.65C56.2251 3.675 56.3001 10.85 56.1751 12.875C56.1751 14.1 56.3751 18.45 56.3751 22.225C56.3751 24.15 56.1751 27.675 56.1501 27.75C55.5592 27.7063 54.9659 27.7063 54.3751 27.75H51.7251C49.2251 27.625 46.3501 27.375 45.0501 27.45C44.5057 27.4351 43.9768 27.6323 43.5751 28C42.9751 28.7 42.3501 30.325 41.2751 32.125C40.7843 32.923 40.2238 33.676 39.6001 34.375C39.0985 34.9241 38.4885 35.3631 37.8086 35.6643C37.1287 35.9656 36.3937 36.1224 35.6501 36.125C35.4501 34.75 35.6501 31.125 35.6501 29.4C35.6563 29.0481 35.5881 28.6988 35.4501 28.375C35.399 28.2441 35.3143 28.129 35.2046 28.0412C35.0949 27.9534 34.964 27.8961 34.8251 27.875C34.2926 27.8323 33.7575 27.8323 33.2251 27.875C32.6838 27.8438 32.1413 27.8438 31.6001 27.875C31.5026 27.8866 31.4087 27.9185 31.3245 27.9687C31.2402 28.0189 31.1674 28.0863 31.1108 28.1664C31.0543 28.2466 31.0152 28.3377 30.9961 28.4339C30.977 28.5302 30.9783 28.6293 31.0001 28.725C31.0123 28.8206 31.0435 28.9128 31.0918 28.9962C31.1401 29.0796 31.2046 29.1525 31.2814 29.2107C31.3582 29.2689 31.4458 29.3112 31.5392 29.3351C31.6325 29.359 31.7297 29.3641 31.8251 29.35C32.2908 29.3091 32.7593 29.3091 33.2251 29.35H34.0501C33.9076 31.9314 33.9076 34.5186 34.0501 37.1C34.1257 37.2639 34.2406 37.4066 34.3845 37.5156C34.5283 37.6246 34.6968 37.6965 34.8751 37.725C35.6979 37.9117 36.5522 37.9117 37.3751 37.725C38.723 37.3916 39.952 36.6906 40.9251 35.7C41.6923 34.9458 42.3716 34.1071 42.9501 33.2C43.8751 31.775 44.4251 30.425 44.9501 29.7C46.2001 29.7 48.8751 29.975 51.3251 30.2C52.6982 30.3005 54.0769 30.3005 55.4501 30.2C56.3522 30.1876 57.2273 29.89 57.9501 29.35C58.5941 28.1613 58.9213 26.8268 58.9001 25.475C59.4001 21.425 59.1001 14.575 59.1251 12.975Z" fill="#6E9D3E"/>
<path d="M30 49.525C28.7556 47.4837 27.0413 45.7694 25 44.525C24.0191 43.9949 22.9784 43.5837 21.9 43.3C24.2909 41.749 26.1765 39.5332 27.325 36.925C28.0164 35.6147 28.4026 34.165 28.4545 32.6844C28.5065 31.2038 28.2229 29.7306 27.625 28.375C26.325 25.875 15.625 18.65 7.97503 28.375C4.52503 32.775 3.77503 38.9 8.82503 42.55C9.83767 43.2574 10.9387 43.829 12.1 44.25C8.83687 45.8298 6.05701 48.2557 4.05003 51.275C3.43825 52.2492 2.9193 53.2787 2.50003 54.35C1.83311 55.8731 1.28156 57.4442 0.850031 59.05C0.814039 59.1401 0.796512 59.2366 0.79849 59.3336C0.800469 59.4307 0.821911 59.5263 0.861547 59.6149C0.901182 59.7035 0.958204 59.7833 1.02923 59.8494C1.10026 59.9156 1.18384 59.9668 1.27503 60C1.46398 60.0546 1.66681 60.0328 1.83982 59.9393C2.01284 59.8457 2.1422 59.688 2.20003 59.5C2.64494 58.2578 3.15396 57.0395 3.72503 55.85C4.27814 54.6641 4.95704 53.541 5.75003 52.5C7.9123 49.7416 10.8053 47.6455 14.1 46.45C16.5893 45.4597 19.3415 45.3459 21.9041 46.1274C24.4667 46.9089 26.687 48.5391 28.2 50.75C30.0318 53.3052 31.4336 56.1426 32.35 59.15C32.3672 59.2695 32.4096 59.3841 32.4745 59.4859C32.5393 59.5878 32.6252 59.6747 32.7262 59.7407C32.8273 59.8068 32.9413 59.8506 33.0606 59.8692C33.18 59.8878 33.3019 59.8807 33.4183 59.8485C33.5347 59.8163 33.6428 59.7596 33.7356 59.6823C33.8284 59.605 33.9036 59.5088 33.9563 59.4001C34.009 59.2915 34.0379 59.1728 34.0411 59.0521C34.0443 58.9314 34.0218 58.8113 33.975 58.7C33.1366 55.4531 31.7954 52.3573 30 49.525ZM9.75003 29.8C16.175 20.725 25.3 28.425 25.625 29.8C25.9692 30.8289 26.1044 31.9161 26.0228 32.9979C25.9413 34.0797 25.6445 35.1344 25.15 36.1C23.8457 38.841 21.5085 40.9535 18.65 41.975C17.2497 42.3815 15.7733 42.453 14.3402 42.1838C12.9071 41.9145 11.5574 41.3121 10.4 40.425C6.60003 37.75 7.50003 33.175 9.82503 29.8H9.75003Z" fill="#6E9D3E"/>
</svg>
