<svg width="62" height="60" viewBox="0 0 62 60" fill="none" xmlns="http://www.w3.org/2000/svg">
<path fill-rule="evenodd" clip-rule="evenodd" d="M37.95 28.175C38.0521 28.1627 38.1508 28.1302 38.2402 28.0793C38.3296 28.0285 38.408 27.9604 38.4708 27.8789C38.5337 27.7975 38.5797 27.7044 38.6061 27.605C38.6326 27.5056 38.639 27.4019 38.625 27.3C38.618 26.1321 38.9668 24.9898 39.625 24.025C40.2502 23.0849 40.9526 22.1985 41.725 21.375C42.8476 20.0767 44.0411 18.8415 45.3 17.675C46.0645 17.8443 46.8426 17.9447 47.625 17.975C47.7849 17.9444 47.9291 17.859 48.0328 17.7335C48.1365 17.608 48.1933 17.4503 48.1933 17.2875C48.1933 17.1247 48.1365 16.967 48.0328 16.8415C47.9291 16.716 47.7849 16.6306 47.625 16.6C43.175 16.15 41.225 13.25 41.475 10.375C41.6697 8.79149 42.4722 7.34564 43.713 6.34273C44.9539 5.33982 46.5358 4.85836 48.125 5C49.5586 4.97246 50.9463 5.50586 51.9923 6.48653C53.0384 7.4672 53.6601 8.81761 53.725 10.25C53.8704 10.9855 53.8693 11.7424 53.7217 12.4775C53.5742 13.2125 53.283 13.9112 52.865 14.5336C52.447 15.156 51.9103 15.6898 51.2857 16.1044C50.6611 16.5191 49.9608 16.8064 49.225 16.95C49.0194 16.9765 48.8329 17.0836 48.7063 17.2477C48.5797 17.4118 48.5235 17.6195 48.55 17.825C48.5765 18.0305 48.6836 18.2171 48.8477 18.3437C49.0118 18.4703 49.2194 18.5265 49.425 18.5C50.2975 18.4228 51.1466 18.1766 51.925 17.775C52.5442 18.4688 53.1045 19.2131 53.6 20C53.9 20.45 54.175 20.9 54.425 21.35C54.7 21.825 54.975 22.3 55.225 22.775C55.8319 23.9567 56.3419 25.1858 56.75 26.45C56.7678 26.5494 56.8055 26.6442 56.8609 26.7287C56.9163 26.8132 56.9881 26.8857 57.0722 26.9417C57.1562 26.9977 57.2507 27.0362 57.35 27.0548C57.4493 27.0734 57.5513 27.0718 57.65 27.05C57.8522 27.0135 58.0316 26.8982 58.1488 26.7294C58.266 26.5606 58.3114 26.3522 58.275 26.15C58.1925 24.6823 57.9323 23.23 57.5 21.825C57.3232 21.1928 57.0802 20.5811 56.775 20C56.4453 19.4301 56.0601 18.8942 55.625 18.4C54.9879 17.7567 54.2743 17.1942 53.5 16.725C54.3832 15.8551 55.0648 14.8021 55.4967 13.6401C55.9287 12.4781 56.1005 11.2356 56 10C55.9902 8.96813 55.7765 7.94838 55.371 6.99946C54.9656 6.05053 54.3764 5.19117 53.6375 4.47085C52.8986 3.75053 52.0245 3.18348 51.0656 2.80233C50.1066 2.42118 49.0818 2.23347 48.05 2.25C45.8394 2.18134 43.6895 2.97957 42.0593 4.47428C40.4292 5.96898 39.4479 8.04173 39.325 10.25C39.2844 11.6634 39.658 13.0578 40.3998 14.2615C41.1416 15.4653 42.2192 16.4259 43.5 17.025C42.4356 17.5799 41.4304 18.2416 40.5 19C39.612 19.7536 38.8448 20.6389 38.225 21.625C37.6482 22.4767 37.249 23.4359 37.0514 24.4453C36.8538 25.4548 36.8619 26.4937 37.075 27.5C37.0839 27.6035 37.1141 27.7041 37.1639 27.7953C37.2137 27.8865 37.2819 27.9663 37.3641 28.0298C37.4464 28.0933 37.541 28.1389 37.6418 28.1639C37.7427 28.1889 37.8476 28.1927 37.95 28.175Z" fill="#6E9D3E"/>
<path fill-rule="evenodd" clip-rule="evenodd" d="M22.05 49.525C21.7506 48.968 21.399 48.4406 21 47.95C20.3719 47.2755 19.6574 46.6871 18.875 46.2C19.7528 45.3367 20.4314 44.292 20.8632 43.139C21.2951 41.986 21.4697 40.7525 21.375 39.525C21.3722 38.4814 21.16 37.449 20.751 36.4889C20.3419 35.5288 19.7444 34.6605 18.9938 33.9355C18.2431 33.2105 17.3546 32.6435 16.3809 32.2681C15.4072 31.8927 14.368 31.7165 13.325 31.75C11.115 31.6682 8.96149 32.4585 7.32916 33.9506C5.69683 35.4426 4.71658 37.5166 4.59998 39.725C4.55723 41.1356 4.92713 42.5281 5.66431 43.7316C6.40149 44.935 7.47389 45.8972 8.74998 46.5C7.68559 47.0549 6.68042 47.7166 5.74998 48.475C4.87088 49.2305 4.11216 50.1157 3.49998 51.1C2.91984 51.9548 2.51885 52.9183 2.32121 53.9323C2.12356 54.9463 2.13335 55.9898 2.34998 57C2.36203 57.1013 2.39463 57.1991 2.44579 57.2874C2.49694 57.3757 2.56557 57.4526 2.64748 57.5134C2.72939 57.5743 2.82285 57.6178 2.92215 57.6412C3.02145 57.6647 3.12449 57.6677 3.22498 57.65C3.3271 57.6377 3.42574 57.6051 3.51517 57.5543C3.60459 57.5035 3.683 57.4354 3.74583 57.3539C3.80866 57.2725 3.85465 57.1793 3.88111 57.0799C3.90757 56.9805 3.91399 56.8769 3.89998 56.775C3.89297 55.6071 4.24178 54.4648 4.89998 53.5C5.52516 52.5598 6.22759 51.6735 6.99998 50.85C8.12898 49.5576 9.32214 48.3227 10.575 47.15C11.335 47.3436 12.1157 47.4443 12.9 47.45C13.0599 47.4193 13.2041 47.3339 13.3078 47.2085C13.4115 47.083 13.4683 46.9253 13.4683 46.7625C13.4683 46.5997 13.4115 46.442 13.3078 46.3165C13.2041 46.191 13.0599 46.1056 12.9 46.075C8.49998 45.625 6.59998 42.725 6.84998 39.85C7.02066 38.2483 7.81288 36.7776 9.05637 35.7538C10.2999 34.73 11.8954 34.235 13.5 34.375C14.933 34.3744 16.3097 34.9333 17.337 35.9325C18.3642 36.9317 18.9609 38.2924 19 39.725C19.2943 41.2068 18.9882 42.7448 18.1491 44.0011C17.31 45.2574 16.0065 46.1292 14.525 46.425C14.4232 46.4365 14.3247 46.4679 14.2351 46.5175C14.1454 46.567 14.0664 46.6337 14.0026 46.7138C13.9388 46.7939 13.8913 46.8858 13.863 46.9842C13.8347 47.0827 13.826 47.1857 13.8375 47.2875C13.849 47.3893 13.8804 47.4878 13.93 47.5774C13.9795 47.667 14.0462 47.746 14.1263 47.8099C14.2064 47.8737 14.2983 47.9211 14.3967 47.9495C14.4952 47.9778 14.5982 47.9865 14.7 47.975C15.5725 47.8978 16.4216 47.6516 17.2 47.25C17.8192 47.9438 18.3795 48.688 18.875 49.475C19.1737 49.9187 19.449 50.3776 19.7 50.85C19.975 51.3 20.25 51.775 20.5 52.25C21.1069 53.4317 21.6169 54.6607 22.025 55.925C22.0991 56.0817 22.2236 56.2091 22.3786 56.2867C22.5336 56.3643 22.7102 56.3877 22.8801 56.3532C23.05 56.3186 23.2033 56.2281 23.3157 56.0961C23.4281 55.9641 23.493 55.7982 23.5 55.625C23.4175 54.1573 23.1573 52.705 22.725 51.3C22.5568 50.6882 22.3308 50.0939 22.05 49.525Z" fill="#6E9D3E"/>
<path fill-rule="evenodd" clip-rule="evenodd" d="M5.47499 25.675C8.44354 27.8005 12.0253 28.8978 15.675 28.8C20.8036 28.6525 25.9199 28.2185 31 27.5C31.0932 27.4971 31.1848 27.475 31.269 27.4349C31.3532 27.3949 31.4282 27.3378 31.4893 27.2674C31.5504 27.1969 31.5962 27.1146 31.6238 27.0255C31.6515 26.9365 31.6604 26.8426 31.65 26.75C31.6437 26.6612 31.6199 26.5746 31.5799 26.4951C31.54 26.4156 31.4848 26.3448 31.4174 26.2867C31.3501 26.2287 31.2719 26.1845 31.1874 26.1567C31.1028 26.1289 31.0137 26.1182 30.925 26.125C25.9441 26.6826 20.937 26.9746 15.925 27C12.7437 26.982 9.65478 25.9289 7.12499 24C5.91865 22.8415 4.97178 21.4403 4.34691 19.8889C3.72203 18.3375 3.43337 16.6712 3.49999 15C3.33942 11.6686 4.42694 8.39717 6.54999 5.82497C8.03222 4.35598 9.99309 3.4687 12.075 3.32497C14.2584 3.07162 16.4703 3.38145 18.5 4.22497C19.5027 4.63718 20.4041 5.26187 21.1421 6.056C21.8801 6.85013 22.4372 7.79482 22.775 8.82497C23.975 12.275 23.675 16.45 25.075 19.8C25.6531 21.1621 26.5748 22.3508 27.75 23.25C29.383 24.4897 31.1632 25.5225 33.05 26.325C33.1417 26.372 33.2419 26.4002 33.3447 26.408C33.4474 26.4158 33.5507 26.4031 33.6485 26.3705C33.7463 26.3379 33.8366 26.2861 33.9141 26.2182C33.9916 26.1503 34.0548 26.0676 34.1 25.975C34.1618 25.7969 34.1608 25.6031 34.0971 25.4257C34.0334 25.2483 33.9109 25.0981 33.75 25C31.97 24.2024 30.2914 23.1953 28.75 22C27.838 21.2521 27.1251 20.2902 26.675 19.2C25.25 15 26 9.99997 24.025 6.22497C22.9947 4.34846 21.3668 2.87014 19.4 2.02497C17.0428 0.991061 14.465 0.561427 11.9 0.774974C9.16847 0.949957 6.58892 2.09347 4.62499 3.99997C2.08106 7.08291 0.787359 11.0086 0.999988 15C0.954437 16.9938 1.32939 18.9749 2.10042 20.8141C2.87145 22.6534 4.02127 24.3096 5.47499 25.675Z" fill="#6E9D3E"/>
<path fill-rule="evenodd" clip-rule="evenodd" d="M57.375 34.4999C55.4443 32.5892 52.8861 31.4434 50.175 31.2749C47.6094 31.0484 45.0284 31.4786 42.675 32.5249C40.7057 33.3538 39.0753 34.8255 38.05 36.6999C35.975 40.4999 36.825 45.5749 35.3 49.6249C34.8424 50.7522 34.1019 51.7424 33.15 52.4999C31.6093 53.7032 29.9308 54.7186 28.15 55.5249C27.9676 55.6211 27.8293 55.784 27.7641 55.9797C27.6989 56.1753 27.7117 56.3886 27.8 56.5749C27.9005 56.753 28.0636 56.8875 28.2576 56.9521C28.4516 57.0168 28.6627 57.0071 28.85 56.9249C30.7327 56.1042 32.5117 55.0636 34.15 53.8249C35.3186 52.9295 36.2393 51.7507 36.825 50.3999C38.225 47.0249 37.925 42.8999 39.125 39.3999C39.4608 38.3415 40.0275 37.3709 40.7841 36.5581C41.5407 35.7453 42.4683 35.1106 43.5 34.6999C45.509 33.8776 47.6934 33.5766 49.85 33.8249C51.9319 33.9687 53.8928 34.8559 55.375 36.3249C57.5111 38.8745 58.6247 42.1262 58.5 45.4499C58.587 47.0882 58.3343 48.7267 57.7578 50.2626C57.1813 51.7985 56.2934 53.1986 55.15 54.3749C52.6179 56.2966 49.5287 57.341 46.35 57.3499C41.3373 57.3492 36.3288 57.0571 31.35 56.4749C31.2487 56.4556 31.1445 56.4588 31.0446 56.4843C30.9447 56.5099 30.8518 56.5572 30.7723 56.6229C30.6928 56.6886 30.6289 56.771 30.585 56.8643C30.5411 56.9575 30.5183 57.0594 30.5183 57.1624C30.5183 57.2655 30.5411 57.3673 30.585 57.4606C30.6289 57.5539 30.6928 57.6363 30.7723 57.702C30.8518 57.7677 30.9447 57.815 31.0446 57.8406C31.1445 57.8661 31.2487 57.8693 31.35 57.8499C36.4029 58.6075 41.4942 59.0832 46.6 59.2749C50.2497 59.3728 53.8314 58.2754 56.8 56.1499C58.2008 54.7635 59.2977 53.1005 60.0208 51.267C60.7439 49.4334 61.0774 47.4694 61 45.5C61.2225 41.5073 59.9277 37.578 57.375 34.4999Z" fill="#6E9D3E"/>
<path fill-rule="evenodd" clip-rule="evenodd" d="M12.2 11.575H13.5H14.8H17.925C18.1338 11.6081 18.3473 11.5569 18.5184 11.4327C18.6896 11.3085 18.8043 11.1213 18.8375 10.9125C18.8706 10.7036 18.8195 10.4901 18.6952 10.319C18.571 10.1479 18.3838 10.0331 18.175 9.99997C17.125 9.67497 16.1 9.34997 15.025 9.12497C14.5639 9.02828 14.0957 8.96974 13.625 8.94997C13.1507 8.91251 12.6743 8.91251 12.2 8.94997C11.0939 9.10127 10.0053 9.36085 8.94999 9.72497C8.85836 9.74994 8.77304 9.79397 8.69959 9.85417C8.62614 9.91437 8.56622 9.9894 8.52375 10.0743C8.48127 10.1593 8.4572 10.2522 8.45311 10.3471C8.44902 10.442 8.46499 10.5367 8.49999 10.625C8.52492 10.8065 8.62006 10.9711 8.76496 11.0832C8.90987 11.1954 9.09298 11.2463 9.27499 11.225C10.2 11.25 11.175 11.475 12.2 11.575Z" fill="#6E9D3E"/>
<path fill-rule="evenodd" clip-rule="evenodd" d="M44.075 42.125H47.2H48.5H49.8C50.825 42.125 51.8 41.8 52.875 41.75C52.9716 41.7765 53.0729 41.7819 53.1718 41.7659C53.2708 41.7499 53.3652 41.7129 53.4486 41.6572C53.5319 41.6016 53.6024 41.5287 53.6552 41.4435C53.708 41.3583 53.7419 41.2627 53.7545 41.1633C53.7672 41.0639 53.7583 40.9629 53.7286 40.8671C53.6988 40.7714 53.6488 40.6832 53.582 40.6084C53.5152 40.5337 53.4332 40.4742 53.3414 40.4339C53.2496 40.3936 53.1502 40.3735 53.05 40.375C51.9955 40.008 50.9066 39.7484 49.8 39.6C49.3257 39.5625 48.8492 39.5625 48.375 39.6C47.9056 39.6337 47.4382 39.6921 46.975 39.775C45.9084 40.0136 44.8566 40.3141 43.825 40.675C43.6212 40.7117 43.4397 40.8261 43.3184 40.9939C43.1972 41.1617 43.1458 41.37 43.175 41.575C43.2279 41.7633 43.35 41.9247 43.517 42.0267C43.6839 42.1287 43.8832 42.1638 44.075 42.125Z" fill="#6E9D3E"/>
<path fill-rule="evenodd" clip-rule="evenodd" d="M7.84998 18.5C7.87045 18.5875 7.90819 18.67 7.96097 18.7427C8.01375 18.8154 8.08052 18.8768 8.15736 18.9234C8.2342 18.97 8.31957 19.0007 8.40845 19.0139C8.49733 19.027 8.58795 19.0223 8.67498 19H12.2H13.7L15.2 18.85L18.775 18.4C18.8768 18.4033 18.9782 18.3865 19.0735 18.3507C19.1688 18.3148 19.2561 18.2604 19.3304 18.1908C19.4047 18.1211 19.4646 18.0375 19.5065 17.9447C19.5485 17.8519 19.5717 17.7518 19.575 17.65C19.5783 17.5482 19.5616 17.4467 19.5257 17.3514C19.4898 17.2561 19.4354 17.1688 19.3658 17.0945C19.2961 17.0202 19.2125 16.9604 19.1197 16.9184C19.0269 16.8765 18.9268 16.8532 18.825 16.85C17.6092 16.6271 16.3825 16.4685 15.15 16.375C14.6173 16.3375 14.0827 16.3375 13.55 16.375C13.0198 16.3907 12.4923 16.4577 11.975 16.575C10.7839 16.8288 9.62017 17.1972 8.49998 17.675C8.40078 17.6804 8.30388 17.707 8.21572 17.7528C8.12757 17.7986 8.05017 17.8627 7.98869 17.9407C7.9272 18.0187 7.88303 18.109 7.85912 18.2054C7.8352 18.3018 7.83208 18.4022 7.84998 18.5Z" fill="#6E9D3E"/>
<path fill-rule="evenodd" clip-rule="evenodd" d="M42.425 48.1C42.4281 48.204 42.4522 48.3063 42.4957 48.4008C42.5392 48.4953 42.6013 48.5801 42.6783 48.6501C42.7553 48.7201 42.8456 48.7739 42.9438 48.8082C43.042 48.8425 43.1462 48.8568 43.25 48.85L46.8 49.3L48.3 49.45H49.8H53.325C53.5038 49.4875 53.6902 49.4535 53.8444 49.3554C53.9985 49.2573 54.1082 49.1029 54.15 48.925C54.1723 48.838 54.1771 48.7474 54.1639 48.6585C54.1508 48.5696 54.12 48.4842 54.0734 48.4074C54.0269 48.3306 53.9654 48.2638 53.8927 48.211C53.82 48.1582 53.7375 48.1205 53.65 48.1C52.4914 47.5974 51.2854 47.2121 50.05 46.95C49.525 46.95 49 46.8 48.45 46.75C47.9 46.7 47.4 46.75 46.875 46.75C45.6423 46.842 44.4155 47.0005 43.2 47.225C43.0904 47.2279 42.9827 47.2534 42.8833 47.2997C42.784 47.346 42.6952 47.4122 42.6226 47.4943C42.5499 47.5763 42.4949 47.6724 42.4609 47.7766C42.4269 47.8808 42.4147 47.9909 42.425 48.1Z" fill="#6E9D3E"/>
</svg>
