<svg width="60" height="60" viewBox="0 0 60 60" fill="none" xmlns="http://www.w3.org/2000/svg">
<g clip-path="url(#clip0_1051_8950)">
<path d="M59.7 18.125C59.7269 15.2204 59.6018 12.3164 59.325 9.42498C59.1 7.09998 59.325 3.57498 57.725 2.32498C55.9821 1.16091 53.9657 0.471552 51.875 0.324981C43.2622 -0.145325 34.6283 -0.0701745 26.025 0.549981C24.7013 0.767291 23.4733 1.37693 22.5 2.29998C20.6 4.62498 20.5 17.925 20.45 20.925C20.45 21.1504 20.5395 21.3666 20.6989 21.526C20.8583 21.6854 21.0745 21.775 21.3 21.775C21.5254 21.775 21.7416 21.6854 21.901 21.526C22.0604 21.3666 22.15 21.1504 22.15 20.925C22.15 18.775 22.8 5.29998 24.2 3.69998C24.8161 3.25432 25.5258 2.95507 26.275 2.82498C30.025 2.42498 48.775 2.82498 51.5 3.09998C52.4913 3.21021 53.4704 3.41105 54.425 3.69998C56.675 4.47498 56.05 4.64998 56.6 9.64998C57.2577 14.2863 57.417 18.9797 57.075 23.65C57.0222 25.1907 56.8213 26.7228 56.475 28.225C55.975 27.875 57.875 29.25 44.325 30.5C44.1261 30.5 43.9353 30.579 43.7947 30.7197C43.654 30.8603 43.575 31.0511 43.575 31.25C43.575 31.4489 43.654 31.6397 43.7947 31.7803C43.9353 31.921 44.1261 32 44.325 32L46.275 31.85C46.1289 33.4018 46.5656 34.9524 47.5 36.2C46.19 36.2854 44.8962 36.5374 43.65 36.95C43.4776 36.9818 43.3219 37.0731 43.2098 37.2078C43.0977 37.3425 43.0363 37.5122 43.0363 37.6875C43.0363 37.8627 43.0977 38.0325 43.2098 38.1672C43.3219 38.3019 43.4776 38.3931 43.65 38.425C46.2213 39.3384 49.0287 39.3384 51.6 38.425C51.7973 38.3908 51.9762 38.288 52.1051 38.1348C52.234 37.9816 52.3047 37.7877 52.3047 37.5875C52.3047 37.3872 52.234 37.1934 52.1051 37.0402C51.9762 36.887 51.7973 36.7842 51.6 36.75L49.725 36.475C49.827 34.8493 49.397 33.2346 48.5 31.875C50.35 31.7 57.225 31.1 58.25 29.55C59.275 28 59.675 20 59.7 18.125Z" fill="#6E9D3E"/>
<path d="M40.975 18.275C41.5386 18.3595 42.0864 18.528 42.6 18.775C44.0187 19.5704 45.148 20.796 45.825 22.275C45.825 22.8 47.725 22.95 47.725 22.025C47.4026 20.7013 46.7855 19.4675 45.9197 18.4157C45.054 17.3638 43.9619 16.5209 42.725 15.95C47.725 12.7 45.5 4.29996 39.45 4.69996C38.0747 4.61185 36.7072 4.9648 35.5464 5.70749C34.3856 6.45017 33.492 7.54385 32.9956 8.82942C32.4992 10.115 32.4259 11.5254 32.7864 12.8555C33.1469 14.1856 33.9224 15.366 35 16.225C35.325 16.45 35.275 16.225 34.4 16.85C33.4456 17.412 32.6162 18.1631 31.9627 19.0574C31.3093 19.9516 30.8455 20.97 30.6 22.05C30.6 23.2 31.425 23.25 32.35 22.6C33.0198 20.9566 34.2634 19.6122 35.8498 18.8168C37.4361 18.0213 39.2573 17.8288 40.975 18.275ZM35 13.075C34.25 10.175 35.75 7.72496 39.475 7.52496C39.9392 7.50333 40.4028 7.57924 40.8359 7.74782C41.269 7.91639 41.6619 8.17388 41.9893 8.50367C42.3167 8.83346 42.5714 9.22822 42.7369 9.66249C42.9023 10.0968 42.9749 10.5609 42.95 11.025C43.25 16.025 36.1 17.1 35 13.075Z" fill="#6E9D3E"/>
<path d="M52.175 23.575C47.175 23.1 29.075 23.575 28.55 23.575C28.3776 23.6069 28.2219 23.6981 28.1098 23.8328C27.9977 23.9675 27.9363 24.1372 27.9363 24.3125C27.9363 24.4878 27.9977 24.6575 28.1098 24.7922C28.2219 24.9269 28.3776 25.0181 28.55 25.05C36.4117 25.6233 44.3005 25.7319 52.175 25.375C53.775 25.375 54.675 25.7 54.675 24.8C55.15 23.55 53.625 23.65 52.175 23.575Z" fill="#6E9D3E"/>
<path d="M16.775 25.675C0.0749946 27.05 3.57499 47 14.275 45.95C14.3971 45.9711 14.5223 45.9654 14.642 45.933C14.7616 45.9007 14.8727 45.8426 14.9675 45.7628C15.0623 45.683 15.1386 45.5835 15.1908 45.4711C15.2431 45.3588 15.2702 45.2364 15.2702 45.1125C15.2702 44.9885 15.2431 44.8661 15.1908 44.7538C15.1386 44.6414 15.0623 44.5419 14.9675 44.4621C14.8727 44.3823 14.7616 44.3242 14.642 44.2919C14.5223 44.2596 14.3971 44.2538 14.275 44.275C6.14999 44.675 3.84999 29.275 17.1 28.5C25.575 27.75 28.3 42.125 17.1 44.675C17.0031 44.693 16.9108 44.73 16.8282 44.7837C16.7457 44.8375 16.6745 44.9069 16.6188 44.9882C16.5631 45.0694 16.5239 45.1609 16.5035 45.2573C16.4831 45.3537 16.4819 45.4531 16.5 45.55C16.5181 45.6468 16.555 45.7392 16.6088 45.8217C16.6625 45.9043 16.732 45.9755 16.8132 46.0312C16.8945 46.0869 16.9859 46.1261 17.0823 46.1464C17.1787 46.1668 17.2781 46.168 17.375 46.15C31.275 43.875 28.65 25 16.775 25.675Z" fill="#6E9D3E"/>
<path d="M20 37.925C20 37.4 19.5 35.7 18.575 37.075C17.8776 37.7738 17.1342 38.4253 16.35 39.025C15.3604 38.4482 14.333 37.9388 13.275 37.5C13.025 37.5 12.7 37.65 12.675 38.025C12.7315 38.6932 12.9815 39.3304 13.3944 39.8588C13.8073 40.3871 14.3653 40.7837 15 41C15.5714 41.1899 16.1798 41.2413 16.775 41.15C18.575 40.775 20 38.15 20 37.925Z" fill="#6E9D3E"/>
<path d="M9.57499 46.1C7.37989 46.9256 5.42786 48.2903 3.89874 50.0685C2.36961 51.8466 1.31257 53.981 0.824991 56.275C0.649991 57.025 0.474991 57.95 0.299991 59C0.261398 59.0998 0.244594 59.2066 0.250707 59.3134C0.25682 59.4202 0.285708 59.5245 0.335433 59.6192C0.385158 59.7139 0.454568 59.7969 0.539006 59.8626C0.623443 59.9282 0.720953 59.9751 0.824991 60C1.72499 60.25 1.69999 59.325 2.79999 57.05C3.5636 55.6339 4.39798 54.2572 5.29999 52.925C6.42653 50.7986 8.10099 49.0119 10.15 47.75C10.3688 47.6737 10.5483 47.5137 10.6491 47.3051C10.7499 47.0964 10.7637 46.8563 10.6875 46.6375C10.6112 46.4187 10.4512 46.2391 10.2426 46.1383C10.0339 46.0375 9.79379 46.0237 9.57499 46.1Z" fill="#6E9D3E"/>
<path d="M38.575 31.15C37.9376 30.8348 37.2361 30.6708 36.525 30.6708C35.8139 30.6708 35.1124 30.8348 34.475 31.15C31.4759 33.9522 28.6221 36.9061 25.925 40C25.7758 40.126 25.6828 40.306 25.6664 40.5006C25.65 40.6952 25.7115 40.8883 25.8375 41.0375C25.9635 41.1867 26.1435 41.2797 26.3381 41.2961C26.5327 41.3125 26.7258 41.251 26.875 41.125C29.6953 38.4191 32.6578 35.8655 35.75 33.475C36.075 33.3 38.6 32.95 37.75 35.75C37.171 37.4108 36.3812 38.9903 35.4 40.45C31.225 47.175 29.675 47.65 29.625 50.25C29.625 51.925 30.475 54.05 30.625 59.275C30.625 59.5004 30.7145 59.7166 30.8739 59.876C31.0334 60.0354 31.2496 60.125 31.475 60.125C31.7004 60.125 31.9166 60.0354 32.076 59.876C32.2354 59.7166 32.325 59.5004 32.325 59.275C32.45 54.5 31.775 51.5 31.875 50.35C32 48.725 34.175 47.5 37.775 41.975C38.9214 40.2948 39.8222 38.4597 40.45 36.525C40.925 34.675 40.425 31.725 38.575 31.15Z" fill="#6E9D3E"/>
</g>
<defs>
<clipPath id="clip0_1051_8950">
<rect width="60" height="60" fill="white"/>
</clipPath>
</defs>
</svg>
