<svg width="60" height="60" viewBox="0 0 60 60" fill="none" xmlns="http://www.w3.org/2000/svg">
<g clip-path="url(#clip0_1035_4905)">
<path fill-rule="evenodd" clip-rule="evenodd" d="M35 56.225C30.475 56.35 24.875 55.925 19.475 55.65C14.825 55.425 6.975 55.65 2.775 54.875C2.58871 54.8613 2.40376 54.9154 2.25417 55.0273C2.10458 55.1391 2.00043 55.3013 1.96087 55.4838C1.92132 55.6664 1.94903 55.8571 2.0389 56.0208C2.12878 56.1845 2.27476 56.3103 2.45 56.375C6.18672 57.3021 9.98984 57.9373 13.825 58.275C20.9039 58.7813 28.0132 58.681 35.075 57.975C35.3071 57.965 35.5257 57.8633 35.6827 57.6922C35.8398 57.5211 35.9224 57.2946 35.9125 57.0625C35.9026 56.8304 35.8008 56.6118 35.6297 56.4548C35.4586 56.2977 35.2321 56.215 35 56.225Z" fill="#6E9D3E"/>
<path fill-rule="evenodd" clip-rule="evenodd" d="M2.325 52.05C2.325 47.35 2.95 10.525 2.875 7.275C2.875 4.475 3.5 4.1 5.625 3.875C17.1948 3.12709 28.7992 3.077 40.375 3.725C43.85 4.025 44.125 5.15 44.9 13.9C45.675 22.65 45.05 23.55 46.225 23.525C46.3268 23.5218 46.4269 23.4985 46.5197 23.4565C46.6125 23.4146 46.6962 23.3547 46.7658 23.2804C46.8355 23.2061 46.8898 23.1188 46.9257 23.0235C46.9616 22.9282 46.9783 22.8268 46.975 22.725C46.975 18.325 46.7 12.125 46.225 7.725C45.8 3.95 44.675 1.95 40.625 1.45C28.8849 0.288471 17.0671 0.129563 5.3 0.974996C1.55 1.4 -0.150001 3.15 -1.15705e-06 7.5C-1.15705e-06 9.775 0.374999 46.9 0.574999 52.225C0.598205 52.4571 0.712648 52.6704 0.893152 52.8181C0.982529 52.8912 1.08543 52.946 1.19599 52.9794C1.30655 53.0127 1.42259 53.024 1.5375 53.0125C1.65241 53.001 1.76392 52.967 1.86569 52.9124C1.96745 52.8578 2.05746 52.7837 2.13059 52.6943C2.20372 52.605 2.25852 52.5021 2.29188 52.3915C2.32524 52.2809 2.33649 52.1649 2.325 52.05Z" fill="#6E9D3E"/>
<path fill-rule="evenodd" clip-rule="evenodd" d="M10.2 15.65C12.2 15.65 20.45 15.925 23.775 15.9C26.05 15.9 35.75 15.475 36.575 15.625C36.6866 15.6545 36.803 15.6618 36.9174 15.6464C37.0318 15.631 37.1421 15.5932 37.2419 15.5351C37.3418 15.4771 37.4292 15.4 37.4992 15.3082C37.5692 15.2163 37.6205 15.1116 37.65 15C37.6795 14.8884 37.6868 14.772 37.6714 14.6576C37.656 14.5432 37.6182 14.4329 37.5601 14.3331C37.5021 14.2332 37.425 14.1458 37.3332 14.0758C37.2413 14.0058 37.1366 13.9545 37.025 13.925C32.6217 13.3526 28.1897 13.0271 23.75 12.95C19.1408 12.9571 14.5407 13.3585 10 14.15C9.80109 14.1765 9.62086 14.281 9.49896 14.4404C9.37706 14.5998 9.32348 14.8011 9.35 15C9.37652 15.1989 9.48098 15.3791 9.64038 15.501C9.79979 15.6229 10.0011 15.6765 10.2 15.65Z" fill="#6E9D3E"/>
<path fill-rule="evenodd" clip-rule="evenodd" d="M36.85 24.55C28.0513 23.5872 19.1737 23.5872 10.375 24.55C10.1964 24.5825 10.0349 24.6766 9.91863 24.8159C9.80233 24.9553 9.73863 25.131 9.73863 25.3125C9.73863 25.494 9.80233 25.6697 9.91863 25.8091C10.0349 25.9484 10.1964 26.0425 10.375 26.075C12.875 26.3 20.525 26.75 23.875 26.775C26.575 26.775 35.175 26.4 36.775 26.275C36.8993 26.3011 37.0277 26.2999 37.1514 26.2713C37.2751 26.2428 37.3912 26.1877 37.4915 26.1099C37.5918 26.032 37.6739 25.9332 37.7322 25.8205C37.7905 25.7077 37.8235 25.5835 37.8291 25.4567C37.8346 25.3299 37.8124 25.2033 37.7641 25.0859C37.7158 24.9685 37.6426 24.863 37.5494 24.7767C37.4563 24.6904 37.3455 24.6255 37.2247 24.5863C37.1039 24.5472 36.976 24.5348 36.85 24.55Z" fill="#6E9D3E"/>
<path fill-rule="evenodd" clip-rule="evenodd" d="M10.15 36.1C12.65 36.3 20.375 36.75 23.65 36.775C26.15 36.775 34.975 36.4 36.55 36.3C36.7821 36.3 37.0046 36.2078 37.1687 36.0437C37.3328 35.8796 37.425 35.6571 37.425 35.425C37.425 35.1929 37.3328 34.9704 37.1687 34.8063C37.0046 34.6422 36.7821 34.55 36.55 34.55C27.7514 33.585 18.8736 33.585 10.075 34.55C9.86946 34.5599 9.67629 34.6511 9.53798 34.8035C9.39967 34.9559 9.32756 35.157 9.3375 35.3625C9.34745 35.568 9.43864 35.7612 9.59101 35.8995C9.74338 36.0378 9.94446 36.1099 10.15 36.1Z" fill="#6E9D3E"/>
<path fill-rule="evenodd" clip-rule="evenodd" d="M20.7 50.35C20.6009 50.3651 20.5058 50.3999 20.4204 50.4524C20.335 50.5049 20.261 50.5739 20.2027 50.6555C20.1444 50.7371 20.1031 50.8295 20.0812 50.9273C20.0593 51.0251 20.0571 51.1263 20.075 51.225C20.075 51.975 23.35 52.475 24.125 52.5C24.5 52.5 28.25 52.5 28.425 51.525C28.6 50.55 24.85 49.625 24.275 49.575C23.0396 49.5547 21.8161 49.8199 20.7 50.35Z" fill="#6E9D3E"/>
<path fill-rule="evenodd" clip-rule="evenodd" d="M60 53.325C59.7615 45.0001 57.7859 36.8168 54.2 29.3C51.4 23.625 43.3 23.2 45 33.7C45.225 35.025 45.25 40.65 45.525 42.075C44.488 41.4294 43.3913 40.8853 42.25 40.45C37.425 38.7 34.575 41.925 37.425 46.85C39.2896 49.6866 41.4888 52.2887 43.975 54.6C43.975 57.575 43.975 55.7 44.125 58.7C44.1575 58.8786 44.2516 59.0401 44.3909 59.1564C44.5303 59.2727 44.706 59.3364 44.8875 59.3364C45.069 59.3364 45.2447 59.2727 45.3841 59.1564C45.5234 59.0401 45.6175 58.8786 45.65 58.7C45.6089 57.4662 45.634 56.2311 45.725 55C45.7775 54.4785 45.6912 53.9524 45.475 53.475C43.4559 51.4525 41.6235 49.2519 40 46.9C37.3 42.65 37.95 40.375 45.525 45.525C46.275 46.05 46.9 46.55 47.75 46.225C48.6 45.9 48.725 44.875 48.575 43.725C48.3 41.525 47.575 33.225 47.575 31.6C47.575 30.8 47.575 28.4 48.45 28.275C49.1357 28.308 49.7973 28.5378 50.3559 28.9368C50.9145 29.3357 51.3464 29.8871 51.6 30.525C52.6237 32.4032 53.5175 34.3495 54.275 36.35C56.775 42.975 58.8 55.125 57.975 58.5C57.9249 58.6162 57.9006 58.742 57.9038 58.8685C57.907 58.9951 57.9377 59.1194 57.9936 59.233C58.0495 59.3465 58.1294 59.4466 58.2278 59.5263C58.3262 59.6059 58.4406 59.6633 58.5633 59.6944C58.686 59.7256 58.814 59.7297 58.9385 59.7066C59.0629 59.6834 59.1809 59.6336 59.2842 59.5604C59.3875 59.4873 59.4737 59.3926 59.5369 59.2829C59.6 59.1732 59.6386 59.0511 59.65 58.925C60.0191 57.0827 60.1368 55.1989 60 53.325Z" fill="#6E9D3E"/>
</g>
<defs>
<clipPath id="clip0_1035_4905">
<rect width="60" height="60" fill="white"/>
</clipPath>
</defs>
</svg>
