<svg width="60" height="60" viewBox="0 0 60 60" fill="none" xmlns="http://www.w3.org/2000/svg">
<g clip-path="url(#clip0_1044_5345)">
<path fill-rule="evenodd" clip-rule="evenodd" d="M35.65 33.775C34.725 26.925 36.425 26.475 18.15 26.55C17.9246 26.55 17.7084 26.6396 17.549 26.799C17.3896 26.9584 17.3 27.1746 17.3 27.4C17.3 27.6254 17.3896 27.8416 17.549 28.001C17.7084 28.1604 17.9246 28.25 18.15 28.25C27.05 28.5 30.95 28.25 32.975 29.625C33.525 30.025 34.425 40.5 33.25 48.1C33.216 48.396 33.1575 48.6887 33.075 48.975C33.5 49.775 8.425 52.175 3.475 50.125H3.2C2.81353 49.0201 2.57807 47.868 2.5 46.7C8.08745 47.0071 13.6875 47.0071 19.275 46.7C31.6 46.15 31.4 46.7 31.375 45.775C31.8 44.475 30.375 44.6 28.875 44.525C22.2711 43.7768 15.6039 43.7768 9 44.525C6.84296 44.7951 4.6734 44.9537 2.5 45C2.325 45 2.5 45.225 2.3 44.25C1.475 35.925 3.3 28.375 2.825 27.85C2.6848 27.7126 2.49631 27.6356 2.3 27.6356C2.10369 27.6356 1.9152 27.7126 1.775 27.85C1.025 28.525 1.175 30.35 1.05 31.025C0.168454 35.8889 -0.108646 40.8431 0.225 45.775C0.29044 47.6532 0.618628 49.5129 1.2 51.3C2.475 53.4 9.125 53.6 11.625 53.675C10.625 57.4 9.95 58.675 11.625 59.325C15.0084 60.1714 18.5569 60.0937 21.9 59.1C22.0479 59.0129 22.177 58.8973 22.28 58.76C22.383 58.6227 22.4578 58.4664 22.5 58.3C22.5185 56.655 22.2737 55.0177 21.775 53.45C24.1 53.275 33.925 52.625 35.2 50.675C35.833 49.1629 36.156 47.5392 36.15 45.9C36.4805 41.8531 36.3126 37.7809 35.65 33.775ZM20.175 57.025H12.925C12.925 56.05 13.125 54.7 13.2 53.7C15.4 53.7 17.7 53.7 19.9 53.525C20.1507 54.6737 20.2433 55.8512 20.175 57.025Z" fill="#6E9D3E"/>
<path fill-rule="evenodd" clip-rule="evenodd" d="M59.525 6.65001C59.325 5.00001 59.4 2.50001 58.175 1.50001C55.675 -0.299994 51.025 0.200006 47.675 0.100006C43.675 0.100006 39.425 0.325006 35.425 0.475006C35.1996 0.475006 34.9834 0.564559 34.824 0.723965C34.6646 0.883371 34.575 1.09957 34.575 1.32501C34.575 1.55044 34.6646 1.76664 34.824 1.92605C34.9834 2.08545 35.1996 2.17501 35.425 2.17501C39.425 2.17501 43.475 1.92501 47.525 2.17501C49.2 2.17501 51.475 2.17501 53.475 2.47501C58.475 3.02501 56.675 4.47501 56.875 6.90001C57.3688 11.0105 57.2593 15.1711 56.55 19.25C56.175 19.25 55.425 19.75 54.6 19.9C50.6704 20.5215 46.7027 20.8723 42.725 20.95C32.725 21.225 33.725 20.3 33.4 17.6C40.1933 18.0267 47.0067 18.0267 53.8 17.6C54.85 17.6 55.8 17.875 55.75 16.95C55.925 16.5 55.925 15.975 55.25 15.875C48.3274 14.7671 41.2726 14.7671 34.35 15.875H33.225C33.0169 13.9658 32.9584 12.0433 33.05 10.125C33.75 1.17501 34 1.85001 33.625 1.45001C33.25 1.05001 32.5 1.12501 32.15 2.25001C32.15 2.65001 32.15 1.57501 31.275 10.075C30.9239 13.879 31.1515 17.7142 31.95 21.45C32.95 23.3 37.925 23.525 40.05 23.625C39.175 26.7 39.05 26.925 39.25 27.65C39.8 29.425 47.25 29.325 48.45 28.3C48.6526 28.1256 48.8105 27.9052 48.9106 27.6573C49.0106 27.4094 49.0498 27.1412 49.025 26.875C48.9212 25.735 48.7205 24.6059 48.425 23.5C60.65 22.675 59.25 21.375 59.775 17C60.1158 13.5528 60.0318 10.0768 59.525 6.65001ZM46.65 26.325C46.1202 26.2381 45.5861 26.1797 45.05 26.15H41.55C41.55 25.4 41.55 24.425 41.675 23.65H46.675C46.7522 24.5404 46.7439 25.4362 46.65 26.325Z" fill="#6E9D3E"/>
<path fill-rule="evenodd" clip-rule="evenodd" d="M9.175 27.125C10.6 19.275 16 15.25 18.8 14.625C20.4569 14.3702 22.1431 14.3702 23.8 14.625C21.3 18.525 20.775 18.15 21.3 18.95C21.425 19.175 21.725 19.35 22.225 19.2C23.715 18.1366 25.1193 16.958 26.425 15.675C27.2 14.7 28.225 13.725 27.275 12.575C25.9682 11.1289 24.3295 10.0221 22.5 9.35001C21.425 8.85001 20.45 7.40001 19.6 8.45001C18.75 9.50001 20.75 10.45 23.45 12.925C21.8049 12.5896 20.1288 12.4304 18.45 12.45C16.3422 12.7863 14.3556 13.6567 12.6795 14.9783C11.0034 16.2999 9.6936 18.0287 8.875 20C7.99842 22.2 7.58974 24.5584 7.675 26.925C7.64848 27.1239 7.70206 27.3252 7.82396 27.4846C7.94586 27.644 8.12609 27.7485 8.325 27.775C8.52391 27.8015 8.72521 27.7479 8.88462 27.626C9.04403 27.5041 9.14848 27.3239 9.175 27.125Z" fill="#6E9D3E"/>
</g>
<defs>
<clipPath id="clip0_1044_5345">
<rect width="60" height="60" fill="white"/>
</clipPath>
</defs>
</svg>
